<svg xmlns="http://www.w3.org/2000/svg" xmlns:xlink="http://www.w3.org/1999/xlink" viewBox="0 0 200 200"><defs><style>.cls-1{fill:#e2e2f6;}.cls-2{fill:url(#radial-gradient);}.cls-3{fill:#a6a7dc;}.cls-4{fill:#594539;}.cls-5{fill:#fcfcfb;}.cls-6{fill:#9b643d;}.cls-7{fill:#3a312e;}.cls-8{fill:url(#radial-gradient-2);}.cls-9{fill:#855035;}.cls-10{fill:#e1dfdd;}.cls-11{fill:#8b8cc7;}.cls-12{fill:#bf8f68;}.cls-13{fill:url(#radial-gradient-3);}.cls-14{fill:#dcb38b;}.cls-15{fill:url(#radial-gradient-4);}.cls-16{fill:#33312d;}.cls-17{fill:url(#radial-gradient-5);}.cls-18{fill:#c8c6c4;}.cls-19{fill:#fae969;}.cls-20{fill:url(#radial-gradient-6);}.cls-21{fill:url(#radial-gradient-7);}.cls-22{fill:#fff;}.cls-23{fill:url(#radial-gradient-8);}</style><radialGradient id="radial-gradient" cx="134.91" cy="908.91" r="14.56" gradientTransform="matrix(1, 0.01, -0.01, 0.89, 1.08, -755.22)" gradientUnits="userSpaceOnUse"><stop offset="0" stop-color="#724937"/><stop offset="0.77" stop-color="#9b643d"/></radialGradient><radialGradient id="radial-gradient-2" cx="212.48" cy="995.8" r="13.51" gradientTransform="matrix(0.97, 0.02, -0.02, 0.88, -57.59, -835.64)" gradientUnits="userSpaceOnUse"><stop offset="0" stop-color="#724937"/><stop offset="0.45" stop-color="#905d3b"/><stop offset="0.7" stop-color="#9b643d"/></radialGradient><radialGradient id="radial-gradient-3" cx="-620.45" cy="-585.86" r="24.83" gradientTransform="matrix(0.91, 0, 0, -0.92, 689.49, -390.97)" gradientUnits="userSpaceOnUse"><stop offset="0" stop-color="#915a37"/><stop offset="0.61" stop-color="#c1936d"/><stop offset="1" stop-color="#dcb38b"/></radialGradient><radialGradient id="radial-gradient-4" cx="117.1" cy="945.23" r="7.22" gradientTransform="translate(0 -807.12)" gradientUnits="userSpaceOnUse"><stop offset="0" stop-color="#915a37"/><stop offset="0.07" stop-color="#9a6541"/><stop offset="0.33" stop-color="#b78761"/><stop offset="0.58" stop-color="#cb9f78"/><stop offset="0.81" stop-color="#d8ae86"/><stop offset="1" stop-color="#dcb38b"/></radialGradient><radialGradient id="radial-gradient-5" cx="211.92" cy="1098.12" r="13" gradientTransform="matrix(0.97, 0.01, -0.01, 0.88, -59.85, -823.79)" gradientUnits="userSpaceOnUse"><stop offset="0" stop-color="#9b643d"/><stop offset="0.2" stop-color="#a46f48" stop-opacity="0.8"/><stop offset="0.69" stop-color="#b8865f" stop-opacity="0.31"/><stop offset="1" stop-color="#bf8f68" stop-opacity="0"/></radialGradient><radialGradient id="radial-gradient-6" cx="66.31" cy="63.12" r="12.18" gradientTransform="matrix(1, 0, 0, -1, 0, 160)" gradientUnits="userSpaceOnUse"><stop offset="0" stop-color="#9b643d"/><stop offset="1" stop-color="#bf8f68"/></radialGradient><radialGradient id="radial-gradient-7" cx="3965.95" cy="787.69" r="7.76" gradientTransform="matrix(-1, 0.08, 0.08, 1.05, 3957.26, -1040.44)" gradientUnits="userSpaceOnUse"><stop offset="0" stop-color="#9b643d"/><stop offset="0.88" stop-color="#ba8a63" stop-opacity="0.12"/><stop offset="1" stop-color="#bf8f68" stop-opacity="0"/></radialGradient><radialGradient id="radial-gradient-8" cx="115.71" cy="39.22" r="6.28" xlink:href="#radial-gradient-6"/></defs><title>empty-contacts</title><g id="Layer_23" data-name="Layer 23"><circle class="cls-1" cx="130.08" cy="55.67" r="44.57"/><path class="cls-2" d="M139.79,44.57,121.45,44l-.17,34.87,8.72,2,9.71-2Z"/><path class="cls-3" d="M134.94,73.27l-4.36-2-3.79,2.14s-7.48.24-8.88.41c-3.94.57-7.4,1.23-9.37,1.73a25.32,25.32,0,0,0-11.76,6.08l-1.65,1.65a44.24,44.24,0,0,0,34.63,17,52.72,52.72,0,0,0,9.62-.91,44.3,44.3,0,0,0,26.31-16.69,34.75,34.75,0,0,0-9.7-5.67A56.45,56.45,0,0,0,134.94,73.27Z"/><path class="cls-4" d="M153.77,20.31a6,6,0,0,0-4.36-5.84,5.85,5.85,0,0,0,1.15-3.53,6.07,6.07,0,0,0-6.08-6.09,7.24,7.24,0,0,0-2.64.58,6.08,6.08,0,0,0-6-4.85,6.15,6.15,0,0,0-5.1,2.71,6.07,6.07,0,0,0-5.26-3,6,6,0,0,0-5.84,4.52,6.36,6.36,0,0,0-2.14-.41,6.07,6.07,0,0,0-6.08,6.09,6,6,0,0,0,.49,2.46,6.1,6.1,0,0,0-4.77,5.92,5.86,5.86,0,0,0,3.13,5.27A5.27,5.27,0,0,0,108.54,28a5.38,5.38,0,0,0,3.12,4.85v2.23a7.49,7.49,0,0,0,7.49,7.64l22.61.17a7.55,7.55,0,0,0,7.57-7.57V33.22a5.3,5.3,0,0,0,3.29-4.93,5.39,5.39,0,0,0-1.15-3.37A5.56,5.56,0,0,0,153.77,20.31Z"/><path class="cls-5" d="M130.58,72.29,127,79.19S119.48,76.4,115.86,74C118,73.27,120.3,66,120.3,66l10.28,4.61"/><path class="cls-5" d="M130.58,72.29l3.53,6.9S141.68,76.4,145.3,74c-2.14-.74-4.44-8.06-4.44-8.06l-10.28,4.61"/><path class="cls-6" d="M108.62,39.56a5.93,5.93,0,0,0,5.92,6.08h3.37c3-.25,2.63-2.79,2.72-5.92s.41-5.59-2.47-6l-3.45-.09A5.89,5.89,0,0,0,108.62,39.56Z"/><path class="cls-6" d="M132.63,62.5H128a13.69,13.69,0,0,1-13.57-13.82l.16-21.38a13.7,13.7,0,0,1,13.82-13.57H133a13.69,13.69,0,0,1,13.57,13.82l-.16,21.38A13.74,13.74,0,0,1,132.63,62.5Z"/><ellipse class="cls-7" cx="137.29" cy="35.36" rx="2.8" ry="1.48" transform="translate(100.09 172.17) rotate(-89.23)"/><path class="cls-8" d="M118.32,55.35,130,55.26l.33-8.8a2,2,0,0,0-.82-1.64l-2.8-1.89a1.41,1.41,0,0,1-.33-1.89l2.47-3.79a5.73,5.73,0,0,0,.91-3.12l.16-13.49-12.25.08Z"/><ellipse class="cls-7" cx="123.6" cy="35.4" rx="2.8" ry="1.48" transform="translate(86.54 158.52) rotate(-89.23)"/><path class="cls-6" d="M152.62,39.88a5.93,5.93,0,0,1-6,6c-.24,0-3.2,0-3.37-.08-3-.33-2.63-2.8-2.63-5.93s-.33-5.59,2.55-5.92h3.45A5.87,5.87,0,0,1,152.62,39.88Z"/><path class="cls-9" d="M136,49.75a3.83,3.83,0,0,1-1.16,2.63A6.18,6.18,0,0,1,132.22,54,5.71,5.71,0,0,1,129.1,54a4,4,0,0,1-2.31-1.81.57.57,0,0,1,.25-.82.46.46,0,0,1,.33-.09h.08a17.67,17.67,0,0,0,2.14-.08,12.76,12.76,0,0,0,1.81-.33,9.57,9.57,0,0,0,1.64-.57,12.07,12.07,0,0,0,1.9-1.07H135a.57.57,0,0,1,.82.24A.33.33,0,0,1,136,49.75Z"/><path class="cls-4" d="M141.52,9.62l-21.47-.16-6.74,10.11,1.23,14.06,1.89-10.27a7.07,7.07,0,0,1,7-5.6l14.89.09a6.94,6.94,0,0,1,6.82,5.67l1.73,10.28,1.48-14.06Z"/><circle class="cls-4" cx="138.47" cy="15.71" r="6.09"/><circle class="cls-10" cx="132.8" cy="155.35" r="44.57"/><path class="cls-11" d="M94.15,177.55a44.61,44.61,0,0,0,77.71-.49c-6.74-2.31-14.64-3.13-19.9-3.54-6.91-.49-33-.33-36.76,0C111.83,173.77,102,174.59,94.15,177.55Z"/><g id="ch_7_front_3_4" data-name="ch_7 front 3/4"><path class="cls-12" d="M111.25,137.09l43.42.25.09-15.14a7.44,7.44,0,0,0-7.41-7.48l-28.53-.16a7.44,7.44,0,0,0-7.49,7.4Z"/><path class="cls-13" d="M146.61,132.81H120.05s1.15,21.22,1.15,26.57c0,12.33-5.51,13.81-6.33,14.3,7,8.64,27.55,8.72,36.92-.08-1.15-.08-5-3-5-13.81Z"/><circle class="cls-14" cx="151.79" cy="137.83" r="6.5"/><circle class="cls-15" cx="114.21" cy="137.83" r="6.5"/><path class="cls-14" d="M129.1,162.42h7a15.66,15.66,0,0,0,15.79-15.63l.08-21.3a8.35,8.35,0,0,0-8.31-8.38l-21.3-.09a8.66,8.66,0,0,0-8.63,8.47l-.08,21.3A15.58,15.58,0,0,0,129.1,162.42Z"/><ellipse class="cls-16" cx="139.81" cy="134.87" rx="2.55" ry="1.32" transform="translate(4.18 273.94) rotate(-89.68)"/><path class="cls-17" d="M117,159.79l15.38.08V146.38a2.17,2.17,0,0,0-1-1.81l-3-2a1.43,1.43,0,0,1-.41-2l2.63-4.12a5.8,5.8,0,0,0,1-3.2l.09-14.48-15.38-.08Z"/><ellipse class="cls-16" cx="124.83" cy="134.82" rx="2.55" ry="1.32" transform="translate(-10.67 258.91) rotate(-89.68)"/><path class="cls-12" d="M139.21,147.78a4.57,4.57,0,0,1-1.23,2.63,7,7,0,0,1-2.55,1.56,6.06,6.06,0,0,1-3,.09,4.61,4.61,0,0,1-2.55-1.57.63.63,0,0,1,.08-.74.51.51,0,0,1,.33-.08h.08a9.49,9.49,0,0,0,2.14,0,13.19,13.19,0,0,0,2-.33,6.76,6.76,0,0,0,1.8-.74,10.25,10.25,0,0,0,1.9-1.23h0a.61.61,0,0,1,.74.08C139.21,147.53,139.21,147.62,139.21,147.78Z"/></g><circle class="cls-18" cx="66.19" cy="104.61" r="44.57"/><path class="cls-7" d="M90.36,74.26c-3-12.91-12.83-22.45-24.5-22.53A25.15,25.15,0,0,0,41.27,73.27c-1.4,9-2.39,29.44-12.5,55.43a44.52,44.52,0,0,0,37.17,20.48,55.91,55.91,0,0,0,7.48-.58,44.78,44.78,0,0,0,30-19.32C92.91,104.11,94.39,88.16,90.36,74.26Z"/><path class="cls-12" d="M56.89,90.71H50.56a4.81,4.81,0,0,1-4.85-4.85h0A4.81,4.81,0,0,1,50.56,81h6.33Z"/><path class="cls-12" d="M74.33,90.71h6.33a4.81,4.81,0,0,0,4.85-4.85h0A4.81,4.81,0,0,0,80.66,81H74.33Z"/><path class="cls-19" d="M93.16,124.59c-5.35-6.91-15.46-12.5-26.89-12.5-12.67,0-23.93,8.06-28.46,15q-2.84,4.31-4.68,7.4A44.44,44.44,0,0,0,66,149.26a50,50,0,0,0,7.07-.49,44.5,44.5,0,0,0,26.73-14.72C98.18,131.5,95.87,128.13,93.16,124.59Z"/><path class="cls-20" d="M72.52,107.81,72.6,94.9H59.94v12.75c-.09,2.88-1.57,4.93-4.61,6.33.58,1.56,5,5.35,10.86,5.35s10-3.13,11.43-5.43C74.9,112.91,72.27,111.35,72.52,107.81Z"/><path class="cls-12" d="M82.22,80.76c0,12.41-7.4,22.53-16.61,22.53S49,93.17,49,80.76s7.4-21.39,16.61-21.39S82.22,68.34,82.22,80.76Z"/><ellipse class="cls-7" cx="73.03" cy="81.09" rx="2.63" ry="1.56" transform="translate(-9.15 152.9) rotate(-89.15)"/><path class="cls-21" d="M66.68,70.48l-.33,6.66a10.31,10.31,0,0,1-3.45,7,2.83,2.83,0,0,0-.17,3.53c.41.58,2.63,1.9,2.63,3.46l-.16,6.17-11.27-.5-.16-26.4Z"/><path class="cls-6" d="M63.39,93.59a5.62,5.62,0,0,0,1.64,0l1.65-.25c.58-.08,1.07-.25,1.56-.33a2.48,2.48,0,0,0,1.32-.66l.16-.16a.5.5,0,0,1,.66.08c0,.08.08.08.08.16a2.42,2.42,0,0,1-.24,1.48A5.54,5.54,0,0,1,69.31,95a5.18,5.18,0,0,1-4.69,1,3,3,0,0,1-2.05-1.64.52.52,0,0,1,.24-.66h.25Z"/><path class="cls-7" d="M58.21,57.57A17.7,17.7,0,0,0,69.15,69.65C80,74.18,82.22,83.14,82.22,83.14s9-9.78,0-22.12C72.85,48.44,58.21,57.57,58.21,57.57Z"/><ellipse class="cls-3" cx="82.33" cy="93.39" rx="3.37" ry="3.13" transform="translate(-12.27 174.32) rotate(-89.15)"/><ellipse class="cls-3" cx="48.89" cy="93.42" rx="3.37" ry="3.13" transform="translate(-45.25 140.92) rotate(-89.15)"/><ellipse class="cls-7" cx="59.11" cy="81.09" rx="1.56" ry="2.63" transform="translate(-1.2 0.89) rotate(-0.85)"/><circle class="cls-10" cx="64.79" cy="18.26" r="18.26"/><polygon class="cls-22" points="76.55 16.12 66.93 16.12 66.93 6.5 62.65 6.5 62.65 16.12 53.03 16.12 53.03 20.31 62.65 20.31 62.65 30.02 66.93 30.02 66.93 20.31 76.55 20.31 76.55 16.12"/><path class="cls-23" d="M112.16,132h-.83v-16.2h7.24v9.79A6.42,6.42,0,0,1,112.16,132Z"/><path class="cls-12" d="M126.47,123c5.51-1,7.89-4.2,13.4-4.77,7.81-.74,9.54,1.56,9.54,1.56l.66-2.8c-.17-5.75-3.46-10.36-8.64-9-11,2.79-8.47-1.65-13.15-1.89-4.45-.25-5.43,4.11-7.24,4.11-4.52.08-3.7-5.76-10.36-4.11C104.84,107.57,101,127.55,126.47,123Z"/></g></svg>