<svg xmlns="http://www.w3.org/2000/svg" viewBox="0 0 200 200"><defs><style>.cls-1{fill:#16233a;opacity:0.08;}.cls-1,.cls-4{isolation:isolate;}.cls-2{fill:#6e6fac;}.cls-3{fill:#fff;}.cls-4{fill:#c3c3e1;opacity:0.38;}.cls-5{fill:none;stroke:#6e6fac;stroke-miterlimit:10;stroke-width:8.73px;}.cls-6{fill:#e3646a;}</style></defs><title>error-search-wont-load</title><g id="Layer_9" data-name="Layer 9"><g id="SVG"><path class="cls-1" d="M198.23,110.4a89.53,89.53,0,1,1-89.59-89.46h.07a89.36,89.36,0,0,1,89.52,89.2Z"/><rect class="cls-2" x="130.86" y="134.92" width="9.31" height="38.09" transform="translate(-59.4 90.12) rotate(-30.51)"/><circle class="cls-3" cx="111.85" cy="112.16" r="47.36"/><path class="cls-4" d="M143.68,77.1a47.36,47.36,0,0,1-45.26,80.5l3.35.12s29.47-2.32,39.29-33.79c6.2-24,.08-36.77-6.37-53.27A47.23,47.23,0,0,1,143.68,77.1Z"/><circle class="cls-5" cx="111.85" cy="112.16" r="47.36"/><path class="cls-3" d="M84.55,33.82A33.82,33.82,0,0,0,50.73,0H36.58a33.82,33.82,0,1,0,0,67.63H47.3a15.82,15.82,0,0,0,16.49,10c-2.67-2.86-5.59-8.21-6-10.7A33.82,33.82,0,0,0,84.55,33.82Z"/><path class="cls-6" d="M47.39,14.34A10.72,10.72,0,0,1,51,16.29a9.14,9.14,0,0,1,2.48,3.23,10,10,0,0,1,.87,4.22A10.75,10.75,0,0,1,52.91,29a20.87,20.87,0,0,1-3.48,4.3,2.91,2.91,0,0,0-.29.26,4,4,0,0,1-.41.36,12.91,12.91,0,0,0-1.5,1.53,3,3,0,0,0-.7,1.82c0,.24,0,.59,0,1.08A6.57,6.57,0,0,1,46,41.27a2.73,2.73,0,0,1-2.61,1.2,2.7,2.7,0,0,1-2.7-1.6,8.56,8.56,0,0,1-.5-3.32,8.83,8.83,0,0,1,.54-3.15,11.79,11.79,0,0,1,1.46-2.7,16,16,0,0,1,1.88-2.08c.78-.73,1.44-1.39,2-2a10.89,10.89,0,0,0,1.32-1.78,4,4,0,0,0,.57-2.12,3.28,3.28,0,0,0-1.52-2.88,6.22,6.22,0,0,0-3.33-.8,6,6,0,0,0-1.79.27,19.63,19.63,0,0,0-1.94.78c-.8.37-1.42.63-1.86.8a3.62,3.62,0,0,1-1.31.25,2.94,2.94,0,0,1-2.23-1A2.93,2.93,0,0,1,33,19a3.8,3.8,0,0,1,2-3.08,14.34,14.34,0,0,1,4.23-1.7,16.13,16.13,0,0,1,3.9-.52A13.73,13.73,0,0,1,47.39,14.34ZM45.17,46a4.17,4.17,0,0,1,2.16,2.16,3.72,3.72,0,0,1,.33,1.52,3.67,3.67,0,0,1-.33,1.51,4.44,4.44,0,0,1-.87,1.29,4.25,4.25,0,0,1-1.29.87,3.64,3.64,0,0,1-3,0,4.25,4.25,0,0,1-1.29-.87A4.44,4.44,0,0,1,40,51.19a3.67,3.67,0,0,1-.33-1.51A3.72,3.72,0,0,1,40,48.16,4.17,4.17,0,0,1,42.14,46a3.75,3.75,0,0,1,3,0Z"/><path class="cls-6" d="M153.21,168.63a7.87,7.87,0,1,0-13.62,7.87L147.94,191a90.43,90.43,0,0,0,13.47-8.13Z"/></g></g></svg>