<svg width="40" height="40" viewBox="0 0 40 40" fill="none" xmlns="http://www.w3.org/2000/svg">
<rect width="40" height="40" rx="4" fill="#F4F4FC"/>
<path d="M32 26H25.8594C25.7812 26.2266 25.6719 26.4336 25.5312 26.6211C25.3906 26.8008 25.2266 26.957 25.0391 27.0898C24.8594 27.2148 24.6562 27.3164 24.4297 27.3945C24.2109 27.4648 23.9844 27.5 23.75 27.5C23.5156 27.5 23.2852 27.4648 23.0586 27.3945C22.8398 27.3164 22.6367 27.2148 22.4492 27.0898C22.2695 26.957 22.1094 26.8008 21.9688 26.6211C21.8281 26.4336 21.7188 26.2266 21.6406 26H15.3594C15.2812 26.2266 15.1719 26.4336 15.0312 26.6211C14.8906 26.8008 14.7266 26.957 14.5391 27.0898C14.3594 27.2148 14.1562 27.3164 13.9297 27.3945C13.7109 27.4648 13.4844 27.5 13.25 27.5C13.0156 27.5 12.7852 27.4648 12.5586 27.3945C12.3398 27.3164 12.1367 27.2148 11.9492 27.0898C11.7695 26.957 11.6094 26.8008 11.4688 26.6211C11.3281 26.4336 11.2188 26.2266 11.1406 26H8V12.5H24.5V14H28.7188L32 20.5742V26ZM9.5 24.5H11.1406C11.2188 24.2812 11.3281 24.0781 11.4688 23.8906C11.6094 23.7031 11.7695 23.5469 11.9492 23.4219C12.1367 23.2891 12.3398 23.1875 12.5586 23.1172C12.7852 23.0391 13.0156 23 13.25 23C13.4844 23 13.7109 23.0391 13.9297 23.1172C14.1562 23.1875 14.3594 23.2891 14.5391 23.4219C14.7266 23.5469 14.8906 23.7031 15.0312 23.8906C15.1719 24.0781 15.2812 24.2812 15.3594 24.5H21.6406C21.75 24.1797 21.9219 23.9023 22.1562 23.668C22.3984 23.4258 22.6797 23.25 23 23.1406V14H9.5V24.5ZM13.25 26C13.4531 26 13.6289 25.9258 13.7773 25.7773C13.9258 25.6289 14 25.4531 14 25.25C14 25.0469 13.9258 24.8711 13.7773 24.7227C13.6289 24.5742 13.4531 24.5 13.25 24.5C13.0469 24.5 12.8711 24.5742 12.7227 24.7227C12.5742 24.8711 12.5 25.0469 12.5 25.25C12.5 25.4531 12.5742 25.6289 12.7227 25.7773C12.8711 25.9258 13.0469 26 13.25 26ZM23.75 26C23.9531 26 24.1289 25.9258 24.2773 25.7773C24.4258 25.6289 24.5 25.4531 24.5 25.25C24.5 25.0469 24.4258 24.8711 24.2773 24.7227C24.1289 24.5742 23.9531 24.5 23.75 24.5C23.5469 24.5 23.3711 24.5742 23.2227 24.7227C23.0742 24.8711 23 25.0469 23 25.25C23 25.4531 23.0742 25.6289 23.2227 25.7773C23.3711 25.9258 23.5469 26 23.75 26ZM30.5 20.9258L27.7812 15.5H24.5V23.1406C24.8203 23.25 25.0977 23.4258 25.332 23.668C25.5742 23.9023 25.75 24.1797 25.8594 24.5H30.5V20.9258Z" fill="#464775"/>
</svg>
