<svg width="40" height="40" viewBox="0 0 40 40" fill="none" xmlns="http://www.w3.org/2000/svg">
<path d="M0 6.4C0 4.15979 0 3.03968 0.435974 2.18404C0.819467 1.43139 1.43139 0.819467 2.18404 0.435974C3.03968 0 4.15979 0 6.4 0H33.6C35.8402 0 36.9603 0 37.816 0.435974C38.5686 0.819467 39.1805 1.43139 39.564 2.18404C40 3.03968 40 4.15979 40 6.4V33.6C40 35.8402 40 36.9603 39.564 37.816C39.1805 38.5686 38.5686 39.1805 37.816 39.564C36.9603 40 35.8402 40 33.6 40H6.4C4.15979 40 3.03968 40 2.18404 39.564C1.43139 39.1805 0.819467 38.5686 0.435974 37.816C0 36.9603 0 35.8402 0 33.6V6.4Z" fill="#F4F4FC"/>
<path d="M29.8169 12.8347L27.1653 10.1831C26.9211 9.93896 26.5254 9.93896 26.2813 10.1831L25.3973 11.0671C25.1531 11.3113 25.1531 11.707 25.3973 11.9511L22.4023 14.9461C20.5827 14.1765 18.4022 14.5269 16.919 16.0098L10.7321 22.1966C9.75595 23.1728 9.75595 24.756 10.7321 25.7322L14.2678 29.2679C15.2439 30.244 16.8272 30.244 17.8034 29.2679L23.9906 23.0806C25.4734 21.5978 25.8238 19.4169 25.0543 17.5973L28.0493 14.6023C28.2934 14.8465 28.6891 14.8465 28.9333 14.6023L29.8173 13.7183C30.061 13.4746 30.061 13.0789 29.8169 12.8347ZM17.0006 26.535L13.465 22.9994L18.2323 18.2321L21.7679 21.7677L17.0006 26.535Z" stroke="#464775" stroke-width="1.5"/>
</svg>
