<svg width="145" height="165" viewBox="0 0 145 165" fill="none" xmlns="http://www.w3.org/2000/svg">
<path d="M140.931 23.7436L52.2658 9.22682C50.0183 8.85885 47.8989 10.3882 47.5321 12.6426L29.88 121.128C29.5132 123.383 31.0377 125.508 33.2853 125.876L121.951 140.393C124.198 140.761 126.318 139.232 126.684 136.977L144.336 28.4919C144.703 26.2375 143.179 24.1116 140.931 23.7436Z" fill="#C8C6C4"/>
<path d="M134.303 30.7567L56.3457 17.9932L39.9324 118.865L117.89 131.629L134.303 30.7567Z" fill="white"/>
<path d="M87.3302 0.663862L110.343 4.44424C110.885 4.52797 111.406 4.71959 111.874 5.00785C112.342 5.29612 112.748 5.67523 113.069 6.12294C113.389 6.57065 113.617 7.07794 113.739 7.61506C113.862 8.15217 113.876 8.70829 113.781 9.25078L111 26.3971L79.8399 21.2782L82.6205 4.13188C82.7012 3.59305 82.8873 3.07565 83.168 2.60939C83.4486 2.14314 83.8184 1.73722 84.2561 1.41496C84.6937 1.0927 85.1906 0.860455 85.7181 0.731557C86.2457 0.60266 86.7935 0.579654 87.3302 0.663862V0.663862Z" fill="#F7B548"/>
<path d="M87.3302 0.663862L110.343 4.44424C110.885 4.52797 111.406 4.71959 111.874 5.00785C112.342 5.29612 112.748 5.67523 113.069 6.12294C113.389 6.57065 113.617 7.07794 113.739 7.61506C113.862 8.15217 113.876 8.70829 113.781 9.25078L111 26.3971L79.8399 21.2782L82.6205 4.13188C82.7012 3.59305 82.8873 3.07565 83.168 2.60939C83.4486 2.14314 83.8184 1.73722 84.2561 1.41496C84.6937 1.0927 85.1906 0.860455 85.7181 0.731557C86.2457 0.60266 86.7935 0.579654 87.3302 0.663862V0.663862Z" fill="url(#paint0_linear)"/>
<path d="M74.3799 12.8438L118.87 20.1278L116.411 35.2365C116.324 35.7726 116.132 36.2861 115.847 36.7479C115.562 37.2097 115.189 37.6106 114.75 37.9278C114.31 38.245 113.812 38.4722 113.285 38.5966C112.758 38.7209 112.212 38.7398 111.677 38.6523L75.3071 32.6976C74.2321 32.5162 73.2724 31.9152 72.6379 31.026C72.0035 30.1367 71.7459 29.0317 71.9215 27.9524L74.3799 12.8438Z" fill="#F7B548"/>
<path d="M80.0405 165C53.479 161.412 27.0268 157.794 0.683938 154.146C-2.08813 121.446 3.5653 87.3207 17.6641 54.9395L91.4069 65.793C79.1761 98.5032 75.3906 132.659 80.0405 165Z" fill="#F3F2F1"/>
<path d="M25.0059 86.1247L20.038 85.3971C19.8319 85.3707 19.6342 85.299 19.4589 85.1871C19.2836 85.0752 19.1352 84.9258 19.0241 84.7497C18.9131 84.5736 18.8422 84.375 18.8165 84.1682C18.7908 83.9613 18.811 83.7514 18.8756 83.5533C19.3392 81.859 19.8327 80.1647 20.356 78.4704C20.4932 78.0436 20.7698 77.6757 21.1412 77.4261C21.5126 77.1766 21.9571 77.0599 22.4027 77.095L27.3706 77.8225C27.5717 77.8525 27.7636 77.9273 27.9321 78.0414C28.1007 78.1555 28.2416 78.3061 28.3445 78.482C28.4474 78.6579 28.5097 78.8547 28.5269 79.0579C28.5441 79.2611 28.5156 79.4656 28.4437 79.6564C27.9369 81.3507 27.4501 83.045 26.993 84.7493C26.8776 85.1773 26.6146 85.5505 26.2508 85.8023C25.8869 86.0541 25.4458 86.1684 25.0059 86.1247V86.1247Z" fill="white"/>
<path d="M21.3303 102.819L16.2929 102.082C16.0885 102.052 15.8922 101.981 15.7158 101.873C15.5393 101.765 15.3863 101.623 15.2658 101.455C15.1452 101.286 15.0597 101.095 15.0143 100.893C14.9688 100.691 14.9644 100.482 15.0013 100.278C15.3258 98.5638 15.657 96.8562 15.9948 95.1552C16.0885 94.7142 16.3461 94.3256 16.7152 94.0683C17.0843 93.8109 17.5373 93.7042 17.982 93.7699L22.9498 94.5074C23.1541 94.532 23.351 94.5989 23.528 94.7041C23.705 94.8092 23.8582 94.9502 23.9779 95.1181C24.0976 95.2859 24.181 95.477 24.223 95.679C24.265 95.881 24.2645 96.0896 24.2216 96.2914C23.8639 97.9957 23.5261 99.7099 23.228 101.414C23.157 101.85 22.9188 102.242 22.5642 102.504C22.2097 102.767 21.7669 102.88 21.3303 102.819V102.819Z" fill="white"/>
<path d="M19.0548 119.552L13.9578 118.815C13.5282 118.751 13.1395 118.524 12.8716 118.181C12.6036 117.838 12.4768 117.405 12.5171 116.971C12.696 115.257 12.9046 113.543 13.1331 111.838C13.1853 111.42 13.4007 111.039 13.7321 110.779C14.0636 110.52 14.4842 110.402 14.9017 110.453L19.9788 111.19C20.4053 111.252 20.79 111.481 21.0488 111.826C21.3076 112.172 21.4195 112.606 21.3599 113.034C21.1512 114.749 20.9525 116.463 20.7836 118.167C20.7653 118.374 20.7055 118.575 20.6077 118.757C20.5098 118.94 20.3761 119.101 20.2145 119.231C20.0529 119.36 19.8669 119.455 19.6675 119.511C19.4682 119.566 19.2598 119.58 19.0548 119.552V119.552Z" fill="white"/>
<path d="M18.2106 136.237L13.044 135.499C12.6048 135.431 12.2036 135.21 11.911 134.875C11.6184 134.539 11.4532 134.111 11.4443 133.666C11.4841 131.965 11.5437 130.26 11.6232 128.553C11.6359 128.347 11.6912 128.147 11.7856 127.965C11.88 127.782 12.0114 127.621 12.1714 127.493C12.3314 127.364 12.5164 127.271 12.7146 127.218C12.9128 127.165 13.1197 127.155 13.3222 127.187L18.4589 127.925C18.895 127.992 19.2916 128.217 19.5749 128.556C19.8583 128.895 20.009 129.326 19.999 129.769C19.9294 131.473 19.8798 133.177 19.8499 134.872C19.8489 135.075 19.8033 135.276 19.7165 135.46C19.6297 135.645 19.5038 135.807 19.3476 135.938C19.1913 136.068 19.0086 136.162 18.8121 136.214C18.6157 136.265 18.4104 136.273 18.2106 136.237V136.237Z" fill="white"/>
<path d="M66.9153 89.6436L35.4887 85.0192C35.2853 84.9892 35.091 84.9148 34.9195 84.8011C34.748 84.6874 34.6035 84.5372 34.4964 84.3613C34.3892 84.1853 34.322 83.9878 34.2995 83.7829C34.2769 83.5779 34.2996 83.3705 34.3659 83.1753V83.1753C34.4885 82.7522 34.7535 82.3849 35.1159 82.1359C35.4782 81.8869 35.9155 81.7717 36.3531 81.8099L67.7301 86.4244C67.9341 86.4524 68.1296 86.5249 68.3028 86.6367C68.476 86.7486 68.6226 86.8971 68.7325 87.0719C68.8423 87.2467 68.9127 87.4434 68.9386 87.6484C68.9645 87.8533 68.9454 88.0615 68.8826 88.2583V88.2583C68.7808 88.6909 68.5243 89.0709 68.1616 89.3263C67.799 89.5817 67.3555 89.6946 66.9153 89.6436V89.6436Z" fill="white"/>
<path d="M63.5265 106.348L31.7322 101.703C31.524 101.674 31.3241 101.601 31.145 101.491C30.9658 101.381 30.8113 101.234 30.691 101.061C30.5707 100.888 30.4873 100.692 30.4459 100.485C30.4046 100.279 30.4061 100.065 30.4505 99.8593V99.8593C30.5307 99.429 30.7719 99.0457 31.1248 98.7882C31.4776 98.5306 31.9154 98.4181 32.3482 98.474L64.0928 103.118C64.3012 103.15 64.5012 103.223 64.6809 103.333C64.8605 103.443 65.0162 103.589 65.1386 103.761C65.261 103.933 65.3476 104.128 65.3932 104.335C65.4389 104.541 65.4427 104.754 65.4044 104.962C65.3382 105.396 65.1033 105.785 64.7512 106.045C64.3991 106.304 63.9586 106.413 63.5265 106.348V106.348Z" fill="white"/>
<path d="M61.6002 123.081L29.3886 118.437C28.9601 118.37 28.5728 118.143 28.3053 117.8C28.0378 117.458 27.9101 117.026 27.9479 116.593V116.593C27.9697 116.382 28.034 116.178 28.1368 115.993C28.2396 115.808 28.3789 115.645 28.5461 115.516C28.7134 115.386 28.9051 115.292 29.1097 115.239C29.3143 115.186 29.5275 115.175 29.7364 115.208L61.8685 119.842C62.3012 119.909 62.693 120.136 62.9656 120.48C63.2382 120.824 63.3715 121.258 63.339 121.696V121.696C63.3236 121.905 63.2653 122.108 63.1678 122.293C63.0702 122.478 62.9355 122.64 62.7721 122.771C62.6088 122.901 62.4203 122.996 62.2186 123.049C62.0169 123.102 61.8063 123.113 61.6002 123.081V123.081Z" fill="white"/>
<path d="M61.0131 139.736L28.404 135.161C27.961 135.09 27.558 134.861 27.2683 134.518C26.9785 134.174 26.821 133.737 26.8243 133.287V133.287C26.8285 133.081 26.877 132.878 26.9665 132.693C27.0559 132.507 27.1842 132.343 27.3426 132.211C27.5011 132.08 27.6858 131.984 27.8844 131.931C28.083 131.877 28.2908 131.868 28.4935 131.902L61.023 136.526C61.4542 136.606 61.8453 136.831 62.131 137.165C62.4166 137.499 62.5796 137.921 62.5928 138.36V138.36C62.5969 138.56 62.557 138.759 62.476 138.942C62.395 139.125 62.2749 139.288 62.1242 139.419C61.9734 139.55 61.7957 139.647 61.6037 139.702C61.4117 139.756 61.2101 139.768 61.0131 139.736V139.736Z" fill="white"/>
<defs>
<linearGradient id="paint0_linear" x1="94.7804" y1="27.7823" x2="98.7771" y2="3.45324" gradientUnits="userSpaceOnUse">
<stop stop-color="#E3646A"/>
<stop offset="0.19" stop-color="#E87770" stop-opacity="0.83"/>
<stop offset="0.61" stop-color="#F3A680" stop-opacity="0.41"/>
<stop offset="1" stop-color="#FFD590" stop-opacity="0"/>
</linearGradient>
</defs>
</svg>
