<svg width="16" height="16" viewBox="0 0 16 16" fill="none" xmlns="http://www.w3.org/2000/svg">
<path d="M2.5 14H13.5C13.775 14 14 13.775 14 13.5V2.5C14 2.225 13.775 2 13.5 2H2.5C2.225 2 2 2.225 2 2.5V13.5C2 13.775 2.225 14 2.5 14Z" fill="white"/>
<path fill-rule="evenodd" clip-rule="evenodd" d="M9.27792 8.62983L8.66992 9.47583L7.38492 7.79183C7.19576 7.54391 6.90177 7.39844 6.58992 7.39844C6.27808 7.39844 5.98409 7.54391 5.79492 7.79183L4.18992 9.89283C3.95902 10.1951 3.91963 10.6023 4.08831 10.9432C4.25699 11.2842 4.60452 11.4999 4.98492 11.4998H11.0139C11.389 11.4995 11.7324 11.2894 11.9033 10.9556C12.0742 10.6217 12.044 10.2203 11.8249 9.91583L10.9009 8.62983C10.713 8.36844 10.4108 8.21349 10.0889 8.21349C9.76702 8.21349 9.4648 8.36844 9.27692 8.62983H9.27792Z" stroke="#A6CCC3"/>
<path fill-rule="evenodd" clip-rule="evenodd" d="M10.5 6.5C11.0523 6.5 11.5 6.05228 11.5 5.5C11.5 4.94772 11.0523 4.5 10.5 4.5C9.94772 4.5 9.5 4.94772 9.5 5.5C9.5 6.05228 9.94772 6.5 10.5 6.5Z" stroke="#FF9810"/>
<path opacity="0.64" fill-rule="evenodd" clip-rule="evenodd" d="M2.5 15H13.5C14.327 15 15 14.327 15 13.5V2.5C15 1.673 14.327 1 13.5 1H2.5C1.673 1 1 1.673 1 2.5V13.5C1 14.327 1.673 15 2.5 15ZM2 2.5C2 2.22386 2.22386 2 2.5 2H13.5C13.7761 2 14 2.22386 14 2.5V13.5C14 13.7761 13.7761 14 13.5 14H2.5C2.22386 14 2 13.7761 2 13.5V2.5Z" fill="#605E5C"/>
</svg>
