<svg width="16" height="16" viewBox="0 0 16 16" fill="none" xmlns="http://www.w3.org/2000/svg">
<path d="M2.5 14H13.5C13.775 14 14 13.775 14 13.5V2.5C14 2.225 13.775 2 13.5 2H2.5C2.225 2 2 2.225 2 2.5V13.5C2 13.775 2.225 14 2.5 14Z" fill="white"/>
<path opacity="0.64" fill-rule="evenodd" clip-rule="evenodd" d="M2.5 15H13.5C14.327 15 15 14.327 15 13.5V2.5C15 1.673 14.327 1 13.5 1H2.5C1.673 1 1 1.673 1 2.5V13.5C1 14.327 1.673 15 2.5 15ZM2 2.5C2 2.22386 2.22386 2 2.5 2H13.5C13.7761 2 14 2.22386 14 2.5V13.5C14 13.7761 13.7761 14 13.5 14H2.5C2.22386 14 2 13.7761 2 13.5V2.5Z" fill="#605E5C"/>
<path fill-rule="evenodd" clip-rule="evenodd" d="M10.5 8L6.5 5.5V10.5L10.5 8Z" stroke="#69AFE5" stroke-linecap="round" stroke-linejoin="round"/>
</svg>
