<svg width="17" height="17" viewBox="0 0 17 17" fill="none" xmlns="http://www.w3.org/2000/svg">
<path fill-rule="evenodd" clip-rule="evenodd" d="M13.7877 4.85443L10.5959 0.931105C10.1282 0.356298 9.2574 0.356299 8.78976 0.931105L8.27727 1.56104L7.8279 0.980946C7.36173 0.37916 6.46125 0.376304 5.99135 0.975126L0.662357 7.76615C0.325032 8.19602 0.325031 8.80398 0.662357 9.23385L5.99135 16.0249C6.46125 16.6237 7.36173 16.6208 7.8279 16.019L8.27727 15.439L8.78976 16.0689C9.2574 16.6437 10.1282 16.6437 10.5959 16.0689L16.1434 9.25007C16.345 9.00229 16.432 8.69229 16.4044 8.39081C16.3835 8.16183 16.2965 7.93775 16.1434 7.74957L13.802 4.8716C13.7973 4.86582 13.7925 4.86009 13.7877 4.85443ZM9.82181 1.57402C9.75501 1.49191 9.63061 1.49191 9.5638 1.57402L7.22239 4.45199C7.17173 4.51426 7.17173 4.60403 7.22239 4.6663L9.69264 7.70263L11.9959 4.8716C12.0826 4.76496 12.1833 4.67811 12.2926 4.61103L9.82181 1.57402ZM13.0225 5.50812L15.3694 8.39285C15.3911 8.41955 15.4035 8.45132 15.4066 8.4838C15.4106 8.52694 15.3982 8.57133 15.3693 8.60679L13.0279 11.4848C12.9611 11.5669 12.8367 11.5669 12.7699 11.4848L10.4285 8.60679C10.3778 8.54452 10.3778 8.45475 10.4285 8.39248L12.7699 5.51452C12.8349 5.43459 12.9545 5.43246 13.0225 5.50812ZM12.293 12.3885L9.82181 15.426C9.75501 15.5081 9.63061 15.5081 9.5638 15.426L7.22239 12.548C7.17173 12.4857 7.17173 12.396 7.22239 12.3337L9.69294 9.29701L11.9959 12.1277C12.0827 12.2344 12.1835 12.3214 12.293 12.3885ZM6.44835 13.1909L7.62546 14.6378L7.03886 15.395C6.97227 15.481 6.84363 15.4814 6.7765 15.3959L1.44751 8.60483C1.39932 8.54342 1.39932 8.45657 1.44751 8.39516L6.7765 1.60414C6.84363 1.5186 6.97227 1.519 7.03887 1.60497L7.62546 2.36221L6.44835 3.80907C6.09374 4.24494 6.09374 4.87335 6.44835 5.30921L8.95708 8.39285C9.00774 8.45511 9.00774 8.54489 8.95708 8.60715L6.44835 11.6908C6.09374 12.1267 6.09374 12.7551 6.44835 13.1909Z" fill="#424242"/>
</svg>
