<svg width="277" height="174" viewBox="0 0 277 174" fill="none" xmlns="http://www.w3.org/2000/svg">
<path d="M71.0364 139.47C71.0364 158.021 86.0728 173.059 104.621 173.059C123.169 173.059 138.206 158.021 138.206 139.47C138.206 120.919 123.169 105.88 104.621 105.88C94.6171 105.88 85.6348 110.255 79.4822 117.196C74.2271 123.124 71.0364 130.924 71.0364 139.47Z" fill="#B3AFAB"/>
<path d="M126.787 164.694C122.303 162.225 115.404 162.015 107.66 162.015H101.284C93.6451 162.015 86.8253 162.217 82.3375 164.592C88.267 169.857 96.0684 173.059 104.621 173.059C113.118 173.059 120.872 169.897 126.787 164.694Z" fill="#EE8F94"/>
<path d="M123.373 118.878C123.373 116.529 121.792 114.57 119.644 113.95C120.216 113.12 120.555 112.116 120.555 111.031C120.555 108.186 118.249 105.879 115.404 105.879C114.597 105.879 113.844 106.081 113.164 106.411C112.676 104.074 110.606 102.318 108.124 102.318C106.336 102.318 104.763 103.23 103.84 104.612C102.937 103.121 101.315 102.115 99.4457 102.115C97.0392 102.115 95.0348 103.773 94.469 106.003C93.9232 105.807 93.3428 105.681 92.7292 105.681C89.8842 105.681 87.5779 107.988 87.5779 110.833C87.5779 111.578 87.7431 112.282 88.0275 112.921C85.7202 113.432 83.9916 115.483 83.9916 117.945C83.9916 119.798 84.9787 121.409 86.447 122.317C85.508 123.145 84.9037 124.343 84.9037 125.694C84.9037 127.674 86.1844 129.338 87.9561 129.95V131.682C87.9561 135.211 90.816 138.071 94.3439 138.071H113.442C116.97 138.071 119.83 135.21 119.83 131.682V129.935C121.577 129.309 122.834 127.656 122.834 125.694C122.834 124.534 122.384 123.486 121.665 122.685C122.706 121.743 123.373 120.393 123.373 118.878Z" fill="#594539"/>
<path d="M116.5 162.35C115.718 164.148 112.352 166.698 109.365 168.695C106.361 170.703 102.448 170.692 99.4627 168.656C96.5677 166.681 93.3113 164.192 92.4646 162.48C96.3917 160.946 104.827 160.495 104.827 160.495C104.827 160.495 111.913 160.719 116.5 162.35Z" fill="#9B643D"/>
<path d="M112.084 138.664H96.4022V159.328C96.4022 161.567 92.4646 162.48 92.4646 162.48L116.5 162.35C116.5 162.35 112.093 161.304 112.09 159.058L112.084 138.664Z" fill="url(#paint0_radial)"/>
<path d="M85.3512 135.355C85.3356 138.154 87.592 140.436 90.3909 140.451C90.5809 140.453 93.0362 140.443 93.2209 140.424C95.7568 140.158 95.4724 138.02 95.4869 135.411C95.5013 132.826 95.8462 130.682 93.3476 130.357C93.1404 130.33 90.6615 130.316 90.4471 130.314C87.6481 130.299 85.3666 132.556 85.3512 135.355Z" fill="#9B643D"/>
<path d="M105.835 153.762H101.936C95.5597 153.762 90.3907 148.592 90.3907 142.215V124.168C90.3907 117.791 95.5596 112.622 101.936 112.622H105.835C112.211 112.622 117.38 117.791 117.38 124.168V142.215C117.38 148.592 112.211 153.762 105.835 153.762Z" fill="#9B643D"/>
<path d="M110.876 131.628C110.884 130.274 110.295 129.174 109.562 129.17C108.829 129.165 108.229 130.26 108.221 131.613C108.214 132.967 108.802 134.068 109.535 134.072C110.268 134.076 110.869 132.982 110.876 131.628Z" fill="#3A312E"/>
<path d="M93.6559 148.696L103.497 148.534L103.756 141.089C103.756 140.53 103.475 140.009 103.009 139.701L100.621 138.127C100.102 137.785 99.9548 137.088 100.292 136.565L102.369 133.338C102.865 132.568 103.13 131.673 103.133 130.758L103.177 119.377L92.8401 119.532L93.6559 148.696Z" fill="url(#paint1_radial)"/>
<path d="M99.3912 131.628C99.3987 130.275 98.8103 129.174 98.0771 129.17C97.3439 129.166 96.7435 130.26 96.736 131.614C96.7286 132.967 97.3169 134.068 98.0502 134.072C98.7834 134.076 99.3838 132.982 99.3912 131.628Z" fill="#3A312E"/>
<path d="M122.563 135.355C122.579 138.154 120.323 140.436 117.524 140.451C117.334 140.453 114.878 140.443 114.694 140.424C112.158 140.158 112.442 138.02 112.428 135.411C112.413 132.826 112.068 130.682 114.567 130.357C114.774 130.33 117.253 130.316 117.467 130.314C120.266 130.299 122.548 132.556 122.563 135.355Z" fill="#9B643D"/>
<path d="M108.548 143.858C108.516 145.52 107.105 147.063 105.399 147.503C104.553 147.74 103.646 147.727 102.826 147.47C102.011 147.21 101.255 146.712 100.828 145.966C100.676 145.7 100.768 145.362 101.033 145.21C101.122 145.159 101.219 145.135 101.315 145.136L101.385 145.138C102.096 145.149 102.652 145.131 103.185 145.072C103.714 145.015 104.199 144.925 104.669 144.804C105.621 144.555 106.448 144.168 107.661 143.401L107.697 143.379C107.956 143.215 108.299 143.292 108.462 143.551C108.523 143.647 108.55 143.753 108.548 143.858Z" fill="#855035"/>
<path d="M112.947 109.861H94.824L89.1676 118.444L90.2928 130.32L91.8042 121.644C92.3733 118.894 94.7958 116.921 97.6044 116.921H110.166C112.975 116.921 115.398 118.894 115.967 121.645L117.478 130.321L118.603 118.443L112.947 109.861Z" fill="#594539"/>
<path d="M276.479 139.47C276.479 158.021 261.443 173.059 242.895 173.059C224.346 173.059 209.31 158.021 209.31 139.47C209.31 120.919 224.346 105.88 242.895 105.88C252.899 105.88 261.881 110.255 268.033 117.196C273.288 123.124 276.479 130.924 276.479 139.47Z" fill="#E3646A"/>
<path d="M265.756 129C265.756 128.991 265.75 128.984 265.749 128.976C264.36 116.76 255.057 107.226 243.652 107.037C231.342 106.833 221.19 117.593 220.721 131.184C220.714 131.202 220.701 131.22 220.697 131.238C220.536 138.013 218.417 148.347 215.591 159.016C221.684 167.516 231.639 173.059 242.895 173.059C254.315 173.059 264.397 167.354 270.464 158.643C267.821 146.721 266.456 136.151 265.756 129Z" fill="#3A312E"/>
<path d="M230.845 141.544C230.87 139.894 229.606 138.538 228.024 138.514C226.441 138.491 225.138 139.809 225.113 141.458C225.088 143.108 226.352 144.464 227.935 144.488C229.517 144.511 230.821 143.193 230.845 141.544Z" fill="#E3646A"/>
<path d="M249.557 142.729H239.505V160.283H249.557V142.729Z" fill="#BF8F68"/>
<path d="M249.551 142.726H239.503V160.289H249.551V142.726Z" fill="url(#paint2_radial)"/>
<path d="M241.42 150.528C249.712 150.528 256.434 142.387 256.434 132.346C256.434 122.304 249.712 114.164 241.42 114.164C233.128 114.164 226.406 122.304 226.406 132.346C226.406 142.387 233.128 150.528 241.42 150.528Z" fill="#BF8F68"/>
<path d="M248.644 132.094C248.664 130.795 248.053 129.733 247.281 129.721C246.508 129.71 245.867 130.753 245.847 132.052C245.828 133.351 246.438 134.413 247.211 134.425C247.983 134.436 248.625 133.393 248.644 132.094Z" fill="#3A312E"/>
<path d="M241.515 122.534L241.156 128.56C240.888 131.643 239.271 133.752 238.052 134.928C237.37 135.586 237.043 137.185 237.853 138.146C238.293 138.668 240.221 139.821 240.221 141.25L240.04 146.825L228.69 146.909L229.235 122.161L241.515 122.534Z" fill="url(#paint3_radial)"/>
<path d="M239.554 142.392C240.168 142.644 240.624 142.715 241.063 142.712C241.501 142.695 241.939 142.625 242.405 142.496C242.868 142.368 243.343 142.189 243.811 141.984C244.275 141.755 244.702 141.555 245.119 141.193L245.277 141.057C245.46 140.898 245.737 140.917 245.897 141.1C245.949 141.161 245.982 141.233 245.996 141.306C246.177 142.249 245.676 143.098 245.129 143.669C244.566 144.266 243.845 144.675 243.048 144.888C242.256 145.096 241.346 145.107 240.52 144.755C239.69 144.428 239.025 143.709 238.845 142.92C238.786 142.661 238.948 142.403 239.207 142.344C239.308 142.321 239.408 142.332 239.497 142.368L239.554 142.392Z" fill="#9B643D"/>
<path d="M226.406 117.469C226.406 117.469 229.625 119.088 233.632 116.798C237.045 114.848 239.808 117.993 241.42 120.363C244.886 125.456 250.724 129.962 256.467 129.209C260.575 128.671 261.632 115.25 249.551 110.902C236.917 106.354 226.406 117.469 226.406 117.469Z" fill="#3A312E"/>
<path d="M250.724 138.121H256.467C258.913 138.121 260.896 136.138 260.896 133.691C260.896 131.244 258.913 129.261 256.467 129.261H250.724V138.121Z" fill="#BF8F68"/>
<path d="M259.7 140.657C259.725 139.008 258.461 137.651 256.879 137.628C255.296 137.604 253.993 138.922 253.968 140.572C253.943 142.221 255.207 143.578 256.79 143.601C258.372 143.625 259.676 142.307 259.7 140.657Z" fill="#E3646A"/>
<path d="M249.551 153.515C249.551 153.515 249.557 158.285 255.81 159.955L248.858 161.792L249.551 153.515Z" fill="#BF8F68"/>
<path d="M239.503 152.93V156.663C239.503 158.334 238.351 159.783 236.724 160.161L229.782 161.71L240.661 161.503L239.503 152.93Z" fill="#BF8F68"/>
<path d="M242.895 173.059C251.673 173.059 259.661 169.688 265.645 164.173C260.501 161.605 254.971 159.47 249.294 157.909C249.604 158.688 249.894 159.464 250.164 160.236C248.003 159.562 245.704 159.199 243.321 159.199C239.71 159.199 236.294 160.035 233.253 161.519C232.933 161.496 232.614 161.471 232.287 161.471C228.311 161.471 224.753 163.237 222.334 166.02C228.016 170.428 235.146 173.059 242.895 173.059Z" fill="#8B8CC7"/>
<path d="M230.75 161.488C230.792 161.519 230.834 161.53 230.875 161.55C230.979 161.592 231.083 161.633 231.187 161.675C231.519 161.81 231.862 161.935 232.235 162.049C234.125 162.661 236.441 163.108 239.037 163.326H239.047C240.968 163.492 243.013 163.534 245.163 163.43C247.302 163.337 249.337 163.108 251.216 162.765C252.338 162.558 253.407 162.319 254.404 162.049C255.764 161.685 256.989 161.26 258.059 160.782C257.311 160.491 256.553 160.221 255.806 159.951C255.255 159.754 254.695 159.567 254.144 159.38C252.12 158.507 250.988 157.261 250.354 156.15C250.084 156.108 249.825 156.067 249.555 156.025C249.482 156.025 249.42 156.015 249.347 156.005C248.984 155.963 248.631 155.921 248.267 155.89H248.257C246.803 155.766 245.318 155.735 243.802 155.807C242.785 155.849 241.788 155.942 240.802 156.088H240.791C240.511 156.119 240.231 156.16 239.95 156.212C239.794 156.233 239.649 156.264 239.504 156.285V156.659C239.504 158.331 238.351 159.785 236.721 160.159L230.75 161.488Z" fill="#BF8F68"/>
<path d="M234.657 134.455C235.429 134.444 236.04 133.382 236.02 132.083C236.001 130.784 235.359 129.74 234.587 129.752C233.814 129.763 233.204 130.826 233.223 132.125C233.243 133.423 233.884 134.467 234.657 134.455Z" fill="#3A312E"/>
<path d="M207.342 139.47C207.342 158.021 192.306 173.059 173.758 173.059C155.21 173.059 140.173 158.021 140.173 139.47C140.173 120.919 155.21 105.88 173.758 105.88C183.762 105.88 192.744 110.255 198.897 117.196C204.152 123.124 207.342 130.924 207.342 139.47Z" fill="#8B8CC4"/>
<path d="M190.207 116.58H156.736L154.317 115.21L156.736 113.841H190.207C190.788 113.841 191.263 114.457 191.263 115.21C191.263 115.963 190.788 116.58 190.207 116.58Z" fill="#E3646A"/>
<path d="M173.78 122.824C179.703 122.824 184.505 118.022 184.505 112.098C184.505 106.173 179.703 101.371 173.78 101.371C167.857 101.371 163.055 106.173 163.055 112.098C163.055 118.022 167.857 122.824 173.78 122.824Z" fill="#594539"/>
<path d="M173.78 122.824C179.703 122.824 184.505 118.022 184.505 112.098C184.505 106.173 179.703 101.371 173.78 101.371C167.857 101.371 163.055 106.173 163.055 112.098C163.055 118.022 167.857 122.824 173.78 122.824Z" fill="url(#paint4_radial)"/>
<path d="M179.364 138.84H166.582V170.632H179.364V138.84Z" fill="#E0BB95"/>
<path d="M179.364 145.208H166.582V168.624H179.364V145.208Z" fill="url(#paint5_radial)"/>
<path d="M154.352 166.876C159.833 170.765 166.525 173.059 173.758 173.059C180.666 173.059 187.085 170.971 192.423 167.395C187.128 164.014 180.843 162.047 174.095 162.047H171.851C165.453 162.047 159.469 163.812 154.352 166.876Z" fill="#E0BB95"/>
<path d="M173.758 173.059C180.667 173.059 187.087 170.97 192.427 167.393C192.359 167.35 192.294 167.303 192.226 167.261H154.893C160.27 170.919 166.764 173.059 173.758 173.059Z" fill="#EE8F94"/>
<path d="M173.78 156.315C185.403 156.315 194.825 146.892 194.825 135.267C194.825 123.643 185.403 114.22 173.78 114.22C162.157 114.22 152.735 123.643 152.735 135.267C152.735 146.892 162.157 156.315 173.78 156.315Z" fill="#594539"/>
<path d="M173.78 156.569C182.722 156.569 189.971 149.319 189.971 140.376C189.971 131.433 182.722 124.183 173.78 124.183C164.838 124.183 157.589 131.433 157.589 140.376C157.589 149.319 164.838 156.569 173.78 156.569Z" fill="#E0BB95"/>
<path d="M180.301 136.437C177.649 136.437 175.372 138.066 174.413 140.375H173.002C172.043 138.066 169.766 136.437 167.114 136.437C163.6 136.437 160.741 139.296 160.741 142.811C160.741 146.326 163.6 149.186 167.114 149.186C170.629 149.186 173.489 146.326 173.489 142.811C173.489 142.517 173.461 142.229 173.423 141.945H173.993C173.954 142.229 173.927 142.516 173.927 142.811C173.927 146.326 176.786 149.186 180.301 149.186C183.815 149.186 186.674 146.326 186.674 142.811C186.674 139.297 183.815 136.437 180.301 136.437ZM167.114 147.616C164.465 147.616 162.31 145.461 162.31 142.811C162.31 140.162 164.465 138.007 167.114 138.007C169.763 138.007 171.918 140.162 171.918 142.811C171.918 145.46 169.763 147.616 167.114 147.616ZM180.301 147.616C177.652 147.616 175.497 145.461 175.497 142.811C175.497 140.162 177.652 138.007 180.301 138.007C182.95 138.007 185.104 140.162 185.104 142.811C185.104 145.46 182.95 147.616 180.301 147.616Z" fill="#E3646A"/>
<g opacity="0.5">
<path opacity="0.5" d="M171.508 150.122C172.032 150.268 172.431 150.295 172.815 150.269C173.196 150.231 173.57 150.158 173.94 150.019C174.314 149.896 174.678 149.715 175.033 149.512C175.384 149.293 175.718 149.069 176.068 148.686L176.117 148.632C176.26 148.476 176.503 148.465 176.659 148.608C176.718 148.663 176.757 148.731 176.774 148.804C176.934 149.492 176.66 150.224 176.239 150.753C175.818 151.301 175.233 151.687 174.586 151.914C173.937 152.123 173.203 152.179 172.519 151.953C171.837 151.746 171.237 151.247 170.999 150.624C170.922 150.424 171.022 150.199 171.223 150.122C171.303 150.091 171.388 150.089 171.465 150.111L171.508 150.122Z" fill="#9B643D"/>
</g>
<path d="M167.114 145.198C167.832 145.198 168.413 144.172 168.413 142.906C168.413 141.641 167.832 140.615 167.114 140.615C166.397 140.615 165.815 141.641 165.815 142.906C165.815 144.172 166.397 145.198 167.114 145.198Z" fill="#33312D"/>
<path d="M180.157 145.198C180.874 145.198 181.456 144.172 181.456 142.906C181.456 141.641 180.874 140.615 180.157 140.615C179.44 140.615 178.858 141.641 178.858 142.906C178.858 144.172 179.44 145.198 180.157 145.198Z" fill="#33312D"/>
<path d="M182.837 116.26C181.285 115.519 179.628 114.969 177.902 114.62C176.568 114.359 175.19 114.219 173.777 114.219C162.381 114.219 153.113 123.28 152.755 134.59C155.972 137.25 160.105 138.837 164.605 138.837C171.101 138.837 176.82 135.515 180.151 130.483C183.29 135.21 188.522 138.428 194.53 138.794C194.721 137.651 194.826 136.474 194.826 135.271C194.826 126.89 189.925 119.652 182.837 116.26Z" fill="#594539"/>
<path d="M192.482 167.357C189.514 165.472 186.243 164.022 182.749 163.123V171.832C186.256 170.859 189.536 169.339 192.482 167.357Z" fill="#EAEAF3"/>
<path d="M163.323 171.398V163.123C160.128 163.945 157.122 165.23 154.361 166.882C157.078 168.809 160.092 170.342 163.323 171.398Z" fill="#EAEAF3"/>
<path d="M68.1483 139.47C68.1483 158.021 53.1119 173.059 34.5636 173.059C16.0154 173.059 0.978882 158.021 0.978882 139.47C0.978882 120.919 16.0153 105.88 34.5635 105.88C44.5675 105.88 53.5497 110.255 59.7024 117.196C64.9575 123.124 68.1483 130.924 68.1483 139.47Z" fill="#8B8CC4"/>
<path d="M62.2415 158.491C53.0129 157.937 45.16 158.109 45.16 158.109C34.5635 160.456 22.7375 159.976 15.3823 158.665L7.29321 159.064C13.3902 167.537 23.329 173.059 34.5634 173.059C46.0505 173.059 56.1858 167.288 62.2415 158.491Z" fill="#6E6FAC"/>
<path d="M45.16 158.109C45.16 158.109 42.7451 164.832 32.7862 164.832C22.8273 164.832 15.3823 158.665 15.3823 158.665C15.3823 158.665 17.5702 156.702 17.8181 152.965C18.1198 148.42 17.9732 133.398 17.9732 133.398C17.9732 133.398 45.6103 121.468 43.2833 132.702C41.1287 143.103 41.209 152.212 42.7668 156.259C43.4605 158.062 45.16 158.109 45.16 158.109Z" fill="url(#paint6_radial)"/>
<path d="M36.8664 133.369L15.5778 133.487L15.5089 121.083C15.4902 117.719 18.2018 114.977 21.5654 114.958L36.7637 114.874C41.3588 114.849 45.1045 118.553 45.1301 123.149L45.1404 125.001C45.1659 129.597 41.4615 133.344 36.8664 133.369Z" fill="#E1DFDD"/>
<path d="M19.4189 139.249C22.3462 139.249 24.7193 136.876 24.7193 133.948C24.7193 131.02 22.3462 128.647 19.4189 128.647C16.4915 128.647 14.1184 131.02 14.1184 133.948C14.1184 136.876 16.4915 139.249 19.4189 139.249Z" fill="#E0BB95"/>
<path d="M37.6311 154.109L34.856 154.124C25.5979 154.175 18.0511 146.711 17.9997 137.451L17.9403 126.743C17.9193 122.964 20.9653 119.883 24.7436 119.862L50.1292 119.721L50.2492 141.348C50.2881 148.357 44.6388 154.07 37.6311 154.109Z" fill="#E0BB95"/>
<path d="M46.0481 121.375C41.6139 120.267 36.8639 119.229 32.356 119.061C25.3175 118.8 19.5551 119.949 19.5551 119.949L19.624 117.85C19.7802 113.094 22.7162 108.69 28.5171 109.522C37.4188 110.798 35.5 108.215 39.3288 107.987C42.9628 107.771 43.7507 111.368 45.2703 111.407C48.9635 111.502 48.2845 106.676 53.8081 108.001C58.4964 109.126 62.3083 125.438 46.0481 121.375Z" fill="#E1DFDD"/>
<path d="M30.3581 134.767C31.0731 134.763 31.6468 133.69 31.6396 132.37C31.6323 131.05 31.0468 129.983 30.3318 129.987C29.6168 129.991 29.043 131.064 29.0503 132.384C29.0575 133.704 29.643 134.771 30.3581 134.767Z" fill="#33312D"/>
<path d="M48.2361 152.91L35.5855 152.965L35.5807 141.859C35.5804 141.275 35.8739 140.729 36.3618 140.407L38.8588 138.761C39.4023 138.403 39.556 137.674 39.2037 137.127L37.0306 133.752C36.5126 132.947 36.2353 132.011 36.2316 131.054L36.1857 119.151L48.8363 119.095L48.2361 152.91Z" fill="url(#paint7_radial)"/>
<path d="M41.6205 134.715C42.3355 134.711 42.9093 133.638 42.902 132.318C42.8948 130.998 42.3092 129.931 41.5942 129.935C40.8792 129.939 40.3054 131.012 40.3127 132.332C40.32 133.652 40.9055 134.719 41.6205 134.715Z" fill="#33312D"/>
<path d="M17.787 118.761C20.0686 118.808 23.3792 119.499 23.9524 123.006C24.5588 126.716 22.7477 128.511 20.3171 128.65C19.4191 128.701 18.1697 128.862 17.1449 129.011C16.1199 129.16 16.5282 118.734 17.787 118.761Z" fill="#E1DFDD"/>
<g opacity="0.7">
<path opacity="0.7" d="M30.5997 142.132C31.6936 142.962 32.6039 143.449 33.6586 143.752C34.1774 143.898 34.7088 144.015 35.2658 144.068C35.8257 144.118 36.3935 144.127 37.0731 144.069L37.1154 144.065C37.3539 144.045 37.5638 144.222 37.5842 144.46C37.5935 144.568 37.5622 144.67 37.5035 144.751C37.0217 145.417 36.2487 145.833 35.4518 146.011C34.6497 146.193 33.7989 146.163 33.0107 145.918C31.4441 145.455 30.0565 144.107 29.8844 142.505C29.8588 142.268 30.0308 142.054 30.2685 142.029C30.3824 142.017 30.4908 142.05 30.5756 142.114L30.5997 142.132Z" fill="#BF8F68"/>
</g>
<path d="M167.871 26.5149C166.501 40.2928 152.045 47.3281 135.935 47.3281C134.762 47.3281 133.603 47.2691 132.466 47.1541C131.182 47.0244 129.953 47.6877 129.368 48.838L126.364 54.7497L124.443 46.7151C124.21 45.7416 123.514 44.9625 122.599 44.5575C113.19 40.3922 106.757 31.9729 106.757 22.2529C106.757 8.407 119.682 0.726411 135.792 0.726411C151.902 0.726411 169.47 10.4233 167.871 26.5149Z" fill="#E1DFDD"/>
<path d="M257.03 61.8645C257.03 66.641 254.839 71.0367 251.152 74.5518C250.121 75.5337 249.352 76.7579 248.959 78.1261L246.289 87.4389L245.125 82.1591C244.793 80.652 243.202 79.781 241.762 80.334C237.825 81.845 233.348 82.6982 228.6 82.6982C212.89 82.6982 200.159 73.3686 200.159 61.8646C200.159 50.3496 212.89 41.0201 228.6 41.0201C244.299 41.02 257.03 50.3494 257.03 61.8645Z" fill="#C8C6C4"/>
<path d="M81.6771 22.9814C79.219 30.7117 85.6606 36.4317 94.2612 37.2846C102.862 38.1374 104.184 41.3689 104.184 41.3689C104.184 41.3689 103.779 36.9293 107.528 34.9149C109.744 33.7241 111.549 31.9073 112.48 29.5043C114.681 23.8218 111.268 17.1871 104.849 14.6994C98.4387 12.2155 84.6963 13.4863 81.6771 22.9814Z" fill="#C8C6C4"/>
<path d="M206.785 66.5446C206.785 72.084 204.361 77.1404 200.352 80.9955C199.088 82.2105 198.413 83.9147 198.413 85.6678V91.5646L195.564 86.6118C195.084 85.7777 194.049 85.4338 193.175 85.8361C189.51 87.523 185.307 88.4765 180.844 88.4765C166.515 88.4765 153.808 79.9579 153.808 67.8339C153.808 60.2986 159.568 44.9609 185.443 44.9609C199.772 44.9608 206.785 54.4316 206.785 66.5446Z" fill="#E1DFDD"/>
<path d="M200.153 61.8605C200.153 66.3184 202.057 70.4398 205.31 73.8258C206.261 71.5484 206.779 69.0901 206.779 66.5479C206.779 61.3545 205.49 56.6553 202.876 52.9681C201.129 55.6668 200.153 58.6791 200.153 61.8605Z" fill="#B3AFAB"/>
<path d="M220.452 62.2614C221.788 62.2614 222.872 61.178 222.872 59.8415C222.872 58.505 221.788 57.4215 220.452 57.4215C219.116 57.4215 218.032 58.505 218.032 59.8415C218.032 61.178 219.116 62.2614 220.452 62.2614Z" fill="#F9F8F6"/>
<path d="M230.536 62.0162C231.873 62.0162 232.956 60.9328 232.956 59.5963C232.956 58.2598 231.873 57.1763 230.536 57.1763C229.2 57.1763 228.117 58.2598 228.117 59.5963C228.117 60.9328 229.2 62.0162 230.536 62.0162Z" fill="#F9F8F6"/>
<path d="M239.996 62.2614C241.333 62.2614 242.416 61.178 242.416 59.8415C242.416 58.505 241.333 57.4215 239.996 57.4215C238.66 57.4215 237.577 58.505 237.577 59.8415C237.577 61.178 238.66 62.2614 239.996 62.2614Z" fill="#F9F8F6"/>
<path d="M119.056 69.5403C119.056 77.2363 115.607 81.6052 109.443 84.9487C108.302 85.5677 106.295 87.6537 107.672 90.9222L108.912 96.3422C108.912 96.3422 100.941 86.8376 90.3667 89.2591C68.0212 94.3763 50.5201 83.326 52.3707 69.975C54.3115 56.0203 66.8829 47.6297 84.7947 47.6297C102.696 47.6297 119.056 55.4293 119.056 69.5403Z" fill="#E1DFDD"/>
<path d="M73.6185 72.5498C75.0481 72.5498 76.207 71.3907 76.207 69.961C76.207 68.5312 75.0481 67.3721 73.6185 67.3721C72.1889 67.3721 71.03 68.5312 71.03 69.961C71.03 71.3907 72.1889 72.5498 73.6185 72.5498Z" fill="#F9F8F6"/>
<path d="M84.9564 69.9611C86.386 69.9611 87.5449 68.802 87.5449 67.3722C87.5449 65.9425 86.386 64.7834 84.9564 64.7834C83.5268 64.7834 82.3679 65.9425 82.3679 67.3722C82.3679 68.802 83.5268 69.9611 84.9564 69.9611Z" fill="#F9F8F6"/>
<path d="M95.8269 72.1292C97.2565 72.1292 98.4154 70.9701 98.4154 69.5403C98.4154 68.1106 97.2565 66.9515 95.8269 66.9515C94.3973 66.9515 93.2384 68.1106 93.2384 69.5403C93.2384 70.9701 94.3973 72.1292 95.8269 72.1292Z" fill="#F9F8F6"/>
<path d="M186.88 64.0405H169.547C168.552 64.0405 167.746 63.2341 167.746 62.2393C167.746 61.2445 168.552 60.4382 169.547 60.4382H186.88C187.874 60.4382 188.681 61.2446 188.681 62.2393C188.681 63.2341 187.874 64.0405 186.88 64.0405Z" fill="#F9F8F6"/>
<path d="M193.266 72.6468H169.547C168.552 72.6468 167.746 71.8403 167.746 70.8456C167.746 69.8508 168.553 69.0444 169.547 69.0444H193.266C194.26 69.0444 195.067 69.8509 195.067 70.8456C195.067 71.8403 194.26 72.6468 193.266 72.6468Z" fill="#F9F8F6"/>
<path d="M38.8555 48.4586C39.7379 52.0378 42.1093 54.9187 45.3139 56.7708C46.324 57.3545 47.0312 58.3482 47.3104 59.481L48.2497 63.2912L49.3022 59.6369C49.4796 59.0214 50.0928 58.6345 50.7217 58.7552C53.3587 59.2611 56.2264 59.2075 59.1097 58.4966C68.3685 56.2135 75.2223 48.6846 73.2912 40.8509C72.091 35.982 65.9257 26.9897 49.207 31.1122C39.9484 33.3952 36.926 40.6319 38.8555 48.4586Z" fill="#C8C6C4"/>
<path d="M144.912 20.7308H124.811C123.658 20.7308 122.723 19.7955 122.723 18.6419C122.723 17.4883 123.658 16.553 124.811 16.553H144.912C146.066 16.553 147.001 17.4883 147.001 18.6419C147.001 19.7956 146.066 20.7308 144.912 20.7308Z" fill="#F9F8F6"/>
<path d="M152.318 30.7117H122.588C121.435 30.7117 120.5 29.7764 120.5 28.6228C120.5 27.4692 121.435 26.5339 122.588 26.5339H152.318C153.472 26.5339 154.407 27.4692 154.407 28.6228C154.407 29.7764 153.472 30.7117 152.318 30.7117Z" fill="#F9F8F6"/>
<path d="M146.111 71.0119C146.111 74.8226 143.851 78.1558 140.452 80.0345C140.01 80.2783 139.65 80.6455 139.455 81.1106L137.44 85.9128L136.437 82.7617C136.209 82.0443 135.519 81.5956 134.768 81.6326C134.543 81.6436 134.317 81.6489 134.091 81.6489C127.456 81.6489 122.07 76.8871 122.07 71.0121C122.07 65.1461 127.456 60.3843 134.091 60.3843C140.725 60.3842 146.111 65.1458 146.111 71.0119Z" fill="#B3AFAB"/>
<path d="M135.522 65.7579C136.007 65.8919 136.466 66.0846 136.9 66.3368C137.319 66.5856 137.703 66.8842 138.052 67.2332C138.401 67.5817 138.7 67.9658 138.948 68.3853C139.2 68.8194 139.393 69.2786 139.527 69.763C139.661 70.2469 139.727 70.7452 139.727 71.2572C139.727 71.8029 139.655 72.341 139.51 72.8714C139.336 73.4875 139.084 73.9736 138.753 74.33C138.356 74.7531 137.874 74.9646 137.306 74.9646C137.069 74.9646 136.836 74.9308 136.608 74.8643C136.38 74.7973 136.169 74.7009 135.976 74.5748C135.78 74.4446 135.612 74.2861 135.472 74.0987C135.333 73.9112 135.232 73.7028 135.169 73.4725C134.806 73.6582 134.427 73.751 134.034 73.751C133.7 73.751 133.381 73.6862 133.077 73.5561C132.772 73.426 132.505 73.2461 132.275 73.0162C132.045 72.7864 131.865 72.5192 131.735 72.2148C131.605 71.9105 131.54 71.5912 131.54 71.2572C131.54 70.9235 131.605 70.6043 131.735 70.2999C131.865 69.996 132.045 69.7285 132.275 69.4985C132.505 69.2686 132.772 69.0886 133.077 68.9586C133.381 68.8284 133.7 68.7637 134.034 68.7637C134.412 68.7637 134.782 68.8509 135.141 69.0256C135.193 68.8881 135.281 68.7752 135.405 68.6857C135.53 68.5968 135.664 68.5522 135.809 68.5522C135.898 68.5522 135.987 68.571 136.076 68.6078C136.165 68.645 136.243 68.6972 136.31 68.7637C136.377 68.8307 136.429 68.9087 136.466 68.9976C136.503 69.0864 136.521 69.1758 136.521 69.2647V72.9217C136.521 73.1219 136.607 73.2777 136.778 73.3894C136.93 73.4893 137.106 73.5396 137.306 73.5396C137.536 73.5396 137.736 73.3837 137.907 73.0719C138.033 72.8454 138.137 72.521 138.219 72.0979C138.275 71.7936 138.302 71.5134 138.302 71.2572C138.302 70.8714 138.252 70.4964 138.152 70.133C138.052 69.7695 137.907 69.4263 137.718 69.1031C137.343 68.4685 136.831 67.9566 136.182 67.5669C135.859 67.3777 135.516 67.2332 135.152 67.1329C134.789 67.0325 134.414 66.9827 134.028 66.9827C133.26 66.9827 132.544 67.1775 131.88 67.5668C131.56 67.7525 131.271 67.9763 131.011 68.2376C130.752 68.4991 130.529 68.7876 130.344 69.1028C130.151 69.4221 130.004 69.7646 129.904 70.1303C129.804 70.4955 129.754 70.8713 129.754 71.2571C129.754 72.029 129.951 72.7456 130.344 73.4058C130.529 73.7211 130.752 74.0097 131.011 74.2711C131.271 74.533 131.56 74.7563 131.88 74.9419C132.203 75.1346 132.545 75.2813 132.906 75.3816C133.268 75.4819 133.642 75.5318 134.028 75.5318C134.295 75.5318 134.553 75.502 134.802 75.4429C135.05 75.3834 135.362 75.2944 135.737 75.1758C135.751 75.1718 135.788 75.1609 135.848 75.142C135.907 75.1236 135.965 75.1144 136.02 75.1144C136.109 75.1144 136.199 75.1328 136.288 75.1701C136.376 75.2073 136.454 75.2589 136.521 75.3259C136.588 75.3925 136.64 75.4705 136.677 75.5598C136.714 75.6487 136.733 75.7376 136.733 75.827C136.733 76.1165 136.549 76.3537 136.182 76.5394C135.885 76.6914 135.501 76.8026 135.03 76.8731C134.696 76.9288 134.362 76.9568 134.028 76.9568C133.516 76.9568 133.018 76.8889 132.534 76.7536C132.05 76.6183 131.592 76.4244 131.162 76.172C130.739 75.9272 130.353 75.6303 130.004 75.2814C129.655 74.9329 129.359 74.5466 129.114 74.1236C128.862 73.6932 128.668 73.236 128.532 72.7516C128.397 72.2672 128.329 71.7694 128.329 71.2569C128.329 70.745 128.397 70.2458 128.532 69.7596C128.668 69.2734 128.862 68.8155 129.114 68.385C129.359 67.9654 129.656 67.5814 130.004 67.2328C130.353 66.8838 130.739 66.5851 131.162 66.3364C131.592 66.0882 132.05 65.8958 132.534 65.7605C133.018 65.6252 133.516 65.5573 134.028 65.5573C134.54 65.5578 135.039 65.6243 135.522 65.7579ZM133.627 70.2724C133.498 70.328 133.383 70.4059 133.282 70.5062C133.183 70.6061 133.105 70.7212 133.049 70.8514C132.993 70.9809 132.965 71.1168 132.965 71.2573C132.965 71.3987 132.993 71.534 133.049 71.6637C133.105 71.7938 133.183 71.9089 133.282 72.0089C133.383 72.1092 133.498 72.1871 133.627 72.2427C133.758 72.2984 133.893 72.3264 134.034 72.3264C134.175 72.3264 134.309 72.2992 134.437 72.2457C134.565 72.1919 134.68 72.1147 134.779 72.0145C134.88 71.9142 134.958 71.8003 135.013 71.672C135.069 71.5442 135.097 71.4097 135.097 71.2686C135.097 71.1236 135.07 70.9858 135.016 70.8539C134.962 70.7222 134.885 70.6061 134.785 70.5062C134.685 70.4059 134.571 70.328 134.443 70.2724C134.315 70.2167 134.179 70.1887 134.034 70.1887C133.893 70.1887 133.757 70.2168 133.627 70.2724Z" fill="#E1DFDD"/>
<path d="M60.0525 51.2743C59.64 50.8621 59.2499 50.4501 58.6859 49.8427C57.4279 51.0142 56.0185 51.5131 54.4133 51.5131C51.5725 51.5131 49.9241 49.6042 49.9241 47.4134C49.9241 45.4183 51.1172 44.0515 52.7872 43.1407V43.0755C52.028 42.1212 51.5727 41.0584 51.5727 40.0171C51.5727 38.2387 52.8521 36.4166 55.2813 36.4166C57.1027 36.4166 58.5125 37.6313 58.5125 39.5185C58.5125 41.0587 57.6232 42.2733 55.3026 43.4229V43.4878C56.5391 44.9193 57.9272 46.5247 58.8593 47.5657C59.5318 46.5463 59.9872 45.1366 60.2692 43.2926H62.004C61.6138 45.592 60.9846 47.4137 59.9005 48.6939C60.6812 49.518 61.4405 50.3422 62.3078 51.275H60.0525V51.2743ZM57.7532 48.758C56.8858 47.8037 55.2593 46.025 53.6327 44.1598C52.852 44.6586 51.746 45.5913 51.746 47.1315C51.746 48.8012 52.982 50.0813 54.7388 50.0813C55.9966 50.0814 57.0593 49.5174 57.7532 48.758ZM53.3073 39.8433C53.3073 40.8846 53.7846 41.6869 54.4133 42.4677C55.8884 41.6221 56.8426 40.8409 56.8426 39.6047C56.8426 38.7153 56.3438 37.7178 55.1511 37.7178C53.9365 37.7177 53.3073 38.7151 53.3073 39.8433Z" fill="#E1DFDD"/>
<path d="M72.1083 49.2558C69.7596 53.5807 64.9085 57.0678 59.1097 58.4948C58.3743 58.6778 57.639 58.8168 56.9109 58.9082C60.383 54.3674 65.5962 51.0707 72.1083 49.2558Z" fill="#B3AFAB"/>
<path d="M112.478 29.505C111.891 31.0296 110.945 32.3167 109.77 33.357C107.842 30.0117 106.757 26.245 106.757 22.2538C106.757 20.0745 107.075 18.0521 107.68 16.1867C112.213 19.2809 114.33 24.7292 112.478 29.505Z" fill="#B3AFAB"/>
<path d="M191.681 36.1739C191.251 36.0897 190.829 35.9917 190.416 35.8801C189.601 35.6603 188.725 35.7162 187.891 36.0365C186.884 36.423 182.354 38.4894 182.354 38.4894C182.354 38.4894 185.031 34.1871 182.881 31.6479C180 28.2471 178.315 24.2568 179.549 20.0225C181.615 12.8761 190.403 8.50335 199.173 10.2781C207.948 12.0415 213.385 19.2764 211.305 26.4295C209.239 33.5757 200.451 37.9487 191.681 36.1739Z" fill="#E1DFDD"/>
<path d="M190.18 22.2091C190.225 22.2314 190.264 22.2668 190.297 22.3159C190.33 22.3649 190.365 22.4184 190.4 22.4762C190.418 22.4986 190.46 22.6076 190.527 22.8033C190.581 22.9543 190.745 23.4527 191.021 24.2983C191.066 24.445 191.095 24.536 191.108 24.5717L191.835 26.8944C191.884 27.0726 191.962 27.3285 192.069 27.6622L192.149 27.9092C192.229 28.1894 192.303 28.4321 192.369 28.6366C192.423 28.8279 192.449 28.9326 192.449 28.9506C192.449 29.0663 192.407 29.1665 192.322 29.2505C192.238 29.3354 192.138 29.3775 192.022 29.3775C191.915 29.3775 191.837 29.3552 191.788 29.311C191.739 29.2663 191.682 29.1883 191.615 29.0771C191.606 29.0548 191.566 28.9436 191.495 28.7434C191.326 28.2539 191.132 27.6665 190.914 26.9812L190.187 24.6655C189.942 23.8733 189.767 23.2883 189.66 22.9099C189.602 22.7321 189.573 22.6297 189.573 22.603C189.573 22.4873 189.616 22.3876 189.7 22.3026C189.785 22.2186 189.884 22.1761 190 22.1761C190.076 22.1757 190.136 22.1867 190.18 22.2091ZM196.453 16.3322C196.618 16.4636 196.751 16.6384 196.854 16.8564C196.942 17.0478 197.009 17.258 197.054 17.487C197.098 17.716 197.121 17.9311 197.121 18.1312C197.121 18.5494 197.052 18.9856 196.914 19.4392C196.767 19.9196 196.591 20.3269 196.386 20.6606C196.609 20.7052 196.811 20.7276 196.994 20.7276L197.434 20.7206C197.639 20.7117 197.792 20.7074 197.895 20.7074C198.371 20.7074 198.751 20.7564 199.036 20.8541C199.41 20.9833 199.708 21.2189 199.93 21.5617C199.997 21.655 200.048 21.7407 200.084 21.8184C200.119 21.8964 200.137 21.9799 200.137 22.0688C200.137 22.3315 200.114 22.5952 200.067 22.8597C200.02 23.1246 199.955 23.4151 199.87 23.7306C199.821 23.9133 199.744 24.187 199.637 24.5517C199.561 24.8141 199.494 25.09 199.436 25.3795C199.423 25.4505 199.401 25.5796 199.37 25.7667C199.335 26.029 199.285 26.2826 199.223 26.5274C199.192 26.6474 199.147 26.7722 199.09 26.9013C198.947 27.217 198.745 27.4675 198.482 27.6519C198.22 27.8367 197.908 27.9756 197.548 28.0693C197.232 28.1538 196.912 28.2051 196.587 28.2226C196.263 28.2405 195.849 28.2493 195.346 28.2493C194.937 28.2493 194.616 28.2274 194.385 28.1827C194.26 28.1561 194.161 28.1293 194.088 28.1027C194.015 28.076 193.951 28.0427 193.898 28.0024C193.844 27.967 193.796 27.9169 193.751 27.8522C193.706 27.7878 193.655 27.6975 193.598 27.582C193.58 27.5508 193.537 27.4462 193.471 27.2684C193.337 26.8945 193.186 26.443 193.017 25.9136C192.857 25.4152 192.686 24.8503 192.503 24.2184C192.312 23.5821 192.187 23.1459 192.129 22.9099C192.09 22.7544 192.069 22.6585 192.069 22.6231C192.069 22.3918 192.283 21.9824 192.71 21.3951C192.817 21.2392 193.02 20.9677 193.317 20.5806C193.896 19.8555 194.299 19.326 194.525 18.9923C194.676 18.7742 194.795 18.5697 194.879 18.3784C194.902 18.3249 194.933 18.2137 194.973 18.0447C195.044 17.7198 195.121 17.3969 195.206 17.0769C195.308 16.7073 195.438 16.4384 195.593 16.2693C195.673 16.18 195.769 16.1358 195.88 16.1358C196.097 16.1355 196.289 16.2012 196.453 16.3322Z" fill="#F9F8F6"/>
<path d="M30.2912 68.3363C31.1567 68.3447 32.0068 68.4618 32.8408 68.6894C33.6493 68.9175 34.4209 69.2445 35.1557 69.671C35.8911 70.0966 36.5584 70.6036 37.1584 71.1917C37.7705 71.8024 38.2948 72.4817 38.7325 73.2287C39.1692 73.9751 39.5008 74.7751 39.7278 75.6274C39.9547 76.4802 40.0625 77.3392 40.0519 78.2056C40.0413 79.0719 39.9239 79.9182 39.7013 80.7449C39.4748 81.5593 39.1488 82.3346 38.7223 83.0697C38.2968 83.8052 37.7891 84.4695 37.1993 85.0631C36.5945 85.6737 35.9182 86.1996 35.169 86.6404C34.4198 87.0812 33.619 87.4154 32.7669 87.6423C31.9142 87.8692 31.0553 87.977 30.1891 87.9664C29.3229 87.9558 28.476 87.8354 27.6477 87.6064C26.835 87.3863 26.0606 87.0632 25.3257 86.6367C24.5903 86.2111 23.9249 85.6997 23.3301 85.104C22.7195 84.4991 22.194 83.824 21.7541 83.0777C21.3144 82.3314 20.9807 81.5326 20.7537 80.6797C20.5268 79.8274 20.4186 78.9662 20.4283 78.0972C20.4382 77.2281 20.5581 76.3795 20.7872 75.5511C21.0089 74.7442 21.3329 73.9734 21.7592 73.2384C22.1847 72.5029 22.6954 71.8345 23.2893 71.2329C23.8957 70.6287 24.5715 70.1061 25.3178 69.6663C26.064 69.2264 26.8627 68.8927 27.7155 68.6656C28.5676 68.4384 29.4265 68.3284 30.2912 68.3363ZM33.2489 81.2925C32.6708 81.7306 32.0304 82.0431 31.3263 82.2306C30.6222 82.4181 29.9104 82.4655 29.1911 82.3729C28.4715 82.2795 27.7953 82.0497 27.1619 81.6821L26.5406 82.7407C27.2993 83.1804 28.1276 83.4594 29.0255 83.5779C29.8926 83.7037 30.7644 83.6505 31.642 83.4169C32.5188 83.1834 33.3046 82.7955 34.001 82.2533C34.7146 81.7058 35.2916 81.0524 35.7313 80.2937L34.666 79.6842C34.2994 80.3181 33.8269 80.8537 33.2489 81.2925ZM25.7559 76.5495C25.6741 76.6908 25.6211 76.8438 25.5956 77.0092C25.5702 77.1743 25.5769 77.3319 25.6163 77.4799C25.7019 77.8014 25.8954 78.0442 26.1973 78.2082C26.4896 78.3888 26.7972 78.4357 27.118 78.3503C27.2667 78.3107 27.4059 78.2385 27.5368 78.135C27.6683 78.0304 27.7745 77.9078 27.8556 77.7668C28.0278 77.4695 28.0721 77.1635 27.9883 76.8485C27.949 76.7005 27.8787 76.5599 27.7773 76.4284C27.6759 76.297 27.5554 76.1901 27.4142 76.1083C27.2739 76.027 27.1211 75.9747 26.9558 75.9524C26.7916 75.9306 26.6352 75.9386 26.4866 75.9782C26.1718 76.0619 25.9282 76.2524 25.7559 76.5495ZM31.6857 74.9709C31.6038 75.1121 31.5502 75.2653 31.5246 75.4306C31.4992 75.5959 31.5067 75.7531 31.5461 75.9011C31.6317 76.2226 31.8252 76.4654 32.1271 76.6293C32.4195 76.81 32.7264 76.857 33.0478 76.7714C33.1958 76.7321 33.3357 76.6597 33.4667 76.5562C33.5973 76.4519 33.7037 76.3292 33.7855 76.188C33.9576 75.8907 34.0019 75.5847 33.9182 75.2697C33.8788 75.1217 33.8078 74.9814 33.7072 74.8496C33.6058 74.7182 33.4844 74.6114 33.344 74.5295C33.2031 74.4483 33.0501 74.3962 32.8857 74.3736C32.7214 74.3517 32.5644 74.36 32.4165 74.3994C32.1014 74.483 31.8578 74.6735 31.6857 74.9709Z" fill="#B3AFAB"/>
<defs>
<radialGradient id="paint0_radial" cx="0" cy="0" r="1" gradientUnits="userSpaceOnUse" gradientTransform="translate(104.482 150.572) scale(11.9622 11.9639)">
<stop offset="0.173" stop-color="#724937"/>
<stop offset="0.7031" stop-color="#9B643D"/>
</radialGradient>
<radialGradient id="paint1_radial" cx="0" cy="0" r="1" gradientUnits="userSpaceOnUse" gradientTransform="translate(106.91 135.532) rotate(0.72503) scale(11.0935 10.0006)">
<stop stop-color="#724937"/>
<stop offset="1" stop-color="#9B643D"/>
</radialGradient>
<radialGradient id="paint2_radial" cx="0" cy="0" r="1" gradientUnits="userSpaceOnUse" gradientTransform="translate(243.609 146.639) rotate(180) scale(11.257 12.7042)">
<stop stop-color="#9B643D"/>
<stop offset="0.8819" stop-color="#BA8A63" stop-opacity="0.1178"/>
<stop offset="0.9997" stop-color="#BF8F68" stop-opacity="0"/>
</radialGradient>
<radialGradient id="paint3_radial" cx="0" cy="0" r="1" gradientUnits="userSpaceOnUse" gradientTransform="translate(239.663 136.744) rotate(175.681) scale(7.95211 8.38469)">
<stop offset="0.0003" stop-color="#9B643D"/>
<stop offset="0.8822" stop-color="#BA8A63" stop-opacity="0.1178"/>
<stop offset="1" stop-color="#BF8F68" stop-opacity="0"/>
</radialGradient>
<radialGradient id="paint4_radial" cx="0" cy="0" r="1" gradientUnits="userSpaceOnUse" gradientTransform="translate(174.306 122.099) scale(17.829 17.8316)">
<stop offset="0.3127" stop-color="#231F20"/>
<stop offset="0.8031" stop-color="#493931" stop-opacity="0.2865"/>
<stop offset="1" stop-color="#594539" stop-opacity="0"/>
</radialGradient>
<radialGradient id="paint5_radial" cx="0" cy="0" r="1" gradientUnits="userSpaceOnUse" gradientTransform="translate(173.266 149.456) scale(13.3771 13.379)">
<stop offset="0.0013" stop-color="#9B643D"/>
<stop offset="0.4556" stop-color="#B98963" stop-opacity="0.545"/>
<stop offset="0.9997" stop-color="#E0BB95" stop-opacity="0"/>
</radialGradient>
<radialGradient id="paint6_radial" cx="0" cy="0" r="1" gradientUnits="userSpaceOnUse" gradientTransform="translate(38.5441 141.775) scale(19.7285 19.7313)">
<stop stop-color="#9B643D"/>
<stop offset="0.1665" stop-color="#AA7751"/>
<stop offset="0.5261" stop-color="#C79C76"/>
<stop offset="0.8167" stop-color="#D9B38D"/>
<stop offset="1" stop-color="#E0BB95"/>
</radialGradient>
<radialGradient id="paint7_radial" cx="0" cy="0" r="1" gradientUnits="userSpaceOnUse" gradientTransform="translate(33.0939 136.567) rotate(179.275) scale(10.3693 9.34771)">
<stop stop-color="#9B643D"/>
<stop offset="1" stop-color="#BF8F68" stop-opacity="0"/>
</radialGradient>
</defs>
</svg>
