<svg width="15" height="20" viewBox="0 0 15 20" fill="none" xmlns="http://www.w3.org/2000/svg">
<path d="M6.875 5.62798C6.875 5.2828 7.15482 5.00298 7.5 5.00298C7.84518 5.00298 8.125 5.2828 8.125 5.62798V6.87988C8.125 7.22506 7.84518 7.50488 7.5 7.50488C7.15482 7.50488 6.875 7.22506 6.875 6.87988V5.62798Z" fill="#242424"/>
<path d="M11.0633 6.80415C10.8192 6.56007 10.4235 6.56007 10.1794 6.80415L9.29415 7.68938C9.05007 7.93346 9.05007 8.32919 9.29415 8.57327C9.53822 8.81735 9.93395 8.81735 10.178 8.57327L11.0633 7.68804C11.3073 7.44396 11.3073 7.04823 11.0633 6.80415Z" fill="#242424"/>
<path d="M4.81513 6.80415C4.57105 6.56007 4.17532 6.56007 3.93125 6.80415C3.68717 7.04823 3.68717 7.44396 3.93125 7.68804L4.81648 8.57327C5.06055 8.81735 5.45628 8.81735 5.70036 8.57327C5.94444 8.32919 5.94444 7.93346 5.70036 7.68938L4.81513 6.80415Z" fill="#242424"/>
<path d="M7.5 0C11.6421 0 15 3.24616 15 7.25051C15 9.34671 14.0683 11.2705 12.2451 12.9928C12.1655 13.068 12.1039 13.1586 12.064 13.2581L12.0314 13.3604L10.8613 18.2564C10.631 19.2204 9.77945 19.9188 8.77268 19.9934L8.5935 20H6.40683C5.38319 20 4.48749 19.3549 4.18582 18.4231L4.13885 18.2558L2.97033 13.3607C2.93694 13.2208 2.8627 13.0931 2.75644 12.9928C1.01913 11.3524 0.0908094 9.52942 0.00633776 7.54878L0 7.25051L0.00400901 7.01118C0.134628 3.11761 3.44071 0 7.5 0ZM4.94375 16.25L5.34232 17.918L5.37505 18.0381C5.49618 18.4123 5.84478 18.6896 6.2645 18.7413L6.40683 18.75L8.54734 18.7509L8.68028 18.7468C9.10808 18.7151 9.4657 18.4511 9.60678 18.0897L9.64558 17.9658L10.0562 16.25H4.94375ZM7.5 1.25C4.20978 1.25 1.51485 3.69126 1.26888 6.76697L1.25383 7.03211L1.24972 7.22395L1.2552 7.49552C1.32471 9.12532 2.09697 10.651 3.61459 12.0839C3.84994 12.3061 4.02739 12.5809 4.13215 12.8848L4.18617 13.0705L4.645 15H6.87531V9.37134C6.87531 9.02616 7.15513 8.74634 7.50031 8.74634C7.84548 8.74634 8.12531 9.02616 8.12531 9.37134V15H10.3562L10.8403 12.9814L10.9038 12.7928C11.0113 12.5247 11.1762 12.2831 11.3867 12.0842C12.9781 10.5808 13.75 8.97567 13.75 7.25051C13.75 3.94616 10.9611 1.25 7.5 1.25Z" fill="#242424"/>
</svg>
