<svg width="18" height="18" viewBox="0 0 18 18" fill="none" xmlns="http://www.w3.org/2000/svg">
<path d="M14.75 0C16.5449 0 18 1.45507 18 3.25V14.75C18 16.5449 16.5449 18 14.75 18H3.25C1.45507 18 0 16.5449 0 14.75V3.25C0 1.45507 1.45507 0 3.25 0H14.75ZM14.75 1.5H3.25C2.2835 1.5 1.5 2.2835 1.5 3.25V14.75C1.5 15.7165 2.2835 16.5 3.25 16.5H14.75C15.7165 16.5 16.5 15.7165 16.5 14.75V3.25C16.5 2.2835 15.7165 1.5 14.75 1.5ZM8 4.25C10.0711 4.25 11.75 5.92893 11.75 8C11.75 8.7642 11.5214 9.47502 11.1289 10.0678L13.5303 12.4697C13.8232 12.7626 13.8232 13.2374 13.5303 13.5303C13.2641 13.7966 12.8474 13.8208 12.5538 13.6029L12.4697 13.5303L10.0678 11.1289C9.47502 11.5214 8.7642 11.75 8 11.75C5.92893 11.75 4.25 10.0711 4.25 8C4.25 5.92893 5.92893 4.25 8 4.25ZM8 5.75C6.75736 5.75 5.75 6.75736 5.75 8C5.75 9.24264 6.75736 10.25 8 10.25C9.24264 10.25 10.25 9.24264 10.25 8C10.25 6.75736 9.24264 5.75 8 5.75Z" fill="#242424"/>
</svg>
