<svg width="14" height="18" viewBox="0 0 14 18" fill="none" xmlns="http://www.w3.org/2000/svg">
<path d="M13.25 0.25C13.6297 0.25 13.9435 0.532154 13.9932 0.898229L14 1V17C14 17.4142 13.6642 17.75 13.25 17.75C12.8703 17.75 12.5565 17.4678 12.5068 17.1018L12.5 17V12H10.25C9.8703 12 9.55651 11.7178 9.50685 11.3518L9.5 11.25V4C9.5 1.92893 11.1789 0.25 13.25 0.25ZM7.25 0.25C7.6297 0.25 7.94349 0.532154 7.99315 0.898229L8 1V5C8 6.95258 6.60095 8.57839 4.7506 8.92969L4.75 17C4.75 17.4142 4.41421 17.75 4 17.75C3.6203 17.75 3.30651 17.4678 3.25685 17.1018L3.25 17L3.25039 8.92988C1.46566 8.59151 0.100544 7.06745 0.00531244 5.20795L0 5V1C0 0.585786 0.335786 0.25 0.75 0.25C1.1297 0.25 1.44349 0.532154 1.49315 0.898229L1.5 1V5C1.5 6.11957 2.23593 7.06725 3.25042 7.38568L3.25 1C3.25 0.585786 3.58579 0.25 4 0.25C4.3797 0.25 4.69349 0.532154 4.74315 0.898229L4.75 1L4.75057 7.38537C5.70822 7.08433 6.41742 6.22253 6.49327 5.18486L6.5 5V1C6.5 0.585786 6.83579 0.25 7.25 0.25ZM12.5 10.5V1.87803C11.6775 2.16874 11.0745 2.9241 11.0064 3.82871L11 4V10.5H12.5V1.87803V10.5Z" fill="#242424"/>
</svg>
