<svg width="18" height="18" viewBox="0 0 18 18" fill="none" xmlns="http://www.w3.org/2000/svg">
<path d="M11.6246 0.0973699C13.138 -0.308145 14.6936 0.589975 15.0991 2.10338L17.9026 12.5662C18.3081 14.0796 17.41 15.6352 15.8966 16.0407L9.41965 17.7762C7.90625 18.1817 6.35066 17.2836 5.94515 15.7702L3.14165 5.30737C2.73614 3.79397 3.63426 2.23838 5.14766 1.83287L11.6246 0.0973699ZM3.13133 9.25853L4.94869 16.0372C5.13538 16.7339 5.50082 17.335 5.98245 17.8043L5.5256 17.7798C3.96096 17.6978 2.75904 16.3629 2.84104 14.7983L3.13133 9.25853ZM12.0251 1.59205L5.54816 3.32755C4.86025 3.51188 4.45201 4.21896 4.63634 4.90687L7.43983 15.3697C7.62416 16.0576 8.33125 16.4658 9.01915 16.2815L15.4961 14.546C16.184 14.3617 16.5923 13.6546 16.4079 12.9667L13.6044 2.50388C13.4201 1.81597 12.713 1.40773 12.0251 1.59205ZM2.17751 7.73364L1.81085 14.7443C1.77307 15.4651 1.93511 16.1501 2.24852 16.7456L1.82102 16.5799C0.358302 16.0184 -0.372295 14.3775 0.189192 12.9147L2.17751 7.73364ZM7.19423 4.48849C7.74456 4.34103 8.31023 4.66762 8.45768 5.21795C8.60514 5.76827 8.27856 6.33394 7.72823 6.4814C7.1779 6.62886 6.61223 6.30227 6.46477 5.75194C6.31731 5.20162 6.6439 4.63595 7.19423 4.48849Z" fill="#242424"/>
</svg>
