<svg width="16" height="19" viewBox="0 0 16 19" fill="none" xmlns="http://www.w3.org/2000/svg">
<path d="M12.2502 0C14.3212 0 16.0002 1.67893 16.0002 3.75V12.75C16.0002 14.5253 14.7666 16.0124 13.1099 16.401L15.5726 17.5729C15.9466 17.7509 16.1054 18.1985 15.9273 18.5725C15.7641 18.9153 15.3744 19.0773 15.0226 18.9647L14.9277 18.9271L9.83 16.5H6.169L1.07263 18.9271C0.698648 19.1052 0.251114 18.9464 0.0730295 18.5725C-0.105055 18.1985 0.0537477 17.7509 0.427725 17.5729L2.89005 16.4009C1.23353 16.0121 0.000174968 14.5251 0.000174968 12.75V3.75C0.000174968 1.67893 1.67911 0 3.75017 0H12.2502ZM14.5 11H1.5L1.50017 12.75C1.50017 13.9926 2.50753 15 3.75017 15H12.2502C13.4928 15 14.5002 13.9926 14.5002 12.75L14.5 11ZM4.00017 12C4.55246 12 5.00017 12.4477 5.00017 13C5.00017 13.5523 4.55246 14 4.00017 14C3.44789 14 3.00017 13.5523 3.00017 13C3.00017 12.4477 3.44789 12 4.00017 12ZM12.0002 12C12.5525 12 13.0002 12.4477 13.0002 13C13.0002 13.5523 12.5525 14 12.0002 14C11.4479 14 11.0002 13.5523 11.0002 13C11.0002 12.4477 11.4479 12 12.0002 12ZM12.2502 1.5H3.75017C2.50753 1.5 1.50017 2.50736 1.50017 3.75L1.5 9.5H14.5L14.5002 3.75C14.5002 2.50736 13.4928 1.5 12.2502 1.5ZM9.25017 3C9.66439 3 10.0002 3.33579 10.0002 3.75C10.0002 4.16421 9.66439 4.5 9.25017 4.5H6.75017C6.33596 4.5 6.00017 4.16421 6.00017 3.75C6.00017 3.33579 6.33596 3 6.75017 3H9.25017Z" fill="#242424"/>
</svg>
