<svg width="18" height="18" viewBox="0 0 18 18" fill="none" xmlns="http://www.w3.org/2000/svg">
<path d="M7.29487 4.31319L7.42405 4.43179L17.3696 14.34C18.2105 15.1777 18.2101 16.5354 17.3686 17.3725C16.5271 18.2096 15.1633 18.2091 14.3224 17.3714L4.37721 7.46393C3.54435 6.63342 3.54468 5.28818 4.37818 4.45783L4.52668 4.31897C5.32133 3.64099 6.49791 3.63912 7.29487 4.31319ZM8.09931 7.11026L7.06673 8.13816L15.3294 16.3697C15.6145 16.6538 16.077 16.6539 16.3623 16.3701C16.6476 16.0862 16.6478 15.6258 16.3626 15.3417L8.09931 7.11026ZM3.93694 11.3436L4.03352 11.3371C4.39388 11.3371 4.69169 11.6037 4.73882 11.9495L4.74532 12.0457V12.7543H5.45712C5.81748 12.7543 6.11529 13.0208 6.16242 13.3667L6.16892 13.4628C6.16892 13.8215 5.90113 14.118 5.55371 14.1649L5.45712 14.1714H4.74532V14.88C4.74532 15.2387 4.47754 15.5351 4.13011 15.5821L4.03352 15.5885C3.67317 15.5885 3.37536 15.322 3.32822 14.9761L3.32172 14.88V14.1714H2.60993C2.24957 14.1714 1.95176 13.9048 1.90463 13.559L1.89813 13.4628C1.89813 13.1041 2.16591 12.8076 2.51334 12.7607L2.60993 12.7543H3.32172V12.0457C3.32172 11.687 3.58951 11.3905 3.93694 11.3436ZM5.41093 5.43391L5.38495 5.45976C5.10694 5.73672 5.10684 6.18563 5.38446 6.46248L6.05978 7.13577L7.09331 6.10693L6.40085 5.41789C6.12188 5.15714 5.68345 5.16242 5.41093 5.43391ZM13.4276 1.89599L13.5242 1.88952C13.8845 1.88952 14.1823 2.15609 14.2295 2.50194L14.236 2.59809V3.30666H14.9478C15.3081 3.30666 15.6059 3.57323 15.6531 3.91908L15.6596 4.01523C15.6596 4.37395 15.3918 4.67041 15.0443 4.71733L14.9478 4.7238H14.236V5.43237C14.236 5.79109 13.9682 6.08755 13.6208 6.13447L13.5242 6.14094C13.1638 6.14094 12.866 5.87437 12.8189 5.52852L12.8124 5.43237V4.7238H12.1006C11.7402 4.7238 11.4424 4.45723 11.3953 4.11138L11.3888 4.01523C11.3888 3.65651 11.6566 3.36005 12.004 3.31313L12.1006 3.30666H12.8124V2.59809C12.8124 2.23937 13.0801 1.94291 13.4276 1.89599ZM2.03881 0.00646846L2.13539 0C2.49575 0 2.79356 0.266568 2.8407 0.612421L2.84719 0.70857V1.41714H3.55899C3.91935 1.41714 4.21716 1.68371 4.26429 2.02956L4.27079 2.12571C4.27079 2.48443 4.00301 2.78089 3.65558 2.82781L3.55899 2.83428H2.84719V3.54285C2.84719 3.90157 2.57941 4.19803 2.23198 4.24495L2.13539 4.25142C1.77504 4.25142 1.47723 3.98485 1.43009 3.639L1.4236 3.54285V2.83428H0.711798C0.351442 2.83428 0.0536308 2.56771 0.00649793 2.22186L0 2.12571C0 1.76699 0.267782 1.47053 0.615211 1.42361L0.711798 1.41714H1.4236V0.70857C1.4236 0.349849 1.69138 0.0533875 2.03881 0.00646846Z" fill="#242424"/>
</svg>
