<svg width="18" height="21" viewBox="0 0 18 21" fill="none" xmlns="http://www.w3.org/2000/svg">
<path d="M8.03781 0.016955L17.3592 1.94553C17.7324 2.02273 18 2.35138 18 2.73243V18.161C18 18.5421 17.7324 18.8707 17.3592 18.9479L8.03781 20.8765C7.53911 20.9797 7.07143 20.5988 7.07143 20.0896V0.803861C7.07143 0.294597 7.53911 -0.0862247 8.03781 0.016955ZM5.14286 1.44672V3.05386H1.60714V17.8396H5.14286V19.4467H0.803571C0.387509 19.4467 0.0452996 19.1305 0.00414869 18.7253L0 18.6431V2.25029C0 1.83423 0.316205 1.49202 0.721411 1.45087L0.803571 1.44672H5.14286ZM8.67857 1.79071V19.1027L16.3929 17.5067V3.38677L8.67857 1.79071ZM10.6071 9.48243C11.1397 9.48243 11.5714 9.91416 11.5714 10.4467C11.5714 10.9793 11.1397 11.411 10.6071 11.411C10.0746 11.411 9.64286 10.9793 9.64286 10.4467C9.64286 9.91416 10.0746 9.48243 10.6071 9.48243Z" fill="#242424"/>
</svg>
