<svg width="20" height="22" viewBox="0 0 20 22" fill="none" xmlns="http://www.w3.org/2000/svg">
<path d="M9.74984 0.998047C7.67751 0.998047 5.99756 2.678 5.99756 4.75033C5.99756 6.56587 7.28697 8.08025 9 8.42768V10.5003H5.75C4.50736 10.5003 3.5 11.5077 3.5 12.7503V13.5757C1.78819 13.9241 0.5 15.4379 0.5 17.2526C0.5 19.3249 2.17996 21.0049 4.25228 21.0049C6.32461 21.0049 8.00457 19.3249 8.00457 17.2526C8.00457 15.4363 6.71409 13.9214 5 13.5748V12.7503C5 12.3361 5.33579 12.0003 5.75 12.0003H13.75C14.1642 12.0003 14.5 12.3361 14.5 12.7503V13.5757C12.7882 13.9241 11.5 15.4379 11.5 17.2526C11.5 19.3249 13.18 21.0049 15.2523 21.0049C17.3246 21.0049 19.0046 19.3249 19.0046 17.2526C19.0046 15.4363 17.7141 13.9214 16 13.5748V12.7503C16 11.5077 14.9926 10.5003 13.75 10.5003H10.5V8.42762C12.2129 8.08007 13.5021 6.56576 13.5021 4.75033C13.5021 2.678 11.8222 0.998047 9.74984 0.998047ZM7.49756 4.75033C7.49756 3.50643 8.50594 2.49805 9.74984 2.49805C10.9937 2.49805 12.0021 3.50643 12.0021 4.75033C12.0021 5.99423 10.9937 7.00262 9.74984 7.00262C8.50594 7.00262 7.49756 5.99423 7.49756 4.75033ZM2 17.2526C2 16.0087 3.00838 15.0003 4.25228 15.0003C5.49619 15.0003 6.50457 16.0087 6.50457 17.2526C6.50457 18.4965 5.49619 19.5049 4.25228 19.5049C3.00838 19.5049 2 18.4965 2 17.2526ZM15.2523 15.0003C16.4962 15.0003 17.5046 16.0087 17.5046 17.2526C17.5046 18.4965 16.4962 19.5049 15.2523 19.5049C14.0084 19.5049 13 18.4965 13 17.2526C13 16.0087 14.0084 15.0003 15.2523 15.0003Z" fill="#242424"/>
</svg>
