<svg width="16" height="20" viewBox="0 0 16 20" fill="none" xmlns="http://www.w3.org/2000/svg">
<path d="M9.75 0C10.9409 0 11.9156 0.925161 11.9948 2.09595L12 2.25C12 2.16531 11.9953 2.0817 11.9862 1.99944L13.75 2C14.9926 2 16 3.00736 16 4.25V17.75C16 18.9926 14.9926 20 13.75 20H2.25C1.00736 20 0 18.9926 0 17.75V4.25C0 3.00736 1.00736 2 2.25 2L4.01379 1.99944C4.00733 2.05774 4.0031 2.11671 4.00119 2.17626L4 2.25C4 1.00736 5.00736 0 6.25 0H9.75ZM9.75 4.5H6.25C5.45595 4.5 4.75797 4.08867 4.35751 3.46746L4.37902 3.5002L2.25 3.5C1.83579 3.5 1.5 3.83579 1.5 4.25V17.75C1.5 18.1642 1.83579 18.5 2.25 18.5H13.75C14.1642 18.5 14.5 18.1642 14.5 17.75V4.25C14.5 3.83579 14.1642 3.5 13.75 3.5L11.621 3.5002L11.6425 3.46746C11.242 4.08867 10.5441 4.5 9.75 4.5ZM9.75 1.5H6.25C5.83579 1.5 5.5 1.83579 5.5 2.25C5.5 2.66421 5.83579 3 6.25 3H9.75C10.1642 3 10.5 2.66421 10.5 2.25C10.5 1.83579 10.1642 1.5 9.75 1.5Z" fill="#242424"/>
</svg>
