<svg width="20" height="20" viewBox="0 0 20 20" fill="none" xmlns="http://www.w3.org/2000/svg">
<path d="M8.94544 0.047122L8.95037 0.0544276C9.29533 0.018445 9.64551 0 10 0C15.5228 0 20 4.47715 20 10C20 15.5228 15.5228 20 10 20C6.79072 20 3.93454 18.4882 2.10476 16.1379L2.10219 16.1374L2.10267 16.1353C0.784842 14.4414 0 12.3123 0 10C0 4.83804 3.91116 0.589571 8.93171 0.0563919L8.94544 0.047122ZM10 1.5C9.94677 1.5 9.89365 1.50049 9.84065 1.50146C9.96323 1.74566 10.0949 2.0343 10.2144 2.35179C10.5613 3.27352 10.8802 4.6329 10.3143 5.83787C9.79172 6.95068 8.88956 7.23859 8.22419 7.41051L8.13953 7.43235C7.48319 7.60154 7.23081 7.6666 7.04671 7.9461C6.87773 8.20264 6.90333 8.52843 7.10809 9.19568C7.12248 9.24259 7.13805 9.2922 7.15429 9.34393C7.2354 9.60231 7.33316 9.91379 7.38413 10.2067C7.44753 10.5711 7.46544 11.0344 7.23208 11.4822C7.00059 11.9264 6.69375 12.2292 6.3312 12.4267C5.99065 12.6123 5.63794 12.6826 5.37405 12.7294L5.28108 12.7458C4.76621 12.8364 4.51992 12.8798 4.28005 13.1368C4.09385 13.3362 3.97367 13.6885 3.90349 14.2149C3.87492 14.4291 3.85774 14.6415 3.83998 14.8611L3.83044 14.9782C3.81046 15.2205 3.78569 15.4994 3.7312 15.7388L3.73091 15.7402C5.28488 17.4364 7.51823 18.5 10 18.5C11.577 18.5 13.0537 18.0705 14.3195 17.3222C14.2212 17.222 14.1144 17.1044 14.0091 16.9718C13.6696 16.5444 13.2243 15.8081 13.3788 14.939C13.453 14.5211 13.677 14.1712 13.8935 13.9029C14.1141 13.6295 14.3803 13.3769 14.6131 13.1626C14.6684 13.1117 14.7214 13.0633 14.7722 13.0169C14.9504 12.8542 15.1018 12.7159 15.2314 12.5802C15.4042 12.3991 15.4418 12.3175 15.4438 12.3133C15.5117 12.0886 15.4284 11.9294 15.3377 11.8592C15.2921 11.824 15.2309 11.7984 15.1479 11.7978C15.0641 11.7971 14.9282 11.8222 14.7468 11.9372C14.5371 12.07 14.232 12.152 13.911 12.0228C13.6436 11.9151 13.4955 11.709 13.4244 11.5914C13.2805 11.3535 13.1996 11.0452 13.147 10.8191C13.1064 10.6447 13.0676 10.4467 13.0323 10.2661C13.0181 10.1938 13.0045 10.1242 12.9915 10.0601C12.941 9.81026 12.8984 9.63178 12.8574 9.52095C12.8568 9.51952 12.8518 9.50725 12.8382 9.48246C12.8235 9.45554 12.8026 9.42097 12.7742 9.37765C12.7162 9.28942 12.6404 9.1857 12.5465 9.06125C12.5124 9.01606 12.4757 8.96799 12.4373 8.91761C12.2762 8.70642 12.0842 8.45476 11.921 8.20595C11.7252 7.90761 11.5039 7.51768 11.4339 7.10184C11.3968 6.88146 11.3974 6.62694 11.4889 6.36839C11.5825 6.10363 11.7535 5.88589 11.9754 5.7194C12.4588 5.35683 13.169 4.54683 13.7988 3.76036C14.0864 3.40123 14.3434 3.06476 14.5347 2.80938C13.2224 1.98001 11.6672 1.5 10 1.5ZM15.7274 3.71921C15.5298 3.98266 15.2658 4.32814 14.9696 4.69797C14.3679 5.44937 13.5703 6.38281 12.9201 6.88539C12.9455 6.98427 13.0204 7.14727 13.1751 7.38298C13.3062 7.58278 13.456 7.77946 13.6141 7.98695C13.6567 8.04281 13.7002 8.09987 13.7437 8.15758C13.9161 8.38598 14.155 8.70468 14.2646 9.0014C14.3508 9.23488 14.4127 9.51999 14.4618 9.76284C14.4791 9.84848 14.4951 9.93036 14.5105 10.0092C14.536 10.1396 14.5599 10.2616 14.5853 10.3786C15.187 10.2069 15.7871 10.3106 16.2553 10.6726C16.8639 11.1432 17.118 11.9589 16.8797 12.7472C16.7703 13.1089 16.5157 13.4071 16.3165 13.6159C16.1475 13.7929 15.9449 13.9777 15.7612 14.1452C15.7158 14.1867 15.6712 14.2274 15.6289 14.2663C15.3989 14.478 15.2055 14.6656 15.061 14.8447C14.9124 15.0289 14.8658 15.144 14.8556 15.2014C14.8168 15.4199 14.9232 15.7109 15.1837 16.0388C15.3018 16.1875 15.4276 16.3128 15.5252 16.4015C15.5367 16.4119 15.5478 16.4218 15.5582 16.431C17.36 14.8724 18.5 12.5693 18.5 10C18.5 7.512 17.431 5.27366 15.7274 3.71921ZM1.5 10C1.5 11.3984 1.83767 12.7178 2.43592 13.8814C2.52081 13.324 2.69795 12.6334 3.18354 12.1132C3.78336 11.4706 4.51915 11.3501 4.98167 11.2744C5.02795 11.2668 5.07175 11.2596 5.11215 11.2525C5.35983 11.2085 5.50307 11.1697 5.61358 11.1095C5.70209 11.0613 5.8014 10.9818 5.90187 10.789C5.91674 10.7605 5.94419 10.6815 5.90633 10.4638C5.87391 10.2775 5.81312 10.0826 5.73358 9.82755C5.71482 9.76741 5.69481 9.70325 5.67409 9.63574C5.48894 9.03238 5.19301 8.03346 5.79404 7.12099C6.31568 6.32904 7.1547 6.12658 7.68731 5.99806C7.74506 5.98412 7.7992 5.97106 7.84895 5.9582C8.41187 5.81276 8.73225 5.67794 8.95656 5.20026C9.25194 4.57127 9.12485 3.71532 8.81052 2.88019C8.66147 2.48421 8.48659 2.13625 8.3481 1.88653C8.30462 1.80813 8.26514 1.74015 8.23171 1.68419C4.38597 2.49793 1.5 5.91193 1.5 10Z" fill="#242424"/>
</svg>
