<svg width="18" height="18" viewBox="0 0 18 18" fill="none" xmlns="http://www.w3.org/2000/svg">
<path d="M16.2496 8.00094C17.2163 8.00094 18 8.78436 18 9.75077V16.2502C18 17.2166 17.2163 18 16.2496 18H11.7487C10.782 18 9.99832 17.2166 9.99832 16.2502V9.75077C9.99832 8.78436 10.782 8.00094 11.7487 8.00094H16.2496ZM6.26573 12.013C7.23243 12.013 8.0161 12.7964 8.0161 13.7628V16.2502C8.0161 17.2166 7.23243 18 6.26573 18H1.75037C0.783667 18 0 17.2166 0 16.2502V13.7628C0 12.7964 0.783667 12.013 1.75037 12.013H6.26573ZM16.2496 9.5008H11.7487C11.6106 9.5008 11.4986 9.61271 11.4986 9.75077V16.2502C11.4986 16.3882 11.6106 16.5001 11.7487 16.5001H16.2496C16.3877 16.5001 16.4997 16.3882 16.4997 16.2502V9.75077C16.4997 9.61271 16.3877 9.5008 16.2496 9.5008ZM6.26573 13.5128H1.75037C1.61227 13.5128 1.50032 13.6248 1.50032 13.7628V16.2502C1.50032 16.3882 1.61227 16.5001 1.75037 16.5001H6.26573C6.40383 16.5001 6.51578 16.3882 6.51578 16.2502V13.7628C6.51578 13.6248 6.40383 13.5128 6.26573 13.5128ZM6.25132 0C7.21802 0 8.00168 0.783428 8.00168 1.74984V8.24923C8.00168 9.16731 7.29443 9.92026 6.39487 9.99326L6.25132 9.99906H1.75037C0.783667 9.99906 0 9.21564 0 8.24923V1.74984C0 0.783428 0.783667 0 1.75037 0H6.25132ZM6.25132 1.49986H1.75037C1.61227 1.49986 1.50032 1.61178 1.50032 1.74984V8.24923C1.50032 8.38729 1.61227 8.4992 1.75037 8.4992H6.25132L6.30865 8.4926C6.41912 8.46669 6.50137 8.36756 6.50137 8.24923V1.74984C6.50137 1.61178 6.38942 1.49986 6.25132 1.49986ZM16.2496 0C17.2163 0 18 0.783428 18 1.74984V4.2496C18 5.21601 17.2163 5.99944 16.2496 5.99944H11.7487C10.782 5.99944 9.99832 5.21601 9.99832 4.2496V1.74984C9.99832 0.783428 10.782 0 11.7487 0H16.2496ZM11.7487 1.49986C11.6106 1.49986 11.4986 1.61178 11.4986 1.74984V4.2496C11.4986 4.38766 11.6106 4.49958 11.7487 4.49958H16.2496C16.3877 4.49958 16.4997 4.38766 16.4997 4.2496V1.74984C16.4997 1.61178 16.3877 1.49986 16.2496 1.49986H11.7487Z" fill="#242424"/>
</svg>
