<svg width="24" height="16" viewBox="0 0 24 16" fill="none" xmlns="http://www.w3.org/2000/svg">
<path d="M24 14H17.8594C17.7812 14.2266 17.6719 14.4336 17.5312 14.6211C17.3906 14.8008 17.2266 14.957 17.0391 15.0898C16.8594 15.2148 16.6562 15.3164 16.4297 15.3945C16.2109 15.4648 15.9844 15.5 15.75 15.5C15.5156 15.5 15.2852 15.4648 15.0586 15.3945C14.8398 15.3164 14.6367 15.2148 14.4492 15.0898C14.2695 14.957 14.1094 14.8008 13.9688 14.6211C13.8281 14.4336 13.7188 14.2266 13.6406 14H7.35938C7.28125 14.2266 7.17188 14.4336 7.03125 14.6211C6.89062 14.8008 6.72656 14.957 6.53906 15.0898C6.35938 15.2148 6.15625 15.3164 5.92969 15.3945C5.71094 15.4648 5.48438 15.5 5.25 15.5C5.01562 15.5 4.78516 15.4648 4.55859 15.3945C4.33984 15.3164 4.13672 15.2148 3.94922 15.0898C3.76953 14.957 3.60938 14.8008 3.46875 14.6211C3.32812 14.4336 3.21875 14.2266 3.14062 14H0V0.5H16.5V2H20.7188L24 8.57422V14ZM1.5 12.5H3.14062C3.21875 12.2812 3.32812 12.0781 3.46875 11.8906C3.60938 11.7031 3.76953 11.5469 3.94922 11.4219C4.13672 11.2891 4.33984 11.1875 4.55859 11.1172C4.78516 11.0391 5.01562 11 5.25 11C5.48438 11 5.71094 11.0391 5.92969 11.1172C6.15625 11.1875 6.35938 11.2891 6.53906 11.4219C6.72656 11.5469 6.89062 11.7031 7.03125 11.8906C7.17188 12.0781 7.28125 12.2812 7.35938 12.5H13.6406C13.75 12.1797 13.9219 11.9023 14.1562 11.668C14.3984 11.4258 14.6797 11.25 15 11.1406V2H1.5V12.5ZM5.25 14C5.45312 14 5.62891 13.9258 5.77734 13.7773C5.92578 13.6289 6 13.4531 6 13.25C6 13.0469 5.92578 12.8711 5.77734 12.7227C5.62891 12.5742 5.45312 12.5 5.25 12.5C5.04688 12.5 4.87109 12.5742 4.72266 12.7227C4.57422 12.8711 4.5 13.0469 4.5 13.25C4.5 13.4531 4.57422 13.6289 4.72266 13.7773C4.87109 13.9258 5.04688 14 5.25 14ZM15.75 14C15.9531 14 16.1289 13.9258 16.2773 13.7773C16.4258 13.6289 16.5 13.4531 16.5 13.25C16.5 13.0469 16.4258 12.8711 16.2773 12.7227C16.1289 12.5742 15.9531 12.5 15.75 12.5C15.5469 12.5 15.3711 12.5742 15.2227 12.7227C15.0742 12.8711 15 13.0469 15 13.25C15 13.4531 15.0742 13.6289 15.2227 13.7773C15.3711 13.9258 15.5469 14 15.75 14ZM22.5 8.92578L19.7812 3.5H16.5V11.1406C16.8203 11.25 17.0977 11.4258 17.332 11.668C17.5742 11.9023 17.75 12.1797 17.8594 12.5H22.5V8.92578Z" fill="#242424"/>
</svg>
