<svg width="18" height="20" viewBox="0 0 18 20" fill="none" xmlns="http://www.w3.org/2000/svg">
<path d="M5 4C5 4.55228 4.55228 5 4 5C3.44772 5 3 4.55228 3 4C3 3.44772 3.44772 3 4 3C4.55228 3 5 3.44772 5 4ZM4 8C4.55228 8 5 7.55228 5 7C5 6.44772 4.55228 6 4 6C3.44772 6 3 6.44772 3 7C3 7.55228 3.44772 8 4 8ZM5 10C5 10.5523 4.55228 11 4 11C3.44772 11 3 10.5523 3 10C3 9.44771 3.44772 9 4 9C4.55228 9 5 9.44771 5 10ZM5 13C5 13.5523 4.55228 14 4 14C3.44772 14 3 13.5523 3 13C3 12.4477 3.44772 12 4 12C4.55228 12 5 12.4477 5 13ZM4 17C4.55228 17 5 16.5523 5 16C5 15.4477 4.55228 15 4 15C3.44772 15 3 15.4477 3 16C3 16.5523 3.44772 17 4 17ZM11 14C11.5523 14 12 13.5523 12 13C12 12.4477 11.5523 12 11 12C10.4477 12 10 12.4477 10 13C10 13.5523 10.4477 14 11 14ZM14 14C14.5523 14 15 13.5523 15 13C15 12.4477 14.5523 12 14 12C13.4477 12 13 12.4477 13 13C13 13.5523 13.4477 14 14 14ZM14 11C14.5523 11 15 10.5523 15 10C15 9.44771 14.5523 9 14 9C13.4477 9 13 9.44771 13 10C13 10.5523 13.4477 11 14 11ZM12 10C12 10.5523 11.5523 11 11 11C10.4477 11 10 10.5523 10 10C10 9.44771 10.4477 9 11 9C11.5523 9 12 9.44771 12 10ZM14 8C14.5523 8 15 7.55228 15 7C15 6.44772 14.5523 6 14 6C13.4477 6 13 6.44772 13 7C13 7.55228 13.4477 8 14 8ZM12 7C12 7.55228 11.5523 8 11 8C10.4477 8 10 7.55228 10 7C10 6.44772 10.4477 6 11 6C11.5523 6 12 6.44772 12 7ZM11 3V2.25C11 1.00736 9.99264 0 8.75 0H2.25C1.00736 0 0 1.00736 0 2.25V18.75C0 19.1642 0.335786 19.5 0.75 19.5H17.25C17.6642 19.5 18 19.1642 18 18.75V5.25C18 4.00736 16.9926 3 15.75 3H11ZM1.5 2.25C1.5 1.83579 1.83579 1.5 2.25 1.5H8.75C9.16421 1.5 9.5 1.83579 9.5 2.25V3H9.25C8.00736 3 7 4.00736 7 5.25V18H1.5V2.25ZM11.5 18V16.5H13.5V18H11.5ZM15 15.75C15 15.3358 14.6642 15 14.25 15H10.75C10.3358 15 10 15.3358 10 15.75V18H8.5V5.25C8.5 4.83579 8.83579 4.5 9.25 4.5H15.75C16.1642 4.5 16.5 4.83579 16.5 5.25V18H15V15.75Z" fill="#242424"/>
</svg>
