<svg width="20" height="17" viewBox="0 0 20 17" fill="none" xmlns="http://www.w3.org/2000/svg">
<path d="M9.75 5.5C9.33579 5.5 9 5.83579 9 6.25C9 6.66421 9.33579 7 9.75 7C11.072 7 12.4618 7.75866 13.1594 8.75574C13.3969 9.09513 13.8645 9.17776 14.2039 8.9403C14.5433 8.70285 14.6259 8.23522 14.3885 7.89583C13.4134 6.5022 11.5672 5.5 9.75 5.5ZM7.5 2.5C7.5 1.11929 8.61929 0 10 0C11.3807 0 12.5 1.11929 12.5 2.5V3.37957C15.8398 4.43318 18.25 7.56082 18.25 11.25C18.25 11.6642 17.9142 12 17.5 12H2.5C2.08579 12 1.75 11.6642 1.75 11.25C1.75 7.57135 4.17219 4.45696 7.5 3.39206V2.5ZM11 2.5C11 1.94772 10.5523 1.5 10 1.5C9.44771 1.5 9 1.94772 9 2.5V3.06264C9.33483 3.0213 9.67573 3.00002 10.0214 3.00002C10.3527 3.00002 10.6792 3.01954 11 3.0575V2.5ZM3.29153 10.5H16.7091C16.3382 7.12363 13.4925 4.50002 10.0214 4.50002C6.54556 4.50002 3.66724 7.12797 3.29153 10.5ZM2 13C0.895431 13 0 13.8954 0 15C0 16.1046 0.89543 17 2 17H18C19.1046 17 20 16.1046 20 15C20 13.8954 19.1046 13 18 13H2ZM1.5 15C1.5 14.7239 1.72386 14.5 2 14.5H18C18.2761 14.5 18.5 14.7239 18.5 15C18.5 15.2761 18.2761 15.5 18 15.5H2C1.72386 15.5 1.5 15.2761 1.5 15Z" fill="#242424"/>
</svg>
