<svg width="24" height="20" viewBox="0 0 24 20" fill="none" xmlns="http://www.w3.org/2000/svg">
<path d="M4.5 9.5C4.71094 9.5 4.90625 9.53906 5.08594 9.61719C5.26562 9.69531 5.42188 9.80469 5.55469 9.94531C5.69531 10.0781 5.80469 10.2344 5.88281 10.4141C5.96094 10.5938 6 10.7891 6 11C6 11.2109 5.96094 11.4062 5.88281 11.5859C5.80469 11.7656 5.69531 11.9258 5.55469 12.0664C5.42188 12.1992 5.26562 12.3047 5.08594 12.3828C4.90625 12.4609 4.71094 12.5 4.5 12.5C4.28906 12.5 4.09375 12.4609 3.91406 12.3828C3.73438 12.3047 3.57422 12.1992 3.43359 12.0664C3.30078 11.9258 3.19531 11.7656 3.11719 11.5859C3.03906 11.4062 3 11.2109 3 11C3 10.7891 3.03906 10.5938 3.11719 10.4141C3.19531 10.2344 3.30078 10.0781 3.43359 9.94531C3.57422 9.80469 3.73438 9.69531 3.91406 9.61719C4.09375 9.53906 4.28906 9.5 4.5 9.5ZM19.5 9.5C19.7109 9.5 19.9062 9.53906 20.0859 9.61719C20.2656 9.69531 20.4219 9.80469 20.5547 9.94531C20.6953 10.0781 20.8047 10.2344 20.8828 10.4141C20.9609 10.5938 21 10.7891 21 11C21 11.2109 20.9609 11.4062 20.8828 11.5859C20.8047 11.7656 20.6953 11.9258 20.5547 12.0664C20.4219 12.1992 20.2656 12.3047 20.0859 12.3828C19.9062 12.4609 19.7109 12.5 19.5 12.5C19.2891 12.5 19.0938 12.4609 18.9141 12.3828C18.7344 12.3047 18.5742 12.1992 18.4336 12.0664C18.3008 11.9258 18.1953 11.7656 18.1172 11.5859C18.0391 11.4062 18 11.2109 18 11C18 10.7891 18.0391 10.5938 18.1172 10.4141C18.1953 10.2344 18.3008 10.0781 18.4336 9.94531C18.5742 9.80469 18.7344 9.69531 18.9141 9.61719C19.0938 9.53906 19.2891 9.5 19.5 9.5ZM23.5664 6.5L22.793 7.26172C22.8086 7.30078 22.8477 7.41797 22.9102 7.61328C22.9727 7.80859 23.0469 8.03906 23.1328 8.30469C23.2266 8.57031 23.3242 8.85547 23.4258 9.16016C23.5273 9.46484 23.6211 9.74609 23.707 10.0039C23.793 10.2539 23.8633 10.4648 23.918 10.6367C23.9727 10.8008 24 10.8828 24 10.8828V18.5C24 18.7109 23.9609 18.9062 23.8828 19.0859C23.8047 19.2656 23.6953 19.4258 23.5547 19.5664C23.4219 19.6992 23.2656 19.8047 23.0859 19.8828C22.9062 19.9609 22.7109 20 22.5 20H21C20.7891 20 20.5938 19.9609 20.4141 19.8828C20.2344 19.8047 20.0742 19.6992 19.9336 19.5664C19.8008 19.4258 19.6953 19.2656 19.6172 19.0859C19.5391 18.9062 19.5 18.7109 19.5 18.5H4.5C4.5 18.7109 4.46094 18.9062 4.38281 19.0859C4.30469 19.2656 4.19531 19.4258 4.05469 19.5664C3.92188 19.6992 3.76562 19.8047 3.58594 19.8828C3.40625 19.9609 3.21094 20 3 20H1.5C1.28906 20 1.09375 19.9609 0.914062 19.8828C0.734375 19.8047 0.574219 19.6992 0.433594 19.5664C0.300781 19.4258 0.195312 19.2656 0.117188 19.0859C0.0390625 18.9062 0 18.7109 0 18.5V10.8828C0 10.8828 0.0273438 10.8008 0.0820312 10.6367C0.136719 10.4648 0.207031 10.2539 0.292969 10.0039C0.378906 9.74609 0.472656 9.46484 0.574219 9.16016C0.675781 8.85547 0.769531 8.57031 0.855469 8.30469C0.949219 8.03906 1.02734 7.80859 1.08984 7.61328C1.15234 7.41797 1.19141 7.30078 1.20703 7.26172L0.433594 6.5H0V5H1.06641L1.73438 5.67969L2.60156 3.06641C2.72656 2.68359 2.90625 2.33594 3.14062 2.02344C3.38281 1.70313 3.66016 1.43359 3.97266 1.21484C4.28516 0.988281 4.625 0.8125 4.99219 0.6875C5.36719 0.5625 5.75781 0.5 6.16406 0.5H17.8359C18.2422 0.5 18.6289 0.5625 18.9961 0.6875C19.3711 0.8125 19.7148 0.988281 20.0273 1.21484C20.3398 1.43359 20.6133 1.70313 20.8477 2.02344C21.082 2.33594 21.2656 2.68359 21.3984 3.06641L22.2656 5.67969L22.9336 5H24V6.5H23.5664ZM6.16406 2C5.67188 2 5.23047 2.14062 4.83984 2.42188C4.45703 2.70312 4.1875 3.07422 4.03125 3.53516L3.03516 6.5H20.9648L19.9688 3.53516C19.8125 3.07422 19.5391 2.70312 19.1484 2.42188C18.7656 2.14062 18.3281 2 17.8359 2H6.16406ZM16.5 16.4258L15.2812 14H8.71875L7.5 16.4258V17H16.5V16.4258ZM22.5 17V11.1172C22.5 11.1172 22.4766 11.0469 22.4297 10.9062C22.3828 10.7578 22.3203 10.5742 22.2422 10.3555C22.1719 10.1367 22.0938 9.89844 22.0078 9.64062C21.9219 9.375 21.8398 9.12891 21.7617 8.90234C21.6836 8.66797 21.6133 8.46875 21.5508 8.30469C21.4961 8.14062 21.4648 8.03906 21.457 8H2.54297C2.52734 8.03906 2.49219 8.14062 2.4375 8.30469C2.38281 8.46875 2.31641 8.66797 2.23828 8.90234C2.16016 9.12891 2.07812 9.375 1.99219 9.64062C1.90625 9.89844 1.82422 10.1367 1.74609 10.3555C1.67578 10.5742 1.61719 10.7578 1.57031 10.9062C1.52344 11.0469 1.5 11.1172 1.5 11.1172V17H6V16.0742L7.78125 12.5H16.2188L18 16.0742V17H22.5Z" fill="#242424"/>
</svg>
