<svg width="20" height="20" viewBox="0 0 20 20" fill="none" xmlns="http://www.w3.org/2000/svg">
<path d="M17.7498 0C18.9925 0 19.9998 1.00736 19.9998 2.25V7.71196C19.9998 8.57377 19.6575 9.4003 19.0482 10.0098L10.5472 18.5129C9.2777 19.7798 7.22195 19.7807 5.95079 18.5143L1.48909 14.0592C0.218623 12.7913 0.216995 10.7334 1.48531 9.46316L9.98498 0.953336C10.5946 0.342966 11.4218 0 12.2845 0H17.7498ZM17.7498 1.5H12.2845C11.82 1.5 11.3745 1.68467 11.0463 2.01333L2.53412 10.5358C1.86389 11.2207 1.86898 12.3191 2.54884 12.9977L7.01006 17.4522C7.69493 18.1345 8.8033 18.134 9.48697 17.4518L17.9874 8.94924C18.3155 8.62107 18.4998 8.17601 18.4998 7.71196V2.25C18.4998 1.83579 18.164 1.5 17.7498 1.5ZM14.9998 3.50218C15.8282 3.50218 16.4998 4.17374 16.4998 5.00216C16.4998 5.83057 15.8282 6.50213 14.9998 6.50213C14.1714 6.50213 13.4998 5.83057 13.4998 5.00216C13.4998 4.17374 14.1714 3.50218 14.9998 3.50218Z" fill="#242424"/>
</svg>
