<svg width="52" height="52" viewBox="0 0 52 52" fill="none" xmlns="http://www.w3.org/2000/svg">
<rect width="52" height="52" fill="#E7EFFF"/>
<rect width="52" height="52" stroke="#FAF9F8"/>
<path d="M43.9036 30.4494L43.9424 30.5606L43.9841 30.7421L44 30.9195V42.65C44 43.3335 43.4921 43.8983 42.8331 43.9877L42.6499 44H9.35013C8.66661 44 8.10173 43.4921 8.01233 42.8332L8 42.65V30.9511L8.00331 30.8559L8.02289 30.7019C8.04114 30.6051 8.06915 30.513 8.1061 30.4257L13.0733 19.5921C13.2658 19.1723 13.6569 18.8843 14.1053 18.8189L14.3006 18.8047L18.8727 18.8033L17.4525 21.2697L17.33 21.5033L15.1665 21.5036L11.4527 29.5997H40.5291L36.8798 21.7769L38.4323 19.0818C38.5522 19.1733 38.6572 19.2852 38.7416 19.414L38.8364 19.584L43.9036 30.4494ZM28.4593 8.10019L28.6239 8.18114L37.9634 13.5868C38.5542 13.9287 38.789 14.6514 38.5374 15.2671L38.4566 15.432L33.404 24.2018L35.4526 24.2029C36.1983 24.2029 36.8028 24.8073 36.8028 25.5529C36.8028 26.2364 36.2948 26.8012 35.6358 26.8906L35.4526 26.9029L31.8487 26.9018L31.847 26.9072H24.5059L24.5004 26.9018L16.5508 26.9029C15.8052 26.9029 15.2007 26.2985 15.2007 25.5529C15.2007 24.8695 15.7086 24.3046 16.3676 24.2152L16.5508 24.2029L19.8325 24.2018L19.5057 24.0133C18.9149 23.6713 18.6801 22.9486 18.9317 22.3329L19.0125 22.168L26.7831 8.67567C27.1242 8.08342 27.8451 7.84805 28.4593 8.10019ZM28.4425 11.1955L22.0194 22.3482L25.2204 24.2018H30.2915L35.449 15.2507L28.4425 11.1955Z" fill="#0742AB"/>
</svg>
