<svg width="280" height="164" viewBox="0 0 280 164" fill="none" xmlns="http://www.w3.org/2000/svg">
<path d="M195.02 95.0622C191.093 97.3865 167.684 95.1976 171.145 92.1595C174.788 88.9619 175.773 81.596 174.806 74.8972C174.025 69.4879 173.679 65.9855 173.679 65.9855L196.14 64.5244C196.14 64.5244 201.876 91.0041 195.02 95.0622Z" fill="#FADCBD"/>
<path d="M183.977 86.083H183.977C169.252 86.083 157.316 98.0194 157.316 112.744V164H220.733V122.84C220.733 102.539 204.277 86.083 183.977 86.083Z" fill="url(#paint0_linear)"/>
<path d="M157.316 164V112.744C157.316 98.0194 169.252 86.083 183.977 86.083H183.977C193.744 86.083 202.622 89.8931 209.205 96.1081C201.863 123.65 157.316 164 157.316 164Z" fill="#8B8CC4"/>
<path d="M173.837 70.2452L199.398 65.022L196.592 51.2922C196.471 50.6976 195.89 50.3141 195.296 50.4356L177.954 53.9792C174.009 54.7853 171.465 58.6365 172.271 62.5812L173.837 70.2452Z" fill="#E0BB95"/>
<path d="M173.594 68.9654L174.806 74.8969C174.849 74.8988 176.733 74.8912 177.869 73.6978C178.866 72.6498 178.661 70.7236 177.695 69.2968C176.362 67.328 173.667 68.9303 173.594 68.9654Z" fill="#E0BB95"/>
<path d="M180.127 70.4404C181.871 70.4404 183.284 69.0269 183.284 67.2832C183.284 65.5395 181.871 64.126 180.127 64.126C178.383 64.126 176.97 65.5395 176.97 67.2832C176.97 69.0269 178.383 70.4404 180.127 70.4404Z" fill="#FADCBD"/>
<path d="M197.649 81.4505C203.317 81.2795 205.455 78.1665 205.732 75.4517C206.008 72.7556 204.349 69.6806 203.094 67.2167C201.989 65.0492 201.367 62.8923 200.558 58.9324C199.501 53.7613 195.762 52.6058 191.172 52.9236C190.447 52.9738 189.213 53.3042 188.534 53.5597C184.235 55.1757 181.79 58.1769 182.626 63.0598C183.125 65.9682 183.875 69.8909 184.736 72.8777C186.605 79.3616 190.983 81.6517 197.649 81.4505Z" fill="#E0BB95"/>
<path d="M196.082 70.5142L202.95 69.1108L199.689 53.1533L192.772 54.5668C189.585 55.218 187.529 58.3296 188.18 61.5166L189.073 65.8835C189.73 69.0978 192.868 71.171 196.082 70.5142Z" fill="#FADCBD"/>
<path d="M197.9 54.0936C194.301 53.9943 190.556 54.8467 187.07 55.5035C181.625 56.5289 177.412 58.4462 177.412 58.4462L177.09 56.7756C176.359 52.9894 177.823 48.9947 182.42 48.6362C189.474 48.0861 187.541 46.3805 190.436 45.5301C193.184 44.723 194.431 47.4279 195.604 47.1928C198.453 46.6215 197.142 43.7829 201.542 43.0064C206.078 42.2057 211.095 54.4577 197.9 54.0936Z" fill="#E0BB95"/>
<path d="M199.492 65.0825C199.762 66.6131 201.161 67.6605 202.695 67.4084C204.291 67.1459 205.394 65.876 205.024 64.0643C204.674 62.3515 203.148 61.7723 202.036 61.8946C201.805 61.92 201.573 61.8904 201.351 61.9602C200.634 62.1857 199.112 62.9251 199.492 65.0825Z" fill="#FADCBD"/>
<path d="M203.577 72.0865L198.91 73.04C197.69 73.2894 196.498 72.5021 196.249 71.2816L196.201 71.0478C195.951 69.8272 196.739 68.6356 197.959 68.3861L202.625 67.4326L203.577 72.0865Z" fill="#E0BB95"/>
<path d="M196.223 69.7797C196.066 70.3862 195.568 70.6128 195.275 70.6727C194.891 70.7512 196.321 71.8585 196.321 71.8585L197.12 70.3022C197.12 70.3022 196.245 69.6946 196.223 69.7797Z" fill="#E0BB95"/>
<path d="M198.662 64.7348C199.129 64.6393 199.353 63.8017 199.161 62.8639C198.969 61.9261 198.435 61.2433 197.968 61.3388C197.5 61.4343 197.277 62.2719 197.469 63.2097C197.66 64.1475 198.194 64.8303 198.662 64.7348Z" fill="#33312D"/>
<path d="M198.775 69.6363C199.084 69.8531 199.358 69.9533 199.651 70.0457C199.945 70.1263 200.248 70.1945 200.556 70.2156C200.861 70.2494 201.163 70.2453 201.448 70.2262C201.735 70.1942 201.989 70.164 202.311 70.0214L202.414 69.9757C202.629 69.8807 202.879 69.9775 202.974 70.1919C203.012 70.2771 203.02 70.368 203.002 70.4526C202.882 71.015 202.399 71.4561 201.904 71.6674C201.401 71.8949 200.863 71.9393 200.351 71.8759C199.841 71.7991 199.341 71.613 198.924 71.2747C198.511 70.9509 198.165 70.4456 198.152 69.8968C198.148 69.6991 198.304 69.535 198.502 69.5304C198.582 69.5286 198.656 69.5528 198.716 69.5952L198.775 69.6363Z" fill="#BF8F68"/>
<path d="M238.504 45.4628C237.904 47.6389 238.275 48.2902 237.739 51.953C237.416 54.2484 237.142 60.5705 234.705 62.612L231.17 62.693C231.17 62.693 230.555 59.1635 230.585 57.3551C230.668 52.3854 232.037 48.4418 232.038 48.4287C232.351 47.8531 233.139 47.9105 233.344 48.5942C233.462 49.0225 233.636 50.7125 233.752 51.9473C233.785 52.2918 234.257 52.3594 234.387 52.0386C235.317 49.7419 235.826 46.3 236.998 44.525C237.73 43.5769 239.252 44.1202 238.504 45.4628Z" fill="#FADCBD"/>
<path d="M196.449 121.702C200.268 122.763 235.913 139.298 248.282 114.36C256.193 98.4116 237.359 62.6445 237.359 62.6445L231.17 62.6931C231.17 62.6931 235.807 88.1413 228.391 93.7498C218.406 101.301 202.882 91.3112 202.882 91.3112C202.882 91.3112 196.392 121.684 196.449 121.702Z" fill="#8B8CC4"/>
<path d="M247.661 54.7725C239.966 53.7334 232.3 52.6878 224.665 51.637C223.862 42.1878 225.501 32.3214 229.585 22.9766C236.677 24.0157 243.799 25.0613 250.951 26.1121C247.411 35.5613 246.315 45.4277 247.661 54.7725Z" fill="#E1DFDD"/>
<path d="M238.993 46.6906C238.197 48.8041 238.513 49.4833 237.646 53.084C237.623 53.1836 237.599 53.2831 237.57 53.3885C236.464 53.2363 235.357 53.0899 234.256 52.9377C234.274 52.9143 234.292 52.8909 234.303 52.8674C235.433 50.666 236.253 47.282 237.576 45.6192C238.39 44.741 239.859 45.4201 238.993 46.6906Z" fill="#C8C6C4"/>
<path d="M230.724 55.5986C231.012 50.6366 232.971 46.852 232.974 46.8391C233.337 46.294 234.117 46.422 234.26 47.1214C234.338 47.5586 234.251 51.697 234.256 52.9373C234.258 53.2833 230.724 55.5986 230.724 55.5986Z" fill="#FADCBD"/>
<path d="M34.8288 105.533C34.8288 105.533 32.2459 101.663 31.9373 101.132C31.6287 100.6 29.8827 99.7417 29.6164 98.7835C29.3502 97.8253 29.6756 96.6767 29.5129 96.1989C29.3501 95.7211 27.5558 93.2599 27.8132 92.4454C28.0706 91.631 28.893 92.4039 28.893 92.4039C28.893 92.4039 28.0739 91.6344 27.7666 90.8272C27.4593 90.02 28.0825 89.7057 30.0715 90.6839C32.0605 91.6621 38.228 99.8253 36.7296 97.101C35.4632 95.1549 35.2801 94.1481 35.4001 93.6294C35.485 93.2621 35.9673 93.1649 36.2048 93.4577C37.336 94.8523 40.6229 99.7995 40.0373 103.99C39.4832 107.954 41.594 116.608 41.594 116.608C41.594 116.608 40.2899 118.298 36.8485 118.808C37.4287 111.82 34.8288 105.533 34.8288 105.533Z" fill="#BF8F68"/>
<path d="M41.869 104.914C40.3839 105.772 38.485 105.263 37.6276 103.778L24.6621 81.321C23.8047 79.8359 24.3135 77.937 25.7986 77.0796C27.2837 76.2222 29.1826 76.731 30.04 78.2161L43.0055 100.673C43.8629 102.158 43.3541 104.057 41.869 104.914Z" fill="#C8C6C4"/>
<path d="M35.3952 109.052C35.3952 109.052 33.8675 139.724 50.1059 142.212C66.4377 144.715 74.1934 130.138 74.1934 130.138L66.4542 105.734C66.4542 105.734 58.9375 124.912 51.0258 124.13C44.5867 123.494 40.2831 113.251 40.0461 107.624L35.3952 109.052Z" fill="#C3C3E1"/>
<path d="M123.33 109.692C113.105 92.8 107.837 91.9212 100.22 61.5156C97.7476 51.6457 80.6822 54.9895 81.7808 69.9703C82.8265 88.0432 84.7141 93.2231 78.1699 106.215C65.6161 131.137 82.6552 151.539 96.4939 151.875C113.404 152.286 127.728 139.024 126.928 124.82C126.718 121.092 126.424 113.946 123.33 109.692Z" fill="#3A312E"/>
<path d="M100.429 65.0672C100.931 55.9439 93.657 48.1249 84.1815 47.603C74.7059 47.081 66.617 54.0538 66.1145 63.1771C65.612 72.3004 72.886 80.1194 82.3616 80.6413C91.8372 81.1633 99.926 74.1905 100.429 65.0672Z" fill="#3A312E"/>
<path d="M85.8596 115.629C91.0474 115.629 95.2529 111.424 95.2529 106.236C95.2529 101.048 91.0474 96.8428 85.8596 96.8428C80.6718 96.8428 76.4663 101.048 76.4663 106.236C76.4663 111.424 80.6718 115.629 85.8596 115.629Z" fill="#C3C3E1"/>
<path d="M79.4264 139.626C73.2343 134.352 64.5578 135.714 64.5791 146.006C64.5892 150.847 64.7794 156.973 65.1315 164H100.336C100.503 156.547 100.055 150.389 98.7954 145.964C95.8836 135.733 86.2935 134.647 79.4264 139.626Z" fill="#E3646A"/>
<path d="M100.17 155.121H64.7611C64.7611 155.121 62.007 116.419 66.3214 105.722C68.8109 99.5636 72.5956 95.3571 76.8273 91.9206C78.5266 90.5406 81.0211 90.435 83.6873 90.175C86.3535 89.9148 88.761 90.5874 90.7876 92.0232C95.9829 95.6826 98.7107 104.326 97.1145 115.113C96.68 118.019 95.514 123.614 97.0062 132.959C97.0062 132.959 98.3919 142.575 99.0043 145.712C99.5281 148.396 100.17 155.121 100.17 155.121Z" fill="url(#paint1_linear)"/>
<path d="M90.5775 91.8704C89.1654 89.0671 88.513 85.9426 88.6856 82.8085L89.2155 73.183L80.6242 72.71L80.3799 86.7969C80.3509 88.3895 79.593 89.8449 78.3789 90.7852C78.0334 91.0528 78.206 91.6006 78.6429 91.6101L90.5775 91.8704Z" fill="url(#paint2_radial)"/>
<path d="M78.1383 84.6086C74.1581 85.1927 70.458 82.4397 69.8739 78.4595L68.2447 67.3579C67.4671 62.0591 71.1322 57.1332 76.431 56.3555C80.2128 55.8005 83.7285 58.4163 84.2835 62.1982L86.0181 74.0181C86.7667 79.1185 83.2387 83.8601 78.1383 84.6086Z" fill="#BF8F68"/>
<path d="M84.1605 75.5715L88.2041 74.9781C89.9264 74.7253 91.1178 73.1242 90.865 71.4018C90.6122 69.6795 89.0111 68.4881 87.2887 68.7409L83.2451 69.3343L84.1605 75.5715Z" fill="#BF8F68"/>
<path d="M70.2781 58.5234C67.9757 60.8434 69.1632 63.78 74.299 65.1106C78.0215 66.075 79.8115 66.7323 81.3999 67.937C83.9029 69.8354 88.2381 69.3141 89.0617 66.2825C89.072 66.2444 89.0822 66.2062 89.0921 66.1679C89.9009 63.0456 89.1911 58.5818 86.5505 55.9826C84.4749 53.9396 79.9131 53.2415 77.3389 54.0661C74.3459 55.025 71.8745 56.9148 70.2781 58.5234Z" fill="#3A312E"/>
<path d="M72.3107 72.7601C72.8558 72.6884 73.1999 71.8872 73.0794 70.9705C72.9588 70.0538 72.4192 69.3688 71.8741 69.4405C71.3291 69.5122 70.9849 70.3134 71.1055 71.2301C71.2261 72.1468 71.7657 72.8317 72.3107 72.7601Z" fill="#3A312E"/>
<path d="M71.8702 77.5722L70.1149 68.707L68.497 69.0773C68.6626 71.2729 67.7695 72.9399 67.0485 73.9055C66.6452 74.4457 66.599 75.6058 67.2778 76.1878C67.6468 76.5042 69.6443 77.0088 69.8082 78.0118L71.8702 77.5722Z" fill="#BF8F68"/>
<path d="M76.8738 66.8408L76.7324 66.8616L76.7532 67.003L76.8946 66.9823L76.8738 66.8408Z" fill="url(#paint3_radial)"/>
<path d="M88.9694 77.5178C90.0866 77.3708 90.8681 76.3081 90.715 75.144C90.5619 73.9799 89.5321 73.1554 88.415 73.3023C87.2978 73.4492 86.5162 74.512 86.6693 75.6761C86.8224 76.8402 87.8522 77.6647 88.9694 77.5178Z" fill="#F7C6C8"/>
<path d="M72.2289 79.4722C72.6013 79.407 72.8245 79.3091 73.0214 79.2071C73.2128 79.096 73.3906 78.9935 73.5633 78.8577C73.7428 78.7342 73.9111 78.5873 74.0895 78.4365C74.2597 78.2736 74.4412 78.1235 74.6341 77.8178L74.6862 77.7352C74.7892 77.572 75.005 77.5232 75.1682 77.6262C75.2004 77.6466 75.2291 77.6726 75.2522 77.7004C75.5746 78.0946 75.5965 78.6719 75.4424 79.1331C75.2954 79.6098 74.9798 80.0041 74.5852 80.2912C74.1839 80.565 73.6876 80.7423 73.1752 80.7036C72.6689 80.678 72.1703 80.4282 71.9224 80.0215C71.8196 79.8529 71.873 79.6328 72.0417 79.53C72.0807 79.5062 72.1224 79.4908 72.1649 79.4832L72.2289 79.4722Z" fill="#9B643D"/>
<path d="M90.7875 92.0237C88.1736 91.7376 85.9499 92.2598 82.6494 92.7889C79.4565 93.3008 77.1792 92.512 76.8271 91.921C78.7466 90.2127 81.3211 89.3691 83.9873 89.1091C86.6537 88.8489 88.7609 90.5878 90.7875 92.0237Z" fill="#BF8F68"/>
<path d="M56.5908 106.353C59.3845 114.627 68.9004 141.25 76.0992 142.603C93.4387 145.863 96.256 101.048 96.256 101.048L81.9576 100.576C81.9576 100.576 82.3436 122.514 77.2135 122.984C72.6417 123.403 66.3033 110.275 59.6321 100.669L56.5908 106.353Z" fill="#C3C3E1"/>
<path d="M57.035 105.522C56.4965 103.928 55.4313 102.234 53.481 101.68C51.5307 101.125 49.4437 99.5319 49.4437 99.5319C49.4437 99.5319 47.8719 101.008 45.3737 98.2606C42.8755 95.5127 47.0653 92.8482 47.0653 92.8482C47.0653 92.8482 45.3261 90.7845 41.9297 90.2573C39.6608 89.9051 39.3349 87.8484 43.2923 88.3553C44.6909 88.5345 46.7838 89.1234 50.1019 91.3772C52.7311 93.163 56.5151 96.1798 59.6323 100.668L57.035 105.522Z" fill="#BF8F68"/>
<path d="M156.09 100.843C154.364 99.5918 149.086 97.3985 149.086 97.3985C148.639 97.2808 148.327 96.876 148.327 96.4136V94.5576V84.6611H136.5V93.8169V96.0552C136.497 96.7583 135.999 97.3638 135.306 97.4942C135.306 97.4942 130.327 99.6099 128.625 100.843H156.09Z" fill="#E0BB95"/>
<path d="M156.127 100.843H128.67C128.057 101.286 127.462 101.761 126.885 102.266C121.043 107.391 117.268 115.494 117.268 124.614V164H167.529V124.614C167.529 115.964 164.135 108.23 158.799 103.081C157.954 102.266 157.063 101.518 156.127 100.843Z" fill="#EE8F94"/>
<path d="M149.28 97.4404V164H181.478C180.899 162.067 180.059 160.201 178.853 158.554C170.678 147.396 167.492 122.018 167.351 121.193C167.346 121.166 167.344 121.147 167.344 121.147C166.112 109.626 158.83 100.274 149.28 97.4404Z" fill="url(#paint4_radial)"/>
<path d="M117.364 121.147C117.364 121.147 117.362 121.166 117.357 121.193C117.216 122.018 114.031 147.396 105.855 158.554C104.649 160.201 103.809 162.067 103.23 164H135.429V97.4404C125.879 100.274 118.596 109.626 117.364 121.147Z" fill="url(#paint5_radial)"/>
<path d="M120.443 71.4214L141.525 54.2591L142.419 52.0657C142.514 51.8333 142.313 51.5884 142.066 51.6358L139.751 52.0813L118.669 69.2436C118.087 69.7287 117.933 70.6674 118.421 71.2663C118.909 71.8652 119.846 71.9193 120.443 71.4214Z" fill="#EE8F94"/>
<path d="M126.188 65.7579C131.104 65.7579 135.089 61.7728 135.089 56.857C135.089 51.9411 131.104 47.9561 126.188 47.9561C121.273 47.9561 117.288 51.9411 117.288 56.857C117.288 61.7728 121.273 65.7579 126.188 65.7579Z" fill="#594539"/>
<path opacity="0.15" d="M126.188 65.7579C131.104 65.7579 135.089 61.7728 135.089 56.857C135.089 51.9411 131.104 47.9561 126.188 47.9561C121.273 47.9561 117.288 51.9411 117.288 56.857C117.288 61.7728 121.273 65.7579 126.188 65.7579Z" fill="url(#paint6_linear)"/>
<path d="M141.584 92.0484C151.23 92.0484 159.049 84.229 159.049 74.5833C159.049 64.9376 151.23 57.1182 141.584 57.1182C131.939 57.1182 124.119 64.9376 124.119 74.5833C124.119 84.229 131.939 92.0484 141.584 92.0484Z" fill="#594539"/>
<path d="M147.354 85.2139H136.742V95.7794H147.354V85.2139Z" fill="#E0BB95"/>
<path d="M140.699 92.0477H151.007C154.295 92.0477 156.96 89.3823 156.96 86.0944V75.6077C156.96 69.9617 152.383 65.3848 146.738 65.3848H141.744C136.4 65.3848 132.068 69.7167 132.068 75.0603V83.4174C132.068 88.1838 135.428 92.0477 140.699 92.0477Z" fill="#E0BB95"/>
<path d="M147.454 92.0479H151.267C155.765 92.0479 159.412 88.4014 159.412 83.9033V82.8676C159.412 81.9014 158.628 81.1182 157.662 81.1182H147.454C144.435 81.1182 141.989 83.5649 141.989 86.5831C141.989 89.6012 144.435 92.0479 147.454 92.0479Z" fill="#E0BB95"/>
<path d="M156.56 87.7931C156.066 88.4127 155.147 88.6423 154.324 88.3909C153.499 88.1442 152.854 87.3733 152.871 86.5675C152.875 86.4071 153.008 86.2798 153.168 86.2833C153.219 86.2844 153.267 86.2986 153.308 86.3225L153.326 86.3332C153.936 86.6912 154.319 86.8869 154.756 87.0262C155.191 87.1741 155.655 87.2347 156.353 87.3253L156.372 87.3277C156.53 87.3482 156.641 87.4926 156.621 87.6504C156.614 87.7042 156.591 87.7535 156.56 87.7931Z" fill="#9B643D"/>
<path d="M153.261 81.745C153.856 81.745 154.339 80.9607 154.339 79.9931C154.339 79.0256 153.856 78.2412 153.261 78.2412C152.665 78.2412 152.183 79.0256 152.183 79.9931C152.183 80.9607 152.665 81.745 153.261 81.745Z" fill="#33312D"/>
<path d="M153.202 84.4319C155.165 84.4319 156.757 82.3846 156.757 79.859C156.757 77.3335 155.165 75.2861 153.202 75.2861C151.238 75.2861 149.646 77.3335 149.646 79.859C149.646 82.3846 151.238 84.4319 153.202 84.4319Z" stroke="#E3646A" stroke-width="1.1443" stroke-miterlimit="10"/>
<path d="M152.734 70.4776C152.704 69.2417 152.734 62.3776 152.734 62.3776C152.734 62.3776 145.715 60.6758 142.88 60.6758C138.917 60.6758 125.713 72.7953 124.119 74.5825C124.119 82.7534 129.73 89.6113 137.309 91.519L137.316 91.5019C137.553 91.5707 137.798 91.6196 138.058 91.6196C139.523 91.6196 140.712 90.4311 140.712 88.9653C140.712 88.0361 140.232 87.2212 139.509 86.7465L142.522 80.3808C142.522 80.3808 142.757 80.3891 142.88 80.3891C148.324 80.3891 152.737 75.9755 152.737 70.5322C152.737 70.5137 152.734 70.4961 152.734 70.4776Z" fill="#594539"/>
<path d="M141.462 87.3073H144.924V80.3838H141.462C139.55 80.3838 138 81.9337 138 83.8455C138 85.7574 139.55 87.3073 141.462 87.3073Z" fill="#E0BB95"/>
<path d="M131.687 153.512H152.978C154.008 153.512 154.843 152.677 154.843 151.647V122.687C154.843 121.657 154.008 120.822 152.978 120.822H131.687C130.657 120.822 129.822 121.657 129.822 122.687V151.647C129.822 152.677 130.657 153.512 131.687 153.512Z" fill="#6E6FAC"/>
<path d="M135.897 138.37C141.567 136.487 143.817 137.252 145.432 137.758C145.445 137.762 145.459 137.767 145.472 137.771C146.071 137.979 145.885 138.882 145.251 138.862L142.801 138.786L147.859 140.691C148.409 140.898 148.483 141.642 147.986 141.957C146.881 142.657 144.135 143.406 141.729 143.05C139.23 142.681 135.037 140.326 135.037 140.326L135.897 138.37Z" fill="#E0BB95"/>
<path d="M136.39 138.153V146.524C136.39 146.524 114.127 154.772 104.319 139.155C98.6124 130.069 103.235 117.557 109.201 110.729C119.11 99.391 135.428 97.4404 135.428 97.4404L131.635 119.906C127.345 122.137 118.09 127.396 120.535 133.396C122.979 139.396 136.39 138.153 136.39 138.153Z" fill="#EAEAF3"/>
<path d="M148.921 133.581C144.007 130.163 141.629 130.259 139.933 130.287C139.919 130.287 139.906 130.288 139.892 130.289C139.257 130.318 139.179 131.238 139.794 131.399L142.17 132.021L136.77 132.416C136.182 132.459 135.9 133.153 136.288 133.596C137.151 134.583 139.576 136.082 141.989 136.423C144.496 136.777 149.193 135.705 149.193 135.705L148.921 133.581Z" fill="#E0BB95"/>
<path d="M148.614 132.981V141.353C148.614 141.353 170.878 154.772 180.686 139.155C186.392 130.069 181.769 117.557 175.803 110.729C165.895 99.391 149.279 97.4404 149.279 97.4404L153.37 119.906C157.66 122.137 166.914 124.896 164.47 130.896C162.025 136.896 148.614 132.981 148.614 132.981Z" fill="#EAEAF3"/>
<path d="M190.831 29.6331L173.778 37.4093L173.119 37.0009C170.375 35.3014 167.924 33.3215 165.836 31.1175L159.996 24.9549L177.049 17.1787L182.889 23.3413C184.977 25.5453 187.428 27.5252 190.172 29.2247L190.831 29.6331Z" fill="#E1DFDD"/>
<path d="M71.6894 43.2589L53.447 50.6516C51.9114 51.2739 50.1622 50.5335 49.5399 48.998L42.1472 30.7556C41.5249 29.22 42.2653 27.4708 43.8008 26.8485L62.0432 19.4558C63.5788 18.8335 65.328 19.5739 65.9503 21.1094L73.3431 39.3518C73.9654 40.8874 73.225 42.6366 71.6894 43.2589Z" fill="#E1DFDD"/>
<path d="M66.8659 23.3687L43.0628 33.0149L42.1472 30.7556C41.5249 29.22 42.2653 27.4708 43.8008 26.8485L62.0432 19.4558C63.5788 18.8335 65.328 19.5739 65.9503 21.1094L66.8659 23.3687Z" fill="#EE8F94"/>
<path d="M48.1845 28.1029C47.6715 28.3108 47.0872 28.0635 46.8793 27.5505L45.5219 24.2011C45.314 23.6881 45.5613 23.1038 46.0743 22.8959C46.5873 22.688 47.1716 22.9353 47.3795 23.4483L48.7369 26.7977C48.9448 27.3107 48.6975 27.8951 48.1845 28.1029Z" fill="#E3646A"/>
<path d="M53.977 25.7562C53.464 25.9641 52.8797 25.7168 52.6718 25.2038L51.3144 21.8544C51.1065 21.3414 51.3538 20.7571 51.8668 20.5492C52.3798 20.3413 52.9641 20.5886 53.172 21.1016L54.5294 24.451C54.7373 24.964 54.4899 25.5483 53.977 25.7562Z" fill="#E3646A"/>
<path d="M59.7695 23.4086C59.2565 23.6165 58.6722 23.3692 58.4643 22.8562L57.1069 19.5068C56.899 18.9938 57.1463 18.4095 57.6593 18.2016C58.1723 17.9937 58.7566 18.241 58.9645 18.754L60.3219 22.1034C60.5298 22.6164 60.2825 23.2008 59.7695 23.4086Z" fill="#E3646A"/>
<path d="M111.281 10.6661L92.3647 18.625L100.324 37.5413L119.24 29.5824L111.281 10.6661Z" fill="#B3AFAB"/>
<path d="M115.616 8.84575L96.6997 16.8047L104.659 35.721L123.575 27.7621L115.616 8.84575Z" fill="#C8C6C4"/>
<path d="M127.468 26.1255L108.547 34.0862L107.904 33.4555C105.23 30.8308 104.017 28.9583 102.096 25.7553L96.7231 16.7996L115.644 8.83887L121.016 17.7946C122.938 20.9976 124.151 22.87 126.825 25.4948L127.468 26.1255Z" fill="#E1DFDD"/>
<path d="M145.839 27.9515L126.896 35.8926L126.188 35.423C123.24 33.4687 120.622 31.2173 118.409 28.7325L112.221 21.785L131.163 13.8438L137.351 20.7913C139.564 23.2761 142.182 25.5275 145.13 27.4818L145.839 27.9515Z" fill="#E1DFDD"/>
<path d="M127.559 26.069L119.271 29.5634C119.087 29.3843 112.223 21.7835 112.223 21.7835L121.163 18.0391C123.057 21.1553 124.307 22.8827 126.922 25.4426L127.559 26.069Z" fill="#C8C6C4"/>
<path d="M139.684 11.2052L133.001 20.5399L130.688 21.2821L130.915 19.0462L137.597 9.71154C137.804 9.32614 138.766 9.10404 139.34 9.51484C139.914 9.92554 139.955 10.8153 139.684 11.2052Z" fill="#EE8F94"/>
<defs>
<linearGradient id="paint0_linear" x1="225.518" y1="101.094" x2="198.935" y2="123.768" gradientUnits="userSpaceOnUse">
<stop stop-color="#4B4C75"/>
<stop offset="0.4859" stop-color="#68699B"/>
<stop offset="1" stop-color="#8B8CC7"/>
</linearGradient>
<linearGradient id="paint1_linear" x1="115.815" y1="173.472" x2="75.2745" y2="119.918" gradientUnits="userSpaceOnUse">
<stop stop-color="#8B8CC7"/>
<stop offset="0.3409" stop-color="#A4A4D2"/>
<stop offset="0.7453" stop-color="#BBBBDD"/>
<stop offset="1" stop-color="#C3C3E1"/>
</linearGradient>
<radialGradient id="paint2_radial" cx="0" cy="0" r="1" gradientUnits="userSpaceOnUse" gradientTransform="translate(79.1393 76.7753) rotate(-176.85) scale(7.23603 10.5697)">
<stop stop-color="#9B643D"/>
<stop offset="0.8817" stop-color="#BA8A63"/>
<stop offset="0.9995" stop-color="#BF8F68"/>
</radialGradient>
<radialGradient id="paint3_radial" cx="0" cy="0" r="1" gradientUnits="userSpaceOnUse" gradientTransform="translate(76.7692 67.0134) rotate(158.284) scale(0.0654984 0.0690525)">
<stop offset="0.0003" stop-color="#9B643D"/>
<stop offset="0.8822" stop-color="#BA8A63" stop-opacity="0.1178"/>
<stop offset="1" stop-color="#BF8F68" stop-opacity="0"/>
</radialGradient>
<radialGradient id="paint4_radial" cx="0" cy="0" r="1" gradientUnits="userSpaceOnUse" gradientTransform="translate(143.336 142.509) scale(32.2293)">
<stop offset="0.0013" stop-color="#6E6FAC"/>
<stop offset="0.0956" stop-color="#8485B9"/>
<stop offset="0.2781" stop-color="#A9A9CD"/>
<stop offset="0.4614" stop-color="#C5C5DE"/>
<stop offset="0.6434" stop-color="#DADAEA"/>
<stop offset="0.8236" stop-color="#E6E6F1"/>
<stop offset="1" stop-color="#EAEAF3"/>
</radialGradient>
<radialGradient id="paint5_radial" cx="0" cy="0" r="1" gradientUnits="userSpaceOnUse" gradientTransform="translate(143.336 142.509) scale(32.2293)">
<stop offset="0.0013" stop-color="#6E6FAC"/>
<stop offset="0.0956" stop-color="#8485B9"/>
<stop offset="0.2781" stop-color="#A9A9CD"/>
<stop offset="0.4614" stop-color="#C5C5DE"/>
<stop offset="0.6434" stop-color="#DADAEA"/>
<stop offset="0.8236" stop-color="#E6E6F1"/>
<stop offset="1" stop-color="#EAEAF3"/>
</radialGradient>
<linearGradient id="paint6_linear" x1="126.188" y1="45.8427" x2="126.188" y2="71.3892" gradientUnits="userSpaceOnUse">
<stop stop-color="white" stop-opacity="0"/>
<stop offset="0.2641" stop-color="#A6A4A4" stop-opacity="0.3842"/>
<stop offset="0.5557" stop-color="#484546" stop-opacity="0.8085"/>
<stop offset="0.6873" stop-color="#231F20"/>
</linearGradient>
</defs>
</svg>
