<svg xmlns="http://www.w3.org/2000/svg" xmlns:xlink="http://www.w3.org/1999/xlink" viewBox="0 0 200 200"><defs><style>.cls-1{fill:#b3b0ad;}.cls-2{fill:#c8c6c4;}.cls-3{fill:url(#linear-gradient);}.cls-4{fill:#a6a7dc;}.cls-5{fill:#8b8cc7;}.cls-6{fill:#ee8f94;}.cls-7{fill:#979593;}.cls-8{fill:#e1dfdd;}.cls-9{fill:none;stroke:#8a8886;stroke-linecap:round;stroke-miterlimit:10;stroke-width:1.59px;}.cls-10{fill:#e3646a;}.cls-11{fill:#bdbde6;}</style><linearGradient id="linear-gradient" x1="111.69" y1="147.63" x2="111.69" y2="101.3" gradientUnits="userSpaceOnUse"><stop offset="0" stop-color="#a6a7dc"/><stop offset="0.57" stop-color="#b7b7e3"/><stop offset="1" stop-color="#bdbde6"/></linearGradient></defs><title>error-need-invite-bird</title><g id="Layer_6" data-name="Layer 6"><path class="cls-1" d="M116,83.36V197.82c-.44,0-.8.09-1.24.09h-.79a5.67,5.67,0,0,0-1.23.09h-7.4c-.79,0-1.67-.09-2.46-.09V83.36Z"/><path class="cls-2" d="M121.41,83.36v114a1.88,1.88,0,0,0-.7.09c-.44.09-.88.09-1.32.18-.62.09-1.23.09-1.76.17H116c-.44,0-.8.09-1.24.09h-.79a5.67,5.67,0,0,0-1.23.09h-4.32V83.36Z"/><path class="cls-3" d="M40.6,129.44V79.62A34.89,34.89,0,0,1,75.49,44.73h72.39a34.89,34.89,0,0,1,34.89,34.89v49.82Z"/><path class="cls-4" d="M74.31,44.73c-18.55,0-33.6,16-33.6,35.64v54.21h67.21V80.37C107.92,60.7,92.87,44.73,74.31,44.73Z"/><path class="cls-5" d="M74.31,44.73c-18.55,0-33.6,16-33.6,35.64v54.21h67.21V80.37C107.92,60.7,92.87,44.73,74.31,44.73Z"/><path class="cls-4" d="M74.31,52.72A26.71,26.71,0,0,1,101,79.43v56.9H47.6V79.43A26.71,26.71,0,0,1,74.31,52.72Zm0-8a33.61,33.61,0,0,0-33.6,33.6v58h67.21v-58a33.61,33.61,0,0,0-33.61-33.6Z"/><polygon class="cls-6" points="151.21 120.77 144.32 111.97 151.21 103.06 151.21 102.64 128.42 102.64 128.42 121.19 151.21 121.19 151.21 120.77"/><path class="cls-7" d="M127.27,74h0a3.57,3.57,0,0,1,3.6,3.61v45.69a3.57,3.57,0,0,1-3.6,3.6h0a3.57,3.57,0,0,1-3.61-3.6V77.62A3.58,3.58,0,0,1,127.27,74Z"/><circle class="cls-8" cx="127.27" cy="78.36" r="8.69"/><path class="cls-9" d="M71.89,44.67s-2.69-.7-4.18,1.11-.38,4.55-.38,4.55"/><path class="cls-9" d="M70.48,44.67s-2.69-.7-4.18,1.11-.38,4.55-.38,4.55"/><path class="cls-9" d="M69.08,44.67s-2.7-.7-4.19,1.11-.38,4.55-.38,4.55"/><path class="cls-9" d="M77.49,44.67s-2.69-.7-4.18,1.11-.38,4.55-.38,4.55"/><path class="cls-9" d="M76.08,44.67s-2.69-.7-4.18,1.11-.38,4.55-.38,4.55"/><line class="cls-9" x1="72.76" y1="45.05" x2="68" y2="38.06"/><path class="cls-9" d="M74.68,44.67S72,44,70.49,45.78s-.38,4.55-.38,4.55"/><polygon class="cls-10" points="51.99 56.23 54.27 61.77 48.29 61.77 51.99 56.23"/><path class="cls-6" d="M62.6,13.23,37.9,43.62c-4.67,5.08-5.34,10.15-3.68,14,2.15,5,7.94,6.54,12.6,4.87a8.13,8.13,0,0,0,5.11-9.33c.91-.26,9.55-1.62,15.51-8.42C77.49,33.26,62.6,13.23,62.6,13.23Z"/><ellipse cx="45.73" cy="55.7" rx="2.18" ry="1.2" transform="translate(-26.05 62.08) rotate(-55.69)"/><polygon class="cls-6" points="70.96 1.94 82.65 1.94 66.22 21.71 62.6 13.23 70.96 1.94"/><path class="cls-10" d="M67.44,38.57c-.69,4-4.26,9.75-11.65,8.23C52,46,47.13,39.93,53.14,32.55c2-2.56,11-13.86,11-13.86S68.85,30.33,67.44,38.57Z"/><rect class="cls-11" x="1" y="129.44" width="197.94" height="13.91" rx="6.95"/></g></svg>