<svg width="20" height="20" viewBox="0 0 20 20" fill="none" xmlns="http://www.w3.org/2000/svg">
<path d="M13.2452 2.81755C14.332 1.73074 16.0941 1.73074 17.1809 2.81755C18.2224 3.85907 18.2658 5.52075 17.3111 6.61395L17.1809 6.75322L7.57506 16.359C7.36997 16.5641 7.12323 16.7217 6.85236 16.8215L6.68708 16.8744L2.63211 17.9803C2.28552 18.0748 1.96546 17.7862 2.00301 17.4457L2.01817 17.3663L3.12407 13.3113C3.20039 13.0315 3.33646 12.7723 3.52212 12.5513L3.63939 12.4234L13.2452 2.81755ZM12.385 5.09244L4.34649 13.1305C4.2542 13.2228 4.18117 13.3319 4.13111 13.4516L4.08884 13.5745L3.2122 16.7852L6.42397 15.9096C6.50791 15.8867 6.58815 15.853 6.66278 15.8097L6.77028 15.7377L6.86796 15.6519L14.906 7.61344L12.385 5.09244ZM16.4738 3.52465C15.8162 2.86705 14.7727 2.83052 14.0722 3.41505L13.9523 3.52465L13.092 4.38544L15.613 6.90644L16.4738 6.04612C17.1314 5.38852 17.1679 4.34503 16.5834 3.64456L16.4738 3.52465Z" fill="#616161"/>
</svg>
