<svg width="20" height="20" viewBox="0 0 20 20" fill="none" xmlns="http://www.w3.org/2000/svg">
<path d="M15.4135 4.71063L14.8512 5.50073L15.8209 5.50054L18.6111 5.5C18.6111 5.5 18.6112 5.5 18.6112 5.5C19.1529 5.50004 19.5 5.88405 19.5 6.25V9.75C19.5 10.0728 19.2377 10.4027 18.7997 10.483L18.39 10.5582L18.3899 10.9747L18.3889 16.7499V16.75C18.3889 18.1689 17.1421 19.4078 15.4636 19.4952L15.2715 19.5H4.72222C3.01906 19.5 1.70769 18.3107 1.61634 16.9108L1.61111 16.7423L1.61117 10.975L1.61117 10.5581L1.20101 10.4831C0.762589 10.4031 0.5 10.073 0.5 9.75V6.25C0.5 5.88406 0.847072 5.50005 1.38879 5.5C1.38882 5.5 1.38886 5.5 1.38889 5.5L4.17908 5.50054L5.14884 5.50073L4.58654 4.71063C4.28321 4.2844 4.11111 3.78393 4.11111 3.25C4.11111 1.77947 5.45315 0.5 7.22222 0.5C8.20368 0.5 9.06806 0.901062 9.63332 1.51314L10.001 1.91127L10.3683 1.51278C10.9321 0.901115 11.7962 0.5 12.7778 0.5C14.5469 0.5 15.8889 1.77947 15.8889 3.25C15.8889 3.78393 15.7168 4.2844 15.4135 4.71063ZM9.66667 10.999V10.499H9.16667H2.77778H2.27778V10.999V16.75C2.27778 17.9753 3.31322 18.9042 4.52632 18.9929L4.53544 18.9935L4.54457 18.9939L4.70405 18.9997L4.71313 19H4.72222H9.16667H9.66667V18.5V10.999ZM17.7222 10.999V10.499H17.2222H10.8333H10.3333V10.999V18.5V19H10.8333H15.2778C16.5147 19 17.6058 18.1353 17.7138 16.9384L17.7148 16.9272L17.7153 16.916L17.7217 16.7724L17.7222 16.7612V16.75V10.999ZM9.66667 6H9.16667H1.66667H1.16667V6.5V9.5V10.0001L1.66673 10L9.16673 9.999L9.66667 9.99893V9.499V6.5V6ZM18.3333 10L18.8333 10.0001V9.5V6.5V6H18.3333H10.8333H10.3333V6.5V9.499V9.99893L10.8333 9.999L18.3333 10ZM10.3333 4.999V5.499H10.8333H12.8044H12.8135L12.8225 5.49867L12.9553 5.49387L12.9645 5.49354L12.9737 5.49287C14.1868 5.40424 15.2222 4.47527 15.2222 3.25C15.2222 1.95911 14.077 1 12.7778 1C11.4786 1 10.3333 1.95911 10.3333 3.25V4.999ZM7.02632 5.49287L7.03549 5.49354L7.04468 5.49387L7.17749 5.49867L7.18652 5.499H7.19556H9.16667H9.66667V4.999V3.25V3.23878L9.66616 3.22757L9.65972 3.08404L9.65921 3.07278L9.6582 3.06156C9.55025 1.8647 8.45915 1 7.22222 1C5.92305 1 4.77778 1.95911 4.77778 3.25C4.77778 4.47527 5.81322 5.40424 7.02632 5.49287Z" fill="#242424" stroke="#242424"/>
</svg>
