<svg width="450" height="450" viewBox="0 0 450 450" fill="none" xmlns="http://www.w3.org/2000/svg">
<rect x="0.5" y="0.5" width="449" height="449" rx="2.5" fill="#FFE4EC" stroke="#FAF9F8"/>
<path d="M214.452 193.42L214.466 354.799L140.798 354.808C116.479 354.808 96.6061 335.778 95.2645 311.798L95.1923 309.21V193.42H214.452ZM235.5 277.603H354.788L354.799 309.21C354.796 334.392 334.379 354.808 309.193 354.808L235.514 354.799L235.5 277.603ZM309.202 95.1924C333.521 95.1924 353.394 114.223 354.736 138.203L354.808 140.79L354.788 256.557H235.5L235.514 95.1924H309.202ZM214.466 95.1924L214.452 172.374H95.1923L95.2007 140.791C95.2037 115.608 115.621 95.1924 140.806 95.1924H214.466Z" fill="#8B2A4A"/>
</svg>
