<svg width="20" height="20" viewBox="0 0 20 20" fill="none" xmlns="http://www.w3.org/2000/svg">
<path d="M4.04873 5.98404C4.19566 5.59676 4.62872 5.40192 5.016 5.54885L9.99996 7.43974L14.9839 5.54885C15.3712 5.40192 15.8043 5.59676 15.9512 5.98404C16.0981 6.37132 15.9033 6.80438 15.516 6.95131L10.75 8.7595V14.2501C10.75 14.6643 10.4142 15.0001 10 15.0001C9.58579 15.0001 9.25 14.6643 9.25 14.2501V8.75953L4.48392 6.95131C4.09664 6.80438 3.9018 6.37132 4.04873 5.98404ZM8.59111 0.512032C9.49466 0.145729 10.5053 0.145729 11.4089 0.512032L18.9075 3.552C19.5679 3.81973 20 4.46118 20 5.1738V14.8265C20 15.5391 19.5679 16.1806 18.9075 16.4483L11.4089 19.4883C10.5053 19.8546 9.49466 19.8546 8.59111 19.4883L1.09252 16.4483C0.432107 16.1806 0 15.5391 0 14.8265V5.1738C0 4.46118 0.432107 3.81973 1.09252 3.552L8.59111 0.512032ZM10.8453 1.90214C10.3032 1.68236 9.69679 1.68236 9.15466 1.90214L1.65607 4.94211C1.56173 4.98036 1.5 5.07199 1.5 5.1738V14.8265C1.5 14.9283 1.56173 15.0199 1.65607 15.0582L9.15466 18.0982C9.69679 18.3179 10.3032 18.3179 10.8453 18.0982L18.3439 15.0582C18.4383 15.0199 18.5 14.9283 18.5 14.8265V5.1738C18.5 5.07199 18.4383 4.98036 18.3439 4.94211L10.8453 1.90214Z" fill="#242424"/>
</svg>
