<svg width="20" height="22" viewBox="0 0 20 22" fill="none" xmlns="http://www.w3.org/2000/svg">
<path d="M9.99594 18.0103C10.3756 18.0103 10.6894 18.2924 10.7391 18.6585L10.7459 18.7603V20.2603C10.7459 20.6745 10.4102 21.0103 9.99594 21.0103C9.61625 21.0103 9.30245 20.7281 9.25279 20.362L9.24594 20.2603V18.7603C9.24594 18.3461 9.58173 18.0103 9.99594 18.0103ZM16.0176 15.9375L17.0783 16.9981C17.3712 17.291 17.3712 17.7659 17.0783 18.0588C16.7854 18.3517 16.3105 18.3517 16.0176 18.0588L14.957 16.9981C14.6641 16.7052 14.6641 16.2304 14.957 15.9375C15.2499 15.6446 15.7247 15.6446 16.0176 15.9375ZM5.03441 15.9375C5.3273 16.2304 5.3273 16.7052 5.03441 16.9981L3.97375 18.0588C3.68086 18.3517 3.20598 18.3517 2.91309 18.0588C2.6202 17.7659 2.6202 17.291 2.91309 16.9981L3.97375 15.9375C4.26664 15.6446 4.74152 15.6446 5.03441 15.9375ZM9.99975 5.47477C13.0511 5.47477 15.5248 7.94839 15.5248 10.9998C15.5248 14.0511 13.0511 16.5248 9.99975 16.5248C6.94838 16.5248 4.47475 14.0511 4.47475 10.9998C4.47475 7.94839 6.94838 5.47477 9.99975 5.47477ZM9.99975 6.97477C7.77681 6.97477 5.97475 8.77682 5.97475 10.9998C5.97475 13.2227 7.77681 15.0248 9.99975 15.0248C12.2227 15.0248 14.0248 13.2227 14.0248 10.9998C14.0248 8.77682 12.2227 6.97477 9.99975 6.97477ZM19.2495 10.2681C19.6637 10.2681 19.9995 10.6039 19.9995 11.0181C19.9995 11.3978 19.7174 11.7116 19.3513 11.7612L19.2495 11.7681H17.7495C17.3353 11.7681 16.9995 11.4323 16.9995 11.0181C16.9995 10.6384 17.2817 10.3246 17.6477 10.2749L17.7495 10.2681H19.2495ZM2.25 10.2393C2.66421 10.2393 3 10.575 3 10.9893C3 11.369 2.71785 11.6827 2.35177 11.7324L2.25 11.7393H0.75C0.335786 11.7393 0 11.4035 0 10.9893C0 10.6096 0.282154 10.2958 0.648229 10.2461L0.75 10.2393H2.25ZM3.88963 3.86814L3.97375 3.94075L5.03441 5.00141C5.3273 5.29431 5.3273 5.76918 5.03441 6.06207C4.76814 6.32834 4.35148 6.35255 4.05787 6.13469L3.97375 6.06207L2.91309 5.00141C2.6202 4.70852 2.6202 4.23365 2.91309 3.94075C3.17936 3.67449 3.59602 3.65028 3.88963 3.86814ZM17.0783 3.94075C17.3446 4.20702 17.3688 4.62368 17.1509 4.9173L17.0783 5.00141L16.0176 6.06207C15.7247 6.35497 15.2499 6.35497 14.957 6.06207C14.6907 5.79581 14.6665 5.37914 14.8844 5.08553L14.957 5.00141L16.0176 3.94075C16.3105 3.64786 16.7854 3.64786 17.0783 3.94075ZM10 0.989258C10.3797 0.989258 10.6935 1.27141 10.7432 1.63749L10.75 1.73926V3.23926C10.75 3.65347 10.4142 3.98926 10 3.98926C9.6203 3.98926 9.30651 3.7071 9.25685 3.34103L9.25 3.23926V1.73926C9.25 1.32504 9.58579 0.989258 10 0.989258Z" fill="#242424"/>
</svg>
