<svg width="23" height="24" viewBox="0 0 23 24" fill="none" xmlns="http://www.w3.org/2000/svg">
<path d="M22.5 6.5V9.5H21V20.75C21 21.0156 20.9844 21.2852 20.9531 21.5586C20.9297 21.8242 20.8672 22.0664 20.7656 22.2852C20.6719 22.4961 20.5234 22.668 20.3203 22.8008C20.125 22.9336 19.8516 23 19.5 23C19.3047 23 19.0938 23.0039 18.8672 23.0117C18.6484 23.0195 18.4258 23.0156 18.1992 23C17.9805 22.9844 17.7656 22.9531 17.5547 22.9062C17.3516 22.8516 17.1719 22.7695 17.0156 22.6602C16.8594 22.5508 16.7344 22.4023 16.6406 22.2148C16.5469 22.0273 16.5 21.7891 16.5 21.5H6C6 21.7109 5.96094 21.9062 5.88281 22.0859C5.80469 22.2656 5.69531 22.4258 5.55469 22.5664C5.42188 22.6992 5.26562 22.8047 5.08594 22.8828C4.90625 22.9609 4.71094 23 4.5 23C3.96094 23 3.5 22.9961 3.11719 22.9883C2.73438 22.9805 2.42188 22.9141 2.17969 22.7891C1.94531 22.6562 1.77344 22.4375 1.66406 22.1328C1.55469 21.8203 1.5 21.3594 1.5 20.75V9.5H0V6.5H1.5V2.75C1.5 2.4375 1.55859 2.14453 1.67578 1.87109C1.79297 1.59766 1.95312 1.35937 2.15625 1.15625C2.35938 0.953125 2.59766 0.792969 2.87109 0.675781C3.14453 0.558594 3.4375 0.5 3.75 0.5H18.75C19.0625 0.5 19.3555 0.558594 19.6289 0.675781C19.9023 0.792969 20.1406 0.953125 20.3438 1.15625C20.5469 1.35937 20.707 1.59766 20.8242 1.87109C20.9414 2.14453 21 2.4375 21 2.75V6.5H22.5ZM19.5 14H3V17H4.5C4.5 16.8594 4.49609 16.7031 4.48828 16.5312C4.48828 16.3516 4.50781 16.1875 4.54688 16.0391C4.58594 15.8828 4.65625 15.7539 4.75781 15.6523C4.86719 15.5508 5.03125 15.5 5.25 15.5C5.46875 15.5 5.62891 15.5508 5.73047 15.6523C5.83984 15.7539 5.91406 15.8828 5.95312 16.0391C5.99219 16.1875 6.00781 16.3516 6 16.5312C6 16.7031 6 16.8594 6 17H16.5C16.5 16.8594 16.4961 16.7031 16.4883 16.5312C16.4883 16.3516 16.5078 16.1875 16.5469 16.0391C16.5859 15.8828 16.6562 15.7539 16.7578 15.6523C16.8672 15.5508 17.0312 15.5 17.25 15.5C17.4688 15.5 17.6289 15.5508 17.7305 15.6523C17.8398 15.7539 17.9141 15.8828 17.9531 16.0391C17.9922 16.1875 18.0078 16.3516 18 16.5312C18 16.7031 18 16.8594 18 17H19.5V14ZM10.5 12.5V6.5H3V12.5H10.5ZM19.5 6.5H12V12.5H19.5V6.5ZM3.75 2C3.54688 2 3.37109 2.07422 3.22266 2.22266C3.07422 2.37109 3 2.54688 3 2.75V5H19.5V2.75C19.5 2.54688 19.4258 2.37109 19.2773 2.22266C19.1289 2.07422 18.9531 2 18.75 2H3.75ZM19.5 20V18.5H3V20H19.5Z" fill="#242424"/>
</svg>
