<svg width="18" height="18" viewBox="0 0 18 18" fill="none" xmlns="http://www.w3.org/2000/svg">
<path d="M3.25 1.5C2.2835 1.5 1.5 2.2835 1.5 3.25V4.75C1.5 5.16421 1.16421 5.5 0.75 5.5C0.335787 5.5 0 5.16421 0 4.75V3.25C0 1.45507 1.45507 0 3.25 0H4.75C5.16421 0 5.5 0.335787 5.5 0.75C5.5 1.16421 5.16421 1.5 4.75 1.5H3.25ZM4.95001 7.25C4.95001 6.00736 5.95737 5 7.20001 5H10.7C11.9427 5 12.95 6.00736 12.95 7.25V10.75C12.95 11.9926 11.9427 13 10.7 13H7.20001C5.95737 13 4.95001 11.9926 4.95001 10.75V7.25ZM7.20001 6.5C6.7858 6.5 6.45001 6.83579 6.45001 7.25V10.75C6.45001 11.1642 6.7858 11.5 7.20001 11.5H10.7C11.1142 11.5 11.45 11.1642 11.45 10.75V7.25C11.45 6.83579 11.1142 6.5 10.7 6.5H7.20001ZM14.75 1.5C15.7165 1.5 16.5 2.2835 16.5 3.25V4.75C16.5 5.16421 16.8358 5.5 17.25 5.5C17.6642 5.5 18 5.16421 18 4.75V3.25C18 1.45507 16.5449 0 14.75 0H13.25C12.8358 0 12.5 0.335786 12.5 0.75C12.5 1.16421 12.8358 1.5 13.25 1.5L14.75 1.5ZM14.75 16.5C15.7165 16.5 16.5 15.7165 16.5 14.75V13.25C16.5 12.8358 16.8358 12.5 17.25 12.5C17.6642 12.5 18 12.8358 18 13.25V14.75C18 16.5449 16.5449 18 14.75 18H13.25C12.8358 18 12.5 17.6642 12.5 17.25C12.5 16.8358 12.8358 16.5 13.25 16.5H14.75ZM3.25 16.5C2.2835 16.5 1.5 15.7165 1.5 14.75L1.5 13.25C1.5 12.8358 1.16421 12.5 0.75 12.5C0.335786 12.5 0 12.8358 0 13.25V14.75C0 16.5449 1.45507 18 3.25 18H4.75C5.16421 18 5.5 17.6642 5.5 17.25C5.5 16.8358 5.16421 16.5 4.75 16.5H3.25Z" fill="#242424"/>
</svg>
