<svg width="21" height="20" viewBox="0 0 21 20" fill="none" xmlns="http://www.w3.org/2000/svg">
<path fill-rule="evenodd" clip-rule="evenodd" d="M11.0572 5.43077C12.0335 4.45446 13.6164 4.45446 14.5927 5.43077C15.569 6.40708 15.569 7.98999 14.5927 8.9663C13.6164 9.94261 12.0335 9.94261 11.0572 8.9663C10.0809 7.98999 10.0809 6.40708 11.0572 5.43077ZM13.532 6.49143C13.1415 6.1009 12.5084 6.1009 12.1178 6.49143C11.7273 6.88195 11.7273 7.51512 12.1178 7.90564C12.5084 8.29617 13.1415 8.29617 13.532 7.90564C13.9226 7.51512 13.9226 6.88195 13.532 6.49143Z" fill="#242424"/>
<path fill-rule="evenodd" clip-rule="evenodd" d="M19.5086 2.32216C19.2398 1.45736 18.5625 0.780318 17.6976 0.511895L17.0355 0.306428C14.642 -0.436399 12.034 0.208023 10.2618 1.98013L9.26597 2.97601C7.89622 1.94737 5.94316 2.05621 4.69685 3.30253L3.45432 4.54506C3.16142 4.83795 3.16142 5.31283 3.45432 5.60572L5.04529 7.19669L4.86548 7.3765C4.18206 8.05992 4.18206 9.16796 4.86548 9.85138L5.36083 10.3467L3.96527 11.1427C3.76212 11.2585 3.62465 11.4625 3.59352 11.6943C3.56238 11.9261 3.64115 12.1591 3.80651 12.3245L7.69562 16.2136C7.86086 16.3788 8.0937 16.4576 8.32533 16.4267C8.55696 16.3957 8.76093 16.2585 8.87696 16.0557L9.67488 14.6608L10.1721 15.1579C10.8555 15.8414 11.9635 15.8414 12.6469 15.1579L12.8237 14.9812L14.4133 16.5708C14.7062 16.8636 15.1811 16.8636 15.474 16.5708L16.7165 15.3282C17.9623 14.0824 18.0716 12.1303 17.0442 10.7607L18.0421 9.76274C19.8149 7.98994 20.4591 5.38062 19.715 2.98647L19.5086 2.32216ZM17.253 1.94449C17.6461 2.0665 17.954 2.37425 18.0762 2.76734L18.2826 3.43165C18.8613 5.29377 18.3603 7.32324 16.9815 8.70208L11.5863 14.0973C11.4886 14.1949 11.3303 14.1949 11.2327 14.0973L5.92614 8.79072C5.82851 8.69308 5.82851 8.53479 5.92614 8.43716L11.3225 3.04079C12.7008 1.66249 14.7293 1.16127 16.5909 1.73902L17.253 1.94449ZM15.9641 11.8408L13.8844 13.9205L14.9436 14.9798L15.6558 14.2676C16.3139 13.6095 16.4166 12.6065 15.9641 11.8408ZM5.75751 4.36319C6.41602 3.70468 7.42005 3.60227 8.18602 4.05596L6.10595 6.13603L5.04531 5.07539L5.75751 4.36319ZM8.57562 13.5615L6.46047 11.4464L5.56209 11.9588L8.06227 14.4589L8.57562 13.5615Z" fill="#242424"/>
<path d="M4.68987 16.3942C4.98276 16.1013 4.98276 15.6264 4.68987 15.3335C4.39697 15.0406 3.9221 15.0406 3.62921 15.3335L1.15433 17.8084C0.86144 18.1013 0.86144 18.5762 1.15433 18.8691C1.44723 19.162 1.9221 19.162 2.21499 18.8691L4.68987 16.3942Z" fill="#242424"/>
<path d="M2.74529 13.389C3.03818 13.6819 3.03818 14.1568 2.74529 14.4497L1.68463 15.5103C1.39173 15.8032 0.91686 15.8032 0.623967 15.5103C0.331073 15.2174 0.331074 14.7425 0.623967 14.4497L1.68463 13.389C1.97752 13.0961 2.45239 13.0961 2.74529 13.389Z" fill="#242424"/>
<path d="M6.63238 18.3408C6.92528 18.0479 6.92528 17.5731 6.63239 17.2802C6.33951 16.9873 5.86463 16.9873 5.57173 17.2802L4.51313 18.3387C4.22023 18.6316 4.22023 19.1065 4.51312 19.3994C4.80601 19.6923 5.28088 19.6923 5.57378 19.3994L6.63238 18.3408Z" fill="#242424"/>
</svg>
