<svg width="22" height="22" viewBox="0 0 22 22" fill="none" xmlns="http://www.w3.org/2000/svg">
<path d="M20.8169 3.83472L18.1653 1.18311C17.9211 0.938964 17.5254 0.938964 17.2813 1.18311L16.3973 2.06711C16.1531 2.31126 16.1531 2.70697 16.3973 2.95111L13.4023 5.94609C11.5827 5.17655 9.40221 5.52694 7.91898 7.00979L1.73214 13.1966C0.755952 14.1728 0.755952 15.756 1.73214 16.7322L5.26776 20.2679C6.24395 21.244 7.82718 21.244 8.80337 20.2679L14.9906 14.0806C16.4734 12.5978 16.8238 10.4169 16.0543 8.59732L19.0493 5.60234C19.2934 5.84648 19.6891 5.84648 19.9333 5.60234L20.8173 4.71833C21.061 4.47458 21.061 4.07887 20.8169 3.83472ZM8.00062 17.535L4.46501 13.9994L9.23229 9.23209L12.7679 12.7677L8.00062 17.535Z" stroke="#242424" stroke-width="1.5"/>
</svg>
