<svg width="18" height="24" viewBox="0 0 18 24" fill="none" xmlns="http://www.w3.org/2000/svg">
<path d="M9 0C13.8818 0 17.8558 3.88681 17.9962 8.73464L18 9V14.2543C18 15.7168 16.8583 16.9127 15.4175 16.9993L15.25 17.0043H12.2539C11.8742 17.0043 11.5605 16.7222 11.5108 16.3561L11.5039 16.2543V10.25C11.5039 9.8703 11.7861 9.55651 12.1522 9.50685L12.2539 9.5H16.25C16.3353 9.5 16.4191 9.5061 16.5011 9.51788L16.5 9C16.5 4.85786 13.1421 1.5 9 1.5C4.93908 1.5 1.63198 4.72747 1.50385 8.75727L1.5 9V9.499L5.74606 9.5C6.12575 9.5 6.43955 9.78215 6.48921 10.1482L6.49606 10.25V16.2543C6.49606 16.634 6.2139 16.9478 5.84783 16.9975L5.74606 17.0043H2.75C2.29999 17.0043 1.87523 16.8962 1.50025 16.7046L1.5 18.25C1.5 19.4409 2.42516 20.4156 3.59595 20.4948L3.75 20.5L6.04144 20.5007C6.27939 19.0815 7.51362 18 9.00044 18C10.6575 18 12.0009 19.3433 12.0009 21.0004C12.0009 22.6575 10.6575 24.0009 9.00044 24.0009C7.69399 24.0009 6.58257 23.1659 6.1707 22.0005L3.75 22C1.74574 22 0.108726 20.4276 0.005198 18.4492L0 18.25V9C0 4.02944 4.02944 0 9 0ZM9.00044 19.5C8.17177 19.5 7.5 20.1718 7.5 21.0004C7.5 21.8291 8.17177 22.5009 9.00044 22.5009C9.82911 22.5009 10.5009 21.8291 10.5009 21.0004C10.5009 20.1718 9.82911 19.5 9.00044 19.5ZM4.996 11L1.5 10.999L1.50013 14.2725C1.50862 14.8685 1.9342 15.3635 2.49808 15.4789L2.62219 15.4979L2.75 15.5043L4.996 15.504V11ZM16.25 11H13.003V15.504L15.25 15.5043C15.8972 15.5043 16.4295 15.0124 16.4935 14.3821L16.5 14.2543V11.25C16.5 11.1317 16.4178 11.0325 16.3073 11.0066L16.25 11Z" fill="#242424"/>
</svg>
