<svg width="18" height="20" viewBox="0 0 18 20" fill="none" xmlns="http://www.w3.org/2000/svg">
<path d="M10.9951 9C10.9951 9.83738 10.4804 10.5545 9.75001 10.8523L9.75001 13.25C9.75001 13.6642 9.41423 14 9.00001 14C8.5858 14 8.25001 13.6642 8.25001 13.25L8.25001 10.8559C7.51496 10.5603 6.99603 9.84077 6.99603 9C6.99603 7.89568 7.89126 7.00046 8.99557 7.00046C10.0999 7.00046 10.9951 7.89568 10.9951 9ZM0.75 3C0.335786 3 0 3.33579 0 3.75V9C0 14.0012 2.95756 17.6757 8.72511 19.9478C8.90176 20.0174 9.09824 20.0174 9.27489 19.9478C15.0424 17.6757 18 14.0012 18 9V3.75C18 3.33579 17.6642 3 17.25 3C14.5866 3 11.992 2.05652 9.45 0.15C9.18333 -0.05 8.81667 -0.05 8.55 0.15C6.00797 2.05652 3.41341 3 0.75 3ZM1.5 9V4.47793C4.07735 4.32585 6.58084 3.38829 9 1.67782C11.4192 3.38829 13.9227 4.32585 16.5 4.47793V9C16.5 13.2556 14.0466 16.3789 9 18.4419C3.95337 16.3789 1.5 13.2556 1.5 9Z" fill="#242424"/>
</svg>
