<svg width="22" height="20" viewBox="0 0 22 20" fill="none" xmlns="http://www.w3.org/2000/svg">
<path d="M8.46958 7.64329L7.76935 1.76852L7.76748 1.69493C7.76748 0.806307 8.48785 0.0859375 9.37647 0.0859375C10.1793 0.0859375 10.9222 0.505599 11.3548 1.22035L11.4412 1.38102L14.386 7.47005L18.3432 7.35423C19.7768 7.31213 20.9732 8.44018 21.0155 9.88482L21.0164 9.95005C21.0164 11.3844 19.8536 12.5472 18.3973 12.5469L14.4331 12.4308L11.4412 18.6191C11.0583 19.4111 10.2562 19.9142 9.37647 19.9142C8.48785 19.9142 7.76748 19.1939 7.76782 18.2829L7.77432 18.1649L8.4812 12.2567L6.34912 12.1944L6.08021 12.9301C5.7997 13.6974 5.06973 14.2078 4.25274 14.2078C3.37681 14.2078 2.66673 13.4977 2.66673 12.6214L2.66709 11.8618L2.51204 11.8295C1.62205 11.6438 0.984375 10.8592 0.984375 9.95005C0.984375 9.04075 1.62252 8.25628 2.51259 8.07122L2.66709 8.03906L2.66673 7.27836C2.66673 6.47633 3.26485 5.80351 4.10138 5.7003L4.25274 5.69234C4.99768 5.69234 5.67561 6.11751 6.01721 6.81938L6.08003 6.96952L6.34966 7.70542L8.46958 7.64329ZM9.37647 1.58594C9.31628 1.58594 9.26748 1.63473 9.26715 1.67256L10.1535 9.09457L5.3131 9.23645L4.68568 7.52118L4.65314 7.44211C4.57877 7.28982 4.42335 7.19234 4.29924 7.1909L4.24101 7.19305C4.19941 7.19826 4.16673 7.23502 4.16673 7.278L4.16767 9.25882L2.81813 9.53977C2.62372 9.58019 2.48438 9.75149 2.48438 9.95005C2.48438 10.1489 2.62387 10.3206 2.81815 10.3611L4.16767 10.642L4.16673 12.6217C4.16673 12.6693 4.20524 12.7078 4.25274 12.7078C4.43991 12.7078 4.60714 12.5908 4.67139 12.4151L5.31164 10.6635L10.1656 10.8052L9.26868 18.2764L9.26748 18.3053C9.26748 18.3655 9.31628 18.4142 9.37647 18.4142C9.6808 18.4142 9.9583 18.2402 10.0908 17.9662L13.5056 10.903L18.4192 11.0472C19.0252 11.0472 19.5165 10.556 19.5165 9.96106L19.5159 9.91785C19.4981 9.31229 18.9928 8.8358 18.3872 8.85359L13.4587 8.99783L10.107 2.06567L10.0546 1.96747C9.91125 1.73117 9.65415 1.58594 9.37647 1.58594Z" fill="#242424"/>
</svg>
