<svg width="20" height="20" viewBox="0 0 20 20" fill="none" xmlns="http://www.w3.org/2000/svg">
<path fill-rule="evenodd" clip-rule="evenodd" d="M0.924193 2.12856C0.988718 0.934849 1.97546 0 3.17091 0H4.3287C5.52415 0 6.51089 0.934847 6.57542 2.12856L7.41325 17.6286C7.4829 18.917 6.4569 20 5.16653 20H2.33308C1.04272 20 0.0167079 18.917 0.0863555 17.6286L0.924193 2.12856ZM3.17091 1.5C2.77243 1.5 2.44352 1.81162 2.42201 2.20952L1.58417 17.7095C1.56095 18.139 1.90296 18.5 2.33308 18.5H5.16653C5.59665 18.5 5.93866 18.139 5.91544 17.7095L5.0776 2.20952C5.05609 1.81162 4.72718 1.5 4.3287 1.5H3.17091Z" fill="#242424"/>
<path fill-rule="evenodd" clip-rule="evenodd" d="M7.5116 20H17.7497C18.9924 20 19.9997 18.9927 19.9997 17.75V4.00002C19.9997 3.69946 19.8203 3.42792 19.5438 3.31007C19.2673 3.19223 18.9471 3.25083 18.7303 3.45898L13.7497 8.24036V4.00002C13.7497 3.70947 13.5819 3.44506 13.319 3.32137C13.0561 3.19768 12.7454 3.23698 12.5215 3.42222L7.85541 7.28385L7.95615 9.14753L12.2497 5.59424V10C12.2497 10.3006 12.4292 10.5721 12.7057 10.69C12.9822 10.8078 13.3023 10.7492 13.5191 10.5411L18.4997 5.75968V17.75C18.4997 18.1642 18.1639 18.5 17.7497 18.5H16.7498V14C16.7498 13.0335 15.9663 12.25 14.9998 12.25H10.9998C10.0333 12.25 9.24975 13.0335 9.24975 14L9.24976 18.5H8.32973C8.1944 19.0724 7.90699 19.5879 7.5116 20ZM15.2498 14V18.25H10.7498L10.7498 14C10.7498 13.8619 10.8617 13.75 10.9998 13.75H14.9998C15.1378 13.75 15.2498 13.8619 15.2498 14Z" fill="#242424"/>
</svg>
