<svg width="26" height="21" viewBox="0 0 26 21" fill="none" xmlns="http://www.w3.org/2000/svg">
<path d="M7.00024 3.24707V4.9953H3.24805C2.00541 4.9953 0.998047 6.00266 0.998047 7.2453V18.7453C0.998047 19.9879 2.00541 20.9953 3.24805 20.9953H22.7516C23.9942 20.9953 25.0016 19.9879 25.0016 18.7453V7.2453C25.0016 6.00266 23.9942 4.9953 22.7516 4.9953H19.0016V3.24707C19.0016 2.00443 17.9942 0.99707 16.7516 0.99707H9.25024C8.0076 0.99707 7.00024 2.00443 7.00024 3.24707ZM9.25024 2.49707H16.7516C17.1658 2.49707 17.5016 2.83286 17.5016 3.24707V4.9953H8.50024V3.24707C8.50024 2.83286 8.83603 2.49707 9.25024 2.49707ZM3.24805 6.4953H22.7516C23.1658 6.4953 23.5016 6.83109 23.5016 7.2453V10.9996H19.5042V9.74957C19.5042 9.33536 19.1684 8.99957 18.7542 8.99957C18.3399 8.99957 18.0042 9.33536 18.0042 9.74957V10.9996H8.00415V9.74957C8.00415 9.33536 7.66836 8.99957 7.25415 8.99957C6.83994 8.99957 6.50415 9.33536 6.50415 9.74957V10.9996H2.49805V7.2453C2.49805 6.83109 2.83383 6.4953 3.24805 6.4953ZM18.0042 12.4996V13.7496C18.0042 14.1638 18.3399 14.4996 18.7542 14.4996C19.1684 14.4996 19.5042 14.1638 19.5042 13.7496V12.4996H23.5016V18.7453C23.5016 19.1595 23.1658 19.4953 22.7516 19.4953H3.24805C2.83383 19.4953 2.49805 19.1595 2.49805 18.7453V12.4996H6.50415V13.7496C6.50415 14.1638 6.83994 14.4996 7.25415 14.4996C7.66836 14.4996 8.00415 14.1638 8.00415 13.7496V12.4996H18.0042Z" fill="#242424"/>
</svg>
