<svg width="22" height="21" viewBox="0 0 22 21" fill="none" xmlns="http://www.w3.org/2000/svg">
<path d="M10.9996 -0.000976562C16.5233 -0.000976562 21.0011 4.47687 21.0011 10.0006C21.0011 15.5243 16.5233 20.0021 10.9996 20.0021C5.47589 20.0021 0.998047 15.5243 0.998047 10.0006C0.998047 4.47687 5.47589 -0.000976562 10.9996 -0.000976562ZM13.9385 14.5003H8.06069C8.71273 16.9144 9.84609 18.5021 10.9996 18.5021C12.1531 18.5021 13.2865 16.9144 13.9385 14.5003ZM6.50791 14.5009L3.78542 14.5007C4.74376 16.0338 6.17721 17.2394 7.87959 17.9114C7.35731 17.0915 6.92632 16.0653 6.60932 14.8959L6.50791 14.5009ZM18.2138 14.5007L15.4913 14.5009C15.1675 15.8346 14.6999 17.0004 14.1185 17.9114C15.7155 17.2814 17.0752 16.1824 18.0286 14.7843L18.2138 14.5007ZM6.09302 7.99992H2.73542L2.73066 8.01713C2.57858 8.65348 2.49805 9.31763 2.49805 10.0006C2.49805 11.0567 2.69064 12.0679 3.04261 13.0009L6.21577 13.0005C6.07347 12.0514 5.99805 11.0432 5.99805 10.0006C5.99805 9.31656 6.03051 8.64736 6.09302 7.99992ZM14.3965 7.99999H7.60267C7.53465 8.64025 7.49805 9.30997 7.49805 10.0006C7.49805 11.0601 7.58419 12.0704 7.73778 13.0007H14.2614C14.415 12.0704 14.5011 11.0601 14.5011 10.0006C14.5011 9.30997 14.4645 8.64025 14.3965 7.99999ZM19.2642 7.99909L15.9062 7.99994C15.9687 8.64736 16.0011 9.31656 16.0011 10.0006C16.0011 11.0432 15.9257 12.0514 15.7834 13.0005L18.9566 13.0009C19.3086 12.0679 19.5011 11.0567 19.5011 10.0006C19.5011 9.31117 19.4191 8.64093 19.2642 7.99909ZM7.88065 2.08973L7.85774 2.09844C5.81043 2.91315 4.15441 4.50046 3.24975 6.50033L6.29787 6.50069C6.61122 4.7479 7.15807 3.22198 7.88065 2.08973ZM10.9996 1.49902L10.8839 1.50432C9.6185 1.62008 8.39603 3.62205 7.82831 6.50027H14.1709C13.6048 3.63011 12.3875 1.63131 11.1259 1.50534L10.9996 1.49902ZM14.1196 2.08979L14.2264 2.26388C14.8957 3.37635 15.4038 4.83623 15.7013 6.50069L18.7494 6.50033C17.8848 4.58892 16.3338 3.05439 14.4108 2.21106L14.1196 2.08979Z" fill="#242424"/>
</svg>
