<svg width="18" height="14" viewBox="0 0 18 14" fill="none" xmlns="http://www.w3.org/2000/svg">
<path d="M18 1C18 0.447715 17.5523 0 17 0H8C7.44771 0 7 0.447715 7 1C7 1.55228 7.44772 2 8 2H17C17.5523 2 18 1.55228 18 1Z" fill="#242424"/>
<path d="M5 1C5 0.447715 4.55228 0 4 0H1C0.447715 0 0 0.447715 0 1C0 1.55228 0.447715 2 1 2H4C4.55228 2 5 1.55228 5 1Z" fill="#242424"/>
<path d="M18 5C18 4.44772 17.5523 4 17 4H8C7.44771 4 7 4.44772 7 5C7 5.55228 7.44772 6 8 6H17C17.5523 6 18 5.55228 18 5Z" fill="#242424"/>
<path d="M5 5C5 4.44772 4.55228 4 4 4H1C0.447715 4 0 4.44772 0 5C0 5.55228 0.447715 6 1 6H4C4.55228 6 5 5.55228 5 5Z" fill="#242424"/>
<path d="M18 9C18 8.44772 17.5523 8 17 8H8C7.44771 8 7 8.44772 7 9C7 9.55228 7.44772 10 8 10H17C17.5523 10 18 9.55228 18 9Z" fill="#242424"/>
<path d="M5 9C5 8.44772 4.55228 8 4 8H1C0.447715 8 0 8.44772 0 9C0 9.55228 0.447715 10 1 10H4C4.55228 10 5 9.55228 5 9Z" fill="#242424"/>
<path d="M18 13C18 12.4477 17.5523 12 17 12H8C7.44771 12 7 12.4477 7 13C7 13.5523 7.44772 14 8 14H17C17.5523 14 18 13.5523 18 13Z" fill="#242424"/>
<path d="M5 13C5 12.4477 4.55228 12 4 12H1C0.447715 12 0 12.4477 0 13C0 13.5523 0.447715 14 1 14H4C4.55228 14 5 13.5523 5 13Z" fill="#242424"/>
</svg>
