<svg width="24" height="23" viewBox="0 0 24 23" fill="none" xmlns="http://www.w3.org/2000/svg">
<path d="M4.5 12.5C4.71094 12.5 4.90625 12.5391 5.08594 12.6172C5.26562 12.6953 5.42188 12.8047 5.55469 12.9453C5.69531 13.0781 5.80469 13.2344 5.88281 13.4141C5.96094 13.5938 6 13.7891 6 14C6 14.2109 5.96094 14.4062 5.88281 14.5859C5.80469 14.7656 5.69531 14.9258 5.55469 15.0664C5.42188 15.1992 5.26562 15.3047 5.08594 15.3828C4.90625 15.4609 4.71094 15.5 4.5 15.5C4.28906 15.5 4.09375 15.4609 3.91406 15.3828C3.73438 15.3047 3.57422 15.1992 3.43359 15.0664C3.30078 14.9258 3.19531 14.7656 3.11719 14.5859C3.03906 14.4062 3 14.2109 3 14C3 13.7891 3.03906 13.5938 3.11719 13.4141C3.19531 13.2344 3.30078 13.0781 3.43359 12.9453C3.57422 12.8047 3.73438 12.6953 3.91406 12.6172C4.09375 12.5391 4.28906 12.5 4.5 12.5ZM19.5 12.5C19.7109 12.5 19.9062 12.5391 20.0859 12.6172C20.2656 12.6953 20.4219 12.8047 20.5547 12.9453C20.6953 13.0781 20.8047 13.2344 20.8828 13.4141C20.9609 13.5938 21 13.7891 21 14C21 14.2109 20.9609 14.4062 20.8828 14.5859C20.8047 14.7656 20.6953 14.9258 20.5547 15.0664C20.4219 15.1992 20.2656 15.3047 20.0859 15.3828C19.9062 15.4609 19.7109 15.5 19.5 15.5C19.2891 15.5 19.0938 15.4609 18.9141 15.3828C18.7344 15.3047 18.5742 15.1992 18.4336 15.0664C18.3008 14.9258 18.1953 14.7656 18.1172 14.5859C18.0391 14.4062 18 14.2109 18 14C18 13.7891 18.0391 13.5938 18.1172 13.4141C18.1953 13.2344 18.3008 13.0781 18.4336 12.9453C18.5742 12.8047 18.7344 12.6953 18.9141 12.6172C19.0938 12.5391 19.2891 12.5 19.5 12.5ZM24 9.5H23.5664L22.793 10.2617C22.8086 10.3008 22.8477 10.418 22.9102 10.6133C22.9727 10.8086 23.0469 11.0391 23.1328 11.3047C23.2266 11.5703 23.3242 11.8555 23.4258 12.1602C23.5273 12.4648 23.6211 12.7461 23.707 13.0039C23.793 13.2539 23.8633 13.4648 23.918 13.6367C23.9727 13.8008 24 13.8828 24 13.8828V21.5C24 21.7109 23.9609 21.9062 23.8828 22.0859C23.8047 22.2656 23.6953 22.4258 23.5547 22.5664C23.4219 22.6992 23.2656 22.8047 23.0859 22.8828C22.9062 22.9609 22.7109 23 22.5 23H21C20.7891 23 20.5938 22.9609 20.4141 22.8828C20.2344 22.8047 20.0742 22.6992 19.9336 22.5664C19.8008 22.4258 19.6953 22.2656 19.6172 22.0859C19.5391 21.9062 19.5 21.7109 19.5 21.5H4.5C4.5 21.7109 4.46094 21.9062 4.38281 22.0859C4.30469 22.2656 4.19531 22.4258 4.05469 22.5664C3.92188 22.6992 3.76562 22.8047 3.58594 22.8828C3.40625 22.9609 3.21094 23 3 23H1.5C1.28906 23 1.09375 22.9609 0.914062 22.8828C0.734375 22.8047 0.574219 22.6992 0.433594 22.5664C0.300781 22.4258 0.195312 22.2656 0.117188 22.0859C0.0390625 21.9062 0 21.7109 0 21.5V13.8828C0 13.8828 0.0273438 13.8008 0.0820312 13.6367C0.136719 13.4648 0.207031 13.2539 0.292969 13.0039C0.378906 12.7461 0.472656 12.4648 0.574219 12.1602C0.675781 11.8555 0.769531 11.5703 0.855469 11.3047C0.949219 11.0391 1.02734 10.8086 1.08984 10.6133C1.15234 10.418 1.19141 10.3008 1.20703 10.2617L0.433594 9.5H0V8H1.06641L1.73438 8.67969L2.60156 6.06641C2.73438 5.66016 2.92188 5.30078 3.16406 4.98828C3.40625 4.66797 3.6875 4.39844 4.00781 4.17969C4.33594 3.96094 4.69141 3.79297 5.07422 3.67578C5.45703 3.55859 5.85938 3.5 6.28125 3.5L7.58203 0.910156C7.64453 0.785156 7.73828 0.6875 7.86328 0.617188C7.98828 0.539062 8.11719 0.5 8.25 0.5H15.75C15.8828 0.5 16.0117 0.539062 16.1367 0.617188C16.2617 0.6875 16.3555 0.785156 16.418 0.910156L17.7188 3.5C18.1406 3.5 18.543 3.55859 18.9258 3.67578C19.3086 3.79297 19.6602 3.96094 19.9805 4.17969C20.3086 4.39844 20.5938 4.66797 20.8359 4.98828C21.0781 5.30078 21.2656 5.66016 21.3984 6.06641L22.2656 8.67969L22.9336 8H24V9.5ZM8.71875 2L7.96875 3.5H16.0312L15.2812 2H8.71875ZM3.03516 9.5H20.9648L19.9688 6.53516C19.8125 6.07422 19.5391 5.70312 19.1484 5.42188C18.7656 5.14062 18.3281 5 17.8359 5H6.16406C5.67188 5 5.23047 5.14062 4.83984 5.42188C4.45703 5.70312 4.1875 6.07422 4.03125 6.53516L3.03516 9.5ZM16.5 20V19.4258L15.2812 17H8.71875L7.5 19.4258V20H16.5ZM18 20H22.5V14.1172C22.5 14.1172 22.4766 14.0469 22.4297 13.9062C22.3828 13.7578 22.3203 13.5742 22.2422 13.3555C22.1719 13.1367 22.0938 12.8984 22.0078 12.6406C21.9219 12.375 21.8398 12.1289 21.7617 11.9023C21.6836 11.668 21.6172 11.4688 21.5625 11.3047C21.5078 11.1406 21.4727 11.0391 21.457 11H2.54297C2.52734 11.0391 2.49219 11.1406 2.4375 11.3047C2.38281 11.4688 2.31641 11.668 2.23828 11.9023C2.16016 12.1289 2.07812 12.375 1.99219 12.6406C1.90625 12.8984 1.82422 13.1367 1.74609 13.3555C1.67578 13.5742 1.61719 13.7578 1.57031 13.9062C1.52344 14.0469 1.5 14.1172 1.5 14.1172V20H6V19.0742L7.78125 15.5H16.2188L18 19.0742V20Z" fill="#242424"/>
</svg>
