<svg width="24" height="17" viewBox="0 0 24 17" fill="none" xmlns="http://www.w3.org/2000/svg">
<path d="M24 14H21C21 14.4141 20.9219 14.8047 20.7656 15.1719C20.6094 15.5312 20.3945 15.8477 20.1211 16.1211C19.8477 16.3945 19.5273 16.6094 19.1602 16.7656C18.8008 16.9219 18.4141 17 18 17C17.5859 17 17.1953 16.9219 16.8281 16.7656C16.4688 16.6094 16.1523 16.3945 15.8789 16.1211C15.6055 15.8477 15.3906 15.5312 15.2344 15.1719C15.0781 14.8047 15 14.4141 15 14H7.42969C7.33594 14.4375 7.17578 14.8398 6.94922 15.207C6.72266 15.5742 6.44531 15.8906 6.11719 16.1562C5.79688 16.4219 5.43359 16.6289 5.02734 16.7773C4.62109 16.9258 4.19531 17 3.75 17C3.23438 17 2.74609 16.9023 2.28516 16.707C1.83203 16.5117 1.43359 16.2461 1.08984 15.9102C0.753906 15.5664 0.488281 15.168 0.292969 14.7148C0.0976563 14.2539 0 13.7656 0 13.25C0 12.7344 0.0976563 12.25 0.292969 11.7969C0.488281 11.3438 0.753906 10.9492 1.08984 10.6133C1.43359 10.2695 1.83203 10 2.28516 9.80469C2.74609 9.60156 3.23438 9.5 3.75 9.5C3.82812 9.5 3.90234 9.50391 3.97266 9.51172C4.04297 9.51172 4.11719 9.51562 4.19531 9.52344L4.71094 8H3V6.5H5.21484C5.26953 6.33594 5.32031 6.17188 5.36719 6.00781C5.42188 5.84375 5.48047 5.67969 5.54297 5.51562C5.59766 5.35938 5.68359 5.23438 5.80078 5.14062C5.92578 5.04688 6.07422 5 6.24609 5H8.25C8.45312 5 8.62891 5.07422 8.77734 5.22266C8.92578 5.37109 9 5.54688 9 5.75C9 5.95312 8.92578 6.12891 8.77734 6.27734C8.62891 6.42578 8.45312 6.5 8.25 6.5H6.78516L5.625 10.0039C6.09375 10.2695 6.48438 10.6211 6.79688 11.0586C7.10938 11.4961 7.32031 11.9766 7.42969 12.5H12V11H9.75C9.54688 11 9.37109 10.9258 9.22266 10.7773C9.07422 10.6289 9 10.4531 9 10.25C9 10.0469 9.07422 9.87109 9.22266 9.72266C9.37109 9.57422 9.54688 9.5 9.75 9.5H12V5C12 4.38281 12.1172 3.80078 12.3516 3.25391C12.5859 2.70703 12.9062 2.23047 13.3125 1.82422C13.7266 1.41016 14.2031 1.08594 14.7422 0.851562C15.2891 0.617188 15.875 0.5 16.5 0.5H24V14ZM3.75 15.5C4.0625 15.5 4.35547 15.4414 4.62891 15.3242C4.90234 15.207 5.14062 15.0469 5.34375 14.8438C5.54688 14.6406 5.70703 14.4023 5.82422 14.1289C5.94141 13.8555 6 13.5625 6 13.25C6 12.9375 5.94141 12.6445 5.82422 12.3711C5.70703 12.0977 5.54688 11.8594 5.34375 11.6562C5.14062 11.4531 4.90234 11.293 4.62891 11.1758C4.35547 11.0586 4.0625 11 3.75 11C3.4375 11 3.14453 11.0586 2.87109 11.1758C2.59766 11.293 2.35938 11.4531 2.15625 11.6562C1.95312 11.8594 1.79297 12.0977 1.67578 12.3711C1.55859 12.6445 1.5 12.9375 1.5 13.25C1.5 13.5625 1.55859 13.8555 1.67578 14.1289C1.79297 14.4023 1.95312 14.6406 2.15625 14.8438C2.35938 15.0469 2.59766 15.207 2.87109 15.3242C3.14453 15.4414 3.4375 15.5 3.75 15.5ZM18 15.5C18.2109 15.5 18.4062 15.4609 18.5859 15.3828C18.7656 15.3047 18.9219 15.1992 19.0547 15.0664C19.1953 14.9258 19.3047 14.7656 19.3828 14.5859C19.4609 14.4062 19.5 14.2109 19.5 14C19.5 13.7891 19.4609 13.5938 19.3828 13.4141C19.3047 13.2344 19.1953 13.0781 19.0547 12.9453C18.9219 12.8047 18.7656 12.6953 18.5859 12.6172C18.4062 12.5391 18.2109 12.5 18 12.5C17.7891 12.5 17.5938 12.5391 17.4141 12.6172C17.2344 12.6953 17.0742 12.8047 16.9336 12.9453C16.8008 13.0781 16.6953 13.2344 16.6172 13.4141C16.5391 13.5938 16.5 13.7891 16.5 14C16.5 14.2109 16.5391 14.4062 16.6172 14.5859C16.6953 14.7656 16.8008 14.9258 16.9336 15.0664C17.0742 15.1992 17.2344 15.3047 17.4141 15.3828C17.5938 15.4609 17.7891 15.5 18 15.5ZM22.5 2H16.5C16.0859 2 15.6953 2.07812 15.3281 2.23438C14.9688 2.39062 14.6523 2.60547 14.3789 2.87891C14.1055 3.15234 13.8906 3.47266 13.7344 3.83984C13.5781 4.19922 13.5 4.58594 13.5 5V12.5H15.3984C15.6719 12.0312 16.0391 11.6641 16.5 11.3984C16.9609 11.1328 17.4609 11 18 11C18.5391 11 19.0391 11.1328 19.5 11.3984C19.9609 11.6641 20.3281 12.0312 20.6016 12.5H22.5V2Z" fill="#242424"/>
</svg>
