<svg width="20" height="20" viewBox="0 0 20 20" fill="none" xmlns="http://www.w3.org/2000/svg">
<path d="M15.8333 0C18.1345 0 20 1.86548 20 4.16667V15.8333C20 18.1345 18.1345 20 15.8333 20H4.16667C1.86548 20 0 18.1345 0 15.8333V4.16667C0 1.86548 1.86548 0 4.16667 0H15.8333ZM15.8333 1.66667H4.16667C2.78595 1.66667 1.66667 2.78595 1.66667 4.16667V15.8333C1.66667 17.214 2.78595 18.3333 4.16667 18.3333H15.8333C17.214 18.3333 18.3333 17.214 18.3333 15.8333V4.16667C18.3333 2.78595 17.214 1.66667 15.8333 1.66667ZM15.8333 11.1111C16.2936 11.1111 16.6667 11.4842 16.6667 11.9444V14.4444C16.6667 15.6718 15.6718 16.6667 14.4444 16.6667H11.9444C11.4842 16.6667 11.1111 16.2936 11.1111 15.8333C11.1111 15.3731 11.4842 15 11.9444 15H14.4444C14.7512 15 15 14.7512 15 14.4444V11.9444C15 11.4842 15.3731 11.1111 15.8333 11.1111ZM4.16667 11.1111C4.6269 11.1111 5 11.4842 5 11.9444V14.4444C5 14.7512 5.24873 15 5.55556 15H8.05556C8.51579 15 8.88889 15.3731 8.88889 15.8333C8.88889 16.2936 8.51579 16.6667 8.05556 16.6667H5.55556C4.32826 16.6667 3.33333 15.6718 3.33333 14.4444V11.9444C3.33333 11.4842 3.70643 11.1111 4.16667 11.1111ZM5.55556 3.33333H8.05556C8.51579 3.33333 8.88889 3.70643 8.88889 4.16667C8.88889 4.58855 8.57539 4.93721 8.16863 4.99239L8.05556 5H5.55556C5.28282 5 5.05599 5.19653 5.00895 5.45569L5 5.55556V8.05556C5 8.51579 4.6269 8.88889 4.16667 8.88889C3.74478 8.88889 3.39612 8.57539 3.34094 8.16863L3.33333 8.05556V5.55556C3.33333 4.38404 4.23986 3.42426 5.38971 3.33943L5.55556 3.33333H8.05556H5.55556ZM14.4444 3.33333C15.6718 3.33333 16.6667 4.32826 16.6667 5.55556V8.05556C16.6667 8.51579 16.2936 8.88889 15.8333 8.88889C15.3731 8.88889 15 8.51579 15 8.05556V5.55556C15 5.24873 14.7512 5 14.4444 5H11.9444C11.4842 5 11.1111 4.6269 11.1111 4.16667C11.1111 3.70643 11.4842 3.33333 11.9444 3.33333H14.4444Z" fill="#242424"/>
</svg>
