<svg width="20" height="20" viewBox="0 0 20 20" fill="none" xmlns="http://www.w3.org/2000/svg">
<path d="M17.64 6.98009C17.6172 6.88941 17.5642 6.80924 17.4896 6.75286C17.415 6.69648 17.3234 6.66727 17.23 6.67009H17.08L15.57 7.10009V7.03009C15.1703 5.57919 14.4909 4.22039 13.57 3.03009C13.34 2.73009 13.1 2.43009 12.84 2.15009C12.7982 2.10795 12.7483 2.07472 12.6933 2.05237C12.6383 2.03003 12.5793 2.01905 12.52 2.02009C12.4645 2.01929 12.4095 2.02949 12.358 2.05008C12.3065 2.07068 12.2596 2.10127 12.22 2.14009L9.38 5.00009H3C2.73478 5.00009 2.48043 5.10544 2.29289 5.29298C2.10536 5.48052 2 5.73487 2 6.00009V14.0001C2 14.2653 2.10536 14.5197 2.29289 14.7072C2.48043 14.8947 2.73478 15.0001 3 15.0001H9.38L12.26 17.8701C12.339 17.9512 12.4468 17.9979 12.56 18.0001C12.6187 18.0003 12.6767 17.9879 12.7302 17.9638C12.7837 17.9396 12.8314 17.9042 12.87 17.8601C13.7998 16.8836 14.5482 15.7492 15.08 14.5101C15.2987 13.994 15.4792 13.4626 15.62 12.9201L17.16 13.3201H17.27C17.3639 13.3188 17.4548 13.2869 17.5289 13.2291C17.6029 13.1713 17.656 13.0909 17.68 13.0001C18.155 11.0283 18.155 8.97188 17.68 7.00009L17.64 6.98009ZM9.28 7.82009L7.52 10.8701C7.50645 10.9226 7.50645 10.9776 7.52 11.0301V12.5701C7.52 12.7849 7.43466 12.9909 7.28276 13.1428C7.13085 13.2947 6.92483 13.3801 6.71 13.3801H6.56C6.34517 13.3801 6.13915 13.2947 5.98724 13.1428C5.83534 12.9909 5.75 12.7849 5.75 12.5701V11.1001C5.76603 11.0514 5.76603 10.9988 5.75 10.9501L3.99 7.81009C3.91879 7.68881 3.88125 7.55072 3.88125 7.41009C3.88125 7.26945 3.91879 7.13136 3.99 7.01009C4.05838 6.8875 4.15857 6.78563 4.28001 6.71523C4.40145 6.64483 4.53964 6.6085 4.68 6.61009H4.79C4.94623 6.61155 5.09862 6.65874 5.22835 6.74581C5.35807 6.83289 5.45946 6.95605 5.52 7.10009L6.67 9.28009L7.86 7.04009C7.93199 6.9155 8.0355 6.81204 8.16012 6.74012C8.28475 6.66819 8.42611 6.63033 8.57 6.63033C8.71389 6.63033 8.85525 6.66819 8.97988 6.74012C9.10451 6.81204 9.20801 6.9155 9.28 7.04009C9.34391 7.16015 9.37733 7.29408 9.37733 7.43009C9.37733 7.5661 9.34391 7.70003 9.28 7.82009ZM12.53 3.26009L12.8 3.62009C13.6299 4.71151 14.238 5.95492 14.59 7.28009V7.33009L11.99 8.01009V6.01009C11.99 5.74487 11.8846 5.49052 11.6971 5.30298C11.5096 5.11544 11.2552 5.01009 10.99 5.01009H10.78L12.53 3.26009ZM14.08 14.1001C13.681 15.0434 13.1453 15.9229 12.49 16.7101L10.8 15.0001H11C11.2652 15.0001 11.5196 14.8947 11.7071 14.7072C11.8946 14.5197 12 14.2653 12 14.0001V12.0001L14.62 12.6801C14.4676 13.1635 14.2873 13.6376 14.08 14.1001ZM16.75 12.1801L16.08 12.0201L11.96 10.9501V9.04009L16.78 7.80009C16.9207 8.52495 16.991 9.2617 16.99 10.0001C16.9938 10.7381 16.9268 11.4748 16.79 12.2001L16.75 12.1801Z" fill="#464775"/>
</svg>
