<svg xmlns="http://www.w3.org/2000/svg" viewBox="0 0 200 200"><defs><style>.cls-1{fill:#c8c6c4;}.cls-2{fill:#edebe9;}.cls-3{fill:#cdcccb;}.cls-4{fill:#6264a7;}.cls-5{fill:#a6a7dc;}.cls-6{fill:#ee8f94;}</style></defs><title>empty-search-results</title><g id="Layer_40" data-name="Layer 40"><path class="cls-1" d="M158.46,198.4q-51.69-17.82-103.84-35.75C72.14,122.49,74.55,79,95.26,39.5Q147,57.32,199.1,75.25C181.58,115.42,179.17,159,158.46,198.4Z"/><path class="cls-2" d="M157.18,179.89,47.34,162c13.56-41.64,7.34-86.51,20.9-128.15L178.08,51.75C164.52,93.39,170.74,138.25,157.18,179.89Z"/><rect class="cls-3" x="111.98" y="42.67" width="7.86" height="65.99" transform="translate(22.58 177.9) rotate(-80.74)"/><path class="cls-2" d="M157.18,179.89,47.34,162c13.56-41.64,7.34-86.51,20.9-128.15L178.08,51.75C164.52,93.39,170.74,138.25,157.18,179.89Z"/><rect class="cls-3" x="111.98" y="42.67" width="7.86" height="65.99" transform="translate(22.58 177.9) rotate(-80.74)"/><rect class="cls-3" x="109.69" y="63.44" width="7.86" height="65.99" transform="translate(0.15 193.06) rotate(-80.74)"/><rect class="cls-3" x="107.87" y="84.28" width="7.86" height="65.99" transform="translate(-21.93 208.75) rotate(-80.74)"/><rect class="cls-3" x="96.55" y="112.73" width="7.86" height="47.7" transform="translate(-50.49 213.77) rotate(-80.74)"/><path class="cls-4" d="M14.26,149.41A7.37,7.37,0,0,1,8,138.12L37,92a7.37,7.37,0,1,1,12.49,7.84L20.51,146A7.37,7.37,0,0,1,14.26,149.41Z"/><circle class="cls-2" cx="69.18" cy="54.54" r="46.1"/><rect class="cls-3" x="71.8" y="29.75" width="25.56" height="59.78" transform="translate(12.1 133.52) rotate(-80.74)"/><path class="cls-5" d="M69.08,107.05A52.5,52.5,0,0,1,24.72,26.64a52.49,52.49,0,0,1,88.92,55.8h0a52.18,52.18,0,0,1-32.76,23.27A53.26,53.26,0,0,1,69.08,107.05Zm.18-92.23a40,40,0,0,0-8.94,1,39.56,39.56,0,1,0,8.94-1Z"/><rect class="cls-6" x="6.21" y="117.16" width="34.38" height="20.64" transform="translate(-97.01 79.53) rotate(-57.89)"/><path class="cls-6" d="M10.41,158.48a10.33,10.33,0,0,1-8.73-15.81l13-20.68a10.32,10.32,0,1,1,17.48,11l-13,20.67A10.31,10.31,0,0,1,10.41,158.48Z"/></g></svg>