<svg width="40" height="40" viewBox="0 0 40 40" fill="none" xmlns="http://www.w3.org/2000/svg">
<path d="M0 6.4C0 4.15979 0 3.03969 0.435974 2.18404C0.819467 1.43139 1.43139 0.819467 2.18404 0.435974C3.03969 0 4.15979 0 6.4 0H33.6C35.8402 0 36.9603 0 37.816 0.435974C38.5686 0.819467 39.1805 1.43139 39.564 2.18404C40 3.03969 40 4.15979 40 6.4V33.6C40 35.8402 40 36.9603 39.564 37.816C39.1805 38.5686 38.5686 39.1805 37.816 39.564C36.9603 40 35.8402 40 33.6 40H6.4C4.15979 40 3.03969 40 2.18404 39.564C1.43139 39.1805 0.819467 38.5686 0.435974 37.816C0 36.9603 0 35.8402 0 33.6V6.4Z" fill="#F4F4FC"/>
<path d="M21.2482 9.99902C22.4909 9.99902 23.4982 11.0064 23.4982 12.249V15.2504C23.4982 16.493 22.4909 17.5004 21.2482 17.5004L20.4973 17.5V19.5L23.7516 19.5004C24.9424 19.5004 25.9172 20.4255 25.9964 21.5963L26.0016 21.7504L26.0013 22.5L26.7523 22.5004C27.9949 22.5004 29.0023 23.5077 29.0023 24.7504V27.7517C29.0023 28.9944 27.9949 30.0017 26.7523 30.0017H23.7509C22.5083 30.0017 21.5009 28.9944 21.5009 27.7517V24.7504C21.5009 23.5077 22.5083 22.5004 23.7509 22.5004L24.5013 22.5L24.5016 21.7504C24.5016 21.3707 24.2194 21.0569 23.8534 21.0072L23.7516 21.0004H15.7479C15.3682 21.0004 15.0544 21.2825 15.0048 21.6486L14.9979 21.7504L14.9973 22.5L15.7486 22.5004C16.9912 22.5004 17.9986 23.5077 17.9986 24.7504V27.7517C17.9986 28.9944 16.9912 30.0017 15.7486 30.0017H12.7473C11.5046 30.0017 10.4973 28.9944 10.4973 27.7517V24.7504C10.4973 23.5077 11.5046 22.5004 12.7473 22.5004L13.4973 22.5L13.4979 21.7504C13.4979 20.5595 14.4231 19.5847 15.5939 19.5056L15.7479 19.5004L18.9973 19.5V17.5L18.2469 17.5004C17.0042 17.5004 15.9969 16.493 15.9969 15.2504V12.249C15.9969 11.0064 17.0042 9.99902 18.2469 9.99902H21.2482ZM15.7486 24.0004H12.7473C12.333 24.0004 11.9973 24.3362 11.9973 24.7504V27.7517C11.9973 28.1659 12.333 28.5017 12.7473 28.5017H15.7486C16.1628 28.5017 16.4986 28.1659 16.4986 27.7517V24.7504C16.4986 24.3362 16.1628 24.0004 15.7486 24.0004ZM26.7523 24.0004H23.7509C23.3367 24.0004 23.0009 24.3362 23.0009 24.7504V27.7517C23.0009 28.1659 23.3367 28.5017 23.7509 28.5017H26.7523C27.1665 28.5017 27.5023 28.1659 27.5023 27.7517V24.7504C27.5023 24.3362 27.1665 24.0004 26.7523 24.0004ZM21.2482 11.499H18.2469C17.8327 11.499 17.4969 11.8348 17.4969 12.249V15.2504C17.4969 15.6646 17.8327 16.0004 18.2469 16.0004H21.2482C21.6624 16.0004 21.9982 15.6646 21.9982 15.2504V12.249C21.9982 11.8348 21.6624 11.499 21.2482 11.499Z" fill="#464775"/>
</svg>
