<svg width="40" height="40" viewBox="0 0 40 40" fill="none" xmlns="http://www.w3.org/2000/svg">
<path d="M0 6.4C0 4.15979 0 3.03969 0.435974 2.18404C0.819467 1.43139 1.43139 0.819467 2.18404 0.435974C3.03969 0 4.15979 0 6.4 0H33.6C35.8402 0 36.9603 0 37.816 0.435974C38.5686 0.819467 39.1805 1.43139 39.564 2.18404C40 3.03969 40 4.15979 40 6.4V33.6C40 35.8402 40 36.9603 39.564 37.816C39.1805 38.5686 38.5686 39.1805 37.816 39.564C36.9603 40 35.8402 40 33.6 40H6.4C4.15979 40 3.03969 40 2.18404 39.564C1.43139 39.1805 0.819467 38.5686 0.435974 37.816C0 36.9603 0 35.8402 0 33.6V6.4Z" fill="#F4F4FC"/>
<path d="M27.75 10C28.9926 10 30 11.0074 30 12.25V17.712C30 18.5738 29.6577 19.4003 29.0484 20.0098L20.5473 28.5129C19.2779 29.7798 17.2221 29.7807 15.951 28.5143L11.4893 24.0592C10.2188 22.7913 10.2172 20.7334 11.4855 19.4632L19.9852 10.9533C20.5948 10.343 21.422 10 22.2847 10H27.75ZM27.75 11.5H22.2847C21.8202 11.5 21.3747 11.6847 21.0465 12.0133L12.5343 20.5358C11.8641 21.2207 11.8692 22.3191 12.549 22.9977L17.0102 27.4522C17.6951 28.1345 18.8035 28.134 19.4872 27.4518L27.9876 18.9492C28.3157 18.6211 28.5 18.176 28.5 17.712V12.25C28.5 11.8358 28.1642 11.5 27.75 11.5ZM25 13.5022C25.8284 13.5022 26.4999 14.1737 26.4999 15.0022C26.4999 15.8306 25.8284 16.5021 25 16.5021C24.1716 16.5021 23.5 15.8306 23.5 15.0022C23.5 14.1737 24.1716 13.5022 25 13.5022Z" fill="#464775"/>
</svg>
