<svg width="40" height="40" viewBox="0 0 40 40" fill="none" xmlns="http://www.w3.org/2000/svg">
<path d="M0 6.4C0 4.15979 0 3.03969 0.435974 2.18404C0.819467 1.43139 1.43139 0.819467 2.18404 0.435974C3.03969 0 4.15979 0 6.4 0H33.6C35.8402 0 36.9603 0 37.816 0.435974C38.5686 0.819467 39.1805 1.43139 39.564 2.18404C40 3.03969 40 4.15979 40 6.4V33.6C40 35.8402 40 36.9603 39.564 37.816C39.1805 38.5686 38.5686 39.1805 37.816 39.564C36.9603 40 35.8402 40 33.6 40H6.4C4.15979 40 3.03969 40 2.18404 39.564C1.43139 39.1805 0.819467 38.5686 0.435974 37.816C0 36.9603 0 35.8402 0 33.6V6.4Z" fill="#F4F4FC"/>
<path d="M29 14C29 13.4477 28.5523 13 28 13H19C18.4477 13 18 13.4477 18 14C18 14.5523 18.4477 15 19 15H28C28.5523 15 29 14.5523 29 14Z" fill="#464775"/>
<path d="M16 14C16 13.4477 15.5523 13 15 13H12C11.4477 13 11 13.4477 11 14C11 14.5523 11.4477 15 12 15H15C15.5523 15 16 14.5523 16 14Z" fill="#464775"/>
<path d="M29 18C29 17.4477 28.5523 17 28 17H19C18.4477 17 18 17.4477 18 18C18 18.5523 18.4477 19 19 19H28C28.5523 19 29 18.5523 29 18Z" fill="#464775"/>
<path d="M16 18C16 17.4477 15.5523 17 15 17H12C11.4477 17 11 17.4477 11 18C11 18.5523 11.4477 19 12 19H15C15.5523 19 16 18.5523 16 18Z" fill="#464775"/>
<path d="M29 22C29 21.4477 28.5523 21 28 21H19C18.4477 21 18 21.4477 18 22C18 22.5523 18.4477 23 19 23H28C28.5523 23 29 22.5523 29 22Z" fill="#464775"/>
<path d="M16 22C16 21.4477 15.5523 21 15 21H12C11.4477 21 11 21.4477 11 22C11 22.5523 11.4477 23 12 23H15C15.5523 23 16 22.5523 16 22Z" fill="#464775"/>
<path d="M29 26C29 25.4477 28.5523 25 28 25H19C18.4477 25 18 25.4477 18 26C18 26.5523 18.4477 27 19 27H28C28.5523 27 29 26.5523 29 26Z" fill="#464775"/>
<path d="M16 26C16 25.4477 15.5523 25 15 25H12C11.4477 25 11 25.4477 11 26C11 26.5523 11.4477 27 12 27H15C15.5523 27 16 26.5523 16 26Z" fill="#464775"/>
</svg>
