<svg width="40" height="40" viewBox="0 0 40 40" fill="none" xmlns="http://www.w3.org/2000/svg">
<path d="M0 6.4C0 4.15979 0 3.03969 0.435974 2.18404C0.819467 1.43139 1.43139 0.819467 2.18404 0.435974C3.03969 0 4.15979 0 6.4 0H33.6C35.8402 0 36.9603 0 37.816 0.435974C38.5686 0.819467 39.1805 1.43139 39.564 2.18404C40 3.03969 40 4.15979 40 6.4V33.6C40 35.8402 40 36.9603 39.564 37.816C39.1805 38.5686 38.5686 39.1805 37.816 39.564C36.9603 40 35.8402 40 33.6 40H6.4C4.15979 40 3.03969 40 2.18404 39.564C1.43139 39.1805 0.819467 38.5686 0.435974 37.816C0 36.9603 0 35.8402 0 33.6V6.4Z" fill="#F4F4FC"/>
<path d="M17.4692 17.6433L16.769 11.7685L16.7671 11.6949C16.7671 10.8063 17.4875 10.0859 18.3761 10.0859C19.1789 10.0859 19.9218 10.5056 20.3545 11.2204L20.4408 11.381L23.3857 17.47L27.3428 17.3542C28.7765 17.3121 29.9728 18.4402 30.0151 19.8848L30.016 19.9501C30.016 21.3844 28.8532 22.5472 27.3969 22.5469L23.4327 22.4308L20.4409 28.6191C20.058 29.4111 19.2558 29.9142 18.3761 29.9142C17.4875 29.9142 16.7671 29.1939 16.7675 28.2829L16.774 28.1649L17.4808 22.2567L15.3488 22.1944L15.0798 22.9301C14.7993 23.6974 14.0694 24.2078 13.2524 24.2078C12.3764 24.2078 11.6664 23.4977 11.6664 22.6214L11.6667 21.8618L11.5117 21.8295C10.6217 21.6438 9.98401 20.8592 9.98401 19.9501C9.98401 19.0408 10.6222 18.2563 11.5122 18.0712L11.6667 18.0391L11.6664 17.2784C11.6664 16.4763 12.2645 15.8035 13.101 15.7003L13.2524 15.6923C13.9973 15.6923 14.6752 16.1175 15.0168 16.8194L15.0797 16.9695L15.3493 17.7054L17.4692 17.6433ZM18.3761 11.5859C18.3159 11.5859 18.2671 11.6347 18.2668 11.6726L19.1532 19.0946L14.3127 19.2365L13.6853 17.5212L13.6528 17.4421C13.5784 17.2898 13.423 17.1923 13.2989 17.1909L13.2406 17.1931C13.199 17.1983 13.1664 17.235 13.1664 17.278L13.1673 19.2588L11.8178 19.5398C11.6234 19.5802 11.484 19.7515 11.484 19.9501C11.484 20.1489 11.6235 20.3206 11.8178 20.3611L13.1673 20.642L13.1664 22.6217C13.1664 22.6693 13.2049 22.7078 13.2524 22.7078C13.4395 22.7078 13.6068 22.5908 13.671 22.4151L14.3113 20.6635L19.1652 20.8052L18.2683 28.2764L18.2671 28.3053C18.2671 28.3655 18.3159 28.4142 18.3761 28.4142C18.6804 28.4142 18.9579 28.2402 19.0904 27.9662L22.5053 20.903L27.4189 21.0472C28.0248 21.0472 28.5161 20.556 28.5161 19.9611L28.5155 19.9178C28.4978 19.3123 27.9924 18.8358 27.3868 18.8536L22.4583 18.9978L19.1066 12.0657L19.0542 11.9675C18.9109 11.7312 18.6538 11.5859 18.3761 11.5859Z" fill="#464775"/>
</svg>
