<svg width="40" height="40" viewBox="0 0 40 40" fill="none" xmlns="http://www.w3.org/2000/svg">
<rect width="40" height="40" rx="4" fill="#F4F4FC"/>
<path d="M19.9962 27.0103C20.3759 27.0103 20.6897 27.2924 20.7393 27.6585L20.7462 27.7603V29.2603C20.7462 29.6745 20.4104 30.0103 19.9962 30.0103C19.6165 30.0103 19.3027 29.7281 19.253 29.362L19.2462 29.2603V27.7603C19.2462 27.3461 19.582 27.0103 19.9962 27.0103ZM26.0179 24.9375L27.0785 25.9981C27.3714 26.291 27.3714 26.7659 27.0785 27.0588C26.7857 27.3517 26.3108 27.3517 26.0179 27.0588L24.9572 25.9981C24.6643 25.7052 24.6643 25.2304 24.9572 24.9375C25.2501 24.6446 25.725 24.6446 26.0179 24.9375ZM15.0347 24.9375C15.3275 25.2304 15.3275 25.7052 15.0347 25.9981L13.974 27.0588C13.6811 27.3517 13.2062 27.3517 12.9133 27.0588C12.6204 26.7659 12.6204 26.291 12.9133 25.9981L13.974 24.9375C14.2669 24.6446 14.7418 24.6446 15.0347 24.9375ZM20 14.4748C23.0514 14.4748 25.525 16.9484 25.525 19.9998C25.525 23.0511 23.0514 25.5248 20 25.5248C16.9486 25.5248 14.475 23.0511 14.475 19.9998C14.475 16.9484 16.9486 14.4748 20 14.4748ZM20 15.9748C17.7771 15.9748 15.975 17.7768 15.975 19.9998C15.975 22.2227 17.7771 24.0248 20 24.0248C22.2229 24.0248 24.025 22.2227 24.025 19.9998C24.025 17.7768 22.2229 15.9748 20 15.9748ZM29.2498 19.2681C29.664 19.2681 29.9998 19.6039 29.9998 20.0181C29.9998 20.3978 29.7176 20.7116 29.3515 20.7612L29.2498 20.7681H27.7498C27.3355 20.7681 26.9998 20.4323 26.9998 20.0181C26.9998 19.6384 27.2819 19.3246 27.648 19.2749L27.7498 19.2681H29.2498ZM12.2502 19.2393C12.6645 19.2393 13.0002 19.575 13.0002 19.9893C13.0002 20.369 12.7181 20.6827 12.352 20.7324L12.2502 20.7393H10.7502C10.336 20.7393 10.0002 20.4035 10.0002 19.9893C10.0002 19.6096 10.2824 19.2958 10.6485 19.2461L10.7502 19.2393H12.2502ZM13.8899 12.8681L13.974 12.9408L15.0347 14.0014C15.3275 14.2943 15.3275 14.7692 15.0347 15.0621C14.7684 15.3283 14.3517 15.3525 14.0581 15.1347L13.974 15.0621L12.9133 14.0014C12.6204 13.7085 12.6204 13.2336 12.9133 12.9408C13.1796 12.6745 13.5963 12.6503 13.8899 12.8681ZM27.0785 12.9408C27.3448 13.207 27.369 13.6237 27.1512 13.9173L27.0785 14.0014L26.0179 15.0621C25.725 15.355 25.2501 15.355 24.9572 15.0621C24.691 14.7958 24.6668 14.3791 24.8846 14.0855L24.9572 14.0014L26.0179 12.9408C26.3108 12.6479 26.7857 12.6479 27.0785 12.9408ZM20.0002 9.98926C20.3799 9.98926 20.6937 10.2714 20.7434 10.6375L20.7502 10.7393V12.2393C20.7502 12.6535 20.4145 12.9893 20.0002 12.9893C19.6205 12.9893 19.3068 12.7071 19.2571 12.341L19.2502 12.2393V10.7393C19.2502 10.325 19.586 9.98926 20.0002 9.98926Z" fill="#464775"/>
</svg>
