<svg width="40" height="40" viewBox="0 0 40 40" fill="none" xmlns="http://www.w3.org/2000/svg">
<path d="M0 6.4C0 4.15979 0 3.03969 0.435974 2.18404C0.819467 1.43139 1.43139 0.819467 2.18404 0.435974C3.03969 0 4.15979 0 6.4 0H33.6C35.8402 0 36.9603 0 37.816 0.435974C38.5686 0.819467 39.1805 1.43139 39.564 2.18404C40 3.03969 40 4.15979 40 6.4V33.6C40 35.8402 40 36.9603 39.564 37.816C39.1805 38.5686 38.5686 39.1805 37.816 39.564C36.9603 40 35.8402 40 33.6 40H6.4C4.15979 40 3.03969 40 2.18404 39.564C1.43139 39.1805 0.819467 38.5686 0.435974 37.816C0 36.9603 0 35.8402 0 33.6V6.4Z" fill="#F4F4FC"/>
<path d="M21.75 10C22.9409 10 23.9156 10.9252 23.9948 12.096L24 12.25C24 12.1653 23.9953 12.0817 23.9862 11.9994L25.75 12C26.9926 12 28 13.0074 28 14.25V27.75C28 28.9926 26.9926 30 25.75 30H14.25C13.0074 30 12 28.9926 12 27.75V14.25C12 13.0074 13.0074 12 14.25 12L16.0138 11.9994C16.0073 12.0577 16.0031 12.1167 16.0012 12.1763L16 12.25C16 11.0074 17.0074 10 18.25 10H21.75ZM21.75 14.5H18.25C17.4559 14.5 16.758 14.0887 16.3575 13.4675L16.379 13.5002L14.25 13.5C13.8358 13.5 13.5 13.8358 13.5 14.25V27.75C13.5 28.1642 13.8358 28.5 14.25 28.5H25.75C26.1642 28.5 26.5 28.1642 26.5 27.75V14.25C26.5 13.8358 26.1642 13.5 25.75 13.5L23.621 13.5002L23.6425 13.4675C23.242 14.0887 22.5441 14.5 21.75 14.5ZM21.75 11.5H18.25C17.8358 11.5 17.5 11.8358 17.5 12.25C17.5 12.6642 17.8358 13 18.25 13H21.75C22.1642 13 22.5 12.6642 22.5 12.25C22.5 11.8358 22.1642 11.5 21.75 11.5Z" fill="#464775"/>
</svg>
