<svg width="40" height="40" viewBox="0 0 40 40" fill="none" xmlns="http://www.w3.org/2000/svg">
<path d="M0 4C0 1.79086 1.79086 0 4 0H36C38.2091 0 40 1.79086 40 4V36C40 38.2091 38.2091 40 36 40H4C1.79086 40 0 38.2091 0 36V4Z" fill="#F4F4FC"/>
<path d="M20 9.99902C25.5237 9.99902 30.0015 14.4769 30.0015 20.0006C30.0015 25.5243 25.5237 30.0021 20 30.0021C14.4763 30.0021 9.99844 25.5243 9.99844 20.0006C9.99844 14.4769 14.4763 9.99902 20 9.99902ZM22.9389 24.5003H17.0611C17.7131 26.9144 18.8465 28.5021 20 28.5021C21.1535 28.5021 22.2869 26.9144 22.9389 24.5003ZM15.5083 24.5009L12.7858 24.5007C13.7442 26.0338 15.1776 27.2394 16.88 27.9114C16.3577 27.0915 15.9267 26.0653 15.6097 24.8959L15.5083 24.5009ZM27.2142 24.5007L24.4917 24.5009C24.1679 25.8346 23.7003 27.0004 23.1189 27.9114C24.7159 27.2814 26.0756 26.1824 27.029 24.7843L27.2142 24.5007ZM15.0934 17.9999H11.7358L11.7311 18.0171C11.579 18.6535 11.4984 19.3176 11.4984 20.0006C11.4984 21.0567 11.691 22.0679 12.043 23.0009L15.2162 23.0005C15.0739 22.0514 14.9984 21.0432 14.9984 20.0006C14.9984 19.3166 15.0309 18.6474 15.0934 17.9999ZM23.3969 18H16.6031C16.535 18.6403 16.4984 19.31 16.4984 20.0006C16.4984 21.0601 16.5846 22.0704 16.7382 23.0007H23.2618C23.4154 22.0704 23.5015 21.0601 23.5015 20.0006C23.5015 19.31 23.4649 18.6403 23.3969 18ZM28.2646 17.9991L24.9066 17.9999C24.9691 18.6474 25.0015 19.3166 25.0015 20.0006C25.0015 21.0432 24.9261 22.0514 24.7838 23.0005L27.957 23.0009C28.309 22.0679 28.5015 21.0567 28.5015 20.0006C28.5015 19.3112 28.4195 18.6409 28.2646 17.9991ZM16.881 12.0897L16.8581 12.0984C14.8108 12.9132 13.1548 14.5005 12.2501 16.5003L15.2983 16.5007C15.6116 14.7479 16.1585 13.222 16.881 12.0897ZM20 11.499L19.8843 11.5043C18.6189 11.6201 17.3964 13.622 16.8287 16.5003H23.1713C22.6052 13.6301 21.3879 11.6313 20.1263 11.5053L20 11.499ZM23.12 12.0898L23.2268 12.2639C23.896 13.3763 24.4042 14.8362 24.7017 16.5007L27.7498 16.5003C26.8852 14.5889 25.3342 13.0544 23.4112 12.2111L23.12 12.0898Z" fill="#464775"/>
</svg>
