<svg width="40" height="40" viewBox="0 0 40 40" fill="none" xmlns="http://www.w3.org/2000/svg">
<rect width="40" height="40" rx="4" fill="#F4F4FC"/>
<path d="M18.9456 10.0471L18.9505 10.0544C19.2955 10.0184 19.6456 10 20.0001 10C25.523 10 30.0001 14.4772 30.0001 20C30.0001 25.5228 25.523 30 20.0001 30C16.7908 30 13.9347 28.4882 12.1049 26.1379L12.1023 26.1374L12.1028 26.1353C10.785 24.4414 10.0001 22.3123 10.0001 20C10.0001 14.838 13.9113 10.5896 18.9318 10.0564L18.9456 10.0471ZM20.0001 11.5C19.9469 11.5 19.8938 11.5005 19.8408 11.5015C19.9634 11.7457 20.095 12.0343 20.2145 12.3518C20.5614 13.2735 20.8803 14.6329 20.3144 15.8379C19.7918 16.9507 18.8897 17.2386 18.2243 17.4105L18.1397 17.4323C17.4833 17.6015 17.2309 17.6666 17.0468 17.9461C16.8779 18.2026 16.9034 18.5284 17.1082 19.1957C17.1226 19.2426 17.1382 19.2922 17.1544 19.3439C17.2355 19.6023 17.3333 19.9138 17.3843 20.2067C17.4476 20.5711 17.4656 21.0344 17.2322 21.4822C17.0007 21.9264 16.6939 22.2292 16.3313 22.4267C15.9908 22.6123 15.6381 22.6826 15.3742 22.7294L15.2812 22.7458C14.7663 22.8364 14.52 22.8798 14.2802 23.1368C14.094 23.3362 13.9738 23.6885 13.9036 24.2149C13.875 24.4291 13.8579 24.6415 13.8401 24.8611L13.8306 24.9782C13.8106 25.2205 13.7858 25.4994 13.7313 25.7388L13.731 25.7402C15.285 27.4364 17.5184 28.5 20.0001 28.5C21.5771 28.5 23.0538 28.0705 24.3197 27.3222C24.2213 27.222 24.1146 27.1044 24.0093 26.9718C23.6698 26.5444 23.2245 25.8081 23.3789 24.939C23.4531 24.5211 23.6771 24.1712 23.8936 23.9029C24.1142 23.6295 24.3804 23.3769 24.6132 23.1626C24.6685 23.1117 24.7215 23.0633 24.7723 23.0169C24.9505 22.8542 25.102 22.7159 25.2316 22.5802C25.4043 22.3991 25.4419 22.3175 25.4439 22.3133C25.5118 22.0886 25.4286 21.9294 25.3378 21.8592C25.2922 21.824 25.2311 21.7984 25.148 21.7978C25.0642 21.7971 24.9283 21.8222 24.7469 21.9372C24.5372 22.07 24.2321 22.152 23.9111 22.0228C23.6438 21.9151 23.4956 21.709 23.4245 21.5914C23.2806 21.3535 23.1997 21.0452 23.1471 20.8191C23.1065 20.6447 23.0677 20.4467 23.0324 20.2661C23.0182 20.1938 23.0046 20.1242 22.9917 20.0601C22.9411 19.8103 22.8985 19.6318 22.8576 19.5209C22.857 19.5195 22.8519 19.5073 22.8383 19.4825C22.8236 19.4555 22.8028 19.421 22.7743 19.3777C22.7163 19.2894 22.6405 19.1857 22.5466 19.0613C22.5125 19.0161 22.4758 18.968 22.4374 18.9176C22.2763 18.7064 22.0844 18.4548 21.9211 18.206C21.7253 17.9076 21.504 17.5177 21.434 17.1018C21.397 16.8815 21.3975 16.6269 21.489 16.3684C21.5826 16.1036 21.7536 15.8859 21.9756 15.7194C22.459 15.3568 23.1691 14.5468 23.7989 13.7604C24.0865 13.4012 24.3435 13.0648 24.5348 12.8094C23.2225 11.98 21.6674 11.5 20.0001 11.5ZM25.7275 13.7192C25.5299 13.9827 25.2659 14.3281 24.9697 14.698C24.368 15.4494 23.5704 16.3828 22.9202 16.8854C22.9456 16.9843 23.0205 17.1473 23.1752 17.383C23.3063 17.5828 23.4561 17.7795 23.6142 17.9869C23.6568 18.0428 23.7003 18.0999 23.7439 18.1576C23.9163 18.386 24.1551 18.7047 24.2647 19.0014C24.3509 19.2349 24.4128 19.52 24.4619 19.7628C24.4792 19.8485 24.4952 19.9304 24.5106 20.0092C24.5361 20.1396 24.56 20.2616 24.5855 20.3786C25.1872 20.2069 25.7872 20.3106 26.2554 20.6726C26.864 21.1432 27.1181 21.9589 26.8798 22.7472C26.7705 23.1089 26.5158 23.4071 26.3166 23.6159C26.1476 23.7929 25.9451 23.9777 25.7614 24.1452C25.7159 24.1867 25.6713 24.2274 25.629 24.2663C25.399 24.478 25.2056 24.6656 25.0611 24.8447C24.9125 25.0289 24.866 25.144 24.8558 25.2014C24.8169 25.4199 24.9233 25.7109 25.1838 26.0388C25.3019 26.1875 25.4277 26.3128 25.5253 26.4015C25.5368 26.4119 25.5479 26.4218 25.5584 26.431C27.3601 24.8724 28.5001 22.5693 28.5001 20C28.5001 17.512 27.4312 15.2737 25.7275 13.7192ZM11.5001 20C11.5001 21.3984 11.8378 22.7178 12.436 23.8814C12.5209 23.324 12.6981 22.6334 13.1837 22.1132C13.7835 21.4706 14.5193 21.3501 14.9818 21.2744C15.0281 21.2668 15.0719 21.2596 15.1123 21.2525C15.36 21.2085 15.5032 21.1697 15.6137 21.1095C15.7022 21.0613 15.8015 20.9818 15.902 20.789C15.9169 20.7605 15.9443 20.6815 15.9064 20.4638C15.874 20.2775 15.8132 20.0826 15.7337 19.8276C15.7149 19.7674 15.6949 19.7033 15.6742 19.6357C15.4891 19.0324 15.1931 18.0335 15.7942 17.121C16.3158 16.329 17.1548 16.1266 17.6874 15.9981C17.7452 15.9841 17.7993 15.9711 17.8491 15.9582C18.412 15.8128 18.7324 15.6779 18.9567 15.2003C19.2521 14.5713 19.125 13.7153 18.8106 12.8802C18.6616 12.4842 18.4867 12.1363 18.3482 11.8865C18.3047 11.8081 18.2653 11.7401 18.2318 11.6842C14.3861 12.4979 11.5001 15.9119 11.5001 20Z" fill="#464775"/>
</svg>
