<svg width="40" height="40" viewBox="0 0 40 40" fill="none" xmlns="http://www.w3.org/2000/svg">
<path d="M0 6.4C0 4.15979 0 3.03969 0.435974 2.18404C0.819467 1.43139 1.43139 0.819467 2.18404 0.435974C3.03969 0 4.15979 0 6.4 0H33.6C35.8402 0 36.9603 0 37.816 0.435974C38.5686 0.819467 39.1805 1.43139 39.564 2.18404C40 3.03969 40 4.15979 40 6.4V33.6C40 35.8402 40 36.9603 39.564 37.816C39.1805 38.5686 38.5686 39.1805 37.816 39.564C36.9603 40 35.8402 40 33.6 40H6.4C4.15979 40 3.03969 40 2.18404 39.564C1.43139 39.1805 0.819467 38.5686 0.435974 37.816C0 36.9603 0 35.8402 0 33.6V6.4Z" fill="#F4F4FC"/>
<path d="M18.875 15.628C18.875 15.2828 19.1548 15.003 19.5 15.003C19.8452 15.003 20.125 15.2828 20.125 15.628V16.8799C20.125 17.2251 19.8452 17.5049 19.5 17.5049C19.1548 17.5049 18.875 17.2251 18.875 16.8799V15.628Z" fill="#464775"/>
<path d="M23.0633 16.8042C22.8192 16.5601 22.4235 16.5601 22.1794 16.8042L21.2941 17.6894C21.0501 17.9335 21.0501 18.3292 21.2941 18.5733C21.5382 18.8173 21.934 18.8173 22.178 18.5733L23.0633 17.688C23.3073 17.444 23.3073 17.0482 23.0633 16.8042Z" fill="#464775"/>
<path d="M16.8151 16.8042C16.5711 16.5601 16.1753 16.5601 15.9312 16.8042C15.6872 17.0482 15.6872 17.444 15.9312 17.688L16.8165 18.5733C17.0606 18.8173 17.4563 18.8173 17.7004 18.5733C17.9444 18.3292 17.9444 17.9335 17.7004 17.6894L16.8151 16.8042Z" fill="#464775"/>
<path d="M19.5 10C23.6421 10 27 13.2462 27 17.2505C27 19.3467 26.0683 21.2705 24.2451 22.9928C24.1655 23.068 24.1039 23.1586 24.064 23.2581L24.0314 23.3604L22.8613 28.2564C22.631 29.2204 21.7795 29.9188 20.7727 29.9934L20.5935 30H18.4068C17.3832 30 16.4875 29.3549 16.1858 28.4231L16.1388 28.2558L14.9703 23.3607C14.9369 23.2208 14.8627 23.0931 14.7564 22.9928C13.0191 21.3524 12.0908 19.5294 12.0063 17.5488L12 17.2505L12.004 17.0112C12.1346 13.1176 15.4407 10 19.5 10ZM16.9437 26.25L17.3423 27.918L17.375 28.0381C17.4962 28.4123 17.8448 28.6896 18.2645 28.7413L18.4068 28.75L20.5473 28.7509L20.6803 28.7468C21.1081 28.7151 21.4657 28.4511 21.6068 28.0897L21.6456 27.9658L22.0562 26.25H16.9437ZM19.5 11.25C16.2098 11.25 13.5149 13.6913 13.2689 16.767L13.2538 17.0321L13.2497 17.224L13.2552 17.4955C13.3247 19.1253 14.097 20.651 15.6146 22.0839C15.8499 22.3061 16.0274 22.5809 16.1322 22.8848L16.1862 23.0705L16.645 25H18.8753V19.3713C18.8753 19.0262 19.1551 18.7463 19.5003 18.7463C19.8455 18.7463 20.1253 19.0262 20.1253 19.3713V25H22.3562L22.8403 22.9814L22.9038 22.7928C23.0113 22.5247 23.1762 22.2831 23.3867 22.0842C24.9781 20.5808 25.75 18.9757 25.75 17.2505C25.75 13.9462 22.9611 11.25 19.5 11.25Z" fill="#464775"/>
</svg>
