<svg width="40" height="40" viewBox="0 0 40 40" fill="none" xmlns="http://www.w3.org/2000/svg">
<path d="M0 4C0 1.79086 1.79086 0 4 0H36C38.2091 0 40 1.79086 40 4V36C40 38.2091 38.2091 40 36 40H4C1.79086 40 0 38.2091 0 36V4Z" fill="#F4F4FC"/>
<path d="M23.75 10C24.9926 10 26 11.0074 26 12.25V27.75C26 28.9926 24.9926 30 23.75 30H16.25C15.0074 30 14 28.9926 14 27.75V12.25C14 11.0074 15.0074 10 16.25 10H23.75ZM23.75 11.5H16.25C15.8358 11.5 15.5 11.8358 15.5 12.25V27.75C15.5 28.1642 15.8358 28.5 16.25 28.5H23.75C24.1642 28.5 24.5 28.1642 24.5 27.75V12.25C24.5 11.8358 24.1642 11.5 23.75 11.5ZM21.2489 25.5C21.6631 25.4994 21.9994 25.8347 22 26.2489C22.0006 26.6631 21.6653 26.9994 21.2511 27L18.7511 27.0038C18.3369 27.0044 18.0006 26.6691 18 26.2549C17.9994 25.8407 18.3347 25.5044 18.7489 25.5038L21.2489 25.5Z" fill="#464775"/>
</svg>
