<svg width="40" height="40" viewBox="0 0 40 40" fill="none" xmlns="http://www.w3.org/2000/svg">
<rect width="40" height="40" rx="4" fill="#F4F4FC"/>
<path d="M32 27H29C29 27.4141 28.9219 27.8047 28.7656 28.1719C28.6094 28.5312 28.3945 28.8477 28.1211 29.1211C27.8477 29.3945 27.5273 29.6094 27.1602 29.7656C26.8008 29.9219 26.4141 30 26 30C25.5859 30 25.1953 29.9219 24.8281 29.7656C24.4688 29.6094 24.1523 29.3945 23.8789 29.1211C23.6055 28.8477 23.3906 28.5312 23.2344 28.1719C23.0781 27.8047 23 27.4141 23 27H15.4297C15.3359 27.4375 15.1758 27.8398 14.9492 28.207C14.7227 28.5742 14.4453 28.8906 14.1172 29.1562C13.7969 29.4219 13.4336 29.6289 13.0273 29.7773C12.6211 29.9258 12.1953 30 11.75 30C11.2344 30 10.7461 29.9023 10.2852 29.707C9.83203 29.5117 9.43359 29.2461 9.08984 28.9102C8.75391 28.5664 8.48828 28.168 8.29297 27.7148C8.09766 27.2539 8 26.7656 8 26.25C8 25.7344 8.09766 25.25 8.29297 24.7969C8.48828 24.3438 8.75391 23.9492 9.08984 23.6133C9.43359 23.2695 9.83203 23 10.2852 22.8047C10.7461 22.6016 11.2344 22.5 11.75 22.5C11.8281 22.5 11.9023 22.5039 11.9727 22.5117C12.043 22.5117 12.1172 22.5156 12.1953 22.5234L12.7109 21H11V19.5H13.2148C13.2695 19.3359 13.3203 19.1719 13.3672 19.0078C13.4219 18.8438 13.4805 18.6797 13.543 18.5156C13.5977 18.3594 13.6836 18.2344 13.8008 18.1406C13.9258 18.0469 14.0742 18 14.2461 18H16.25C16.4531 18 16.6289 18.0742 16.7773 18.2227C16.9258 18.3711 17 18.5469 17 18.75C17 18.9531 16.9258 19.1289 16.7773 19.2773C16.6289 19.4258 16.4531 19.5 16.25 19.5H14.7852L13.625 23.0039C14.0938 23.2695 14.4844 23.6211 14.7969 24.0586C15.1094 24.4961 15.3203 24.9766 15.4297 25.5H20V24H17.75C17.5469 24 17.3711 23.9258 17.2227 23.7773C17.0742 23.6289 17 23.4531 17 23.25C17 23.0469 17.0742 22.8711 17.2227 22.7227C17.3711 22.5742 17.5469 22.5 17.75 22.5H20V18C20 17.3828 20.1172 16.8008 20.3516 16.2539C20.5859 15.707 20.9062 15.2305 21.3125 14.8242C21.7266 14.4102 22.2031 14.0859 22.7422 13.8516C23.2891 13.6172 23.875 13.5 24.5 13.5H32V27ZM11.75 28.5C12.0625 28.5 12.3555 28.4414 12.6289 28.3242C12.9023 28.207 13.1406 28.0469 13.3438 27.8438C13.5469 27.6406 13.707 27.4023 13.8242 27.1289C13.9414 26.8555 14 26.5625 14 26.25C14 25.9375 13.9414 25.6445 13.8242 25.3711C13.707 25.0977 13.5469 24.8594 13.3438 24.6562C13.1406 24.4531 12.9023 24.293 12.6289 24.1758C12.3555 24.0586 12.0625 24 11.75 24C11.4375 24 11.1445 24.0586 10.8711 24.1758C10.5977 24.293 10.3594 24.4531 10.1562 24.6562C9.95312 24.8594 9.79297 25.0977 9.67578 25.3711C9.55859 25.6445 9.5 25.9375 9.5 26.25C9.5 26.5625 9.55859 26.8555 9.67578 27.1289C9.79297 27.4023 9.95312 27.6406 10.1562 27.8438C10.3594 28.0469 10.5977 28.207 10.8711 28.3242C11.1445 28.4414 11.4375 28.5 11.75 28.5ZM26 28.5C26.2109 28.5 26.4062 28.4609 26.5859 28.3828C26.7656 28.3047 26.9219 28.1992 27.0547 28.0664C27.1953 27.9258 27.3047 27.7656 27.3828 27.5859C27.4609 27.4062 27.5 27.2109 27.5 27C27.5 26.7891 27.4609 26.5938 27.3828 26.4141C27.3047 26.2344 27.1953 26.0781 27.0547 25.9453C26.9219 25.8047 26.7656 25.6953 26.5859 25.6172C26.4062 25.5391 26.2109 25.5 26 25.5C25.7891 25.5 25.5938 25.5391 25.4141 25.6172C25.2344 25.6953 25.0742 25.8047 24.9336 25.9453C24.8008 26.0781 24.6953 26.2344 24.6172 26.4141C24.5391 26.5938 24.5 26.7891 24.5 27C24.5 27.2109 24.5391 27.4062 24.6172 27.5859C24.6953 27.7656 24.8008 27.9258 24.9336 28.0664C25.0742 28.1992 25.2344 28.3047 25.4141 28.3828C25.5938 28.4609 25.7891 28.5 26 28.5ZM30.5 15H24.5C24.0859 15 23.6953 15.0781 23.3281 15.2344C22.9688 15.3906 22.6523 15.6055 22.3789 15.8789C22.1055 16.1523 21.8906 16.4727 21.7344 16.8398C21.5781 17.1992 21.5 17.5859 21.5 18V25.5H23.3984C23.6719 25.0312 24.0391 24.6641 24.5 24.3984C24.9609 24.1328 25.4609 24 26 24C26.5391 24 27.0391 24.1328 27.5 24.3984C27.9609 24.6641 28.3281 25.0312 28.6016 25.5H30.5V15Z" fill="#464775"/>
</svg>
