<svg width="40" height="40" viewBox="0 0 40 40" fill="none" xmlns="http://www.w3.org/2000/svg">
<path d="M0 6.4C0 4.15979 0 3.03969 0.435974 2.18404C0.819467 1.43139 1.43139 0.819467 2.18404 0.435974C3.03969 0 4.15979 0 6.4 0H33.6C35.8402 0 36.9603 0 37.816 0.435974C38.5686 0.819467 39.1805 1.43139 39.564 2.18404C40 3.03969 40 4.15979 40 6.4V33.6C40 35.8402 40 36.9603 39.564 37.816C39.1805 38.5686 38.5686 39.1805 37.816 39.564C36.9603 40 35.8402 40 33.6 40H6.4C4.15979 40 3.03969 40 2.18404 39.564C1.43139 39.1805 0.819467 38.5686 0.435974 37.816C0 36.9603 0 35.8402 0 33.6V6.4Z" fill="#F4F4FC"/>
<path d="M14.0005 12.2471V13.9953H10.2483C9.00565 13.9953 7.99829 15.0027 7.99829 16.2453V27.7453C7.99829 28.9879 9.00565 29.9953 10.2483 29.9953H29.7518C30.9944 29.9953 32.0018 28.9879 32.0018 27.7453V16.2453C32.0018 15.0027 30.9944 13.9953 29.7518 13.9953H26.0018V12.2471C26.0018 11.0044 24.9945 9.99707 23.7518 9.99707H16.2505C15.0078 9.99707 14.0005 11.0044 14.0005 12.2471ZM16.2505 11.4971H23.7518C24.1661 11.4971 24.5018 11.8329 24.5018 12.2471V13.9953H15.5005V12.2471C15.5005 11.8329 15.8363 11.4971 16.2505 11.4971ZM10.2483 15.4953H29.7518C30.166 15.4953 30.5018 15.8311 30.5018 16.2453V19.9996H26.5044V18.7496C26.5044 18.3354 26.1686 17.9996 25.7544 17.9996C25.3402 17.9996 25.0044 18.3354 25.0044 18.7496V19.9996H15.0044V18.7496C15.0044 18.3354 14.6686 17.9996 14.2544 17.9996C13.8402 17.9996 13.5044 18.3354 13.5044 18.7496V19.9996H9.49829V16.2453C9.49829 15.8311 9.83408 15.4953 10.2483 15.4953ZM25.0044 21.4996V22.7496C25.0044 23.1638 25.3402 23.4996 25.7544 23.4996C26.1686 23.4996 26.5044 23.1638 26.5044 22.7496V21.4996H30.5018V27.7453C30.5018 28.1595 30.166 28.4953 29.7518 28.4953H10.2483C9.83408 28.4953 9.49829 28.1595 9.49829 27.7453V21.4996H13.5044V22.7496C13.5044 23.1638 13.8402 23.4996 14.2544 23.4996C14.6686 23.4996 15.0044 23.1638 15.0044 22.7496V21.4996H25.0044Z" fill="#464775"/>
</svg>
