<svg width="40" height="40" viewBox="0 0 40 40" fill="none" xmlns="http://www.w3.org/2000/svg">
<path d="M0 6.4C0 4.15979 0 3.03969 0.435974 2.18404C0.819467 1.43139 1.43139 0.819467 2.18404 0.435974C3.03969 0 4.15979 0 6.4 0H33.6C35.8402 0 36.9603 0 37.816 0.435974C38.5686 0.819467 39.1805 1.43139 39.564 2.18404C40 3.03969 40 4.15979 40 6.4V33.6C40 35.8402 40 36.9603 39.564 37.816C39.1805 38.5686 38.5686 39.1805 37.816 39.564C36.9603 40 35.8402 40 33.6 40H6.4C4.15979 40 3.03969 40 2.18404 39.564C1.43139 39.1805 0.819467 38.5686 0.435974 37.816C0 36.9603 0 35.8402 0 33.6V6.4Z" fill="#F4F4FC"/>
<path d="M24.4135 14.7106L23.8512 15.5007L24.8209 15.5005L27.6111 15.5C27.6111 15.5 27.6112 15.5 27.6112 15.5C28.1529 15.5 28.5 15.8841 28.5 16.25V19.75C28.5 20.0728 28.2377 20.4027 27.7997 20.483L27.39 20.5582L27.3899 20.9747L27.3889 26.7499V26.75C27.3889 28.1689 26.1421 29.4078 24.4636 29.4952L24.2715 29.5H13.7222C12.0191 29.5 10.7077 28.3107 10.6163 26.9108L10.6111 26.7423L10.6112 20.975L10.6112 20.5581L10.201 20.4831C9.76259 20.4031 9.5 20.073 9.5 19.75V16.25C9.5 15.8841 9.84707 15.5 10.3888 15.5C10.3888 15.5 10.3889 15.5 10.3889 15.5L13.1791 15.5005L14.1488 15.5007L13.5865 14.7106C13.2832 14.2844 13.1111 13.7839 13.1111 13.25C13.1111 11.7795 14.4531 10.5 16.2222 10.5C17.2037 10.5 18.0681 10.9011 18.6333 11.5131L19.001 11.9113L19.3683 11.5128C19.9321 10.9011 20.7962 10.5 21.7778 10.5C23.5469 10.5 24.8889 11.7795 24.8889 13.25C24.8889 13.7839 24.7168 14.2844 24.4135 14.7106ZM18.6667 20.999V20.499H18.1667H11.7778H11.2778V20.999V26.75C11.2778 27.9753 12.3132 28.9042 13.5263 28.9929L13.5354 28.9935L13.5446 28.9939L13.704 28.9997L13.7131 29H13.7222H18.1667H18.6667V28.5V20.999ZM26.7222 20.999V20.499H26.2222H19.8333H19.3333V20.999V28.5V29H19.8333H24.2778C25.5147 29 26.6058 28.1353 26.7138 26.9384L26.7148 26.9272L26.7153 26.916L26.7217 26.7724L26.7222 26.7612V26.75V20.999ZM18.6667 16H18.1667H10.6667H10.1667V16.5V19.5V20.0001L10.6667 20L18.1667 19.999L18.6667 19.9989V19.499V16.5V16ZM27.3333 20L27.8333 20.0001V19.5V16.5V16H27.3333H19.8333H19.3333V16.5V19.499V19.9989L19.8333 19.999L27.3333 20ZM19.3333 14.999V15.499H19.8333H21.8044H21.8135L21.8225 15.4987L21.9553 15.4939L21.9645 15.4935L21.9737 15.4929C23.1868 15.4042 24.2222 14.4753 24.2222 13.25C24.2222 11.9591 23.077 11 21.7778 11C20.4786 11 19.3333 11.9591 19.3333 13.25V14.999ZM16.0263 15.4929L16.0355 15.4935L16.0447 15.4939L16.1775 15.4987L16.1865 15.499H16.1956H18.1667H18.6667V14.999V13.25V13.2388L18.6662 13.2276L18.6597 13.084L18.6592 13.0728L18.6582 13.0616C18.5502 11.8647 17.4591 11 16.2222 11C14.923 11 13.7778 11.9591 13.7778 13.25C13.7778 14.4753 14.8132 15.4042 16.0263 15.4929Z" fill="#464775" stroke="#464775"/>
</svg>
