<svg width="82" height="64" viewBox="0 0 82 64" fill="none" xmlns="http://www.w3.org/2000/svg">
<g clip-path="url(#clip0)">
<path d="M76.1624 13.1559L16.1207 0.145876C14.4615 -0.210962 12.7278 0.101913 11.2999 1.01591C9.87192 1.92991 8.86616 3.37044 8.50309 5.02171L0.15103 43.2595C-0.0290855 44.0778 -0.0453871 44.9234 0.103058 45.748C0.251502 46.5725 0.561779 47.3598 1.01613 48.0649C1.47048 48.7699 2.05999 49.3787 2.75092 49.8566C3.44184 50.3345 4.22062 50.672 5.04269 50.8499L65.089 63.8552C65.6544 63.979 66.2343 64.0247 66.8122 63.9912C68.2093 63.9107 69.5416 63.3774 70.6059 62.4725C71.6702 61.5676 72.4079 60.3408 72.7066 58.9794L81.0587 20.7416C81.4184 19.0892 81.1047 17.3622 80.1867 15.9399C79.2686 14.5176 77.8212 13.5163 76.1624 13.1559Z" fill="#EE8F94"/>
<path d="M67.1923 58.7719L75.9541 18.6543L14.0269 5.2424L5.26507 45.36L67.1923 58.7719Z" fill="white"/>
<path d="M12.9958 9.93945L74.9254 23.3527" stroke="#E1DFDD" stroke-width="2.40254" stroke-miterlimit="10"/>
<path d="M12.0399 14.3281L73.9648 27.7414" stroke="#E1DFDD" stroke-width="2.40254" stroke-miterlimit="10"/>
<path d="M11.0791 18.7109L73.004 32.1289" stroke="#E1DFDD" stroke-width="2.40254" stroke-miterlimit="10"/>
<path d="M10.1233 23.0996L72.0481 36.5175" stroke="#E1DFDD" stroke-width="2.40254" stroke-miterlimit="10"/>
<path d="M9.16247 27.4883L71.0873 40.9015" stroke="#E1DFDD" stroke-width="2.40254" stroke-miterlimit="10"/>
<path d="M8.20168 31.876L70.1313 45.2892" stroke="#E1DFDD" stroke-width="2.40254" stroke-miterlimit="10"/>
<path d="M7.2458 36.2598L69.1707 49.6777" stroke="#E1DFDD" stroke-width="2.40254" stroke-miterlimit="10"/>
<path d="M6.28501 40.6484L68.2146 54.0664" stroke="#E1DFDD" stroke-width="2.40254" stroke-miterlimit="10"/>
<path d="M39.0281 52.6723L47.7899 12.5547L42.1865 11.3411L33.4247 51.4588L39.0281 52.6723Z" fill="white"/>
<path d="M67.0771 58.7456L75.8389 18.6279L70.2355 17.4144L61.4737 57.532L67.0771 58.7456Z" fill="white"/>
<path d="M10.9791 46.5942L19.7409 6.47656L14.1375 5.26301L5.3757 45.3806L10.9791 46.5942Z" fill="white"/>
</g>
<defs>
<clipPath id="clip0">
<rect width="81.2043" height="64" fill="white"/>
</clipPath>
</defs>
</svg>
