<svg width="216" height="216" viewBox="0 0 216 216" fill="none" xmlns="http://www.w3.org/2000/svg">
<rect x="0.5" y="0.5" width="215" height="215" rx="2.5" fill="#FDF6D7" stroke="#FAF9F8"/>
<path d="M120.721 44.4459H95.2788C92.2678 44.4459 89.8269 46.9565 89.8269 50.0535C89.8269 53.1506 92.2678 55.6612 95.2788 55.6612H120.721C123.732 55.6612 126.173 53.1506 126.173 50.0535C126.173 46.9565 123.732 44.4459 120.721 44.4459ZM95.2788 33.2305H120.721C129.754 33.2305 137.077 40.7624 137.077 50.0535C137.077 49.4203 137.043 48.7952 136.977 48.1801L149.798 48.1843C158.831 48.1843 166.154 55.7163 166.154 65.0074V165.946C166.154 175.237 158.831 182.769 149.798 182.769H66.2019C57.1689 182.769 49.8461 175.237 49.8461 165.946V65.0074C49.8461 55.7163 57.1689 48.1843 66.2019 48.1843L79.0233 48.1801C78.9571 48.7952 78.9231 49.4203 78.9231 50.0535C78.9231 40.7624 86.2458 33.2305 95.2788 33.2305Z" fill="#5C5300"/>
<path d="M95.7556 97.1114C94.3181 89.8185 100.2 83.0771 108 83.0771C115.8 83.0771 121.682 89.8185 120.244 97.1114L115.111 123.156C114.469 126.411 111.481 128.769 108 128.769C104.519 128.769 101.531 126.411 100.889 123.156L95.7556 97.1114Z" fill="#FDF6D7"/>
<path d="M116.308 145.385C116.308 149.973 112.588 153.693 108 153.693C103.412 153.693 99.6923 149.973 99.6923 145.385C99.6923 140.797 103.412 137.077 108 137.077C112.588 137.077 116.308 140.797 116.308 145.385Z" fill="#FDF6D7"/>
</svg>
