<svg width="40" height="40" viewBox="0 0 40 40" fill="none" xmlns="http://www.w3.org/2000/svg">
<path d="M0 6.4C0 4.15979 0 3.03968 0.435974 2.18404C0.819467 1.43139 1.43139 0.819467 2.18404 0.435974C3.03968 0 4.15979 0 6.4 0H33.6C35.8402 0 36.9603 0 37.816 0.435974C38.5686 0.819467 39.1805 1.43139 39.564 2.18404C40 3.03968 40 4.15979 40 6.4V33.6C40 35.8402 40 36.9603 39.564 37.816C39.1805 38.5686 38.5686 39.1805 37.816 39.564C36.9603 40 35.8402 40 33.6 40H6.4C4.15979 40 3.03968 40 2.18404 39.564C1.43139 39.1805 0.819467 38.5686 0.435974 37.816C0 36.9603 0 35.8402 0 33.6V6.4Z" fill="#F4F4FC"/>
<path d="M27.2496 19.0009C28.2163 19.0009 29 19.7844 29 20.7508V27.2502C29 28.2166 28.2163 29 27.2496 29H22.7487C21.782 29 20.9983 28.2166 20.9983 27.2502V20.7508C20.9983 19.7844 21.782 19.0009 22.7487 19.0009H27.2496ZM17.2657 23.013C18.2324 23.013 19.0161 23.7964 19.0161 24.7628V27.2502C19.0161 28.2166 18.2324 29 17.2657 29H12.7504C11.7837 29 11 28.2166 11 27.2502V24.7628C11 23.7964 11.7837 23.013 12.7504 23.013H17.2657ZM27.2496 20.5008H22.7487C22.6106 20.5008 22.4986 20.6127 22.4986 20.7508V27.2502C22.4986 27.3882 22.6106 27.5001 22.7487 27.5001H27.2496C27.3877 27.5001 27.4997 27.3882 27.4997 27.2502V20.7508C27.4997 20.6127 27.3877 20.5008 27.2496 20.5008ZM17.2657 24.5128H12.7504C12.6123 24.5128 12.5003 24.6248 12.5003 24.7628V27.2502C12.5003 27.3882 12.6123 27.5001 12.7504 27.5001H17.2657C17.4038 27.5001 17.5158 27.3882 17.5158 27.2502V24.7628C17.5158 24.6248 17.4038 24.5128 17.2657 24.5128ZM17.2513 11C18.218 11 19.0017 11.7834 19.0017 12.7498V19.2492C19.0017 20.1673 18.2944 20.9203 17.3949 20.9933L17.2513 20.9991H12.7504C11.7837 20.9991 11 20.2156 11 19.2492V12.7498C11 11.7834 11.7837 11 12.7504 11H17.2513ZM17.2513 12.4999H12.7504C12.6123 12.4999 12.5003 12.6118 12.5003 12.7498V19.2492C12.5003 19.3873 12.6123 19.4992 12.7504 19.4992H17.2513L17.3087 19.4926C17.4191 19.4667 17.5014 19.3676 17.5014 19.2492V12.7498C17.5014 12.6118 17.3894 12.4999 17.2513 12.4999ZM27.2496 11C28.2163 11 29 11.7834 29 12.7498V15.2496C29 16.216 28.2163 16.9994 27.2496 16.9994H22.7487C21.782 16.9994 20.9983 16.216 20.9983 15.2496V12.7498C20.9983 11.7834 21.782 11 22.7487 11H27.2496ZM22.7487 12.4999C22.6106 12.4999 22.4986 12.6118 22.4986 12.7498V15.2496C22.4986 15.3877 22.6106 15.4996 22.7487 15.4996H27.2496C27.3877 15.4996 27.4997 15.3877 27.4997 15.2496V12.7498C27.4997 12.6118 27.3877 12.4999 27.2496 12.4999H22.7487Z" fill="#464775"/>
</svg>
