<svg width="40" height="40" viewBox="0 0 40 40" fill="none" xmlns="http://www.w3.org/2000/svg">
<path d="M0 6.4C0 4.15979 0 3.03968 0.435974 2.18404C0.819467 1.43139 1.43139 0.819467 2.18404 0.435974C3.03968 0 4.15979 0 6.4 0H33.6C35.8402 0 36.9603 0 37.816 0.435974C38.5686 0.819467 39.1805 1.43139 39.564 2.18404C40 3.03968 40 4.15979 40 6.4V33.6C40 35.8402 40 36.9603 39.564 37.816C39.1805 38.5686 38.5686 39.1805 37.816 39.564C36.9603 40 35.8402 40 33.6 40H6.4C4.15979 40 3.03968 40 2.18404 39.564C1.43139 39.1805 0.819467 38.5686 0.435974 37.816C0 36.9603 0 35.8402 0 33.6V6.4Z" fill="#F4F4FC"/>
<path d="M19.75 15.5C19.3358 15.5 19 15.8358 19 16.25C19 16.6642 19.3358 17 19.75 17C21.072 17 22.4618 17.7587 23.1594 18.7557C23.3969 19.0951 23.8645 19.1778 24.2039 18.9403C24.5433 18.7028 24.6259 18.2352 24.3885 17.8958C23.4134 16.5022 21.5672 15.5 19.75 15.5Z" fill="#464775"/>
<path d="M17.5 12.5C17.5 11.1193 18.6193 10 20 10C21.3807 10 22.5 11.1193 22.5 12.5V13.3796C25.8398 14.4332 28.25 17.5608 28.25 21.25C28.25 21.6642 27.9142 22 27.5 22H12.5C12.0858 22 11.75 21.6642 11.75 21.25C11.75 17.5714 14.1722 14.457 17.5 13.3921V12.5ZM21 12.5C21 11.9477 20.5523 11.5 20 11.5C19.4477 11.5 19 11.9477 19 12.5V13.0626C19.3348 13.0213 19.6757 13 20.0214 13C20.3527 13 20.6792 13.0195 21 13.0575V12.5ZM13.2915 20.5H26.7091C26.3382 17.1236 23.4925 14.5 20.0214 14.5C16.5456 14.5 13.6672 17.128 13.2915 20.5Z" fill="#464775"/>
<path d="M12 23C10.8954 23 10 23.8954 10 25C10 26.1046 10.8954 27 12 27H28C29.1046 27 30 26.1046 30 25C30 23.8954 29.1046 23 28 23H12ZM11.5 25C11.5 24.7239 11.7239 24.5 12 24.5H28C28.2761 24.5 28.5 24.7239 28.5 25C28.5 25.2761 28.2761 25.5 28 25.5H12C11.7239 25.5 11.5 25.2761 11.5 25Z" fill="#464775"/>
</svg>
