<svg width="40" height="40" viewBox="0 0 40 40" fill="none" xmlns="http://www.w3.org/2000/svg">
<path d="M0 6.4C0 4.15979 0 3.03968 0.435974 2.18404C0.819467 1.43139 1.43139 0.819467 2.18404 0.435974C3.03968 0 4.15979 0 6.4 0H33.6C35.8402 0 36.9603 0 37.816 0.435974C38.5686 0.819467 39.1805 1.43139 39.564 2.18404C40 3.03968 40 4.15979 40 6.4V33.6C40 35.8402 40 36.9603 39.564 37.816C39.1805 38.5686 38.5686 39.1805 37.816 39.564C36.9603 40 35.8402 40 33.6 40H6.4C4.15979 40 3.03968 40 2.18404 39.564C1.43139 39.1805 0.819467 38.5686 0.435974 37.816C0 36.9603 0 35.8402 0 33.6V6.4Z" fill="#F4F4FC"/>
<path d="M22.6246 11.0974C24.138 10.6919 25.6936 11.59 26.0991 13.1034L28.9026 23.5662C29.3081 25.0796 28.41 26.6352 26.8966 27.0407L20.4197 28.7762C18.9063 29.1817 17.3507 28.2836 16.9451 26.7702L14.1417 16.3074C13.7361 14.794 14.6343 13.2384 16.1477 12.8329L22.6246 11.0974ZM14.1313 20.2585L15.9487 27.0372C16.1354 27.7339 16.5008 28.335 16.9825 28.8043L16.5256 28.7798C14.961 28.6978 13.759 27.3629 13.841 25.7983L14.1313 20.2585ZM23.0251 12.5921L16.5482 14.3276C15.8602 14.5119 15.452 15.219 15.6363 15.9069L18.4398 26.3697C18.6242 27.0576 19.3312 27.4658 20.0192 27.2815L26.4961 25.546C27.184 25.3617 27.5923 24.6546 27.4079 23.9667L24.6044 13.5039C24.4201 12.816 23.713 12.4077 23.0251 12.5921ZM13.1775 18.7336L12.8108 25.7443C12.7731 26.4651 12.9351 27.1501 13.2485 27.7456L12.821 27.5799C11.3583 27.0184 10.6277 25.3775 11.1892 23.9147L13.1775 18.7336ZM18.1942 15.4885C18.7446 15.341 19.3102 15.6676 19.4577 16.2179C19.6051 16.7683 19.2786 17.3339 18.7282 17.4814C18.1779 17.6289 17.6122 17.3023 17.4648 16.7519C17.3173 16.2016 17.6439 15.6359 18.1942 15.4885Z" fill="#464775"/>
</svg>
