<svg width="40" height="40" viewBox="0 0 40 40" fill="none" xmlns="http://www.w3.org/2000/svg">
<rect width="40" height="40" rx="4" fill="#F4F4FC"/>
<path d="M12.5 20.5C12.7109 20.5 12.9062 20.5391 13.0859 20.6172C13.2656 20.6953 13.4219 20.8047 13.5547 20.9453C13.6953 21.0781 13.8047 21.2344 13.8828 21.4141C13.9609 21.5938 14 21.7891 14 22C14 22.2109 13.9609 22.4062 13.8828 22.5859C13.8047 22.7656 13.6953 22.9258 13.5547 23.0664C13.4219 23.1992 13.2656 23.3047 13.0859 23.3828C12.9062 23.4609 12.7109 23.5 12.5 23.5C12.2891 23.5 12.0938 23.4609 11.9141 23.3828C11.7344 23.3047 11.5742 23.1992 11.4336 23.0664C11.3008 22.9258 11.1953 22.7656 11.1172 22.5859C11.0391 22.4062 11 22.2109 11 22C11 21.7891 11.0391 21.5938 11.1172 21.4141C11.1953 21.2344 11.3008 21.0781 11.4336 20.9453C11.5742 20.8047 11.7344 20.6953 11.9141 20.6172C12.0938 20.5391 12.2891 20.5 12.5 20.5ZM27.5 20.5C27.7109 20.5 27.9062 20.5391 28.0859 20.6172C28.2656 20.6953 28.4219 20.8047 28.5547 20.9453C28.6953 21.0781 28.8047 21.2344 28.8828 21.4141C28.9609 21.5938 29 21.7891 29 22C29 22.2109 28.9609 22.4062 28.8828 22.5859C28.8047 22.7656 28.6953 22.9258 28.5547 23.0664C28.4219 23.1992 28.2656 23.3047 28.0859 23.3828C27.9062 23.4609 27.7109 23.5 27.5 23.5C27.2891 23.5 27.0938 23.4609 26.9141 23.3828C26.7344 23.3047 26.5742 23.1992 26.4336 23.0664C26.3008 22.9258 26.1953 22.7656 26.1172 22.5859C26.0391 22.4062 26 22.2109 26 22C26 21.7891 26.0391 21.5938 26.1172 21.4141C26.1953 21.2344 26.3008 21.0781 26.4336 20.9453C26.5742 20.8047 26.7344 20.6953 26.9141 20.6172C27.0938 20.5391 27.2891 20.5 27.5 20.5ZM31.5664 17.5L30.793 18.2617C30.8086 18.3008 30.8477 18.418 30.9102 18.6133C30.9727 18.8086 31.0469 19.0391 31.1328 19.3047C31.2266 19.5703 31.3242 19.8555 31.4258 20.1602C31.5273 20.4648 31.6211 20.7461 31.707 21.0039C31.793 21.2539 31.8633 21.4648 31.918 21.6367C31.9727 21.8008 32 21.8828 32 21.8828V29.5C32 29.7109 31.9609 29.9062 31.8828 30.0859C31.8047 30.2656 31.6953 30.4258 31.5547 30.5664C31.4219 30.6992 31.2656 30.8047 31.0859 30.8828C30.9062 30.9609 30.7109 31 30.5 31H29C28.7891 31 28.5938 30.9609 28.4141 30.8828C28.2344 30.8047 28.0742 30.6992 27.9336 30.5664C27.8008 30.4258 27.6953 30.2656 27.6172 30.0859C27.5391 29.9062 27.5 29.7109 27.5 29.5H12.5C12.5 29.7109 12.4609 29.9062 12.3828 30.0859C12.3047 30.2656 12.1953 30.4258 12.0547 30.5664C11.9219 30.6992 11.7656 30.8047 11.5859 30.8828C11.4062 30.9609 11.2109 31 11 31H9.5C9.28906 31 9.09375 30.9609 8.91406 30.8828C8.73438 30.8047 8.57422 30.6992 8.43359 30.5664C8.30078 30.4258 8.19531 30.2656 8.11719 30.0859C8.03906 29.9062 8 29.7109 8 29.5V21.8828C8 21.8828 8.02734 21.8008 8.08203 21.6367C8.13672 21.4648 8.20703 21.2539 8.29297 21.0039C8.37891 20.7461 8.47266 20.4648 8.57422 20.1602C8.67578 19.8555 8.76953 19.5703 8.85547 19.3047C8.94922 19.0391 9.02734 18.8086 9.08984 18.6133C9.15234 18.418 9.19141 18.3008 9.20703 18.2617L8.43359 17.5H8V16H9.06641L9.73438 16.6797L10.6016 14.0664C10.7266 13.6836 10.9062 13.3359 11.1406 13.0234C11.3828 12.7031 11.6602 12.4336 11.9727 12.2148C12.2852 11.9883 12.625 11.8125 12.9922 11.6875C13.3672 11.5625 13.7578 11.5 14.1641 11.5H25.8359C26.2422 11.5 26.6289 11.5625 26.9961 11.6875C27.3711 11.8125 27.7148 11.9883 28.0273 12.2148C28.3398 12.4336 28.6133 12.7031 28.8477 13.0234C29.082 13.3359 29.2656 13.6836 29.3984 14.0664L30.2656 16.6797L30.9336 16H32V17.5H31.5664ZM14.1641 13C13.6719 13 13.2305 13.1406 12.8398 13.4219C12.457 13.7031 12.1875 14.0742 12.0312 14.5352L11.0352 17.5H28.9648L27.9688 14.5352C27.8125 14.0742 27.5391 13.7031 27.1484 13.4219C26.7656 13.1406 26.3281 13 25.8359 13H14.1641ZM24.5 27.4258L23.2812 25H16.7188L15.5 27.4258V28H24.5V27.4258ZM30.5 28V22.1172C30.5 22.1172 30.4766 22.0469 30.4297 21.9062C30.3828 21.7578 30.3203 21.5742 30.2422 21.3555C30.1719 21.1367 30.0938 20.8984 30.0078 20.6406C29.9219 20.375 29.8398 20.1289 29.7617 19.9023C29.6836 19.668 29.6133 19.4688 29.5508 19.3047C29.4961 19.1406 29.4648 19.0391 29.457 19H10.543C10.5273 19.0391 10.4922 19.1406 10.4375 19.3047C10.3828 19.4688 10.3164 19.668 10.2383 19.9023C10.1602 20.1289 10.0781 20.375 9.99219 20.6406C9.90625 20.8984 9.82422 21.1367 9.74609 21.3555C9.67578 21.5742 9.61719 21.7578 9.57031 21.9062C9.52344 22.0469 9.5 22.1172 9.5 22.1172V28H14V27.0742L15.7812 23.5H24.2188L26 27.0742V28H30.5Z" fill="#464775"/>
</svg>
