<svg width="40" height="40" viewBox="0 0 40 40" fill="none" xmlns="http://www.w3.org/2000/svg">
<path d="M0 6.4C0 4.15979 0 3.03968 0.435974 2.18404C0.819467 1.43139 1.43139 0.819467 2.18404 0.435974C3.03968 0 4.15979 0 6.4 0H33.6C35.8402 0 36.9603 0 37.816 0.435974C38.5686 0.819467 39.1805 1.43139 39.564 2.18404C40 3.03968 40 4.15979 40 6.4V33.6C40 35.8402 40 36.9603 39.564 37.816C39.1805 38.5686 38.5686 39.1805 37.816 39.564C36.9603 40 35.8402 40 33.6 40H6.4C4.15979 40 3.03968 40 2.18404 39.564C1.43139 39.1805 0.819467 38.5686 0.435974 37.816C0 36.9603 0 35.8402 0 33.6V6.4Z" fill="#F4F4FC"/>
<path d="M22.25 10C22.6297 10 22.9435 10.2822 22.9932 10.6482L23 10.75V13H28.25C28.6642 13 29 13.3358 29 13.75V29.25C29 29.6642 28.6642 30 28.25 30H25.25C24.8358 30 24.5 29.6642 24.5 29.25V26.5H22.5V29.25C22.5 29.6642 22.1642 30 21.75 30H18.75C18.3358 30 18 29.6642 18 29.25V13.75C18 13.3358 18.3358 13 18.75 13H21.5V11.5H12.5V29.25C12.5 29.6642 12.1642 30 11.75 30C11.3703 30 11.0565 29.7178 11.0068 29.3518L11 29.25V10.75C11 10.3703 11.2822 10.0565 11.6482 10.0068L11.75 10H22.25ZM27.5 14.5H19.5V28.5H21V25.75C21 25.3358 21.3358 25 21.75 25H25.25C25.6642 25 26 25.3358 26 25.75V28.5H27.5V14.5ZM16 25V27H14V25H16ZM23 22V24H21V22H23ZM26 22V24H24V22H26ZM16 22V24H14V22H16ZM23 19V21H21V19H23ZM26 19V21H24V19H26ZM16 19V21H14V19H16ZM16 16V18H14V16H16ZM23 16V18H21V16H23ZM26 16V18H24V16H26ZM16 13V15H14V13H16Z" fill="#464775"/>
</svg>
