<svg width="40" height="40" viewBox="0 0 40 40" fill="none" xmlns="http://www.w3.org/2000/svg">
<path d="M0 4C0 1.79086 1.79086 0 4 0H36C38.2091 0 40 1.79086 40 4V36C40 38.2091 38.2091 40 36 40H4C1.79086 40 0 38.2091 0 36V4Z" fill="#F4F4FC"/>
<path d="M26 10C26.1739 10 26.3412 10.0604 26.4743 10.169L26.5498 10.2399L29.8221 13.7682L29.8528 13.8071C29.9545 13.9428 30.0004 14.0967 30.0004 14.2478L29.9989 16.1667C29.9989 17.1609 29.6204 18.0667 28.9996 18.7478L28.9988 29.25C28.9988 29.6297 28.7166 29.9435 28.3505 29.9932L28.2488 30H11.7513C11.3716 30 11.0578 29.7178 11.0081 29.3518L11.0013 29.25L11.0005 18.7478C10.4274 18.1191 10.0608 17.2989 10.0078 16.3945L10.0011 16.1667L10.0009 14.291C9.99285 14.1537 10.0225 14.0124 10.0969 13.8831L10.1621 13.7877L10.2013 13.7419L13.4502 10.2399C13.5685 10.1124 13.7265 10.0308 13.8967 10.0071L14 10H26ZM23.082 18.4421L23.07 18.4598C22.3711 19.3944 21.2556 19.9993 19.9988 19.9993C18.735 19.9993 17.6141 19.3876 16.9159 18.4441C16.2185 19.3876 15.0975 19.9993 13.8337 19.9993C13.3646 19.9993 12.9152 19.915 12.4997 19.7608L12.501 28.499H13.9996L14 21.751C14 21.3713 14.2822 21.0575 14.6482 21.0079L14.75 21.001H19.246C19.6257 21.001 19.9395 21.2832 19.9891 21.6492L19.996 21.751L19.9956 28.499H27.498L27.4983 19.7615C27.0834 19.9153 26.6347 19.9993 26.1663 19.9993C24.9016 19.9993 23.78 19.3867 23.082 18.4421ZM18.495 22.501H15.5V28.499H18.495V22.501ZM25.2547 21.001C25.6344 21.001 25.9482 21.2832 25.9979 21.6492L26.0047 21.751V25.253C26.0047 25.6327 25.7226 25.9465 25.3565 25.9962L25.2547 26.003H21.7533C21.3736 26.003 21.0598 25.7209 21.0101 25.3548L21.0033 25.253V21.751C21.0033 21.3713 21.2855 21.0575 21.6515 21.0079L21.7533 21.001H25.2547ZM24.504 22.501H22.503V24.503H24.504V22.501ZM16.166 15.002H11.501L11.5011 16.1667L11.5073 16.3378L11.5357 16.569L11.5684 16.7253L11.6178 16.8973L11.6722 17.0451L11.7128 17.1391C11.744 17.207 11.7783 17.2731 11.8156 17.3373L11.9186 17.4987L11.9729 17.5734L12.1016 17.7291L12.2434 17.8732L12.3397 17.9581L12.3817 17.9924C12.6963 18.2429 13.077 18.4138 13.4934 18.4747L13.674 18.4939L13.8337 18.4993C15.0683 18.4993 16.0788 17.5402 16.1609 16.3264L16.1663 16.1667L16.166 15.002ZM22.331 15.002H17.666L17.6663 16.1667C17.6663 17.3476 18.5438 18.3236 19.6823 18.478L19.8391 18.4939L19.9988 18.4993C21.2334 18.4993 22.244 17.5402 22.326 16.3264L22.3314 16.1667L22.331 15.002ZM28.498 15.002H23.833L23.8338 16.1667C23.8338 17.3476 24.7113 18.3236 25.8498 18.478L26.0066 18.4939L26.1663 18.4993C26.7306 18.4993 27.2481 18.2989 27.6516 17.9654L27.7413 17.8873L27.8572 17.7736L28.0033 17.6044C28.0574 17.5355 28.1076 17.4634 28.1537 17.3885L28.2573 17.2018L28.3202 17.0638L28.3784 16.9087L28.4082 16.8131L28.4464 16.6611L28.4748 16.5035L28.4928 16.3368L28.4989 16.1667L28.498 15.002ZM17.0616 11.499H14.327L12.469 13.502H16.4456L17.0616 11.499ZM21.3686 11.499H18.6306L18.0146 13.502H21.9846L21.3686 11.499ZM25.672 11.499H22.9376L23.5536 13.502H27.53L25.672 11.499Z" fill="#464775"/>
</svg>
