<svg width="196" height="180" viewBox="0 0 196 180" fill="none" xmlns="http://www.w3.org/2000/svg">
<path d="M89.3098 65.8206C82.0598 72.2306 56.7598 85.0806 44.9198 98.4906C35.7798 75.8106 15.4098 47.4106 0.259766 37.8106C14.6398 27.9406 28.1998 11.7006 44.6498 5.14062C58.5198 6.59063 86.0698 42.3706 89.3098 65.8206Z" fill="#F3F2F1"/>
<path d="M108.35 90.5013C99.9198 95.2413 76.4698 103.221 58.0898 113.101C55.9998 93.8213 43.8798 62.0013 30.2998 47.0813C48.7998 40.3413 70.1698 24.3413 83.2998 23.8613C93.4598 30.0013 106.58 60.8413 108.35 90.5013Z" fill="#E1DFDD"/>
<path d="M125.639 118.681C107.073 122.261 88.406 125.834 69.6393 129.401C69.666 104.179 65.3287 79.1434 56.8193 55.4007L108.999 44.7207C118.717 68.2466 124.345 93.2597 125.639 118.681Z" fill="#FAF9F8"/>
<path d="M86.6896 63.3801C86.4096 62.5201 86.1396 61.6601 85.8496 60.8101L103.62 57.0801L104.5 59.6401L86.6896 63.3801Z" fill="#E1DFDD"/>
<path d="M72.1395 77.08C71.0528 72.56 69.8195 68.0433 68.4395 63.53L81.2894 61C82.7294 65.5 84.0195 70.0133 85.1595 74.54L72.1395 77.08Z" fill="#E1DFDD"/>
<path d="M89.3602 73.0605C89.0802 72.0605 88.7902 70.9705 88.4902 69.9305L106.23 66.2305C106.54 67.2305 106.85 68.3105 107.15 69.3505L89.3602 73.0605Z" fill="#E1DFDD"/>
<path d="M74.2801 85.8702C74.0701 84.8702 73.8501 83.7802 73.6201 82.7402L108.51 75.7402C108.78 76.7402 109.03 77.8202 109.28 78.8602C97.6535 81.1869 85.9868 83.5236 74.2801 85.8702Z" fill="#E1DFDD"/>
<path d="M75.6597 95.3502C75.4997 94.3502 75.3196 93.2602 75.1396 92.2202L110.36 85.1602C110.57 86.1602 110.78 87.2502 110.98 88.2902C99.253 90.6435 87.4797 92.9968 75.6597 95.3502Z" fill="#E1DFDD"/>
<path d="M76.6202 104.811C76.5002 103.811 76.3702 102.731 76.2402 101.681C88.1202 99.3409 99.9636 96.9909 111.77 94.6309C111.94 95.6809 112.11 96.7209 112.26 97.7609L76.6202 104.811Z" fill="#E1DFDD"/>
<path d="M134.82 179.261H47.6802C45.9407 179.26 44.2184 178.916 42.6119 178.249C41.0054 177.582 39.5462 176.604 38.3175 175.373C37.0889 174.141 36.1149 172.68 35.4513 171.072C34.7878 169.464 34.4476 167.741 34.4502 166.001V119.691C34.4502 118.676 34.8537 117.701 35.572 116.983C36.2903 116.265 37.2644 115.861 38.2802 115.861H144.22C144.724 115.86 145.222 115.958 145.687 116.15C146.153 116.342 146.575 116.624 146.931 116.98C147.287 117.336 147.569 117.759 147.761 118.224C147.953 118.689 148.052 119.188 148.05 119.691V166.001C148.054 167.741 147.715 169.465 147.052 171.073C146.389 172.682 145.415 174.144 144.186 175.376C142.957 176.607 141.497 177.585 139.89 178.251C138.283 178.918 136.56 179.261 134.82 179.261Z" fill="#C3C3E1"/>
<path d="M102.939 136.001H79.5694C79.2792 136.001 78.9918 135.944 78.7236 135.833C78.4555 135.722 78.2119 135.559 78.0067 135.354C77.8015 135.149 77.6387 134.905 77.5276 134.637C77.4165 134.369 77.3594 134.082 77.3594 133.791V127.321C77.3594 126.735 77.5922 126.173 78.0067 125.759C78.4211 125.344 78.9833 125.111 79.5694 125.111H102.939C103.524 125.114 104.083 125.348 104.496 125.762C104.908 126.176 105.139 126.737 105.139 127.321V133.791C105.139 134.376 104.908 134.936 104.496 135.351C104.083 135.765 103.524 135.999 102.939 136.001Z" fill="#8B8CC4"/>
<path d="M152.609 55.3701C151.818 57.7545 150.326 59.8452 148.329 61.3701C148.256 61.4311 148.197 61.5075 148.156 61.5939C148.116 61.6803 148.095 61.7746 148.095 61.8701C148.095 61.9655 148.116 62.0598 148.156 62.1462C148.197 62.2327 148.256 62.3091 148.329 62.3701C150.305 64.1089 151.788 66.3368 152.629 68.8301C152.669 68.9707 152.753 69.0946 152.87 69.1828C152.986 69.271 153.128 69.3188 153.274 69.3188C153.42 69.3188 153.563 69.271 153.679 69.1828C153.795 69.0946 153.88 68.9707 153.919 68.8301C154.755 66.3337 156.239 64.1042 158.219 62.3701C158.293 62.3091 158.352 62.2327 158.392 62.1462C158.433 62.0598 158.454 61.9655 158.454 61.8701C158.454 61.7746 158.433 61.6803 158.392 61.5939C158.352 61.5075 158.293 61.4311 158.219 61.3701C156.223 59.8452 154.731 57.7545 153.939 55.3701C153.939 55.1937 153.869 55.0246 153.745 54.8998C153.62 54.7751 153.451 54.7051 153.274 54.7051C153.098 54.7051 152.929 54.7751 152.804 54.8998C152.679 55.0246 152.609 55.1937 152.609 55.3701Z" fill="#FFD590"/>
<path d="M169.779 48.3011C169.203 50.0168 168.123 51.5188 166.679 52.6111C166.623 52.6561 166.578 52.7131 166.546 52.778C166.515 52.8429 166.499 52.914 166.499 52.9861C166.499 53.0581 166.515 53.1292 166.546 53.1941C166.578 53.2591 166.623 53.3161 166.679 53.3611C168.099 54.6091 169.165 56.2096 169.769 58.0011C169.796 58.1043 169.856 58.1958 169.94 58.2612C170.024 58.3266 170.128 58.362 170.234 58.362C170.341 58.362 170.445 58.3266 170.529 58.2612C170.613 58.1958 170.673 58.1043 170.699 58.0011C171.307 56.1954 172.384 54.5838 173.819 53.3311C173.876 53.2861 173.921 53.2291 173.952 53.1641C173.984 53.0992 174 53.0281 174 52.9561C174 52.8841 173.984 52.8129 173.952 52.748C173.921 52.6831 173.876 52.6261 173.819 52.5811C172.376 51.4888 171.296 49.9868 170.719 48.2711C170.694 48.1635 170.632 48.0681 170.544 48.0009C170.456 47.9338 170.348 47.8991 170.237 47.9026C170.127 47.9061 170.021 47.9477 169.937 48.0203C169.854 48.0929 169.798 48.1921 169.779 48.3011Z" fill="#FFE5B9"/>
<path d="M79.3402 1.11086C78.7571 2.82585 77.674 4.32698 76.2302 5.42086C76.1739 5.46583 76.1285 5.52288 76.0972 5.5878C76.066 5.65271 76.0498 5.72382 76.0498 5.79586C76.0498 5.8679 76.066 5.93901 76.0972 6.00392C76.1285 6.06884 76.1739 6.12589 76.2302 6.17086C77.6656 7.42355 78.7424 9.03522 79.3502 10.8409C79.3766 10.9441 79.4367 11.0356 79.5209 11.101C79.6051 11.1663 79.7086 11.2018 79.8152 11.2018C79.9218 11.2018 80.0253 11.1663 80.1095 11.101C80.1937 11.0356 80.2537 10.9441 80.2802 10.8409C80.8914 9.03692 81.9676 7.42608 83.4002 6.17086C83.4582 6.12704 83.5052 6.07037 83.5376 6.00531C83.57 5.94024 83.5869 5.86854 83.5869 5.79586C83.5869 5.72318 83.57 5.65148 83.5376 5.58641C83.5052 5.52135 83.4582 5.46468 83.4002 5.42086C81.957 4.32859 80.8766 2.82656 80.3002 1.11086C80.3002 0.983557 80.2496 0.861466 80.1596 0.771448C80.0696 0.681431 79.9475 0.630859 79.8202 0.630859C79.6929 0.630859 79.5708 0.681431 79.4808 0.771448C79.3908 0.861466 79.3402 0.983557 79.3402 1.11086Z" fill="#FFE5B9"/>
<path d="M118.1 12.5102C117.733 13.6335 117.036 14.62 116.1 15.3402C116.064 15.3702 116.035 15.4077 116.015 15.45C115.996 15.4923 115.985 15.5385 115.985 15.5852C115.985 15.6319 115.996 15.678 116.015 15.7203C116.035 15.7626 116.064 15.8001 116.1 15.8302C117.024 16.66 117.714 17.7189 118.1 18.9002C118.123 18.9637 118.165 19.0186 118.22 19.0574C118.276 19.0962 118.342 19.117 118.41 19.117C118.477 19.117 118.543 19.0962 118.599 19.0574C118.654 19.0186 118.696 18.9637 118.719 18.9002C119.105 17.7189 119.795 16.66 120.719 15.8302C120.755 15.8001 120.784 15.7626 120.804 15.7203C120.823 15.678 120.834 15.6319 120.834 15.5852C120.834 15.5385 120.823 15.4923 120.804 15.45C120.784 15.4077 120.755 15.3702 120.719 15.3402C119.783 14.62 119.086 13.6335 118.719 12.5102C118.702 12.4413 118.662 12.3803 118.606 12.3368C118.55 12.2932 118.481 12.2695 118.41 12.2695C118.338 12.2695 118.269 12.2932 118.213 12.3368C118.157 12.3803 118.117 12.4413 118.1 12.5102Z" fill="#FFE5B9"/>
<path d="M95.6797 9.0018C94.8907 11.3876 93.3988 13.4791 91.3997 15.0018C91.3263 15.0628 91.2672 15.1392 91.2266 15.2256C91.1861 15.312 91.165 15.4063 91.165 15.5018C91.165 15.5973 91.1861 15.6915 91.2266 15.778C91.2672 15.8644 91.3263 15.9408 91.3997 16.0018C93.3749 17.7407 94.8578 19.9686 95.6997 22.4618C95.7392 22.6024 95.8237 22.7263 95.9401 22.8145C96.0565 22.9027 96.1986 22.9505 96.3447 22.9505C96.4908 22.9505 96.6329 22.9027 96.7493 22.8145C96.8658 22.7263 96.9502 22.6024 96.9897 22.4618C97.8251 19.9654 99.3091 17.7359 101.29 16.0018C101.363 15.9408 101.422 15.8644 101.463 15.778C101.503 15.6915 101.524 15.5973 101.524 15.5018C101.524 15.4063 101.503 15.312 101.463 15.2256C101.422 15.1392 101.363 15.0628 101.29 15.0018C99.2905 13.4771 97.7959 11.3866 96.9997 9.0018C96.9997 8.82675 96.9302 8.65888 96.8064 8.53511C96.6826 8.41133 96.5147 8.3418 96.3397 8.3418C96.1647 8.3418 95.9968 8.41133 95.873 8.53511C95.7492 8.65888 95.6797 8.82675 95.6797 9.0018Z" fill="#FFD590"/>
<path d="M196 130.18L189.88 135.93L126.75 65.4405L129.64 62.7305L196 130.18Z" fill="#F7B548"/>
<path d="M136.79 76.6512L179.84 124.721L185.45 119.461L140.19 73.4512L136.79 76.6512Z" fill="#797673"/>
</svg>
