<svg width="300" height="300" viewBox="0 0 300 300" fill="none" xmlns="http://www.w3.org/2000/svg">
<rect x="0.5" y="0.5" width="299" height="299" fill="#DFF5F5" stroke="#FAF9F8"/>
<path d="M235.732 89.0818C236.267 90.9017 236.538 92.7903 236.538 94.6888V195.079C236.538 205.95 227.821 214.763 217.067 214.763C215.189 214.763 213.32 214.488 211.519 213.947L163.803 199.602C158.115 211.369 146.179 219.231 132.692 219.231C114.154 219.231 99.0195 204.499 98.1193 185.984L98.0769 184.238L98.0683 179.857L77.3848 173.64C69.1252 171.158 63.4615 163.483 63.4615 154.772V134.984C63.4615 126.273 69.1259 118.597 77.3863 116.116L211.521 75.8206C221.829 72.724 232.669 78.6612 235.732 89.0818ZM111.049 183.759L111.058 184.238C111.058 196.316 120.744 206.108 132.692 206.108C140.353 206.108 147.216 202.047 151.072 195.79L111.049 183.759Z" fill="#0F7897"/>
</svg>
