<svg width="84" height="65" viewBox="0 0 84 65" fill="none" xmlns="http://www.w3.org/2000/svg">
<g clip-path="url(#clip0)">
<path d="M43.2458 49.5742L17.2631 58.9337C15.7855 59.466 15.0191 61.0953 15.5514 62.5729C16.0836 64.0505 17.7129 64.8169 19.1906 64.2846L45.1733 54.9251C46.6509 54.3929 47.4173 52.7635 46.885 51.2859C46.3527 49.8083 44.7234 49.042 43.2458 49.5742Z" fill="#F7B548"/>
<path d="M22.7822 13.7947L4.91052 20.2324L9.58874 33.2196L27.4604 26.7819L22.7822 13.7947Z" fill="#F3F2F1"/>
<path d="M55.5781 19.2125C49.509 21.0152 43.4685 22.9201 37.4566 24.927C35.616 18.7827 35.1392 12.3106 36.0595 5.96283C43.8387 5.24573 51.6776 5.52439 59.3862 6.79206C56.9068 10.4599 55.5806 14.7853 55.5781 19.2125V19.2125Z" fill="#E1DFDD"/>
<path d="M83.2043 30.8667C76.9458 32.9613 70.908 35.6648 65.1774 38.9383C63.6321 34.5531 62.7422 29.9639 62.5365 25.319C67.4559 21.2665 73.2291 18.3806 79.4231 16.8779C79.4585 21.7886 80.7608 26.607 83.2043 30.8667V30.8667Z" fill="#F3F2F1"/>
<path d="M40.0121 14.21C33.9431 16.0126 27.8981 17.8964 21.8771 19.8614C20.0405 13.7823 19.5288 7.38006 20.3764 1.08643C26.8093 -0.0336224 33.3633 -0.286748 39.8634 0.333807C38.6297 4.88406 38.6812 9.6872 40.0121 14.21Z" fill="#F3F2F1"/>
<path d="M40.0119 14.2103C38.5832 14.6339 37.1501 15.0575 35.7215 15.5037C35.4877 12.3193 35.5995 9.11887 36.055 5.95851C37.0404 5.86838 38.0274 5.79627 39.0159 5.74219C38.8652 8.60095 39.202 11.4645 40.0119 14.2103V14.2103Z" fill="#C8C6C4"/>
<path d="M32.101 23.1054L10.1293 31.02C4.89564 32.9053 2.18122 38.6763 4.0665 43.91L7.39302 53.1447C9.2783 58.3784 15.0493 61.0928 20.283 59.2076L42.2547 51.2929C47.4884 49.4077 50.2028 43.6366 48.3176 38.4029L44.991 29.1682C43.1058 23.9345 37.3347 21.2201 32.101 23.1054Z" fill="#B3AFAB"/>
<path d="M27.0801 24.9125L6.86373 32.1948C1.63005 34.0801 -1.08437 39.8511 0.800901 45.0848L4.12743 54.3195C6.0127 59.5532 11.7838 62.2676 17.0174 60.3824L37.2338 53.1001C42.4675 51.2148 45.1819 45.4437 43.2966 40.2101L39.9701 30.9753C38.0848 25.7416 32.3138 23.0272 27.0801 24.9125Z" fill="#C8C6C4"/>
<path d="M23.1025 53.4091C29.2553 53.4091 34.2431 48.4213 34.2431 42.2685C34.2431 36.1157 29.2553 31.1279 23.1025 31.1279C16.9497 31.1279 11.9619 36.1157 11.9619 42.2685C11.9619 48.4213 16.9497 53.4091 23.1025 53.4091Z" fill="white" stroke="#FFD590" stroke-width="2.19026" stroke-miterlimit="10"/>
<path d="M20.3315 34.5762L23.1031 42.2691L20.1242 46.253" fill="white"/>
<path d="M20.3315 34.5762L23.1031 42.2691L20.1242 46.253" stroke="#F7B548" stroke-width="2.33447" stroke-linecap="round" stroke-linejoin="round"/>
</g>
<defs>
<clipPath id="clip0">
<rect width="83" height="64.4549" fill="white" transform="translate(0.204285)"/>
</clipPath>
</defs>
</svg>
