<svg width="52" height="52" viewBox="0 0 52 52" fill="none" xmlns="http://www.w3.org/2000/svg">
<rect x="0.5" y="0.5" width="51" height="51" rx="2.5" fill="#FAF2FA" stroke="#FAF9F8"/>
<path d="M29.0625 10.7H22.9375C22.2126 10.7 21.625 11.3044 21.625 12.05C21.625 12.7956 22.2126 13.4 22.9375 13.4H29.0625C29.7874 13.4 30.375 12.7956 30.375 12.05C30.375 11.3044 29.7874 10.7 29.0625 10.7ZM29.0625 8C31.0559 8 32.7033 9.52363 32.9641 11.5004L32.9878 11.744L32.9759 11.599L36.0625 11.6C38.2371 11.6 40 13.4132 40 15.65V39.95C40 42.1868 38.2371 44 36.0625 44H15.9375C13.7629 44 12 42.1868 12 39.95V15.65C12 13.4132 13.7629 11.6 15.9375 11.6L19.0241 11.599L19.0105 11.744L19.0359 11.5004C19.2967 9.52363 20.9441 8 22.9375 8H29.0625ZM29.5 35H19C18.2751 35 17.6875 35.6044 17.6875 36.35C17.6875 37.0956 18.2751 37.7 19 37.7H29.5C30.2249 37.7 30.8125 37.0956 30.8125 36.35C30.8125 35.6044 30.2249 35 29.5 35ZM26 27.8H19C18.2751 27.8 17.6875 28.4044 17.6875 29.15C17.6875 29.8956 18.2751 30.5 19 30.5H26C26.7249 30.5 27.3125 29.8956 27.3125 29.15C27.3125 28.4044 26.7249 27.8 26 27.8ZM33 20.6H19C18.2751 20.6 17.6875 21.2044 17.6875 21.95C17.6875 22.6956 18.2751 23.3 19 23.3H33C33.7249 23.3 34.3125 22.6956 34.3125 21.95C34.3125 21.2044 33.7249 20.6 33 20.6Z" fill="#930093"/>
</svg>
