<svg width="40" height="40" viewBox="0 0 40 40" fill="none" xmlns="http://www.w3.org/2000/svg">
<path d="M0 4C0 1.79086 1.79086 0 4 0H36C38.2091 0 40 1.79086 40 4V36C40 38.2091 38.2091 40 36 40H4C1.79086 40 0 38.2091 0 36V4Z" fill="#F4F4FC"/>
<path d="M24.25 11C26.3211 11 28 12.6789 28 14.75V23.75C28 25.5253 26.7664 27.0124 25.1097 27.401L27.5725 28.5729C27.9464 28.7509 28.1052 29.1985 27.9272 29.5725C27.7639 29.9153 27.3743 30.0773 27.0224 29.9647L26.9276 29.9271L21.8298 27.5H18.1688L13.0725 29.9271C12.6985 30.1052 12.2509 29.9464 12.0729 29.5725C11.8948 29.1985 12.0536 28.7509 12.4276 28.5729L14.8899 27.4009C13.2334 27.0121 12 25.5251 12 23.75V14.75C12 12.6789 13.6789 11 15.75 11H24.25ZM26.4998 22H13.4998L13.5 23.75C13.5 24.9926 14.5074 26 15.75 26H24.25C25.4926 26 26.5 24.9926 26.5 23.75L26.4998 22ZM16 23C16.5523 23 17 23.4477 17 24C17 24.5523 16.5523 25 16 25C15.4477 25 15 24.5523 15 24C15 23.4477 15.4477 23 16 23ZM24 23C24.5523 23 25 23.4477 25 24C25 24.5523 24.5523 25 24 25C23.4477 25 23 24.5523 23 24C23 23.4477 23.4477 23 24 23ZM24.25 12.5H15.75C14.5074 12.5 13.5 13.5074 13.5 14.75L13.4998 20.5H26.4998L26.5 14.75C26.5 13.5074 25.4926 12.5 24.25 12.5ZM21.25 14C21.6642 14 22 14.3358 22 14.75C22 15.1642 21.6642 15.5 21.25 15.5H18.75C18.3358 15.5 18 15.1642 18 14.75C18 14.3358 18.3358 14 18.75 14H21.25Z" fill="#464775"/>
</svg>
