<svg width="40" height="40" viewBox="0 0 40 40" fill="none" xmlns="http://www.w3.org/2000/svg">
<path d="M0 6.4C0 4.15979 0 3.03968 0.435974 2.18404C0.819467 1.43139 1.43139 0.819467 2.18404 0.435974C3.03968 0 4.15979 0 6.4 0H33.6C35.8402 0 36.9603 0 37.816 0.435974C38.5686 0.819467 39.1805 1.43139 39.564 2.18404C40 3.03968 40 4.15979 40 6.4V33.6C40 35.8402 40 36.9603 39.564 37.816C39.1805 38.5686 38.5686 39.1805 37.816 39.564C36.9603 40 35.8402 40 33.6 40H6.4C4.15979 40 3.03968 40 2.18404 39.564C1.43139 39.1805 0.819467 38.5686 0.435974 37.816C0 36.9603 0 35.8402 0 33.6V6.4Z" fill="#F4F4FC"/>
<path d="M21.9951 19C21.9951 19.8374 21.4804 20.5545 20.75 20.8523L20.75 23.25C20.75 23.6642 20.4142 24 20 24C19.5858 24 19.25 23.6642 19.25 23.25L19.25 20.8559C18.515 20.5603 17.996 19.8408 17.996 19C17.996 17.8957 18.8913 17.0005 19.9956 17.0005C21.0999 17.0005 21.9951 17.8957 21.9951 19Z" fill="#464775"/>
<path fill-rule="evenodd" clip-rule="evenodd" d="M11.75 13C11.3358 13 11 13.3358 11 13.75V19C11 24.0012 13.9576 27.6757 19.7251 29.9478C19.9018 30.0174 20.0982 30.0174 20.2749 29.9478C26.0424 27.6757 29 24.0012 29 19V13.75C29 13.3358 28.6642 13 28.25 13C25.5866 13 22.992 12.0565 20.45 10.15C20.1833 9.95 19.8167 9.95 19.55 10.15C17.008 12.0565 14.4134 13 11.75 13ZM12.5 19V14.4779C15.0773 14.3258 17.5808 13.3883 20 11.6778C22.4192 13.3883 24.9227 14.3258 27.5 14.4779V19C27.5 23.2556 25.0466 26.3789 20 28.4419C14.9534 26.3789 12.5 23.2556 12.5 19Z" fill="#464775"/>
</svg>
