<svg width="40" height="40" viewBox="0 0 40 40" fill="none" xmlns="http://www.w3.org/2000/svg">
<path d="M0 6.4C0 4.15979 0 3.03968 0.435974 2.18404C0.819467 1.43139 1.43139 0.819467 2.18404 0.435974C3.03968 0 4.15979 0 6.4 0H33.6C35.8402 0 36.9603 0 37.816 0.435974C38.5686 0.819467 39.1805 1.43139 39.564 2.18404C40 3.03968 40 4.15979 40 6.4V33.6C40 35.8402 40 36.9603 39.564 37.816C39.1805 38.5686 38.5686 39.1805 37.816 39.564C36.9603 40 35.8402 40 33.6 40H6.4C4.15979 40 3.03968 40 2.18404 39.564C1.43139 39.1805 0.819467 38.5686 0.435974 37.816C0 36.9603 0 35.8402 0 33.6V6.4Z" fill="#F4F4FC"/>
<path d="M26.25 11.25C26.6297 11.25 26.9435 11.5322 26.9932 11.8982L27 12V28C27 28.4142 26.6642 28.75 26.25 28.75C25.8703 28.75 25.5565 28.4678 25.5068 28.1018L25.5 28V23H23.25C22.8703 23 22.5565 22.7178 22.5068 22.3518L22.5 22.25V15C22.5 12.9289 24.1789 11.25 26.25 11.25ZM20.25 11.25C20.6297 11.25 20.9435 11.5322 20.9932 11.8982L21 12V16C21 17.9526 19.6009 19.5784 17.7506 19.9297L17.75 28C17.75 28.4142 17.4142 28.75 17 28.75C16.6203 28.75 16.3065 28.4678 16.2568 28.1018L16.25 28L16.2504 19.9299C14.4657 19.5915 13.1005 18.0675 13.0053 16.2079L13 16V12C13 11.5858 13.3358 11.25 13.75 11.25C14.1297 11.25 14.4435 11.5322 14.4932 11.8982L14.5 12V16C14.5 17.1196 15.2359 18.0672 16.2504 18.3857L16.25 12C16.25 11.5858 16.5858 11.25 17 11.25C17.3797 11.25 17.6935 11.5322 17.7432 11.8982L17.75 12L17.7506 18.3854C18.7082 18.0843 19.4174 17.2225 19.4933 16.1849L19.5 16V12C19.5 11.5858 19.8358 11.25 20.25 11.25ZM25.5 21.5V12.878C24.6775 13.1687 24.0745 13.9241 24.0064 14.8287L24 15V21.5H25.5V12.878V21.5Z" fill="#464775"/>
</svg>
