<svg width="40" height="40" viewBox="0 0 40 40" fill="none" xmlns="http://www.w3.org/2000/svg">
<path d="M0 4C0 1.79086 1.79086 0 4 0H36C38.2091 0 40 1.79086 40 4V36C40 38.2091 38.2091 40 36 40H4C1.79086 40 0 38.2091 0 36V4Z" fill="#F4F4FC"/>
<path fill-rule="evenodd" clip-rule="evenodd" d="M10.9244 12.1286C10.989 10.9348 11.9757 10 13.1712 10H14.3289C15.5244 10 16.5111 10.9348 16.5757 12.1286L17.4135 27.6286C17.4831 28.917 16.4571 30 15.1668 30H12.3333C11.043 30 10.017 28.917 10.0866 27.6286L10.9244 12.1286ZM13.1712 11.5C12.7727 11.5 12.4438 11.8116 12.4223 12.2095L11.5844 27.7095C11.5612 28.139 11.9032 28.5 12.3333 28.5H15.1668C15.5969 28.5 15.9389 28.139 15.9157 27.7095L15.0778 12.2095C15.0563 11.8116 14.7274 11.5 14.3289 11.5H13.1712Z" fill="#464775"/>
<path fill-rule="evenodd" clip-rule="evenodd" d="M17.5118 30H27.75C28.9926 30 30 28.9927 30 27.75V14C30 13.6995 29.8205 13.4279 29.544 13.3101C29.2675 13.1922 28.9474 13.2508 28.7306 13.459L23.75 18.2404V14C23.75 13.7095 23.5821 13.4451 23.3192 13.3214C23.0563 13.1977 22.7456 13.237 22.5218 13.4222L17.8557 17.2838L17.9564 19.1475L22.25 15.5942V20C22.25 20.3006 22.4294 20.5721 22.7059 20.69C22.9824 20.8078 23.3025 20.7492 23.5194 20.5411L28.5 15.7597V27.75C28.5 28.1642 28.1642 28.5 27.75 28.5H26.75V24C26.75 23.0335 25.9665 22.25 25 22.25H21C20.0335 22.25 19.25 23.0335 19.25 24L19.25 28.5H18.33C18.1946 29.0724 17.9072 29.5879 17.5118 30ZM25.25 24V28.25H20.75L20.75 24C20.75 23.8619 20.8619 23.75 21 23.75H25C25.1381 23.75 25.25 23.8619 25.25 24Z" fill="#464775"/>
</svg>
