<svg width="40" height="40" viewBox="0 0 40 40" fill="none" xmlns="http://www.w3.org/2000/svg">
<rect width="40" height="40" rx="4" fill="#F4F4FC"/>
<path fill-rule="evenodd" clip-rule="evenodd" d="M30.1096 19C30.339 19 30.539 18.8439 30.5947 18.6213L31.8877 13.4492C31.9511 13.1957 31.8086 12.9362 31.5607 12.8536L23.6581 10.2194C23.3344 10.1114 23.0002 10.3555 22.9228 10.6879C22.8846 10.8519 22.8322 11.0112 22.7656 11.166C22.6094 11.5293 22.3945 11.8477 22.1211 12.1211C21.8477 12.3945 21.5293 12.6094 21.166 12.7656C20.8027 12.9219 20.4141 13 20 13C19.5859 13 19.1973 12.9219 18.834 12.7656C18.4707 12.6094 18.1523 12.3945 17.8789 12.1211C17.6055 11.8477 17.3906 11.5293 17.2344 11.166C17.1678 11.0112 17.1154 10.8519 17.0772 10.6879C16.9998 10.3555 16.6657 10.1114 16.3419 10.2194L8.43926 12.8536C8.19139 12.9362 8.04893 13.1957 8.1123 13.4492L9.40532 18.6213C9.46096 18.8439 9.66095 19 9.89039 19H12C12.2761 19 12.5 19.2239 12.5 19.5V30.5C12.5 30.7761 12.7239 31 13 31H27C27.2761 31 27.5 30.7761 27.5 30.5V19.5C27.5 19.2239 27.7239 19 28 19H30.1096ZM23.8569 12.3217C23.9873 12.1061 24.2457 11.9938 24.4848 12.0736L29.7682 13.8381C30.0159 13.9208 30.1582 14.1802 30.0949 14.4336L29.4229 17.1216C29.3672 17.3441 29.1672 17.5003 28.9378 17.5003H26.5001C26.2239 17.5003 26.0001 17.7242 26.0001 18.0003V29.0003C26.0001 29.2764 25.7762 29.5003 25.5001 29.5003H14.5001C14.2239 29.5003 14.0001 29.2764 14.0001 29.0003V18.0003C14.0001 17.7242 13.7762 17.5003 13.5001 17.5003H11.0623C10.8329 17.5003 10.6329 17.3441 10.5772 17.1216L9.90526 14.4336C9.84192 14.1802 9.98423 13.9208 10.2319 13.8381L15.5153 12.0736C15.7544 11.9938 16.0128 12.1061 16.1432 12.3217C16.2885 12.562 16.455 12.7863 16.6426 12.9944C16.9278 13.3108 17.2461 13.5804 17.5977 13.803C17.9493 14.0257 18.3282 14.1976 18.7344 14.3186C19.1407 14.4397 19.5626 14.5003 20.0001 14.5003C20.4297 14.5003 20.8497 14.4397 21.2598 14.3186C21.67 14.1976 22.0508 14.0257 22.4024 13.803C22.754 13.5804 23.0723 13.3108 23.3575 12.9944C23.5451 12.7863 23.7116 12.562 23.8569 12.3217Z" fill="#464775"/>
</svg>
