<svg width="40" height="40" viewBox="0 0 40 40" fill="none" xmlns="http://www.w3.org/2000/svg">
<rect width="40" height="40" rx="4" fill="#F4F4FC"/>
<path d="M31.5 15.5V18.5H30V29.75C30 30.0156 29.9844 30.2852 29.9531 30.5586C29.9297 30.8242 29.8672 31.0664 29.7656 31.2852C29.6719 31.4961 29.5234 31.668 29.3203 31.8008C29.125 31.9336 28.8516 32 28.5 32C28.3047 32 28.0938 32.0039 27.8672 32.0117C27.6484 32.0195 27.4258 32.0156 27.1992 32C26.9805 31.9844 26.7656 31.9531 26.5547 31.9062C26.3516 31.8516 26.1719 31.7695 26.0156 31.6602C25.8594 31.5508 25.7344 31.4023 25.6406 31.2148C25.5469 31.0273 25.5 30.7891 25.5 30.5H15C15 30.7109 14.9609 30.9062 14.8828 31.0859C14.8047 31.2656 14.6953 31.4258 14.5547 31.5664C14.4219 31.6992 14.2656 31.8047 14.0859 31.8828C13.9062 31.9609 13.7109 32 13.5 32C12.9609 32 12.5 31.9961 12.1172 31.9883C11.7344 31.9805 11.4219 31.9141 11.1797 31.7891C10.9453 31.6562 10.7734 31.4375 10.6641 31.1328C10.5547 30.8203 10.5 30.3594 10.5 29.75V18.5H9V15.5H10.5V11.75C10.5 11.4375 10.5586 11.1445 10.6758 10.8711C10.793 10.5977 10.9531 10.3594 11.1562 10.1562C11.3594 9.95312 11.5977 9.79297 11.8711 9.67578C12.1445 9.55859 12.4375 9.5 12.75 9.5H27.75C28.0625 9.5 28.3555 9.55859 28.6289 9.67578C28.9023 9.79297 29.1406 9.95312 29.3438 10.1562C29.5469 10.3594 29.707 10.5977 29.8242 10.8711C29.9414 11.1445 30 11.4375 30 11.75V15.5H31.5ZM28.5 23H12V26H13.5C13.5 25.8594 13.4961 25.7031 13.4883 25.5312C13.4883 25.3516 13.5078 25.1875 13.5469 25.0391C13.5859 24.8828 13.6562 24.7539 13.7578 24.6523C13.8672 24.5508 14.0312 24.5 14.25 24.5C14.4688 24.5 14.6289 24.5508 14.7305 24.6523C14.8398 24.7539 14.9141 24.8828 14.9531 25.0391C14.9922 25.1875 15.0078 25.3516 15 25.5312C15 25.7031 15 25.8594 15 26H25.5C25.5 25.8594 25.4961 25.7031 25.4883 25.5312C25.4883 25.3516 25.5078 25.1875 25.5469 25.0391C25.5859 24.8828 25.6562 24.7539 25.7578 24.6523C25.8672 24.5508 26.0312 24.5 26.25 24.5C26.4688 24.5 26.6289 24.5508 26.7305 24.6523C26.8398 24.7539 26.9141 24.8828 26.9531 25.0391C26.9922 25.1875 27.0078 25.3516 27 25.5312C27 25.7031 27 25.8594 27 26H28.5V23ZM19.5 21.5V15.5H12V21.5H19.5ZM28.5 15.5H21V21.5H28.5V15.5ZM12.75 11C12.5469 11 12.3711 11.0742 12.2227 11.2227C12.0742 11.3711 12 11.5469 12 11.75V14H28.5V11.75C28.5 11.5469 28.4258 11.3711 28.2773 11.2227C28.1289 11.0742 27.9531 11 27.75 11H12.75ZM28.5 29V27.5H12V29H28.5Z" fill="#464775"/>
</svg>
