<svg width="40" height="40" viewBox="0 0 40 40" fill="none" xmlns="http://www.w3.org/2000/svg">
<path d="M0 4C0 1.79086 1.79086 0 4 0H36C38.2091 0 40 1.79086 40 4V36C40 38.2091 38.2091 40 36 40H4C1.79086 40 0 38.2091 0 36V4Z" fill="#F4F4FC"/>
<path fill-rule="evenodd" clip-rule="evenodd" d="M21.0571 15.4308C22.0335 14.4545 23.6164 14.4545 24.5927 15.4308C25.569 16.4071 25.569 17.99 24.5927 18.9663C23.6164 19.9426 22.0335 19.9426 21.0571 18.9663C20.0808 17.99 20.0808 16.4071 21.0571 15.4308ZM23.532 16.4914C23.1415 16.1009 22.5083 16.1009 22.1178 16.4914C21.7273 16.882 21.7273 17.5151 22.1178 17.9056C22.5083 18.2962 23.1415 18.2962 23.532 17.9056C23.9225 17.5151 23.9225 16.882 23.532 16.4914Z" fill="#464775"/>
<path fill-rule="evenodd" clip-rule="evenodd" d="M29.5085 12.3222C29.2398 11.4574 28.5625 10.7803 27.6976 10.5119L27.0355 10.3064C24.642 9.5636 22.0339 10.208 20.2618 11.9801L19.2659 12.976C17.8962 11.9474 15.9431 12.0562 14.6968 13.3025L13.4543 14.5451C13.1614 14.838 13.1614 15.3128 13.4543 15.6057L15.0453 17.1967L14.8654 17.3765C14.182 18.0599 14.182 19.168 14.8654 19.8514L15.3608 20.3467L13.9652 21.1427C13.7621 21.2585 13.6246 21.4625 13.5935 21.6943C13.5624 21.9261 13.6411 22.1591 13.8065 22.3245L17.6956 26.2136C17.8608 26.3788 18.0937 26.4576 18.3253 26.4267C18.5569 26.3957 18.7609 26.2585 18.8769 26.0557L19.6748 24.6608L20.172 25.1579C20.8554 25.8414 21.9635 25.8414 22.6469 25.1579L22.8237 24.9812L24.4133 26.5708C24.7062 26.8636 25.181 26.8636 25.4739 26.5708L26.7165 25.3282C27.9623 24.0824 28.0715 22.1303 27.0442 20.7607L28.0421 19.7627C29.8149 17.9899 30.4591 15.3806 29.715 12.9865L29.5085 12.3222ZM27.253 11.9445C27.6461 12.0665 27.954 12.3742 28.0761 12.7673L28.2826 13.4316C28.8613 15.2938 28.3603 17.3232 26.9814 18.7021L21.5862 24.0973C21.4886 24.1949 21.3303 24.1949 21.2327 24.0973L15.9261 18.7907C15.8285 18.6931 15.8285 18.5348 15.9261 18.4372L21.3225 13.0408C22.7008 11.6625 24.7293 11.1613 26.5909 11.739L27.253 11.9445ZM25.9641 21.8408L23.8843 23.9205L24.9436 24.9798L25.6558 24.2676C26.3138 23.6095 26.4166 22.6065 25.9641 21.8408ZM15.7575 14.3632C16.416 13.7047 17.42 13.6023 18.186 14.056L16.1059 16.136L15.0453 15.0754L15.7575 14.3632ZM18.5756 23.5615L16.4604 21.4464L15.5621 21.9588L18.0622 24.4589L18.5756 23.5615Z" fill="#464775"/>
<path d="M14.6898 26.3942C14.9827 26.1013 14.9827 25.6264 14.6898 25.3335C14.3969 25.0406 13.9221 25.0406 13.6292 25.3335L11.1543 27.8084C10.8614 28.1013 10.8614 28.5762 11.1543 28.8691C11.4472 29.162 11.9221 29.162 12.215 28.8691L14.6898 26.3942Z" fill="#464775"/>
<path d="M12.7453 23.389C13.0381 23.6819 13.0381 24.1568 12.7453 24.4497L11.6846 25.5103C11.3917 25.8032 10.9168 25.8032 10.6239 25.5103C10.331 25.2174 10.331 24.7425 10.6239 24.4497L11.6846 23.389C11.9775 23.0961 12.4524 23.0961 12.7453 23.389Z" fill="#464775"/>
<path d="M16.6323 28.3408C16.9252 28.0479 16.9253 27.5731 16.6324 27.2802C16.3395 26.9873 15.8646 26.9873 15.5717 27.2802L14.5131 28.3387C14.2202 28.6316 14.2202 29.1065 14.5131 29.3994C14.806 29.6923 15.2808 29.6923 15.5737 29.3994L16.6323 28.3408Z" fill="#464775"/>
</svg>
