<svg width="40" height="40" viewBox="0 0 40 40" fill="none" xmlns="http://www.w3.org/2000/svg">
<path d="M0 4C0 1.79086 1.79086 0 4 0H36C38.2091 0 40 1.79086 40 4V36C40 38.2091 38.2091 40 36 40H4C1.79086 40 0 38.2091 0 36V4Z" fill="#F4F4FC"/>
<path d="M12 21.999L21 22C22.0538 22 22.9181 22.8155 22.9945 23.8507L23 24V25.5C22.999 29 19.284 30 16.5 30C13.7779 30 10.1647 29.044 10.0055 25.7296L10 25.5V23.999C10 22.9452 10.8164 22.0809 11.8508 22.0045L12 21.999ZM23.22 22H28C29.0538 22 29.9181 22.8164 29.9945 23.8508L30 24V25C29.999 28.062 27.142 29 25 29C24.32 29 23.569 28.904 22.86 28.678C23.196 28.292 23.467 27.851 23.662 27.351C24.205 27.476 24.715 27.5 25 27.5L25.2665 27.494C26.2518 27.4509 28.3529 27.1306 28.4927 25.205L28.5 25V24C28.5 23.7547 28.3222 23.5504 28.0896 23.5081L28 23.5H23.949C23.865 22.9986 23.6554 22.5432 23.3545 22.1598L23.22 22H28H23.22ZM12 23.499L11.8993 23.509C11.775 23.5343 11.69 23.6018 11.646 23.645C11.6028 23.689 11.5353 23.7733 11.51 23.898L11.5 23.999V25.5C11.5 26.509 11.95 27.222 12.917 27.742C13.7432 28.1869 14.9195 28.4563 16.1826 28.4951L16.5 28.5L16.8174 28.4951C18.0803 28.4563 19.2559 28.1869 20.083 27.742C20.9886 27.2545 21.4416 26.5974 21.4947 25.6849L21.5 25.499V24C21.5 23.7547 21.3222 23.5504 21.0896 23.5081L21 23.5L12 23.499ZM16.5 11C18.985 11 21 13.015 21 15.5C21 17.985 18.985 20 16.5 20C14.015 20 12 17.985 12 15.5C12 13.015 14.015 11 16.5 11ZM25.5 13C27.433 13 29 14.567 29 16.5C29 18.433 27.433 20 25.5 20C23.567 20 22 18.433 22 16.5C22 14.567 23.567 13 25.5 13ZM16.5 12.5C14.846 12.5 13.5 13.846 13.5 15.5C13.5 17.154 14.846 18.5 16.5 18.5C18.154 18.5 19.5 17.154 19.5 15.5C19.5 13.846 18.154 12.5 16.5 12.5ZM25.5 14.5C24.397 14.5 23.5 15.397 23.5 16.5C23.5 17.603 24.397 18.5 25.5 18.5C26.603 18.5 27.5 17.603 27.5 16.5C27.5 15.397 26.603 14.5 25.5 14.5Z" fill="#464775"/>
</svg>
