<svg width="200" height="158" viewBox="0 0 200 158" fill="none" xmlns="http://www.w3.org/2000/svg">
<path d="M121.579 157.3C164.862 157.3 199.949 122.213 199.949 78.9301C199.949 35.6475 164.862 0.560059 121.579 0.560059C78.2964 0.560059 43.209 35.6475 43.209 78.9301C43.209 122.213 78.2964 157.3 121.579 157.3Z" fill="#E1DFDD"/>
<path d="M108.998 54.7001C105.948 54.2301 71.8984 78.5601 71.8984 78.5601L84.4984 106.05C85.0347 107.256 85.901 108.286 86.9974 109.021C88.0939 109.756 89.3757 110.166 90.6951 110.203C92.0145 110.241 93.3176 109.905 94.4542 109.234C95.5907 108.562 96.5143 107.584 97.1184 106.41C97.6014 105.501 97.8778 104.496 97.928 103.467C97.9781 102.439 97.8007 101.412 97.4084 100.46L90.4084 83.4601L129.338 73.1201L108.998 54.7001Z" fill="#BD8E67"/>
<path d="M120.748 55.7802C117.748 55.3102 83.6484 79.6402 83.6484 79.6402L96.2584 107.13C96.7947 108.336 97.661 109.366 98.7574 110.101C99.8539 110.836 101.136 111.246 102.455 111.283C103.774 111.321 105.078 110.985 106.214 110.314C107.351 109.643 108.274 108.664 108.878 107.49C109.369 106.574 109.65 105.561 109.7 104.523C109.75 103.485 109.568 102.449 109.168 101.49L102.168 84.4902L141.098 74.1602L120.748 55.7802Z" fill="#BD8E67"/>
<path d="M130.829 54.4601C127.829 54.0001 93.7285 78.3301 93.7285 78.3301L106.339 105.82C106.876 107.023 107.742 108.051 108.838 108.784C109.933 109.517 111.213 109.925 112.53 109.963C113.848 110 115.149 109.665 116.284 108.996C117.42 108.327 118.343 107.351 118.949 106.18C119.441 105.265 119.723 104.252 119.775 103.214C119.827 102.176 119.647 101.14 119.249 100.18L112.249 83.1801L151.179 72.8501L130.829 54.4601Z" fill="#BD8E67"/>
<path d="M199.999 78.93C200.002 92.3078 196.558 105.461 189.999 117.12C189.219 118.51 188.409 119.88 187.549 121.21C175.109 121.21 154.799 119.28 147.009 107L137.549 92.1L129.079 78.75L128.319 77.56L126.079 74L121.999 67.52L120.359 64.93L119.479 63.55L118.959 63.67L114.889 64.61L112.889 65.07L104.179 67.07L103.519 67.23L100.459 67.93L89.6288 70.47H89.5388L88.0688 70.8L84.7788 71.56L79.4788 93.38L79.1988 94.51L78.5388 97C77.983 99.2072 76.5944 101.114 74.6641 102.32C72.7339 103.526 70.4117 103.938 68.1842 103.47C65.9566 103.002 63.9967 101.69 62.715 99.8094C61.4334 97.9284 60.9294 95.6243 61.3088 93.38L64.2188 79.67L64.3488 79.06L65.8788 71.83L66.7388 67.83L67.4488 64.49L67.8588 62.56C68.3666 60.108 69.4643 57.8167 71.0569 55.8843C72.6495 53.952 74.689 52.4368 76.9988 51.47L97.2388 42.93L108.139 38.32C111.085 37.0797 114.271 36.5124 117.465 36.6595C120.658 36.8065 123.779 37.6642 126.599 39.17C141.269 47.01 170.509 62.66 189.239 72.66L199.879 78.33C199.943 78.5244 199.983 78.7259 199.999 78.93Z" fill="#BD8E67"/>
<path d="M134.999 67.9303C136.229 77.0203 123.589 86.2303 106.769 88.4903C89.9488 90.7503 75.3288 85.2303 74.1088 76.1403C72.8888 67.0503 85.5188 57.8403 102.329 55.5703C119.139 53.3003 133.749 58.8403 134.999 67.9303Z" fill="url(#paint0_radial)"/>
<path d="M61.4885 71.5102L54.3585 79.1102L47.2285 71.5102L54.3485 63.9102L61.4885 71.5102Z" fill="#C0DCE6"/>
<path d="M65.9192 57.1802L65.9292 71.5102L7.83922 71.5202L5.09922 70.0502L0.949219 67.8102L10.8992 57.2002L65.9192 57.1802Z" fill="#8B8CC7"/>
<path d="M65.9196 61.79H54.3496V79.11H65.9196V61.79Z" fill="#8B8CC7"/>
<path d="M9.23828 64.2602L12.5683 60.7102L72.5083 60.7002V64.5402L9.23828 64.2602Z" fill="#6264A7"/>
<path d="M65.3187 81.72C65.5087 82.04 65.6187 82.21 65.7787 82.45C65.4687 81.96 65.1687 81.45 64.8887 80.96L65.3187 81.72Z" fill="#8B8CC7"/>
<path d="M96.3797 75.3602H95.9297C96.0697 75.3602 96.2197 75.3602 96.3597 75.3602C97.4273 75.3614 98.4819 75.1252 99.447 74.6686C100.412 74.212 101.264 73.5464 101.94 72.7202C101.266 73.5444 100.418 74.2087 99.4565 74.6652C98.495 75.1218 97.4441 75.3591 96.3797 75.3602Z" fill="#8B8CC7"/>
<path d="M66.2984 83.2402C66.4784 83.5002 66.6484 83.7602 66.8384 84.0002L66.8984 84.0802C66.5684 83.6402 66.2484 83.1802 65.8984 82.7202L66.2984 83.2402Z" fill="#8B8CC7"/>
<path d="M96.3794 60.9102C98.255 60.912 100.056 61.6435 101.402 62.95C102.748 64.2566 103.532 66.0355 103.589 67.9102H114.999V67.3702C114.999 66.4602 114.899 65.5502 114.789 64.6502L114.719 63.8602C114.471 62.3398 114.089 60.8441 113.579 59.3902C113.499 59.1502 113.419 58.9102 113.319 58.6702C111.322 53.4352 107.73 48.96 103.051 45.8766C98.3726 42.7932 92.8436 41.2574 87.2449 41.4862C81.6463 41.7149 76.261 43.6967 71.8495 47.1515C67.4381 50.6063 64.2234 55.3596 62.6594 60.7402C62.5594 61.1002 62.4594 61.4602 62.3694 61.8302C62.1494 62.7201 61.9791 63.6215 61.8594 64.5302C61.7061 65.6473 61.6227 66.7728 61.6094 67.9002H89.1694C89.2291 66.0272 90.0147 64.2508 91.3601 62.9465C92.7055 61.6421 94.5054 60.9119 96.3794 60.9102Z" fill="#8B8CC7"/>
<path d="M64.2595 79.7299C64.2913 79.8137 64.3315 79.8941 64.3795 79.9699C64.5095 80.2299 64.6395 80.4899 64.7795 80.7399V80.7999C64.4795 80.2499 64.1995 79.6799 63.9395 79.1099C64.0595 79.3199 64.1595 79.5199 64.2595 79.7299Z" fill="#8B8CC7"/>
<path d="M76.2094 91.9401L76.9794 92.3201C76.6794 92.1801 76.3894 92.0401 76.1094 91.8901L76.2094 91.9401Z" fill="#8B8CC7"/>
<path d="M67.419 84.7902L68.019 85.5202C68.2254 85.7692 68.4457 86.0062 68.679 86.2302L68.959 86.5102C68.2444 85.783 67.5764 85.0115 66.959 84.2002L67.419 84.7902Z" fill="#8B8CC7"/>
<path d="M73.4786 90.3401L73.5886 90.4101L72.8086 89.8701C72.9986 90.0001 73.2486 90.1901 73.4786 90.3401Z" fill="#8B8CC7"/>
<path d="M115.09 67.8701H103.59V68.1401C103.587 70.0568 102.825 71.8942 101.469 73.2495C100.114 74.6048 98.2767 75.3674 96.36 75.3701C96.22 75.3701 96.07 75.3701 95.93 75.3701C94.7203 75.2622 93.5566 74.8546 92.544 74.1842C91.5313 73.5137 90.7017 72.6016 90.13 71.5301C89.4488 70.4476 89.1011 69.1887 89.13 67.9101H1L9.54 77.0001C10.1047 77.5983 10.8572 77.9851 11.6723 78.0961C12.4874 78.2071 13.3159 78.0356 14.02 77.6101L18.66 74.8001L23.82 77.9201C24.4101 78.2732 25.0887 78.4504 25.776 78.4309C26.4634 78.4114 27.1309 78.196 27.7 77.8101L32.93 74.2601L38.19 77.8101C38.761 78.193 39.4295 78.4049 40.1169 78.4208C40.8042 78.4368 41.4818 78.2561 42.07 77.9001L47.23 74.7801L54.36 79.0901H64C64.26 79.6601 64.54 80.2301 64.84 80.7801C64.8726 80.8302 64.8994 80.8839 64.92 80.9401C65.2 81.4501 65.5 81.9401 65.81 82.4301C65.81 82.5201 65.92 82.6101 65.98 82.7001C66.28 83.1601 66.6 83.6201 66.98 84.0601C67.0076 84.1018 67.0376 84.1419 67.07 84.1801C67.6874 84.9914 68.3554 85.7629 69.07 86.4901C70.2382 87.7356 71.5279 88.8612 72.92 89.8501L73.7 90.3901C74.11 90.6601 74.54 90.9201 74.97 91.1701L75.24 91.3301C75.56 91.5167 75.8933 91.6967 76.24 91.8701C76.52 92.0201 76.81 92.1601 77.11 92.3001C80.8431 94.0611 84.9336 94.9326 89.0603 94.8462C93.1871 94.7598 97.2375 93.7178 100.894 91.802C104.55 89.8863 107.712 87.149 110.132 83.8051C112.552 80.4612 114.163 76.6018 114.84 72.5301V72.4501C115.088 70.9229 115.205 69.3772 115.19 67.8301L115.09 67.8701Z" fill="#6264A7"/>
<path d="M195.18 105.92C193.751 109.774 192.019 113.509 190 117.09L161 103.64L137.57 92.0699L137.21 91.8899L114.86 89.4499L105.73 88.4499L103.73 88.2399L98.0001 87.5899L96.9001 87.4799C94.8886 87.2603 92.9621 86.5494 91.2901 85.4099H91.2301C89.5417 84.2507 88.1674 82.6908 87.2301 80.8699C86.4103 79.2784 86.0543 77.4885 86.2028 75.7044C86.3514 73.9203 86.9984 72.2139 88.0701 70.7799C88.4276 70.2908 88.8329 69.8386 89.2801 69.4299C90.1764 68.5817 91.2315 67.9189 92.3847 67.4796C93.5379 67.0403 94.7666 66.8331 96.0001 66.8699L101.84 66.9899H103.54H104.2L109.74 67.1199L115.09 67.2499L121.99 67.4299C122.41 67.4299 122.83 67.4299 123.26 67.4299L134.19 67.7699C138.43 67.9099 142.49 68.0599 146.19 68.2299C154.93 68.6099 161.66 69.0399 163.87 69.5399L189.3 72.5399L195.18 105.92Z" fill="#BD8E67"/>
<path opacity="0.5" d="M90.7383 75.8301C90.9163 74.3303 91.6813 72.962 92.8658 72.0249C94.0503 71.0878 95.5578 70.6582 97.0583 70.8301L101.898 71.4001L100.578 82.7201L95.7383 82.1601C94.2377 81.9796 92.8694 81.2126 91.9326 80.0265C90.9957 78.8404 90.5664 77.3317 90.7383 75.8301Z" fill="#E0BB95"/>
<defs>
<radialGradient id="paint0_radial" cx="0" cy="0" r="1" gradientUnits="userSpaceOnUse" gradientTransform="translate(111.624 71.6117) rotate(-7.66681) scale(32.4259 17.4516)">
<stop stop-color="#9B643D"/>
<stop offset="0.63" stop-color="#B4825B"/>
<stop offset="1" stop-color="#BF8F68"/>
</radialGradient>
</defs>
</svg>
