<svg width="200" height="200" viewBox="0 0 200 200" fill="none" xmlns="http://www.w3.org/2000/svg">
<path d="M158.46 198.4C124 186.52 89.3867 174.603 54.62 162.65C72.14 122.49 74.55 79 95.26 39.5C129.753 51.38 164.367 63.2967 199.1 75.25C181.58 115.42 179.17 159 158.46 198.4Z" fill="#C8C6C4"/>
<path d="M157.18 179.89L47.34 162C60.9 120.36 54.68 75.49 68.24 33.85L178.08 51.75C164.52 93.39 170.74 138.25 157.18 179.89Z" fill="#EDEBE9"/>
<path d="M83.9779 66.4879L82.7131 74.2455L147.843 84.8643L149.108 77.1067L83.9779 66.4879Z" fill="#CDCCCB"/>
<path d="M157.18 179.89L47.34 162C60.9 120.36 54.68 75.49 68.24 33.85L178.08 51.75C164.52 93.39 170.74 138.25 157.18 179.89Z" fill="#EDEBE9"/>
<path d="M83.9779 66.4879L82.7131 74.2455L147.843 84.8643L149.108 77.1067L83.9779 66.4879Z" fill="#CDCCCB"/>
<path d="M81.6787 87.2503L80.4139 95.0079L145.544 105.627L146.809 97.8691L81.6787 87.2503Z" fill="#CDCCCB"/>
<path d="M79.8743 108.09L78.6095 115.848L143.74 126.466L145.004 118.709L79.8743 108.09Z" fill="#CDCCCB"/>
<path d="M77.572 128.861L76.3073 136.618L123.386 144.294L124.65 136.536L77.572 128.861Z" fill="#CDCCCB"/>
<path d="M14.26 149.41C12.9414 149.413 11.646 149.063 10.509 148.395C9.37196 147.728 8.43488 146.767 7.79547 145.614C7.15607 144.461 6.83775 143.157 6.87371 141.839C6.90968 140.521 7.29861 139.237 7.99995 138.12L37 92C37.5147 91.1799 38.186 90.4692 38.9754 89.9085C39.7649 89.3478 40.657 88.9481 41.6009 88.7323C42.5448 88.5164 43.522 88.4885 44.4767 88.6502C45.4314 88.812 46.3449 89.1602 47.165 89.675C47.9851 90.1898 48.6957 90.861 49.2564 91.6505C49.8171 92.4399 50.2168 93.3321 50.4327 94.276C50.6486 95.2199 50.6765 96.1971 50.5147 97.1517C50.3529 98.1064 50.0047 99.0199 49.49 99.84L20.51 146C19.841 147.05 18.917 147.913 17.824 148.51C16.7311 149.106 15.5049 149.416 14.26 149.41Z" fill="#6264A7"/>
<path d="M69.18 100.64C94.6403 100.64 115.28 80.0003 115.28 54.54C115.28 29.0796 94.6403 8.43997 69.18 8.43997C43.7196 8.43997 23.08 29.0796 23.08 54.54C23.08 80.0003 43.7196 100.64 69.18 100.64Z" fill="#EDEBE9"/>
<path d="M57.129 42.216L53.016 67.4429L112.017 77.0624L116.13 51.8355L57.129 42.216Z" fill="#CDCCCB"/>
<path d="M69.08 107.05C59.709 107.031 50.5139 104.504 42.4492 99.7316C34.3846 94.9591 27.7443 88.115 23.2177 79.9098C18.6911 71.7046 16.4432 62.4374 16.7074 53.0701C16.9716 43.7029 19.7381 34.577 24.72 26.64C32.1608 14.9386 43.9297 6.65699 57.4563 3.60389C70.9828 0.550782 85.168 2.97426 96.9136 10.345C108.659 17.7158 117.011 29.4349 120.145 42.943C123.279 56.4511 120.94 70.6504 113.64 82.44V82.44C109.988 88.2914 105.213 93.3608 99.5898 97.355C93.9667 101.349 87.6075 104.189 80.88 105.71C77.0089 106.595 73.0509 107.045 69.08 107.05V107.05ZM69.26 14.82C66.2518 14.8161 63.2529 15.1516 60.32 15.82C50.4733 18.0771 41.8633 24.0157 36.2551 32.418C30.6469 40.8204 28.4656 51.0498 30.1585 61.009C31.8513 70.9682 37.2899 79.9024 45.3593 85.9799C53.4286 92.0574 63.5173 94.8176 73.5567 93.6947C83.5961 92.5717 92.8256 87.6506 99.3527 79.9404C105.88 72.2302 109.21 62.3151 108.661 52.228C108.111 42.1409 103.723 32.6463 96.3974 25.6907C89.0713 18.7351 79.3619 14.8457 69.26 14.82V14.82Z" fill="#A6A7DC"/>
<path d="M23.8034 107.425L5.52881 136.546L23.0115 147.517L41.2861 118.396L23.8034 107.425Z" fill="#EE8F94"/>
<path d="M10.41 158.48C8.56776 158.475 6.76033 157.978 5.175 157.04C3.58966 156.101 2.2841 154.756 1.3936 153.143C0.503106 151.531 0.0600769 149.709 0.110427 147.868C0.160778 146.026 0.702675 144.232 1.67996 142.67L14.68 121.99C15.4022 120.842 16.3435 119.848 17.45 119.064C18.5565 118.28 19.8066 117.722 21.1289 117.421C22.4512 117.12 23.8199 117.082 25.1566 117.311C26.4934 117.539 27.7722 118.028 28.92 118.75C30.0677 119.472 31.062 120.414 31.846 121.52C32.6299 122.627 33.1883 123.877 33.4892 125.199C33.79 126.521 33.8275 127.89 33.5994 129.227C33.3714 130.563 32.8822 131.842 32.16 132.99L19.16 153.66C18.2295 155.139 16.9383 156.357 15.4077 157.201C13.8772 158.044 12.1574 158.484 10.41 158.48V158.48Z" fill="#EE8F94"/>
</svg>
