<svg width="300" height="300" viewBox="0 0 300 300" fill="none" xmlns="http://www.w3.org/2000/svg">
<rect x="0.5" y="0.5" width="299" height="299" fill="#FFE9DD" stroke="#FAF9F8"/>
<path d="M116.349 78.3473V195.22L74.8189 223.709C70.3223 226.791 64.2294 224.02 63.5281 218.935L63.4615 217.956V118.264C63.4615 116.302 64.3014 114.444 65.7509 113.125L66.5254 112.512L116.349 78.3473ZM236.472 81.0646L236.538 82.0443V181.736C236.538 183.698 235.699 185.556 234.249 186.875L233.475 187.488L183.648 221.632V104.75L225.181 76.2915C229.678 73.2087 235.771 75.9796 236.472 81.0646ZM130.77 78.3566L169.227 104.722V221.614L130.77 195.229V78.3566Z" fill="#B1470E"/>
</svg>
