<svg width="450" height="450" viewBox="0 0 450 450" fill="none" xmlns="http://www.w3.org/2000/svg">
<rect x="0.5" y="0.5" width="449" height="449" rx="2.5" fill="#E9F5EE" stroke="#FAF9F8"/>
<path d="M312.62 121.154C335.92 121.154 354.808 140.036 354.808 163.329V286.671C354.808 309.964 335.92 328.846 312.62 328.846H137.38C114.08 328.846 95.1924 309.964 95.1924 286.671V163.329C95.1924 140.84 112.8 122.461 134.986 121.221L137.38 121.154H312.62ZM189.336 231.459H143.87C138.942 231.459 134.868 235.12 134.224 239.871L134.135 241.192V248.732C134.135 265.246 146.705 273.634 166.603 273.634C185.635 273.634 197.965 265.966 199.001 250.854L199.072 248.747V241.192C199.072 236.264 195.409 232.192 190.657 231.548L189.336 231.459ZM228.245 231.459L209.858 231.44C210.984 233.804 211.713 236.393 211.96 239.121L212.053 241.192V248.747L211.938 252.036C211.633 256.324 210.726 260.217 209.273 263.707C210.676 263.837 212.134 263.901 213.642 263.901C227.292 263.901 236.923 258.616 237.899 247.428L237.981 245.509V241.192C237.981 236.264 234.318 232.192 229.566 231.548L228.245 231.459ZM166.596 179.551C155.837 179.551 147.115 188.27 147.115 199.025C147.115 209.781 155.837 218.5 166.596 218.5C177.355 218.5 186.076 209.781 186.076 199.025C186.076 188.27 177.355 179.551 166.596 179.551ZM216.822 186.068C207.877 186.068 200.625 193.318 200.625 202.26C200.625 211.203 207.877 218.452 216.822 218.452C225.767 218.452 233.019 211.203 233.019 202.26C233.019 193.318 225.767 186.068 216.822 186.068Z" fill="#174811"/>
<path d="M293.35 190.444L294.231 190.385C297.517 190.385 300.232 192.826 300.662 195.994L300.721 196.875V218.501L322.356 218.51C325.642 218.51 328.357 220.951 328.787 224.119L328.846 225C328.846 228.286 326.405 231.001 323.237 231.431L322.356 231.49L300.721 231.482V253.125C300.721 256.411 298.28 259.126 295.112 259.556L294.231 259.615C290.945 259.615 288.229 257.174 287.8 254.006L287.74 253.125V231.482L266.106 231.49C262.82 231.49 260.104 229.049 259.675 225.881L259.615 225C259.615 221.714 262.057 218.999 265.225 218.569L266.106 218.51L287.74 218.501V196.875C287.74 193.589 290.182 190.874 293.35 190.444L294.231 190.385L293.35 190.444Z" fill="#E9F5EE"/>
</svg>
