<svg width="80" height="80" viewBox="0 0 80 80" fill="none" xmlns="http://www.w3.org/2000/svg">
<rect width="80" height="80" fill="#6265A2"/>
<path d="M53.3197 17C56.0323 17 58.2526 19.128 58.433 21.8209L58.4448 22.1753V45.4698C58.1705 45.6552 57.9099 45.8702 57.6677 46.1149L49.9041 53.9544L47.8343 51.8625C46.8861 50.9043 45.6585 50.3999 44.4161 50.3494H49.9031C50.8466 50.3494 51.6115 49.577 51.6115 48.6243C51.6115 47.6716 50.8466 46.8992 49.9031 46.8992H38.5053C37.5618 46.8992 36.7969 47.6716 36.7969 48.6243C36.7969 49.577 37.5618 50.3494 38.5053 50.3494H44.0013C42.7604 50.3998 41.5341 50.9031 40.5863 51.8594C38.584 53.8796 38.5826 57.1564 40.5832 59.1783L44.3624 62.9978H27.1251C24.4125 62.9978 22.1921 60.8698 22.0118 58.1769L22 57.8225V22.1753C22 19.4361 24.1073 17.194 26.7742 17.0119L27.1251 17H53.3197ZM33.3891 30.2271C33.3891 28.9568 32.3693 27.927 31.1113 27.927C29.8533 27.927 28.8335 28.9568 28.8335 30.2271C28.8335 31.4974 29.8533 32.5272 31.1113 32.5272C32.3693 32.5272 33.3891 31.4974 33.3891 30.2271ZM38.5053 28.4983C37.5618 28.4983 36.7969 29.2707 36.7969 30.2234C36.7969 31.1761 37.5618 31.9485 38.5053 31.9485H49.9031C50.8466 31.9485 51.6115 31.1761 51.6115 30.2234C51.6115 29.2707 50.8466 28.4983 49.9031 28.4983H38.5053ZM36.7969 39.4238C36.7969 40.3766 37.5618 41.1489 38.5053 41.1489H49.9031C50.8466 41.1489 51.6115 40.3766 51.6115 39.4238C51.6115 38.4711 50.8466 37.6988 49.9031 37.6988H38.5053C37.5618 37.6988 36.7969 38.4711 36.7969 39.4238ZM33.3891 39.4238C33.3891 38.1535 32.3693 37.1237 31.1113 37.1237C29.8533 37.1237 28.8335 38.1535 28.8335 39.4238C28.8335 40.6942 29.8533 41.724 31.1113 41.724C32.3693 41.724 33.3891 40.6942 33.3891 39.4238ZM33.3891 48.6197C33.3891 47.3493 32.3693 46.3196 31.1113 46.3196C29.8533 46.3196 28.8335 47.3493 28.8335 48.6197C28.8335 49.89 29.8533 50.9198 31.1113 50.9198C32.3693 50.9198 33.3891 49.89 33.3891 48.6197Z" fill="white"/>
<path d="M49.9031 58.8348L60.0836 48.5545C60.7508 47.8808 61.8325 47.8808 62.4996 48.5545C63.1668 49.2282 63.1668 50.3205 62.4996 50.9942L51.1105 62.4947C51.073 62.5326 51.034 62.5685 50.9935 62.6024C50.7102 62.8399 50.3578 62.979 49.9889 62.9978C49.9601 62.9993 49.9312 63 49.9022 63C49.8734 63 49.8448 62.9993 49.8162 62.9978C49.3943 62.9763 48.994 62.7974 48.694 62.4942L43.001 56.7406C42.3342 56.0666 42.3338 54.9735 43.0012 54.3001C43.6687 53.6267 44.7504 53.6271 45.4172 54.3011L49.9031 58.8348Z" fill="white"/>
</svg>
