<svg width="88" height="84" viewBox="0 0 88 84" fill="none" xmlns="http://www.w3.org/2000/svg">
<path fill-rule="evenodd" clip-rule="evenodd" d="M13.4771 75.6292L69.8035 83.5812C70.8353 83.7268 71.8647 83.0228 72.0913 82.0165L87.0708 15.4745C87.2842 14.5265 86.6635 13.6384 85.6913 13.5013L29.359 5.54832C28.3306 5.40313 27.3043 6.10498 27.0785 7.10802L12.0977 73.6559C11.8842 74.6039 12.505 75.492 13.4771 75.6292Z" fill="#797673"/>
<path fill-rule="evenodd" clip-rule="evenodd" d="M18.6152 71.4641L66.9086 78.282L80.5537 17.6675L32.2603 10.8496L18.6152 71.4641Z" fill="#E1DFDD"/>
<g filter="url(#filter0_d)">
<path d="M7.65576 62.07C11.4307 62.0521 19.0185 62.3642 26.8327 66.8122C47.1448 78.3746 61.9285 74.3656 66.4545 66.6009C73.0799 55.2344 80.5505 17.6652 80.5505 17.6652L32.2632 10.8516C32.2632 10.8516 28.5415 33.5709 21.5007 44.2253C14.5886 54.6851 11.3534 54.7003 7.65576 62.07Z" fill="black"/>
</g>
<path d="M7.65576 62.07C11.4307 62.0521 19.0185 62.3642 26.8327 66.8122C47.1448 78.3746 61.9285 74.3656 66.4545 66.6009C73.0799 55.2344 80.5505 17.6652 80.5505 17.6652L32.2632 10.8516C32.2632 10.8516 28.5415 33.5709 21.5007 44.2253C14.5886 54.6851 11.3534 54.7003 7.65576 62.07Z" fill="white"/>
<path fill-rule="evenodd" clip-rule="evenodd" d="M48.5664 74.1315C57.6944 74.8142 64.166 71.7031 66.3283 66.8828C64.674 68.597 61.6844 70.2169 56.4727 69.0834C56.4726 69.0834 51.8824 73.8456 48.5664 74.1315Z" fill="#C8C6C4"/>
<path fill-rule="evenodd" clip-rule="evenodd" d="M40.5209 30.15L37.4447 29.6647C36.9093 29.5802 36.5751 29.0729 36.6984 28.5315L37.407 25.4213C37.5303 24.8799 38.0643 24.5095 38.5997 24.594L41.676 25.0794C42.2114 25.1639 42.5455 25.6712 42.4222 26.2126L41.7136 29.3228C41.5903 29.8642 41.0563 30.2345 40.5209 30.15Z" fill="#E1DFDD"/>
<path fill-rule="evenodd" clip-rule="evenodd" d="M38.2104 40.2907L35.1341 39.8053C34.5987 39.7208 34.2646 39.2135 34.3879 38.6721L35.0965 35.5619C35.2197 35.0205 35.7538 34.6502 36.2892 34.7347L39.3654 35.22C39.9008 35.3045 40.2349 35.8118 40.1117 36.3532L39.4031 39.4634C39.2799 40.0049 38.7459 40.3752 38.2104 40.2907Z" fill="#E1DFDD"/>
<path fill-rule="evenodd" clip-rule="evenodd" d="M35.9003 50.4313L32.824 49.9459C32.2887 49.8614 31.9545 49.3541 32.0778 48.8128L32.7864 45.7025C32.9097 45.1612 33.4437 44.7908 33.9791 44.8753L37.0554 45.3607C37.5908 45.4452 37.9249 45.9525 37.8016 46.4938L37.093 49.6041C36.9697 50.1454 36.4357 50.5158 35.9003 50.4313Z" fill="#E1DFDD"/>
<path fill-rule="evenodd" clip-rule="evenodd" d="M33.5898 60.5739L30.5135 60.0885C29.9781 60.004 29.644 59.4967 29.7673 58.9554L30.4759 55.8451C30.5991 55.3037 31.1332 54.9334 31.6686 55.0179L34.7448 55.5033C35.2802 55.5877 35.6143 56.0951 35.4911 56.6364L34.7825 59.7467C34.6593 60.288 34.1253 60.6583 33.5898 60.5739Z" fill="#E1DFDD"/>
<path fill-rule="evenodd" clip-rule="evenodd" d="M66.3429 32.6132L46.9334 29.5505C46.398 29.466 46.0639 28.9587 46.1872 28.4174C46.3105 27.876 46.8445 27.5056 47.3799 27.5901L66.7894 30.6528C67.3248 30.7373 67.6589 31.2446 67.5356 31.7859C67.4123 32.3273 66.8783 32.6976 66.3429 32.6132Z" fill="#C8C6C4"/>
<path fill-rule="evenodd" clip-rule="evenodd" d="M64.0328 42.7538L44.6234 39.6911C44.088 39.6066 43.7539 39.0993 43.8772 38.558C44.0004 38.0166 44.5345 37.6463 45.0699 37.7308L64.4793 40.7934C65.0147 40.8779 65.3488 41.3852 65.2255 41.9266C65.1022 42.4679 64.5682 42.8383 64.0328 42.7538Z" fill="#C8C6C4"/>
<path fill-rule="evenodd" clip-rule="evenodd" d="M61.7223 52.8945L42.3128 49.8318C41.7774 49.7473 41.4433 49.24 41.5666 48.6986C41.6899 48.1573 42.2239 47.7869 42.7593 47.8714L62.1688 50.9341C62.7041 51.0185 63.0383 51.5259 62.915 52.0672C62.7917 52.6087 62.2576 52.979 61.7223 52.8945Z" fill="#C8C6C4"/>
<path fill-rule="evenodd" clip-rule="evenodd" d="M59.4122 63.037L40.0028 59.9743C39.4674 59.8898 39.1333 59.3825 39.2565 58.8412C39.3798 58.2998 39.9139 57.9295 40.4493 58.014L59.8587 61.0766C60.3941 61.1611 60.7282 61.6684 60.6049 62.2098C60.4816 62.7511 59.9477 63.1215 59.4122 63.037Z" fill="#C8C6C4"/>
<path fill-rule="evenodd" clip-rule="evenodd" d="M46.8276 12.567L66.1344 15.2927L68.6815 3.97767C68.8632 3.1705 68.3347 2.41444 67.5071 2.29767L51.3501 0.016726C50.4454 -0.110954 49.5426 0.506405 49.344 1.38871L46.8276 12.567Z" fill="#28C2D1"/>
<path fill-rule="evenodd" clip-rule="evenodd" d="M46.8276 12.567L66.1344 15.2927L68.6815 3.97767C68.8632 3.1705 68.3347 2.41444 67.5071 2.29767L51.3501 0.016726C50.4454 -0.110954 49.5426 0.506405 49.344 1.38871L46.8276 12.567Z" fill="url(#paint0_linear)"/>
<path fill-rule="evenodd" clip-rule="evenodd" d="M42.6948 19.3312L66.9339 22.7532C67.8821 22.887 68.8283 22.2399 69.0365 21.3151L71.2543 11.4633L43.6938 7.57227L41.4481 17.5479C41.2552 18.4047 41.8162 19.2071 42.6948 19.3312Z" fill="#28C2D1"/>
<path fill-rule="evenodd" clip-rule="evenodd" d="M39.5613 28.1434C39.3036 28.1434 39.0534 28.0181 38.9045 27.7906L36.9837 24.8499C36.7498 24.4916 36.8543 24.0139 37.2165 23.7822C37.5775 23.5504 38.0605 23.6536 38.2955 24.0118L39.8138 26.3367L46.6377 22.453C47.0141 22.239 47.4893 22.3685 47.7036 22.737C47.919 23.1065 47.7895 23.5789 47.4165 23.7913L39.9498 28.0408C39.8268 28.1106 39.693 28.1434 39.5613 28.1434Z" fill="#28C2D1"/>
<path fill-rule="evenodd" clip-rule="evenodd" d="M37.286 38.6369C37.0282 38.6369 36.778 38.5115 36.6291 38.2841L34.7083 35.3439C34.4744 34.9856 34.5789 34.508 34.9411 34.2762C35.3022 34.0448 35.7851 34.1482 36.0201 34.5059L37.5384 36.8302L44.3624 32.947C44.7376 32.733 45.2139 32.8631 45.4282 33.2311C45.6436 33.6005 45.5141 34.0729 45.1411 34.2853L37.6744 38.5342C37.5514 38.6041 37.4176 38.6369 37.286 38.6369Z" fill="#28C2D1"/>
<defs>
<filter id="filter0_d" x="0.655762" y="7.85156" width="80.8947" height="71.1872" filterUnits="userSpaceOnUse" color-interpolation-filters="sRGB">
<feFlood flood-opacity="0" result="BackgroundImageFix"/>
<feColorMatrix in="SourceAlpha" type="matrix" values="0 0 0 0 0 0 0 0 0 0 0 0 0 0 0 0 0 0 127 0"/>
<feOffset dx="-3" dy="1"/>
<feGaussianBlur stdDeviation="2"/>
<feColorMatrix type="matrix" values="0 0 0 0 0.784314 0 0 0 0 0.776471 0 0 0 0 0.768627 0 0 0 1 0"/>
<feBlend mode="normal" in2="BackgroundImageFix" result="effect1_dropShadow"/>
<feBlend mode="normal" in="SourceGraphic" in2="effect1_dropShadow" result="shape"/>
</filter>
<linearGradient id="paint0_linear" x1="55.953" y1="11.952" x2="57.6372" y2="4.30401" gradientUnits="userSpaceOnUse">
<stop stop-color="#009EA6"/>
<stop offset="0.8819" stop-color="#23BDCC" stop-opacity="0.1178"/>
<stop offset="0.9997" stop-color="#28C2D1" stop-opacity="0"/>
</linearGradient>
</defs>
</svg>
