<svg width="20" height="20" viewBox="0 0 20 20" fill="none" xmlns="http://www.w3.org/2000/svg">
<path d="M15.5257 3.00049C16.3541 3.00049 17.0257 3.67206 17.0257 4.50049V5.89484C17.0257 6.83402 16.4993 7.69396 15.663 8.1212L11.4744 10.2609C12.6995 10.8172 13.5515 12.0514 13.5515 13.4845C13.5515 15.4388 11.9672 17.0231 10.0129 17.0231C8.05853 17.0231 6.47424 15.4388 6.47424 13.4845C6.47424 12.0514 7.32624 10.8172 8.55136 10.2609L4.36274 8.1212C3.58213 7.72244 3.07156 6.94675 3.00695 6.08152L3 5.89484V4.50049C3 3.67206 3.67157 3.00049 4.5 3.00049H15.5257ZM10.0129 10.9459C8.61082 10.9459 7.47424 12.0825 7.47424 13.4845C7.47424 14.8866 8.61082 16.0231 10.0129 16.0231C11.4149 16.0231 12.5515 14.8866 12.5515 13.4845C12.5515 12.0825 11.4149 10.9459 10.0129 10.9459ZM12.615 3.99949H7.406V8.55249L9.78541 9.76826C9.92826 9.84124 10.0975 9.84124 10.2403 9.76826L12.615 8.55449V3.99949Z" fill="#F2E384"/>
</svg>
