<svg width="705" height="304" viewBox="0 0 705 304" fill="none" xmlns="http://www.w3.org/2000/svg">
<path d="M50.75 12.0352C50.75 14.7878 49.4466 16.1641 46.8398 16.1641C44.3424 16.1641 43.0938 14.8402 43.0938 12.1924V6.19727H44.7207V11.8574C44.7207 13.7806 45.4681 14.7422 46.9629 14.7422C48.403 14.7422 49.123 13.8148 49.123 11.96V6.19727H50.75V12.0352ZM59.1104 16H57.5244V12.0557C57.5244 10.7477 57.0618 10.0938 56.1367 10.0938C55.6536 10.0938 55.2549 10.276 54.9404 10.6406C54.626 11.0007 54.4688 11.4564 54.4688 12.0078V16H52.876V9H54.4688V10.1621H54.4961C55.0202 9.27799 55.7767 8.83594 56.7656 8.83594C57.5267 8.83594 58.1077 9.08431 58.5088 9.58105C58.9098 10.0732 59.1104 10.7865 59.1104 11.7207V16ZM67.416 16H65.8301V14.8105H65.8027C65.2923 15.7129 64.5062 16.1641 63.4443 16.1641C62.583 16.1641 61.8926 15.8519 61.373 15.2275C60.8581 14.5986 60.6006 13.7441 60.6006 12.6641C60.6006 11.5065 60.8854 10.5791 61.4551 9.88184C62.0293 9.18457 62.7926 8.83594 63.7451 8.83594C64.6885 8.83594 65.3743 9.21419 65.8027 9.9707H65.8301V5.63672H67.416V16ZM65.8506 12.8008V11.8848C65.8506 11.388 65.6888 10.9665 65.3652 10.6201C65.0417 10.2738 64.6292 10.1006 64.1279 10.1006C63.5355 10.1006 63.0684 10.3216 62.7266 10.7637C62.3893 11.2057 62.2207 11.8187 62.2207 12.6025C62.2207 13.3135 62.3825 13.8763 62.7061 14.291C63.0342 14.7012 63.474 14.9062 64.0254 14.9062C64.5677 14.9062 65.0075 14.708 65.3447 14.3115C65.682 13.9105 65.8506 13.4069 65.8506 12.8008ZM75.4141 12.9307H70.6426C70.6608 13.5778 70.859 14.0768 71.2373 14.4277C71.6201 14.7786 72.1442 14.9541 72.8096 14.9541C73.557 14.9541 74.2428 14.7308 74.8672 14.2842V15.5625C74.2292 15.9635 73.3861 16.1641 72.3379 16.1641C71.3079 16.1641 70.499 15.8473 69.9111 15.2139C69.3278 14.5758 69.0361 13.6803 69.0361 12.5273C69.0361 11.4382 69.3574 10.5518 70 9.86816C70.6471 9.18001 71.4492 8.83594 72.4062 8.83594C73.3633 8.83594 74.1038 9.14355 74.6279 9.75879C75.152 10.374 75.4141 11.2285 75.4141 12.3223V12.9307ZM73.8828 11.8096C73.8783 11.2399 73.7438 10.7979 73.4795 10.4834C73.2152 10.1644 72.8506 10.0049 72.3857 10.0049C71.93 10.0049 71.5426 10.1712 71.2236 10.5039C70.9092 10.8366 70.7155 11.2718 70.6426 11.8096H73.8828ZM80.9854 10.5107C80.7939 10.3604 80.5182 10.2852 80.1582 10.2852C79.6888 10.2852 79.2969 10.4971 78.9824 10.9209C78.668 11.3447 78.5107 11.9212 78.5107 12.6504V16H76.9248V9H78.5107V10.4424H78.5381C78.693 9.9502 78.93 9.56738 79.249 9.29395C79.5726 9.01595 79.9326 8.87695 80.3291 8.87695C80.6162 8.87695 80.835 8.92025 80.9854 9.00684V10.5107ZM81.7646 15.7812V14.3115C82.3571 14.7627 83.0111 14.9883 83.7266 14.9883C84.6836 14.9883 85.1621 14.7057 85.1621 14.1406C85.1621 13.9811 85.1211 13.8467 85.0391 13.7373C84.957 13.6234 84.8454 13.5231 84.7041 13.4365C84.5674 13.3499 84.4033 13.2725 84.2119 13.2041C84.0251 13.1357 83.8154 13.0583 83.583 12.9717C83.2959 12.8577 83.0361 12.737 82.8037 12.6094C82.5758 12.4818 82.3844 12.3382 82.2295 12.1787C82.0791 12.0146 81.9652 11.8301 81.8877 11.625C81.8102 11.4199 81.7715 11.1807 81.7715 10.9072C81.7715 10.57 81.8512 10.2738 82.0107 10.0186C82.1702 9.75879 82.3844 9.54232 82.6533 9.36914C82.9222 9.19141 83.2275 9.05924 83.5693 8.97266C83.9111 8.88151 84.2643 8.83594 84.6289 8.83594C85.276 8.83594 85.8548 8.93392 86.3652 9.12988V10.5176C85.873 10.1803 85.3079 10.0117 84.6699 10.0117C84.4694 10.0117 84.2871 10.0322 84.123 10.0732C83.9635 10.1143 83.8268 10.1712 83.7129 10.2441C83.599 10.3171 83.5101 10.4059 83.4463 10.5107C83.3825 10.611 83.3506 10.7227 83.3506 10.8457C83.3506 10.9961 83.3825 11.1237 83.4463 11.2285C83.5101 11.3333 83.6035 11.4268 83.7266 11.5088C83.8542 11.5863 84.0046 11.6592 84.1777 11.7275C84.3555 11.7913 84.5583 11.862 84.7861 11.9395C85.0869 12.0625 85.3558 12.1878 85.5928 12.3154C85.8343 12.443 86.0394 12.5889 86.208 12.7529C86.3766 12.9124 86.5065 13.0993 86.5977 13.3135C86.6888 13.5231 86.7344 13.7738 86.7344 14.0654C86.7344 14.4209 86.6523 14.7308 86.4883 14.9951C86.3242 15.2594 86.1055 15.4782 85.832 15.6514C85.5586 15.8245 85.2419 15.9521 84.8818 16.0342C84.5264 16.1208 84.1504 16.1641 83.7539 16.1641C82.9883 16.1641 82.3252 16.0365 81.7646 15.7812ZM91.9365 15.9248C91.6266 16.0798 91.2188 16.1572 90.7129 16.1572C89.3548 16.1572 88.6758 15.5055 88.6758 14.2021V10.2441H87.5068V9H88.6758V7.37988L90.2617 6.92871V9H91.9365V10.2441H90.2617V13.7441C90.2617 14.1589 90.3369 14.4551 90.4873 14.6328C90.6377 14.8105 90.8883 14.8994 91.2393 14.8994C91.5081 14.8994 91.7406 14.8219 91.9365 14.667V15.9248ZM98.6768 16H97.1387V14.9062H97.1113C96.6283 15.7448 95.9196 16.1641 94.9854 16.1641C94.2972 16.1641 93.7572 15.9772 93.3652 15.6035C92.9779 15.2298 92.7842 14.7354 92.7842 14.1201C92.7842 12.7985 93.5452 12.0283 95.0674 11.8096L97.1455 11.5156C97.1455 10.5176 96.6715 10.0186 95.7236 10.0186C94.8896 10.0186 94.1377 10.3057 93.4678 10.8799V9.49219C94.2061 9.05469 95.0583 8.83594 96.0244 8.83594C97.7926 8.83594 98.6768 9.70638 98.6768 11.4473V16ZM97.1455 12.5615L95.6758 12.7666C95.2201 12.8258 94.876 12.9375 94.6436 13.1016C94.4157 13.2611 94.3018 13.5436 94.3018 13.9492C94.3018 14.2454 94.4066 14.4893 94.6162 14.6807C94.8304 14.8675 95.1152 14.9609 95.4707 14.9609C95.9538 14.9609 96.3525 14.7923 96.667 14.4551C96.986 14.1133 97.1455 13.6849 97.1455 13.1699V12.5615ZM106.853 16H105.267V12.0557C105.267 10.7477 104.804 10.0938 103.879 10.0938C103.396 10.0938 102.997 10.276 102.683 10.6406C102.368 11.0007 102.211 11.4564 102.211 12.0078V16H100.618V9H102.211V10.1621H102.238C102.762 9.27799 103.519 8.83594 104.508 8.83594C105.269 8.83594 105.85 9.08431 106.251 9.58105C106.652 10.0732 106.853 10.7865 106.853 11.7207V16ZM115.158 16H113.572V14.8105H113.545C113.035 15.7129 112.248 16.1641 111.187 16.1641C110.325 16.1641 109.635 15.8519 109.115 15.2275C108.6 14.5986 108.343 13.7441 108.343 12.6641C108.343 11.5065 108.628 10.5791 109.197 9.88184C109.771 9.18457 110.535 8.83594 111.487 8.83594C112.431 8.83594 113.117 9.21419 113.545 9.9707H113.572V5.63672H115.158V16ZM113.593 12.8008V11.8848C113.593 11.388 113.431 10.9665 113.107 10.6201C112.784 10.2738 112.371 10.1006 111.87 10.1006C111.278 10.1006 110.811 10.3216 110.469 10.7637C110.132 11.2057 109.963 11.8187 109.963 12.6025C109.963 13.3135 110.125 13.8763 110.448 14.291C110.776 14.7012 111.216 14.9062 111.768 14.9062C112.31 14.9062 112.75 14.708 113.087 14.3115C113.424 13.9105 113.593 13.4069 113.593 12.8008ZM124.776 15.9248C124.466 16.0798 124.059 16.1572 123.553 16.1572C122.195 16.1572 121.516 15.5055 121.516 14.2021V10.2441H120.347V9H121.516V7.37988L123.102 6.92871V9H124.776V10.2441H123.102V13.7441C123.102 14.1589 123.177 14.4551 123.327 14.6328C123.478 14.8105 123.728 14.8994 124.079 14.8994C124.348 14.8994 124.58 14.8219 124.776 14.667V15.9248ZM132.364 16H130.778V12.1719C130.778 10.7865 130.316 10.0938 129.391 10.0938C128.926 10.0938 128.534 10.2943 128.215 10.6953C127.896 11.0964 127.736 11.609 127.736 12.2334V16H126.144V5.63672H127.736V10.1621H127.764C128.292 9.27799 129.049 8.83594 130.033 8.83594C131.587 8.83594 132.364 9.78613 132.364 11.6865V16ZM140.219 12.9307H135.447C135.465 13.5778 135.664 14.0768 136.042 14.4277C136.425 14.7786 136.949 14.9541 137.614 14.9541C138.362 14.9541 139.048 14.7308 139.672 14.2842V15.5625C139.034 15.9635 138.191 16.1641 137.143 16.1641C136.113 16.1641 135.304 15.8473 134.716 15.2139C134.132 14.5758 133.841 13.6803 133.841 12.5273C133.841 11.4382 134.162 10.5518 134.805 9.86816C135.452 9.18001 136.254 8.83594 137.211 8.83594C138.168 8.83594 138.909 9.14355 139.433 9.75879C139.957 10.374 140.219 11.2285 140.219 12.3223V12.9307ZM138.688 11.8096C138.683 11.2399 138.549 10.7979 138.284 10.4834C138.02 10.1644 137.655 10.0049 137.19 10.0049C136.735 10.0049 136.347 10.1712 136.028 10.5039C135.714 10.8366 135.52 11.2718 135.447 11.8096H138.688ZM147.198 14.9883H147.171V16H145.585V5.63672H147.171V10.2305H147.198C147.741 9.30078 148.534 8.83594 149.577 8.83594C150.461 8.83594 151.152 9.15039 151.648 9.7793C152.15 10.4036 152.4 11.2422 152.4 12.2949C152.4 13.4661 152.12 14.4049 151.56 15.1113C150.999 15.8132 150.233 16.1641 149.263 16.1641C148.351 16.1641 147.663 15.7721 147.198 14.9883ZM147.157 12.2061V13.0742C147.157 13.5846 147.319 14.0176 147.643 14.373C147.971 14.7285 148.385 14.9062 148.887 14.9062C149.475 14.9062 149.935 14.6784 150.268 14.2227C150.605 13.7624 150.773 13.1221 150.773 12.3018C150.773 11.6136 150.616 11.0758 150.302 10.6885C149.992 10.2965 149.57 10.1006 149.037 10.1006C148.472 10.1006 148.016 10.3011 147.67 10.7021C147.328 11.1032 147.157 11.6045 147.157 12.2061ZM159.229 16H157.691V14.9062H157.664C157.181 15.7448 156.472 16.1641 155.538 16.1641C154.85 16.1641 154.31 15.9772 153.918 15.6035C153.531 15.2298 153.337 14.7354 153.337 14.1201C153.337 12.7985 154.098 12.0283 155.62 11.8096L157.698 11.5156C157.698 10.5176 157.224 10.0186 156.276 10.0186C155.442 10.0186 154.69 10.3057 154.021 10.8799V9.49219C154.759 9.05469 155.611 8.83594 156.577 8.83594C158.345 8.83594 159.229 9.70638 159.229 11.4473V16ZM157.698 12.5615L156.229 12.7666C155.773 12.8258 155.429 12.9375 155.196 13.1016C154.968 13.2611 154.854 13.5436 154.854 13.9492C154.854 14.2454 154.959 14.4893 155.169 14.6807C155.383 14.8675 155.668 14.9609 156.023 14.9609C156.507 14.9609 156.905 14.7923 157.22 14.4551C157.539 14.1133 157.698 13.6849 157.698 13.1699V12.5615ZM160.733 15.7812V14.3115C161.326 14.7627 161.98 14.9883 162.695 14.9883C163.652 14.9883 164.131 14.7057 164.131 14.1406C164.131 13.9811 164.09 13.8467 164.008 13.7373C163.926 13.6234 163.814 13.5231 163.673 13.4365C163.536 13.3499 163.372 13.2725 163.181 13.2041C162.994 13.1357 162.784 13.0583 162.552 12.9717C162.265 12.8577 162.005 12.737 161.772 12.6094C161.545 12.4818 161.353 12.3382 161.198 12.1787C161.048 12.0146 160.934 11.8301 160.856 11.625C160.779 11.4199 160.74 11.1807 160.74 10.9072C160.74 10.57 160.82 10.2738 160.979 10.0186C161.139 9.75879 161.353 9.54232 161.622 9.36914C161.891 9.19141 162.196 9.05924 162.538 8.97266C162.88 8.88151 163.233 8.83594 163.598 8.83594C164.245 8.83594 164.824 8.93392 165.334 9.12988V10.5176C164.842 10.1803 164.277 10.0117 163.639 10.0117C163.438 10.0117 163.256 10.0322 163.092 10.0732C162.932 10.1143 162.796 10.1712 162.682 10.2441C162.568 10.3171 162.479 10.4059 162.415 10.5107C162.351 10.611 162.319 10.7227 162.319 10.8457C162.319 10.9961 162.351 11.1237 162.415 11.2285C162.479 11.3333 162.572 11.4268 162.695 11.5088C162.823 11.5863 162.973 11.6592 163.146 11.7275C163.324 11.7913 163.527 11.862 163.755 11.9395C164.056 12.0625 164.325 12.1878 164.562 12.3154C164.803 12.443 165.008 12.5889 165.177 12.7529C165.345 12.9124 165.475 13.0993 165.566 13.3135C165.658 13.5231 165.703 13.7738 165.703 14.0654C165.703 14.4209 165.621 14.7308 165.457 14.9951C165.293 15.2594 165.074 15.4782 164.801 15.6514C164.527 15.8245 164.211 15.9521 163.851 16.0342C163.495 16.1208 163.119 16.1641 162.723 16.1641C161.957 16.1641 161.294 16.0365 160.733 15.7812ZM168.014 7.53027C167.754 7.53027 167.531 7.44596 167.344 7.27734C167.161 7.10872 167.07 6.89453 167.07 6.63477C167.07 6.375 167.161 6.15853 167.344 5.98535C167.531 5.81217 167.754 5.72559 168.014 5.72559C168.283 5.72559 168.51 5.81217 168.697 5.98535C168.884 6.15853 168.978 6.375 168.978 6.63477C168.978 6.88086 168.884 7.09277 168.697 7.27051C168.51 7.44368 168.283 7.53027 168.014 7.53027ZM168.8 16H167.214V9H168.8V16ZM175.889 15.6787C175.328 16.0023 174.665 16.1641 173.899 16.1641C172.86 16.1641 172.022 15.8405 171.384 15.1934C170.746 14.5417 170.427 13.6986 170.427 12.6641C170.427 11.5111 170.769 10.5859 171.452 9.88867C172.14 9.18685 173.059 8.83594 174.207 8.83594C174.845 8.83594 175.408 8.94759 175.896 9.1709V10.6475C175.408 10.2829 174.888 10.1006 174.337 10.1006C173.667 10.1006 173.118 10.3285 172.689 10.7842C172.261 11.2354 172.047 11.8278 172.047 12.5615C172.047 13.2861 172.247 13.8581 172.648 14.2773C173.054 14.6966 173.596 14.9062 174.275 14.9062C174.845 14.9062 175.383 14.7035 175.889 14.2979V15.6787ZM177.03 15.7812V14.3115C177.623 14.7627 178.277 14.9883 178.992 14.9883C179.949 14.9883 180.428 14.7057 180.428 14.1406C180.428 13.9811 180.387 13.8467 180.305 13.7373C180.223 13.6234 180.111 13.5231 179.97 13.4365C179.833 13.3499 179.669 13.2725 179.478 13.2041C179.291 13.1357 179.081 13.0583 178.849 12.9717C178.562 12.8577 178.302 12.737 178.069 12.6094C177.841 12.4818 177.65 12.3382 177.495 12.1787C177.345 12.0146 177.231 11.8301 177.153 11.625C177.076 11.4199 177.037 11.1807 177.037 10.9072C177.037 10.57 177.117 10.2738 177.276 10.0186C177.436 9.75879 177.65 9.54232 177.919 9.36914C178.188 9.19141 178.493 9.05924 178.835 8.97266C179.177 8.88151 179.53 8.83594 179.895 8.83594C180.542 8.83594 181.12 8.93392 181.631 9.12988V10.5176C181.139 10.1803 180.574 10.0117 179.936 10.0117C179.735 10.0117 179.553 10.0322 179.389 10.0732C179.229 10.1143 179.092 10.1712 178.979 10.2441C178.865 10.3171 178.776 10.4059 178.712 10.5107C178.648 10.611 178.616 10.7227 178.616 10.8457C178.616 10.9961 178.648 11.1237 178.712 11.2285C178.776 11.3333 178.869 11.4268 178.992 11.5088C179.12 11.5863 179.27 11.6592 179.443 11.7275C179.621 11.7913 179.824 11.862 180.052 11.9395C180.353 12.0625 180.621 12.1878 180.858 12.3154C181.1 12.443 181.305 12.5889 181.474 12.7529C181.642 12.9124 181.772 13.0993 181.863 13.3135C181.954 13.5231 182 13.7738 182 14.0654C182 14.4209 181.918 14.7308 181.754 14.9951C181.59 15.2594 181.371 15.4782 181.098 15.6514C180.824 15.8245 180.507 15.9521 180.147 16.0342C179.792 16.1208 179.416 16.1641 179.02 16.1641C178.254 16.1641 177.591 16.0365 177.03 15.7812ZM190.47 16.1641C189.39 16.1641 188.526 15.8382 187.879 15.1865C187.236 14.5303 186.915 13.6621 186.915 12.582C186.915 11.4062 187.25 10.488 187.92 9.82715C188.594 9.16634 189.501 8.83594 190.641 8.83594C191.734 8.83594 192.587 9.15723 193.197 9.7998C193.808 10.4424 194.113 11.3333 194.113 12.4727C194.113 13.5892 193.783 14.4847 193.122 15.1592C192.466 15.8291 191.582 16.1641 190.47 16.1641ZM190.545 10.1006C189.925 10.1006 189.435 10.3171 189.075 10.75C188.715 11.1829 188.535 11.7799 188.535 12.541C188.535 13.2747 188.717 13.8535 189.082 14.2773C189.447 14.6966 189.934 14.9062 190.545 14.9062C191.169 14.9062 191.648 14.6989 191.98 14.2842C192.318 13.8695 192.486 13.2793 192.486 12.5137C192.486 11.7435 192.318 11.1488 191.98 10.7295C191.648 10.3102 191.169 10.1006 190.545 10.1006ZM199.459 6.92871C199.245 6.80566 199.001 6.74414 198.728 6.74414C197.957 6.74414 197.572 7.17936 197.572 8.0498V9H199.199V10.2441H197.579V16H195.993V10.2441H194.797V9H195.993V7.86523C195.993 7.12695 196.235 6.5459 196.718 6.12207C197.201 5.69368 197.805 5.47949 198.529 5.47949C198.921 5.47949 199.231 5.52279 199.459 5.60938V6.92871ZM205.98 12.4453V16H204.36V6.19727H207.334C208.46 6.19727 209.332 6.45931 209.952 6.9834C210.572 7.50749 210.882 8.24577 210.882 9.19824C210.882 10.1507 210.558 10.93 209.911 11.5361C209.264 12.1423 208.389 12.4453 207.286 12.4453H205.98ZM205.98 7.53711V11.1191H207.033C207.73 11.1191 208.261 10.9574 208.626 10.6338C208.991 10.3102 209.173 9.85449 209.173 9.2666C209.173 8.11361 208.503 7.53711 207.163 7.53711H205.98ZM214.997 16.1641C213.917 16.1641 213.053 15.8382 212.406 15.1865C211.764 14.5303 211.442 13.6621 211.442 12.582C211.442 11.4062 211.777 10.488 212.447 9.82715C213.122 9.16634 214.029 8.83594 215.168 8.83594C216.262 8.83594 217.114 9.15723 217.725 9.7998C218.335 10.4424 218.641 11.3333 218.641 12.4727C218.641 13.5892 218.31 14.4847 217.649 15.1592C216.993 15.8291 216.109 16.1641 214.997 16.1641ZM215.072 10.1006C214.452 10.1006 213.963 10.3171 213.603 10.75C213.243 11.1829 213.062 11.7799 213.062 12.541C213.062 13.2747 213.245 13.8535 213.609 14.2773C213.974 14.6966 214.462 14.9062 215.072 14.9062C215.697 14.9062 216.175 14.6989 216.508 14.2842C216.845 13.8695 217.014 13.2793 217.014 12.5137C217.014 11.7435 216.845 11.1488 216.508 10.7295C216.175 10.3102 215.697 10.1006 215.072 10.1006ZM229.674 9L227.609 16H225.948L224.677 11.2559C224.627 11.0736 224.595 10.8685 224.581 10.6406H224.554C224.545 10.7956 224.504 10.9961 224.431 11.2422L223.05 16H221.423L219.365 9H221.006L222.277 14.0449C222.318 14.1953 222.346 14.3958 222.359 14.6465H222.407C222.421 14.4551 222.457 14.25 222.517 14.0312L223.932 9H225.422L226.68 14.0654C226.721 14.2249 226.75 14.4255 226.769 14.667H226.816C226.826 14.4984 226.86 14.2979 226.919 14.0654L228.163 9H229.674ZM236.715 12.9307H231.943C231.962 13.5778 232.16 14.0768 232.538 14.4277C232.921 14.7786 233.445 14.9541 234.11 14.9541C234.858 14.9541 235.544 14.7308 236.168 14.2842V15.5625C235.53 15.9635 234.687 16.1641 233.639 16.1641C232.609 16.1641 231.8 15.8473 231.212 15.2139C230.629 14.5758 230.337 13.6803 230.337 12.5273C230.337 11.4382 230.658 10.5518 231.301 9.86816C231.948 9.18001 232.75 8.83594 233.707 8.83594C234.664 8.83594 235.405 9.14355 235.929 9.75879C236.453 10.374 236.715 11.2285 236.715 12.3223V12.9307ZM235.184 11.8096C235.179 11.2399 235.045 10.7979 234.78 10.4834C234.516 10.1644 234.151 10.0049 233.687 10.0049C233.231 10.0049 232.843 10.1712 232.524 10.5039C232.21 10.8366 232.016 11.2718 231.943 11.8096H235.184ZM242.286 10.5107C242.095 10.3604 241.819 10.2852 241.459 10.2852C240.99 10.2852 240.598 10.4971 240.283 10.9209C239.969 11.3447 239.812 11.9212 239.812 12.6504V16H238.226V9H239.812V10.4424H239.839C239.994 9.9502 240.231 9.56738 240.55 9.29395C240.873 9.01595 241.233 8.87695 241.63 8.87695C241.917 8.87695 242.136 8.92025 242.286 9.00684V10.5107ZM255.493 16H253.709L252.827 13.5049H248.972L248.124 16H246.347L250.018 6.19727H251.85L255.493 16ZM252.396 12.1787L251.036 8.26855C250.995 8.14095 250.952 7.93587 250.906 7.65332H250.879C250.838 7.91309 250.792 8.11816 250.742 8.26855L249.396 12.1787H252.396ZM258.282 14.9678H258.255V19.2197H256.669V9H258.255V10.2305H258.282C258.825 9.30078 259.618 8.83594 260.661 8.83594C261.55 8.83594 262.243 9.14811 262.739 9.77246C263.236 10.3968 263.484 11.2354 263.484 12.2881C263.484 13.4548 263.204 14.389 262.644 15.0908C262.083 15.7926 261.317 16.1436 260.347 16.1436C259.453 16.1436 258.765 15.7516 258.282 14.9678ZM258.241 12.2061V13.0742C258.241 13.5846 258.403 14.0176 258.727 14.373C259.055 14.7285 259.469 14.9062 259.971 14.9062C260.559 14.9062 261.019 14.6784 261.352 14.2227C261.689 13.7624 261.857 13.1221 261.857 12.3018C261.857 11.6136 261.7 11.0758 261.386 10.6885C261.076 10.2965 260.654 10.1006 260.121 10.1006C259.556 10.1006 259.1 10.3011 258.754 10.7021C258.412 11.1032 258.241 11.6045 258.241 12.2061ZM266.718 14.9678H266.69V19.2197H265.104V9H266.69V10.2305H266.718C267.26 9.30078 268.053 8.83594 269.097 8.83594C269.985 8.83594 270.678 9.14811 271.175 9.77246C271.672 10.3968 271.92 11.2354 271.92 12.2881C271.92 13.4548 271.64 14.389 271.079 15.0908C270.519 15.7926 269.753 16.1436 268.782 16.1436C267.889 16.1436 267.201 15.7516 266.718 14.9678ZM266.677 12.2061V13.0742C266.677 13.5846 266.839 14.0176 267.162 14.373C267.49 14.7285 267.905 14.9062 268.406 14.9062C268.994 14.9062 269.454 14.6784 269.787 14.2227C270.124 13.7624 270.293 13.1221 270.293 12.3018C270.293 11.6136 270.136 11.0758 269.821 10.6885C269.511 10.2965 269.09 10.1006 268.557 10.1006C267.992 10.1006 267.536 10.3011 267.189 10.7021C266.848 11.1032 266.677 11.6045 266.677 12.2061ZM273.103 15.7812V14.3115C273.695 14.7627 274.349 14.9883 275.064 14.9883C276.021 14.9883 276.5 14.7057 276.5 14.1406C276.5 13.9811 276.459 13.8467 276.377 13.7373C276.295 13.6234 276.183 13.5231 276.042 13.4365C275.905 13.3499 275.741 13.2725 275.55 13.2041C275.363 13.1357 275.153 13.0583 274.921 12.9717C274.634 12.8577 274.374 12.737 274.142 12.6094C273.914 12.4818 273.722 12.3382 273.567 12.1787C273.417 12.0146 273.303 11.8301 273.226 11.625C273.148 11.4199 273.109 11.1807 273.109 10.9072C273.109 10.57 273.189 10.2738 273.349 10.0186C273.508 9.75879 273.722 9.54232 273.991 9.36914C274.26 9.19141 274.565 9.05924 274.907 8.97266C275.249 8.88151 275.602 8.83594 275.967 8.83594C276.614 8.83594 277.193 8.93392 277.703 9.12988V10.5176C277.211 10.1803 276.646 10.0117 276.008 10.0117C275.807 10.0117 275.625 10.0322 275.461 10.0732C275.301 10.1143 275.165 10.1712 275.051 10.2441C274.937 10.3171 274.848 10.4059 274.784 10.5107C274.72 10.611 274.688 10.7227 274.688 10.8457C274.688 10.9961 274.72 11.1237 274.784 11.2285C274.848 11.3333 274.941 11.4268 275.064 11.5088C275.192 11.5863 275.342 11.6592 275.516 11.7275C275.693 11.7913 275.896 11.862 276.124 11.9395C276.425 12.0625 276.694 12.1878 276.931 12.3154C277.172 12.443 277.377 12.5889 277.546 12.7529C277.715 12.9124 277.844 13.0993 277.936 13.3135C278.027 13.5231 278.072 13.7738 278.072 14.0654C278.072 14.4209 277.99 14.7308 277.826 14.9951C277.662 15.2594 277.443 15.4782 277.17 15.6514C276.896 15.8245 276.58 15.9521 276.22 16.0342C275.864 16.1208 275.488 16.1641 275.092 16.1641C274.326 16.1641 273.663 16.0365 273.103 15.7812Z" fill="white"/>
<path d="M558.864 100V90.1973H561.694C565.308 90.1973 567.115 91.79 567.115 94.9756C567.115 96.4886 566.614 97.7054 565.611 98.626C564.609 99.542 563.264 100 561.578 100H558.864ZM560.484 91.5781V98.626H561.783C562.927 98.626 563.816 98.3115 564.449 97.6826C565.087 97.0537 565.406 96.165 565.406 95.0166C565.406 92.7243 564.219 91.5781 561.845 91.5781H560.484ZM574.662 96.9307H569.891C569.909 97.5778 570.107 98.0768 570.485 98.4277C570.868 98.7786 571.392 98.9541 572.058 98.9541C572.805 98.9541 573.491 98.7308 574.115 98.2842V99.5625C573.477 99.9635 572.634 100.164 571.586 100.164C570.556 100.164 569.747 99.8473 569.159 99.2139C568.576 98.5758 568.284 97.6803 568.284 96.5273C568.284 95.4382 568.605 94.5518 569.248 93.8682C569.895 93.18 570.697 92.8359 571.654 92.8359C572.611 92.8359 573.352 93.1436 573.876 93.7588C574.4 94.374 574.662 95.2285 574.662 96.3223V96.9307ZM573.131 95.8096C573.126 95.2399 572.992 94.7979 572.728 94.4834C572.463 94.1644 572.099 94.0049 571.634 94.0049C571.178 94.0049 570.791 94.1712 570.472 94.5039C570.157 94.8366 569.964 95.2718 569.891 95.8096H573.131ZM575.735 99.7812V98.3115C576.328 98.7627 576.982 98.9883 577.697 98.9883C578.654 98.9883 579.133 98.7057 579.133 98.1406C579.133 97.9811 579.092 97.8467 579.01 97.7373C578.928 97.6234 578.816 97.5231 578.675 97.4365C578.538 97.3499 578.374 97.2725 578.183 97.2041C577.996 97.1357 577.786 97.0583 577.554 96.9717C577.267 96.8577 577.007 96.737 576.774 96.6094C576.547 96.4818 576.355 96.3382 576.2 96.1787C576.05 96.0146 575.936 95.8301 575.858 95.625C575.781 95.4199 575.742 95.1807 575.742 94.9072C575.742 94.57 575.822 94.2738 575.981 94.0186C576.141 93.7588 576.355 93.5423 576.624 93.3691C576.893 93.1914 577.198 93.0592 577.54 92.9727C577.882 92.8815 578.235 92.8359 578.6 92.8359C579.247 92.8359 579.826 92.9339 580.336 93.1299V94.5176C579.844 94.1803 579.279 94.0117 578.641 94.0117C578.44 94.0117 578.258 94.0322 578.094 94.0732C577.934 94.1143 577.798 94.1712 577.684 94.2441C577.57 94.3171 577.481 94.4059 577.417 94.5107C577.353 94.611 577.321 94.7227 577.321 94.8457C577.321 94.9961 577.353 95.1237 577.417 95.2285C577.481 95.3333 577.574 95.4268 577.697 95.5088C577.825 95.5863 577.975 95.6592 578.148 95.7275C578.326 95.7913 578.529 95.862 578.757 95.9395C579.058 96.0625 579.326 96.1878 579.563 96.3154C579.805 96.443 580.01 96.5889 580.179 96.7529C580.347 96.9124 580.477 97.0993 580.568 97.3135C580.66 97.5231 580.705 97.7738 580.705 98.0654C580.705 98.4209 580.623 98.7308 580.459 98.9951C580.295 99.2594 580.076 99.4782 579.803 99.6514C579.529 99.8245 579.213 99.9521 578.853 100.034C578.497 100.121 578.121 100.164 577.725 100.164C576.959 100.164 576.296 100.036 575.735 99.7812ZM583.016 91.5303C582.756 91.5303 582.533 91.446 582.346 91.2773C582.163 91.1087 582.072 90.8945 582.072 90.6348C582.072 90.375 582.163 90.1585 582.346 89.9854C582.533 89.8122 582.756 89.7256 583.016 89.7256C583.285 89.7256 583.512 89.8122 583.699 89.9854C583.886 90.1585 583.979 90.375 583.979 90.6348C583.979 90.8809 583.886 91.0928 583.699 91.2705C583.512 91.4437 583.285 91.5303 583.016 91.5303ZM583.802 100H582.216V93H583.802V100ZM592.251 99.4395C592.251 102.01 590.959 103.295 588.375 103.295C587.464 103.295 586.668 103.142 585.989 102.837V101.388C586.755 101.825 587.482 102.044 588.17 102.044C589.833 102.044 590.665 101.226 590.665 99.5898V98.8242H590.638C590.114 99.7174 589.325 100.164 588.272 100.164C587.42 100.164 586.732 99.8542 586.208 99.2344C585.688 98.61 585.429 97.7738 585.429 96.7256C585.429 95.5361 585.709 94.5905 586.27 93.8887C586.83 93.1868 587.6 92.8359 588.58 92.8359C589.505 92.8359 590.191 93.2142 590.638 93.9707H590.665V93H592.251V99.4395ZM590.679 96.7939V95.8848C590.679 95.3926 590.515 94.9733 590.187 94.627C589.863 94.276 589.457 94.1006 588.97 94.1006C588.368 94.1006 587.896 94.3239 587.555 94.7705C587.217 95.2126 587.049 95.8324 587.049 96.6299C587.049 97.318 587.211 97.8695 587.534 98.2842C587.862 98.6943 588.295 98.8994 588.833 98.8994C589.38 98.8994 589.824 98.7035 590.166 98.3115C590.508 97.915 590.679 97.4092 590.679 96.7939ZM600.55 100H598.964V96.0557C598.964 94.7477 598.501 94.0938 597.576 94.0938C597.093 94.0938 596.694 94.276 596.38 94.6406C596.065 95.0007 595.908 95.4564 595.908 96.0078V100H594.315V93H595.908V94.1621H595.936C596.46 93.278 597.216 92.8359 598.205 92.8359C598.966 92.8359 599.547 93.0843 599.948 93.5811C600.349 94.0732 600.55 94.7865 600.55 95.7207V100ZM610.038 99.9248C609.728 100.08 609.32 100.157 608.814 100.157C607.456 100.157 606.777 99.5055 606.777 98.2021V94.2441H605.608V93H606.777V91.3799L608.363 90.9287V93H610.038V94.2441H608.363V97.7441C608.363 98.1589 608.438 98.4551 608.589 98.6328C608.739 98.8105 608.99 98.8994 609.341 98.8994C609.61 98.8994 609.842 98.8219 610.038 98.667V99.9248ZM617.626 100H616.04V96.1719C616.04 94.7865 615.577 94.0938 614.652 94.0938C614.188 94.0938 613.796 94.2943 613.477 94.6953C613.158 95.0964 612.998 95.609 612.998 96.2334V100H611.405V89.6367H612.998V94.1621H613.025C613.554 93.278 614.311 92.8359 615.295 92.8359C616.849 92.8359 617.626 93.7861 617.626 95.6865V100ZM625.48 96.9307H620.709C620.727 97.5778 620.925 98.0768 621.304 98.4277C621.687 98.7786 622.211 98.9541 622.876 98.9541C623.623 98.9541 624.309 98.7308 624.934 98.2842V99.5625C624.296 99.9635 623.452 100.164 622.404 100.164C621.374 100.164 620.565 99.8473 619.978 99.2139C619.394 98.5758 619.103 97.6803 619.103 96.5273C619.103 95.4382 619.424 94.5518 620.066 93.8682C620.714 93.18 621.516 92.8359 622.473 92.8359C623.43 92.8359 624.17 93.1436 624.694 93.7588C625.218 94.374 625.48 95.2285 625.48 96.3223V96.9307ZM623.949 95.8096C623.945 95.2399 623.81 94.7979 623.546 94.4834C623.282 94.1644 622.917 94.0049 622.452 94.0049C621.996 94.0049 621.609 94.1712 621.29 94.5039C620.976 94.8366 620.782 95.2718 620.709 95.8096H623.949ZM636.22 100H634.682V98.9062H634.654C634.171 99.7448 633.463 100.164 632.528 100.164C631.84 100.164 631.3 99.9772 630.908 99.6035C630.521 99.2298 630.327 98.7354 630.327 98.1201C630.327 96.7985 631.088 96.0283 632.61 95.8096L634.688 95.5156C634.688 94.5176 634.215 94.0186 633.267 94.0186C632.433 94.0186 631.681 94.3057 631.011 94.8799V93.4922C631.749 93.0547 632.601 92.8359 633.567 92.8359C635.336 92.8359 636.22 93.7064 636.22 95.4473V100ZM634.688 96.5615L633.219 96.7666C632.763 96.8258 632.419 96.9375 632.187 97.1016C631.959 97.2611 631.845 97.5436 631.845 97.9492C631.845 98.2454 631.95 98.4893 632.159 98.6807C632.373 98.8675 632.658 98.9609 633.014 98.9609C633.497 98.9609 633.896 98.7923 634.21 98.4551C634.529 98.1133 634.688 97.6849 634.688 97.1699V96.5615ZM639.774 98.9678H639.747V103.22H638.161V93H639.747V94.2305H639.774C640.317 93.3008 641.11 92.8359 642.153 92.8359C643.042 92.8359 643.735 93.1481 644.231 93.7725C644.728 94.3968 644.977 95.2354 644.977 96.2881C644.977 97.4548 644.696 98.389 644.136 99.0908C643.575 99.7926 642.81 100.144 641.839 100.144C640.946 100.144 640.257 99.7516 639.774 98.9678ZM639.733 96.2061V97.0742C639.733 97.5846 639.895 98.0176 640.219 98.373C640.547 98.7285 640.962 98.9062 641.463 98.9062C642.051 98.9062 642.511 98.6784 642.844 98.2227C643.181 97.7624 643.35 97.1221 643.35 96.3018C643.35 95.6136 643.192 95.0758 642.878 94.6885C642.568 94.2965 642.146 94.1006 641.613 94.1006C641.048 94.1006 640.592 94.3011 640.246 94.7021C639.904 95.1032 639.733 95.6045 639.733 96.2061ZM648.21 98.9678H648.183V103.22H646.597V93H648.183V94.2305H648.21C648.752 93.3008 649.545 92.8359 650.589 92.8359C651.478 92.8359 652.17 93.1481 652.667 93.7725C653.164 94.3968 653.412 95.2354 653.412 96.2881C653.412 97.4548 653.132 98.389 652.571 99.0908C652.011 99.7926 651.245 100.144 650.274 100.144C649.381 100.144 648.693 99.7516 648.21 98.9678ZM648.169 96.2061V97.0742C648.169 97.5846 648.331 98.0176 648.654 98.373C648.982 98.7285 649.397 98.9062 649.898 98.9062C650.486 98.9062 650.947 98.6784 651.279 98.2227C651.617 97.7624 651.785 97.1221 651.785 96.3018C651.785 95.6136 651.628 95.0758 651.313 94.6885C651.004 94.2965 650.582 94.1006 650.049 94.1006C649.484 94.1006 649.028 94.3011 648.682 94.7021C648.34 95.1032 648.169 95.6045 648.169 96.2061Z" fill="white"/>
<path d="M46.7588 217.61V215.936C46.9092 216.072 47.0869 216.195 47.292 216.305C47.5016 216.414 47.7227 216.507 47.9551 216.585C48.1875 216.658 48.4199 216.715 48.6523 216.756C48.8848 216.797 49.099 216.817 49.2949 216.817C49.9785 216.817 50.4867 216.703 50.8193 216.476C51.1566 216.248 51.3252 215.917 51.3252 215.484C51.3252 215.252 51.2682 215.051 51.1543 214.883C51.0449 214.71 50.89 214.552 50.6895 214.411C50.4889 214.27 50.252 214.135 49.9785 214.008C49.7096 213.876 49.4202 213.739 49.1104 213.598C48.7777 213.42 48.4678 213.24 48.1807 213.058C47.8936 212.875 47.6429 212.675 47.4287 212.456C47.2191 212.233 47.0527 211.982 46.9297 211.704C46.8112 211.426 46.752 211.1 46.752 210.727C46.752 210.266 46.8545 209.868 47.0596 209.53C47.2692 209.188 47.5426 208.908 47.8799 208.689C48.2217 208.466 48.609 208.302 49.042 208.197C49.4749 208.088 49.917 208.033 50.3682 208.033C51.3936 208.033 52.141 208.149 52.6104 208.382V209.988C52.0544 209.587 51.3389 209.387 50.4639 209.387C50.2223 209.387 49.9808 209.41 49.7393 209.455C49.5023 209.501 49.2881 209.576 49.0967 209.681C48.9098 209.785 48.7572 209.92 48.6387 210.084C48.5202 210.248 48.4609 210.446 48.4609 210.679C48.4609 210.897 48.5065 211.087 48.5977 211.246C48.6888 211.406 48.821 211.551 48.9941 211.684C49.1719 211.816 49.3861 211.946 49.6367 212.073C49.8919 212.196 50.1859 212.331 50.5186 212.477C50.8604 212.654 51.1816 212.841 51.4824 213.037C51.7878 213.233 52.0544 213.45 52.2822 213.687C52.5146 213.924 52.6969 214.188 52.8291 214.479C52.9658 214.767 53.0342 215.095 53.0342 215.464C53.0342 215.961 52.9339 216.38 52.7334 216.722C52.5329 217.063 52.2617 217.341 51.9199 217.556C51.5827 217.77 51.193 217.925 50.751 218.021C50.3089 218.116 49.8418 218.164 49.3496 218.164C49.1855 218.164 48.9827 218.15 48.7412 218.123C48.5042 218.1 48.2604 218.064 48.0098 218.014C47.7591 217.968 47.5221 217.911 47.2988 217.843C47.0755 217.774 46.8955 217.697 46.7588 217.61ZM60.8818 218H59.2959V214.172C59.2959 212.786 58.8333 212.094 57.9082 212.094C57.4434 212.094 57.0514 212.294 56.7324 212.695C56.4134 213.096 56.2539 213.609 56.2539 214.233V218H54.6611V207.637H56.2539V212.162H56.2812C56.8099 211.278 57.5664 210.836 58.5508 210.836C60.1048 210.836 60.8818 211.786 60.8818 213.687V218ZM68.1826 218H66.6445V216.906H66.6172C66.1341 217.745 65.4255 218.164 64.4912 218.164C63.8031 218.164 63.263 217.977 62.8711 217.604C62.4837 217.23 62.29 216.735 62.29 216.12C62.29 214.799 63.0511 214.028 64.5732 213.81L66.6514 213.516C66.6514 212.518 66.1774 212.019 65.2295 212.019C64.3955 212.019 63.6436 212.306 62.9736 212.88V211.492C63.7119 211.055 64.5641 210.836 65.5303 210.836C67.2985 210.836 68.1826 211.706 68.1826 213.447V218ZM66.6514 214.562L65.1816 214.767C64.7259 214.826 64.3818 214.938 64.1494 215.102C63.9215 215.261 63.8076 215.544 63.8076 215.949C63.8076 216.245 63.9124 216.489 64.1221 216.681C64.3363 216.868 64.6211 216.961 64.9766 216.961C65.4596 216.961 65.8584 216.792 66.1729 216.455C66.4919 216.113 66.6514 215.685 66.6514 215.17V214.562ZM74.1846 212.511C73.9932 212.36 73.7174 212.285 73.3574 212.285C72.888 212.285 72.4961 212.497 72.1816 212.921C71.8672 213.345 71.71 213.921 71.71 214.65V218H70.124V211H71.71V212.442H71.7373C71.8923 211.95 72.1292 211.567 72.4482 211.294C72.7718 211.016 73.1318 210.877 73.5283 210.877C73.8154 210.877 74.0342 210.92 74.1846 211.007V212.511ZM81.1094 214.931H76.3379C76.3561 215.578 76.5544 216.077 76.9326 216.428C77.3154 216.779 77.8395 216.954 78.5049 216.954C79.2523 216.954 79.9382 216.731 80.5625 216.284V217.562C79.9245 217.964 79.0814 218.164 78.0332 218.164C77.0033 218.164 76.1943 217.847 75.6064 217.214C75.0231 216.576 74.7314 215.68 74.7314 214.527C74.7314 213.438 75.0527 212.552 75.6953 211.868C76.3424 211.18 77.1445 210.836 78.1016 210.836C79.0586 210.836 79.7992 211.144 80.3232 211.759C80.8473 212.374 81.1094 213.229 81.1094 214.322V214.931ZM79.5781 213.81C79.5736 213.24 79.4391 212.798 79.1748 212.483C78.9105 212.164 78.5459 212.005 78.0811 212.005C77.6253 212.005 77.238 212.171 76.9189 212.504C76.6045 212.837 76.4108 213.272 76.3379 213.81H79.5781ZM87.2754 209.53C87.0156 209.53 86.7923 209.446 86.6055 209.277C86.4232 209.109 86.332 208.895 86.332 208.635C86.332 208.375 86.4232 208.159 86.6055 207.985C86.7923 207.812 87.0156 207.726 87.2754 207.726C87.5443 207.726 87.7721 207.812 87.959 207.985C88.1458 208.159 88.2393 208.375 88.2393 208.635C88.2393 208.881 88.1458 209.093 87.959 209.271C87.7721 209.444 87.5443 209.53 87.2754 209.53ZM88.0615 218H86.4756V211H88.0615V218ZM93.8311 217.925C93.5212 218.08 93.1133 218.157 92.6074 218.157C91.2493 218.157 90.5703 217.506 90.5703 216.202V212.244H89.4014V211H90.5703V209.38L92.1562 208.929V211H93.8311V212.244H92.1562V215.744C92.1562 216.159 92.2314 216.455 92.3818 216.633C92.5322 216.811 92.7829 216.899 93.1338 216.899C93.4027 216.899 93.6351 216.822 93.8311 216.667V217.925ZM108.467 211L106.402 218H104.741L103.47 213.256C103.42 213.074 103.388 212.868 103.374 212.641H103.347C103.338 212.796 103.297 212.996 103.224 213.242L101.843 218H100.216L98.1582 211H99.7988L101.07 216.045C101.111 216.195 101.139 216.396 101.152 216.646H101.2C101.214 216.455 101.25 216.25 101.31 216.031L102.725 211H104.215L105.473 216.065C105.514 216.225 105.543 216.425 105.562 216.667H105.609C105.618 216.498 105.653 216.298 105.712 216.065L106.956 211H108.467ZM110.449 209.53C110.189 209.53 109.966 209.446 109.779 209.277C109.597 209.109 109.506 208.895 109.506 208.635C109.506 208.375 109.597 208.159 109.779 207.985C109.966 207.812 110.189 207.726 110.449 207.726C110.718 207.726 110.946 207.812 111.133 207.985C111.32 208.159 111.413 208.375 111.413 208.635C111.413 208.881 111.32 209.093 111.133 209.271C110.946 209.444 110.718 209.53 110.449 209.53ZM111.235 218H109.649V211H111.235V218ZM117.005 217.925C116.695 218.08 116.287 218.157 115.781 218.157C114.423 218.157 113.744 217.506 113.744 216.202V212.244H112.575V211H113.744V209.38L115.33 208.929V211H117.005V212.244H115.33V215.744C115.33 216.159 115.405 216.455 115.556 216.633C115.706 216.811 115.957 216.899 116.308 216.899C116.576 216.899 116.809 216.822 117.005 216.667V217.925ZM124.593 218H123.007V214.172C123.007 212.786 122.544 212.094 121.619 212.094C121.154 212.094 120.762 212.294 120.443 212.695C120.124 213.096 119.965 213.609 119.965 214.233V218H118.372V207.637H119.965V212.162H119.992C120.521 211.278 121.277 210.836 122.262 210.836C123.816 210.836 124.593 211.786 124.593 213.687V218ZM135.387 217.679C134.826 218.002 134.163 218.164 133.397 218.164C132.358 218.164 131.52 217.84 130.882 217.193C130.244 216.542 129.925 215.699 129.925 214.664C129.925 213.511 130.267 212.586 130.95 211.889C131.638 211.187 132.557 210.836 133.705 210.836C134.343 210.836 134.906 210.948 135.394 211.171V212.647C134.906 212.283 134.386 212.101 133.835 212.101C133.165 212.101 132.616 212.328 132.188 212.784C131.759 213.235 131.545 213.828 131.545 214.562C131.545 215.286 131.745 215.858 132.146 216.277C132.552 216.697 133.094 216.906 133.773 216.906C134.343 216.906 134.881 216.703 135.387 216.298V217.679ZM140.069 218.164C138.989 218.164 138.126 217.838 137.479 217.187C136.836 216.53 136.515 215.662 136.515 214.582C136.515 213.406 136.85 212.488 137.52 211.827C138.194 211.166 139.101 210.836 140.24 210.836C141.334 210.836 142.186 211.157 142.797 211.8C143.408 212.442 143.713 213.333 143.713 214.473C143.713 215.589 143.382 216.485 142.722 217.159C142.065 217.829 141.181 218.164 140.069 218.164ZM140.145 212.101C139.525 212.101 139.035 212.317 138.675 212.75C138.315 213.183 138.135 213.78 138.135 214.541C138.135 215.275 138.317 215.854 138.682 216.277C139.046 216.697 139.534 216.906 140.145 216.906C140.769 216.906 141.247 216.699 141.58 216.284C141.917 215.869 142.086 215.279 142.086 214.514C142.086 213.743 141.917 213.149 141.58 212.729C141.247 212.31 140.769 212.101 140.145 212.101ZM146.926 218H145.333V207.637H146.926V218ZM150.59 218H148.997V207.637H150.59V218ZM158.588 214.931H153.816C153.835 215.578 154.033 216.077 154.411 216.428C154.794 216.779 155.318 216.954 155.983 216.954C156.731 216.954 157.417 216.731 158.041 216.284V217.562C157.403 217.964 156.56 218.164 155.512 218.164C154.482 218.164 153.673 217.847 153.085 217.214C152.502 216.576 152.21 215.68 152.21 214.527C152.21 213.438 152.531 212.552 153.174 211.868C153.821 211.18 154.623 210.836 155.58 210.836C156.537 210.836 157.278 211.144 157.802 211.759C158.326 212.374 158.588 213.229 158.588 214.322V214.931ZM157.057 213.81C157.052 213.24 156.918 212.798 156.653 212.483C156.389 212.164 156.024 212.005 155.56 212.005C155.104 212.005 154.716 212.171 154.397 212.504C154.083 212.837 153.889 213.272 153.816 213.81H157.057ZM165.472 218H163.934V216.906H163.906C163.423 217.745 162.715 218.164 161.78 218.164C161.092 218.164 160.552 217.977 160.16 217.604C159.773 217.23 159.579 216.735 159.579 216.12C159.579 214.799 160.34 214.028 161.862 213.81L163.94 213.516C163.94 212.518 163.466 212.019 162.519 212.019C161.685 212.019 160.933 212.306 160.263 212.88V211.492C161.001 211.055 161.853 210.836 162.819 210.836C164.588 210.836 165.472 211.706 165.472 213.447V218ZM163.94 214.562L162.471 214.767C162.015 214.826 161.671 214.938 161.438 215.102C161.211 215.261 161.097 215.544 161.097 215.949C161.097 216.245 161.201 216.489 161.411 216.681C161.625 216.868 161.91 216.961 162.266 216.961C162.749 216.961 163.147 216.792 163.462 216.455C163.781 216.113 163.94 215.685 163.94 215.17V214.562ZM173.784 217.439C173.784 220.01 172.492 221.295 169.908 221.295C168.997 221.295 168.201 221.142 167.522 220.837V219.388C168.288 219.825 169.015 220.044 169.703 220.044C171.367 220.044 172.198 219.226 172.198 217.59V216.824H172.171C171.647 217.717 170.858 218.164 169.806 218.164C168.953 218.164 168.265 217.854 167.741 217.234C167.222 216.61 166.962 215.774 166.962 214.726C166.962 213.536 167.242 212.59 167.803 211.889C168.363 211.187 169.133 210.836 170.113 210.836C171.038 210.836 171.724 211.214 172.171 211.971H172.198V211H173.784V217.439ZM172.212 214.794V213.885C172.212 213.393 172.048 212.973 171.72 212.627C171.396 212.276 170.991 212.101 170.503 212.101C169.901 212.101 169.43 212.324 169.088 212.771C168.751 213.213 168.582 213.832 168.582 214.63C168.582 215.318 168.744 215.869 169.067 216.284C169.396 216.694 169.828 216.899 170.366 216.899C170.913 216.899 171.357 216.703 171.699 216.312C172.041 215.915 172.212 215.409 172.212 214.794ZM181.953 218H180.367V216.893H180.34C179.88 217.74 179.164 218.164 178.193 218.164C176.539 218.164 175.712 217.171 175.712 215.184V211H177.298V215.02C177.298 216.277 177.783 216.906 178.754 216.906C179.223 216.906 179.608 216.733 179.909 216.387C180.215 216.04 180.367 215.587 180.367 215.026V211H181.953V218ZM189.951 214.931H185.18C185.198 215.578 185.396 216.077 185.774 216.428C186.157 216.779 186.681 216.954 187.347 216.954C188.094 216.954 188.78 216.731 189.404 216.284V217.562C188.766 217.964 187.923 218.164 186.875 218.164C185.845 218.164 185.036 217.847 184.448 217.214C183.865 216.576 183.573 215.68 183.573 214.527C183.573 213.438 183.895 212.552 184.537 211.868C185.184 211.18 185.986 210.836 186.943 210.836C187.9 210.836 188.641 211.144 189.165 211.759C189.689 212.374 189.951 213.229 189.951 214.322V214.931ZM188.42 213.81C188.415 213.24 188.281 212.798 188.017 212.483C187.752 212.164 187.388 212.005 186.923 212.005C186.467 212.005 186.08 212.171 185.761 212.504C185.446 212.837 185.253 213.272 185.18 213.81H188.42ZM191.024 217.781V216.312C191.617 216.763 192.271 216.988 192.986 216.988C193.943 216.988 194.422 216.706 194.422 216.141C194.422 215.981 194.381 215.847 194.299 215.737C194.217 215.623 194.105 215.523 193.964 215.437C193.827 215.35 193.663 215.272 193.472 215.204C193.285 215.136 193.075 215.058 192.843 214.972C192.556 214.858 192.296 214.737 192.063 214.609C191.836 214.482 191.644 214.338 191.489 214.179C191.339 214.015 191.225 213.83 191.147 213.625C191.07 213.42 191.031 213.181 191.031 212.907C191.031 212.57 191.111 212.274 191.271 212.019C191.43 211.759 191.644 211.542 191.913 211.369C192.182 211.191 192.487 211.059 192.829 210.973C193.171 210.882 193.524 210.836 193.889 210.836C194.536 210.836 195.115 210.934 195.625 211.13V212.518C195.133 212.18 194.568 212.012 193.93 212.012C193.729 212.012 193.547 212.032 193.383 212.073C193.223 212.114 193.087 212.171 192.973 212.244C192.859 212.317 192.77 212.406 192.706 212.511C192.642 212.611 192.61 212.723 192.61 212.846C192.61 212.996 192.642 213.124 192.706 213.229C192.77 213.333 192.863 213.427 192.986 213.509C193.114 213.586 193.264 213.659 193.438 213.728C193.615 213.791 193.818 213.862 194.046 213.939C194.347 214.062 194.616 214.188 194.853 214.315C195.094 214.443 195.299 214.589 195.468 214.753C195.636 214.912 195.766 215.099 195.857 215.313C195.949 215.523 195.994 215.774 195.994 216.065C195.994 216.421 195.912 216.731 195.748 216.995C195.584 217.259 195.365 217.478 195.092 217.651C194.818 217.825 194.502 217.952 194.142 218.034C193.786 218.121 193.41 218.164 193.014 218.164C192.248 218.164 191.585 218.036 191.024 217.781ZM202.16 209.53C201.9 209.53 201.677 209.446 201.49 209.277C201.308 209.109 201.217 208.895 201.217 208.635C201.217 208.375 201.308 208.159 201.49 207.985C201.677 207.812 201.9 207.726 202.16 207.726C202.429 207.726 202.657 207.812 202.844 207.985C203.031 208.159 203.124 208.375 203.124 208.635C203.124 208.881 203.031 209.093 202.844 209.271C202.657 209.444 202.429 209.53 202.16 209.53ZM202.946 218H201.36V211H202.946V218ZM211.259 218H209.673V214.056C209.673 212.748 209.21 212.094 208.285 212.094C207.802 212.094 207.403 212.276 207.089 212.641C206.774 213.001 206.617 213.456 206.617 214.008V218H205.024V211H206.617V212.162H206.645C207.169 211.278 207.925 210.836 208.914 210.836C209.675 210.836 210.256 211.084 210.657 211.581C211.058 212.073 211.259 212.786 211.259 213.721V218ZM223.522 209.578H220.706V218H219.079V209.578H216.27V208.197H223.522V209.578ZM229.34 214.931H224.568C224.587 215.578 224.785 216.077 225.163 216.428C225.546 216.779 226.07 216.954 226.735 216.954C227.483 216.954 228.169 216.731 228.793 216.284V217.562C228.155 217.964 227.312 218.164 226.264 218.164C225.234 218.164 224.425 217.847 223.837 217.214C223.254 216.576 222.962 215.68 222.962 214.527C222.962 213.438 223.283 212.552 223.926 211.868C224.573 211.18 225.375 210.836 226.332 210.836C227.289 210.836 228.03 211.144 228.554 211.759C229.078 212.374 229.34 213.229 229.34 214.322V214.931ZM227.809 213.81C227.804 213.24 227.67 212.798 227.405 212.483C227.141 212.164 226.776 212.005 226.312 212.005C225.856 212.005 225.468 212.171 225.149 212.504C224.835 212.837 224.641 213.272 224.568 213.81H227.809ZM236.224 218H234.686V216.906H234.658C234.175 217.745 233.466 218.164 232.532 218.164C231.844 218.164 231.304 217.977 230.912 217.604C230.525 217.23 230.331 216.735 230.331 216.12C230.331 214.799 231.092 214.028 232.614 213.81L234.692 213.516C234.692 212.518 234.218 212.019 233.271 212.019C232.437 212.019 231.685 212.306 231.015 212.88V211.492C231.753 211.055 232.605 210.836 233.571 210.836C235.34 210.836 236.224 211.706 236.224 213.447V218ZM234.692 214.562L233.223 214.767C232.767 214.826 232.423 214.938 232.19 215.102C231.963 215.261 231.849 215.544 231.849 215.949C231.849 216.245 231.953 216.489 232.163 216.681C232.377 216.868 232.662 216.961 233.018 216.961C233.501 216.961 233.899 216.792 234.214 216.455C234.533 216.113 234.692 215.685 234.692 215.17V214.562ZM248.631 218H247.045V214.186C247.045 213.452 246.94 212.921 246.73 212.593C246.525 212.265 246.177 212.101 245.685 212.101C245.27 212.101 244.917 212.308 244.625 212.723C244.338 213.137 244.194 213.634 244.194 214.213V218H242.602V214.056C242.602 212.752 242.141 212.101 241.221 212.101C240.792 212.101 240.439 212.297 240.161 212.688C239.888 213.08 239.751 213.589 239.751 214.213V218H238.165V211H239.751V212.107H239.778C240.284 211.26 241.02 210.836 241.986 210.836C242.469 210.836 242.891 210.97 243.251 211.239C243.616 211.504 243.864 211.852 243.996 212.285C244.516 211.319 245.29 210.836 246.32 210.836C247.861 210.836 248.631 211.786 248.631 213.687V218ZM250.128 217.781V216.312C250.72 216.763 251.374 216.988 252.09 216.988C253.047 216.988 253.525 216.706 253.525 216.141C253.525 215.981 253.484 215.847 253.402 215.737C253.32 215.623 253.209 215.523 253.067 215.437C252.931 215.35 252.767 215.272 252.575 215.204C252.388 215.136 252.179 215.058 251.946 214.972C251.659 214.858 251.399 214.737 251.167 214.609C250.939 214.482 250.748 214.338 250.593 214.179C250.442 214.015 250.328 213.83 250.251 213.625C250.174 213.42 250.135 213.181 250.135 212.907C250.135 212.57 250.215 212.274 250.374 212.019C250.534 211.759 250.748 211.542 251.017 211.369C251.285 211.191 251.591 211.059 251.933 210.973C252.274 210.882 252.628 210.836 252.992 210.836C253.639 210.836 254.218 210.934 254.729 211.13V212.518C254.236 212.18 253.671 212.012 253.033 212.012C252.833 212.012 252.65 212.032 252.486 212.073C252.327 212.114 252.19 212.171 252.076 212.244C251.962 212.317 251.873 212.406 251.81 212.511C251.746 212.611 251.714 212.723 251.714 212.846C251.714 212.996 251.746 213.124 251.81 213.229C251.873 213.333 251.967 213.427 252.09 213.509C252.217 213.586 252.368 213.659 252.541 213.728C252.719 213.791 252.922 213.862 253.149 213.939C253.45 214.062 253.719 214.188 253.956 214.315C254.198 214.443 254.403 214.589 254.571 214.753C254.74 214.912 254.87 215.099 254.961 215.313C255.052 215.523 255.098 215.774 255.098 216.065C255.098 216.421 255.016 216.731 254.852 216.995C254.688 217.259 254.469 217.478 254.195 217.651C253.922 217.825 253.605 217.952 253.245 218.034C252.89 218.121 252.514 218.164 252.117 218.164C251.352 218.164 250.688 218.036 250.128 217.781Z" fill="white"/>
<path d="M552.628 260V250.197H555.738C556.686 250.197 557.436 250.405 557.987 250.819C558.543 251.234 558.821 251.774 558.821 252.439C558.821 252.995 558.664 253.479 558.35 253.889C558.035 254.299 557.6 254.59 557.044 254.764V254.791C557.718 254.868 558.256 255.119 558.657 255.543C559.063 255.962 559.266 256.509 559.266 257.184C559.266 258.022 558.935 258.701 558.274 259.221C557.614 259.74 556.78 260 555.772 260H552.628ZM554.248 251.503V254.292H555.301C555.866 254.292 556.308 254.16 556.627 253.896C556.951 253.627 557.112 253.248 557.112 252.761C557.112 251.922 556.552 251.503 555.431 251.503H554.248ZM554.248 255.598V258.701H555.636C556.242 258.701 556.709 258.562 557.037 258.284C557.37 258.002 557.536 257.614 557.536 257.122C557.536 256.106 556.832 255.598 555.424 255.598H554.248ZM566.84 256.931H562.068C562.087 257.578 562.285 258.077 562.663 258.428C563.046 258.779 563.57 258.954 564.235 258.954C564.983 258.954 565.669 258.731 566.293 258.284V259.562C565.655 259.964 564.812 260.164 563.764 260.164C562.734 260.164 561.925 259.847 561.337 259.214C560.754 258.576 560.462 257.68 560.462 256.527C560.462 255.438 560.783 254.552 561.426 253.868C562.073 253.18 562.875 252.836 563.832 252.836C564.789 252.836 565.53 253.144 566.054 253.759C566.578 254.374 566.84 255.229 566.84 256.322V256.931ZM565.309 255.81C565.304 255.24 565.17 254.798 564.905 254.483C564.641 254.164 564.276 254.005 563.812 254.005C563.356 254.005 562.968 254.171 562.649 254.504C562.335 254.837 562.141 255.272 562.068 255.81H565.309ZM573.361 259.679C572.801 260.002 572.138 260.164 571.372 260.164C570.333 260.164 569.494 259.84 568.856 259.193C568.218 258.542 567.899 257.699 567.899 256.664C567.899 255.511 568.241 254.586 568.925 253.889C569.613 253.187 570.531 252.836 571.68 252.836C572.318 252.836 572.881 252.948 573.368 253.171V254.647C572.881 254.283 572.361 254.101 571.81 254.101C571.14 254.101 570.59 254.328 570.162 254.784C569.734 255.235 569.52 255.828 569.52 256.562C569.52 257.286 569.72 257.858 570.121 258.277C570.527 258.697 571.069 258.906 571.748 258.906C572.318 258.906 572.855 258.703 573.361 258.298V259.679ZM578.044 260.164C576.964 260.164 576.1 259.838 575.453 259.187C574.811 258.53 574.489 257.662 574.489 256.582C574.489 255.406 574.824 254.488 575.494 253.827C576.169 253.166 577.076 252.836 578.215 252.836C579.309 252.836 580.161 253.157 580.771 253.8C581.382 254.442 581.688 255.333 581.688 256.473C581.688 257.589 581.357 258.485 580.696 259.159C580.04 259.829 579.156 260.164 578.044 260.164ZM578.119 254.101C577.499 254.101 577.009 254.317 576.649 254.75C576.289 255.183 576.109 255.78 576.109 256.541C576.109 257.275 576.292 257.854 576.656 258.277C577.021 258.697 577.508 258.906 578.119 258.906C578.743 258.906 579.222 258.699 579.555 258.284C579.892 257.869 580.061 257.279 580.061 256.514C580.061 255.743 579.892 255.149 579.555 254.729C579.222 254.31 578.743 254.101 578.119 254.101ZM593.773 260H592.188V256.186C592.188 255.452 592.083 254.921 591.873 254.593C591.668 254.265 591.319 254.101 590.827 254.101C590.412 254.101 590.059 254.308 589.768 254.723C589.48 255.137 589.337 255.634 589.337 256.213V260H587.744V256.056C587.744 254.752 587.284 254.101 586.363 254.101C585.935 254.101 585.582 254.297 585.304 254.688C585.03 255.08 584.894 255.589 584.894 256.213V260H583.308V253H584.894V254.107H584.921C585.427 253.26 586.163 252.836 587.129 252.836C587.612 252.836 588.034 252.97 588.394 253.239C588.758 253.504 589.007 253.852 589.139 254.285C589.658 253.319 590.433 252.836 591.463 252.836C593.003 252.836 593.773 253.786 593.773 255.687V260ZM601.635 256.931H596.863C596.882 257.578 597.08 258.077 597.458 258.428C597.841 258.779 598.365 258.954 599.03 258.954C599.778 258.954 600.464 258.731 601.088 258.284V259.562C600.45 259.964 599.607 260.164 598.559 260.164C597.529 260.164 596.72 259.847 596.132 259.214C595.549 258.576 595.257 257.68 595.257 256.527C595.257 255.438 595.578 254.552 596.221 253.868C596.868 253.18 597.67 252.836 598.627 252.836C599.584 252.836 600.325 253.144 600.849 253.759C601.373 254.374 601.635 255.229 601.635 256.322V256.931ZM600.104 255.81C600.099 255.24 599.965 254.798 599.7 254.483C599.436 254.164 599.071 254.005 598.606 254.005C598.151 254.005 597.763 254.171 597.444 254.504C597.13 254.837 596.936 255.272 596.863 255.81H600.104ZM612.374 260H610.836V258.906H610.809C610.326 259.745 609.617 260.164 608.683 260.164C607.994 260.164 607.454 259.977 607.062 259.604C606.675 259.23 606.481 258.735 606.481 258.12C606.481 256.799 607.243 256.028 608.765 255.81L610.843 255.516C610.843 254.518 610.369 254.019 609.421 254.019C608.587 254.019 607.835 254.306 607.165 254.88V253.492C607.903 253.055 608.756 252.836 609.722 252.836C611.49 252.836 612.374 253.706 612.374 255.447V260ZM610.843 256.562L609.373 256.767C608.917 256.826 608.573 256.938 608.341 257.102C608.113 257.261 607.999 257.544 607.999 257.949C607.999 258.245 608.104 258.489 608.313 258.681C608.528 258.868 608.812 258.961 609.168 258.961C609.651 258.961 610.05 258.792 610.364 258.455C610.683 258.113 610.843 257.685 610.843 257.17V256.562ZM628.637 260H627.051V256.186C627.051 255.452 626.946 254.921 626.736 254.593C626.531 254.265 626.183 254.101 625.69 254.101C625.276 254.101 624.923 254.308 624.631 254.723C624.344 255.137 624.2 255.634 624.2 256.213V260H622.607V256.056C622.607 254.752 622.147 254.101 621.227 254.101C620.798 254.101 620.445 254.297 620.167 254.688C619.894 255.08 619.757 255.589 619.757 256.213V260H618.171V253H619.757V254.107H619.784C620.29 253.26 621.026 252.836 621.992 252.836C622.475 252.836 622.897 252.97 623.257 253.239C623.621 253.504 623.87 253.852 624.002 254.285C624.521 253.319 625.296 252.836 626.326 252.836C627.867 252.836 628.637 253.786 628.637 255.687V260ZM635.944 260H634.406V258.906H634.379C633.896 259.745 633.187 260.164 632.253 260.164C631.565 260.164 631.025 259.977 630.633 259.604C630.245 259.23 630.052 258.735 630.052 258.12C630.052 256.799 630.813 256.028 632.335 255.81L634.413 255.516C634.413 254.518 633.939 254.019 632.991 254.019C632.157 254.019 631.405 254.306 630.735 254.88V253.492C631.474 253.055 632.326 252.836 633.292 252.836C635.06 252.836 635.944 253.706 635.944 255.447V260ZM634.413 256.562L632.943 256.767C632.488 256.826 632.144 256.938 631.911 257.102C631.683 257.261 631.569 257.544 631.569 257.949C631.569 258.245 631.674 258.489 631.884 258.681C632.098 258.868 632.383 258.961 632.738 258.961C633.221 258.961 633.62 258.792 633.935 258.455C634.254 258.113 634.413 257.685 634.413 257.17V256.562ZM644.236 260H642.227L639.506 256.637H639.479V260H637.886V249.637H639.479V256.206H639.506L642.076 253H643.983L641.092 256.377L644.236 260ZM650.922 256.931H646.15C646.169 257.578 646.367 258.077 646.745 258.428C647.128 258.779 647.652 258.954 648.317 258.954C649.065 258.954 649.751 258.731 650.375 258.284V259.562C649.737 259.964 648.894 260.164 647.846 260.164C646.816 260.164 646.007 259.847 645.419 259.214C644.836 258.576 644.544 257.68 644.544 256.527C644.544 255.438 644.865 254.552 645.508 253.868C646.155 253.18 646.957 252.836 647.914 252.836C648.871 252.836 649.612 253.144 650.136 253.759C650.66 254.374 650.922 255.229 650.922 256.322V256.931ZM649.391 255.81C649.386 255.24 649.252 254.798 648.987 254.483C648.723 254.164 648.358 254.005 647.894 254.005C647.438 254.005 647.05 254.171 646.731 254.504C646.417 254.837 646.223 255.272 646.15 255.81H649.391ZM656.493 254.511C656.302 254.36 656.026 254.285 655.666 254.285C655.197 254.285 654.805 254.497 654.49 254.921C654.176 255.345 654.019 255.921 654.019 256.65V260H652.433V253H654.019V254.442H654.046C654.201 253.95 654.438 253.567 654.757 253.294C655.08 253.016 655.44 252.877 655.837 252.877C656.124 252.877 656.343 252.92 656.493 253.007V254.511Z" fill="white"/>
<path d="M20 28H620.834C654.615 28 682 55.3849 682 89.1659V89.1659C682 122.947 654.615 150.332 620.834 150.332H80.8341C47.2364 150.332 20 177.568 20 211.166V211.166C20 244.764 47.2364 272 80.8341 272H682" stroke="white" stroke-width="2" stroke-linecap="round" stroke-linejoin="round"/>
<g filter="url(#filter0_ddd)">
<circle cx="223" cy="28" r="6" fill="#E5E5F1"/>
</g>
<g filter="url(#filter1_ddd)">
<circle cx="260" cy="150" r="6" fill="#E5E5F1"/>
</g>
<g filter="url(#filter2_ddd)">
<circle cx="281" cy="272" r="6" fill="#E5E5F1"/>
</g>
<g filter="url(#filter3_ddd)">
<circle cx="83" cy="150" r="6" fill="#E5E5F1"/>
</g>
<g filter="url(#filter4_ddd)">
<circle cx="83" cy="272" r="6" fill="#E5E5F1"/>
</g>
<g filter="url(#filter5_ddd)">
<circle cx="419" cy="28" r="6" fill="#E5E5F1"/>
</g>
<g filter="url(#filter6_ddd)">
<circle cx="437" cy="150" r="6" fill="#E5E5F1"/>
</g>
<g filter="url(#filter7_ddd)">
<circle cx="479" cy="272" r="6" fill="#E5E5F1"/>
</g>
<g filter="url(#filter8_ddd)">
<circle cx="615" cy="28" r="6" fill="#E5E5F1"/>
</g>
<g filter="url(#filter9_ddd)">
<circle cx="614" cy="150" r="6" fill="#E5E5F1"/>
</g>
<g filter="url(#filter10_ddd)">
<circle cx="20" cy="214" r="18" fill="white"/>
</g>
<g filter="url(#filter11_ddd)">
<circle cx="20" cy="27" r="18" fill="white"/>
</g>
<g filter="url(#filter12_ddd)">
<circle cx="680" cy="94" r="18" fill="white"/>
</g>
<path d="M10.2422 222.566C10.5645 223.509 11.5867 224.013 12.5311 223.698L24.4645 218.669C24.8445 218.54 24.2422 217.889 24.2711 217.495C24.2911 217.215 16.9378 209.087 16.4734 209.451C16.2067 209.66 15.5222 208.933 15.4045 209.28L10.2756 221.411C10.1511 221.778 10.1111 222.175 10.2422 222.566Z" fill="url(#paint0_linear)"/>
<path d="M24.6248 218.548C25.3583 217.836 23.9108 215.155 21.3917 212.56C18.8725 209.965 16.2357 208.438 15.5022 209.15C14.7687 209.863 16.2162 212.544 18.7353 215.139C21.2545 217.734 23.8913 219.26 24.6248 218.548Z" fill="#606196"/>
<path d="M22.8268 211.675C23.3238 211.675 23.7268 211.273 23.7268 210.775C23.7268 210.278 23.3238 209.875 22.8268 209.875C22.3297 209.875 21.9268 210.278 21.9268 210.775C21.9268 211.273 22.3297 211.675 22.8268 211.675Z" fill="#FFAB35"/>
<path d="M15.4614 206.064C15.541 205.574 15.2078 205.111 14.7172 205.032C14.2265 204.952 13.7642 205.285 13.6846 205.776C13.605 206.267 13.9382 206.729 14.4288 206.809C14.9195 206.888 15.3818 206.555 15.4614 206.064Z" fill="#56A84F"/>
<path d="M26.3244 219.393C26.6951 219.393 26.9955 219.093 26.9955 218.722C26.9955 218.352 26.6951 218.051 26.3244 218.051C25.9538 218.051 25.6533 218.352 25.6533 218.722C25.6533 219.093 25.9538 219.393 26.3244 219.393Z" fill="#FFF100"/>
<path d="M10.9199 219.888C11.5449 220.777 12.2888 221.637 13.1225 222.345C13.4316 222.607 13.7444 222.844 14.0605 223.053L15.6847 222.369C15.1256 222.106 14.5728 221.742 14.0292 221.28C13.0328 220.433 12.203 219.365 11.5748 218.339L10.9199 219.888Z" fill="#7D8CC4"/>
<path d="M13.0195 214.922C14.186 217.165 16.503 219.751 19.1666 220.902L21.1785 220.054C17.8336 219.53 14.4974 215.603 13.7632 213.163L13.0195 214.922Z" fill="#7D8CC4"/>
<path d="M29.0315 217.524C26.8337 214.522 22.6048 213.867 19.6004 216.062C19.4004 216.211 19.3604 216.491 19.5071 216.691C19.6537 216.889 19.9315 216.931 20.1315 216.789C22.7337 214.884 26.4004 215.453 28.3048 218.055C28.4515 218.255 28.7337 218.3 28.9337 218.153C29.1337 218.007 29.1782 217.727 29.0315 217.524Z" fill="#FD4070"/>
<path d="M28.7485 205.92C28.7485 206.417 28.3456 206.82 27.8485 206.82C27.3515 206.82 26.9485 206.417 26.9485 205.92C26.9485 205.423 27.3515 205.02 27.8485 205.02C28.3456 205.02 28.7485 205.423 28.7485 205.92Z" fill="#F03A17"/>
<path d="M29.1789 211.216L29.1675 211.236C29.1617 211.251 29.1545 211.269 29.1457 211.291C29.1228 211.346 29.0889 211.422 29.0426 211.508C28.9519 211.677 28.8046 211.905 28.5849 212.103C28.3612 212.305 28.0543 212.482 27.6598 212.519C27.2662 212.557 26.8404 212.45 26.3873 212.184C26.0879 212.008 25.9182 212.024 25.8286 212.052C25.7212 212.087 25.6052 212.181 25.4907 212.356C25.3783 212.527 25.2964 212.731 25.2418 212.905C25.2152 212.989 25.1967 213.061 25.185 213.111C25.1792 213.135 25.1751 213.154 25.1727 213.166L25.1703 213.179L25.1699 213.18C25.1219 213.446 24.8681 213.622 24.6025 213.575C24.3365 213.527 24.1594 213.273 24.2069 213.007L24.6885 213.093C24.2069 213.007 24.2069 213.007 24.2069 213.007L24.2072 213.006L24.2077 213.003L24.2092 212.995L24.2141 212.97C24.2183 212.95 24.2243 212.922 24.2325 212.887C24.2487 212.818 24.2735 212.722 24.3086 212.611C24.3773 212.392 24.492 212.094 24.673 211.818C24.8518 211.546 25.1259 211.251 25.5284 211.121C25.9488 210.986 26.4091 211.062 26.8831 211.34C27.2034 211.529 27.4247 211.559 27.567 211.545C27.7084 211.532 27.8258 211.47 27.93 211.376C28.038 211.279 28.1218 211.155 28.1803 211.046C28.2086 210.993 28.2288 210.948 28.2413 210.917C28.2475 210.902 28.2517 210.891 28.254 210.885L28.2557 210.88L28.2655 210.85L28.2805 210.82L28.7196 211.036C28.2805 210.82 28.2805 210.82 28.2805 210.82L28.2811 210.819L28.2817 210.818L28.2832 210.815L28.2872 210.807C28.2904 210.8 28.2945 210.793 28.2995 210.783C28.3096 210.765 28.3234 210.74 28.3411 210.711C28.3763 210.653 28.4277 210.574 28.4957 210.487C28.6286 210.317 28.841 210.095 29.1397 209.942C29.4494 209.783 29.8388 209.706 30.2854 209.821C30.72 209.933 31.1674 210.216 31.6313 210.696C31.8191 210.89 31.814 211.199 31.6197 211.387C31.4255 211.575 31.1158 211.57 30.928 211.376C30.543 210.978 30.2459 210.821 30.0414 210.769C29.8488 210.719 29.7043 210.752 29.5863 210.813C29.4571 210.879 29.3479 210.986 29.2661 211.09C29.2267 211.141 29.1975 211.186 29.1789 211.216Z" fill="#F03A17"/>
<path d="M22.8865 202.529C22.9822 202.782 22.8549 203.064 22.6022 203.16C21.8834 203.432 21.76 203.767 21.7331 203.938C21.7161 204.046 21.7288 204.147 21.7482 204.224C21.7535 204.245 21.759 204.264 21.7641 204.279L21.7808 204.299C21.8264 204.353 21.8883 204.431 21.9563 204.525C22.0897 204.711 22.2596 204.982 22.3712 205.292C22.4815 205.598 22.553 205.995 22.4151 206.395C22.2711 206.812 21.9339 207.134 21.4268 207.347C21.0837 207.491 20.9266 207.65 20.8518 207.772C20.7776 207.893 20.7563 208.024 20.7687 208.163C20.7816 208.308 20.8304 208.449 20.8824 208.561C20.9076 208.615 20.9316 208.658 20.9483 208.686C20.9566 208.7 20.9629 208.71 20.9665 208.716L20.9687 208.719L20.9694 208.72C21.1221 208.941 21.0676 209.245 20.8469 209.399C20.6255 209.554 20.3205 209.499 20.1657 209.278L20.5643 208.999C20.1657 209.278 20.1657 209.278 20.1657 209.278L20.1651 209.277L20.1644 209.276L20.1627 209.274L20.1584 209.267L20.1457 209.248C20.1356 209.233 20.1224 209.212 20.107 209.186C20.0764 209.134 20.0364 209.062 19.9951 208.973C19.9143 208.799 19.8204 208.545 19.7942 208.25C19.7674 207.95 19.8105 207.599 20.0173 207.261C20.2236 206.924 20.5642 206.647 21.0489 206.444C21.3695 206.31 21.4593 206.165 21.4901 206.075C21.527 205.969 21.5211 205.819 21.4506 205.624C21.3814 205.431 21.267 205.243 21.1613 205.096C21.1098 205.024 21.0633 204.966 21.0306 204.927C21.0142 204.907 21.0015 204.893 20.9934 204.884L20.985 204.874L20.984 204.873L20.9376 204.823L20.9063 204.762L21.3423 204.54C20.9063 204.762 20.9063 204.762 20.9063 204.762L20.9057 204.761L20.9051 204.76L20.9036 204.757L20.8999 204.749L20.8904 204.729C20.8831 204.713 20.8741 204.692 20.8641 204.666C20.8442 204.616 20.8202 204.546 20.7991 204.462C20.7573 204.295 20.7238 204.057 20.7665 203.786C20.859 203.199 21.2789 202.615 22.2557 202.245C22.5083 202.149 22.7908 202.276 22.8865 202.529Z" fill="#00BCF2"/>
<path d="M17.3223 206.004C19.4934 208.384 19.3245 212.087 16.9445 214.258C16.7867 214.402 16.5401 214.391 16.3934 214.233C16.2467 214.076 16.2601 213.829 16.4178 213.682C18.4801 211.8 18.6267 208.591 16.7445 206.529C16.5956 206.373 16.6023 206.127 16.7578 205.978C16.9134 205.829 17.1601 205.836 17.3089 205.991L17.3223 206.004Z" fill="#00BCF2"/>
<path d="M24.8201 207.393C24.8201 207.736 24.5425 208.013 24.2001 208.013C23.8576 208.013 23.5801 207.736 23.5801 207.393C23.5801 207.051 23.8576 206.773 24.2001 206.773C24.5425 206.773 24.8201 207.051 24.8201 207.393Z" fill="#00BCF2"/>
<path d="M680.084 88.6249C677.973 82.0191 669.178 83.6284 669.178 90.9927C669.178 96.5071 675.53 101.556 676.343 102.239C677.387 103.118 678.708 103.6 680.072 103.6C681.437 103.6 682.758 103.118 683.802 102.239C684.614 101.556 690.864 96.5007 690.904 91.0522C690.956 84.084 681.92 81.5229 680.084 88.6249Z" fill="url(#paint1_linear)"/>
<path d="M25.7303 26.0352H27.3956C28.4196 26.0352 29.2497 25.2051 29.2497 24.1812C29.2497 23.1572 28.4196 22.3271 27.3956 22.3271H20.4868C20.5075 22.2767 20.5327 22.223 20.5621 22.1659C21.1515 21.2615 21.6078 20.0963 21.7898 18.7302C22.0559 16.7257 21.0021 14.5013 19.1797 15.0988C18.2698 15.3966 18.4441 16.4087 18.5208 16.8548C18.5316 16.9173 18.5405 16.9687 18.5441 17.0055C18.8054 19.4355 17.7018 20.4327 17.4024 20.7032C17.3906 20.7139 17.38 20.7234 17.3708 20.7319C17.3658 20.7369 17.3603 20.7421 17.3544 20.7478C17.3409 20.7606 17.3253 20.7755 17.3084 20.7943C15.0704 22.8965 14.3805 23.82 13.4924 25.55C11.3657 25.6668 10.9692 28.0895 11.0018 30.1347C11.0344 32.2749 11.3331 33.9181 12.8269 34.1272C13.0819 34.1626 13.4055 34.4163 13.8263 34.7461C14.5348 35.3016 15.5189 36.073 16.9145 36.3815C17.0734 36.4165 17.2382 36.4545 17.4091 36.494C18.921 36.8434 20.918 37.3047 23.5609 36.7228H25.03C26.054 36.7228 26.8841 35.8927 26.8841 34.8687C26.8841 34.3173 26.6434 33.8222 26.2614 33.4826H26.2739C27.2979 33.4826 28.128 32.6525 28.128 31.6285C28.128 30.906 27.7148 30.28 27.1117 29.974C28.0935 29.9266 28.8749 29.1156 28.8749 28.1221C28.8749 27.0981 28.0448 26.268 27.0208 26.268H25.7688C25.7565 26.1874 25.7437 26.1098 25.7303 26.0352Z" fill="url(#paint2_linear)"/>
<path d="M22.5891 26.5403C22.5891 26.1653 22.8931 25.8613 23.2681 25.8613H27.334C27.709 25.8613 28.013 26.1653 28.013 26.5403C28.013 26.9153 27.709 27.2193 27.334 27.2193H23.2681C22.8931 27.2193 22.5891 26.9153 22.5891 26.5403Z" fill="#8A5835"/>
<path d="M22.5891 30.4677C22.5891 30.0927 22.8931 29.7887 23.2681 29.7887H26.7935C27.1685 29.7887 27.4725 30.0927 27.4725 30.4677C27.4725 30.8427 27.1685 31.1467 26.7935 31.1467H23.2681C22.8931 31.1467 22.5891 30.8427 22.5891 30.4677Z" fill="#8A5835"/>
<path d="M23.2464 33.2461C22.8714 33.2461 22.5674 33.5501 22.5674 33.9251C22.5674 34.3001 22.8714 34.6041 23.2464 34.6041H25.9624C26.3374 34.6041 26.6414 34.3001 26.6414 33.9251C26.6414 33.5501 26.3374 33.2461 25.9624 33.2461H23.2464Z" fill="#8A5835"/>
<path d="M668.232 303.008L675.86 298.729L682.806 304L684.915 274.17L670.403 273.116L668.232 303.008Z" fill="#9EA2FF"/>
<path d="M703.706 290.791L695.147 292.155L692.915 300.59L672.884 278.326L683.737 268.527L703.706 290.791Z" fill="#9EA2FF"/>
<path d="M677.658 287.38C671.333 287.38 665.751 283.349 663.705 277.395C661.038 269.705 665.193 261.271 672.883 258.667C674.434 258.108 676.046 257.86 677.658 257.86C683.984 257.86 689.565 261.891 691.612 267.845C694.279 275.535 690.124 283.969 682.434 286.574C680.883 287.132 679.271 287.38 677.658 287.38Z" fill="white"/>
<path d="M677.659 259.783C682.992 259.783 687.953 263.132 689.814 268.465C692.108 275.163 688.511 282.481 681.814 284.775C680.449 285.271 679.023 285.458 677.659 285.458C672.325 285.458 667.364 282.109 665.503 276.775C663.209 270.078 666.806 262.76 673.504 260.465C674.868 260.031 676.294 259.783 677.659 259.783ZM677.659 256C675.798 256 674 256.31 672.263 256.93C668.046 258.357 664.635 261.395 662.713 265.364C660.728 269.333 660.48 273.861 661.907 278.078C664.201 284.837 670.527 289.365 677.659 289.365C679.519 289.365 681.318 289.054 683.054 288.434C687.271 287.008 690.682 283.969 692.604 280C694.589 276.031 694.837 271.504 693.411 267.287C691.116 260.527 684.79 256 677.659 256Z" fill="#9EA2FF"/>
<path d="M681.752 267.535L677.411 276.465L672.512 274.17" stroke="#9EA2FF" stroke-width="3" stroke-miterlimit="10" stroke-linecap="round"/>
<defs>
<filter id="filter0_ddd" x="215.12" y="20" width="20.68" height="20.8" filterUnits="userSpaceOnUse" color-interpolation-filters="sRGB">
<feFlood flood-opacity="0" result="BackgroundImageFix"/>
<feColorMatrix in="SourceAlpha" type="matrix" values="0 0 0 0 0 0 0 0 0 0 0 0 0 0 0 0 0 0 127 0"/>
<feOffset dx="0.46"/>
<feGaussianBlur stdDeviation="0.69"/>
<feColorMatrix type="matrix" values="0 0 0 0 0.266667 0 0 0 0 0.278431 0 0 0 0 0.756863 0 0 0 0.67 0"/>
<feBlend mode="normal" in2="BackgroundImageFix" result="effect1_dropShadow"/>
<feColorMatrix in="SourceAlpha" type="matrix" values="0 0 0 0 0 0 0 0 0 0 0 0 0 0 0 0 0 0 127 0"/>
<feOffset dx="2.46" dy="2.46"/>
<feGaussianBlur stdDeviation="2.17"/>
<feColorMatrix type="matrix" values="0 0 0 0 0.541176 0 0 0 0 0.560784 0 0 0 0 1 0 0 0 0.25 0"/>
<feBlend mode="normal" in2="effect1_dropShadow" result="effect2_dropShadow"/>
<feColorMatrix in="SourceAlpha" type="matrix" values="0 0 0 0 0 0 0 0 0 0 0 0 0 0 0 0 0 0 127 0"/>
<feOffset dx="1.5"/>
<feGaussianBlur stdDeviation="1"/>
<feColorMatrix type="matrix" values="0 0 0 0 0 0 0 0 0 0 0 0 0 0 0 0 0 0 0.14 0"/>
<feBlend mode="normal" in2="effect2_dropShadow" result="effect3_dropShadow"/>
<feBlend mode="normal" in="SourceGraphic" in2="effect3_dropShadow" result="shape"/>
</filter>
<filter id="filter1_ddd" x="252.12" y="142" width="20.68" height="20.8" filterUnits="userSpaceOnUse" color-interpolation-filters="sRGB">
<feFlood flood-opacity="0" result="BackgroundImageFix"/>
<feColorMatrix in="SourceAlpha" type="matrix" values="0 0 0 0 0 0 0 0 0 0 0 0 0 0 0 0 0 0 127 0"/>
<feOffset dx="0.46"/>
<feGaussianBlur stdDeviation="0.69"/>
<feColorMatrix type="matrix" values="0 0 0 0 0.266667 0 0 0 0 0.278431 0 0 0 0 0.756863 0 0 0 0.67 0"/>
<feBlend mode="normal" in2="BackgroundImageFix" result="effect1_dropShadow"/>
<feColorMatrix in="SourceAlpha" type="matrix" values="0 0 0 0 0 0 0 0 0 0 0 0 0 0 0 0 0 0 127 0"/>
<feOffset dx="2.46" dy="2.46"/>
<feGaussianBlur stdDeviation="2.17"/>
<feColorMatrix type="matrix" values="0 0 0 0 0.541176 0 0 0 0 0.560784 0 0 0 0 1 0 0 0 0.25 0"/>
<feBlend mode="normal" in2="effect1_dropShadow" result="effect2_dropShadow"/>
<feColorMatrix in="SourceAlpha" type="matrix" values="0 0 0 0 0 0 0 0 0 0 0 0 0 0 0 0 0 0 127 0"/>
<feOffset dx="1.5"/>
<feGaussianBlur stdDeviation="1"/>
<feColorMatrix type="matrix" values="0 0 0 0 0 0 0 0 0 0 0 0 0 0 0 0 0 0 0.14 0"/>
<feBlend mode="normal" in2="effect2_dropShadow" result="effect3_dropShadow"/>
<feBlend mode="normal" in="SourceGraphic" in2="effect3_dropShadow" result="shape"/>
</filter>
<filter id="filter2_ddd" x="273.12" y="264" width="20.68" height="20.8" filterUnits="userSpaceOnUse" color-interpolation-filters="sRGB">
<feFlood flood-opacity="0" result="BackgroundImageFix"/>
<feColorMatrix in="SourceAlpha" type="matrix" values="0 0 0 0 0 0 0 0 0 0 0 0 0 0 0 0 0 0 127 0"/>
<feOffset dx="0.46"/>
<feGaussianBlur stdDeviation="0.69"/>
<feColorMatrix type="matrix" values="0 0 0 0 0.266667 0 0 0 0 0.278431 0 0 0 0 0.756863 0 0 0 0.67 0"/>
<feBlend mode="normal" in2="BackgroundImageFix" result="effect1_dropShadow"/>
<feColorMatrix in="SourceAlpha" type="matrix" values="0 0 0 0 0 0 0 0 0 0 0 0 0 0 0 0 0 0 127 0"/>
<feOffset dx="2.46" dy="2.46"/>
<feGaussianBlur stdDeviation="2.17"/>
<feColorMatrix type="matrix" values="0 0 0 0 0.541176 0 0 0 0 0.560784 0 0 0 0 1 0 0 0 0.25 0"/>
<feBlend mode="normal" in2="effect1_dropShadow" result="effect2_dropShadow"/>
<feColorMatrix in="SourceAlpha" type="matrix" values="0 0 0 0 0 0 0 0 0 0 0 0 0 0 0 0 0 0 127 0"/>
<feOffset dx="1.5"/>
<feGaussianBlur stdDeviation="1"/>
<feColorMatrix type="matrix" values="0 0 0 0 0 0 0 0 0 0 0 0 0 0 0 0 0 0 0.14 0"/>
<feBlend mode="normal" in2="effect2_dropShadow" result="effect3_dropShadow"/>
<feBlend mode="normal" in="SourceGraphic" in2="effect3_dropShadow" result="shape"/>
</filter>
<filter id="filter3_ddd" x="75.12" y="142" width="20.68" height="20.8" filterUnits="userSpaceOnUse" color-interpolation-filters="sRGB">
<feFlood flood-opacity="0" result="BackgroundImageFix"/>
<feColorMatrix in="SourceAlpha" type="matrix" values="0 0 0 0 0 0 0 0 0 0 0 0 0 0 0 0 0 0 127 0"/>
<feOffset dx="0.46"/>
<feGaussianBlur stdDeviation="0.69"/>
<feColorMatrix type="matrix" values="0 0 0 0 0.266667 0 0 0 0 0.278431 0 0 0 0 0.756863 0 0 0 0.67 0"/>
<feBlend mode="normal" in2="BackgroundImageFix" result="effect1_dropShadow"/>
<feColorMatrix in="SourceAlpha" type="matrix" values="0 0 0 0 0 0 0 0 0 0 0 0 0 0 0 0 0 0 127 0"/>
<feOffset dx="2.46" dy="2.46"/>
<feGaussianBlur stdDeviation="2.17"/>
<feColorMatrix type="matrix" values="0 0 0 0 0.541176 0 0 0 0 0.560784 0 0 0 0 1 0 0 0 0.25 0"/>
<feBlend mode="normal" in2="effect1_dropShadow" result="effect2_dropShadow"/>
<feColorMatrix in="SourceAlpha" type="matrix" values="0 0 0 0 0 0 0 0 0 0 0 0 0 0 0 0 0 0 127 0"/>
<feOffset dx="1.5"/>
<feGaussianBlur stdDeviation="1"/>
<feColorMatrix type="matrix" values="0 0 0 0 0 0 0 0 0 0 0 0 0 0 0 0 0 0 0.14 0"/>
<feBlend mode="normal" in2="effect2_dropShadow" result="effect3_dropShadow"/>
<feBlend mode="normal" in="SourceGraphic" in2="effect3_dropShadow" result="shape"/>
</filter>
<filter id="filter4_ddd" x="75.12" y="264" width="20.68" height="20.8" filterUnits="userSpaceOnUse" color-interpolation-filters="sRGB">
<feFlood flood-opacity="0" result="BackgroundImageFix"/>
<feColorMatrix in="SourceAlpha" type="matrix" values="0 0 0 0 0 0 0 0 0 0 0 0 0 0 0 0 0 0 127 0"/>
<feOffset dx="0.46"/>
<feGaussianBlur stdDeviation="0.69"/>
<feColorMatrix type="matrix" values="0 0 0 0 0.266667 0 0 0 0 0.278431 0 0 0 0 0.756863 0 0 0 0.67 0"/>
<feBlend mode="normal" in2="BackgroundImageFix" result="effect1_dropShadow"/>
<feColorMatrix in="SourceAlpha" type="matrix" values="0 0 0 0 0 0 0 0 0 0 0 0 0 0 0 0 0 0 127 0"/>
<feOffset dx="2.46" dy="2.46"/>
<feGaussianBlur stdDeviation="2.17"/>
<feColorMatrix type="matrix" values="0 0 0 0 0.541176 0 0 0 0 0.560784 0 0 0 0 1 0 0 0 0.25 0"/>
<feBlend mode="normal" in2="effect1_dropShadow" result="effect2_dropShadow"/>
<feColorMatrix in="SourceAlpha" type="matrix" values="0 0 0 0 0 0 0 0 0 0 0 0 0 0 0 0 0 0 127 0"/>
<feOffset dx="1.5"/>
<feGaussianBlur stdDeviation="1"/>
<feColorMatrix type="matrix" values="0 0 0 0 0 0 0 0 0 0 0 0 0 0 0 0 0 0 0.14 0"/>
<feBlend mode="normal" in2="effect2_dropShadow" result="effect3_dropShadow"/>
<feBlend mode="normal" in="SourceGraphic" in2="effect3_dropShadow" result="shape"/>
</filter>
<filter id="filter5_ddd" x="411.12" y="20" width="20.68" height="20.8" filterUnits="userSpaceOnUse" color-interpolation-filters="sRGB">
<feFlood flood-opacity="0" result="BackgroundImageFix"/>
<feColorMatrix in="SourceAlpha" type="matrix" values="0 0 0 0 0 0 0 0 0 0 0 0 0 0 0 0 0 0 127 0"/>
<feOffset dx="0.46"/>
<feGaussianBlur stdDeviation="0.69"/>
<feColorMatrix type="matrix" values="0 0 0 0 0.266667 0 0 0 0 0.278431 0 0 0 0 0.756863 0 0 0 0.67 0"/>
<feBlend mode="normal" in2="BackgroundImageFix" result="effect1_dropShadow"/>
<feColorMatrix in="SourceAlpha" type="matrix" values="0 0 0 0 0 0 0 0 0 0 0 0 0 0 0 0 0 0 127 0"/>
<feOffset dx="2.46" dy="2.46"/>
<feGaussianBlur stdDeviation="2.17"/>
<feColorMatrix type="matrix" values="0 0 0 0 0.541176 0 0 0 0 0.560784 0 0 0 0 1 0 0 0 0.25 0"/>
<feBlend mode="normal" in2="effect1_dropShadow" result="effect2_dropShadow"/>
<feColorMatrix in="SourceAlpha" type="matrix" values="0 0 0 0 0 0 0 0 0 0 0 0 0 0 0 0 0 0 127 0"/>
<feOffset dx="1.5"/>
<feGaussianBlur stdDeviation="1"/>
<feColorMatrix type="matrix" values="0 0 0 0 0 0 0 0 0 0 0 0 0 0 0 0 0 0 0.14 0"/>
<feBlend mode="normal" in2="effect2_dropShadow" result="effect3_dropShadow"/>
<feBlend mode="normal" in="SourceGraphic" in2="effect3_dropShadow" result="shape"/>
</filter>
<filter id="filter6_ddd" x="429.12" y="142" width="20.68" height="20.8" filterUnits="userSpaceOnUse" color-interpolation-filters="sRGB">
<feFlood flood-opacity="0" result="BackgroundImageFix"/>
<feColorMatrix in="SourceAlpha" type="matrix" values="0 0 0 0 0 0 0 0 0 0 0 0 0 0 0 0 0 0 127 0"/>
<feOffset dx="0.46"/>
<feGaussianBlur stdDeviation="0.69"/>
<feColorMatrix type="matrix" values="0 0 0 0 0.266667 0 0 0 0 0.278431 0 0 0 0 0.756863 0 0 0 0.67 0"/>
<feBlend mode="normal" in2="BackgroundImageFix" result="effect1_dropShadow"/>
<feColorMatrix in="SourceAlpha" type="matrix" values="0 0 0 0 0 0 0 0 0 0 0 0 0 0 0 0 0 0 127 0"/>
<feOffset dx="2.46" dy="2.46"/>
<feGaussianBlur stdDeviation="2.17"/>
<feColorMatrix type="matrix" values="0 0 0 0 0.541176 0 0 0 0 0.560784 0 0 0 0 1 0 0 0 0.25 0"/>
<feBlend mode="normal" in2="effect1_dropShadow" result="effect2_dropShadow"/>
<feColorMatrix in="SourceAlpha" type="matrix" values="0 0 0 0 0 0 0 0 0 0 0 0 0 0 0 0 0 0 127 0"/>
<feOffset dx="1.5"/>
<feGaussianBlur stdDeviation="1"/>
<feColorMatrix type="matrix" values="0 0 0 0 0 0 0 0 0 0 0 0 0 0 0 0 0 0 0.14 0"/>
<feBlend mode="normal" in2="effect2_dropShadow" result="effect3_dropShadow"/>
<feBlend mode="normal" in="SourceGraphic" in2="effect3_dropShadow" result="shape"/>
</filter>
<filter id="filter7_ddd" x="471.12" y="264" width="20.68" height="20.8" filterUnits="userSpaceOnUse" color-interpolation-filters="sRGB">
<feFlood flood-opacity="0" result="BackgroundImageFix"/>
<feColorMatrix in="SourceAlpha" type="matrix" values="0 0 0 0 0 0 0 0 0 0 0 0 0 0 0 0 0 0 127 0"/>
<feOffset dx="0.46"/>
<feGaussianBlur stdDeviation="0.69"/>
<feColorMatrix type="matrix" values="0 0 0 0 0.266667 0 0 0 0 0.278431 0 0 0 0 0.756863 0 0 0 0.67 0"/>
<feBlend mode="normal" in2="BackgroundImageFix" result="effect1_dropShadow"/>
<feColorMatrix in="SourceAlpha" type="matrix" values="0 0 0 0 0 0 0 0 0 0 0 0 0 0 0 0 0 0 127 0"/>
<feOffset dx="2.46" dy="2.46"/>
<feGaussianBlur stdDeviation="2.17"/>
<feColorMatrix type="matrix" values="0 0 0 0 0.541176 0 0 0 0 0.560784 0 0 0 0 1 0 0 0 0.25 0"/>
<feBlend mode="normal" in2="effect1_dropShadow" result="effect2_dropShadow"/>
<feColorMatrix in="SourceAlpha" type="matrix" values="0 0 0 0 0 0 0 0 0 0 0 0 0 0 0 0 0 0 127 0"/>
<feOffset dx="1.5"/>
<feGaussianBlur stdDeviation="1"/>
<feColorMatrix type="matrix" values="0 0 0 0 0 0 0 0 0 0 0 0 0 0 0 0 0 0 0.14 0"/>
<feBlend mode="normal" in2="effect2_dropShadow" result="effect3_dropShadow"/>
<feBlend mode="normal" in="SourceGraphic" in2="effect3_dropShadow" result="shape"/>
</filter>
<filter id="filter8_ddd" x="607.12" y="20" width="20.68" height="20.8" filterUnits="userSpaceOnUse" color-interpolation-filters="sRGB">
<feFlood flood-opacity="0" result="BackgroundImageFix"/>
<feColorMatrix in="SourceAlpha" type="matrix" values="0 0 0 0 0 0 0 0 0 0 0 0 0 0 0 0 0 0 127 0"/>
<feOffset dx="0.46"/>
<feGaussianBlur stdDeviation="0.69"/>
<feColorMatrix type="matrix" values="0 0 0 0 0.266667 0 0 0 0 0.278431 0 0 0 0 0.756863 0 0 0 0.67 0"/>
<feBlend mode="normal" in2="BackgroundImageFix" result="effect1_dropShadow"/>
<feColorMatrix in="SourceAlpha" type="matrix" values="0 0 0 0 0 0 0 0 0 0 0 0 0 0 0 0 0 0 127 0"/>
<feOffset dx="2.46" dy="2.46"/>
<feGaussianBlur stdDeviation="2.17"/>
<feColorMatrix type="matrix" values="0 0 0 0 0.541176 0 0 0 0 0.560784 0 0 0 0 1 0 0 0 0.25 0"/>
<feBlend mode="normal" in2="effect1_dropShadow" result="effect2_dropShadow"/>
<feColorMatrix in="SourceAlpha" type="matrix" values="0 0 0 0 0 0 0 0 0 0 0 0 0 0 0 0 0 0 127 0"/>
<feOffset dx="1.5"/>
<feGaussianBlur stdDeviation="1"/>
<feColorMatrix type="matrix" values="0 0 0 0 0 0 0 0 0 0 0 0 0 0 0 0 0 0 0.14 0"/>
<feBlend mode="normal" in2="effect2_dropShadow" result="effect3_dropShadow"/>
<feBlend mode="normal" in="SourceGraphic" in2="effect3_dropShadow" result="shape"/>
</filter>
<filter id="filter9_ddd" x="606.12" y="142" width="20.68" height="20.8" filterUnits="userSpaceOnUse" color-interpolation-filters="sRGB">
<feFlood flood-opacity="0" result="BackgroundImageFix"/>
<feColorMatrix in="SourceAlpha" type="matrix" values="0 0 0 0 0 0 0 0 0 0 0 0 0 0 0 0 0 0 127 0"/>
<feOffset dx="0.46"/>
<feGaussianBlur stdDeviation="0.69"/>
<feColorMatrix type="matrix" values="0 0 0 0 0.266667 0 0 0 0 0.278431 0 0 0 0 0.756863 0 0 0 0.67 0"/>
<feBlend mode="normal" in2="BackgroundImageFix" result="effect1_dropShadow"/>
<feColorMatrix in="SourceAlpha" type="matrix" values="0 0 0 0 0 0 0 0 0 0 0 0 0 0 0 0 0 0 127 0"/>
<feOffset dx="2.46" dy="2.46"/>
<feGaussianBlur stdDeviation="2.17"/>
<feColorMatrix type="matrix" values="0 0 0 0 0.541176 0 0 0 0 0.560784 0 0 0 0 1 0 0 0 0.25 0"/>
<feBlend mode="normal" in2="effect1_dropShadow" result="effect2_dropShadow"/>
<feColorMatrix in="SourceAlpha" type="matrix" values="0 0 0 0 0 0 0 0 0 0 0 0 0 0 0 0 0 0 127 0"/>
<feOffset dx="1.5"/>
<feGaussianBlur stdDeviation="1"/>
<feColorMatrix type="matrix" values="0 0 0 0 0 0 0 0 0 0 0 0 0 0 0 0 0 0 0.14 0"/>
<feBlend mode="normal" in2="effect2_dropShadow" result="effect3_dropShadow"/>
<feBlend mode="normal" in="SourceGraphic" in2="effect3_dropShadow" result="shape"/>
</filter>
<filter id="filter10_ddd" x="0.12" y="194" width="44.68" height="44.8" filterUnits="userSpaceOnUse" color-interpolation-filters="sRGB">
<feFlood flood-opacity="0" result="BackgroundImageFix"/>
<feColorMatrix in="SourceAlpha" type="matrix" values="0 0 0 0 0 0 0 0 0 0 0 0 0 0 0 0 0 0 127 0"/>
<feOffset dx="0.46"/>
<feGaussianBlur stdDeviation="0.69"/>
<feColorMatrix type="matrix" values="0 0 0 0 0.266667 0 0 0 0 0.278431 0 0 0 0 0.756863 0 0 0 0.67 0"/>
<feBlend mode="normal" in2="BackgroundImageFix" result="effect1_dropShadow"/>
<feColorMatrix in="SourceAlpha" type="matrix" values="0 0 0 0 0 0 0 0 0 0 0 0 0 0 0 0 0 0 127 0"/>
<feOffset dx="2.46" dy="2.46"/>
<feGaussianBlur stdDeviation="2.17"/>
<feColorMatrix type="matrix" values="0 0 0 0 0.541176 0 0 0 0 0.560784 0 0 0 0 1 0 0 0 0.25 0"/>
<feBlend mode="normal" in2="effect1_dropShadow" result="effect2_dropShadow"/>
<feColorMatrix in="SourceAlpha" type="matrix" values="0 0 0 0 0 0 0 0 0 0 0 0 0 0 0 0 0 0 127 0"/>
<feOffset dx="1.5"/>
<feGaussianBlur stdDeviation="1"/>
<feColorMatrix type="matrix" values="0 0 0 0 0 0 0 0 0 0 0 0 0 0 0 0 0 0 0.14 0"/>
<feBlend mode="normal" in2="effect2_dropShadow" result="effect3_dropShadow"/>
<feBlend mode="normal" in="SourceGraphic" in2="effect3_dropShadow" result="shape"/>
</filter>
<filter id="filter11_ddd" x="0.12" y="7" width="44.68" height="44.8" filterUnits="userSpaceOnUse" color-interpolation-filters="sRGB">
<feFlood flood-opacity="0" result="BackgroundImageFix"/>
<feColorMatrix in="SourceAlpha" type="matrix" values="0 0 0 0 0 0 0 0 0 0 0 0 0 0 0 0 0 0 127 0"/>
<feOffset dx="0.46"/>
<feGaussianBlur stdDeviation="0.69"/>
<feColorMatrix type="matrix" values="0 0 0 0 0.266667 0 0 0 0 0.278431 0 0 0 0 0.756863 0 0 0 0.67 0"/>
<feBlend mode="normal" in2="BackgroundImageFix" result="effect1_dropShadow"/>
<feColorMatrix in="SourceAlpha" type="matrix" values="0 0 0 0 0 0 0 0 0 0 0 0 0 0 0 0 0 0 127 0"/>
<feOffset dx="2.46" dy="2.46"/>
<feGaussianBlur stdDeviation="2.17"/>
<feColorMatrix type="matrix" values="0 0 0 0 0.541176 0 0 0 0 0.560784 0 0 0 0 1 0 0 0 0.25 0"/>
<feBlend mode="normal" in2="effect1_dropShadow" result="effect2_dropShadow"/>
<feColorMatrix in="SourceAlpha" type="matrix" values="0 0 0 0 0 0 0 0 0 0 0 0 0 0 0 0 0 0 127 0"/>
<feOffset dx="1.5"/>
<feGaussianBlur stdDeviation="1"/>
<feColorMatrix type="matrix" values="0 0 0 0 0 0 0 0 0 0 0 0 0 0 0 0 0 0 0.14 0"/>
<feBlend mode="normal" in2="effect2_dropShadow" result="effect3_dropShadow"/>
<feBlend mode="normal" in="SourceGraphic" in2="effect3_dropShadow" result="shape"/>
</filter>
<filter id="filter12_ddd" x="660.12" y="74" width="44.68" height="44.8" filterUnits="userSpaceOnUse" color-interpolation-filters="sRGB">
<feFlood flood-opacity="0" result="BackgroundImageFix"/>
<feColorMatrix in="SourceAlpha" type="matrix" values="0 0 0 0 0 0 0 0 0 0 0 0 0 0 0 0 0 0 127 0"/>
<feOffset dx="0.46"/>
<feGaussianBlur stdDeviation="0.69"/>
<feColorMatrix type="matrix" values="0 0 0 0 0.266667 0 0 0 0 0.278431 0 0 0 0 0.756863 0 0 0 0.67 0"/>
<feBlend mode="normal" in2="BackgroundImageFix" result="effect1_dropShadow"/>
<feColorMatrix in="SourceAlpha" type="matrix" values="0 0 0 0 0 0 0 0 0 0 0 0 0 0 0 0 0 0 127 0"/>
<feOffset dx="2.46" dy="2.46"/>
<feGaussianBlur stdDeviation="2.17"/>
<feColorMatrix type="matrix" values="0 0 0 0 0.541176 0 0 0 0 0.560784 0 0 0 0 1 0 0 0 0.25 0"/>
<feBlend mode="normal" in2="effect1_dropShadow" result="effect2_dropShadow"/>
<feColorMatrix in="SourceAlpha" type="matrix" values="0 0 0 0 0 0 0 0 0 0 0 0 0 0 0 0 0 0 127 0"/>
<feOffset dx="1.5"/>
<feGaussianBlur stdDeviation="1"/>
<feColorMatrix type="matrix" values="0 0 0 0 0 0 0 0 0 0 0 0 0 0 0 0 0 0 0.14 0"/>
<feBlend mode="normal" in2="effect2_dropShadow" result="effect3_dropShadow"/>
<feBlend mode="normal" in="SourceGraphic" in2="effect3_dropShadow" result="shape"/>
</filter>
<linearGradient id="paint0_linear" x1="17.5619" y1="211.611" x2="17.3379" y2="222.04" gradientUnits="userSpaceOnUse">
<stop stop-color="#FDDD4C"/>
<stop offset="1" stop-color="#F4A229"/>
</linearGradient>
<linearGradient id="paint1_linear" x1="680.041" y1="103.031" x2="680.041" y2="83.8311" gradientUnits="userSpaceOnUse">
<stop stop-color="#C32B00"/>
<stop offset="0.98" stop-color="#FF3333"/>
</linearGradient>
<linearGradient id="paint2_linear" x1="18.4816" y1="22.8761" x2="18.4816" y2="37.8435" gradientUnits="userSpaceOnUse">
<stop stop-color="#FDCE4C"/>
<stop offset="0.94" stop-color="#FDA227"/>
<stop offset="0.98" stop-color="#F7A22E"/>
<stop offset="1" stop-color="#EDA339"/>
</linearGradient>
</defs>
</svg>
