<svg width="16" height="16" viewBox="0 0 16 16" fill="none" xmlns="http://www.w3.org/2000/svg">
<path fill-rule="evenodd" clip-rule="evenodd" d="M13.3784 4.35443L10.1865 0.431105C9.71885 -0.143702 8.84804 -0.143701 8.3804 0.431105L7.86791 1.06104L7.41854 0.480946C6.95237 -0.12084 6.05189 -0.123696 5.58199 0.475126L0.252994 7.26615C-0.084331 7.69602 -0.0843315 8.30398 0.252994 8.73385L5.58199 15.5249C6.05189 16.1237 6.95236 16.1208 7.41854 15.519L7.86791 14.939L8.3804 15.5689C8.84804 16.1437 9.71885 16.1437 10.1865 15.5689L15.734 8.75007C15.9356 8.50229 16.0226 8.19229 15.995 7.89081C15.9741 7.66183 15.8871 7.43775 15.734 7.24957L13.3926 4.3716C13.3879 4.36582 13.3832 4.36009 13.3784 4.35443ZM9.41245 1.07402C9.34564 0.991907 9.22124 0.991907 9.15444 1.07402L6.81303 3.95199C6.76237 4.01426 6.76237 4.10403 6.81303 4.1663L9.28328 7.20263L11.5865 4.3716C11.6733 4.26496 11.7739 4.17811 11.8833 4.11103L9.41245 1.07402ZM12.6131 5.00812L14.96 7.89285C14.9817 7.91955 14.9941 7.95132 14.9972 7.9838C15.0012 8.02694 14.9888 8.07133 14.96 8.10679L12.6186 10.9848C12.5518 11.0669 12.4274 11.0669 12.3605 10.9848L10.0191 8.10679C9.96848 8.04452 9.96848 7.95475 10.0191 7.89248L12.3605 5.01452C12.4256 4.93459 12.5452 4.93246 12.6131 5.00812ZM11.8837 11.8885L9.41245 14.926C9.34564 15.0081 9.22124 15.0081 9.15444 14.926L6.81303 12.048C6.76237 11.9857 6.76237 11.896 6.81303 11.8337L9.28358 8.79701L11.5865 11.6277C11.6734 11.7344 11.7741 11.8214 11.8837 11.8885ZM6.03898 12.6909L7.2161 14.1378L6.6295 14.895C6.56291 14.981 6.43427 14.9814 6.36714 14.8959L1.03814 8.10483C0.989954 8.04342 0.989953 7.95657 1.03814 7.89516L6.36714 1.10414C6.43427 1.0186 6.56291 1.019 6.6295 1.10497L7.2161 1.86221L6.03898 3.30907C5.68438 3.74494 5.68438 4.37335 6.03898 4.80921L8.54772 7.89285C8.59838 7.95511 8.59838 8.04489 8.54772 8.10715L6.03898 11.1908C5.68438 11.6267 5.68438 12.2551 6.03898 12.6909Z" fill="#616161"/>
</svg>
