<svg width="16" height="16" viewBox="0 0 16 16" fill="none" xmlns="http://www.w3.org/2000/svg">
<path d="M5.5 15H14.5C14.775 15 15 14.775 15 14.5V5H13.5C12.673 5 12 4.327 12 3.5V1H5.5C5.225 1 5 1.225 5 1.5V14.5C5 14.775 5.225 15 5.5 15Z" fill="white"/>
<path d="M15 4.00003V3.91403C15.0004 3.78159 14.9478 3.65449 14.854 3.56103L13 1.70703V3.50003C13 3.77503 13.225 4.00003 13.5 4.00003H15Z" fill="white"/>
<path opacity="0.64" fill-rule="evenodd" clip-rule="evenodd" d="M15.56 2.853L13.146 0.44C12.8643 0.159539 12.4835 0.00143923 12.086 0H5.5C4.673 0 4 0.673 4 1.5V14.5C4 15.327 4.673 16 5.5 16H14.5C15.327 16 16 15.327 16 14.5V3.914C16 3.514 15.844 3.137 15.56 2.854V2.853ZM14.853 3.561C14.948 3.655 15 3.781 15 3.914V4H13.5C13.2241 3.99945 13.0006 3.77591 13 3.5V1.707L14.854 3.561H14.853ZM5.5 15H14.5C14.775 15 15 14.775 15 14.5V5H13.5C12.673 5 12 4.327 12 3.5V1H5.5C5.225 1 5 1.225 5 1.5V14.5C5.00055 14.7759 5.22409 14.9994 5.5 15Z" fill="#605E5C"/>
<path d="M13.5 10H10.5C10.2239 10 10 10.2239 10 10.5C10 10.7761 10.2239 11 10.5 11H13.5C13.7761 11 14 10.7761 14 10.5C14 10.2239 13.7761 10 13.5 10Z" fill="#134A2C"/>
<path d="M13.5 8H10.5C10.2239 8 10 8.22386 10 8.5C10 8.77614 10.2239 9 10.5 9H13.5C13.7761 9 14 8.77614 14 8.5C14 8.22386 13.7761 8 13.5 8Z" fill="#21A366"/>
<path d="M13.5 6H10.5C10.2239 6 10 6.22386 10 6.5C10 6.77614 10.2239 7 10.5 7H13.5C13.7761 7 14 6.77614 14 6.5C14 6.22386 13.7761 6 13.5 6Z" fill="#33C481"/>
<path d="M1 13H8C8.55228 13 9 12.5523 9 12V5C9 4.44772 8.55228 4 8 4H1C0.447715 4 0 4.44772 0 5V12C0 12.5523 0.447715 13 1 13Z" fill="#107C41"/>
<path d="M5.41189 11L2.76489 6H3.58789L6.27789 11H5.41189Z" fill="white"/>
<path d="M3.63089 11L6.27789 6H5.45489L2.76489 11H3.63089Z" fill="white"/>
</svg>
