<svg width="16" height="16" viewBox="0 0 16 16" fill="none" xmlns="http://www.w3.org/2000/svg">
<path d="M5.5 15H14.5C14.775 15 15 14.775 15 14.5V5H13.5C12.673 5 12 4.327 12 3.5V1H5.5C5.225 1 5 1.225 5 1.5V14.5C5 14.775 5.225 15 5.5 15Z" fill="white"/>
<path d="M15 4.00003V3.91403C15.0004 3.78159 14.9478 3.65449 14.854 3.56103L13 1.70703V3.50003C13 3.77503 13.225 4.00003 13.5 4.00003H15Z" fill="white"/>
<path opacity="0.64" fill-rule="evenodd" clip-rule="evenodd" d="M15.56 2.853L13.146 0.44C12.8643 0.159539 12.4835 0.00143923 12.086 0H5.5C4.673 0 4 0.673 4 1.5V14.5C4 15.327 4.673 16 5.5 16H14.5C15.327 16 16 15.327 16 14.5V3.914C16 3.514 15.844 3.137 15.56 2.854V2.853ZM14.853 3.561C14.948 3.655 15 3.781 15 3.914V4H13.5C13.2241 3.99945 13.0006 3.77591 13 3.5V1.707L14.854 3.561H14.853ZM5.5 15H14.5C14.775 15 15 14.775 15 14.5V5H13.5C12.673 5 12 4.327 12 3.5V1H5.5C5.225 1 5 1.225 5 1.5V14.5C5.00055 14.7759 5.22409 14.9994 5.5 15Z" fill="#605E5C"/>
<path d="M12.95 9H11L10.5 8L10 9V11.95C10.8226 12.1181 11.6747 11.8621 12.2684 11.2684C12.8621 10.6747 13.1181 9.82262 12.95 9Z" fill="#ED6C47"/>
<path d="M10.5 7C10.328 7 10.162 7.021 10 7.055V9H11V7.05C10.8354 7.01665 10.6679 6.9999 10.5 7V7Z" fill="#FF8F6B"/>
<path d="M12 8H14C13.7939 6.99305 13.0069 6.20614 12 6V8H12Z" fill="#FFC7B5"/>
<path d="M1 13H8C8.55228 13 9 12.5523 9 12V5C9 4.44772 8.55228 4 8 4H1C0.447715 4 0 4.44772 0 5V12C0 12.5523 0.447715 13 1 13Z" fill="#C43E1C"/>
<path fill-rule="evenodd" clip-rule="evenodd" d="M5 6H4V7H5V6ZM5 8H4V9H5V8Z" fill="white"/>
<path d="M3.5 11V6" stroke="white"/>
<path d="M4.5 6.5H5C5.382 6.5 5.624 6.778 5.624 7.33C5.624 7.87 5.6 8.5 5.117 8.5H4.5" stroke="white" stroke-linecap="round" stroke-linejoin="bevel"/>
<path fill-rule="evenodd" clip-rule="evenodd" d="M5.00009 7H5.15909V8H5.00009V7Z" fill="white"/>
</svg>
