<svg width="16" height="16" viewBox="0 0 16 16" fill="none" xmlns="http://www.w3.org/2000/svg">
<path d="M8 4L6.586 2.586C6.21101 2.2109 5.70239 2.00011 5.172 2H1C0.447715 2 0 2.44772 0 3V13C0 13.5523 0.447715 14 1 14H15C15.5523 14 16 13.5523 16 13V5C16 4.44772 15.5523 4 15 4H8Z" fill="#FFB900"/>
<path d="M8 4L6.586 5.414C6.21101 5.7891 5.70239 5.99989 5.172 6H0V13C0 13.5523 0.447715 14 1 14H15C15.5523 14 16 13.5523 16 13V5C16 4.44772 15.5523 4 15 4H8Z" fill="#FFD75E"/>
<path d="M8 4L6.586 5.414C6.21101 5.7891 5.70239 5.99989 5.172 6H0V13C0 13.5523 0.447715 14 1 14H15C15.5523 14 16 13.5523 16 13V5C16 4.44772 15.5523 4 15 4H8Z" fill="url(#paint0_linear)"/>
<path d="M1.0001 13.4999C0.6271 13.4999 0.2901 13.3579 0.0270996 13.1329C0.0878293 13.6252 0.50412 13.9961 1.0001 13.9999H15.0001C15.5051 13.9999 15.9051 13.6199 15.9731 13.1329C15.7111 13.3589 15.3731 13.4999 15.0001 13.4999H1.0001Z" fill="#E67628"/>
<path opacity="0.4" d="M6.836 5.914L8.75 4H8L6.586 5.414C6.21101 5.7891 5.70239 5.99989 5.172 6H0V6.5H5.422C5.95239 6.49989 6.46101 6.2891 6.836 5.914Z" fill="white"/>
<path fill-rule="evenodd" clip-rule="evenodd" d="M1.25 8H7.75C7.88807 8 8 8.11193 8 8.25V11.75C8 11.8881 7.88807 12 7.75 12H1.25C1.112 12 1 11.888 1 11.75V11H2V9H1V8.25C1 8.11193 1.11193 8 1.25 8ZM9.75 11H9.25C9.11193 11 9 10.8881 9 10.75V9.25C9 9.11193 9.11193 9 9.25 9H9.75C9.88807 9 10 9.11193 10 9.25V10.75C10 10.8881 9.88807 11 9.75 11ZM11.75 11H11.25C11.1119 11 11 10.8881 11 10.75V9.25C11 9.11193 11.1119 9 11.25 9H11.75C11.8881 9 12 9.11193 12 9.25V10.75C12 10.8881 11.8881 11 11.75 11ZM13.25 11H13.75C13.8881 11 14 10.8881 14 10.75V9.25C14 9.11193 13.8881 9 13.75 9H13.25C13.1119 9 13 9.11193 13 9.25V10.75C13 10.8881 13.1119 11 13.25 11ZM15.75 11H15.25C15.1119 11 15 10.8881 15 10.75V9.25C15 9.11193 15.1119 9 15.25 9H15.75C15.8881 9 16 9.11193 16 9.25V10.75C16 10.8881 15.8881 11 15.75 11ZM7 11H5V9H7V11ZM0 11H0.75C0.888071 11 1 10.8881 1 10.75V9.25C1 9.11193 0.888071 9 0.75 9H0V11Z" fill="#BF5712"/>
<defs>
<linearGradient id="paint0_linear" x1="0" y1="4" x2="0" y2="14" gradientUnits="userSpaceOnUse">
<stop stop-color="white" stop-opacity="0.01"/>
<stop offset="0.999" stop-color="#FFD75E" stop-opacity="0.3"/>
</linearGradient>
</defs>
</svg>
