<svg width="134" height="88" viewBox="0 0 134 88" fill="none" xmlns="http://www.w3.org/2000/svg">
<path d="M81.4751 56.7539L39.7092 63.2602C39.7955 44.7002 36.7797 24.6204 26.5144 8.06934C42.025 4.82818 53.3882 2.87677 67.4077 0C78.2483 17.4764 81.5614 37.1583 81.4751 56.7539Z" fill="white"/>
<path d="M68.4001 80.2624L16.3018 87.9482C15.8326 88.013 15.356 87.902 14.9639 87.6364C14.5717 87.3708 14.2917 86.9695 14.1777 86.5098L0.0384209 24.3188C-0.0118951 24.113 -0.0181929 23.8989 0.0199392 23.6904C0.0580714 23.482 0.139775 23.2839 0.259705 23.1092C0.379636 22.9346 0.535093 22.7871 0.715908 22.6767C0.896724 22.5662 1.09883 22.4951 1.30899 22.4681L53.3929 14.7967C53.8613 14.7332 54.3367 14.8448 54.7278 15.1103C55.119 15.3758 55.3983 15.7763 55.5122 16.2351L69.6707 78.4213C69.7187 78.6264 69.7232 78.8393 69.684 79.0464C69.6449 79.2534 69.5628 79.4499 69.4431 79.6233C69.3235 79.7967 69.1689 79.9431 68.9892 80.0532C68.8096 80.1633 68.6089 80.2345 68.4001 80.2624Z" fill="#797673"/>
<path d="M63.6294 76.3888L18.9771 82.9814L6.07959 26.3426L50.7319 19.75L63.6294 76.3888Z" fill="#E1DFDD"/>
<path d="M73.7268 67.5518C70.2364 67.5518 63.217 67.8778 55.9867 72.0731C37.2446 82.9809 23.5464 79.2938 19.3271 72.0731C13.142 61.4722 6.06519 26.3612 6.06519 26.3612L50.7127 19.7734C50.7127 19.7734 54.2559 41.0136 60.8197 50.9385C67.2781 60.6763 70.2747 60.6763 73.7268 67.5518Z" fill="white"/>
<path d="M73.7269 67.5559C71.5773 67.5378 69.43 67.6982 67.3069 68.0354L64.574 56.0488C68.5967 60.9969 71.018 62.1668 73.7269 67.5559Z" fill="#C8C6C4"/>
<path d="M35.9309 79.0152C27.4876 79.696 21.4848 76.8145 19.4614 72.3027C21.0005 73.8993 23.7766 75.4049 28.5712 74.3213C28.5904 74.3165 32.8576 78.7659 35.9309 79.0152Z" fill="#C8C6C4"/>
<path d="M37.264 21.4176L19.4136 24.0546L17.0163 13.5065C16.9729 13.3313 16.9671 13.1489 16.9991 12.9714C17.0311 12.7938 17.1004 12.625 17.2022 12.476C17.3041 12.3271 17.4363 12.2013 17.5902 12.1071C17.7441 12.0128 17.9161 11.9521 18.0951 11.929L33.0303 9.7235C33.4437 9.66901 33.8627 9.76903 34.2069 10.0044C34.5511 10.2397 34.7963 10.5939 34.8954 10.9989L37.264 21.4176Z" fill="url(#paint0_linear)"/>
<path d="M41.1187 27.7265L18.6991 31.0348C18.2709 31.0909 17.8369 30.9889 17.4786 30.748C17.1202 30.507 16.862 30.1436 16.7525 29.7258L14.6572 20.5202L40.1406 16.7324L42.2646 26.0532C42.3093 26.239 42.3144 26.4321 42.2798 26.6201C42.2451 26.8081 42.1714 26.9867 42.0634 27.1444C41.9554 27.3021 41.8155 27.4354 41.6528 27.5356C41.4901 27.6359 41.3081 27.7009 41.1187 27.7265Z" fill="#8B8CC7"/>
<path d="M81.7503 69.0731L109.363 60.668L100.958 33.0553L73.3452 41.4604L81.7503 69.0731Z" fill="#F7B548"/>
<path d="M86.732 67.5595L114.345 59.1543L105.94 31.5416L78.3269 39.9468L86.732 67.5595Z" fill="#FFE5B9"/>
<path d="M78.325 39.9401L79.6291 44.2121L107.323 35.7832C106.441 33.2277 105.961 31.5352 105.961 31.5352L78.325 39.9401Z" fill="#FFD590"/>
<path d="M93.4685 51.3581L96.2598 48.8048L97.6028 50.273L94.8115 52.8263C94.6164 53.0048 94.3583 53.0985 94.094 53.0868C93.8298 53.075 93.5811 52.9587 93.4025 52.7636C93.2255 52.5682 93.1331 52.3106 93.1454 52.0472C93.1578 51.7839 93.274 51.5361 93.4685 51.3581Z" fill="#8B8CC4"/>
<path d="M98.5967 43.0117L94.55 49.8249L96.4247 51.8722L103.569 48.4488L98.5967 43.0117Z" fill="#B3AFAB"/>
<path d="M98.6676 41.8666L126.552 16.3596C127.423 15.5631 128.575 15.1451 129.754 15.1976C130.932 15.2501 132.042 15.7688 132.839 16.6395C133.635 17.5103 134.053 18.6617 134.001 19.8406C133.948 21.0195 133.429 22.1292 132.559 22.9257L104.674 48.4327C104.47 48.619 104.201 48.7167 103.925 48.7044C103.65 48.6922 103.39 48.5709 103.204 48.3673L98.5892 43.3224C98.403 43.1188 98.3052 42.8495 98.3175 42.5739C98.3298 42.2982 98.4511 42.0387 98.6547 41.8525L98.6676 41.8666Z" fill="#8B8CC4"/>
<path d="M126.544 16.3488L112.261 29.4717L118.274 36.0355L132.552 22.9174C132.984 22.5236 133.334 22.0485 133.582 21.5192C133.83 20.99 133.971 20.4171 133.997 19.8332C134.023 19.2494 133.934 18.6661 133.735 18.1167C133.535 17.5673 133.23 17.0627 132.835 16.6317C132.038 15.7604 130.928 15.2411 129.748 15.1881C128.569 15.1351 127.416 15.5525 126.544 16.3488Z" fill="#B3AFAB"/>
<path d="M124.909 18.7567C124.224 18.0704 123.41 17.5259 122.514 17.1545C121.618 16.783 120.658 16.5918 119.688 16.5918C118.718 16.5918 117.758 16.783 116.862 17.1545C115.966 17.5259 115.152 18.0704 114.467 18.7567L105.386 27.8377" stroke="#B3AFAB" stroke-width="5" stroke-miterlimit="10" stroke-linecap="round"/>
<defs>
<linearGradient id="paint0_linear" x1="26.4473" y1="14.2352" x2="28.2837" y2="22.8464" gradientUnits="userSpaceOnUse">
<stop stop-color="#8B8CC7"/>
<stop offset="1" stop-color="#6264A7"/>
</linearGradient>
</defs>
</svg>
