<svg width="214" height="132" viewBox="0 0 214 132" fill="none" xmlns="http://www.w3.org/2000/svg">
<g clip-path="url(#clip0)">
<path d="M107.024 130.005C142.923 130.005 172.026 100.902 172.026 65.0024C172.026 29.1026 142.923 0 107.024 0C71.1237 0 42.0211 29.1026 42.0211 65.0024C42.0211 100.902 71.1237 130.005 107.024 130.005Z" fill="#C8C6C4"/>
<path d="M116.58 69.1172H58.7994C52.8518 69.1172 47.3052 70.8226 42.6107 73.7624C46.889 105.519 74.0948 130.005 107.024 130.005C117.497 130.005 127.39 127.525 136.152 123.124C142.861 117.52 147.132 109.094 147.132 99.6689V99.6688C147.132 82.7956 133.454 69.1172 116.58 69.1172Z" fill="#E2E2F6"/>
<path d="M112.646 69.7677L112.788 69.1172H62.6813L62.824 69.7677C63.8699 74.104 66.1518 77.635 69.6697 80.3607C73.2193 83.0864 77.2602 84.4493 81.7923 84.4493H93.7248C96.3237 84.4493 98.8116 83.9692 101.189 83.009C103.534 82.0489 105.626 80.6705 107.464 78.874C110.094 76.3032 111.822 73.2677 112.646 69.7677Z" fill="#8B8BC2"/>
<path d="M108.491 69.1174C108.527 69.0895 108.564 69.0611 108.598 69.0335C108.598 69.0335 105.878 69.2216 105.901 66.316C105.919 64.1146 106.186 43.7363 106.186 43.7363L70.2936 45.0981L70.3937 66.4029C70.3373 68.0553 68.6958 68.8095 67.6926 69.1174H65.7239C66.5796 72.7104 68.497 75.6684 71.4762 77.9914C74.4871 80.3454 77.9257 81.5225 81.7923 81.5225H93.7248C98.2252 81.5225 102.108 79.9582 105.372 76.8299C107.559 74.6927 109.017 72.1219 109.746 69.1174H108.491Z" fill="url(#paint0_radial)"/>
<path d="M70.205 49.8454C72.2426 49.8454 73.8944 47.9385 73.8944 45.5863C73.8944 43.234 72.2426 41.3271 70.205 41.3271C68.1675 41.3271 66.5157 43.234 66.5157 45.5863C66.5157 47.9385 68.1675 49.8454 70.205 49.8454Z" fill="#9A6541"/>
<path d="M106.141 49.8454C108.178 49.8454 109.83 47.9385 109.83 45.5863C109.83 43.234 108.178 41.3271 106.141 41.3271C104.103 41.3271 102.451 43.234 102.451 45.5863C102.451 47.9385 104.103 49.8454 106.141 49.8454Z" fill="#9A6541"/>
<path d="M89.9234 68.5756H86.4224C77.4658 68.5756 70.2051 61.3148 70.2051 52.3582V42.9004C70.2051 32.9771 78.2495 24.9326 88.1729 24.9326H88.1729C98.0963 24.9326 106.141 32.9771 106.141 42.9004V52.3582C106.141 61.3148 98.88 68.5756 89.9234 68.5756Z" fill="#9A6541"/>
<path d="M88.6439 30.7578L89.7848 61.0406L103.904 59.5669L102.858 31.8037L88.6439 30.7578Z" fill="url(#paint1_radial)"/>
<path opacity="0.75" d="M70.6546 56.1464C70.6549 56.1473 70.655 56.1481 70.6552 56.149C70.747 56.5316 70.8532 56.9122 70.9714 57.2901C70.9871 57.3393 71.0048 57.3876 71.0209 57.4367C71.0932 57.6608 71.175 57.8824 71.2564 58.1041C73.5764 64.2235 79.4898 68.575 86.4224 68.575H89.9234C98.2858 68.575 105.168 62.2449 106.044 54.1154C106.049 54.068 106.056 54.0207 106.06 53.9732C106.08 53.7716 106.094 53.5681 106.107 53.3644C106.111 53.295 106.117 53.2259 106.12 53.1564C106.133 52.8917 106.141 52.6255 106.141 52.3577V42.8998C106.141 42.8167 106.136 42.7348 106.134 42.6521C106.131 42.484 106.129 42.3157 106.122 42.1485L104.362 42.0781L104.332 45.4533C104.395 47.5825 103.667 49.4259 102.145 50.9833C100.592 52.5404 98.9922 53.3844 96.7899 53.6591C93.2749 54.0976 92.5727 52.0097 87.8097 52.1179C83.5651 52.2144 81.4183 54.2004 78.613 53.8909C76.8671 53.6982 75.2219 52.7945 73.9542 51.4598C72.6864 50.0932 72.0209 48.5041 71.9575 46.6929L71.9066 42.4333L70.2184 42.373C70.2134 42.5485 70.2051 42.7231 70.2051 42.8998V49.8317L70.3413 53.3714C70.3694 54.3307 70.4768 55.2545 70.6546 56.1464Z" fill="url(#paint2_linear)"/>
<path d="M91.7216 56.864C91.059 57.1018 90.3901 57.1704 89.7351 57.1773C89.0802 57.1778 88.4441 57.1036 87.8419 56.9972C87.2377 56.8913 86.6687 56.7549 86.0935 56.5935C85.5183 56.4278 84.9359 56.2506 84.3158 55.9549L84.3068 55.9506C84.0818 55.8433 83.9863 55.5739 84.0936 55.3488C84.1379 55.2558 84.2101 55.1849 84.2952 55.1413C84.9286 54.8166 85.6014 54.6756 86.2749 54.6253C86.9484 54.5777 87.6198 54.6338 88.2487 54.754C88.8801 54.8723 89.4739 55.0423 90.0561 55.2476C90.6378 55.4609 91.2123 55.6961 91.7979 56.0537L91.8041 56.0575C92.0159 56.1868 92.0827 56.4634 91.9534 56.6752C91.8978 56.7662 91.8147 56.8306 91.7216 56.864Z" fill="#9A6541"/>
<path d="M90.4979 50.4394C91.2269 50.1859 91.829 49.758 92.3044 49.1558C92.7798 48.522 93.0017 47.8247 92.97 47.0641C92.9066 45.8598 92.3361 44.9248 91.2586 44.2592C90.0225 43.4986 89.3095 42.6271 89.1193 41.6445L87.3603 43.7838C86.1876 45.3368 85.6171 46.5094 85.6488 47.3018C85.6805 48.3476 86.0608 49.3618 86.7898 50.3443C87.4596 50.9835 88.24 51.4639 89.1908 51.4322C89.6612 50.9125 90.1809 50.5345 90.4979 50.4394Z" fill="#9A6541"/>
<path d="M82.4424 46.0664C83.2078 46.0664 83.8283 45.0232 83.8283 43.7363C83.8283 42.4495 83.2078 41.4062 82.4424 41.4062C81.6771 41.4062 81.0566 42.4495 81.0566 43.7363C81.0566 45.0232 81.6771 46.0664 82.4424 46.0664Z" fill="#33312D"/>
<path d="M96.2724 46.0664C97.0378 46.0664 97.6583 45.0232 97.6583 43.7363C97.6583 42.4495 97.0378 41.4062 96.2724 41.4062C95.507 41.4062 94.8865 42.4495 94.8865 43.7363C94.8865 45.0232 95.507 46.0664 96.2724 46.0664Z" fill="#33312D"/>
<path d="M59.9034 109.778C65.5631 115.732 72.3404 120.612 79.8978 124.087C83.0426 110.832 84.3398 95.1081 85.8537 79.6615L80.8901 77.5889C77.9236 83.5281 67.9636 98.1991 59.9034 109.778Z" fill="#9A6541"/>
<path d="M80.7118 78.0141L80.159 66.3185C80.1005 65.0803 80.6767 63.8975 81.6877 63.1803L84.9226 60.8857C85.4465 60.3202 86.2523 60.1125 86.9843 60.3544C86.9843 60.3544 91.4491 61.6282 91.6271 61.8884C92.9121 63.7662 89.4498 63.0917 89.4498 63.0917L91.0563 63.9549C91.8122 64.3611 92.2666 65.1664 92.2236 66.0235L90.5543 70.434C90.3314 70.7519 89.8501 70.7176 89.6746 70.3712L88.9306 68.0108C88.8542 67.7682 88.5916 67.6376 88.352 67.7231L86.3547 68.4358C86.3547 68.4358 84.9273 67.7955 86.8608 76.3415C87.6271 79.7284 84.178 82.1984 84.178 82.1984L80.7118 78.0141Z" fill="#9A6541"/>
<path d="M115.918 86.6093L137.363 77.2764C137.363 77.2764 150.596 87.3037 156.342 106.176C161.198 122.126 155.473 133.221 137.895 131.228C120.317 129.236 115.918 86.6093 115.918 86.6093Z" fill="#E2E2F6"/>
<path d="M142.1 131.636C129.864 131.839 118.812 131.555 104.573 129.833L103.989 123.547C112.088 121.521 126.458 113.538 134.022 109.134C138.353 106.611 147.143 106.693 151.12 114.9C154.117 121.084 152.776 131.46 142.1 131.636Z" fill="#9A6541"/>
<path d="M103.989 123.547L90.6934 121.507C90.2657 121.441 89.8291 121.465 89.4114 121.578L83.2994 123.229C82.762 123.364 82.2638 123.623 81.8444 123.985L76.437 128.653C75.8972 129.119 76.2267 130.005 76.9398 130.005H77.8656L77.3808 130.377C76.9084 130.739 77.1523 131.494 77.7474 131.511L79.3592 131.558C81.132 131.609 82.8793 131.127 84.3745 130.173L85.8269 129.247L90.3709 127.852L94.4085 129.497C97.0794 130.255 99.8773 130.457 102.629 130.091L104.573 129.833L103.989 123.547Z" fill="#9A6541"/>
<path d="M141.133 58.3867C151.429 58.3867 159.776 50.0399 159.776 39.7437C159.776 29.4474 151.429 21.1006 141.133 21.1006C130.837 21.1006 122.49 29.4474 122.49 39.7437C122.49 50.0399 130.837 58.3867 141.133 58.3867Z" fill="white"/>
<path d="M124.789 54.7066C127.143 54.7066 129.051 52.7984 129.051 50.4446C129.051 48.0908 127.143 46.1826 124.789 46.1826C122.435 46.1826 120.527 48.0908 120.527 50.4446C120.527 52.7984 122.435 54.7066 124.789 54.7066Z" fill="white"/>
<path d="M116.534 56.9668C117.782 56.9668 118.794 55.9549 118.794 54.7066C118.794 53.4582 117.782 52.4463 116.534 52.4463C115.286 52.4463 114.274 53.4582 114.274 54.7066C114.274 55.9549 115.286 56.9668 116.534 56.9668Z" fill="white"/>
<path d="M141.161 49.7414C140.608 49.7515 140.075 49.5364 139.683 49.1456C139.279 48.7583 139.059 48.2175 139.077 47.6581C139.063 47.0996 139.283 46.5604 139.683 46.171C140.282 45.5901 141.166 45.4163 141.94 45.7277C142.186 45.8289 142.411 45.9759 142.602 46.1603C142.799 46.35 142.958 46.5747 143.071 46.8229C143.188 47.0854 143.247 47.3705 143.244 47.6586C143.246 47.9395 143.187 48.2174 143.071 48.4731C142.846 48.9679 142.442 49.3592 141.94 49.5684C141.694 49.6765 141.429 49.7355 141.161 49.7414ZM141.125 43.3696C140.183 43.3696 139.411 42.6214 139.381 41.6796L139.063 31.5497C139.032 30.5863 139.789 29.781 140.752 29.7508C140.77 29.7502 140.788 29.75 140.807 29.75H141.443C142.407 29.75 143.188 30.5314 143.188 31.4953C143.188 31.5134 143.188 31.5315 143.187 31.5497L142.869 41.6796C142.839 42.6212 142.067 43.3693 141.125 43.3696Z" fill="#F7B548"/>
</g>
<defs>
<radialGradient id="paint0_radial" cx="0" cy="0" r="1" gradientUnits="userSpaceOnUse" gradientTransform="translate(93.363 -45.4415) rotate(-90.0344) scale(23.9345 17.6341)">
<stop stop-color="#594539"/>
<stop offset="1" stop-color="#9B643D"/>
</radialGradient>
<radialGradient id="paint1_radial" cx="0" cy="0" r="1" gradientUnits="userSpaceOnUse" gradientTransform="translate(90.0608 23.9654) scale(9.87541)">
<stop stop-color="#6D453A"/>
<stop offset="1" stop-color="#9A6541" stop-opacity="0"/>
</radialGradient>
<linearGradient id="paint2_linear" x1="88.1527" y1="59.4027" x2="88.1672" y2="48.5333" gradientUnits="userSpaceOnUse">
<stop offset="0.0144" stop-color="#48372D"/>
<stop offset="0.4807" stop-color="#59453A"/>
<stop offset="1" stop-color="#9A6541"/>
</linearGradient>
<clipPath id="clip0">
<rect width="214" height="131.692" fill="white"/>
</clipPath>
</defs>
</svg>
