<svg width="32" height="32" viewBox="0 0 32 32" fill="none" xmlns="http://www.w3.org/2000/svg">
<g clip-path="url(#clip0)">
<mask id="mask0" mask-type="alpha" maskUnits="userSpaceOnUse" x="-1" y="3" width="33" height="26">
<path d="M9.73369 16.0001L0.321858 26.796C-0.428289 27.6565 0.182832 29 1.32437 29H20.4621C20.8465 29 21.2121 28.8337 21.4646 28.544L31.6385 16.874C32.0751 16.3731 32.0751 15.6269 31.6385 15.126L21.4646 3.45601C21.2121 3.16629 20.8465 3 20.4621 3L1.32431 3.00011C0.182777 3.00011 -0.42834 4.34364 0.321804 5.2041L9.73369 16.0001Z" fill="#C4C4C4"/>
</mask>
<g mask="url(#mask0)">
<path d="M21.0674 3L9.73405 16L-1.59928 3H21.0674Z" fill="url(#paint0_linear)"/>
<path opacity="0.5" d="M-1.59961 29.5L21.0671 3.5L32.4004 16.5L21.0671 29.5H-1.59961Z" fill="black" stroke="black" stroke-opacity="0.5"/>
<path d="M-1.59961 29L21.0671 3L32.4004 16L21.0671 29H-1.59961Z" fill="url(#paint1_linear)"/>
<path d="M-1.59961 29L21.0671 3L26.7337 9.5L9.73372 29H-1.59961Z" fill="url(#paint2_linear)"/>
</g>
</g>
<defs>
<linearGradient id="paint0_linear" x1="14.4007" y1="18.3947" x2="9.50823" y2="3.0721" gradientUnits="userSpaceOnUse">
<stop stop-color="#0D36A5"/>
<stop offset="1" stop-color="#1152D4"/>
</linearGradient>
<linearGradient id="paint1_linear" x1="15.4004" y1="3" x2="15.4004" y2="29" gradientUnits="userSpaceOnUse">
<stop stop-color="#84CAFF"/>
<stop offset="1" stop-color="#61B1FB"/>
</linearGradient>
<linearGradient id="paint2_linear" x1="12.5671" y1="3" x2="12.5671" y2="29" gradientUnits="userSpaceOnUse">
<stop stop-color="#3B90F5"/>
<stop offset="1" stop-color="#2A78EE"/>
</linearGradient>
<clipPath id="clip0">
<rect width="32" height="32" fill="white"/>
</clipPath>
</defs>
</svg>
