<svg width="32" height="32" viewBox="0 0 32 32" fill="none" xmlns="http://www.w3.org/2000/svg">
<g clip-path="url(#clip0)">
<mask id="mask0" mask-type="alpha" maskUnits="userSpaceOnUse" x="0" y="1" width="33" height="31">
<path d="M24.0003 18.3333C24.0003 17.597 24.5973 17 25.3337 17H30.6882C31.4239 17 32.0206 16.404 32.0215 15.6683L32.0378 2.33496C32.0387 1.59794 31.4414 1 30.7044 1H9.33366C8.59728 1 8.00033 1.59695 8.00033 2.33333V9H1.33336C0.596971 9 1.21454e-05 9.59697 2.71273e-05 10.3334L0.000298395 23.6667C0.000313376 24.4031 0.597263 25 1.33363 25H6.66699C7.40337 25 8.00033 25.597 8.00033 26.3333V30.5858C8.00033 31.4767 9.07747 31.9229 9.70743 31.2929L15.6098 25.3905C15.8598 25.1405 16.199 25 16.5526 25H22.667C23.4034 25 24.0003 24.403 24.0003 23.6667V18.3333Z" fill="#C4C4C4"/>
</mask>
<g mask="url(#mask0)">
<path fill-rule="evenodd" clip-rule="evenodd" d="M0 9L0.000325521 25H6.66699C7.40337 25 8.00033 25.597 8.00033 26.3333V33L15.6098 25.3905C15.8599 25.1405 16.199 25 16.5526 25H24.0003L24.0002 10.3333C24.0002 9.59695 23.4032 9 22.6668 9H0Z" fill="url(#paint0_linear)"/>
<path opacity="0.5" fill-rule="evenodd" clip-rule="evenodd" d="M32.0391 1.5L32.0001 17.5L25.3336 17.5C24.5972 17.5 24.0002 18.0969 24.0002 18.8333L24.0002 23.0858C24.0001 23.9767 22.923 24.4229 22.293 23.7929L16.3906 17.8905C16.1406 17.6405 15.8015 17.5 15.4478 17.5H9.33333C8.59695 17.5 8 16.903 8 16.1667V1.5H32.0391Z" fill="black" stroke="black" stroke-opacity="0.5"/>
<path fill-rule="evenodd" clip-rule="evenodd" d="M32.0391 1L32.0001 17L25.3302 17C24.5957 17 24.0002 17.5954 24.0002 18.33L24.0002 22.5858C24.0001 23.4767 22.923 23.9229 22.293 23.2929L16.3897 17.3895C16.1402 17.1401 15.802 17 15.4492 17H9.33C8.59546 17 8 16.4045 8 15.67V1H32.0391Z" fill="url(#paint1_linear)"/>
<rect x="8" y="1" width="24" height="5" fill="#4CCBED"/>
<rect x="8" y="6" width="24" height="6" fill="#17AAD2"/>
</g>
</g>
<defs>
<linearGradient id="paint0_linear" x1="3.66699" y1="9" x2="18.667" y2="38" gradientUnits="userSpaceOnUse">
<stop stop-color="#117B97"/>
<stop offset="1" stop-color="#0A4A5C"/>
</linearGradient>
<linearGradient id="paint1_linear" x1="20" y1="7.66667" x2="30" y2="31.3333" gradientUnits="userSpaceOnUse">
<stop stop-color="#1392B4"/>
<stop offset="1" stop-color="#117B97"/>
</linearGradient>
<clipPath id="clip0">
<rect width="32" height="32" fill="white"/>
</clipPath>
</defs>
</svg>
