<svg width="40" height="40" viewBox="0 0 40 40" fill="none" xmlns="http://www.w3.org/2000/svg">
<path d="M0 6.4C0 4.15979 0 3.03969 0.435974 2.18404C0.819467 1.43139 1.43139 0.819467 2.18404 0.435974C3.03969 0 4.15979 0 6.4 0H33.6C35.8402 0 36.9603 0 37.816 0.435974C38.5686 0.819467 39.1805 1.43139 39.564 2.18404C40 3.03969 40 4.15979 40 6.4V33.6C40 35.8402 40 36.9603 39.564 37.816C39.1805 38.5686 38.5686 39.1805 37.816 39.564C36.9603 40 35.8402 40 33.6 40H6.4C4.15979 40 3.03969 40 2.18404 39.564C1.43139 39.1805 0.819467 38.5686 0.435974 37.816C0 36.9603 0 35.8402 0 33.6V6.4Z" fill="#F4F4FC"/>
<path d="M25.8333 10C28.1345 10 30 11.8655 30 14.1667V25.8333C30 28.1345 28.1345 30 25.8333 30H14.1667C11.8655 30 10 28.1345 10 25.8333V14.1667C10 11.8655 11.8655 10 14.1667 10H25.8333ZM25.8333 11.6667H14.1667C12.786 11.6667 11.6667 12.786 11.6667 14.1667V25.8333C11.6667 27.214 12.786 28.3333 14.1667 28.3333H25.8333C27.214 28.3333 28.3333 27.214 28.3333 25.8333V14.1667C28.3333 12.786 27.214 11.6667 25.8333 11.6667ZM25.8333 21.1111C26.2936 21.1111 26.6667 21.4842 26.6667 21.9444V24.4444C26.6667 25.6718 25.6718 26.6667 24.4444 26.6667H21.9444C21.4842 26.6667 21.1111 26.2936 21.1111 25.8333C21.1111 25.3731 21.4842 25 21.9444 25H24.4444C24.7512 25 25 24.7512 25 24.4444V21.9444C25 21.4842 25.3731 21.1111 25.8333 21.1111ZM14.1667 21.1111C14.6269 21.1111 15 21.4842 15 21.9444V24.4444C15 24.7512 15.2487 25 15.5556 25H18.0556C18.5158 25 18.8889 25.3731 18.8889 25.8333C18.8889 26.2936 18.5158 26.6667 18.0556 26.6667H15.5556C14.3283 26.6667 13.3333 25.6718 13.3333 24.4444V21.9444C13.3333 21.4842 13.7064 21.1111 14.1667 21.1111ZM15.5556 13.3333H18.0556C18.5158 13.3333 18.8889 13.7064 18.8889 14.1667C18.8889 14.5886 18.5754 14.9372 18.1686 14.9924L18.0556 15H15.5556C15.2828 15 15.056 15.1965 15.009 15.4557L15 15.5556V18.0556C15 18.5158 14.6269 18.8889 14.1667 18.8889C13.7448 18.8889 13.3961 18.5754 13.3409 18.1686L13.3333 18.0556V15.5556C13.3333 14.384 14.2399 13.4243 15.3897 13.3394L15.5556 13.3333H18.0556H15.5556ZM24.4444 13.3333C25.6718 13.3333 26.6667 14.3283 26.6667 15.5556V18.0556C26.6667 18.5158 26.2936 18.8889 25.8333 18.8889C25.3731 18.8889 25 18.5158 25 18.0556V15.5556C25 15.2487 24.7512 15 24.4444 15H21.9444C21.4842 15 21.1111 14.6269 21.1111 14.1667C21.1111 13.7064 21.4842 13.3333 21.9444 13.3333H24.4444Z" fill="#464775"/>
</svg>
