<svg width="40" height="40" viewBox="0 0 40 40" fill="none" xmlns="http://www.w3.org/2000/svg">
<path d="M0 6.4C0 4.15979 0 3.03969 0.435974 2.18404C0.819467 1.43139 1.43139 0.819467 2.18404 0.435974C3.03969 0 4.15979 0 6.4 0H33.6C35.8402 0 36.9603 0 37.816 0.435974C38.5686 0.819467 39.1805 1.43139 39.564 2.18404C40 3.03969 40 4.15979 40 6.4V33.6C40 35.8402 40 36.9603 39.564 37.816C39.1805 38.5686 38.5686 39.1805 37.816 39.564C36.9603 40 35.8402 40 33.6 40H6.4C4.15979 40 3.03969 40 2.18404 39.564C1.43139 39.1805 0.819467 38.5686 0.435974 37.816C0 36.9603 0 35.8402 0 33.6V6.4Z" fill="#F4F4FC"/>
<path d="M18.2949 15.3132L18.424 15.4318L28.3696 25.34C29.2105 26.1777 29.2101 27.5354 28.3686 28.3725C27.5271 29.2096 26.1633 29.2091 25.3224 28.3714L15.3772 18.4639C14.5444 17.6334 14.5447 16.2882 15.3782 15.4578L15.5267 15.319C16.3213 14.641 17.4979 14.6391 18.2949 15.3132ZM19.0993 18.1103L18.0667 19.1382L26.3294 27.3697C26.6145 27.6538 27.077 27.6539 27.3623 27.3701C27.6476 27.0862 27.6478 26.6258 27.3626 26.3417L19.0993 18.1103ZM14.9369 22.3436L15.0335 22.3371C15.3939 22.3371 15.6917 22.6037 15.7388 22.9495L15.7453 23.0457V23.7543H16.4571C16.8175 23.7543 17.1153 24.0208 17.1624 24.3667L17.1689 24.4628C17.1689 24.8215 16.9011 25.118 16.5537 25.1649L16.4571 25.1714H15.7453V25.88C15.7453 26.2387 15.4775 26.5351 15.1301 26.5821L15.0335 26.5885C14.6732 26.5885 14.3754 26.322 14.3282 25.9761L14.3217 25.88V25.1714H13.6099C13.2496 25.1714 12.9518 24.9048 12.9046 24.559L12.8981 24.4628C12.8981 24.1041 13.1659 23.8076 13.5133 23.7607L13.6099 23.7543H14.3217V23.0457C14.3217 22.687 14.5895 22.3905 14.9369 22.3436ZM16.4109 16.4339L16.385 16.4598C16.1069 16.7367 16.1068 17.1856 16.3845 17.4625L17.0598 18.1358L18.0933 17.1069L17.4009 16.4179C17.1219 16.1571 16.6835 16.1624 16.4109 16.4339ZM24.4276 12.896L24.5242 12.8895C24.8845 12.8895 25.1823 13.1561 25.2295 13.5019L25.236 13.5981V14.3067H25.9478C26.3081 14.3067 26.6059 14.5732 26.6531 14.9191L26.6596 15.0152C26.6596 15.374 26.3918 15.6704 26.0443 15.7173L25.9478 15.7238H25.236V16.4324C25.236 16.7911 24.9682 17.0876 24.6208 17.1345L24.5242 17.1409C24.1638 17.1409 23.866 16.8744 23.8189 16.5285L23.8124 16.4324V15.7238H23.1006C22.7402 15.7238 22.4424 15.4572 22.3953 15.1114L22.3888 15.0152C22.3888 14.6565 22.6566 14.36 23.004 14.3131L23.1006 14.3067H23.8124V13.5981C23.8124 13.2394 24.0801 12.9429 24.4276 12.896ZM13.0388 11.0065L13.1354 11C13.4958 11 13.7936 11.2666 13.8407 11.6124L13.8472 11.7086V12.4171H14.559C14.9193 12.4171 15.2172 12.6837 15.2643 13.0296L15.2708 13.1257C15.2708 13.4844 15.003 13.7809 14.6556 13.8278L14.559 13.8343H13.8472V14.5428C13.8472 14.9016 13.5794 15.198 13.232 15.245L13.1354 15.2514C12.775 15.2514 12.4772 14.9849 12.4301 14.639L12.4236 14.5428V13.8343H11.7118C11.3514 13.8343 11.0536 13.5677 11.0065 13.2219L11 13.1257C11 12.767 11.2678 12.4705 11.6152 12.4236L11.7118 12.4171H12.4236V11.7086C12.4236 11.3498 12.6914 11.0534 13.0388 11.0065Z" fill="#464775"/>
</svg>
