<svg width="40" height="40" viewBox="0 0 40 40" fill="none" xmlns="http://www.w3.org/2000/svg">
<path d="M0 4C0 1.79086 1.79086 0 4 0H36C38.2091 0 40 1.79086 40 4V36C40 38.2091 38.2091 40 36 40H4C1.79086 40 0 38.2091 0 36V4Z" fill="#F4F4FC"/>
<path d="M23.7993 11C25.2899 11 26.5894 12.0139 26.9518 13.4597L27.337 15H28.25C28.6297 15 28.9435 15.2822 28.9932 15.6482L29 15.75C29 16.1297 28.7178 16.4435 28.3518 16.4932L28.25 16.5H27.714L27.922 17.3265C28.5708 17.7213 29.0041 18.435 29.0041 19.25V27.7468C29.0041 28.7133 28.2206 29.4968 27.2541 29.4968H25.75C24.7835 29.4968 24 28.7133 24 27.7468L23.999 26.5H16.004L16.0041 27.7468C16.0041 28.7133 15.2206 29.4968 14.2541 29.4968H12.75C11.7835 29.4968 11 28.7133 11 27.7468V19.25C11 18.4352 11.4332 17.7215 12.0818 17.3267L12.289 16.5H11.75C11.3703 16.5 11.0565 16.2178 11.0068 15.8518L11 15.75C11 15.3703 11.2822 15.0565 11.6482 15.0068L11.75 15H12.663L13.049 13.4618C13.4107 12.015 14.7106 11 16.2019 11H23.7993ZM14.504 26.5H12.499L12.5 27.7468C12.5 27.8848 12.6119 27.9968 12.75 27.9968H14.2541C14.3922 27.9968 14.5041 27.8848 14.5041 27.7468L14.504 26.5ZM27.504 26.5H25.499L25.5 27.7468C25.5 27.8848 25.6119 27.9968 25.75 27.9968H27.2541C27.3922 27.9968 27.5041 27.8848 27.5041 27.7468L27.504 26.5ZM26.7541 18.5H13.25C12.8358 18.5 12.5 18.8358 12.5 19.25V25H27.5041V19.25C27.5041 18.8358 27.1683 18.5 26.7541 18.5ZM18.249 22H21.7507C22.165 22 22.5007 22.3358 22.5007 22.75C22.5007 23.1297 22.2186 23.4435 21.8525 23.4932L21.7507 23.5H18.249C17.8348 23.5 17.499 23.1642 17.499 22.75C17.499 22.3703 17.7811 22.0565 18.1472 22.0068L18.249 22H21.7507H18.249ZM25 20C25.5522 20 25.9999 20.4477 25.9999 21C25.9999 21.5522 25.5522 21.9999 25 21.9999C24.4477 21.9999 24 21.5522 24 21C24 20.4477 24.4477 20 25 20ZM15 20C15.5522 20 15.9999 20.4477 15.9999 21C15.9999 21.5522 15.5522 21.9999 15 21.9999C14.4477 21.9999 14 21.5522 14 21C14 20.4477 14.4477 20 15 20ZM23.7993 12.5H16.2019C15.3989 12.5 14.699 13.0465 14.5042 13.8256L13.7106 17H26.2929L25.4968 13.8245C25.3017 13.046 24.6019 12.5 23.7993 12.5Z" fill="#6264A7"/>
</svg>
