<svg width="40" height="40" viewBox="0 0 40 40" fill="none" xmlns="http://www.w3.org/2000/svg">
<path d="M0 6.4C0 4.15979 0 3.03969 0.435974 2.18404C0.819467 1.43139 1.43139 0.819467 2.18404 0.435974C3.03969 0 4.15979 0 6.4 0H33.6C35.8402 0 36.9603 0 37.816 0.435974C38.5686 0.819467 39.1805 1.43139 39.564 2.18404C40 3.03969 40 4.15979 40 6.4V33.6C40 35.8402 40 36.9603 39.564 37.816C39.1805 38.5686 38.5686 39.1805 37.816 39.564C36.9603 40 35.8402 40 33.6 40H6.4C4.15979 40 3.03969 40 2.18404 39.564C1.43139 39.1805 0.819467 38.5686 0.435974 37.816C0 36.9603 0 35.8402 0 33.6V6.4Z" fill="#F4F4FC"/>
<path d="M20 8C24.8818 8 28.8558 11.8868 28.9962 16.7346L29 17V22.2543C29 23.7168 27.8583 24.9127 26.4175 24.9993L26.25 25.0043H23.2539C22.8742 25.0043 22.5605 24.7222 22.5108 24.3561L22.5039 24.2543V18.25C22.5039 17.8703 22.7861 17.5565 23.1522 17.5068L23.2539 17.5H27.25C27.3353 17.5 27.4191 17.5061 27.5011 17.5179L27.5 17C27.5 12.8579 24.1421 9.5 20 9.5C15.9391 9.5 12.632 12.7275 12.5039 16.7573L12.5 17V17.499L16.7461 17.5C17.1258 17.5 17.4395 17.7822 17.4892 18.1482L17.4961 18.25V24.2543C17.4961 24.634 17.2139 24.9478 16.8478 24.9975L16.7461 25.0043H13.75C13.3 25.0043 12.8752 24.8962 12.5003 24.7046L12.5 26.25C12.5 27.4409 13.4252 28.4156 14.596 28.4948L14.75 28.5L17.0414 28.5007C17.2794 27.0815 18.5136 26 20.0004 26C21.6575 26 23.0009 27.3433 23.0009 29.0004C23.0009 30.6575 21.6575 32.0009 20.0004 32.0009C18.694 32.0009 17.5826 31.1659 17.1707 30.0005L14.75 30C12.7457 30 11.1087 28.4276 11.0052 26.4492L11 26.25V17C11 12.0294 15.0294 8 20 8ZM20.0004 27.5C19.1718 27.5 18.5 28.1718 18.5 29.0004C18.5 29.8291 19.1718 30.5009 20.0004 30.5009C20.8291 30.5009 21.5009 29.8291 21.5009 29.0004C21.5009 28.1718 20.8291 27.5 20.0004 27.5ZM15.996 19L12.5 18.999L12.5001 22.2725C12.5086 22.8685 12.9342 23.3635 13.4981 23.4789L13.6222 23.4979L13.75 23.5043L15.996 23.504V19ZM27.25 19H24.003V23.504L26.25 23.5043C26.8972 23.5043 27.4295 23.0124 27.4935 22.3821L27.5 22.2543V19.25C27.5 19.1317 27.4178 19.0325 27.3073 19.0066L27.25 19Z" fill="#464775"/>
</svg>
