<svg width="40" height="40" viewBox="0 0 40 40" fill="none" xmlns="http://www.w3.org/2000/svg">
<path d="M0 6.4C0 4.15979 0 3.03969 0.435974 2.18404C0.819467 1.43139 1.43139 0.819467 2.18404 0.435974C3.03969 0 4.15979 0 6.4 0H33.6C35.8402 0 36.9603 0 37.816 0.435974C38.5686 0.819467 39.1805 1.43139 39.564 2.18404C40 3.03969 40 4.15979 40 6.4V33.6C40 35.8402 40 36.9603 39.564 37.816C39.1805 38.5686 38.5686 39.1805 37.816 39.564C36.9603 40 35.8402 40 33.6 40H6.4C4.15979 40 3.03969 40 2.18404 39.564C1.43139 39.1805 0.819467 38.5686 0.435974 37.816C0 36.9603 0 35.8402 0 33.6V6.4Z" fill="#F4F4FC"/>
<path d="M14.25 12.5C13.2835 12.5 12.5 13.2835 12.5 14.25V15.75C12.5 16.1642 12.1642 16.5 11.75 16.5C11.3358 16.5 11 16.1642 11 15.75V14.25C11 12.4551 12.4551 11 14.25 11H15.75C16.1642 11 16.5 11.3358 16.5 11.75C16.5 12.1642 16.1642 12.5 15.75 12.5H14.25Z" fill="#464775"/>
<path d="M15.95 18.25C15.95 17.0074 16.9574 16 18.2 16H21.7C22.9427 16 23.95 17.0074 23.95 18.25V21.75C23.95 22.9926 22.9427 24 21.7 24H18.2C16.9574 24 15.95 22.9926 15.95 21.75V18.25ZM18.2 17.5C17.7858 17.5 17.45 17.8358 17.45 18.25V21.75C17.45 22.1642 17.7858 22.5 18.2 22.5H21.7C22.1142 22.5 22.45 22.1642 22.45 21.75V18.25C22.45 17.8358 22.1142 17.5 21.7 17.5H18.2Z" fill="#464775"/>
<path d="M25.75 12.5C26.7165 12.5 27.5 13.2835 27.5 14.25V15.75C27.5 16.1642 27.8358 16.5 28.25 16.5C28.6642 16.5 29 16.1642 29 15.75V14.25C29 12.4551 27.5449 11 25.75 11H24.25C23.8358 11 23.5 11.3358 23.5 11.75C23.5 12.1642 23.8358 12.5 24.25 12.5L25.75 12.5Z" fill="#464775"/>
<path d="M25.75 27.5C26.7165 27.5 27.5 26.7165 27.5 25.75V24.25C27.5 23.8358 27.8358 23.5 28.25 23.5C28.6642 23.5 29 23.8358 29 24.25V25.75C29 27.5449 27.5449 29 25.75 29H24.25C23.8358 29 23.5 28.6642 23.5 28.25C23.5 27.8358 23.8358 27.5 24.25 27.5H25.75Z" fill="#464775"/>
<path d="M14.25 27.5C13.2835 27.5 12.5 26.7165 12.5 25.75L12.5 24.25C12.5 23.8358 12.1642 23.5 11.75 23.5C11.3358 23.5 11 23.8358 11 24.25V25.75C11 27.5449 12.4551 29 14.25 29H15.75C16.1642 29 16.5 28.6642 16.5 28.25C16.5 27.8358 16.1642 27.5 15.75 27.5H14.25Z" fill="#464775"/>
</svg>
