<svg width="40" height="40" viewBox="0 0 40 40" fill="none" xmlns="http://www.w3.org/2000/svg">
<path d="M0 6.4C0 4.15979 0 3.03969 0.435974 2.18404C0.819467 1.43139 1.43139 0.819467 2.18404 0.435974C3.03969 0 4.15979 0 6.4 0H33.6C35.8402 0 36.9603 0 37.816 0.435974C38.5686 0.819467 39.1805 1.43139 39.564 2.18404C40 3.03969 40 4.15979 40 6.4V33.6C40 35.8402 40 36.9603 39.564 37.816C39.1805 38.5686 38.5686 39.1805 37.816 39.564C36.9603 40 35.8402 40 33.6 40H6.4C4.15979 40 3.03969 40 2.18404 39.564C1.43139 39.1805 0.819467 38.5686 0.435974 37.816C0 36.9603 0 35.8402 0 33.6V6.4Z" fill="#F4F4FC"/>
<path d="M19.7204 10.0569C19.9012 9.98363 20.1034 9.98363 20.2841 10.0569L29.5343 13.808C29.8173 13.9228 30.0025 14.1977 30.0024 14.5031C30.0024 14.5263 30.0014 14.5493 29.9993 14.5721L29.9993 25.5044C29.9993 25.8098 29.814 26.0848 29.531 26.1995L20.2911 29.9439C20.1932 29.9836 20.0918 30.0011 19.9925 29.9988C19.8967 29.9991 19.8005 29.981 19.7092 29.9439L10.4693 26.1995C10.1862 26.0848 10.001 25.8098 10.001 25.5044L10.001 14.5538C10.001 14.5379 10.0015 14.5221 10.0024 14.5064L10.0024 14.5031C10.0024 14.1977 10.1876 13.9228 10.4706 13.808L19.7204 10.0569ZM20.7418 28.1428L28.4993 24.9991L28.4993 15.6175L20.7499 18.758L20.7418 28.1428ZM11.501 15.6156L11.501 24.9991L19.2418 28.1361L19.2499 18.7561L11.501 15.6156ZM20.0023 11.5613L12.7487 14.5028L20.0023 17.4425L27.2561 14.5028L20.0023 11.5613Z" fill="#464775"/>
</svg>
