<svg width="40" height="40" viewBox="0 0 40 40" fill="none" xmlns="http://www.w3.org/2000/svg">
<path d="M0 6.4C0 4.15979 0 3.03969 0.435974 2.18404C0.819467 1.43139 1.43139 0.819467 2.18404 0.435974C3.03969 0 4.15979 0 6.4 0H33.6C35.8402 0 36.9603 0 37.816 0.435974C38.5686 0.819467 39.1805 1.43139 39.564 2.18404C40 3.03969 40 4.15979 40 6.4V33.6C40 35.8402 40 36.9603 39.564 37.816C39.1805 38.5686 38.5686 39.1805 37.816 39.564C36.9603 40 35.8402 40 33.6 40H6.4C4.15979 40 3.03969 40 2.18404 39.564C1.43139 39.1805 0.819467 38.5686 0.435974 37.816C0 36.9603 0 35.8402 0 33.6V6.4Z" fill="#F4F4FC"/>
<path d="M25.75 11C27.5449 11 29 12.4551 29 14.25V25.75C29 27.5449 27.5449 29 25.75 29H14.25C12.4551 29 11 27.5449 11 25.75V14.25C11 12.4551 12.4551 11 14.25 11H25.75ZM25.75 12.5H14.25C13.2835 12.5 12.5 13.2835 12.5 14.25V25.75C12.5 26.7165 13.2835 27.5 14.25 27.5H25.75C26.7165 27.5 27.5 26.7165 27.5 25.75V14.25C27.5 13.2835 26.7165 12.5 25.75 12.5ZM19 15.25C21.0711 15.25 22.75 16.9289 22.75 19C22.75 19.7642 22.5214 20.475 22.1289 21.0678L24.5303 23.4697C24.8232 23.7626 24.8232 24.2374 24.5303 24.5303C24.2641 24.7966 23.8474 24.8208 23.5538 24.6029L23.4697 24.5303L21.0678 22.1289C20.475 22.5214 19.7642 22.75 19 22.75C16.9289 22.75 15.25 21.0711 15.25 19C15.25 16.9289 16.9289 15.25 19 15.25ZM19 16.75C17.7574 16.75 16.75 17.7574 16.75 19C16.75 20.2426 17.7574 21.25 19 21.25C20.2426 21.25 21.25 20.2426 21.25 19C21.25 17.7574 20.2426 16.75 19 16.75Z" fill="#464775"/>
</svg>
