<svg width="48" height="48" viewBox="0 0 48 48" fill="none" xmlns="http://www.w3.org/2000/svg">
<path d="M24 1.20236C24 0.538315 24.5387 -0.00314393 25.2019 0.0300884C30.989 0.320069 36.4919 2.69647 40.678 6.74186C45.153 11.0665 47.7733 16.9602 47.986 23.1797C48.1987 29.3993 45.9872 35.4582 41.8181 40.0784C37.649 44.6986 31.8482 47.5188 25.6396 47.9439C19.431 48.3691 13.2999 46.366 8.53995 42.3572C3.77995 38.3484 0.763193 32.6475 0.126098 26.457C-0.510996 20.2665 1.28139 14.0706 5.12513 9.17639C8.72072 4.59814 13.8483 1.4938 19.5419 0.417667C20.1944 0.29434 20.8019 0.757312 20.8924 1.41516V1.41516C20.9829 2.07301 20.522 2.67629 19.8702 2.80326C14.7944 3.79199 10.2267 6.5739 7.01633 10.6617C3.55772 15.0655 1.94492 20.6406 2.51818 26.2108C3.09144 31.781 5.80593 36.9108 10.089 40.5179C14.3721 44.125 19.8888 45.9274 25.4753 45.5448C31.0619 45.1623 36.2814 42.6247 40.0328 38.4674C43.7841 34.3102 45.774 28.8583 45.5827 23.2619C45.3913 17.6656 43.0336 12.3624 39.0069 8.47107C35.2693 4.85907 30.365 2.72578 25.2019 2.43816C24.5389 2.40123 24 1.86641 24 1.20236V1.20236Z" fill="#13A10E"/>
</svg>
