<svg width="48" height="48" viewBox="0 0 48 48" fill="none" xmlns="http://www.w3.org/2000/svg">
<path d="M24 1.20236C24 0.538315 24.5387 -0.00314179 25.202 0.0301058C29.8422 0.262728 34.3249 1.83827 38.0988 4.57773C42.1976 7.55309 45.25 11.7489 46.8192 16.5646C48.3883 21.3803 48.3937 26.569 46.8346 31.3879C45.3991 35.8248 42.7051 39.7388 39.0926 42.6605C38.5763 43.0781 37.822 42.9579 37.4308 42.4214V42.4214C37.0396 41.8848 37.1598 41.1352 37.6738 40.7148C40.8774 38.0941 43.2674 34.6016 44.5466 30.6477C45.9495 26.3116 45.9447 21.6428 44.5328 17.3096C43.1209 12.9764 40.3743 9.20102 36.6861 6.52377C33.323 4.08248 29.3343 2.66845 25.2018 2.43818C24.5388 2.40123 24 1.86641 24 1.20236V1.20236Z" fill="#67D48B"/>
</svg>
