<svg width="48" height="48" viewBox="0 0 48 48" fill="none" xmlns="http://www.w3.org/2000/svg">
<path d="M24 1.20236C24 0.538315 24.5387 -0.00314186 25.2019 0.030111C28.5693 0.198948 31.8681 1.07574 34.8813 2.60845C38.2522 4.32313 41.1701 6.81018 43.3972 9.86681C45.6244 12.9235 47.0976 16.4631 47.6968 20.1973C48.2325 23.5352 48.0562 26.944 47.185 30.2011C47.0135 30.8426 46.333 31.1895 45.7009 30.986V30.986C45.0688 30.7825 44.7248 30.1058 44.8928 29.4633C45.6499 26.5678 45.7981 23.542 45.3225 20.5783C44.7833 17.2183 43.4577 14.0333 41.4537 11.2829C39.4497 8.53254 36.8241 6.29469 33.791 4.75182C31.1156 3.39093 28.19 2.60473 25.2018 2.43818C24.5388 2.40123 24 1.86641 24 1.20236V1.20236Z" fill="#67D48B"/>
</svg>
