<svg width="48" height="48" viewBox="0 0 48 48" fill="none" xmlns="http://www.w3.org/2000/svg">
<path d="M24 1.20236C24 0.538315 24.5387 -0.0031432 25.2019 0.0300927C30.8089 0.311078 36.1549 2.551 40.2952 6.37992C44.7304 10.4816 47.4556 16.1051 47.9269 22.1277C48.3981 28.1504 46.5808 34.1293 42.8376 38.871C39.0944 43.6126 33.7007 46.7682 27.7331 47.7079C21.7655 48.6476 15.6631 47.3022 10.6439 43.9403C5.62467 40.5784 2.05792 35.4473 0.655583 29.5712C-0.746755 23.6951 0.118481 17.5063 3.07858 12.2401C5.84183 7.32417 10.2408 3.54978 15.4901 1.55934C16.111 1.3239 16.7901 1.6736 16.9942 2.30552V2.30552C17.1982 2.93743 16.8498 3.61197 16.2302 3.85087C11.5566 5.65292 7.64144 9.03023 5.17484 13.4184C2.51133 18.157 1.73279 23.7257 2.99462 29.013C4.25644 34.3003 7.46582 38.9173 11.9821 41.9423C16.4984 44.9674 21.9894 46.178 27.3591 45.3324C32.7287 44.4869 37.582 41.6475 40.9501 37.3809C44.3183 33.1144 45.9535 27.7346 45.5295 22.3153C45.1054 16.8961 42.6533 11.8361 38.6625 8.1454C34.9667 4.72752 30.2031 2.71679 25.2019 2.43817C24.5389 2.40123 24 1.86641 24 1.20236V1.20236Z" fill="#13A10E"/>
</svg>
