<svg width="48" height="48" viewBox="0 0 48 48" fill="none" xmlns="http://www.w3.org/2000/svg">
<path d="M24 1.20236C24 0.538315 24.5387 -0.00314186 25.2019 0.030111C28.5744 0.199203 31.878 1.0784 34.8948 2.61534C38.2692 4.33448 41.1888 6.82776 43.4151 9.89136C45.6414 12.955 47.1111 16.5019 47.704 20.2423C48.2969 23.9827 47.9963 27.8103 46.8267 31.4122C45.6571 35.0141 43.6517 38.2882 40.9745 40.9666C38.2972 43.6451 35.0241 45.652 31.4227 46.8233C27.8213 47.9946 23.9939 48.297 20.2532 47.7057C16.909 47.1772 13.7191 45.9478 10.8906 44.1033C10.3344 43.7406 10.2166 42.986 10.6067 42.4486V42.4486C10.9968 41.9113 11.747 41.795 12.3052 42.1546C14.8251 43.7778 17.6593 44.8612 20.6286 45.3305C23.9945 45.8625 27.4384 45.5904 30.679 44.5365C33.9195 43.4826 36.8647 41.6768 39.2737 39.2666C41.6827 36.8565 43.4871 33.9106 44.5396 30.6695C45.592 27.4285 45.8625 23.9844 45.3289 20.6188C44.7954 17.2532 43.473 14.0616 41.4698 11.305C39.4666 8.54836 36.8394 6.3049 33.8032 4.75801C31.1245 3.39334 28.1946 2.60498 25.2018 2.43818C24.5388 2.40123 24 1.86641 24 1.20236V1.20236Z" fill="#20BA53"/>
</svg>
