<svg width="48" height="48" viewBox="0 0 48 48" fill="none" xmlns="http://www.w3.org/2000/svg">
<path d="M24 1.20236C24 0.538315 24.5387 -0.00314207 25.2019 0.0301112C27.943 0.167549 30.6433 0.774328 33.1844 1.82689C36.0962 3.033 38.742 4.80083 40.9706 7.02944C43.1992 9.25804 44.967 11.9038 46.1731 14.8156C47.3792 17.7274 48 20.8483 48 24C48 27.1517 47.3792 30.2726 46.1731 33.1844C44.967 36.0962 43.1992 38.742 40.9706 40.9706C38.742 43.1992 36.0962 44.967 33.1844 46.1731C30.6433 47.2257 27.943 47.8325 25.2019 47.9699C24.5387 48.0031 24 47.4617 24 46.7976V46.7976C24 46.1336 24.5387 45.5988 25.2018 45.5618C27.6269 45.4267 30.0148 44.8831 32.2642 43.9514C34.8842 42.8662 37.2649 41.2755 39.2702 39.2702C41.2755 37.2649 42.8662 34.8842 43.9514 32.2642C45.0367 29.6441 45.5953 26.8359 45.5953 24C45.5953 21.1641 45.0367 18.3559 43.9514 15.7358C42.8662 13.1158 41.2755 10.7351 39.2702 8.72983C37.2649 6.72452 34.8842 5.13383 32.2642 4.04856C30.0148 3.11687 27.6269 2.57335 25.2018 2.43818C24.5387 2.40123 24 1.86641 24 1.20236V1.20236Z" fill="#20BA53"/>
</svg>
