<svg width="48" height="48" viewBox="0 0 48 48" fill="none" xmlns="http://www.w3.org/2000/svg">
<path d="M24 1.20236C24 0.538315 24.5387 -0.00314179 25.202 0.0301058C29.8453 0.262881 34.3308 1.84034 38.1061 4.58303C42.2063 7.56174 45.2583 11.762 46.8248 16.5818C48.3912 21.4016 48.3918 26.5935 46.8262 31.4137C45.2607 36.2338 42.2096 40.4346 38.11 43.4141C34.0104 46.3937 29.0728 47.999 24.0048 48C18.9368 48.001 13.9986 46.3977 9.89782 43.4198C5.79703 40.4419 2.74416 36.2423 1.17672 31.4228C-0.266514 26.9852 -0.382198 22.2318 0.829846 17.7434C1.00296 17.1024 1.68429 16.7571 2.3159 16.9621V16.9621C2.94751 17.1671 3.28988 17.8447 3.12034 18.4867C2.06293 22.4911 2.17738 26.7244 3.46354 30.6791C4.87393 35.0157 7.6209 38.7945 11.3108 41.474C15.0007 44.1535 19.4441 45.5962 24.0043 45.5953C28.5645 45.5944 33.0074 44.1499 36.6962 41.4689C40.385 38.7879 43.1305 35.008 44.5391 30.6708C45.9478 26.3337 45.9473 21.6619 44.5378 17.325C43.1283 12.9882 40.3821 9.2088 36.6927 6.52854C33.3283 4.08436 29.337 2.66861 25.2018 2.43818C24.5388 2.40123 24 1.86641 24 1.20236V1.20236Z" fill="#20BA53"/>
</svg>
