<svg width="48" height="48" viewBox="0 0 48 48" fill="none" xmlns="http://www.w3.org/2000/svg">
<path d="M24 1.20236C24 0.538315 24.5387 -0.00314255 25.2019 0.0301076C29.2116 0.231133 33.1138 1.43544 36.5471 3.54101C40.3226 5.85645 43.3838 9.17148 45.3917 13.1191C47.3997 17.0668 48.2761 21.4931 47.924 25.908C47.5719 30.323 46.005 34.5544 43.3967 38.1339C40.7885 41.7134 37.2406 44.5013 33.1458 46.1891C29.051 47.8768 24.569 48.3986 20.196 47.6966C15.8231 46.9946 11.7296 45.0963 8.3688 42.2117C5.31264 39.5886 2.97073 36.2429 1.55094 32.4876C1.31611 31.8665 1.6665 31.1879 2.29861 30.9844V30.9844C2.93072 30.781 3.60489 31.13 3.84319 31.7498C5.12474 35.0831 7.21563 38.0529 9.93499 40.3869C12.959 42.9825 16.6424 44.6907 20.5772 45.3223C24.512 45.9539 28.5449 45.4845 32.2294 43.9658C35.9139 42.4471 39.1063 39.9385 41.4532 36.7177C43.8002 33.4969 45.2101 29.6894 45.5269 25.7168C45.8438 21.7442 45.0551 17.7615 43.2484 14.2094C41.4416 10.6572 38.6871 7.67438 35.2899 5.59093C32.235 3.7174 28.7674 2.63689 25.2018 2.43818C24.5388 2.40123 24 1.86641 24 1.20236V1.20236Z" fill="#20BA53"/>
</svg>
