<svg width="48" height="48" viewBox="0 0 48 48" fill="none" xmlns="http://www.w3.org/2000/svg">
<path d="M24 1.20236C24 0.538315 24.5388 -0.00314229 25.202 0.0300989C30.4831 0.294795 35.542 2.29791 39.5809 5.74528C43.9254 9.45344 46.805 14.5895 47.7021 20.2304C48.5992 25.8714 47.4551 31.6474 44.4754 36.5204C41.4956 41.3934 36.8756 45.0439 31.4456 46.8159C26.0155 48.5879 20.1315 48.3651 14.851 46.1877C9.57047 44.0103 5.23962 40.021 2.63675 34.9367C0.033889 29.8524 -0.670328 24.0065 0.650659 18.4495C1.87875 13.2833 4.78234 8.68177 8.89076 5.35297C9.4067 4.93493 10.1611 5.05438 10.5528 5.59061V5.59061C10.9445 6.12683 10.8248 6.87655 10.3112 7.29746C6.66387 10.2866 4.08589 14.3963 2.99019 19.0056C1.80156 24.0058 2.43521 29.266 4.77728 33.8409C7.11935 38.4158 11.0163 42.0054 15.7677 43.9646C20.5191 45.9238 25.8136 46.1242 30.6995 44.5298C35.5855 42.9353 39.7426 39.6506 42.4238 35.2659C45.105 30.8811 46.1345 25.6839 45.3272 20.6081C44.52 15.5324 41.929 10.911 38.0198 7.57434C34.4162 4.49858 29.9103 2.70051 25.2019 2.43817C24.5388 2.40123 24 1.86641 24 1.20236V1.20236Z" fill="#13A10E"/>
</svg>
