<svg width="20" height="20" viewBox="0 0 20 20" fill="none" xmlns="http://www.w3.org/2000/svg">
<path fill-rule="evenodd" clip-rule="evenodd" d="M6.00001 2C6.20559 2 6.39022 2.12583 6.46539 2.31717L9.21539 9.31717C9.31636 9.57419 9.18986 9.8644 8.93284 9.96538C8.67582 10.0663 8.38561 9.93985 8.28464 9.68283L7.62353 8H4.3765L3.71539 9.68283C3.61442 9.93985 3.32421 10.0663 3.06719 9.96538C2.81017 9.8644 2.68366 9.57419 2.78464 9.31717L5.53464 2.31717C5.60981 2.12583 5.79443 2 6.00001 2ZM4.76936 7H7.23067L6.00001 3.86742L4.76936 7Z" fill="#6264A7"/>
<path d="M13.5 2C13.7761 2 14 2.22386 14 2.5V16.2929L17.1464 13.1464C17.3417 12.9512 17.6583 12.9512 17.8536 13.1464C18.0488 13.3417 18.0488 13.6583 17.8536 13.8536L13.8536 17.8536C13.6583 18.0488 13.3417 18.0488 13.1464 17.8536L9.14645 13.8536C8.95118 13.6583 8.95118 13.3417 9.14645 13.1464C9.34171 12.9512 9.65829 12.9512 9.85355 13.1464L13 16.2929V2.5C13 2.22386 13.2239 2 13.5 2Z" fill="#6264A7"/>
<path d="M3.5 11.5C3.5 11.2239 3.72386 11 4 11H8C8.1844 11 8.35383 11.1015 8.44084 11.2641C8.52785 11.4267 8.51831 11.6239 8.41603 11.7774L4.93426 17H8C8.27614 17 8.5 17.2239 8.5 17.5C8.5 17.7761 8.27614 18 8 18H4C3.8156 18 3.64617 17.8985 3.55916 17.7359C3.47215 17.5734 3.48169 17.3761 3.58398 17.2227L7.06574 12H4C3.72386 12 3.5 11.7761 3.5 11.5Z" fill="#6264A7"/>
</svg>
