<svg width="40" height="40" viewBox="0 0 40 40" fill="none" xmlns="http://www.w3.org/2000/svg">
<path d="M0 6.4C0 4.15979 0 3.03968 0.435974 2.18404C0.819467 1.43139 1.43139 0.819467 2.18404 0.435974C3.03968 0 4.15979 0 6.4 0H33.6C35.8402 0 36.9603 0 37.816 0.435974C38.5686 0.819467 39.1805 1.43139 39.564 2.18404C40 3.03968 40 4.15979 40 6.4V33.6C40 35.8402 40 36.9603 39.564 37.816C39.1805 38.5686 38.5686 39.1805 37.816 39.564C36.9603 40 35.8402 40 33.6 40H6.4C4.15979 40 3.03968 40 2.18404 39.564C1.43139 39.1805 0.819467 38.5686 0.435974 37.816C0 36.9603 0 35.8402 0 33.6V6.4Z" fill="#F4F4FC"/>
<path fill-rule="evenodd" clip-rule="evenodd" d="M18.5495 10.5319C19.3874 9.82531 20.6126 9.82531 21.4505 10.5319L28.2005 16.224C28.7074 16.6515 29 17.2809 29 17.9441V27.7468C29 28.7133 28.2165 29.4968 27.25 29.4968H23.75C22.7835 29.4968 22 28.7133 22 27.7468V22.2468C22 22.1088 21.8881 21.9968 21.75 21.9968H18.25C18.1119 21.9968 18 22.1088 18 22.2468V27.7468C18 28.7133 17.2165 29.4968 16.25 29.4968H12.75C11.7835 29.4968 11 28.7133 11 27.7468V17.9441C11 17.2809 11.2926 16.6515 11.7995 16.224L18.5495 10.5319ZM20.4835 11.6786C20.2042 11.4431 19.7958 11.4431 19.5165 11.6786L12.7665 17.3707C12.5975 17.5132 12.5 17.723 12.5 17.9441V27.7468C12.5 27.8849 12.6119 27.9968 12.75 27.9968H16.25C16.3881 27.9968 16.5 27.8849 16.5 27.7468V22.2468C16.5 21.2803 17.2835 20.4968 18.25 20.4968H21.75C22.7165 20.4968 23.5 21.2803 23.5 22.2468V27.7468C23.5 27.8849 23.6119 27.9968 23.75 27.9968H27.25C27.3881 27.9968 27.5 27.8849 27.5 27.7468V17.9441C27.5 17.723 27.4025 17.5132 27.2335 17.3707L20.4835 11.6786Z" fill="#464775"/>
</svg>
