<svg width="40" height="40" viewBox="0 0 40 40" fill="none" xmlns="http://www.w3.org/2000/svg">
<path d="M0 6.4C0 4.15979 0 3.03968 0.435974 2.18404C0.819467 1.43139 1.43139 0.819467 2.18404 0.435974C3.03968 0 4.15979 0 6.4 0H33.6C35.8402 0 36.9603 0 37.816 0.435974C38.5686 0.819467 39.1805 1.43139 39.564 2.18404C40 3.03968 40 4.15979 40 6.4V33.6C40 35.8402 40 36.9603 39.564 37.816C39.1805 38.5686 38.5686 39.1805 37.816 39.564C36.9603 40 35.8402 40 33.6 40H6.4C4.15979 40 3.03968 40 2.18404 39.564C1.43139 39.1805 0.819467 38.5686 0.435974 37.816C0 36.9603 0 35.8402 0 33.6V6.4Z" fill="#F4F4FC"/>
<path d="M19.0378 10.017L28.3592 11.9455C28.7324 12.0227 29 12.3514 29 12.7324V28.161C29 28.5421 28.7324 28.8707 28.3592 28.9479L19.0378 30.8765C18.5391 30.9797 18.0714 30.5988 18.0714 30.0896V10.8039C18.0714 10.2946 18.5391 9.91378 19.0378 10.017ZM16.1429 11.4467V13.0539H12.6071V27.8396H16.1429V29.4467H11.8036C11.3875 29.4467 11.0453 29.1305 11.0041 28.7253L11 28.6431V12.2503C11 11.8342 11.3162 11.492 11.7214 11.4509L11.8036 11.4467H16.1429ZM19.6786 11.7907V29.1027L27.3929 27.5067V13.3868L19.6786 11.7907ZM21.6071 19.4824C22.1397 19.4824 22.5714 19.9142 22.5714 20.4467C22.5714 20.9793 22.1397 21.411 21.6071 21.411C21.0746 21.411 20.6429 20.9793 20.6429 20.4467C20.6429 19.9142 21.0746 19.4824 21.6071 19.4824Z" fill="#464775"/>
</svg>
