<svg width="165" height="165" viewBox="0 0 165 165" fill="none" xmlns="http://www.w3.org/2000/svg">
<path d="M68.1029 165C105.715 165 136.206 134.509 136.206 96.8969C136.206 59.2847 105.715 28.7939 68.1029 28.7939C30.4907 28.7939 0 59.2847 0 96.8969C0 134.509 30.4907 165 68.1029 165Z" fill="#EDEBE9"/>
<path d="M80.0736 75.7937C79.9883 75.7953 79.8983 75.8024 79.8132 75.8039L79.8178 75.793L80.0736 75.7937Z" fill="#BBB0D6"/>
<path d="M41.2867 47.6817C41.2867 47.6817 42.6395 79.5325 35.6494 88.7847C51.4064 107.003 76.2998 104.188 77.2255 96.0564C77.2255 96.0564 84.5974 68.8675 78.5851 52.5967C72.5932 43.2903 41.2867 47.6817 41.2867 47.6817Z" fill="#E0BB95"/>
<path d="M80.7786 46.2793C81.0519 45.0037 82.2079 43.9359 83.7561 43.8154C84.4562 43.8232 85.2379 43.9811 85.8271 44.4826C86.4128 44.9844 86.7396 45.6294 86.7406 46.3644C86.7411 46.6187 86.5356 46.8249 86.2813 46.8257C86.1657 46.8258 86.0602 46.7837 85.9793 46.7134L85.8541 46.6047C85.1307 45.9769 84.5916 45.7742 83.8515 45.8604C83.204 45.8209 82.4964 46.2768 81.6178 46.7734L81.522 46.8271C81.2785 46.9645 80.9695 46.8787 80.8323 46.6347C80.7689 46.5228 80.7533 46.3962 80.7786 46.2793Z" fill="#231F20"/>
<path d="M62.0382 46.2695C62.3116 44.994 63.4675 43.9261 65.0157 43.8057C65.7158 43.8134 66.4976 43.9713 67.0867 44.4728C67.6724 44.9747 67.9992 45.6196 68.0003 46.3546C68.0008 46.6089 67.7952 46.8151 67.541 46.8159C67.4254 46.8161 67.3199 46.7739 67.239 46.7037L67.1137 46.5949C66.3903 45.9671 65.8511 45.7644 65.1111 45.8506C64.4637 45.8112 63.756 46.267 62.8775 46.7636L62.7817 46.8173C62.5382 46.9547 62.2291 46.8689 62.0919 46.6249C62.0287 46.5129 62.0132 46.3863 62.0382 46.2695Z" fill="#231F20"/>
<path d="M55.346 23.8766L74.1331 23.3123C82.2793 23.0677 89.1002 28.0515 89.2904 34.3876L90.1901 64.353C90.3803 70.6889 83.8711 76.073 75.7244 76.3176L56.9376 76.8817C48.7914 77.1263 41.9704 72.1422 41.7803 65.8065L40.8805 35.8411C40.6901 29.505 47.1996 24.1209 55.346 23.8766Z" fill="#E0BB95"/>
<path d="M89.8123 56.3577L89.7981 56.3597C89.8047 56.3011 89.8069 56.2481 89.8135 56.1895L89.8123 56.3577Z" fill="#9C96AE"/>
<path d="M64.3505 50.6607C67.4738 46.1276 72.6424 43.0942 78.5663 42.9164C82.7001 42.7924 86.5482 44.078 89.6495 46.3398C91.8983 47.9797 93.75 50.1324 95.0402 52.6304C96.2227 54.932 96.9259 57.5274 97.0087 60.2878C97.3054 70.1772 89.5311 78.4331 79.6415 78.7301C76.2874 78.8307 73.118 78.0035 70.3849 76.4758C65.0628 73.5089 61.391 67.8983 61.1947 61.3629C61.0758 57.3975 62.2553 53.6948 64.3505 50.6607Z" fill="#E0BB95"/>
<path d="M67.7876 49.0547C68.6854 49.0278 69.3744 47.7098 69.3264 46.1109C69.2785 44.512 68.5117 43.2377 67.6138 43.2647C66.7159 43.2916 66.0269 44.6096 66.0749 46.2085C66.1229 47.8074 66.8897 49.0817 67.7876 49.0547Z" fill="#33312D"/>
<path d="M84.9421 48.543C85.84 48.5161 86.529 47.1981 86.481 45.5992C86.433 44.0003 85.6662 42.726 84.7683 42.753C83.8705 42.7799 83.1815 44.0979 83.2295 45.6968C83.2774 47.2957 84.0442 48.57 84.9421 48.543Z" fill="#33312D"/>
<path d="M40.0602 57.3565C44.0855 57.3416 47.3354 53.7642 47.3192 49.3663C47.3029 44.9683 44.0266 41.4152 40.0013 41.4301C35.976 41.445 32.7261 45.0223 32.7424 49.4202C32.7586 53.8182 36.0349 57.3713 40.0602 57.3565Z" fill="#E0BB95"/>
<path d="M75.089 56.159C75.1588 56.1508 75.2319 56.1751 75.283 56.2315C75.3673 56.3239 75.3606 56.4673 75.2678 56.5514C74.6451 57.118 73.8697 57.5144 73.0245 57.7251C72.1812 57.9449 71.2556 57.9529 70.3755 57.7232C68.5907 57.2751 67.1829 55.7593 66.8614 54.1077C66.8485 54.0399 66.8667 53.9658 66.9169 53.911C67.0014 53.8184 67.1454 53.8116 67.2381 53.8964L67.2414 53.8995C67.8374 54.4433 68.3872 54.9233 68.9704 55.3033C69.5574 55.6749 70.1579 55.958 70.8014 56.1274C71.4436 56.301 72.1201 56.3661 72.8319 56.364C73.5453 56.3539 74.281 56.2587 75.0827 56.1595L75.089 56.159Z" fill="#767677"/>
<path d="M38.8197 37.7756C38.8197 37.7756 38.8917 40.1821 38.9326 41.5406C41.4332 42.3992 41.253 48.2409 41.253 48.2409L41.4562 57.6954C41.7177 69.8599 53.1818 79.4633 65.3463 79.2018L79.3179 78.7404C89.6485 78.5163 97.1844 70.3772 97.0149 60.5232C96.966 57.6751 96.257 54.9979 95.0412 52.631L58.1447 54.2436C54.1793 54.3586 50.8697 51.239 50.7507 47.2734C50.7507 47.2734 48.7578 40.1042 52.865 36.2331C56.7351 32.5854 56.3396 29.7274 55.7673 27.6804L72.5606 27.3161L78.2274 27.1658L84.7497 27.089L85.7805 27.0778C85.7805 27.0778 89.1155 25.2128 88.6686 20.2289C88.4557 17.7761 87.6421 15.7779 86.8863 14.3728C86.0698 12.9494 85.3318 12.1387 85.3318 12.1387C85.3318 12.1387 84.8899 13.2823 83.5176 14.4738C82.3203 15.5209 80.389 16.6101 77.4262 16.9966C76.8534 17.0734 60.2595 17.4795 57.9229 17.5297C55.5866 17.5799 51.8808 18.405 50.3754 19.1244C45.739 21.2466 42.0871 25.1042 40.2065 29.8408C39.3948 31.868 38.9055 34.0837 38.8153 36.3673C38.8103 36.8435 38.8049 37.3001 38.8197 37.7756Z" fill="#BF8F68"/>
<path d="M66.9292 18.2374C71.956 19.7518 71.4348 27.3403 71.4348 27.3403L55.7673 27.6802C53.973 22.3518 47.4028 20.8161 47.4028 20.8161C47.4028 20.8161 53.2861 15.5328 66.9292 18.2374Z" fill="url(#paint0_radial)"/>
<path d="M74.6802 35.4283L75.4856 60.6757L87.8891 60.0834L86.5263 34.584L74.6802 35.4283Z" fill="url(#paint1_radial)"/>
<path d="M77.541 51.8329C75.673 50.0739 74.6008 47.6917 74.524 45.1254C74.4468 42.5602 75.3747 40.1174 77.1338 38.2495C78.8929 36.3815 81.2749 35.3092 83.8414 35.2325C86.42 35.1511 88.8489 36.0819 90.7172 37.8423C92.5852 39.6012 93.6575 41.9835 93.7343 44.5498C93.8115 47.1149 92.8849 49.5575 91.1245 51.4257C89.3655 53.2937 86.9833 54.3659 84.4169 54.4427C84.3883 54.4434 84.3601 54.444 84.3316 54.4445C81.7974 54.499 79.3896 53.5733 77.541 51.8329ZM83.9105 37.5357C79.8849 37.6564 76.7075 41.0302 76.8278 45.0569C76.8859 47.0064 77.7004 48.8182 79.1216 50.1569C80.5414 51.4944 82.4137 52.1837 84.3488 52.1394C86.2999 52.0811 88.11 51.2669 89.4488 49.8468C90.7862 48.4255 91.4906 46.5692 91.4311 44.618C91.3729 42.667 90.5587 40.8569 89.1387 39.518C87.7341 38.1951 85.902 37.4914 83.9749 37.5327C83.9532 37.5335 83.9317 37.5353 83.9105 37.5357Z" fill="#E3646A"/>
<path d="M69.9888 48.6721C69.9108 46.0799 70.7073 41.904 73.2993 41.8262C73.2993 41.8262 73.3202 42.8017 74.5604 43.8178C75.2768 44.4047 78.9114 45.1048 79.415 48.3893C79.8875 51.4708 77.0195 52.6732 76.4914 52.8915C75.9812 53.1023 75.426 53.2263 74.8436 53.2438C72.2512 53.3216 70.0669 51.2645 69.9888 48.6721Z" fill="#E0BB95"/>
<path d="M41.2154 47.0388L54.9282 46.6268C55.206 48.8371 56.2317 50.8645 57.8735 52.4106C59.7209 54.1509 62.1298 55.0767 64.664 55.0222C64.6924 55.0217 64.7208 55.0209 64.7493 55.0204C70.0458 54.8617 74.2255 50.4238 74.0669 45.1272C73.9075 39.8592 69.5133 35.6949 64.2538 35.8079C64.2268 35.8086 64.1994 35.8091 64.1724 35.8097C61.606 35.8863 59.2238 36.9584 57.4648 38.8267C56.0254 40.3564 55.1541 42.2714 54.9226 44.3213L41.1467 44.735L41.2154 47.0388ZM57.1585 45.6338C57.1004 43.6827 57.8046 41.8263 59.1423 40.4064C60.4797 38.9854 62.2912 38.1708 64.241 38.1127C64.2613 38.1122 64.2832 38.1104 64.3033 38.11C68.3026 38.024 71.6436 41.19 71.7636 45.1953C71.8839 49.2223 68.7066 52.5962 64.6809 52.7165C62.6853 52.7892 60.8721 52.0716 59.4521 50.734C58.0325 49.3952 57.2166 47.5839 57.1585 45.6338Z" fill="#E3646A"/>
<path d="M30.6426 102.373C30.6426 102.373 32.6019 88.9534 33.5459 83.2753C33.9537 80.8219 35.47 79.7279 37.5324 79.7285C44.0987 79.7303 52.1805 80.0502 58.1325 80.0502C59.9599 80.0502 61.0258 81.4063 61.4217 81.7234C62.8117 82.8368 65.5352 86.1431 65.5352 86.1431L69.3746 80.9135C69.8458 80.611 70.3948 80.4565 70.9549 80.4684C70.9549 80.4684 81.54 80.6978 85.552 80.7794C86.8712 80.8062 89.5421 80.7747 89.7113 85.3534C89.9269 91.1845 90.7786 105.945 90.7786 105.945L32.3402 106.039L30.6426 102.373Z" fill="#A6A7DC"/>
<path d="M131.168 120.977C150.71 122.881 139.726 82.682 139.726 82.682C139.726 82.682 136.458 75.5595 135.96 70.8537C135.462 66.148 137.451 55.9733 137.451 55.9733C137.574 55.0661 138.343 54.4754 139.252 54.5904C140.139 54.7028 140.897 55.4554 141.044 56.3709C141.044 56.3709 141.586 66.39 144.437 66.7497C146.201 66.9723 146.38 66.6585 148.031 71.5398C149.682 76.421 181.104 129.21 148.819 155.499C126.149 173.96 81.3184 134.968 81.3184 134.968C81.3184 134.968 82.6357 113.437 86.1476 104.811C107.612 108.369 115.009 119.403 131.168 120.977Z" fill="#E0BB95"/>
<path d="M155.996 66.2184L143.458 76.1264L142.548 63.1533L155.996 66.2184Z" fill="#E0BB95"/>
<path d="M142.786 103.051C142.325 112 136.083 114.738 130.854 114.265C122.053 113.469 115.196 90.1781 85.6705 91.4465C82.1586 100.073 74.7505 133.259 74.7505 133.259C74.7505 133.259 107.303 171.969 140.238 162.788C169.689 154.578 167.981 119.468 159.911 100.745L142.786 103.051Z" fill="#A6A7DC"/>
<path d="M56.246 89.8956C31.6473 89.8008 13.4222 96.1851 0.723633 106.831C5.53291 139.734 33.8656 165 68.1031 165C93.2652 165 115.238 151.352 127.029 131.057C114.165 106.73 87.3043 90.0152 56.246 89.8956Z" fill="url(#paint2_radial)"/>
<path d="M56.3338 101.663L65.5376 97.6295L74.7531 101.636C76.0403 102.195 77.4789 101.251 77.4768 99.847L77.4655 92.2347C77.4634 90.8311 76.0221 89.8906 74.7366 90.454L65.5329 94.4872L56.3172 90.4811C55.03 89.9215 53.5915 90.8662 53.5935 92.2699L53.6048 99.8823C53.6069 101.286 55.0482 102.226 56.3338 101.663Z" fill="#E3646A"/>
<path d="M81.923 66.7402C81.923 66.7402 81.7657 62.832 79.7438 62.8943C78.0645 62.9461 77.5301 64.5525 77.342 65.8068C76.71 70.0227 75.8311 73.8077 74.6282 81.8025C74.5707 82.185 75.6926 73.4511 75.2499 72.2533C74.8224 71.0966 74.473 70.8221 73.4747 70.7223C72.4763 70.6225 71.2388 71.7696 71.197 72.5113C71.1195 73.8891 68.1585 82.3204 68.005 84.2556C67.6326 88.953 72.3137 98.1772 72.3137 98.1772C67.5257 120.773 44.2284 143.653 31.791 154.518C42.3018 161.155 54.7525 165 68.1027 165C69.1637 165 70.2182 164.972 71.2675 164.924C82.1454 139.768 82.6664 103.544 82.6664 103.544C82.6664 103.544 85.0246 98.6789 86.2045 95.3963C88.2403 89.7322 87.5327 81.445 87.786 79.0133C88.8043 69.2415 81.923 66.7402 81.923 66.7402Z" fill="#E0BB95"/>
<path d="M31.5908 154.393C42.1434 161.108 54.6682 165 68.103 165C69.8677 165 71.6166 164.933 73.3475 164.801C79.0165 148.839 80.6232 128.769 80.6232 128.769L60.8078 122.863C60.8078 122.863 51.3853 136.96 31.5908 154.393Z" fill="#A6A7DC"/>
<path d="M119.604 56.9247L116.818 49.9154C116.366 48.7802 116.921 47.4941 118.056 47.0428C119.191 46.5915 120.477 47.1459 120.929 48.2811L123.667 55.17C123.694 55.2365 123.661 55.3118 123.595 55.3383L119.604 56.9247Z" fill="#E0BB95"/>
<path d="M145.757 88.8622L120.266 87.6166C118.582 87.5344 117.324 86.0387 117.455 84.2759L121.433 30.9184C121.564 29.1556 123.036 27.7933 124.72 27.8756L150.21 29.1212C151.894 29.2034 153.153 30.6991 153.021 32.4619L149.044 85.8195C148.912 87.5822 147.441 88.9445 145.757 88.8622Z" fill="#B3B0AD"/>
<path d="M134.739 86.8512L131.503 86.6931C130.876 86.6625 130.408 86.1056 130.457 85.4494L130.467 85.3098C130.516 84.6536 131.064 84.1464 131.691 84.1771L134.926 84.3352C135.553 84.3658 136.022 84.9226 135.973 85.5789L135.963 85.7185C135.914 86.3747 135.366 86.8818 134.739 86.8512Z" fill="#8A8886"/>
<path d="M123.76 33.2998L150.36 34.6001L146.718 83.4426L120.118 82.1423L123.76 33.2998Z" fill="#E1DFDD"/>
<path d="M120.45 77.6865L147.05 78.9869L146.718 83.4429L120.118 82.1426L120.45 77.6865Z" fill="#979593"/>
<path d="M138.547 52.4449L130.482 60.1875L132.283 62.0638L140.349 54.3213L138.547 52.4449Z" fill="#979593"/>
<path d="M132.818 52.3087L130.86 54.0215L138.024 62.2093L139.982 60.4965L132.818 52.3087Z" fill="#979593"/>
<path d="M123.76 33.3008L150.36 34.6011L150.028 39.0572L123.427 37.7568L123.76 33.3008Z" fill="#979593"/>
<path d="M140.245 32.1309L134.165 31.8339C133.794 31.8157 133.517 31.486 133.546 31.0976L133.554 30.9879C133.583 30.5993 133.907 30.299 134.278 30.3172L140.358 30.6142C140.73 30.6324 141.007 30.9621 140.978 31.3506L140.97 31.4603C140.941 31.8488 140.616 32.149 140.245 32.1309Z" fill="#8A8886"/>
<path d="M72.8095 63.0507C73.8677 63.0507 74.7255 62.1929 74.7255 61.1347C74.7255 60.0766 73.8677 59.2188 72.8095 59.2188C71.7514 59.2188 70.8936 60.0766 70.8936 61.1347C70.8936 62.1929 71.7514 63.0507 72.8095 63.0507Z" fill="#943838"/>
<path d="M157.516 52.4694L151.816 51.2472C150.51 50.9671 149.678 49.6812 149.958 48.375C150.238 47.0689 151.524 46.2371 152.83 46.5172L158.53 47.7394C159.836 48.0195 160.668 49.3054 160.388 50.6116C160.108 51.9177 158.822 52.7495 157.516 52.4694Z" fill="#E0BB95"/>
<path d="M154.836 56.7175L149.137 55.4952C147.83 55.2152 146.999 53.9293 147.279 52.6231C147.559 51.3169 148.845 50.4851 150.151 50.7652L155.851 51.9875C157.157 52.2675 157.989 53.5534 157.708 54.8596C157.428 56.1658 156.143 56.9976 154.836 56.7175Z" fill="#E0BB95"/>
<path d="M154.693 61.5085L148.993 60.2863C147.687 60.0062 146.855 58.7203 147.135 57.4141C147.415 56.108 148.701 55.2761 150.007 55.5562L155.707 56.7785C157.014 57.0585 157.845 58.3444 157.565 59.6506C157.285 60.9568 155.999 61.7886 154.693 61.5085Z" fill="#E0BB95"/>
<path d="M154.55 66.3005L148.85 65.0782C147.544 64.7982 146.712 63.5123 146.992 62.2061C147.272 60.8999 148.558 60.0681 149.864 60.3482L155.564 61.5705C156.87 61.8505 157.702 63.1364 157.422 64.4426C157.142 65.7488 155.856 66.5806 154.55 66.3005Z" fill="#E0BB95"/>
<defs>
<radialGradient id="paint0_radial" cx="0" cy="0" r="1" gradientUnits="userSpaceOnUse" gradientTransform="translate(51.6855 30.4674) rotate(-173.016) scale(9.52094)">
<stop stop-color="#9B643D"/>
<stop offset="1" stop-color="#BF8F68"/>
</radialGradient>
<radialGradient id="paint1_radial" cx="0" cy="0" r="1" gradientUnits="userSpaceOnUse" gradientTransform="translate(74.6425 49.6093) rotate(-2.95797) scale(9.94752 7.50197)">
<stop stop-color="#9B643D"/>
<stop offset="1" stop-color="#BF8F68" stop-opacity="0"/>
</radialGradient>
<radialGradient id="paint2_radial" cx="0" cy="0" r="1" gradientUnits="userSpaceOnUse" gradientTransform="translate(52.6377 161.814) scale(47.9629)">
<stop stop-color="#8A6EBF"/>
<stop offset="0.1263" stop-color="#907AC5"/>
<stop offset="0.4559" stop-color="#9C93D2"/>
<stop offset="0.7566" stop-color="#A3A2D9"/>
<stop offset="1" stop-color="#A6A7DC"/>
</radialGradient>
</defs>
</svg>
