<svg width="187" height="202" viewBox="0 0 187 202" fill="none" xmlns="http://www.w3.org/2000/svg">
<path d="M107.2 20.6633L136.177 14.3347C137.613 14.0318 139.11 14.3091 140.343 15.106C141.575 15.903 142.443 17.1549 142.756 18.5888L147.898 42.1338L113.528 49.6402L107.2 20.6633Z" fill="#C3C3E1"/>
<path d="M147.936 42.1203L113.527 49.6353L119.856 78.6122L154.265 71.0973L147.936 42.1203Z" fill="#8B8CC4"/>
<path d="M154.264 71.1023L119.855 78.6172L126.184 107.594L160.593 100.079L154.264 71.1023Z" fill="#B3AFAB"/>
<path d="M160.59 100.075L126.181 107.589L132.509 136.566L166.918 129.051L160.59 100.075Z" fill="#FFD590"/>
<path d="M132.515 136.601L166.924 129.086L172.066 152.631C172.222 153.344 172.236 154.081 172.107 154.8C171.977 155.519 171.708 156.205 171.314 156.819C170.92 157.434 170.408 157.965 169.809 158.382C169.209 158.799 168.534 159.093 167.82 159.249L138.843 165.578L132.515 136.601Z" fill="#F7B548"/>
<path d="M66.3665 49.4961L74.5965 17.6161C74.8703 16.5435 74.7084 15.4061 74.1463 14.4524C73.5842 13.4987 72.6675 12.8062 71.5965 12.5261L64.7765 10.7761C63.7037 10.4996 62.565 10.6602 61.6106 11.2227C60.6562 11.7853 59.9642 12.7037 59.6865 13.7761L54.9765 32.0261L51.4565 45.6561" stroke="#8B8CC4" stroke-width="4.18" stroke-miterlimit="10" stroke-linecap="round"/>
<path d="M11.2203 41.4295L120.827 17.4913L152.512 162.572L42.9059 186.51C41.9463 186.711 40.946 186.525 40.1236 185.991C39.3012 185.457 38.7235 184.619 38.5169 183.661L8.41662 45.8392C8.20667 44.8779 8.3872 43.8726 8.91848 43.0444C9.44976 42.2162 10.2883 41.633 11.2496 41.423L11.2203 41.4295Z" fill="#E1DFDD"/>
<path d="M35.7179 36.0813L29.4946 37.4405L61.1803 182.521L67.4036 181.162L35.7179 36.0813Z" fill="#FAF9F8"/>
<path d="M24.522 63.0805L2.2568 67.9433C1.01041 68.2155 0.220673 69.4466 0.492887 70.693L0.618777 71.2694C0.890992 72.5158 2.12207 73.3055 3.36847 73.0333L25.6336 68.1706C26.88 67.8983 27.6698 66.6673 27.3976 65.4209L27.2717 64.8444C26.9995 63.598 25.7684 62.8083 24.522 63.0805Z" fill="#797673"/>
<path d="M24.7865 70.5562C27.4706 70.5562 29.6465 68.3803 29.6465 65.6962C29.6465 63.0121 27.4706 60.8362 24.7865 60.8362C22.1024 60.8362 19.9265 63.0121 19.9265 65.6962C19.9265 68.3803 22.1024 70.5562 24.7865 70.5562Z" fill="#797673"/>
<path d="M31.0557 93.0082L8.79049 97.8709C7.5441 98.1432 6.75437 99.3742 7.02658 100.621L7.15247 101.197C7.42468 102.443 8.65576 103.233 9.90216 102.961L32.1673 98.0982C33.4137 97.826 34.2035 96.5949 33.9312 95.3485L33.8054 94.7721C33.5331 93.5257 32.3021 92.736 31.0557 93.0082Z" fill="#797673"/>
<path d="M31.3165 100.476C34.0006 100.476 36.1765 98.3003 36.1765 95.6162C36.1765 92.9321 34.0006 90.7562 31.3165 90.7562C28.6324 90.7562 26.4565 92.9321 26.4565 95.6162C26.4565 98.3003 28.6324 100.476 31.3165 100.476Z" fill="#797673"/>
<path d="M37.5891 122.924L15.3239 127.786C14.0775 128.059 13.2878 129.29 13.56 130.536L13.6859 131.113C13.9581 132.359 15.1892 133.149 16.4356 132.876L38.7008 128.014C39.9472 127.742 40.7369 126.51 40.4647 125.264L40.3388 124.688C40.0666 123.441 38.8355 122.652 37.5891 122.924Z" fill="#797673"/>
<path d="M37.8565 130.386C40.5406 130.386 42.7165 128.21 42.7165 125.526C42.7165 122.842 40.5406 120.666 37.8565 120.666C35.1724 120.666 32.9965 122.842 32.9965 125.526C32.9965 128.21 35.1724 130.386 37.8565 130.386Z" fill="#797673"/>
<path d="M44.1228 152.851L21.8576 157.714C20.6112 157.986 19.8215 159.217 20.0937 160.464L20.2196 161.04C20.4918 162.287 21.7229 163.076 22.9693 162.804L45.2345 157.941C46.4809 157.669 47.2706 156.438 46.9984 155.192L46.8725 154.615C46.6003 153.369 45.3692 152.579 44.1228 152.851Z" fill="#797673"/>
<path d="M44.3965 160.306C47.0806 160.306 49.2565 158.13 49.2565 155.446C49.2565 152.762 47.0806 150.586 44.3965 150.586C41.7124 150.586 39.5365 152.762 39.5365 155.446C39.5365 158.13 41.7124 160.306 44.3965 160.306Z" fill="#797673"/>
<path d="M51.1853 107.909L53.3342 99.5819C53.5426 98.7744 53.0569 97.9509 52.2494 97.7425L51.8814 97.6476C51.0739 97.4392 50.2504 97.9249 50.042 98.7323L47.8931 107.06C47.6847 107.867 48.1704 108.691 48.9779 108.899L49.3459 108.994C50.1534 109.202 50.9769 108.717 51.1853 107.909Z" fill="#8B8CC4"/>
<path d="M52.5765 105.416L61.5765 89.3762L47.7665 85.8162L47.8765 104.206L52.5765 105.416Z" fill="#C8C6C4"/>
<path d="M82.5258 10.4614L61.5365 91.7968C61.4377 92.1794 61.191 92.5071 60.8506 92.7079C60.5102 92.9086 60.104 92.9659 59.7214 92.8672L47.6954 89.7638C47.5059 89.7149 47.3279 89.6292 47.1716 89.5115C47.0153 89.3938 46.8837 89.2465 46.7843 89.0779C46.6849 88.9094 46.6196 88.7229 46.5923 88.5292C46.565 88.3354 46.5761 88.1382 46.625 87.9487L67.6143 6.61333C67.8386 5.74403 68.2321 4.9275 68.7723 4.21042C69.3125 3.49334 69.9887 2.8898 70.7624 2.4343C71.536 1.97881 72.3919 1.68031 73.281 1.55588C74.1701 1.43144 75.075 1.48351 75.944 1.70912L77.6288 2.1439C79.3804 2.59866 80.8799 3.72999 81.7981 5.28947C82.7163 6.84895 82.978 8.70908 82.5258 10.4614Z" fill="#8B8CC4"/>
<path d="M82.5282 10.4603L71.3863 53.6358L56.5039 49.7953L67.6457 6.61972C68.0984 4.86575 69.2292 3.36343 70.7895 2.44324C72.3498 1.52305 74.2117 1.26038 75.9657 1.71301L77.6215 2.14029C79.3754 2.59292 80.8778 3.72377 81.7979 5.28407C82.7181 6.84436 82.9808 8.7063 82.5282 10.4603V10.4603Z" fill="#C8C6C4"/>
<path d="M79.8849 20.7237L80.8069 17.1508L65.8955 13.3027L64.9734 16.8757L79.8849 20.7237Z" fill="#8B8CC4"/>
<path d="M102.411 154.169L94.2969 152.347L92.4753 160.461L100.59 162.283L102.411 154.169Z" fill="#EAEAF3"/>
<path d="M124.106 137.64L116.027 135.825L114.213 143.904L122.291 145.718L124.106 137.64Z" fill="#EAEAF3"/>
<path d="M114.819 178.99L106.74 177.176L104.926 185.254L113.004 187.069L114.819 178.99Z" fill="#EAEAF3"/>
<path d="M183.652 151.018L101.138 132.484C99.6402 132.147 98.1531 133.089 97.8166 134.587L87.9322 178.59C87.5957 180.088 88.5373 181.575 90.0354 181.912L172.549 200.447C174.047 200.783 175.534 199.842 175.871 198.344L185.755 154.34C186.092 152.842 185.15 151.355 183.652 151.018Z" fill="#C3C3E1"/>
<path d="M117.527 179.096C126.904 179.096 134.507 171.494 134.507 162.116C134.507 152.738 126.904 145.136 117.527 145.136C108.149 145.136 100.547 152.738 100.547 162.116C100.547 171.494 108.149 179.096 117.527 179.096Z" fill="#C3F2F4"/>
<path d="M117.527 179.096C126.904 179.096 134.507 171.494 134.507 162.116C134.507 152.738 126.904 145.136 117.527 145.136C108.149 145.136 100.547 152.738 100.547 162.116C100.547 171.494 108.149 179.096 117.527 179.096Z" fill="#FFE5B9"/>
<path d="M126.471 159.638L110.46 156.042L106.518 173.594L122.529 177.191L126.471 159.638Z" fill="#3A312E"/>
<path d="M114.726 159.706L112.726 159.266C112.324 159.175 111.973 158.929 111.752 158.58C111.531 158.231 111.457 157.809 111.546 157.406V157.406C111.637 157.003 111.884 156.653 112.233 156.432C112.581 156.211 113.003 156.137 113.406 156.226L115.406 156.676L114.726 159.706Z" fill="#BF8F68"/>
<path d="M121.136 161.136L123.136 161.576C123.335 161.622 123.542 161.628 123.743 161.594C123.944 161.56 124.137 161.486 124.31 161.378C124.482 161.269 124.632 161.127 124.75 160.96C124.868 160.794 124.952 160.605 124.996 160.406V160.406C125.042 160.207 125.048 160 125.013 159.798C124.978 159.596 124.904 159.403 124.794 159.23C124.685 159.057 124.542 158.908 124.374 158.79C124.206 158.673 124.017 158.59 123.816 158.546L121.816 158.096L121.136 161.136Z" fill="#BF8F68"/>
<path d="M123.916 162.672C124.054 162.097 123.726 161.525 123.184 161.395C122.642 161.265 122.09 161.625 121.952 162.2C121.814 162.774 122.142 163.346 122.684 163.476C123.226 163.606 123.778 163.246 123.916 162.672Z" fill="#F8C954"/>
<path d="M113.486 160.339C113.624 159.764 113.297 159.193 112.754 159.063C112.212 158.932 111.66 159.292 111.522 159.867C111.384 160.442 111.712 161.013 112.254 161.143C112.797 161.274 113.348 160.913 113.486 160.339Z" fill="#F8C954"/>
<path d="M126.526 159.496C125.276 165.066 120.686 168.786 116.256 167.796C111.826 166.806 109.256 161.476 110.516 155.906C111.776 150.336 116.226 147.146 120.666 148.136C125.106 149.126 127.776 153.936 126.526 159.496Z" fill="#3A312E"/>
<path d="M118.876 166.256L119.806 162.256L115.806 161.366L114.916 165.366C114.686 166.256 114.536 166.546 113.476 166.786C112.166 167.076 114.206 169.046 116.036 169.456C117.866 169.866 120.696 168.816 119.796 168.256C118.896 167.696 118.546 167.326 118.876 166.256Z" fill="#BF8F68"/>
<path d="M124.397 172.696C124.349 172.609 124.296 172.526 124.237 172.446C123.007 170.016 120.237 167.936 116.607 167.136C112.607 166.246 108.857 167.136 106.797 169.246C106.037 169.876 104.957 170.816 103.737 172.006C106.211 175.461 109.893 177.86 114.052 178.729C118.212 179.598 122.546 178.872 126.197 176.696C125.668 175.332 125.068 173.996 124.397 172.696Z" fill="#8B8CC7"/>
<path d="M115.703 161.86L114.344 167.909L118.335 168.806L119.693 162.756L115.703 161.86Z" fill="url(#paint0_radial)"/>
<path d="M121.37 158.055C121.479 157.604 121.353 157.187 121.09 157.124C120.827 157.06 120.526 157.375 120.418 157.826C120.309 158.277 120.435 158.694 120.698 158.757C120.961 158.82 121.262 158.506 121.37 158.055Z" fill="#3A312E"/>
<path d="M119.656 154.196L119.076 156.256C118.832 157.098 118.274 157.814 117.516 158.256C117.354 158.38 117.236 158.553 117.182 158.75C117.128 158.947 117.14 159.157 117.216 159.346C117.316 159.546 117.896 160.116 117.786 160.596L117.306 162.496L113.386 161.646L115.496 153.166L119.656 154.196Z" fill="url(#paint1_radial)"/>
<path d="M117.006 161.166C117.166 161.229 117.335 161.266 117.506 161.276H118.036H118.536C118.698 161.273 118.858 161.239 119.006 161.176L119.066 161.126C119.103 161.111 119.143 161.11 119.18 161.123C119.217 161.136 119.247 161.162 119.266 161.196C119.266 161.196 119.266 161.196 119.266 161.266C119.263 161.427 119.198 161.58 119.086 161.696C118.978 161.8 118.857 161.891 118.726 161.966C118.485 162.09 118.217 162.152 117.946 162.146C117.683 162.151 117.423 162.082 117.196 161.946C117.064 161.884 116.948 161.793 116.854 161.681C116.761 161.569 116.694 161.437 116.656 161.296C116.652 161.276 116.652 161.255 116.657 161.234C116.661 161.214 116.669 161.194 116.682 161.177C116.694 161.16 116.71 161.146 116.728 161.136C116.746 161.125 116.766 161.118 116.786 161.116H116.876L117.006 161.166Z" fill="#9B643D"/>
<path d="M117.04 157.058C117.134 156.603 116.997 156.19 116.732 156.135C116.467 156.08 116.175 156.403 116.08 156.857C115.985 157.311 116.123 157.724 116.388 157.78C116.653 157.835 116.945 157.512 117.04 157.058Z" fill="#3A312E"/>
<path d="M123.907 159.226C123.097 162.866 120.007 165.036 117.027 164.356C114.047 163.676 112.177 160.416 113.027 156.776C113.877 153.136 116.917 150.856 119.947 151.536C122.977 152.216 124.727 155.596 123.907 159.226Z" fill="#BF8F68"/>
<path d="M117.836 149.046C117.634 149.837 117.603 150.662 117.746 151.466C117.889 152.27 118.203 153.034 118.666 153.706C119.659 154.9 120.79 155.971 122.036 156.896C122.7 157.413 123.172 158.136 123.379 158.951C123.585 159.766 123.514 160.626 123.176 161.396C123.176 161.396 126.996 155.706 123.856 151.286C121.736 148.306 117.836 149.046 117.836 149.046Z" fill="#3A312E"/>
<path d="M116.076 168.996C117.82 169.403 119.625 169.477 121.396 169.216C119.975 168.168 118.35 167.429 116.626 167.046C114.865 166.635 113.035 166.618 111.266 166.996C112.742 167.937 114.369 168.614 116.076 168.996V168.996Z" fill="#BF8F68"/>
<path d="M155.676 163.211L143.919 160.57L143.251 163.546L155.008 166.187L155.676 163.211Z" fill="#EAEAF3"/>
<path d="M170.8 174.651L142.193 168.225L141.524 171.201L170.132 177.627L170.8 174.651Z" fill="#EAEAF3"/>
<path d="M163.983 181.171L140.469 175.889L139.801 178.865L163.315 184.147L163.983 181.171Z" fill="#EAEAF3"/>
<path d="M139.942 128.993L154.772 132.324L150.983 149.194C150.789 150.057 150.427 150.874 149.917 151.598C149.407 152.322 148.76 152.938 148.012 153.411C147.264 153.885 146.431 154.206 145.559 154.357C144.686 154.509 143.793 154.487 142.93 154.293L141.251 153.916C140.388 153.722 139.571 153.36 138.847 152.85C138.124 152.34 137.507 151.693 137.034 150.945C136.561 150.197 136.239 149.364 136.088 148.491C135.936 147.619 135.958 146.726 136.152 145.862L139.942 128.993V128.993Z" fill="#8B8CC4"/>
<path d="M143.787 150.666C145.979 150.666 147.757 148.889 147.757 146.696C147.757 144.504 145.979 142.726 143.787 142.726C141.594 142.726 139.817 144.504 139.817 146.696C139.817 148.889 141.594 150.666 143.787 150.666Z" fill="#3A312E"/>
<defs>
<radialGradient id="paint0_radial" cx="0" cy="0" r="1" gradientUnits="userSpaceOnUse" gradientTransform="translate(117.975 162.984) rotate(-167.34) scale(4.577 4.4974)">
<stop stop-color="#9B643D"/>
<stop offset="0.88" stop-color="#BA8A63" stop-opacity="0.12"/>
<stop offset="1" stop-color="#BF8F68" stop-opacity="0"/>
</radialGradient>
<radialGradient id="paint1_radial" cx="0" cy="0" r="1" gradientUnits="userSpaceOnUse" gradientTransform="translate(7328.46 1260.6) rotate(-171.384) scale(16.1348 25.1946)">
<stop stop-color="#9B643D"/>
<stop offset="0.88" stop-color="#BA8A63" stop-opacity="0.12"/>
<stop offset="1" stop-color="#BF8F68" stop-opacity="0"/>
</radialGradient>
</defs>
</svg>
