<svg width="24" height="24" viewBox="0 0 24 24" fill="none" xmlns="http://www.w3.org/2000/svg">
<path d="M12 1.99902C17.5237 1.99902 22.0016 6.47687 22.0016 12.0006C22.0016 17.5243 17.5237 22.0021 12 22.0021C6.47632 22.0021 1.99847 17.5243 1.99847 12.0006C1.99847 6.47687 6.47632 1.99902 12 1.99902ZM12 3.49902C7.30475 3.49902 3.49847 7.3053 3.49847 12.0006C3.49847 16.6959 7.30475 20.5021 12 20.5021C16.6953 20.5021 20.5016 16.6959 20.5016 12.0006C20.5016 7.3053 16.6953 3.49902 12 3.49902ZM11.9964 10.4996C12.3761 10.4994 12.6901 10.7813 12.74 11.1473L12.7469 11.2491L12.7505 16.7507C12.7507 17.1649 12.4152 17.5009 12.001 17.5012C11.6213 17.5014 11.3073 17.2195 11.2574 16.8535L11.2505 16.7517L11.2469 11.2501C11.2466 10.8359 11.5822 10.4999 11.9964 10.4996ZM12.0005 7.00184C12.552 7.00184 12.9991 7.44896 12.9991 8.0005C12.9991 8.55205 12.552 8.99917 12.0005 8.99917C11.4489 8.99917 11.0018 8.55205 11.0018 8.0005C11.0018 7.44896 11.4489 7.00184 12.0005 7.00184Z" fill="#484644"/>
</svg>
