<svg width="40" height="40" viewBox="0 0 40 40" fill="none" xmlns="http://www.w3.org/2000/svg">
<path d="M0 6.4C0 4.15979 0 3.03968 0.435974 2.18404C0.819467 1.43139 1.43139 0.819467 2.18404 0.435974C3.03968 0 4.15979 0 6.4 0H33.6C35.8402 0 36.9603 0 37.816 0.435974C38.5686 0.819467 39.1805 1.43139 39.564 2.18404C40 3.03968 40 4.15979 40 6.4V33.6C40 35.8402 40 36.9603 39.564 37.816C39.1805 38.5686 38.5686 39.1805 37.816 39.564C36.9603 40 35.8402 40 33.6 40H6.4C4.15979 40 3.03968 40 2.18404 39.564C1.43139 39.1805 0.819467 38.5686 0.435974 37.816C0 36.9603 0 35.8402 0 33.6V6.4Z" fill="#F4F4FC"/>
<path d="M21.2374 11.2723C20.554 10.5889 19.446 10.5889 18.7626 11.2723L15.0512 14.9837C12.318 17.7169 12.318 22.1482 15.0512 24.8813C16.2267 26.0569 17.7164 26.7268 19.25 26.8911V29.2496C19.25 29.6638 19.5858 29.9996 20 29.9996C20.4142 29.9996 20.75 29.6638 20.75 29.2496V26.8911C22.2836 26.7268 23.7733 26.0569 24.9488 24.8813C27.682 22.1482 27.682 17.7169 24.9488 14.9837L21.2374 11.2723ZM20.75 25.3801V19.7496C20.75 19.3354 20.4142 18.9996 20 18.9996C19.5858 18.9996 19.25 19.3354 19.25 19.7496V25.3801C18.1021 25.223 16.9943 24.7031 16.1118 23.8207C13.9645 21.6733 13.9645 18.1917 16.1118 16.0444L19.8232 12.333C19.9209 12.2354 20.0791 12.2354 20.1768 12.333L23.8882 16.0444C26.0355 18.1917 26.0355 21.6733 23.8882 23.8207C23.0057 24.7031 21.8979 25.223 20.75 25.3801Z" fill="#464775"/>
</svg>
