<svg width="106" height="106" viewBox="0 0 106 106" fill="none" xmlns="http://www.w3.org/2000/svg">
<path d="M83.9839 105.153C65.7201 98.8561 47.3751 92.5403 28.9487 86.205C38.2343 64.9202 39.5116 41.8705 50.4879 20.9355C68.7694 27.2319 87.1145 33.5478 105.523 39.883C96.2375 61.1731 94.9602 84.2705 83.9839 105.153Z" fill="#C8C6C4"/>
<path d="M83.3055 95.3407L25.0903 85.859C32.2771 63.7898 28.9805 40.0087 36.1673 17.9395L94.3825 27.4265C87.1957 49.4957 90.4923 73.2715 83.3055 95.3407Z" fill="#EDEBE9"/>
<path d="M44.5087 35.2381L43.8384 39.3496L78.3573 44.9776L79.0276 40.866L44.5087 35.2381Z" fill="#CDCCCB"/>
<path d="M83.3055 95.3407L25.0903 85.859C32.2771 63.7898 28.9805 40.0087 36.1673 17.9395L94.3825 27.4265C87.1957 49.4957 90.4923 73.2715 83.3055 95.3407Z" fill="#EDEBE9"/>
<path d="M44.5087 35.2381L43.8384 39.3496L78.3573 44.9776L79.0276 40.866L44.5087 35.2381Z" fill="#CDCCCB"/>
<path d="M43.29 46.242L42.6196 50.3535L77.1385 55.9815L77.8089 51.8699L43.29 46.242Z" fill="#CDCCCB"/>
<path d="M42.3334 57.2869L41.6631 61.3984L76.182 67.0264L76.8523 62.9149L42.3334 57.2869Z" fill="#CDCCCB"/>
<path d="M41.1132 68.2947L40.4429 72.4062L65.3944 76.4743L66.0647 72.3628L41.1132 68.2947Z" fill="#CDCCCB"/>
<path d="M7.55776 79.1873C6.85891 79.1891 6.17238 79.0033 5.56975 78.6495C4.96713 78.2956 4.47047 77.7865 4.13159 77.1753C3.7927 76.5641 3.62399 75.8732 3.64306 75.1746C3.66212 74.476 3.86825 73.7954 4.23996 73.2036L19.61 48.76C19.8828 48.3253 20.2386 47.9486 20.657 47.6515C21.0754 47.3543 21.5482 47.1425 22.0485 47.0281C22.5487 46.9136 23.0667 46.8989 23.5726 46.9846C24.0786 47.0703 24.5628 47.2549 24.9974 47.5277C25.4321 47.8006 25.8087 48.1563 26.1059 48.5747C26.403 48.9931 26.6149 49.466 26.7293 49.9662C26.8437 50.4665 26.8585 50.9844 26.7728 51.4904C26.687 51.9964 26.5025 52.4805 26.2297 52.9152L10.8703 77.38C10.5157 77.9365 10.026 78.3941 9.44673 78.7101C8.86748 79.0262 8.21761 79.1903 7.55776 79.1873Z" fill="#6264A7"/>
<path d="M36.6654 53.3387C50.1594 53.3387 61.0984 42.3996 61.0984 28.9057C61.0984 15.4117 50.1594 4.47266 36.6654 4.47266C23.1714 4.47266 12.2324 15.4117 12.2324 28.9057C12.2324 42.3996 23.1714 53.3387 36.6654 53.3387Z" fill="#EDEBE9"/>
<path d="M30.2785 22.3739L28.0986 35.7441L59.3691 40.8425L61.549 27.4722L30.2785 22.3739Z" fill="#CDCCCB"/>
<path d="M36.6123 56.7358C31.6457 56.7257 26.7723 55.3864 22.498 52.857C18.2237 50.3276 14.7044 46.7002 12.3053 42.3515C9.90618 38.0027 8.7148 33.0911 8.85481 28.1264C8.99482 23.1618 10.4611 18.3251 13.1015 14.1185C17.0451 7.91672 23.2826 3.52748 30.4517 1.90933C37.6208 0.291186 45.1389 1.57563 51.3641 5.48214C57.5893 9.38865 62.0158 15.5998 63.6768 22.7591C65.3378 29.9183 64.0983 37.444 60.2291 43.6925C58.2937 46.7937 55.7627 49.4805 52.7825 51.5974C49.8022 53.7143 46.4319 55.2194 42.8663 56.0256C40.8146 56.4947 38.7169 56.7329 36.6123 56.7358ZM36.7077 7.85386C35.1134 7.85181 33.5239 8.0296 31.9695 8.38386C26.7508 9.58015 22.1874 12.7276 19.2151 17.1808C16.2428 21.6341 15.0867 27.0557 15.9839 32.334C16.8811 37.6124 19.7635 42.3476 24.0403 45.5686C28.3171 48.7897 33.6641 50.2526 38.9849 49.6575C44.3058 49.0623 49.1974 46.4541 52.6568 42.3677C56.1162 38.2813 57.8812 33.0263 57.59 27.6801C57.2987 22.334 54.9733 17.3018 51.0905 13.6153C47.2077 9.9289 42.0617 7.86752 36.7077 7.85386Z" fill="#A6A7DC"/>
<path d="M12.6157 56.9351L2.93018 72.3691L12.196 78.1838L21.8815 62.7498L12.6157 56.9351Z" fill="#EE8F94"/>
<path d="M5.51744 83.9935C4.54107 83.991 3.58314 83.7274 2.74291 83.2301C1.90268 82.7328 1.21073 82.0198 0.73877 81.1651C0.266806 80.3104 0.0320007 79.345 0.0586864 78.369C0.0853721 77.3929 0.372578 76.4418 0.890541 75.6142L7.78054 64.6538C8.16334 64.0455 8.66222 63.5185 9.24867 63.103C9.83512 62.6875 10.4977 62.3916 11.1985 62.2321C11.8993 62.0726 12.6247 62.0528 13.3332 62.1737C14.0417 62.2945 14.7194 62.5538 15.3277 62.9366C15.9361 63.3194 16.463 63.8182 16.8785 64.4047C17.294 64.9912 17.59 65.6537 17.7494 66.3545C17.9089 67.0554 17.9287 67.7807 17.8079 68.4892C17.687 69.1977 17.4277 69.8755 17.0449 70.4838L10.1549 81.4389C9.66178 82.2228 8.97746 82.8685 8.16626 83.3154C7.35505 83.7622 6.44358 83.9956 5.51744 83.9935Z" fill="#EE8F94"/>
</svg>
