<svg width="96" height="96" viewBox="0 0 96 96" fill="none" xmlns="http://www.w3.org/2000/svg">
<circle opacity="0.8" cx="48" cy="48" r="48" fill="#242424"/>
<path d="M48 0C74.5097 0 96 21.4903 96 48C96 74.5097 74.5097 96 48 96C21.4903 96 0 74.5097 0 48C0 21.4903 21.4903 0 48 0ZM48 7.2C25.4668 7.2 7.2 25.4668 7.2 48C7.2 70.5332 25.4668 88.8 48 88.8C70.5332 88.8 88.8 70.5332 88.8 48C88.8 25.4668 70.5332 7.2 48 7.2ZM33.8534 31.61C34.3803 30.5561 35.5779 30.0594 36.6702 30.3783L37.0733 30.5367L67.7068 45.8534C68.1712 46.0856 68.5478 46.4622 68.7801 46.9267C69.307 47.9805 68.9858 49.2367 68.0753 49.9191L67.7068 50.1466L37.0733 65.4633C36.7401 65.63 36.3726 65.7167 36 65.7167C34.8218 65.7167 33.8419 64.8677 33.6387 63.7481L33.6 63.3167V32.6833C33.6 32.3107 33.6868 31.9432 33.8534 31.61Z" fill="white"/>
</svg>
