<svg width="20" height="20" viewBox="0 0 20 20" fill="none" xmlns="http://www.w3.org/2000/svg">
<path d="M6.98724 2.06589L6.27055 2.28192C4.96702 2.67484 4.00963 3.78801 3.81616 5.13565C3.51919 7.20438 4.18342 9.62242 5.78387 12.3945C7.38095 15.1607 9.13885 16.9433 11.0741 17.7231C12.3437 18.2346 13.795 17.9592 14.7888 17.018L15.3316 16.5039C16.0591 15.815 16.1645 14.694 15.5783 13.8815L14.2217 12.0014C13.846 11.4807 13.1807 11.2569 12.5667 11.4446L10.516 12.0716L10.463 12.082C10.2368 12.115 9.71559 11.6259 9.06545 10.4999C8.38531 9.32181 8.24435 8.63298 8.43212 8.45541L9.47548 7.48248C10.2574 6.75332 10.4884 5.60728 10.0501 4.63213L9.3886 3.16075C8.9767 2.24451 7.94906 1.77597 6.98724 2.06589ZM8.47652 3.57077L9.13797 5.04215C9.40081 5.62682 9.2623 6.31395 8.79348 6.75113L7.74758 7.72645C7.07848 8.35918 7.3001 9.44218 8.19943 10.9999C9.04563 12.4655 9.81762 13.1898 10.6471 13.0642L10.7715 13.0376L12.8591 12.4009C13.0637 12.3383 13.2855 12.413 13.4107 12.5865L14.7673 14.4666C15.0605 14.8729 15.0077 15.4334 14.644 15.7778L14.1012 16.2919C13.3913 16.9642 12.3547 17.1609 11.4478 16.7955C9.74975 16.1113 8.14494 14.484 6.64989 11.8945C5.15179 9.29969 4.54549 7.09254 4.80601 5.27775C4.9442 4.31515 5.62806 3.52003 6.55915 3.23937L7.27584 3.02334C7.75675 2.87838 8.27057 3.11265 8.47652 3.57077Z" fill="#424242"/>
</svg>
