<svg id="Layer_1" data-name="Layer 1" xmlns="http://www.w3.org/2000/svg" viewBox="0 0 24 24"><defs><style>.cls-1{fill:#616161;}</style></defs><path class="cls-1" d="M9.5,10.12A1.88,1.88,0,1,1,7.62,8.25,1.88,1.88,0,0,1,9.5,10.12Zm-5,4a1.18,1.18,0,0,1,1.19-1.18H9.56a1.18,1.18,0,0,1,1.19,1.18A2.3,2.3,0,0,1,9,16.36l-.07,0a5.49,5.49,0,0,1-2.61,0l-.07,0A2.3,2.3,0,0,1,4.5,14.12ZM13.88,9.5a.63.63,0,1,0,0,1.25h3.74a.63.63,0,1,0,0-1.25Zm0,3.75a.63.63,0,1,0,0,1.25h3.74a.63.63,0,1,0,0-1.25ZM2,6.69A2.19,2.19,0,0,1,4.19,4.5H19.81A2.19,2.19,0,0,1,22,6.69V17.31a2.19,2.19,0,0,1-2.19,2.19H4.19A2.19,2.19,0,0,1,2,17.31Zm2.19-.94a.94.94,0,0,0-.94.94V17.31a.94.94,0,0,0,.94.94H19.81a.94.94,0,0,0,.94-.94V6.69a.94.94,0,0,0-.94-.94Z"/></svg>