<svg id="Layer_1" data-name="Layer 1" xmlns="http://www.w3.org/2000/svg" viewBox="0 0 24 24"><defs><style>.cls-1{fill:#fff;}</style></defs><path class="cls-1" d="M2.75,17.25h12.5A.76.76,0,0,1,16,18a.75.75,0,0,1-.65.74H2.75A.76.76,0,0,1,2,18a.75.75,0,0,1,.65-.74Zm0-4h18.5A.76.76,0,0,1,22,14a.75.75,0,0,1-.65.74H2.75A.76.76,0,0,1,2,14a.75.75,0,0,1,.65-.74Zm0-4h18.5A.76.76,0,0,1,22,10a.75.75,0,0,1-.65.74H2.75A.76.76,0,0,1,2,10a.75.75,0,0,1,.65-.74Zm0-4h18.5A.76.76,0,0,1,22,6a.75.75,0,0,1-.65.74H2.75A.76.76,0,0,1,2,6a.75.75,0,0,1,.65-.74Z"/></svg>