<svg width="16" height="16" viewBox="0 0 16 16" fill="none" xmlns="http://www.w3.org/2000/svg">
<path d="M11.245 0.817547C12.3318 -0.26926 14.0938 -0.26926 15.1806 0.817547C16.2222 1.85907 16.2656 3.52075 15.3108 4.61395L15.1806 4.75322L5.57482 14.359C5.36973 14.5641 5.12299 14.7217 4.85212 14.8215L4.68684 14.8744L0.631867 15.9803C0.285278 16.0748 -0.0347856 15.7862 0.00276241 15.4457L0.0179263 15.3663L1.12383 11.3113C1.20014 11.0315 1.33621 10.7723 1.52188 10.5513L1.63914 10.4234L11.245 0.817547ZM10.3848 3.09244L2.34625 11.1305C2.25396 11.2228 2.18093 11.3319 2.13086 11.4516L2.08859 11.5745L1.21196 14.7852L4.42372 13.9096C4.50767 13.8867 4.5879 13.853 4.66253 13.8097L4.77003 13.7377L4.86771 13.6519L12.9058 5.61344L10.3848 3.09244ZM14.4735 1.52465C13.8159 0.867053 12.7725 0.83052 12.072 1.41505L11.9521 1.52465L11.0918 2.38544L13.6128 4.90644L14.4735 4.04612C15.1311 3.38852 15.1677 2.34503 14.5831 1.64456L14.4735 1.52465Z" fill="white"/>
</svg>
