<svg width="12" height="16" viewBox="0 0 12 16" fill="none" xmlns="http://www.w3.org/2000/svg">
<path d="M6.16417 3.1017C6.10162 2.9661 5.90889 2.9661 5.84635 3.1017L5.12999 4.65476C5.1045 4.71002 5.05213 4.74807 4.99169 4.75524L3.29328 4.95661C3.14499 4.9742 3.08543 5.15749 3.19507 5.25888L4.45074 6.42009C4.49543 6.46141 4.51543 6.52298 4.50357 6.58268L4.17025 8.26019C4.14115 8.40666 4.29707 8.51994 4.42737 8.447L5.91978 7.61161C5.97289 7.58189 6.03763 7.58189 6.09073 7.61161L7.58314 8.447C7.71345 8.51994 7.86936 8.40666 7.84026 8.26019L7.50694 6.58268C7.49508 6.52298 7.51509 6.46141 7.55977 6.42009L8.81544 5.25888C8.92508 5.15749 8.86553 4.9742 8.71723 4.95661L7.01883 4.75524C6.95839 4.74807 6.90601 4.71002 6.88052 4.65476L6.16417 3.1017ZM12 6C12 7.777 11.2275 9.37357 10 10.4722V15.5002C10 15.6784 9.90512 15.8432 9.75096 15.9327C9.59681 16.0221 9.40668 16.0227 9.25193 15.9343L6 14.0761L2.74807 15.9343C2.59332 16.0227 2.40319 16.0221 2.24904 15.9327C2.09488 15.8432 2 15.6784 2 15.5002V10.4722C0.772501 9.37357 0 7.777 0 6C0 2.68629 2.68629 0 6 0C9.31371 0 12 2.68629 12 6ZM6 12C4.90714 12 3.88252 11.7078 3 11.1973V14.6386L5.75193 13.0661C5.90565 12.9782 6.09435 12.9782 6.24807 13.0661L9 14.6386V11.1973C8.11748 11.7078 7.09286 12 6 12ZM6 11C8.76142 11 11 8.76142 11 6C11 3.23858 8.76142 1 6 1C3.23858 1 1 3.23858 1 6C1 8.76142 3.23858 11 6 11Z" fill="#242424"/>
</svg>
