<svg width="411" height="264" viewBox="0 0 411 264" fill="none" xmlns="http://www.w3.org/2000/svg">
<path d="M254.523 78.7556C254.523 78.7556 256.374 81.3702 262.211 81.3597C266.66 81.3519 267.934 78.5646 272.423 78.2191C276.701 77.8898 278.745 79.4873 280.756 81.0089V65.8108C278.745 64.2893 276.701 62.6916 272.423 63.021C267.934 63.3664 266.66 66.1538 262.211 66.1616C256.375 66.172 254.523 63.5575 254.523 63.5575V78.7556Z" fill="#C3C3E1"/>
<path d="M367.913 298.523L393.506 265.274L284.28 88.2052C281.676 84.8027 276.384 83.751 273.041 88.2052L103.974 305.652L367.913 298.523Z" fill="url(#paint0_linear)"/>
<path d="M59.6184 282.068L182.341 123.956C185.403 119.796 190.149 119.446 193.58 123.956L332.787 305.652L59.6184 282.068Z" fill="#F3F2F1"/>
<path d="M384.959 252.736H381.657V277.55H384.959V252.736Z" fill="#B3AFAB"/>
<path d="M384.555 178.418L361.162 253.3H405.453C405.453 253.3 384.555 179.136 384.555 178.418Z" fill="#C8C6C4"/>
<path d="M31.6815 250.44H29.1335V269.588H31.6815V250.44Z" fill="#B3AFAB"/>
<path d="M60.1024 240.226H57.5544V269.588H60.1024V240.226Z" fill="#B3AFAB"/>
<path d="M86.8909 247.674L57.5018 157.341L33.3145 247.784L86.8909 247.674Z" fill="#B3AFAB"/>
<path d="M31.3714 194.956L9.19214 252.739H51.6247C51.6247 252.739 31.3733 195.403 31.3714 194.956Z" fill="#C8C6C4"/>
<path d="M196.894 213.796C196.894 200.929 186.463 190.499 173.596 190.499C160.729 190.499 150.299 200.929 150.299 213.796C150.299 218.768 151.861 223.373 154.515 227.156H154.514L173.596 254.592L192.678 227.156H192.677C195.331 223.373 196.894 218.768 196.894 213.796Z" fill="#E3646A"/>
<path d="M173.596 223.98C179.221 223.98 183.78 219.42 183.78 213.796C183.78 208.172 179.221 203.612 173.596 203.612C167.972 203.612 163.412 208.172 163.412 213.796C163.412 219.42 167.972 223.98 173.596 223.98Z" fill="#605D5A"/>
<path d="M245.762 167.069C245.762 157.047 237.637 148.921 227.614 148.921C217.591 148.921 209.466 157.046 209.466 167.069C209.466 170.944 210.691 174.528 212.76 177.476H212.75L227.614 198.847L242.478 177.476H242.468C244.537 174.528 245.762 170.944 245.762 167.069Z" fill="#EE8F94"/>
<path d="M227.614 175.764C232.416 175.764 236.308 171.871 236.308 167.069C236.308 162.267 232.416 158.375 227.614 158.375C222.812 158.375 218.92 162.267 218.92 167.069C218.92 171.871 222.812 175.764 227.614 175.764Z" fill="#605D5A"/>
<path d="M110.692 72.1685C107.551 72.1685 105.005 69.6223 105.005 66.4815V60.92H116.379V66.4815C116.379 69.6222 113.833 72.1685 110.692 72.1685Z" fill="#E1DFDD"/>
<path d="M116.377 49.3043H105.006L93.9624 28.1071C87.4198 15.549 96.5313 0.527954 110.692 0.527954H110.692C124.852 0.527954 133.963 15.549 127.421 28.1071L116.377 49.3043Z" fill="#E1DFDD"/>
<path d="M277.61 95.4663C277.61 95.4663 262.534 126.592 275.622 155.107C283.114 171.432 309.128 203.707 292.335 234.845C278.162 261.125 194.906 250.174 194.906 250.174" stroke="#C3C3E1" stroke-width="4.29757" stroke-miterlimit="10" stroke-linecap="round" stroke-dasharray="10.03 10.03"/>
<defs>
<linearGradient id="paint0_linear" x1="242.949" y1="249.417" x2="312.878" y2="198.647" gradientUnits="userSpaceOnUse">
<stop stop-color="#C8C6C4"/>
<stop offset="0.0721" stop-color="#CECCCA"/>
<stop offset="0.3971" stop-color="#E2E1DF"/>
<stop offset="0.7112" stop-color="#EFEEED"/>
<stop offset="1" stop-color="#F3F2F1"/>
</linearGradient>
</defs>
</svg>
