<svg width="417" height="241" viewBox="0 0 417 241" fill="none" xmlns="http://www.w3.org/2000/svg">
<path d="M365.169 125.398C365.002 125.534 364.775 125.567 364.578 125.484C363.843 125.174 362.112 124.614 362.102 125.113C362.092 125.658 362.368 126.068 365.035 127.369C365.118 127.41 365.169 125.398 365.169 125.398Z" fill="#E0BB95"/>
<path d="M355.111 206.495H62.796C58.9898 206.495 55.9033 203.415 55.9033 199.616V12.5922C55.9033 8.79332 58.9898 5.71289 62.796 5.71289H355.111C358.918 5.71289 362.004 8.79332 362.004 12.5922V199.616C362.007 203.415 358.92 206.495 355.111 206.495Z" fill="#E1DFDD"/>
<path d="M203.954 29.2949H55.7061V129.235H203.954V29.2949Z" fill="#FDFFFE"/>
<rect x="60.6177" y="29.1289" width="18.0789" height="99.9658" fill="#6264A7"/>
<path d="M362.193 136.73H55.7061V197.29H362.193V136.73Z" fill="#FDFFFE"/>
<path d="M128.935 12.1133H65.6812C63.472 12.1133 61.6812 13.9041 61.6812 16.1133V16.621C61.6812 18.8301 63.472 20.621 65.6812 20.621H128.935C131.144 20.621 132.935 18.8301 132.935 16.621V16.1133C132.935 13.9041 131.144 12.1133 128.935 12.1133Z" fill="#B3AFAB"/>
<path d="M189.297 40.8281H93.5849C91.2356 40.8281 89.3311 42.7326 89.3311 45.082C89.3311 47.4313 91.2356 49.3358 93.5849 49.3358H189.297C191.646 49.3358 193.551 47.4313 193.551 45.082C193.551 42.7326 191.646 40.8281 189.297 40.8281Z" fill="#E1DFDD"/>
<path d="M189.297 57.8438H93.5849C91.2356 57.8438 89.3311 59.7483 89.3311 62.0976C89.3311 64.447 91.2356 66.3515 93.5849 66.3515H189.297C191.646 66.3515 193.551 64.447 193.551 62.0976C193.551 59.7483 191.646 57.8438 189.297 57.8438Z" fill="#E1DFDD"/>
<path d="M189.297 74.8594H93.5849C91.2356 74.8594 89.3311 76.7639 89.3311 79.1132C89.3311 81.4626 91.2356 83.3671 93.5849 83.3671H189.297C191.646 83.3671 193.551 81.4626 193.551 79.1132C193.551 76.7639 191.646 74.8594 189.297 74.8594Z" fill="#E1DFDD"/>
<path d="M189.297 91.875H93.5849C91.2356 91.875 89.3311 93.7795 89.3311 96.1289C89.3311 98.4782 91.2356 100.383 93.5849 100.383H189.297C191.646 100.383 193.551 98.4782 193.551 96.1289C193.551 93.7795 191.646 91.875 189.297 91.875Z" fill="#E1DFDD"/>
<path d="M355.413 28.7651L216.095 28.9389C214.991 28.9403 214.096 29.8368 214.098 30.9414L214.219 127.376C214.22 128.481 215.116 129.375 216.221 129.374L355.539 129.2C356.643 129.199 357.537 128.302 357.536 127.197L357.415 30.7626C357.414 29.658 356.517 28.7637 355.413 28.7651Z" fill="white"/>
<g opacity="0.45">
<path d="M308.277 94.18H341.249C345.507 94.18 348.974 90.7083 348.974 86.4442V53.4253C348.974 49.1612 345.507 45.6895 341.249 45.6895H308.277C304.019 45.6895 300.553 49.1612 300.553 53.4253V86.4442C300.553 90.7083 304.019 94.18 308.277 94.18Z" fill="#E1DFDD"/>
<path d="M228.769 108.973H261.74C266.036 108.973 269.503 105.501 269.465 101.2V68.1806C269.465 63.9165 265.998 60.4448 261.74 60.4448H228.769C224.511 60.4448 221.044 63.9165 221.044 68.2184V101.2C221.044 105.501 224.511 108.973 228.769 108.973Z" fill="#E1DFDD"/>
</g>
<path d="M237.492 110.783V45.16C237.492 43.9147 238.359 42.9336 239.452 42.9336H321.334C322.427 42.9336 323.294 43.9147 323.294 45.16V110.745C323.294 112.368 322.126 113.688 320.656 113.688H240.092C238.66 113.726 237.492 112.405 237.492 110.783Z" fill="#E1DFDD"/>
<path d="M323.331 54.2179H237.492V44.8594C237.492 43.8028 238.359 42.9727 239.376 42.9727H321.447C322.502 42.9727 323.331 43.8406 323.331 44.8594V54.2179Z" fill="#8D308D"/>
<path d="M319.563 57.9922H284.708V109.049H319.563V57.9922Z" fill="white"/>
<path d="M294.844 95.6144C298.528 95.6144 301.514 92.624 301.514 88.9351C301.514 85.2463 298.528 82.2559 294.844 82.2559C291.16 82.2559 288.174 85.2463 288.174 88.9351C288.174 92.624 291.16 95.6144 294.844 95.6144Z" fill="#E1DFDD"/>
<path d="M297.821 93.5V94.9717C296.238 95.7265 294.354 95.9151 292.583 95.2359C292.357 95.1604 292.131 95.0472 291.942 94.9717V93.5C291.942 91.8774 293.261 90.5566 294.882 90.5566C295.673 90.5566 296.427 90.8963 296.954 91.4246C297.482 91.9151 297.821 92.6699 297.821 93.5Z" fill="#B3AFAB"/>
<path d="M294.882 89.8389C296.13 89.8389 297.142 88.8252 297.142 87.5747C297.142 86.3242 296.13 85.3105 294.882 85.3105C293.633 85.3105 292.621 86.3242 292.621 87.5747C292.621 88.8252 293.633 89.8389 294.882 89.8389Z" fill="#B3AFAB"/>
<path d="M294.844 74.4444C298.528 74.4444 301.514 71.454 301.514 67.7652C301.514 64.0763 298.528 61.0859 294.844 61.0859C291.16 61.0859 288.174 64.0763 288.174 67.7652C288.174 71.454 291.16 74.4444 294.844 74.4444Z" fill="#E1DFDD"/>
<path d="M297.821 72.293V73.7647C296.238 74.5194 294.354 74.7081 292.583 74.0289C292.357 73.9534 292.131 73.8402 291.942 73.7647V72.293C291.942 70.6704 293.261 69.3496 294.882 69.3496C295.673 69.3496 296.427 69.6892 296.954 70.2175C297.482 70.7458 297.821 71.4628 297.821 72.293Z" fill="#B3AFAB"/>
<path d="M294.882 68.6318C296.13 68.6318 297.142 67.6181 297.142 66.3677C297.142 65.1172 296.13 64.1035 294.882 64.1035C293.633 64.1035 292.621 65.1172 292.621 66.3677C292.621 67.6181 293.633 68.6318 294.882 68.6318Z" fill="#B3AFAB"/>
<path d="M315.041 66.8966H305.357C304.83 66.8966 304.415 66.4815 304.415 65.9532C304.415 65.4249 304.83 65.0098 305.357 65.0098H315.041C315.569 65.0098 315.983 65.4249 315.983 65.9532C315.983 66.4815 315.569 66.8966 315.041 66.8966Z" fill="#E1DFDD"/>
<path d="M310.972 71.2364H305.357C304.83 71.2364 304.415 70.8213 304.415 70.293C304.415 69.7647 304.83 69.3496 305.357 69.3496H310.972C311.499 69.3496 311.914 69.7647 311.914 70.293C311.914 70.8213 311.499 71.2364 310.972 71.2364Z" fill="#E1DFDD"/>
<path d="M315.041 86.3302H305.357C304.83 86.3302 304.415 85.9151 304.415 85.3868C304.415 84.8585 304.83 84.4434 305.357 84.4434H315.041C315.569 84.4434 315.983 84.8585 315.983 85.3868C315.983 85.9151 315.569 86.3302 315.041 86.3302Z" fill="#E1DFDD"/>
<path d="M310.972 90.67H305.357C304.83 90.67 304.415 90.2549 304.415 89.7266C304.415 89.1983 304.83 88.7832 305.357 88.7832H310.972C311.499 88.7832 311.914 89.1983 311.914 89.7266C311.914 90.2549 311.499 90.67 310.972 90.67Z" fill="#E1DFDD"/>
<path opacity="0.45" d="M315.87 79.3864H289.644C289.229 79.3864 288.89 79.0468 288.89 78.6317C288.89 78.2166 289.229 77.877 289.644 77.877H315.87C316.285 77.877 316.624 78.2166 316.624 78.6317C316.624 79.0468 316.285 79.3864 315.87 79.3864Z" fill="#E1DFDD"/>
<path d="M279.959 57.9922H242.654V109.049H279.959V57.9922Z" fill="white"/>
<path opacity="0.45" d="M274.42 93.1227H248.194C247.779 93.1227 247.44 92.7831 247.44 92.368C247.44 91.9529 247.779 91.6133 248.194 91.6133H274.42C274.835 91.6133 275.174 91.9529 275.174 92.368C275.174 92.7831 274.835 93.1227 274.42 93.1227Z" fill="#E1DFDD"/>
<path opacity="0.45" d="M274.42 101.953H248.194C247.779 101.953 247.44 101.613 247.44 101.198C247.44 100.783 247.779 100.443 248.194 100.443H274.42C274.835 100.443 275.174 100.783 275.174 101.198C275.174 101.613 274.835 101.953 274.42 101.953Z" fill="#E1DFDD"/>
<path d="M310.557 105.499H290.247C289.493 105.499 288.89 104.895 288.89 104.141V101.726C288.89 100.971 289.493 100.367 290.247 100.367H310.557C311.311 100.367 311.914 100.971 311.914 101.726V104.141C311.914 104.895 311.311 105.499 310.557 105.499Z" fill="#E1DFDD"/>
<path opacity="0.45" d="M257.237 82.1031C262.648 82.1031 267.035 77.7104 267.035 72.2918C267.035 66.8732 262.648 62.4805 257.237 62.4805C251.826 62.4805 247.44 66.8732 247.44 72.2918C247.44 77.7104 251.826 82.1031 257.237 82.1031Z" fill="#E1DFDD"/>
<path d="M264.51 69.3867H275.174L269.823 78.632L264.51 87.8773L259.159 78.632L253.808 69.3867H264.51Z" fill="#E1DFDD"/>
<path opacity="0.45" d="M274.42 93.1227H248.194C247.779 93.1227 247.44 92.7831 247.44 92.368C247.44 91.9529 247.779 91.6133 248.194 91.6133H274.42C274.835 91.6133 275.174 91.9529 275.174 92.368C275.174 92.7831 274.835 93.1227 274.42 93.1227Z" fill="#E1DFDD"/>
<path opacity="0.45" d="M274.42 101.953H248.194C247.779 101.953 247.44 101.613 247.44 101.198C247.44 100.783 247.779 100.443 248.194 100.443H274.42C274.835 100.443 275.174 100.783 275.174 101.198C275.174 101.613 274.835 101.953 274.42 101.953Z" fill="#E1DFDD"/>
<path d="M355.111 211.357H62.7956C56.3095 211.357 51.0308 206.091 51.0308 199.615V12.5915C51.0308 6.1181 56.307 0.849609 62.7956 0.849609H355.111C361.597 0.849609 366.876 6.1181 366.876 12.5915V199.615C366.876 206.089 361.6 211.357 355.111 211.357ZM62.7956 10.5749C61.6818 10.5749 60.775 11.4799 60.775 12.5915V199.615C60.775 200.727 61.6818 201.632 62.7956 201.632H355.111C356.225 201.632 357.132 200.727 357.132 199.615V12.5915C357.132 11.4799 356.225 10.5749 355.111 10.5749H62.7956Z" fill="#E1DFDD"/>
<path d="M345.626 183.459V147.047C345.626 145.942 344.731 145.047 343.626 145.047H294.453C293.349 145.047 292.453 145.942 292.453 147.047V183.459C292.453 184.563 293.349 185.459 294.453 185.459H343.626C344.731 185.459 345.626 184.563 345.626 183.459Z" fill="#E6F0FF"/>
<g clip-path="url(#clip0)">
<g clip-path="url(#clip1)">
<path fill-rule="evenodd" clip-rule="evenodd" d="M306.696 158.006L313.1 164.992L306.696 171.979C305.814 172.941 306.497 174.492 307.802 174.492H321.339C321.759 174.492 322.16 174.316 322.444 174.006L329.778 166.006C330.303 165.432 330.303 164.552 329.778 163.979L322.444 155.979C322.16 155.669 321.759 155.492 321.339 155.492H307.802C306.497 155.492 305.814 157.044 306.696 158.006ZM307.433 157.33C307.139 157.009 307.367 156.492 307.802 156.492H320.744L313.775 164.248L307.433 157.33ZM314.15 165.326L321.826 156.784L325.293 160.567L313.804 173.492H307.802C307.367 173.492 307.139 172.975 307.433 172.654L314.147 165.33L314.15 165.326ZM315.142 173.492H321.339C321.479 173.492 321.613 173.433 321.707 173.33L329.041 165.33C329.216 165.139 329.216 164.845 329.041 164.654L325.973 161.308L315.142 173.492Z" fill="#053385"/>
</g>
</g>
<path d="M213.757 183.459V147.047C213.757 145.942 212.861 145.047 211.757 145.047H162.584C161.479 145.047 160.584 145.942 160.584 147.047V183.459C160.584 184.563 161.479 185.459 162.584 185.459H211.757C212.861 185.459 213.757 184.563 213.757 183.459Z" fill="#CFF6F9"/>
<path d="M279.691 183.459V147.047C279.691 145.942 278.796 145.047 277.691 145.047H228.518C227.414 145.047 226.518 145.942 226.518 147.047V183.459C226.518 184.563 227.414 185.459 228.518 185.459H277.691C278.796 185.459 279.691 184.563 279.691 183.459Z" fill="#FDF6D7"/>
<g clip-path="url(#clip2)">
<path fill-rule="evenodd" clip-rule="evenodd" d="M198.856 152.75C199.686 152.75 200.358 153.424 200.356 154.254L200.332 164.254C200.33 165.081 199.659 165.75 198.832 165.75H195.83C195.553 165.75 195.33 165.974 195.33 166.25L195.33 170.25C195.33 171.078 194.658 171.75 193.83 171.75H187.301C187.16 171.75 187.026 171.809 186.931 171.914L183.099 176.129C182.484 176.806 181.359 176.371 181.359 175.457V172.25C181.359 171.974 181.135 171.75 180.859 171.75H177.856C177.029 171.75 176.358 171.081 176.356 170.254L176.332 160.254C176.33 159.424 177.002 158.75 177.832 158.75H181.33V154.25C181.33 153.422 182.001 152.75 182.83 152.75H198.856ZM199.356 154.251C199.357 153.975 199.133 153.75 198.856 153.75H182.83C182.553 153.75 182.33 153.974 182.33 154.25V156.75H199.35L199.356 154.251ZM199.348 157.75L199.341 160.75H182.33V157.75H199.348ZM199.338 161.75H182.33V164.25C182.33 164.526 182.553 164.75 182.83 164.75H189.387C189.81 164.75 190.213 164.928 190.497 165.241L194.33 169.457V166.25C194.33 165.422 195.001 164.75 195.83 164.75H198.832C199.108 164.75 199.331 164.527 199.332 164.251L199.338 161.75ZM181.33 159.75V164.25C181.33 165.078 182.001 165.75 182.83 165.75H189.387C189.528 165.75 189.663 165.809 189.757 165.914L194.088 170.678C194.013 170.724 193.924 170.75 193.83 170.75H187.301C186.879 170.75 186.476 170.928 186.191 171.241L182.359 175.457L182.359 172.25C182.359 171.422 181.687 170.75 180.859 170.75H177.856C177.581 170.75 177.357 170.527 177.356 170.251L177.332 160.251C177.331 159.975 177.555 159.75 177.832 159.75H181.33Z" fill="#0A4A5C"/>
</g>
<g clip-path="url(#clip3)">
<g clip-path="url(#clip4)">
<path fill-rule="evenodd" clip-rule="evenodd" d="M261.765 176.75C262.593 176.75 263.265 176.078 263.265 175.25V154.25C263.265 153.422 262.593 152.75 261.765 152.75H255.765C254.936 152.75 254.265 153.422 254.265 154.25V158.75H250.765C249.936 158.75 249.265 159.422 249.265 160.25V164.75H245.765C244.936 164.75 244.265 165.422 244.265 166.25V175.25C244.265 176.078 244.936 176.75 245.765 176.75L261.765 176.75ZM262.265 154.25C262.265 153.974 262.041 153.75 261.765 153.75H255.765C255.489 153.75 255.265 153.974 255.265 154.25L255.265 158.75H256.765C257.593 158.75 258.265 159.422 258.265 160.25V175.75H261.765C262.041 175.75 262.265 175.526 262.265 175.25V154.25ZM251.765 164.75H250.265V160.25C250.265 159.974 250.489 159.75 250.765 159.75H256.765C257.041 159.75 257.265 159.974 257.265 160.25V175.75L253.265 175.75V166.25C253.265 165.422 252.593 164.75 251.765 164.75ZM252.265 166.25V175.75L245.765 175.75C245.489 175.75 245.265 175.526 245.265 175.25V166.25C245.265 165.974 245.489 165.75 245.765 165.75H251.765C252.041 165.75 252.265 165.974 252.265 166.25Z" fill="#A98C0C"/>
</g>
</g>
<path d="M394.859 178.192C404.93 178.192 413.094 170.841 413.094 161.774C413.094 152.706 404.93 145.355 394.859 145.355C384.788 145.355 376.624 152.706 376.624 161.774C376.624 170.841 384.788 178.192 394.859 178.192Z" fill="#797673"/>
<path d="M391.852 175.346C393.289 168.65 392.376 163.272 388.48 160.211C384.585 157.149 377.01 158.007 375.569 162.995C369.878 182.689 373.221 225.507 373.955 238.483C374.119 239.283 374.095 239.823 374.991 240.028C375.95 240.245 376.453 239.794 376.68 239.021C376.68 239.018 390.415 182.043 391.852 175.346Z" fill="#797673"/>
<path d="M373.201 225.92L379.823 225.937C378.524 232.997 376.867 238.734 376.43 238.713H375.268C374.918 238.515 374.544 238.202 374.314 237.7C373.503 234.993 373.437 230.857 373.201 225.92Z" fill="url(#paint0_linear)"/>
<path d="M376.826 161.514C376.826 161.514 385.562 175.844 394.665 176.093C401.932 176.29 411.533 161.514 411.533 161.514H376.826Z" fill="#797673"/>
<path d="M392.614 172.058C393.694 165.284 395.776 161.476 400.288 159.383C404.799 157.291 413.361 158.576 413.011 163.751C411.533 185.685 402.065 225.14 398.266 237.603C397.916 238.345 397.812 238.875 396.892 238.868C395.909 238.861 395.53 238.306 395.491 237.501C395.491 237.506 390.842 183.168 392.614 172.058Z" fill="#797673"/>
<path d="M369.472 239.851C369.472 239.851 377.909 239.867 377.909 239.491C377.909 239.115 377.819 234.781 377.819 234.781L373.107 234.805C372.916 235.866 371.827 236.5 370.788 236.857C369.747 237.226 368.769 237.322 368.769 237.322C367.214 237.524 367.465 239.863 369.472 239.851Z" fill="#0089DF"/>
<path d="M374.194 236.653C374.798 236.653 375.288 236.163 375.288 235.561V234.645C375.288 234.042 374.798 233.553 374.194 233.553C373.59 233.553 373.1 234.042 373.1 234.645V235.561C373.1 236.163 373.59 236.653 374.194 236.653Z" fill="#0089DF"/>
<path d="M372.376 237.728C372.26 237.728 372.147 237.68 372.067 237.586L371.306 236.714C371.159 236.542 371.176 236.284 371.347 236.135C371.519 235.988 371.777 236.005 371.927 236.176L372.688 237.049C372.835 237.22 372.818 237.478 372.646 237.627C372.567 237.695 372.47 237.728 372.376 237.728Z" fill="#F3F2F1"/>
<path d="M373.427 236.978C373.311 236.978 373.198 236.93 373.118 236.836L372.338 235.903C372.19 235.732 372.207 235.474 372.379 235.324C372.55 235.177 372.809 235.194 372.959 235.365L373.739 236.298C373.886 236.469 373.869 236.727 373.698 236.877C373.618 236.944 373.521 236.978 373.427 236.978Z" fill="#F3F2F1"/>
<path d="M369.274 239.849L372.95 239.837L370.786 236.855C369.745 237.224 368.767 237.321 368.767 237.321C367.699 237.461 367.339 238.352 367.675 239.039C367.856 239.406 368.646 239.852 369.274 239.849Z" fill="#A7CBF6"/>
<path d="M367.919 240.357H377.667C377.8 240.357 377.909 240.249 377.909 240.116V239.041H367.678V240.116C367.678 240.249 367.784 240.357 367.919 240.357Z" fill="#E1DFDD"/>
<path d="M401.455 225.92C400.216 230.927 399.102 234.892 398.271 237.599C397.965 238.233 397.844 238.713 397.243 238.833C396.991 238.833 396.74 238.821 396.477 238.821C395.798 238.691 395.525 238.187 395.494 237.5C395.494 237.5 394.885 232.819 394.569 225.92H401.455Z" fill="#E0BB95"/>
<path d="M396.022 236.401C396.249 237.755 392.049 238.739 392.049 238.739C390.831 238.896 390.923 240.366 392.496 240.352L397.995 240.306C398.717 240.299 399.299 239.763 399.292 239.11L399.159 236.389L396.022 236.401Z" fill="#605D5A"/>
<path d="M390.431 239.851C390.431 239.851 399.292 239.867 399.292 239.491C399.292 239.115 399.203 234.781 399.203 234.781L394.063 234.805C393.872 235.866 392.783 236.5 391.745 236.857C390.704 237.226 389.726 237.322 389.726 237.322C388.17 237.524 388.421 239.863 390.431 239.851Z" fill="#0089DF"/>
<path d="M395.153 236.653C395.757 236.653 396.247 236.163 396.247 235.561V234.645C396.247 234.042 395.757 233.553 395.153 233.553C394.549 233.553 394.059 234.042 394.059 234.645V235.561C394.056 236.163 394.546 236.653 395.153 236.653Z" fill="#0089DF"/>
<path d="M393.332 237.723C393.216 237.723 393.103 237.675 393.023 237.58L392.255 236.686C392.107 236.515 392.124 236.257 392.296 236.108C392.467 235.961 392.726 235.977 392.875 236.149L393.643 237.043C393.791 237.214 393.774 237.472 393.602 237.621C393.523 237.689 393.429 237.723 393.332 237.723Z" fill="#F3F2F1"/>
<path d="M394.382 236.975C394.266 236.975 394.153 236.927 394.073 236.833L393.247 235.895C393.1 235.724 393.117 235.466 393.288 235.317C393.46 235.17 393.718 235.186 393.868 235.358L394.694 236.295C394.841 236.466 394.824 236.724 394.653 236.874C394.573 236.941 394.479 236.975 394.382 236.975Z" fill="#F3F2F1"/>
<path d="M390.23 239.849L393.907 239.837L391.742 236.855C390.701 237.224 389.723 237.321 389.723 237.321C388.656 237.461 388.296 238.352 388.632 239.039C388.813 239.406 389.603 239.852 390.23 239.849Z" fill="#A7CBF6"/>
<path d="M388.876 240.357H399.049C399.182 240.357 399.29 240.249 399.29 240.116V239.041H388.634V240.116C388.634 240.249 388.743 240.357 388.876 240.357Z" fill="#E1DFDD"/>
<path d="M412.851 155.49L376.847 159.282C376.847 159.282 375.472 162.893 374.366 166.957C378.641 168.565 389.435 169.115 389.435 169.115L391.082 163.39L393.891 168.645C393.891 168.645 407.38 167.225 416.879 162.478C414.85 159.082 412.851 155.49 412.851 155.49Z" fill="#E1DFDD"/>
<path d="M376.051 140.416C375.568 139.259 375.216 138.03 375.01 136.738C373.634 128.009 379.609 119.818 388.357 118.447C397.102 117.073 405.309 123.037 406.684 131.767C406.887 133.05 406.928 134.323 406.826 135.562H406.829L406.841 140.033C406.848 143.143 407.657 146.199 409.186 148.906L412.369 154.545C412.369 154.545 403.923 158.662 394.917 160.074C385.908 161.489 376.607 160.159 376.607 160.159L377.904 153.819C378.527 150.772 378.355 147.617 377.406 144.654L376.051 140.416Z" fill="url(#paint1_radial)"/>
<path d="M411.097 165.955L413.418 166.047C413.418 166.047 413.95 168.172 413.745 170.545C413.587 172.377 412.716 174.173 412.275 175.045C411.992 175.605 411.485 176.115 411.09 175.932C410.51 177.194 409.59 176.886 409.629 176.474L410.196 171.601C410.196 171.601 409.196 173.385 408.973 173.646C408.713 173.951 408.045 174.039 408.237 173.302C408.399 172.679 408.771 171.48 409.016 170.61C409.94 167.323 411.097 165.955 411.097 165.955Z" fill="#E0BB95"/>
<path d="M413.604 166.04L410.984 166.183C410.984 166.183 410.798 157.577 406.317 147.108C403.897 141.458 398.746 135.031 397.011 132.524C391.635 124.741 393.005 118.49 393.005 118.49C393.005 118.49 409.783 121.349 414.884 144.049C417.174 154.236 413.701 165.214 413.604 166.04Z" fill="#B3AFAB"/>
<path d="M393.199 118.552C393.132 118.535 393.069 118.518 393.006 118.499C393.006 118.491 393.004 118.487 393.004 118.487L392.982 118.491C390.504 117.766 390.458 115.688 390.458 115.688L390.019 112.896L383.99 113.844L384.43 116.635C384.43 116.635 384.763 119.354 382.403 120.813C382.403 120.813 383.188 124.537 388.374 123.522C393.067 122.604 393.059 119.224 393.016 118.59L393.199 118.552Z" fill="url(#paint2_radial)"/>
<path d="M386.702 124.224C387.33 124.224 387.936 124.147 388.472 124.043C390.073 123.73 392.177 122.92 393.112 120.844C393.556 119.856 393.561 118.947 393.539 118.586C393.534 118.489 393.46 118.41 393.363 118.398L392.723 118.309C392.6 118.292 392.489 118.388 392.491 118.513C392.508 119.369 392.252 122.231 388.267 123.012C386.293 123.397 384.794 123.115 383.803 122.173C383.306 121.698 383.069 120.979 382.973 120.594C382.939 120.464 382.789 120.401 382.673 120.468L382.016 120.849C381.934 120.897 381.895 120.991 381.922 121.083C382.021 121.416 382.325 122.223 383.074 122.937C384.115 123.923 385.453 124.224 386.702 124.224Z" fill="#B3AFAB"/>
<path d="M396.148 96.5279L378.896 92.4902L377.802 91.5501L379.201 91.1934L396.453 95.231C396.752 95.3009 396.928 95.6504 396.844 96.0072C396.762 96.3639 396.448 96.6002 396.148 96.5279Z" fill="#F7B548"/>
<path d="M388.371 96.7308C391.507 96.7308 394.049 94.1935 394.049 91.0636C394.049 87.9338 391.507 85.3965 388.371 85.3965C385.235 85.3965 382.693 87.9338 382.693 91.0636C382.693 94.1935 385.235 96.7308 388.371 96.7308Z" fill="url(#paint3_linear)"/>
<path d="M387.18 115.589C393.255 114.476 397.275 108.655 396.159 102.587C395.043 96.519 389.214 92.5018 383.14 93.6144C377.065 94.727 373.045 100.548 374.161 106.616C375.277 112.684 381.106 116.701 387.18 115.589Z" fill="#59453C"/>
<path d="M393.668 109.748L391.673 110.114L390.849 105.631L392.844 105.264C394.086 105.038 395.274 105.857 395.503 107.094C395.73 108.333 394.909 109.521 393.668 109.748Z" fill="#E0BB95"/>
<path d="M393.078 105.727C393.991 110.695 391.332 115.41 386.695 116.261C382.057 117.109 377.195 113.773 376.282 108.805C375.369 103.837 378.389 99.1196 383.028 98.2711C387.663 97.4202 392.165 100.759 393.078 105.727Z" fill="#E0BB95"/>
<path d="M382.538 105.574L379.087 106.208L380.599 114.428L384.05 113.797L382.538 105.574Z" fill="url(#paint4_radial)"/>
<path d="M375.628 100.11C373.464 103.111 374.215 108.252 376.44 111.261C375.814 109.388 376.901 107.756 378.558 106.98C380.688 105.984 383.192 105.326 384.912 103.583C387.204 101.257 387.318 97.9065 384.811 96.3348C382.7 95.0138 378.034 95.4068 375.628 100.11Z" fill="#594539"/>
<path d="M386.275 97.4786C385.852 99.4962 387.623 104.541 392.122 105.397C393.487 105.146 393.842 104.946 393.724 103.951C393.175 99.3202 386.809 94.9306 386.275 97.4786Z" fill="#594539"/>
<path d="M376.207 109.984C375.85 108.166 377.041 106.395 378.862 106.038C380.683 105.681 382.458 106.87 382.816 108.687C382.989 109.567 382.808 110.464 382.306 111.208C381.804 111.953 381.043 112.46 380.159 112.633C380.043 112.657 379.924 112.672 379.809 112.684C378.118 112.836 376.543 111.686 376.207 109.984ZM382.016 108.844C381.746 107.467 380.4 106.568 379.021 106.838C377.642 107.108 376.741 108.448 377.012 109.825C377.265 111.114 378.458 111.985 379.741 111.869C379.828 111.862 379.917 111.85 380.007 111.83C380.676 111.7 381.253 111.317 381.632 110.753C382.009 110.189 382.146 109.511 382.016 108.844Z" fill="#9B643D"/>
<path d="M383.127 108.826C383.031 109.267 383.055 109.448 382.533 110.203C382.323 110.506 382.369 110.979 382.635 111.273C382.869 111.536 383.338 111.685 383.755 112.247C384.161 112.794 385.61 111.712 385.108 109.935C384.722 108.561 383.342 107.853 383.127 108.826Z" fill="#E0BB95"/>
<path d="M384.842 110.807C384.096 110.306 383.588 109.547 383.414 108.664C383.057 106.847 384.248 105.075 386.069 104.718C387.89 104.359 389.665 105.55 390.023 107.367C390.196 108.247 390.015 109.144 389.513 109.889C389.011 110.634 388.25 111.14 387.366 111.313C387.247 111.338 387.129 111.354 387.013 111.364C386.25 111.434 385.489 111.241 384.842 110.807ZM386.226 105.519C385.557 105.649 384.98 106.032 384.6 106.596C384.221 107.16 384.083 107.837 384.216 108.505C384.347 109.173 384.731 109.749 385.296 110.127C385.861 110.506 386.54 110.643 387.209 110.511C387.878 110.381 388.455 109.997 388.834 109.433C389.213 108.869 389.351 108.192 389.218 107.524C388.965 106.234 387.772 105.364 386.489 105.48C386.405 105.49 386.315 105.502 386.226 105.519Z" fill="#9B643D"/>
<path d="M382.321 108.454C382.335 108.451 382.35 108.451 382.364 108.446L383.731 108.179C383.954 108.135 384.098 107.921 384.055 107.699C384.011 107.477 383.797 107.335 383.574 107.376L382.207 107.644C381.985 107.687 381.84 107.902 381.884 108.123C381.925 108.333 382.116 108.473 382.321 108.454Z" fill="#9B643D"/>
<path d="M379.82 110.429C380.189 110.363 380.398 109.808 380.288 109.188C380.177 108.568 379.788 108.118 379.419 108.184C379.05 108.25 378.841 108.805 378.951 109.425C379.062 110.045 379.451 110.495 379.82 110.429Z" fill="#33312D"/>
<path d="M386.802 109.152C387.171 109.086 387.381 108.53 387.27 107.91C387.159 107.29 386.771 106.841 386.402 106.907C386.033 106.972 385.823 107.528 385.934 108.148C386.044 108.768 386.433 109.217 386.802 109.152Z" fill="#33312D"/>
<path d="M385.702 112.518C385.697 112.518 385.69 112.525 385.683 112.532L385.661 112.554C385.647 112.568 385.632 112.585 385.615 112.6C385.584 112.631 385.555 112.662 385.523 112.691L385.432 112.776C385.398 112.8 385.371 112.831 385.34 112.853C385.217 112.949 385.096 113.031 384.963 113.094C384.932 113.111 384.893 113.12 384.862 113.137C384.828 113.154 384.792 113.166 384.755 113.178C384.719 113.188 384.683 113.209 384.644 113.219C384.606 113.229 384.565 113.241 384.526 113.255C384.487 113.272 384.444 113.279 384.4 113.289C384.357 113.301 384.313 113.313 384.27 113.328C384.178 113.349 384.084 113.368 383.983 113.409L383.954 113.422C383.799 113.482 383.705 113.663 383.77 113.814C383.797 113.877 383.845 113.928 383.9 113.959C384.009 114.017 384.125 114.063 384.243 114.099C384.304 114.111 384.367 114.123 384.429 114.133L384.524 114.145C384.555 114.15 384.589 114.147 384.62 114.147C384.685 114.147 384.751 114.145 384.816 114.14C384.881 114.135 384.949 114.118 385.014 114.106L385.113 114.084C385.144 114.075 385.178 114.063 385.21 114.051C385.275 114.027 385.337 114.005 385.4 113.971C385.649 113.851 385.864 113.66 386.021 113.441C386.098 113.33 386.161 113.212 386.207 113.089C386.229 113.026 386.25 112.966 386.263 112.898C386.27 112.867 386.277 112.833 386.282 112.8L386.287 112.747L386.292 112.686C386.294 112.665 386.279 112.648 386.26 112.643L385.702 112.518Z" fill="#BF8F67"/>
<path d="M376.488 127.201C376.488 127.201 375.788 128.58 374.802 131.181C373.414 134.845 371.247 140.637 367.537 142.535C358.92 146.943 351.822 144.641 351.822 144.641L350.713 147.488C350.713 147.488 361.074 154.737 373.257 150.33C384.176 146.384 385.748 142.327 385.748 142.327L376.488 127.201Z" fill="url(#paint5_radial)"/>
<path d="M344.112 142.46L342.955 144.036C342.823 144.217 342.782 144.441 342.837 144.649L343.315 146.37C343.361 146.534 343.537 146.628 343.711 146.577L345.897 145.95L346.501 143.909L344.876 142.342L344.112 142.46Z" fill="#BF8F67"/>
<path d="M346.38 141.217C346.124 141.061 345.808 141.012 345.508 141.087L342.368 141.859C342.124 141.933 341.951 142.143 341.929 142.386L341.753 144.344C341.74 144.472 341.801 144.592 341.909 144.66C342.419 144.597 342.719 143.623 342.702 142.914C342.692 142.907 343.914 142.717 344.482 142.628C344.66 142.601 344.837 142.654 344.962 142.775L346.136 143.905C346.332 144.093 346.3 144.269 346.151 144.501L345.861 144.946C345.738 145.134 345.52 145.243 345.293 145.231C344.453 145.185 342.528 145.245 342.682 145.727C342.849 146.253 343.262 146.552 346.37 146.882C346.467 146.892 346.556 146.94 346.641 146.986C346.815 147.082 347.213 147.514 348.614 147.649C350.136 147.796 350.923 147.036 350.923 147.036L351.87 144.754L346.38 141.217Z" fill="#E0BB95"/>
<path d="M346.67 147.009C343.417 146.623 342.98 146.293 342.794 145.722C342.622 145.199 344.629 145.153 345.508 145.211L346.67 147.009Z" fill="#E0BB95"/>
<path d="M43.8062 238.911L39.527 237.278C38.3679 236.878 38.5342 235.05 38.5342 235.05C38.4021 233.988 37.8104 233.217 36.3432 233.197C35.3308 233.185 34.4823 233.934 34.2842 234.923L34.2451 238.894C34.272 239.723 34.942 240.385 35.7612 240.387L43.3832 240.426C44.2048 240.434 44.5081 239.34 43.8062 238.911Z" fill="#BF8F67"/>
<path d="M12.9469 238.946L9.37673 237.319C8.21766 236.918 8.38394 235.09 8.38394 235.09C8.25189 234.029 7.65768 233.257 6.1905 233.24C5.17815 233.228 4.32963 233.977 4.13156 234.968L3.38574 238.939C3.41264 239.769 4.08265 240.428 4.90427 240.433L12.5263 240.464C13.3455 240.469 13.6487 239.376 12.9469 238.946Z" fill="#BF8F67"/>
<path d="M43.3881 240.461L35.7636 240.427C34.9494 240.427 34.2696 239.761 34.2476 238.936V238.116C34.2476 238.546 35.321 238.843 36.5779 238.651C38.1527 238.409 38.9279 237.889 40.4929 237.682C40.5051 237.684 40.5051 237.682 40.5051 237.682H40.5173L43.8087 238.946C44.508 239.378 44.2024 240.461 43.3881 240.461Z" fill="#605D5A"/>
<path d="M39.1141 143.164C36.1235 130.426 20.7719 133.77 20.185 147.618C19.9283 149.604 32.5387 183.652 34.0548 187.857C34.1526 188.13 34.2039 188.418 34.2039 188.709L34.27 235.762C34.2259 236.109 34.2406 236.47 34.3702 236.795C34.6783 237.571 35.4241 238.118 36.3045 238.12C37.1432 238.12 37.7129 237.637 38.1066 236.917C38.2778 236.602 38.3879 236.263 38.471 235.914C42.2465 219.828 45.6284 203.01 46.5918 190.039C47.5431 177.177 40.953 150.998 39.1141 143.164Z" fill="url(#paint6_radial)"/>
<path d="M13.154 142.356C9.84065 144.009 9.56922 148.616 9.18531 153.236C8.91632 154.764 11.1684 174.837 11.8874 183.938C12.1221 186.899 12.0047 189.871 11.5352 192.805C9.6328 204.746 3.82275 236.686 3.82275 236.686C3.83987 237.735 4.71285 238.611 5.83035 238.665C6.66909 238.706 7.25596 238.277 7.67411 237.615C7.85506 237.33 7.95287 237.003 8.07269 236.686C14.4158 221.169 23.7006 201.376 25.7278 191.748C27.7549 182.122 26.9627 173.302 27.6596 165.649C27.7549 165.837 34.3548 157 34.9686 153.151C35.8685 147.484 19.1426 139.367 13.154 142.356Z" fill="#B3AFAB"/>
<path d="M12.5185 240.465L4.89402 240.431C4.07973 240.431 3.39994 239.764 3.37793 238.939L3.53199 238.08C3.53199 238.51 4.50521 238.993 5.7621 238.8C7.33688 238.559 9.81886 237.541 9.81886 237.541L12.9391 238.952C13.6384 239.381 13.3328 240.465 12.5185 240.465Z" fill="#605D5A"/>
<path d="M31.0097 91.4609L54.8857 98.9387C49.709 118.209 54.1007 131.308 54.1007 131.308L33.3988 125.697L20.9229 121.775C20.9229 121.777 26.4492 102.775 31.0097 91.4609Z" fill="#3A312E"/>
<path d="M54.6002 100.109C57.0438 92.1629 53.6378 84.0708 46.9926 82.0354C40.3474 79.9999 32.9795 84.7918 30.5359 92.7384C28.0923 100.685 31.4983 108.777 38.1435 110.812C44.7887 112.848 52.1566 108.056 54.6002 100.109Z" fill="#3A312E"/>
<path d="M71.1158 145.154C71.15 145.263 70.414 148.094 70.4409 148.004C70.4409 148.004 58.6374 146.633 50.0593 143.658C44.1661 141.615 42.0876 136.119 40.0017 128.699C37.9086 121.261 41.7404 110.537 44.4424 113.671C50.5288 120.731 45.8411 130.449 53.1208 136.351C57.5664 139.958 71.2943 145.21 71.1158 145.154Z" fill="url(#paint7_radial)"/>
<path d="M37.4459 109.414C29.6185 106.963 22.5564 110.344 20.2627 116.94C18.5217 121.946 18.9031 132.701 15.2963 136.943C11.5305 141.368 10.8556 144.426 10.1343 146.495C10.1343 146.495 12.1859 145.304 18.4728 146.854C24.745 148.401 26.4738 153.895 32.5577 155.108C38.9277 156.379 41.9991 155.85 41.9991 155.85C41.5027 153.69 40.7813 150.317 39.8668 144.636C38.9816 139.144 45.804 130.488 47.2393 125.387C49.132 118.666 45.2733 111.864 37.4459 109.414Z" fill="url(#paint8_radial)"/>
<path d="M6.63728 152.782L4.31568 151.759C4.31568 151.759 2.76829 153.588 1.82436 156.014C1.09655 157.887 1.08355 160.066 1.09292 161.134C1.1007 161.82 1.35094 162.56 1.82624 162.572C1.78674 164.087 2.83919 164.225 2.99753 163.803L4.79504 158.753C4.79504 158.753 4.91533 160.982 5.00735 161.344C5.11676 161.77 5.72827 162.173 5.89506 161.361C6.03822 160.673 6.24877 159.321 6.42975 158.346C7.11449 154.681 6.63728 152.782 6.63728 152.782Z" fill="#BF8F67"/>
<path d="M3.91826 152.366L6.66433 152.7C5.85249 135.56 7.96523 134.906 11.2615 130.567C14.5578 126.228 20.4558 126.564 25.5274 123.865C32.1713 120.329 33.1494 107.987 29.2418 108.961C20.0597 111.245 9.24168 115.584 2.60758 127.777C-2.53245 137.225 3.93537 152.317 3.91826 152.366Z" fill="#0089DF"/>
<path d="M35.1329 106.561C35.7442 104.613 36.9962 100.516 36.9962 100.516L42.9505 102.38C42.9505 102.38 41.6716 106.449 41.0823 108.32C40.493 110.192 41.8477 111.52 41.8477 111.52C41.8477 111.52 39.395 112.96 36.6441 112.098C33.8931 111.237 32.3379 108.611 32.3379 108.611C32.3379 108.611 34.5215 108.508 35.1329 106.561Z" fill="url(#paint9_radial)"/>
<path d="M36.3257 93.6022C34.499 99.4107 36.492 105.209 40.7761 106.549C45.0603 107.889 50.0145 104.27 51.8411 98.4613C53.6678 92.6528 51.5061 87.391 47.222 86.0488C42.9378 84.7089 38.1523 87.7937 36.3257 93.6022Z" fill="#BF8F67"/>
<path d="M46.0389 91.1562L45.0706 94.2728C44.6182 95.8836 45.0363 97.2576 45.4276 98.0849C45.6477 98.5486 45.5083 99.4175 44.9141 99.7494C44.5913 99.93 43.3931 100.145 43.1217 100.867L42.1509 103.72L48.5698 105.763L52.3307 93.3039L46.0389 91.1562Z" fill="url(#paint10_radial)"/>
<path d="M43.8408 103.192C43.4764 103.422 43.095 103.492 42.6915 103.487C42.2905 103.475 41.8748 103.353 41.5104 103.121C41.1412 102.897 40.8355 102.545 40.679 102.15C40.5054 101.762 40.4834 101.34 40.5861 100.952C40.6277 100.796 40.789 100.703 40.9455 100.744C40.992 100.756 41.0311 100.778 41.0654 100.808L41.0996 100.837C41.3759 101.086 41.552 101.303 41.7525 101.462C41.9383 101.633 42.1144 101.76 42.3051 101.884C42.4959 102.008 42.7062 102.13 42.9531 102.253C43.1952 102.379 43.4813 102.501 43.7772 102.67L43.8335 102.702C43.9704 102.78 44.0168 102.953 43.9386 103.09C43.9141 103.136 43.8799 103.17 43.8408 103.192Z" fill="#9B643D"/>
<path d="M42.3325 95.9138C42.5331 95.2407 42.3704 94.5985 41.9691 94.4794C41.5679 94.3602 41.0799 94.8093 40.8793 95.4824C40.6787 96.1555 40.8414 96.7977 41.2427 96.9169C41.644 97.036 42.1319 96.5869 42.3325 95.9138Z" fill="#3A312E"/>
<path d="M48.8539 97.9839C49.0745 97.317 48.9311 96.6702 48.5335 96.5392C48.136 96.4082 47.6348 96.8425 47.4142 97.5094C47.1935 98.1762 47.3369 98.823 47.7345 98.9541C48.132 99.0851 48.6332 98.6507 48.8539 97.9839Z" fill="#3A312E"/>
<path d="M38.2823 89.8986L37.6465 91.9243L37.7321 91.9511C39.6125 91.6656 42.696 92.039 46.0461 93.0762L47.7138 90.4136L47.6135 93.6009C50.3694 94.6064 52.6093 95.8511 53.8173 96.9884L55.2087 97.4253L55.8444 95.3996C57.1184 91.3483 54.6462 86.9529 50.3401 85.6033L48.4083 84.9981C44.0899 83.646 39.5538 85.8474 38.2823 89.8986Z" fill="#3A312E"/>
<path d="M41.1459 86.6303C35.9594 92.8341 35.3945 100.209 35.3945 100.209C34.1132 104.285 31.4185 106.338 27.6698 108.4C27.1979 108.661 26.7895 108.9 26.4985 109.095L33.1155 88.9805C33.3943 88.0946 34.0325 87.3673 34.8737 86.972C34.8737 86.9744 45.276 81.6882 41.1459 86.6303Z" fill="#3A312E"/>
<path d="M34.2553 226.699L34.2675 235.763C34.2235 236.11 34.2382 236.471 34.3678 236.796C34.6759 237.572 35.4217 238.119 36.302 238.121C37.1407 238.121 37.7105 237.638 38.1042 236.918C38.2754 236.603 38.3854 236.264 38.4685 235.915C39.1508 233.057 39.833 229.938 40.5006 226.704C40.4664 226.833 34.2553 226.699 34.2553 226.699Z" fill="#BF8F67"/>
<path d="M5.7252 226.309C4.57346 232.413 3.82275 236.684 3.82275 236.684C3.83987 237.734 4.71285 238.61 5.83035 238.664C6.66909 238.705 7.25597 238.276 7.67411 237.614C7.85507 237.329 7.95288 237.002 8.0727 236.684C9.39072 233.46 10.8335 230.053 12.3153 226.59C12.3422 226.563 5.73743 226.207 5.7252 226.309Z" fill="#BF8F67"/>
<path d="M79.2851 142.437L80.3488 144.258C80.4711 144.465 80.4931 144.716 80.4075 144.941L79.7155 146.81C79.6495 146.989 79.4514 147.081 79.2704 147.013L77.0085 146.173L76.5806 143.877L78.4806 142.254L79.2851 142.437Z" fill="#9B643D"/>
<path d="M77.1577 141.68C77.4463 141.524 77.7886 141.492 78.1016 141.594L81.3686 142.658C81.6204 142.759 81.7843 143 81.7818 143.271L81.7622 145.446C81.7598 145.587 81.684 145.716 81.5617 145.785C81.0262 145.682 80.8086 144.584 80.9015 143.801C80.9113 143.793 79.6299 143.5 79.0357 143.364C78.8499 143.322 78.6543 143.369 78.5076 143.493L77.1357 144.665C76.9083 144.86 76.9206 145.058 77.0575 145.321L77.3191 145.834C77.4292 146.048 77.6493 146.185 77.8938 146.187C78.7937 146.195 80.8404 146.39 80.6252 146.91C80.3904 147.479 79.9209 147.784 76.5709 147.937C76.4657 147.942 76.3679 147.989 76.2726 148.035C76.0769 148.13 75.6074 148.579 74.0987 148.635C72.4628 148.696 70.394 147.967 70.394 147.967L71.0323 145.153L77.1577 141.68Z" fill="#BF8F67"/>
<path d="M135.658 127.582L79.8923 134.633C78.4198 134.819 77.3792 136.16 77.5661 137.63L82.3221 175.097C82.509 176.566 83.8527 177.605 85.3252 177.418L141.091 170.368C142.563 170.181 143.604 168.84 143.417 167.371L138.661 129.904C138.474 128.437 137.128 127.396 135.658 127.582Z" fill="#E0BEDB"/>
<path d="M140.454 165.417L136.414 132.366C136.28 131.27 135.282 130.489 134.186 130.623L82.5932 136.905C81.4967 137.038 80.7165 138.035 80.8506 139.132L84.8908 172.183C85.0248 173.279 86.0223 174.06 87.1188 173.926L138.711 167.644C139.808 167.511 140.588 166.514 140.454 165.417Z" fill="#EEDBEB"/>
<g clip-path="url(#clip5)">
<g clip-path="url(#clip6)">
<path fill-rule="evenodd" clip-rule="evenodd" d="M117.242 145.893L111.335 140.682C110.644 140.073 109.572 140.225 109.077 141.002L108.623 141.717L108.056 141.198C107.362 140.563 106.262 140.715 105.767 141.515L98.6252 153.064C98.2444 153.679 98.3578 154.479 98.8947 154.965L108.964 164.074C109.662 164.705 110.762 164.545 111.251 163.742L111.651 163.086L112.287 163.646C112.978 164.256 114.05 164.104 114.545 163.326L118.771 156.68C118.774 156.675 118.777 156.671 118.78 156.666L121.928 151.715C122.324 151.092 122.208 150.273 121.654 149.785L117.254 145.903C117.25 145.9 117.246 145.896 117.242 145.893ZM110.674 141.432C110.443 141.229 110.086 141.28 109.921 141.539L106.773 146.49C106.641 146.698 106.68 146.971 106.864 147.134L111.501 151.224C111.58 151.293 111.649 151.369 111.71 151.45C111.746 151.356 111.792 151.263 111.848 151.175L114.996 146.223C115.136 146.004 115.321 145.834 115.531 145.717L110.674 141.432ZM116.585 146.647L120.993 150.535C121.177 150.698 121.216 150.971 121.084 151.178L117.931 156.138C117.764 156.39 117.411 156.438 117.183 156.236L112.783 152.355C112.598 152.192 112.56 151.919 112.692 151.712L115.84 146.76C116.003 146.503 116.355 146.451 116.585 146.647ZM117.177 157.324L113.701 162.79C113.536 163.049 113.179 163.1 112.948 162.897L108.548 159.015C108.364 158.852 108.325 158.579 108.457 158.372L111.775 153.154C111.831 153.065 111.877 152.973 111.912 152.878C111.973 152.96 112.043 153.035 112.121 153.105L116.522 156.986C116.717 157.158 116.942 157.27 117.177 157.324ZM107.887 159.765L110.89 162.414L110.398 163.222C110.234 163.489 109.868 163.543 109.635 163.332L99.5656 154.223C99.3866 154.061 99.3488 153.795 99.4757 153.59L106.617 142.041C106.782 141.775 107.149 141.724 107.38 141.936L108.078 142.574L105.929 145.954C105.533 146.577 105.649 147.395 106.203 147.884L110.84 151.974C111.024 152.137 111.063 152.41 110.931 152.617L107.613 157.835C107.217 158.458 107.333 159.277 107.887 159.765Z" fill="#501B50"/>
</g>
</g>
<path d="M76.2525 145.562C76.3839 145.857 76.6718 146.057 76.9951 146.077C78.1999 146.15 80.9227 146.556 80.5994 147.239C80.2458 147.985 79.5941 148.358 75.1008 148.328C74.9619 148.325 76.2525 145.562 76.2525 145.562Z" fill="#BF8F67"/>
<defs>
<linearGradient id="paint0_linear" x1="387.41" y1="232.317" x2="371.746" y2="232.317" gradientUnits="userSpaceOnUse">
<stop offset="0.00125628" stop-color="#BF8F67"/>
<stop offset="1" stop-color="#E0BB95"/>
</linearGradient>
<radialGradient id="paint1_radial" cx="0" cy="0" r="1" gradientUnits="userSpaceOnUse" gradientTransform="translate(416.068 148.839) scale(25.2501 25.2009)">
<stop stop-color="#797673"/>
<stop offset="0.2091" stop-color="#8F8B88"/>
<stop offset="0.4746" stop-color="#A39F9B"/>
<stop offset="0.7393" stop-color="#AFABA7"/>
<stop offset="1" stop-color="#B3AFAB"/>
</radialGradient>
<radialGradient id="paint2_radial" cx="0" cy="0" r="1" gradientUnits="userSpaceOnUse" gradientTransform="translate(383.688 113.863) scale(6.25097 6.23881)">
<stop stop-color="#9B643D"/>
<stop offset="0.0518" stop-color="#A06A43"/>
<stop offset="0.4773" stop-color="#C3966F"/>
<stop offset="0.8074" stop-color="#D8B18B"/>
<stop offset="1" stop-color="#E0BB95"/>
</radialGradient>
<linearGradient id="paint3_linear" x1="387.723" y1="88.0196" x2="389.235" y2="96.2749" gradientUnits="userSpaceOnUse">
<stop offset="0.2689" stop-color="#594539"/>
<stop offset="0.8111" stop-color="#463228"/>
</linearGradient>
<radialGradient id="paint4_radial" cx="0" cy="0" r="1" gradientUnits="userSpaceOnUse" gradientTransform="translate(383.892 110.787) rotate(3.27262) scale(4.10153 3.91238)">
<stop stop-color="#9B643D"/>
<stop offset="0.0409" stop-color="#A06A43"/>
<stop offset="0.3769" stop-color="#C3966F"/>
<stop offset="0.6376" stop-color="#D8B18B"/>
<stop offset="0.7896" stop-color="#E0BB95"/>
</radialGradient>
<radialGradient id="paint5_radial" cx="0" cy="0" r="1" gradientUnits="userSpaceOnUse" gradientTransform="translate(384.467 146.938) rotate(-19.8778) scale(17.461 17.4348)">
<stop stop-color="#797673"/>
<stop offset="0.2091" stop-color="#8F8B88"/>
<stop offset="0.4746" stop-color="#A39F9B"/>
<stop offset="0.7393" stop-color="#AFABA7"/>
<stop offset="1" stop-color="#B3AFAB"/>
</radialGradient>
<radialGradient id="paint6_radial" cx="0" cy="0" r="1" gradientUnits="userSpaceOnUse" gradientTransform="translate(21.7601 177.481) scale(37.6408 37.5675)">
<stop offset="0.00481841" stop-color="#878482"/>
<stop offset="0.6559" stop-color="#B3AFAB"/>
</radialGradient>
<radialGradient id="paint7_radial" cx="0" cy="0" r="1" gradientUnits="userSpaceOnUse" gradientTransform="translate(41.7583 141.139) scale(16.6903 16.6577)">
<stop offset="0.00481841" stop-color="#006FB5"/>
<stop offset="0.8646" stop-color="#0089DF"/>
</radialGradient>
<radialGradient id="paint8_radial" cx="0" cy="0" r="1" gradientUnits="userSpaceOnUse" gradientTransform="translate(12.0372 134.812) scale(21.3972 21.3554)">
<stop offset="0.00481841" stop-color="#006FB5"/>
<stop offset="0.8449" stop-color="#0089DF"/>
</radialGradient>
<radialGradient id="paint9_radial" cx="0" cy="0" r="1" gradientUnits="userSpaceOnUse" gradientTransform="translate(44.394 106.006) rotate(-162.61) scale(7.18983 7.17833)">
<stop stop-color="#9B643D"/>
<stop offset="0.8919" stop-color="#BA8A63"/>
<stop offset="0.9997" stop-color="#BF8F67"/>
</radialGradient>
<radialGradient id="paint10_radial" cx="0" cy="0" r="1" gradientUnits="userSpaceOnUse" gradientTransform="translate(44.1712 98.7642) rotate(24.9053) scale(4.11638 4.33431)">
<stop offset="0.000320513" stop-color="#9B643D"/>
<stop offset="0.8922" stop-color="#BA8A63" stop-opacity="0.1079"/>
<stop offset="1" stop-color="#BF8F67" stop-opacity="0"/>
</radialGradient>
<clipPath id="clip0">
<rect width="25.5232" height="25.5232" fill="white" transform="translate(306.278 152.492)"/>
</clipPath>
<clipPath id="clip1">
<rect width="24" height="24" fill="white" transform="translate(306.278 152.492)"/>
</clipPath>
<clipPath id="clip2">
<rect width="24" height="24" fill="white" transform="translate(176.33 152.75)"/>
</clipPath>
<clipPath id="clip3">
<rect width="25.5232" height="25.5232" fill="white" transform="translate(242.265 152.75)"/>
</clipPath>
<clipPath id="clip4">
<rect width="24" height="24" fill="white" transform="translate(242.265 152.75)"/>
</clipPath>
<clipPath id="clip5">
<rect width="25.5232" height="25.5232" fill="white" transform="translate(96.7114 142.186) rotate(-8.06737)"/>
</clipPath>
<clipPath id="clip6">
<rect width="24" height="24" fill="white" transform="translate(96.7114 142.186) rotate(-8.06737)"/>
</clipPath>
</defs>
</svg>
