<svg width="269" height="249" viewBox="0 0 269 249" fill="none" xmlns="http://www.w3.org/2000/svg">
<path opacity="0.5" d="M120.338 185.466H32.2651V107.682L40.5223 99.1059L47.7245 92.0088H120.338V185.466Z" fill="#E1DFDD"/>
<path d="M80.2245 156.522C80.1495 156.898 80.0743 157.292 79.9617 157.667C78.6494 162.093 74.0163 164.626 69.6085 163.312C65.1823 162.018 62.6501 157.385 63.9443 152.959C64.057 152.584 64.1889 152.209 64.3573 151.871L80.2245 156.522Z" fill="#EE8F94"/>
<path d="M83.8372 120.076C86.6972 120.076 89.0157 117.757 89.0157 114.897C89.0157 112.037 86.6972 109.719 83.8372 109.719C80.9772 109.719 78.6587 112.037 78.6587 114.897C78.6587 117.757 80.9772 120.076 83.8372 120.076Z" fill="#EE8F94"/>
<path d="M95.4727 155.659C95.1356 154.815 94.3665 154.084 93.1851 153.447C92.6219 153.127 92.1723 152.828 91.8159 152.509C91.347 152.114 91.0274 151.665 90.8588 151.177C90.7086 150.67 90.7279 150.07 90.9338 149.339L94.4972 137.26C94.9102 135.816 95.1355 134.353 95.1914 132.872C95.2289 131.371 95.0787 129.908 94.76 128.464C94.4414 127.039 93.9349 125.669 93.2783 124.376C92.6033 123.062 91.7966 121.862 90.8404 120.774C88.8146 118.504 86.3576 116.947 83.4315 116.085C80.5998 115.241 77.7298 115.204 74.8412 115.935C72.0278 116.629 69.5525 117.979 67.4516 119.948C65.2574 122.031 63.7563 124.469 62.9129 127.301L59.1801 139.998C58.9558 140.787 58.6178 141.33 58.2048 141.63C57.4741 142.155 56.4236 142.362 55.0728 142.249C54.4355 142.193 53.8914 142.212 53.4225 142.287C52.8227 142.362 52.3163 142.568 51.9031 142.906C51.491 143.224 51.1906 143.749 50.9653 144.481C50.7217 145.344 50.8151 146.169 51.284 146.976C51.7154 147.801 52.3536 148.345 53.2164 148.588L64.3571 151.871C66.0643 148.139 70.265 146.131 74.2973 147.313C78.3489 148.495 80.8059 152.49 80.2245 156.522L91.3095 159.786C91.7034 159.917 92.1346 159.936 92.5843 159.879C93.0348 159.824 93.4471 159.692 93.8226 159.486C94.6477 159.035 95.1725 158.398 95.417 157.553C95.6604 156.766 95.6604 156.128 95.4727 155.659Z" fill="#EE8F94"/>
<path d="M80.2243 156.522L64.3569 151.871C66.0641 148.139 70.2648 146.131 74.2971 147.313C78.3488 148.495 80.806 152.49 80.2243 156.522Z" fill="#E3646A"/>
<path d="M47.7245 107.031C39.5601 105.837 32.2651 107.682 32.2651 107.682C32.2651 107.682 36.6149 102.93 39.8354 99.6168C43.0559 96.3034 47.7245 92.0088 47.7245 92.0088C47.7245 92.0088 48.5491 98.7703 47.7245 107.031Z" fill="#E1DFDD"/>
<path d="M85.7818 93.8574L76.4419 96.796" stroke="#B3AFAB" stroke-width="3" stroke-miterlimit="10" stroke-linecap="round"/>
<path d="M85.7817 100.76C89.5937 100.76 92.6838 97.6693 92.6838 93.8574C92.6838 90.0455 89.5937 86.9553 85.7817 86.9553C81.9698 86.9553 78.8796 90.0455 78.8796 93.8574C78.8796 97.6693 81.9698 100.76 85.7817 100.76Z" fill="url(#paint0_radial)"/>
<path d="M92.3657 97.7742C95.673 97.7742 98.354 95.0932 98.354 91.7859C98.354 88.4787 95.673 85.7976 92.3657 85.7976C89.0585 85.7976 86.3774 88.4787 86.3774 91.7859C86.3774 95.0932 89.0585 97.7742 92.3657 97.7742Z" fill="#C8C6C4"/>
<path d="M211.228 224.033C210.008 223.794 208.81 223.516 207.638 223.199C205.325 222.576 202.84 222.734 200.473 223.643C197.617 224.74 184.764 230.602 184.764 230.602C184.764 230.602 192.36 218.396 186.258 211.193C178.086 201.545 173.302 190.225 176.805 178.213C182.668 157.94 207.601 145.535 232.483 150.569C257.381 155.572 272.809 176.096 266.906 196.389C261.043 216.662 236.11 229.068 211.228 224.033Z" fill="#E1DFDD"/>
<path d="M207.571 182.834C207.716 182.906 207.843 183.021 207.951 183.181C208.059 183.34 208.172 183.514 208.287 183.702C208.345 183.774 208.482 184.129 208.7 184.765C208.873 185.255 209.407 186.875 210.303 189.623C210.449 190.1 210.543 190.395 210.587 190.511L212.951 198.059C213.11 198.638 213.362 199.47 213.709 200.554L213.97 201.357C214.23 202.268 214.469 203.056 214.685 203.721C214.859 204.343 214.945 204.683 214.945 204.741C214.945 205.117 214.807 205.443 214.533 205.716C214.258 205.992 213.933 206.129 213.558 206.129C213.211 206.129 212.957 206.056 212.798 205.912C212.639 205.767 212.451 205.514 212.235 205.152C212.205 205.08 212.075 204.719 211.845 204.068C211.294 202.477 210.665 200.568 209.958 198.342L207.593 190.816C206.797 188.242 206.227 186.341 205.879 185.111C205.691 184.533 205.598 184.201 205.598 184.114C205.598 183.738 205.736 183.414 206.01 183.138C206.285 182.865 206.609 182.727 206.986 182.727C207.231 182.725 207.426 182.761 207.571 182.834ZM227.96 163.736C228.493 164.163 228.927 164.731 229.26 165.439C229.549 166.061 229.767 166.744 229.911 167.489C230.056 168.233 230.129 168.932 230.129 169.582C230.129 170.941 229.904 172.359 229.455 173.833C228.979 175.394 228.408 176.717 227.742 177.802C228.465 177.947 229.123 178.019 229.716 178.019L231.147 177.997C231.812 177.968 232.312 177.954 232.645 177.954C234.192 177.954 235.428 178.113 236.353 178.43C237.567 178.85 238.536 179.616 239.259 180.73C239.477 181.033 239.642 181.312 239.759 181.564C239.874 181.817 239.933 182.089 239.933 182.378C239.933 183.231 239.856 184.088 239.705 184.948C239.553 185.809 239.339 186.753 239.065 187.778C238.905 188.372 238.654 189.261 238.306 190.447C238.06 191.299 237.842 192.196 237.655 193.136C237.612 193.367 237.54 193.787 237.438 194.395C237.324 195.247 237.164 196.071 236.962 196.867C236.861 197.257 236.715 197.662 236.528 198.082C236.065 199.108 235.407 199.922 234.554 200.521C233.7 201.122 232.689 201.573 231.517 201.877C230.491 202.152 229.45 202.319 228.395 202.376C227.339 202.434 225.994 202.462 224.361 202.462C223.03 202.462 221.989 202.391 221.237 202.246C220.832 202.159 220.51 202.072 220.272 201.986C220.033 201.899 219.827 201.791 219.653 201.66C219.479 201.545 219.322 201.382 219.176 201.172C219.031 200.963 218.864 200.669 218.678 200.294C218.62 200.193 218.482 199.852 218.266 199.275C217.832 198.06 217.341 196.592 216.792 194.872C216.271 193.252 215.713 191.417 215.121 189.363C214.499 187.296 214.094 185.878 213.906 185.111C213.776 184.606 213.711 184.294 213.711 184.179C213.711 183.428 214.405 182.097 215.793 180.189C216.14 179.682 216.799 178.8 217.766 177.542C219.647 175.185 220.956 173.465 221.693 172.38C222.184 171.672 222.568 171.007 222.843 170.385C222.915 170.211 223.017 169.85 223.146 169.301C223.378 168.245 223.63 167.196 223.906 166.156C224.238 164.955 224.657 164.081 225.164 163.532C225.423 163.241 225.735 163.098 226.096 163.098C226.803 163.097 227.424 163.31 227.96 163.736Z" fill="#EE8F94"/>
<path opacity="0.5" d="M215.434 56.7922H138.553V133.673H215.434V56.7922Z" fill="#E1DFDD"/>
<path d="M218.413 53.8125H141.532V130.693H218.413V53.8125Z" fill="#FAF9F8"/>
<path d="M186.264 61.3182H170.576V37.9189L174.535 40.8884L178.42 37.9189L182.014 40.8884L186.264 37.9189V61.3182Z" fill="#E1DFDD"/>
<path d="M179.973 102.545C189.075 102.545 196.455 95.1661 196.455 86.0635C196.455 76.9608 189.075 69.5817 179.973 69.5817C170.87 69.5817 163.491 76.9608 163.491 86.0635C163.491 95.1661 170.87 102.545 179.973 102.545Z" fill="#E3646A"/>
<path d="M179.973 93.2681C183.952 93.2681 187.177 90.0425 187.177 86.0635C187.177 82.0845 183.952 78.8589 179.973 78.8589C175.994 78.8589 172.768 82.0845 172.768 86.0635C172.768 90.0425 175.994 93.2681 179.973 93.2681Z" fill="#605D5A"/>
<path d="M179.973 114.924L193.472 95.5149H179.973V114.924Z" fill="#E3646A"/>
<path d="M179.973 114.924L166.473 95.5149H179.973V114.924Z" fill="#E3646A"/>
<path d="M165.046 144.191H101.638V207.599H165.046V144.191Z" fill="#E1DFDD"/>
<path d="M143.766 165.863H116.989V171.855H143.766V165.863Z" fill="#B3AFAB"/>
<path d="M151.942 180.54H116.989V186.532H151.942V180.54Z" fill="#B3AFAB"/>
<path d="M73.2211 203.457C73.2211 215.061 66.3395 225.212 55.9845 230.933C54.6403 231.676 53.5425 232.794 52.948 234.21L46.8106 248.834L43.7568 239.238C43.0615 237.053 40.9622 235.687 38.6723 235.8C37.9892 235.833 37.3013 235.849 36.6104 235.849C16.4034 235.849 0 221.348 0 203.457C0 185.593 16.4038 171.092 36.6104 171.092C56.818 171.092 73.2211 185.592 73.2211 203.457Z" fill="#F7C6C8"/>
<path d="M40.9716 187.456C42.4467 187.864 43.8456 188.451 45.167 189.219C46.4447 189.977 47.6142 190.886 48.6756 191.949C49.7385 193.01 50.6481 194.18 51.4055 195.458C52.1735 196.779 52.7604 198.178 53.1685 199.653C53.5751 201.127 53.7781 202.644 53.7781 204.203C53.7781 205.865 53.5582 207.504 53.1167 209.119C52.5861 210.995 51.8177 212.476 50.8122 213.561C49.6026 214.849 48.1341 215.493 46.405 215.493C45.6822 215.493 44.973 215.39 44.2777 215.188C43.5832 214.984 42.9416 214.69 42.3533 214.306C41.7548 213.91 41.2437 213.427 40.8194 212.857C40.3955 212.286 40.0874 211.651 39.8951 210.949C38.7881 211.515 37.6347 211.798 36.4372 211.798C35.421 211.798 34.4489 211.6 33.522 211.204C32.5951 210.808 31.7818 210.26 31.0814 209.56C30.3799 208.86 29.8317 208.046 29.4368 207.119C29.0404 206.193 28.8434 205.22 28.8434 204.203C28.8434 203.187 29.0408 202.215 29.4368 201.288C29.8313 200.363 30.3795 199.548 31.0814 198.847C31.7814 198.147 32.5951 197.599 33.522 197.203C34.4489 196.807 35.421 196.61 36.4372 196.61C37.5906 196.61 38.7153 196.875 39.8113 197.407C39.9687 196.988 40.2367 196.645 40.6154 196.372C40.9941 196.102 41.4037 195.966 41.8449 195.966C42.1155 195.966 42.3876 196.023 42.6585 196.135C42.9291 196.248 43.1666 196.407 43.3703 196.61C43.5729 196.814 43.7317 197.051 43.845 197.322C43.9571 197.593 44.0145 197.865 44.0145 198.136V209.272C44.0145 209.882 44.2748 210.356 44.7947 210.697C45.2576 211.001 45.7936 211.154 46.4044 211.154C47.1044 211.154 47.7152 210.679 48.2354 209.73C48.6196 209.04 48.9354 208.052 49.1847 206.764C49.3542 205.837 49.438 204.983 49.438 204.203C49.438 203.029 49.2861 201.887 48.9806 200.78C48.6751 199.673 48.235 198.628 47.6588 197.643C46.5172 195.711 44.9568 194.152 42.9806 192.965C41.9964 192.389 40.9507 191.949 39.8437 191.643C38.7366 191.338 37.595 191.186 36.4203 191.186C34.0812 191.186 31.8995 191.779 29.8766 192.965C28.9045 193.53 28.0228 194.212 27.2324 195.008C26.4415 195.804 25.7639 196.683 25.1988 197.643C24.612 198.615 24.1653 199.658 23.8598 200.772C23.5543 201.884 23.4024 203.028 23.4024 204.203C23.4024 206.554 24.0013 208.736 25.1988 210.747C25.7642 211.707 26.4415 212.586 27.2324 213.382C28.0233 214.179 28.9046 214.859 29.8766 215.425C30.8608 216.011 31.9024 216.458 33.004 216.764C34.1066 217.069 35.2446 217.221 36.4207 217.221C37.2343 217.221 38.0197 217.13 38.7759 216.95C39.5337 216.769 40.483 216.498 41.6242 216.137C41.6683 216.125 41.7816 216.092 41.9628 216.034C42.1429 215.978 42.3187 215.95 42.4882 215.95C42.7588 215.95 43.0309 216.006 43.3018 216.119C43.5724 216.233 43.8099 216.39 44.0136 216.594C44.2162 216.797 44.375 217.034 44.4883 217.306C44.6005 217.577 44.6578 217.848 44.6578 218.12C44.6578 219.002 44.0978 219.724 42.9801 220.289C42.076 220.752 40.905 221.091 39.4703 221.306C38.4541 221.475 37.4367 221.56 36.4205 221.56C34.8601 221.56 33.3438 221.354 31.8688 220.942C30.3937 220.529 29.0013 219.939 27.6906 219.171C26.4023 218.425 25.2261 217.521 24.1647 216.458C23.1018 215.397 22.1977 214.221 21.4524 212.932C20.6844 211.622 20.0935 210.229 19.6813 208.754C19.2691 207.279 19.0625 205.763 19.0625 204.203C19.0625 202.644 19.2691 201.123 19.6813 199.643C20.0935 198.162 20.6839 196.768 21.4524 195.457C22.1977 194.179 23.1021 193.009 24.1647 191.948C25.2261 190.885 26.4023 189.975 27.6906 189.218C29.0014 188.462 30.3937 187.876 31.8688 187.464C33.3439 187.052 34.8598 186.845 36.4205 186.845C37.9806 186.847 39.4983 187.049 40.9716 187.456ZM35.2 201.204C34.8055 201.374 34.4543 201.611 34.1492 201.916C33.8451 202.221 33.6077 202.571 33.4385 202.968C33.2676 203.362 33.1837 203.776 33.1837 204.204C33.1837 204.634 33.2675 205.046 33.4385 205.441C33.608 205.838 33.8451 206.188 34.1492 206.492C34.4547 206.798 34.8051 207.035 35.2 207.205C35.5964 207.374 36.0081 207.459 36.4375 207.459C36.867 207.459 37.2762 207.377 37.667 207.214C38.0563 207.05 38.4046 206.815 38.7082 206.51C39.0137 206.204 39.2509 205.857 39.4204 205.467C39.5899 205.077 39.6752 204.668 39.6752 204.238C39.6752 203.797 39.5924 203.377 39.4296 202.975C39.2656 202.574 39.0307 202.22 38.7255 201.916C38.42 201.611 38.0733 201.374 37.6824 201.204C37.2931 201.035 36.8783 200.949 36.4367 200.949C36.0081 200.949 35.5959 201.035 35.2 201.204Z" fill="white"/>
<path d="M90.3759 72.097C110.285 72.097 126.424 55.9575 126.424 36.0485C126.424 16.1395 110.285 0 90.3759 0C70.4669 0 54.3274 16.1395 54.3274 36.0485C54.3274 55.9575 70.4669 72.097 90.3759 72.097Z" fill="#F7C6C8"/>
<path d="M112.626 17.1917C120.342 27.046 102.972 43.5753 111.386 49.0491C111.386 49.0491 103.704 54.3229 98.5354 48.0263C93.7793 42.2318 99.4236 32.3855 99.4787 25.1363C99.5199 19.7026 94.6064 16.9774 94.6064 16.9774C94.6064 16.9774 105.016 7.47112 112.626 17.1917Z" fill="#EE8F94"/>
<path d="M90.3759 72.097C97.5784 72.097 104.282 69.9763 109.912 66.3374C107.726 64.054 105.418 62.1295 103.047 60.6901C102.407 60.2369 101.743 59.816 101.054 59.4322H101.062C101.062 59.4322 101.039 59.4215 101.021 59.413C100.64 59.2018 100.255 58.9992 99.8604 58.8105C98.2182 57.8848 95.4727 56.0224 95.4727 53.9074C95.4727 50.8923 95.4727 45.3824 95.4727 45.3824H85.2588C85.2588 45.3824 85.2588 50.8923 85.2588 53.9074C85.2588 56.9224 79.6691 59.4322 79.6691 59.4322H79.7348C79.1089 59.781 78.5024 60.1595 77.9161 60.5659C75.4721 62.0196 73.091 63.9872 70.8403 66.3378C76.4705 69.9764 83.1736 72.097 90.3759 72.097Z" fill="#EE8F94"/>
<path d="M90.2707 43.6098C99.36 43.6098 106.728 36.9806 106.728 28.8032C106.728 20.6257 99.36 13.9966 90.2707 13.9966C81.1814 13.9966 73.813 20.6257 73.813 28.8032C73.813 36.9806 81.1814 43.6098 90.2707 43.6098Z" fill="#EE8F94"/>
<path d="M90.2708 18.7903C83.3189 18.7903 77.6833 24.4259 77.6833 31.3778C77.6833 40.2056 82.8884 50.1571 90.5018 50.1571C98.1152 50.1571 102.858 40.2056 102.858 31.3778C102.858 24.4259 97.2227 18.7903 90.2708 18.7903Z" fill="#EE8F94"/>
<path d="M91.7371 18.3294C91.2577 19.4894 93.196 22.7902 89.1286 25.7994C85.1337 28.755 80.5723 35.4746 80.0597 38.7841C79.3073 43.6417 75.7135 44.2931 73.4752 42.9282C73.4752 42.9282 76.5658 40.0397 71.707 35.8906C68.8717 33.4694 66.1888 27.1457 69.242 21.868C76.4011 9.49347 91.7371 18.3294 91.7371 18.3294Z" fill="#EE8F94"/>
<defs>
<radialGradient id="paint0_radial" cx="0" cy="0" r="1" gradientUnits="userSpaceOnUse" gradientTransform="translate(91.4329 92.0123) rotate(-17.4637) scale(8.68834)">
<stop stop-color="#797673"/>
<stop offset="0.1474" stop-color="#898683"/>
<stop offset="0.5101" stop-color="#ABA9A7"/>
<stop offset="0.8073" stop-color="#C0BEBC"/>
<stop offset="1" stop-color="#C8C6C4"/>
</radialGradient>
</defs>
</svg>
