<svg width="16" height="12" viewBox="0 0 16 12" fill="none" xmlns="http://www.w3.org/2000/svg">
<path d="M8 7C9.38071 7 10.5 5.88071 10.5 4.5C10.5 3.11929 9.38071 2 8 2C6.61929 2 5.5 3.11929 5.5 4.5C5.5 5.88071 6.61929 7 8 7ZM8 6C7.17157 6 6.5 5.32843 6.5 4.5C6.5 3.67157 7.17157 3 8 3C8.82843 3 9.5 3.67157 9.5 4.5C9.5 5.32843 8.82843 6 8 6ZM0 1.5C0 0.671572 0.671573 0 1.5 0H14.5C15.3284 0 16 0.671573 16 1.5V10.5C16 11.3284 15.3284 12 14.5 12H1.5C0.671573 12 0 11.3284 0 10.5V1.5ZM5 11H11V9.5C11 9.22386 10.7761 9 10.5 9H5.5C5.22386 9 5 9.22386 5 9.5V11ZM12 11H14.5C14.7761 11 15 10.7761 15 10.5V1.5C15 1.22386 14.7761 1 14.5 1H1.5C1.22386 1 1 1.22386 1 1.5V10.5C1 10.7761 1.22386 11 1.5 11H4V9.5C4 8.67157 4.67157 8 5.5 8H10.5C11.3284 8 12 8.67157 12 9.5V11Z" fill="#242424"/>
</svg>
