<svg width="48" height="48" viewBox="0 0 48 48" fill="none" xmlns="http://www.w3.org/2000/svg">
<rect x="0.5" y="0.5" width="47" height="47" fill="#FAF2FA" stroke="#FAF9F8"/>
<path d="M26.8269 9.87695H21.1731C20.5039 9.87695 19.9615 10.4349 19.9615 11.1231C19.9615 11.8113 20.5039 12.3693 21.1731 12.3693H26.8269C27.496 12.3693 28.0384 11.8113 28.0384 11.1231C28.0384 10.4349 27.496 9.87695 26.8269 9.87695ZM26.8269 7.38464C28.667 7.38464 30.1877 8.79107 30.4283 10.6158L30.4502 10.8406L30.4392 10.7068L33.2884 10.7077C35.2958 10.7077 36.9231 12.3815 36.9231 14.4462V36.877C36.9231 38.9416 35.2958 40.6154 33.2884 40.6154H14.7115C12.7042 40.6154 11.0769 38.9416 11.0769 36.877V14.4462C11.0769 12.3815 12.7042 10.7077 14.7115 10.7077L17.5607 10.7068L17.5481 10.8406L17.5716 10.6158C17.8123 8.79107 19.333 7.38464 21.1731 7.38464H26.8269ZM27.2308 32.3077H17.5384C16.8693 32.3077 16.3269 32.8656 16.3269 33.5539C16.3269 34.2421 16.8693 34.8 17.5384 34.8H27.2308C27.8999 34.8 28.4423 34.2421 28.4423 33.5539C28.4423 32.8656 27.8999 32.3077 27.2308 32.3077ZM24 25.6616H17.5384C16.8693 25.6616 16.3269 26.2195 16.3269 26.9077C16.3269 27.596 16.8693 28.1539 17.5384 28.1539H24C24.6691 28.1539 25.2115 27.596 25.2115 26.9077C25.2115 26.2195 24.6691 25.6616 24 25.6616ZM30.4615 19.0154H17.5384C16.8693 19.0154 16.3269 19.5733 16.3269 20.2616C16.3269 20.9498 16.8693 21.5077 17.5384 21.5077H30.4615C31.1306 21.5077 31.6731 20.9498 31.6731 20.2616C31.6731 19.5733 31.1306 19.0154 30.4615 19.0154Z" fill="#930093"/>
</svg>
