<svg width="20" height="20" viewBox="0 0 20 20" fill="none" xmlns="http://www.w3.org/2000/svg">
<path d="M6.76779 4.92224L6.76885 4.92158L6.77855 4.91561C6.78792 4.90989 6.80302 4.9008 6.82356 4.88881C6.86466 4.86481 6.92741 4.82927 7.00944 4.786C7.17373 4.69934 7.414 4.5824 7.71144 4.46518C8.30989 4.22934 9.12055 4 9.99999 4C10.8794 4 11.6901 4.22934 12.2885 4.46518C12.586 4.5824 12.8263 4.69934 12.9905 4.786C13.0726 4.82927 13.1353 4.86481 13.1764 4.88881C13.197 4.9008 13.2121 4.90989 13.2214 4.91561L13.2311 4.92158L13.232 4.92211C13.465 5.06955 13.7742 5.0009 13.9221 4.768C14.0701 4.53488 14.0011 4.22591 13.768 4.07789L13.7668 4.07713L13.765 4.076L13.7597 4.07268L13.7422 4.06193C13.7276 4.053 13.707 4.04061 13.6807 4.02526C13.6281 3.99457 13.5528 3.95198 13.4571 3.9015C13.2659 3.80066 12.9921 3.6676 12.6552 3.53482C11.9849 3.27066 11.0455 3 9.99999 3C8.95444 3 8.0151 3.27066 7.3448 3.53482C7.00786 3.6676 6.73407 3.80066 6.54289 3.9015C6.44719 3.95198 6.37185 3.99457 6.3193 4.02526C6.29301 4.04061 6.27239 4.053 6.25775 4.06193L6.24029 4.07268L6.23498 4.076L6.23319 4.07713L6.23223 4.07774C5.99911 4.22575 5.92987 4.53488 6.07789 4.768C6.22586 5.00106 6.53469 5.07008 6.76779 4.92224ZM6 6C4.89543 6 4 6.89543 4 8V12C4 13.1046 4.89543 14 6 14H10C11.1046 14 12 13.1046 12 12V8C12 6.89543 11.1046 6 10 6H6ZM16 7.5C16 7.31062 15.893 7.13749 15.7236 7.05279C15.5542 6.96809 15.3515 6.98637 15.2 7.1L13.2 8.6C13.0741 8.69443 13 8.84262 13 9V11C13 11.1574 13.0741 11.3056 13.2 11.4L15.2 12.9C15.3515 13.0136 15.5542 13.0319 15.7236 12.9472C15.893 12.8625 16 12.6894 16 12.5V7.5ZM6.76885 15.0785L6.76779 15.0778C6.53469 14.93 6.22586 14.999 6.07789 15.2321C5.92987 15.4652 5.99911 15.7743 6.23223 15.9223L6.23319 15.9229L6.23498 15.9241L6.24029 15.9274L6.25775 15.9381C6.27239 15.9471 6.29301 15.9595 6.3193 15.9748C6.37185 16.0055 6.44719 16.0481 6.54289 16.0986C6.73407 16.1994 7.00786 16.3325 7.3448 16.4652C8.0151 16.7294 8.95444 17.0001 9.99999 17.0001C11.0455 17.0001 11.9849 16.7294 12.6552 16.4652C12.9921 16.3325 13.2659 16.1994 13.4571 16.0986C13.5528 16.0481 13.6281 16.0055 13.6807 15.9748C13.707 15.9595 13.7276 15.9471 13.7422 15.9381L13.7597 15.9274L13.765 15.9241L13.7668 15.9229L13.768 15.9222C14.0011 15.7742 14.0701 15.4652 13.9221 15.2321C13.7742 14.9992 13.465 14.9305 13.232 15.078L13.2311 15.0785L13.2214 15.0845C13.2121 15.0902 13.197 15.0993 13.1764 15.1113C13.1353 15.1353 13.0726 15.1708 12.9905 15.2141C12.8263 15.3007 12.586 15.4177 12.2885 15.5349C11.6901 15.7707 10.8794 16.0001 9.99999 16.0001C9.12055 16.0001 8.30989 15.7707 7.71144 15.5349C7.414 15.4177 7.17373 15.3007 7.00944 15.2141C6.92741 15.1708 6.86466 15.1353 6.82356 15.1113C6.80302 15.0993 6.78792 15.0902 6.77855 15.0845L6.76885 15.0785Z" fill="white"/>
</svg>
