<svg width="32" height="32" viewBox="0 0 32 32" fill="none" xmlns="http://www.w3.org/2000/svg">
<g clip-path="url(#clip0)">
<g clip-path="url(#clip1)">
<mask id="mask0" mask-type="alpha" maskUnits="userSpaceOnUse" x="-1" y="0" width="33" height="32">
<path d="M0.485391 14.683C-0.174405 15.437 -0.174406 16.563 0.48539 17.317L12.3296 30.8532C12.8608 31.4603 13.8052 31.4603 14.3364 30.8532L15.6121 29.3953L17.0175 30.9284C17.5459 31.5049 18.4548 31.5049 18.9832 30.9284L31.4282 17.3521C32.1291 16.5875 32.1291 15.4138 31.4282 14.6492L18.9832 1.07288C18.4547 0.496386 17.5459 0.496386 17.0175 1.07288L15.6127 2.60535L14.3364 1.14678C13.8052 0.539681 12.8608 0.539679 12.3296 1.14678L0.485391 14.683Z" fill="#C4C4C4"/>
</mask>
<g mask="url(#mask0)">
<path d="M13.333 32L-0.666993 16L13.333 -9.53674e-07L27.333 16L13.333 32Z" fill="url(#paint0_linear)"/>
<path opacity="0.5" d="M18.0003 0.5L32.667 16.5L18.0003 32.5L11.9058 25.8515C11.2049 25.0868 11.2049 23.9132 11.9058 23.1486L16.7615 17.8514C17.4624 17.0868 17.4624 15.9132 16.7615 15.1486L11.9058 9.85145C11.2049 9.08681 11.2049 7.91319 11.9058 7.14855L18.0003 0.5Z" fill="black" stroke="black" stroke-opacity="0.5"/>
<path d="M18.0003 0L32.667 16L18.0003 32L11.9058 25.3515C11.2049 24.5868 11.2049 23.4132 11.9058 22.6486L16.7615 17.3514C17.4624 16.5868 17.4624 15.4132 16.7615 14.6486L11.9058 9.35145C11.2049 8.58681 11.2049 7.41319 11.9058 6.64855L18.0003 0Z" fill="url(#paint1_linear)"/>
<path d="M24.3505 9.07222C24.8789 8.49574 25.7878 8.49573 26.3162 9.07222L31.4278 14.6486C32.1288 15.4132 32.1288 16.5868 31.4278 17.3514L26.3162 22.9278C25.7878 23.5043 24.8789 23.5043 24.3505 22.9278L19.2388 17.3515C18.5379 16.5868 18.5379 15.4132 19.2388 14.6486L24.3505 9.07222Z" fill="url(#paint2_linear)"/>
</g>
</g>
</g>
<defs>
<linearGradient id="paint0_linear" x1="23.6663" y1="32.0001" x2="4.99967" y2="-13.6666" gradientUnits="userSpaceOnUse">
<stop stop-color="#742774"/>
<stop offset="1" stop-color="#BB35A4"/>
</linearGradient>
<linearGradient id="paint1_linear" x1="10.6673" y1="8.12e-05" x2="26.0007" y2="32.0001" gradientUnits="userSpaceOnUse">
<stop stop-color="#E48CC7"/>
<stop offset="1" stop-color="#D467B9"/>
</linearGradient>
<linearGradient id="paint2_linear" x1="20.6667" y1="9.66675" x2="25.3333" y2="24" gradientUnits="userSpaceOnUse">
<stop stop-color="#E9A1CB"/>
<stop offset="1" stop-color="#E48CC7"/>
</linearGradient>
<clipPath id="clip0">
<rect width="32" height="32" fill="white"/>
</clipPath>
<clipPath id="clip1">
<rect width="32" height="32" fill="white"/>
</clipPath>
</defs>
</svg>
