<svg width="32" height="32" viewBox="0 0 32 32" fill="none" xmlns="http://www.w3.org/2000/svg">
<path fill-rule="evenodd" clip-rule="evenodd" d="M26.6165 9.12703L20.1762 1.80979C19.2471 0.754161 17.6022 0.754158 16.6731 1.80979L15.7574 2.85025L14.952 1.89346C14.0235 0.79043 12.3268 0.785028 11.3914 1.88213L0.644248 14.4861C-0.0995133 15.3584 -0.0995162 16.6417 0.644247 17.514L11.3914 30.118C12.3268 31.2151 14.0235 31.2097 14.952 30.1067L15.7574 29.1498L16.6731 30.1902C17.6022 31.2458 19.2471 31.2458 20.1762 30.1902L26.6129 22.877C26.6189 22.8703 26.6249 22.8636 26.6308 22.8569L31.309 17.5416C32.0847 16.6603 32.0847 15.3398 31.309 14.4584L26.6308 9.14316C26.626 9.13776 26.6213 9.13238 26.6165 9.12703ZM18.6749 3.13117C18.5422 2.98036 18.3072 2.98037 18.1744 3.13117L13.4962 8.44641C13.3854 8.57232 13.3854 8.76097 13.4962 8.88687L18.4 14.4584C18.4083 14.4679 18.4166 14.4774 18.4248 14.487C18.4329 14.4774 18.4412 14.4679 18.4495 14.4584L23.1277 9.14316C23.2709 8.98049 23.4311 8.84289 23.603 8.73035L18.6749 3.13117ZM25.124 10.4585L29.8075 15.7797C29.9183 15.9057 29.9183 16.0943 29.8075 16.2202L25.1227 21.543C24.9888 21.6863 24.7595 21.6837 24.629 21.5355L19.9508 16.2202C19.84 16.0943 19.84 15.9057 19.9508 15.7798L24.629 10.4645C24.76 10.3158 24.9904 10.3138 25.124 10.4585ZM23.603 23.2697L18.6749 28.8688C18.5422 29.0196 18.3072 29.0196 18.1744 28.8688L13.4962 23.5535C13.3854 23.4276 13.3854 23.239 13.4962 23.1131L18.4 17.5416C18.4083 17.5321 18.4166 17.5226 18.4247 17.513C18.4329 17.5226 18.4412 17.5321 18.4495 17.5416L23.1277 22.8569C23.2709 23.0195 23.431 23.1571 23.603 23.2697ZM11.9949 24.8749L14.4212 27.6316L13.4219 28.8187C13.2893 28.9763 13.0469 28.9771 12.9132 28.8203L2.16611 16.2163C2.05986 16.0917 2.05986 15.9084 2.16611 15.7838L12.9132 3.17979C13.0469 3.02306 13.2893 3.02383 13.4219 3.18141L14.4211 4.36847L11.9949 7.12503C11.2192 8.00639 11.2192 9.32689 11.9949 10.2083L16.8987 15.7797C17.0095 15.9057 17.0095 16.0943 16.8987 16.2202L11.9949 21.7917C11.2192 22.6731 11.2192 23.9936 11.9949 24.8749Z" fill="white"/>
</svg>
