<svg id="Layer_1" data-name="Layer 1" xmlns="http://www.w3.org/2000/svg" viewBox="0 0 24 24"><defs><style>.cls-1{fill:#212121;}</style></defs><path class="cls-1" d="M5.12,4.5A3.12,3.12,0,0,0,2,7.62v8.76A3.12,3.12,0,0,0,5.12,19.5h8.76A3.12,3.12,0,0,0,17,16.38V15.12l3,2.26a1.25,1.25,0,0,0,2-1V7.62a1.25,1.25,0,0,0-2-1L17,8.87V7.62A3.12,3.12,0,0,0,13.88,4.5ZM17,10.44l3.75-2.82v8.76L17,13.56ZM15.75,7.62v8.76a1.87,1.87,0,0,1-1.87,1.87H5.12a1.87,1.87,0,0,1-1.87-1.87V7.62A1.87,1.87,0,0,1,5.12,5.75h8.76A1.87,1.87,0,0,1,15.75,7.62Z"/></svg>