<svg width="96" height="96" viewBox="0 0 96 96" fill="none" xmlns="http://www.w3.org/2000/svg">
<g clip-path="url(#clip0)">
<path d="M95.94 40.0802L90.78 8.40021C90.54 6.78021 88.98 5.64021 87.36 5.94021L71.52 8.52021L70.92 4.98021C70.8 4.08021 69.96 3.48021 69.06 3.60021L47.58 7.14021C46.68 7.26021 46.08 8.10021 46.2 9.00021L46.8 12.5402L30.18 15.2402C28.56 15.4802 27.42 17.0402 27.72 18.6602L32.82 50.4002C33.06 52.0202 34.62 53.1602 36.24 52.8602L93.48 43.5602C95.1 43.2602 96.24 41.7002 95.94 40.0802Z" fill="url(#paint0_radial)"/>
<path d="M81.72 92.2799L2.88001 82.0799C1.08001 81.8399 -0.239994 80.1599 6.39446e-06 78.3599L5.94001 32.3999C6.18001 30.5999 7.86001 29.2799 9.66001 29.5199L88.5 39.7199C90.3 39.9599 91.62 41.6399 91.38 43.4399L85.44 89.3999C85.2 91.2599 83.52 92.5199 81.72 92.2799Z" fill="#C3F2F4"/>
<path d="M27.48 56.1C30.8268 56.1 33.54 53.3868 33.54 50.04C33.54 46.6931 30.8268 43.98 27.48 43.98C24.1331 43.98 21.42 46.6931 21.42 50.04C21.42 53.3868 24.1331 56.1 27.48 56.1Z" fill="#7BDDEF"/>
<path d="M36.3 70.9799L36.12 72.5998C35.94 73.9798 34.68 74.9998 33.24 74.8198L15.6 72.5398C14.22 72.3598 13.2 71.0998 13.38 69.6598L13.62 67.7998C14.46 61.3798 20.4 56.9398 26.82 57.9598C33 58.9798 37.14 64.8599 36.3 70.9799Z" fill="#7BDDEF"/>
<path d="M79.38 61.9201L51.48 58.3201C50.1 58.1401 49.14 56.8801 49.32 55.5601C49.5 54.1801 50.76 53.2201 52.08 53.4001L79.98 57.0001C81.36 57.1801 82.32 58.4401 82.14 59.7601C82.02 61.1401 80.76 62.1001 79.38 61.9201Z" fill="#7BDDEF"/>
<path d="M69.72 72.3601L49.98 69.8401C48.6 69.6601 47.64 68.4001 47.82 67.0801C48 65.7001 49.26 64.7401 50.58 64.9201L70.32 67.4401C71.7 67.6201 72.66 68.8801 72.48 70.2001C72.3 71.5801 71.04 72.5401 69.72 72.3601Z" fill="#7BDDEF"/>
<path d="M76.32 46.86L45.36 42.84C44.16 42.66 43.32 41.58 43.5 40.38L44.82 30C45 28.8 46.08 27.96 47.28 28.14L78.24 32.16C79.44 32.34 80.28 33.42 80.1 34.62L78.78 45C78.6 46.2 77.52 47.04 76.32 46.86Z" fill="#C3F2F4"/>
</g>
<defs>
<radialGradient id="paint0_radial" cx="0" cy="0" r="1" gradientUnits="userSpaceOnUse" gradientTransform="translate(57.5451 59.2215) rotate(103.621) scale(43.3634 63.6731)">
<stop offset="0.00065331" stop-color="#3E8EED"/>
<stop offset="1" stop-color="#72ACF1"/>
</radialGradient>
<clipPath id="clip0">
<rect width="96" height="88.74" fill="white" transform="translate(0 3.6001)"/>
</clipPath>
</defs>
</svg>
