<svg width="276" height="162" viewBox="0 0 276 162" fill="none" xmlns="http://www.w3.org/2000/svg">
<path d="M186.025 80.5747H91.8257" stroke="#E1DFDD" stroke-width="3" stroke-miterlimit="10" stroke-linecap="round" stroke-linejoin="round" stroke-dasharray="5 8"/>
<path d="M136.801 126.85H98.5974C94.0617 126.85 90.3848 123.173 90.3848 118.637V46.4094C90.3848 41.8737 94.0617 38.1968 98.5974 38.1968H125.805" stroke="#E1DFDD" stroke-width="3" stroke-miterlimit="10" stroke-linecap="round" stroke-linejoin="round" stroke-dasharray="5 8"/>
<path d="M79.9547 80.5749C79.9547 95.7506 67.6523 108.053 52.4766 108.053C37.3009 108.053 24.9985 95.7506 24.9985 80.5748C24.9985 65.399 37.3009 53.0967 52.4766 53.0967C60.6615 53.0967 68.0106 56.6753 73.0445 62.3533C77.3441 67.203 79.9547 73.5841 79.9547 80.5749Z" fill="#8B8CC4"/>
<path d="M65.9351 61.8492H38.5505L36.5713 60.7288L38.5505 59.6084H65.9351C66.4105 59.6084 66.7994 60.1126 66.7994 60.7288C66.7993 61.345 66.4105 61.8492 65.9351 61.8492Z" fill="#EE8F94"/>
<path d="M52.4947 66.9577C57.341 66.9577 61.2697 63.029 61.2697 58.1827C61.2697 53.3364 57.341 49.4077 52.4947 49.4077C47.6484 49.4077 43.7197 53.3364 43.7197 58.1827C43.7197 63.029 47.6484 66.9577 52.4947 66.9577Z" fill="#594539"/>
<path d="M52.4947 66.9577C57.341 66.9577 61.2697 63.029 61.2697 58.1827C61.2697 53.3364 57.341 49.4077 52.4947 49.4077C47.6484 49.4077 43.7197 53.3364 43.7197 58.1827C43.7197 63.029 47.6484 66.9577 52.4947 66.9577Z" fill="url(#paint0_radial)"/>
<path d="M57.0638 85.269H46.6055V105.681H57.0638V85.269Z" fill="#E0BB95"/>
<path d="M57.0638 85.269H46.6055V105.681H57.0638V85.269Z" fill="url(#paint1_radial)"/>
<path d="M36.6099 103.002C36.7541 103.104 36.8957 103.21 37.0418 103.309H67.5873C63.2881 100.607 58.2052 99.0444 52.7528 99.0444H50.9168C45.6828 99.0445 40.7943 100.496 36.6099 103.002Z" fill="#E0BB95"/>
<path d="M52.4951 94.3549C62.0044 94.3549 69.7133 86.646 69.7133 77.1367C69.7133 67.6273 62.0044 59.9185 52.4951 59.9185C42.9857 59.9185 35.2769 67.6273 35.2769 77.1367C35.2769 86.646 42.9857 94.3549 52.4951 94.3549Z" fill="#594539"/>
<path d="M52.4947 94.5627C59.8107 94.5627 65.7414 88.632 65.7414 81.316C65.7414 74.0001 59.8107 68.0693 52.4947 68.0693C45.1788 68.0693 39.248 74.0001 39.248 81.316C39.248 88.632 45.1788 94.5627 52.4947 94.5627Z" fill="#E0BB95"/>
<path d="M52.4768 108.053C58.1282 108.053 63.3797 106.345 67.7472 103.419C67.6926 103.385 67.6424 103.343 67.5875 103.309H37.042C41.4418 106.302 46.7543 108.053 52.4768 108.053Z" fill="#EE8F94"/>
<path d="M43.9395 106.693V99.9238C41.3255 100.596 38.8658 101.648 36.6069 103C38.8299 104.576 41.2954 105.83 43.9395 106.693Z" fill="#EAEAF3"/>
<path d="M67.7963 103.388C65.3683 101.846 62.6924 100.66 59.833 99.9238V107.049C62.7027 106.253 65.3862 105.01 67.7963 103.388Z" fill="#EAEAF3"/>
<path d="M47.041 88.5322C44.1611 88.5322 41.8174 86.1884 41.8174 83.3081C41.8174 80.4278 44.1612 78.084 47.041 78.084C49.9219 78.084 52.2656 80.4278 52.2656 83.3081C52.2656 86.1884 49.9218 88.5322 47.041 88.5322ZM47.041 79.3867C44.8789 79.3867 43.1201 81.146 43.1201 83.3081C43.1201 85.4702 44.8789 87.2295 47.041 87.2295C49.2031 87.2295 50.9629 85.4702 50.9629 83.3081C50.9629 81.146 49.2031 79.3867 47.041 79.3867Z" fill="#8B8CC4"/>
<path d="M57.8301 88.5322C54.9492 88.5322 52.6055 86.1884 52.6055 83.3081C52.6055 80.4278 54.9493 78.084 57.8301 78.084C60.71 78.084 63.0537 80.4278 63.0537 83.3081C63.0537 86.1884 60.7099 88.5322 57.8301 88.5322ZM57.8301 79.3867C55.668 79.3867 53.9082 81.146 53.9082 83.3081C53.9082 85.4702 55.668 87.2295 57.8301 87.2295C59.9922 87.2295 61.751 85.4702 61.751 83.3081C61.751 81.146 59.9923 79.3867 57.8301 79.3867Z" fill="#8B8CC4"/>
<path d="M53.4599 81.3062H51.4111V82.6088H53.4599V81.3062Z" fill="#8B8CC4"/>
<g opacity="0.5">
<path opacity="0.5" d="M50.6395 89.2859C51.0699 89.402 51.3951 89.4219 51.7077 89.3985C52.0176 89.366 52.3208 89.3064 52.6222 89.193C52.9265 89.0926 53.2229 88.946 53.5132 88.782C53.7998 88.605 54.0732 88.4246 54.3631 88.1131L54.4052 88.0679C54.5251 87.939 54.7268 87.9318 54.8556 88.0517C54.9035 88.0963 54.9346 88.1521 54.9486 88.2114C55.0827 88.776 54.8588 89.3774 54.514 89.812C54.169 90.2621 53.6889 90.5796 53.1581 90.7657C52.6253 90.9374 52.0232 90.9827 51.4612 90.7968C50.9016 90.6255 50.4097 90.2149 50.2162 89.7023C50.1532 89.5353 50.2374 89.3488 50.4044 89.2858C50.4704 89.2609 50.5394 89.259 50.6027 89.2761L50.6395 89.2859Z" fill="#9B643D"/>
</g>
<path d="M47.0413 85.2604C47.6283 85.2604 48.1041 84.4211 48.1041 83.3858C48.1041 82.3505 47.6283 81.5112 47.0413 81.5112C46.4543 81.5112 45.9785 82.3505 45.9785 83.3858C45.9785 84.4211 46.4543 85.2604 47.0413 85.2604Z" fill="#33312D"/>
<path d="M57.7122 85.2604C58.2992 85.2604 58.775 84.4211 58.775 83.3858C58.775 82.3505 58.2992 81.5112 57.7122 81.5112C57.1252 81.5112 56.6494 82.3505 56.6494 83.3858C56.6494 84.4211 57.1252 85.2604 57.7122 85.2604Z" fill="#33312D"/>
<path d="M59.9021 61.5848C58.6394 60.9784 57.284 60.5289 55.8643 60.2508C55.8643 60.2509 55.8642 60.2509 55.8642 60.251C55.8642 60.2509 55.8643 60.2508 55.8643 60.2508C54.78 60.0296 53.6528 59.9155 52.4971 59.9155C43.173 59.9155 35.5825 67.3277 35.29 76.5804C37.9224 78.7563 41.3039 80.0618 44.9849 80.0618C50.3068 80.0618 54.9867 77.3366 57.7119 73.206C57.7118 73.2059 57.7118 73.2058 57.7117 73.2056C57.7118 73.2057 57.7118 73.2059 57.7119 73.206C57.9125 72.9046 57.9125 72.9047 57.7119 73.2061C60.2658 77.0799 64.5462 79.7193 69.4615 80.0262C69.6256 79.0845 69.7112 78.1214 69.7112 77.1369C69.7112 70.2811 65.7019 64.3599 59.9021 61.5848Z" fill="#594539"/>
<path d="M251.206 80.4987C251.206 95.7163 238.87 108.053 223.653 108.053C208.435 108.053 196.099 95.7163 196.099 80.4987C196.099 65.2811 208.435 52.9448 223.653 52.9448C231.86 52.9448 239.229 56.5333 244.277 62.2269C248.589 67.0899 251.206 73.4886 251.206 80.4987Z" fill="#E0E0F4"/>
<path d="M224 108C230.129 108 236.677 105.631 241 102C240.097 94.0383 232.258 88 224 88C215.678 88 207.903 94.5383 207 102.5C211.258 106.131 217.871 108 224 108Z" fill="#BBBBE4"/>
<path d="M224 86C228.971 86 233 81.9706 233 77C233 72.0294 228.971 68 224 68C219.029 68 215 72.0294 215 77C215 81.9706 219.029 86 224 86Z" fill="#BBBBE4"/>
<path d="M196.108 125.572C196.108 140.79 183.771 153.126 168.554 153.126C153.336 153.126 141 140.79 141 125.572C141 110.355 153.336 98.0186 168.554 98.0186C176.761 98.0186 184.131 101.607 189.179 107.301C193.49 112.164 196.108 118.562 196.108 125.572Z" fill="#EE8F94"/>
<path d="M168.554 153.127C177.782 153.127 185.944 148.586 190.945 141.621C188.27 130.509 186.959 120.534 186.322 114.019C186.32 113.999 186.298 113.982 186.293 113.963C185.136 103.962 177.531 96.1572 168.187 96.0023C158.089 95.835 149.771 104.663 149.385 115.809C149.379 115.825 149.357 115.84 149.354 115.855C149.216 121.633 147.344 130.566 144.888 139.684C149.698 147.734 158.495 153.127 168.554 153.127Z" fill="#3A312E"/>
<path d="M157.679 124.307C157.699 122.954 156.662 121.841 155.364 121.822C154.065 121.802 152.996 122.884 152.976 124.237C152.956 125.59 153.992 126.702 155.291 126.722C156.589 126.741 157.659 125.66 157.679 124.307Z" fill="#E3646A"/>
<path d="M168.554 153.126C176.572 153.126 183.787 149.699 188.822 144.233C183.895 141.512 178.443 139.28 172.816 137.733C173.07 138.372 173.308 139.009 173.53 139.642C171.756 139.089 169.871 138.791 167.916 138.791C164.965 138.791 162.184 139.488 159.697 140.697C159.421 140.676 159.145 140.655 158.863 140.655C155.018 140.655 151.65 142.664 149.729 145.684C154.655 150.297 161.272 153.126 168.554 153.126Z" fill="#8B8CC7"/>
<path d="M157.602 140.669C157.636 140.695 157.67 140.703 157.704 140.72C157.789 140.754 157.875 140.788 157.96 140.822C158.232 140.933 158.513 141.035 158.82 141.129C160.371 141.632 162.27 141.998 164.4 142.177H164.409C165.985 142.313 167.663 142.347 169.426 142.262C171.181 142.186 172.851 141.998 174.393 141.717C175.313 141.547 176.19 141.351 177.008 141.129C178.124 140.831 179.129 140.482 180.007 140.09C179.393 139.851 178.771 139.63 178.158 139.408C177.707 139.246 177.247 139.093 176.795 138.94C175.134 138.224 174.205 137.202 173.686 136.29C173.464 136.256 173.251 136.222 173.03 136.188C172.97 136.188 172.919 136.18 172.859 136.171C172.561 136.137 172.272 136.103 171.973 136.077H171.965C170.772 135.975 169.554 135.95 168.31 136.009C167.476 136.043 166.658 136.12 165.848 136.239H165.84C165.61 136.265 165.38 136.299 165.15 136.341C165.022 136.358 164.903 136.384 164.784 136.401V136.708C164.784 138.079 163.838 139.272 162.5 139.579L157.602 140.669Z" fill="#BF8F68"/>
<path d="M173.031 125.281H164.785V139.68H173.031V125.281Z" fill="#BF8F68"/>
<path d="M173.026 125.278H164.783V139.685H173.026V125.278Z" fill="url(#paint2_radial)"/>
<path d="M166.356 131.678C173.159 131.678 178.674 125 178.674 116.763C178.674 108.526 173.159 101.848 166.356 101.848C159.553 101.848 154.038 108.526 154.038 116.763C154.038 125 159.553 131.678 166.356 131.678Z" fill="#BF8F68"/>
<path d="M172.282 116.555C172.298 115.489 171.797 114.618 171.163 114.609C170.53 114.599 170.003 115.455 169.987 116.521C169.971 117.586 170.472 118.457 171.106 118.467C171.74 118.476 172.266 117.62 172.282 116.555Z" fill="#3A312E"/>
<path d="M166.434 108.715L166.139 113.658C165.919 116.187 164.593 117.917 163.593 118.882C163.034 119.421 162.765 120.733 163.429 121.521C163.79 121.95 165.373 122.896 165.373 124.067L165.224 128.641L155.912 128.71L156.359 108.409L166.434 108.715Z" fill="url(#paint3_radial)"/>
<path d="M164.825 125.004C165.329 125.211 165.703 125.27 166.063 125.267C166.421 125.254 166.784 125.205 167.164 125.091C167.546 124.993 167.936 124.838 168.318 124.67C168.698 124.482 169.049 124.318 169.391 124.021L169.52 123.909C169.67 123.779 169.898 123.795 170.029 123.945C170.071 123.994 170.099 124.054 170.11 124.113C170.258 124.887 169.848 125.584 169.399 126.052C168.935 126.541 168.343 126.869 167.691 127.051C167.04 127.213 166.297 127.232 165.617 126.943C164.936 126.674 164.391 126.085 164.243 125.438C164.195 125.225 164.328 125.014 164.54 124.965C164.623 124.946 164.705 124.955 164.778 124.985L164.825 125.004Z" fill="#9B643D"/>
<path d="M154.038 104.559C154.038 104.559 156.679 105.887 159.966 104.009C162.766 102.409 165.033 104.989 166.356 106.933C169.2 111.112 173.989 114.808 178.701 114.19C182.071 113.748 182.938 102.739 173.026 99.1723C162.661 95.4421 154.038 104.559 154.038 104.559Z" fill="#3A312E"/>
<path d="M173.989 121.501H178.7C180.707 121.501 182.334 119.874 182.334 117.867C182.334 115.86 180.707 114.233 178.7 114.233H173.989V121.501Z" fill="#BF8F68"/>
<path d="M181.352 123.579C181.372 122.226 180.336 121.113 179.037 121.094C177.739 121.075 176.669 122.156 176.649 123.509C176.629 124.862 177.666 125.975 178.964 125.994C180.263 126.013 181.332 124.932 181.352 123.579Z" fill="#E3646A"/>
<path d="M173.027 134.128C173.027 134.128 173.03 136.712 175.783 138.415C176.418 138.809 172.458 140.918 172.458 140.918L173.027 134.128Z" fill="#BF8F68"/>
<path d="M165.733 140.682L164.783 133.648V136.711C164.783 137.707 164.283 138.608 163.498 139.144C163.203 139.346 165.733 140.682 165.733 140.682Z" fill="#BF8F68"/>
<path d="M160.81 118.493C161.444 118.484 161.945 117.613 161.929 116.547C161.913 115.482 161.387 114.626 160.753 114.635C160.119 114.645 159.618 115.516 159.634 116.581C159.65 117.647 160.177 118.503 160.81 118.493Z" fill="#3A312E"/>
<path d="M134.391 37.1431C134.391 52.3188 146.693 64.6212 161.869 64.6212C177.044 64.6212 189.347 52.3188 189.347 37.1431C189.347 21.9674 177.044 9.66504 161.869 9.66504C153.684 9.66504 146.335 13.2436 141.301 18.9216C137.001 23.7712 134.391 30.1523 134.391 37.1431Z" fill="#C3C3E1"/>
<path d="M179.998 57.7832C176.329 55.7642 170.691 55.5864 164.355 55.5864H159.138C152.889 55.5864 147.31 55.753 143.639 57.6955C148.49 62.0017 154.872 64.6212 161.869 64.6212C168.818 64.6212 175.159 62.0366 179.998 57.7832Z" fill="#EE8F94"/>
<path d="M149.434 29.5713C151.476 29.5713 153.131 27.9158 153.131 25.8738C153.131 23.8317 151.476 22.1763 149.434 22.1763C147.392 22.1763 145.736 23.8317 145.736 25.8738C145.736 27.9158 147.392 29.5713 149.434 29.5713Z" fill="#594539"/>
<path d="M157.634 15.0144C159.962 15.0144 161.849 13.1274 161.849 10.7997C161.849 8.47195 159.962 6.58496 157.634 6.58496C155.306 6.58496 153.419 8.47195 153.419 10.7997C153.419 13.1274 155.306 15.0144 157.634 15.0144Z" fill="#594539"/>
<path d="M152.139 17.9314C154.467 17.9314 156.354 16.0444 156.354 13.7167C156.354 11.3889 154.467 9.50195 152.139 9.50195C149.811 9.50195 147.924 11.3889 147.924 13.7167C147.924 16.0444 149.811 17.9314 152.139 17.9314Z" fill="#594539"/>
<path d="M149.205 23.7492C151.533 23.7492 153.42 21.8622 153.42 19.5345C153.42 17.2068 151.533 15.3198 149.205 15.3198C146.877 15.3198 144.99 17.2068 144.99 19.5345C144.99 21.8622 146.877 23.7492 149.205 23.7492Z" fill="#594539"/>
<path d="M173.073 29.5713C175.115 29.5713 176.77 27.9158 176.77 25.8738C176.77 23.8317 175.115 22.1763 173.073 22.1763C171.03 22.1763 169.375 23.8317 169.375 25.8738C169.375 27.9158 171.03 29.5713 173.073 29.5713Z" fill="#594539"/>
<path d="M164.735 15.1799C167.062 15.1799 168.949 13.2929 168.949 10.9652C168.949 8.63747 167.062 6.75049 164.735 6.75049C162.407 6.75049 160.52 8.63747 160.52 10.9652C160.52 13.2929 162.407 15.1799 164.735 15.1799Z" fill="#594539"/>
<path d="M170.691 18.0935C173.018 18.0935 174.905 16.2065 174.905 13.8788C174.905 11.551 173.018 9.66406 170.691 9.66406C168.363 9.66406 166.476 11.551 166.476 13.8788C166.476 16.2065 168.363 18.0935 170.691 18.0935Z" fill="#594539"/>
<path d="M166.61 21.1638C168.938 21.1638 170.825 19.2768 170.825 16.9491C170.825 14.6214 168.938 12.7344 166.61 12.7344C164.282 12.7344 162.396 14.6214 162.396 16.9491C162.396 19.2768 164.282 21.1638 166.61 21.1638Z" fill="#594539"/>
<path d="M172.996 24.5124C175.324 24.5124 177.211 22.6254 177.211 20.2977C177.211 17.97 175.324 16.083 172.996 16.083C170.669 16.083 168.782 17.97 168.782 20.2977C168.782 22.6254 170.669 24.5124 172.996 24.5124Z" fill="#594539"/>
<path d="M169.01 35.9989H153.536C150.608 35.9989 148.234 33.6251 148.234 30.6968V22.8185C148.234 16.0122 153.751 10.4946 160.558 10.4946H161.989C168.795 10.4946 174.313 16.0122 174.313 22.8185V30.6968C174.313 33.6251 171.939 35.9989 169.01 35.9989Z" fill="#594539"/>
<path d="M151.923 55.9673C152.793 57.7262 156.771 61.8845 159.369 64.5034C160.193 64.5777 161.026 64.6217 161.869 64.6217C162.592 64.6217 163.306 64.5851 164.015 64.5303C166.686 61.9061 170.788 57.6996 171.588 55.8607C167.835 54.5268 162.038 54.3433 162.038 54.3433C162.038 54.3433 155.136 54.7118 151.923 55.9673Z" fill="#9B643D"/>
<path d="M167.975 36.4844H155.144V53.3883C155.144 55.2207 151.923 55.9673 151.923 55.9673L171.588 55.8606C171.588 55.8606 167.982 55.005 167.98 53.1677L167.975 36.4844Z" fill="url(#paint4_radial)"/>
<path d="M146.103 33.7768C146.09 36.0668 147.936 37.9335 150.226 37.9462C150.381 37.9471 152.39 37.9394 152.541 37.9235C154.616 37.7062 154.384 35.9574 154.395 33.8228C154.407 31.7082 154.689 29.9545 152.645 29.6883C152.476 29.6662 150.447 29.6544 150.272 29.6534C147.982 29.6407 146.115 31.4868 146.103 33.7768Z" fill="#9B643D"/>
<path d="M162.725 48.835H159.809C154.516 48.835 150.226 44.5446 150.226 39.2522V24.763C150.226 19.4706 154.516 15.1802 159.809 15.1802H162.725C168.018 15.1802 172.308 19.4706 172.308 24.763V39.2522C172.308 44.5446 168.018 48.835 162.725 48.835Z" fill="#9B643D"/>
<path d="M166.988 30.7173C166.994 29.6099 166.512 28.7095 165.912 28.7062C165.313 28.7029 164.821 29.598 164.815 30.7054C164.809 31.8127 165.291 32.7131 165.89 32.7164C166.49 32.7197 166.982 31.8247 166.988 30.7173Z" fill="#3A312E"/>
<path d="M152.897 44.6905L160.949 44.5585L161.16 38.4679C161.161 38.0108 160.931 37.5842 160.549 37.3327L158.596 36.0451C158.171 35.7649 158.051 35.1947 158.326 34.7667L160.026 32.1267C160.431 31.4974 160.648 30.7653 160.651 30.0167L160.687 20.7061L152.229 20.8329L152.897 44.6905Z" fill="url(#paint5_radial)"/>
<path d="M157.591 30.7178C157.597 29.6104 157.115 28.71 156.515 28.7067C155.916 28.7034 155.424 29.5984 155.418 30.7058C155.412 31.8132 155.894 32.7136 156.493 32.7169C157.093 32.7202 157.585 31.8252 157.591 30.7178Z" fill="#3A312E"/>
<path d="M176.549 33.7768C176.561 36.0668 174.715 37.9335 172.425 37.9462C172.27 37.9471 170.261 37.9394 170.11 37.9235C168.035 37.7062 168.268 35.9574 168.256 33.8228C168.244 31.7082 167.962 29.9545 170.006 29.6883C170.176 29.6662 172.204 29.6544 172.379 29.6534C174.669 29.6407 176.536 31.4868 176.549 33.7768Z" fill="#9B643D"/>
<path d="M165.087 40.7361C165.067 42.1009 163.905 43.3626 162.509 43.7311C161.815 43.9233 161.07 43.9183 160.398 43.6976C159.729 43.4911 159.11 43.0754 158.762 42.4622C158.636 42.241 158.714 41.9599 158.935 41.8343C159.008 41.7929 159.087 41.7736 159.165 41.7742L159.224 41.7749C159.807 41.7814 160.262 41.7582 160.696 41.7158C161.128 41.6595 161.521 41.5906 161.904 41.491C162.683 41.2952 163.352 40.9784 164.351 40.3563L164.381 40.3374C164.598 40.2026 164.882 40.2688 165.017 40.4853C165.066 40.5635 165.088 40.6503 165.087 40.7361Z" fill="#855035"/>
<path d="M168.68 12.9219H153.853L149.225 19.9428L150.146 29.6582L151.382 22.5613C151.848 20.3109 153.83 18.6969 156.128 18.6969H166.406C168.704 18.6969 170.686 20.311 171.151 22.5614L172.388 29.6591L173.309 19.9427L168.68 12.9219Z" fill="#594539"/>
<defs>
<radialGradient id="paint0_radial" cx="0" cy="0" r="1" gradientUnits="userSpaceOnUse" gradientTransform="translate(52.9253 66.3642) scale(14.5873)">
<stop offset="0.3127" stop-color="#231F20"/>
<stop offset="0.8031" stop-color="#493931" stop-opacity="0.2865"/>
<stop offset="1" stop-color="#594539" stop-opacity="0"/>
</radialGradient>
<radialGradient id="paint1_radial" cx="0" cy="0" r="1" gradientUnits="userSpaceOnUse" gradientTransform="translate(51.9522 89.6224) scale(8.9465)">
<stop offset="0.0013" stop-color="#9B643D"/>
<stop offset="0.4556" stop-color="#B98963" stop-opacity="0.545"/>
<stop offset="0.9997" stop-color="#E0BB95" stop-opacity="0"/>
</radialGradient>
<radialGradient id="paint2_radial" cx="0" cy="0" r="1" gradientUnits="userSpaceOnUse" gradientTransform="translate(168.152 128.489) rotate(180) scale(9.23551 10.4213)">
<stop stop-color="#9B643D"/>
<stop offset="0.8819" stop-color="#BA8A63" stop-opacity="0.1178"/>
<stop offset="0.9997" stop-color="#BF8F68" stop-opacity="0"/>
</radialGradient>
<radialGradient id="paint3_radial" cx="0" cy="0" r="1" gradientUnits="userSpaceOnUse" gradientTransform="translate(164.246 120.76) rotate(175.682) scale(5.98173 6.30621)">
<stop offset="0.0003" stop-color="#9B643D"/>
<stop offset="0.8822" stop-color="#BA8A63" stop-opacity="0.1178"/>
<stop offset="1" stop-color="#BF8F68" stop-opacity="0"/>
</radialGradient>
<radialGradient id="paint4_radial" cx="0" cy="0" r="1" gradientUnits="userSpaceOnUse" gradientTransform="translate(161.756 46.2258) scale(9.7872)">
<stop offset="0.173" stop-color="#724937"/>
<stop offset="0.7031" stop-color="#9B643D"/>
</radialGradient>
<radialGradient id="paint5_radial" cx="0" cy="0" r="1" gradientUnits="userSpaceOnUse" gradientTransform="translate(161.638 35.2213) rotate(0.724926) scale(9.07645 8.18103)">
<stop offset="0.173" stop-color="#724937"/>
<stop offset="0.7031" stop-color="#9B643D"/>
</radialGradient>
</defs>
</svg>
