<svg width="88" height="96" viewBox="0 0 88 96" fill="none" xmlns="http://www.w3.org/2000/svg">
<g clip-path="url(#clip0)">
<path d="M69.9127 19.5966L53.6028 23.2225L50.6023 9.24297L64.336 6.18984C65.7589 5.87351 67.1642 6.79101 67.475 8.23905L69.9127 19.5966Z" fill="#C3C3E1"/>
<path d="M69.9152 19.5969L53.6046 23.2227L56.605 37.2027L72.9156 33.5769L69.9152 19.5969Z" fill="#8B8CC4"/>
<path d="M72.9158 33.5773L56.6052 37.2031L59.6056 51.1831L75.9162 47.5574L72.9158 33.5773Z" fill="#B3AFAB"/>
<path d="M75.9161 47.5573L59.6055 51.1831L62.6058 65.1631L78.9165 61.5373L75.9161 47.5573Z" fill="#FFD590"/>
<path d="M79.3383 76.0869L65.6046 79.1401L62.6041 65.1606L78.9141 61.5347L81.3518 72.8922C81.6626 74.3403 80.7611 75.7706 79.3383 76.0869Z" fill="#F7B548"/>
<path d="M31.2496 24.1675C31.1676 24.1675 31.0843 24.1571 31.0013 24.1352C30.4712 23.9961 30.1524 23.4459 30.2893 22.9064L34.1886 7.53138C34.3251 6.99278 34.0058 6.44153 33.4766 6.30237L30.2491 5.45452C29.9922 5.38724 29.726 5.42549 29.4978 5.56241C29.2699 5.69937 29.1079 5.91841 29.0415 6.17919L25.1422 21.5542C25.0057 22.0937 24.4653 22.4191 23.9348 22.2789C23.4047 22.1398 23.0859 21.5896 23.2228 21.0501L27.1221 5.67508C27.3207 4.89231 27.8067 4.23513 28.4909 3.82451C29.175 3.41411 29.9751 3.29902 30.7444 3.50107L33.9719 4.34893C35.5595 4.76585 36.5179 6.41966 36.1081 8.03544L32.2087 23.4105C32.0934 23.8655 31.6908 24.1675 31.2496 24.1675Z" fill="#8B8CC4"/>
<path d="M72.086 77.6985L20.1301 89.2488C19.1816 89.4597 18.2446 88.848 18.0374 87.8827L3.76657 21.3931C3.55939 20.4277 4.16037 19.4742 5.10892 19.2633L57.0648 7.71289L72.086 77.6985Z" fill="#E1DFDD"/>
<path d="M16.7231 16.6829L13.7744 17.3384L28.7952 87.3265L31.7439 86.671L16.7231 16.6829Z" fill="#FAF9F8"/>
<path d="M11.9401 32.1682L1.38958 34.5137C0.798311 34.6452 0.214292 34.2639 0.0851208 33.6621L0.0254795 33.384C-0.103692 32.7823 0.270945 32.1879 0.862215 32.0565L11.4127 29.711C12.004 29.5795 12.588 29.9608 12.7172 30.5626L12.7768 30.8406C12.9059 31.4424 12.5313 32.0368 11.9401 32.1682Z" fill="#797673"/>
<path d="M11.5395 33.3115C12.811 33.3115 13.8417 32.2625 13.8417 30.9685C13.8417 29.6745 12.811 28.6255 11.5395 28.6255C10.268 28.6255 9.2373 29.6745 9.2373 30.9685C9.2373 32.2625 10.268 33.3115 11.5395 33.3115Z" fill="#797673"/>
<path d="M15.0379 46.6018L4.4874 48.9473C3.89613 49.0787 3.31211 48.6975 3.18294 48.0957L3.12326 47.8176C2.99409 47.2159 3.36872 46.6215 3.95999 46.49L14.5105 44.1446C15.1017 44.0131 15.6858 44.3944 15.8149 44.9962L15.8746 45.2742C16.0037 45.876 15.6291 46.4704 15.0379 46.6018Z" fill="#797673"/>
<path d="M14.6374 47.7456C15.9089 47.7456 16.9396 46.6966 16.9396 45.4026C16.9396 44.1086 15.9089 43.0596 14.6374 43.0596C13.3659 43.0596 12.3352 44.1086 12.3352 45.4026C12.3352 46.6966 13.3659 47.7456 14.6374 47.7456Z" fill="#797673"/>
<path d="M18.1358 61.0349L7.5853 63.3804C6.99403 63.5119 6.41002 63.1306 6.28084 62.5288L6.22116 62.2507C6.09199 61.649 6.46662 61.0546 7.05789 60.9232L17.6084 58.5777C18.1996 58.4462 18.7837 58.8275 18.9128 59.4293L18.9725 59.7073C19.1017 60.3091 18.7271 60.9034 18.1358 61.0349Z" fill="#797673"/>
<path d="M17.7353 62.1792C19.0068 62.1792 20.0375 61.1302 20.0375 59.8362C20.0375 58.5422 19.0068 57.4932 17.7353 57.4932C16.4638 57.4932 15.4331 58.5422 15.4331 59.8362C15.4331 61.1302 16.4638 62.1792 17.7353 62.1792Z" fill="#797673"/>
<path d="M21.2337 75.4685L10.6832 77.814C10.0919 77.9455 9.50792 77.5642 9.37874 76.9624L9.31906 76.6844C9.18989 76.0826 9.56452 75.4882 10.1558 75.3568L20.7063 73.0113C21.2975 72.8798 21.8816 73.2611 22.0107 73.8629L22.0704 74.1409C22.1996 74.7427 21.825 75.3371 21.2337 75.4685Z" fill="#797673"/>
<path d="M20.8332 76.6118C22.1047 76.6118 23.1354 75.5628 23.1354 74.2688C23.1354 72.9748 22.1047 71.9258 20.8332 71.9258C19.5617 71.9258 18.531 72.9748 18.531 74.2688C18.531 75.5628 19.5617 76.6118 20.8332 76.6118Z" fill="#797673"/>
<path d="M24.0526 51.3334L25.0723 47.3127C25.1709 46.9239 24.9411 46.5274 24.5592 46.427L24.3826 46.3807C24.0006 46.2803 23.611 46.5141 23.5124 46.9029L22.4927 50.9236C22.3941 51.3124 22.6238 51.7089 23.0058 51.8093L23.1824 51.8557C23.5644 51.956 23.954 51.7222 24.0526 51.3334Z" fill="#8B8CC4"/>
<path d="M24.7114 50.1339L28.9811 42.3961L22.4302 40.6753L22.4868 49.5495L24.7114 50.1339Z" fill="#C8C6C4"/>
<path d="M28.9581 43.5707L38.9097 4.32729C39.3563 2.56613 38.3155 0.769998 36.5851 0.315407L35.7853 0.105311C34.0548 -0.349281 32.2898 0.709971 31.8433 2.47117L21.8917 41.7145C21.7945 42.0976 22.0209 42.4884 22.3974 42.5873L28.1004 44.0854C28.4769 44.1843 28.8609 43.9539 28.9581 43.5707Z" fill="#8B8CC4"/>
<path d="M33.6289 25.1537L38.9097 4.32719C39.3562 2.56608 38.3155 0.769951 36.5851 0.315404L35.7854 0.105307C34.0548 -0.349284 32.2898 0.710012 31.8432 2.47126L26.5625 23.2974L33.6289 25.1537Z" fill="#C8C6C4"/>
<path d="M37.6562 9.27864L38.0938 7.55322L31.0271 5.69712L30.5896 7.42254L37.6562 9.27864Z" fill="#8B8CC4"/>
<path d="M81.586 95.967L42.4766 87.0293C41.7661 86.8669 41.3194 86.1491 41.479 85.426L46.1621 64.201C46.3216 63.4779 47.0269 63.0234 47.7374 63.1857L86.8468 72.1235C87.5574 72.2859 88.004 73.0037 87.8444 73.7268L83.1614 94.9518C83.0018 95.6749 82.2965 96.1295 81.586 95.967Z" fill="#C3C3E1"/>
<path d="M55.5003 85.6722C59.9444 85.6722 63.547 82.0057 63.547 77.4828C63.547 72.96 59.9444 69.2935 55.5003 69.2935C51.0562 69.2935 47.4536 72.96 47.4536 77.4828C47.4536 82.0057 51.0562 85.6722 55.5003 85.6722Z" fill="#C3F2F4"/>
<path d="M55.5003 85.6722C59.9444 85.6722 63.547 82.0057 63.547 77.4828C63.547 72.96 59.9444 69.2935 55.5003 69.2935C51.0562 69.2935 47.4536 72.96 47.4536 77.4828C47.4536 82.0057 51.0562 85.6722 55.5003 85.6722Z" fill="#FFE5B9"/>
<path d="M56.9876 70.7421C54.8838 70.2613 52.7673 71.8023 52.1744 74.4892C52.1695 74.5112 50.2915 83.023 50.2915 83.023L57.8816 84.7575C57.8816 84.7575 59.7596 76.2458 59.7645 76.2237C60.3573 73.5368 59.0707 71.2181 56.9876 70.7421Z" fill="#3A312E"/>
<path d="M58.6803 82.4671C58.0976 81.2955 56.7611 80.2929 55.0639 79.9051C53.1849 79.4756 51.3888 79.9196 50.4127 80.923C50.0523 81.2275 49.5408 81.6809 48.9629 82.2548C50.0727 83.8308 51.7323 85.0147 53.7375 85.473C55.826 85.9503 57.9061 85.5522 59.6113 84.52C59.1474 83.3324 58.7066 82.5062 58.6803 82.4671Z" fill="#8B8CC7"/>
<path d="M58.5257 76.0927C58.1389 77.8459 56.6772 78.892 55.2608 78.5683C53.8444 78.2447 52.9625 76.663 53.3493 74.9098C53.7361 73.1566 55.1911 72.0534 56.6259 72.3813C58.0466 72.706 58.9125 74.3395 58.5257 76.0927Z" fill="#BF8F68"/>
<path d="M55.6457 71.1786C55.6457 71.1786 55.2901 72.4069 56.0397 73.4304C56.5033 74.0635 57.1577 74.5616 57.6381 74.9697C58.7616 75.9242 58.1781 77.1392 58.1781 77.1392C58.1781 77.1392 59.99 74.3909 58.5002 72.2609C57.4944 70.823 55.6457 71.1786 55.6457 71.1786Z" fill="#3A312E"/>
<path d="M56.5874 80.4242C56.2204 80.1836 55.9808 80.0006 56.1375 79.4807L56.5789 77.5438L54.6994 77.1143L54.2773 79.0271C54.1682 79.4582 54.0953 79.5982 53.5942 79.7117C53.5871 79.7134 52.8754 79.7707 52.5416 79.8466C53.1779 80.2628 53.9434 80.6038 54.8099 80.8018C55.703 81.0059 56.5606 81.038 57.3166 80.9115C57.1061 80.7529 56.6148 80.4414 56.5874 80.4242Z" fill="#BF8F68"/>
<path d="M73.5838 78.0112L68.0117 76.7378L67.6953 78.1719L73.2674 79.4454L73.5838 78.0112Z" fill="#EAEAF3"/>
<path d="M80.7571 83.5302L67.1968 80.4312L66.8803 81.8653L80.4407 84.9644L80.7571 83.5302Z" fill="#EAEAF3"/>
<path d="M77.526 86.6724L66.3817 84.1255L66.0653 85.5596L77.2095 88.1065L77.526 86.6724Z" fill="#EAEAF3"/>
<path d="M67.5567 73.713L66.7611 73.5311C65.0396 73.1377 63.9575 71.3986 64.3441 69.6466L66.1398 61.5078L73.1693 63.1143L71.3736 71.253C70.987 73.0051 69.2781 74.1064 67.5567 73.713Z" fill="#8B8CC4"/>
<path d="M67.9483 71.9578C68.9864 71.9578 69.828 71.1014 69.828 70.0448C69.828 68.9883 68.9864 68.1318 67.9483 68.1318C66.9102 68.1318 66.0686 68.9883 66.0686 70.0448C66.0686 71.1014 66.9102 71.9578 67.9483 71.9578Z" fill="#3A312E"/>
</g>
<defs>
<clipPath id="clip0">
<rect width="87.8769" height="96" fill="white"/>
</clipPath>
</defs>
</svg>
