<svg width="420" height="179" viewBox="0 0 420 179" fill="none" xmlns="http://www.w3.org/2000/svg">
<g clip-path="url(#clip0)">
<path d="M208.719 172.479C202.957 161.1 192.585 162.762 188.616 153.173C185.158 144.99 189.384 136.424 186.823 128.752C188.488 125.044 189.64 121.336 188.104 116.606C184.646 106.633 176.067 103.948 170.689 94.2307C165.311 84.3857 166.463 64.8236 166.463 64.8236L148.024 61.4993C148.024 61.2436 148.024 61.1157 148.024 61.1157L138.549 59.8372L98.2133 52.5493C98.2133 52.5493 97.9572 53.1886 97.7011 54.2114L79.3901 51.6543C79.3901 51.6543 74.1401 70.5772 66.2011 78.5043C58.3901 86.4314 50.195 84.2579 44.1767 92.9522C38.1584 101.519 44.4328 111.619 40.4633 121.209C36.4938 130.798 25.9938 129.136 20.3596 140.515C14.7255 151.639 21.384 159.438 20.2316 168.771C19.4633 175.292 18.1828 175.292 14.8535 179.128H210.768C210.768 178.744 210.64 178.489 210.64 178.105C210.256 176.315 209.616 174.397 208.719 172.479Z" fill="#232323"/>
<path d="M160.445 154.707C160.445 154.707 153.53 166.215 152.634 179.128H184.262C190.28 159.055 188.231 133.1 188.231 133.1L160.445 154.707Z" fill="url(#paint0_radial)"/>
<path d="M166.454 65.2204C168.319 36.1153 150.092 11.2601 125.742 9.70467C101.393 8.14925 80.1422 30.4827 78.2774 59.5877C76.4126 88.6928 94.64 113.548 118.989 115.103C143.339 116.659 164.59 94.3255 166.454 65.2204Z" fill="#232323"/>
<path d="M104.744 75.3082L97.4448 74.7967C92.9631 74.541 89.5058 70.5774 89.7619 65.9746V65.591C90.018 61.116 93.9875 57.6639 98.5973 57.9196L105.896 58.431C108.201 58.5589 109.994 60.6046 109.866 62.906L109.225 71.2167C109.097 73.646 107.048 75.436 104.744 75.3082Z" fill="#BF8F68"/>
<path d="M117.165 109.83C87.3292 109.83 66.5853 128.497 65.817 153.046C65.5609 159.95 67.4816 169.284 69.5304 179.129H164.927C166.847 169.284 168.768 159.95 168.64 153.046C167.744 128.497 146.872 109.83 117.165 109.83Z" fill="url(#paint1_radial)"/>
<path d="M88.8659 116.607C69.2745 127.475 53.7806 150.234 45.0732 179.001H93.8598C106.024 155.731 100.518 110.214 88.8659 116.607Z" fill="#7BDDEF"/>
<path d="M105.384 102.671C105.384 95.511 105.256 80.4238 105.256 80.4238H130.354C130.354 80.4238 130.354 95.3831 130.354 102.287C130.354 109.192 136.244 112.132 136.244 112.132C136.244 112.132 129.585 119.548 119.469 119.548C109.354 119.548 98.2134 112.388 98.2134 112.388C98.2134 112.388 105.384 109.831 105.384 102.671Z" fill="url(#paint2_radial)"/>
<path d="M156.38 83.422C156.552 80.3196 154.23 77.6687 151.194 77.5009C148.157 77.3331 145.557 79.712 145.385 82.8144C145.213 85.9167 147.535 88.5677 150.571 88.7354C153.607 88.9032 156.208 86.5243 156.38 83.422Z" fill="#F7B548"/>
<path d="M98.7253 57.7925C97.1887 79.1447 108.713 97.3004 124.463 98.3232C140.213 99.3461 154.17 83.1082 155.579 61.7561C157.116 40.404 145.463 24.294 129.713 23.1433C114.091 22.1204 100.262 36.4404 98.7253 57.7925Z" fill="#BF8F68"/>
<path d="M131.506 44.75L130.737 56.1293C130.481 62.0107 133.042 66.3579 135.091 68.7871C136.244 70.1936 136.5 73.2621 134.707 74.9243C133.811 75.8193 129.841 77.4814 129.457 80.1664L128.433 90.6507L151.994 92.4407L154.683 46.9236L131.506 44.75Z" fill="url(#paint3_radial)"/>
<path d="M149.817 24.5489C149.817 24.5489 149.433 39.5082 129.969 41.5539C102.823 44.3668 100.518 58.0475 100.518 58.0475L93.0913 58.3032C93.0913 58.3032 92.195 29.9189 110.25 20.3296C129.713 9.97322 149.817 24.5489 149.817 24.5489Z" fill="#232323"/>
<path d="M102.684 79.6837C102.856 76.5813 100.534 73.9304 97.4979 73.7626C94.4615 73.5948 91.8607 75.9737 91.6888 79.0761C91.5168 82.1784 93.8389 84.8294 96.8753 84.9972C99.9117 85.1649 102.513 82.786 102.684 79.6837Z" fill="#F7B548"/>
<path d="M121.467 62.8441C121.604 60.3763 120.512 58.3094 119.029 58.2274C117.547 58.1455 116.234 60.0796 116.097 62.5473C115.96 65.0151 117.051 67.082 118.534 67.164C120.017 67.2459 121.33 65.3118 121.467 62.8441Z" fill="#232323"/>
<path d="M145.476 64.6051C145.687 62.1425 144.658 60.044 143.178 59.9179C141.698 59.7919 140.328 61.686 140.117 64.1485C139.907 66.6111 140.936 68.7096 142.416 68.8357C143.895 68.9618 145.266 67.0677 145.476 64.6051Z" fill="#232323"/>
<path d="M154.427 156.497L177.988 156.625C181.445 156.625 184.647 153.812 185.159 150.36L192.073 104.076C192.586 100.624 190.281 97.6828 186.823 97.8107L163.39 97.9385C159.933 97.9385 156.86 100.879 156.22 104.331L149.305 150.36C148.665 153.684 150.97 156.497 154.427 156.497Z" fill="url(#paint4_linear)"/>
<path d="M192.585 125.557C192.329 122.872 189.64 121.082 186.951 121.593C183.238 122.36 176.707 124.15 176.707 126.707C176.835 130.16 187.463 130.032 190.408 129.137C191.945 128.625 192.713 127.219 192.585 125.557Z" fill="#BF8F68"/>
<path d="M191.561 131.182C191.305 128.497 188.616 126.707 185.926 127.218C182.213 127.985 171.585 129.903 171.713 133.355C171.713 136.807 186.439 135.657 189.512 134.762C190.92 134.378 191.689 132.844 191.561 131.182Z" fill="#BF8F68"/>
<path d="M189.64 137.065C189.384 134.38 186.695 132.59 184.006 133.101C180.292 133.868 173.25 136.553 173.378 138.982C173.506 142.435 184.518 141.54 187.591 140.645C189 140.261 189.768 138.727 189.64 137.065Z" fill="#BF8F68"/>
<path d="M188.232 141.028C188.488 138.343 187.207 137.576 184.774 137.831C181.317 138.215 174.53 140.005 174.146 142.434C173.634 145.886 182.982 144.864 185.927 144.224C187.207 143.969 188.104 142.69 188.232 141.028Z" fill="#BF8F68"/>
<path d="M129.457 86.5592C128.433 87.3263 127.28 87.582 126 87.7099C124.719 87.8377 123.439 87.7099 122.287 87.1985C121.006 86.8149 119.854 85.9199 119.085 85.0249C118.189 84.002 117.677 82.7235 117.677 81.4449C117.677 81.0613 117.933 80.6777 118.445 80.6777C118.573 80.6777 118.701 80.6777 118.957 80.8056L119.085 80.9335C120.11 81.5727 120.75 82.0842 121.518 82.4677C122.287 82.8513 122.927 83.2349 123.823 83.4906C124.591 83.7463 125.488 84.002 126.384 84.2577C127.28 84.5135 128.305 84.7692 129.329 85.1527H129.457C129.841 85.2806 130.097 85.792 129.969 86.1756C129.713 86.3035 129.585 86.4313 129.457 86.5592Z" fill="#9B643D"/>
<path d="M245.598 129.264C268.157 129.264 286.445 111.004 286.445 88.4778C286.445 65.9521 268.157 47.6914 245.598 47.6914C223.038 47.6914 204.75 65.9521 204.75 88.4778C204.75 111.004 223.038 129.264 245.598 129.264Z" fill="white"/>
<g clip-path="url(#clip1)">
<g clip-path="url(#clip2)">
<mask id="mask0" mask-type="alpha" maskUnits="userSpaceOnUse" x="219" y="63" width="49" height="47">
<path d="M219.953 84.9464C218.963 86.0774 218.963 87.7663 219.953 88.8974L237.719 109.202C238.516 110.112 239.933 110.112 240.73 109.202L242.643 107.015L244.75 109.314C245.542 110.178 246.906 110.178 247.698 109.314L266.366 88.949C267.417 87.8021 267.417 86.0417 266.366 84.8947L247.698 64.5302C246.906 63.6655 245.542 63.6655 244.75 64.5302L242.643 66.8286L240.73 64.6421C239.933 63.7314 238.516 63.7314 237.719 64.6421L219.953 84.9464Z" fill="#C4C4C4"/>
</mask>
<g mask="url(#mask0)">
<path d="M239.225 110.922L218.225 86.9219L239.225 62.9219L260.225 86.9219L239.225 110.922Z" fill="url(#paint5_linear)"/>
<g filter="url(#filter0_dd)">
<path d="M246.225 62.9219L268.225 86.9219L246.225 110.922L236.463 100.273C235.763 99.5087 235.763 98.3351 236.463 97.5704L244.986 88.2733C245.687 87.5087 245.687 86.3351 244.986 85.5704L236.463 76.2733C235.763 75.5087 235.763 74.3351 236.463 73.5704L246.225 62.9219Z" fill="url(#paint6_linear)"/>
<path d="M255.75 76.5302C256.543 75.6655 257.906 75.6655 258.699 76.5302L268.225 86.9219L258.699 97.3135C257.906 98.1783 256.543 98.1783 255.75 97.3135L248.083 88.949C247.031 87.8021 247.031 86.0417 248.083 84.8947L255.75 76.5302Z" fill="url(#paint7_linear)"/>
</g>
</g>
</g>
</g>
<path d="M331.39 85.5363C350.838 85.5363 366.604 69.7943 366.604 50.3756C366.604 30.9568 350.838 15.2148 331.39 15.2148C311.942 15.2148 296.177 30.9568 296.177 50.3756C296.177 69.7943 311.942 85.5363 331.39 85.5363Z" fill="white"/>
<g clip-path="url(#clip3)">
<g clip-path="url(#clip4)">
<mask id="mask1" mask-type="alpha" maskUnits="userSpaceOnUse" x="310" y="33" width="41" height="33">
<path d="M335.893 33.457C336.367 33.457 336.819 33.659 337.135 34.0124L349.81 48.179C350.376 48.8118 350.376 49.769 349.81 50.4017L337.135 64.5684C336.819 64.9217 336.367 65.1237 335.893 65.1237H312.032C310.592 65.1237 309.83 63.4193 310.79 62.3457L322.471 49.2904L310.79 36.235C309.83 35.1614 310.592 33.457 312.032 33.457H335.893Z" fill="#C4C4C4"/>
</mask>
<g mask="url(#mask1)">
<path d="M336.638 33.4577L322.471 49.291L308.304 33.4577H336.638Z" fill="url(#paint8_linear)"/>
<g filter="url(#filter1_dd)">
<path d="M308.305 65.1237L336.638 33.457L350.805 49.2904L336.638 65.1237H308.305Z" fill="url(#paint9_linear)"/>
<path d="M308.305 65.1237L336.638 33.457L343.721 41.3737L322.471 65.1237H308.305Z" fill="url(#paint10_linear)"/>
</g>
</g>
</g>
</g>
<path d="M370.701 162.634C388.38 162.634 402.713 148.323 402.713 130.669C402.713 113.016 388.38 98.7051 370.701 98.7051C353.021 98.7051 338.688 113.016 338.688 130.669C338.688 148.323 353.021 162.634 370.701 162.634Z" fill="white"/>
<g clip-path="url(#clip5)">
<mask id="mask2" mask-type="alpha" maskUnits="userSpaceOnUse" x="351" y="114" width="37" height="36">
<path d="M378.627 134.408C378.627 133.58 379.299 132.908 380.127 132.908H386.151C386.979 132.908 387.65 132.238 387.651 131.41L387.669 116.41C387.67 115.581 386.999 114.908 386.169 114.908H362.127C361.299 114.908 360.627 115.58 360.627 116.408V123.908H353.127C352.299 123.908 351.627 124.58 351.627 125.408L351.627 140.408C351.627 141.237 352.299 141.908 353.127 141.908H359.127C359.956 141.908 360.627 142.58 360.627 143.408V148.192C360.627 149.194 361.839 149.696 362.548 148.988L369.188 142.348C369.469 142.066 369.851 141.908 370.249 141.908H377.127C377.956 141.908 378.627 141.237 378.627 140.408V134.408Z" fill="#C4C4C4"/>
</mask>
<g mask="url(#mask2)">
<path fill-rule="evenodd" clip-rule="evenodd" d="M351.627 123.908L351.627 141.908H359.127C359.956 141.908 360.627 142.58 360.627 143.408V150.908L369.188 142.348C369.469 142.066 369.851 141.908 370.249 141.908H378.627L378.627 125.408C378.627 124.58 377.956 123.908 377.127 123.908H351.627Z" fill="url(#paint11_linear)"/>
<g filter="url(#filter2_dd)">
<path fill-rule="evenodd" clip-rule="evenodd" d="M387.671 114.908L387.627 132.908L380.127 132.908C379.299 132.908 378.627 133.58 378.627 134.408L378.627 139.18C378.627 140.187 377.41 140.691 376.698 139.979L370.066 133.348C369.785 133.066 369.404 132.908 369.006 132.908H362.127C361.299 132.908 360.627 132.237 360.627 131.408V114.908H387.671Z" fill="url(#paint12_linear)"/>
</g>
<rect x="360.627" y="114.908" width="27" height="6" fill="#4CCBED"/>
<rect x="360.627" y="120.908" width="27" height="6" fill="#17AAD2"/>
</g>
</g>
</g>
<defs>
<filter id="filter0_dd" x="231.938" y="59.9219" width="40.2869" height="56" filterUnits="userSpaceOnUse" color-interpolation-filters="sRGB">
<feFlood flood-opacity="0" result="BackgroundImageFix"/>
<feColorMatrix in="SourceAlpha" type="matrix" values="0 0 0 0 0 0 0 0 0 0 0 0 0 0 0 0 0 0 127 0"/>
<feOffset dy="0.19"/>
<feGaussianBlur stdDeviation="0.19"/>
<feColorMatrix type="matrix" values="0 0 0 0 0 0 0 0 0 0 0 0 0 0 0 0 0 0 0.24 0"/>
<feBlend mode="normal" in2="BackgroundImageFix" result="effect1_dropShadow"/>
<feColorMatrix in="SourceAlpha" type="matrix" values="0 0 0 0 0 0 0 0 0 0 0 0 0 0 0 0 0 0 127 0"/>
<feOffset dy="1"/>
<feGaussianBlur stdDeviation="2"/>
<feColorMatrix type="matrix" values="0 0 0 0 0 0 0 0 0 0 0 0 0 0 0 0 0 0 0.32 0"/>
<feBlend mode="normal" in2="effect1_dropShadow" result="effect2_dropShadow"/>
<feBlend mode="normal" in="SourceGraphic" in2="effect2_dropShadow" result="shape"/>
</filter>
<filter id="filter1_dd" x="304.971" y="30.957" width="49.1667" height="38.3333" filterUnits="userSpaceOnUse" color-interpolation-filters="sRGB">
<feFlood flood-opacity="0" result="BackgroundImageFix"/>
<feColorMatrix in="SourceAlpha" type="matrix" values="0 0 0 0 0 0 0 0 0 0 0 0 0 0 0 0 0 0 127 0"/>
<feOffset dy="0.158333"/>
<feGaussianBlur stdDeviation="0.158333"/>
<feColorMatrix type="matrix" values="0 0 0 0 0 0 0 0 0 0 0 0 0 0 0 0 0 0 0.24 0"/>
<feBlend mode="normal" in2="BackgroundImageFix" result="effect1_dropShadow"/>
<feColorMatrix in="SourceAlpha" type="matrix" values="0 0 0 0 0 0 0 0 0 0 0 0 0 0 0 0 0 0 127 0"/>
<feOffset dy="0.833333"/>
<feGaussianBlur stdDeviation="1.66667"/>
<feColorMatrix type="matrix" values="0 0 0 0 0 0 0 0 0 0 0 0 0 0 0 0 0 0 0.32 0"/>
<feBlend mode="normal" in2="effect1_dropShadow" result="effect2_dropShadow"/>
<feBlend mode="normal" in="SourceGraphic" in2="effect2_dropShadow" result="shape"/>
</filter>
<filter id="filter2_dd" x="357.627" y="112.658" width="33.0439" height="31.4042" filterUnits="userSpaceOnUse" color-interpolation-filters="sRGB">
<feFlood flood-opacity="0" result="BackgroundImageFix"/>
<feColorMatrix in="SourceAlpha" type="matrix" values="0 0 0 0 0 0 0 0 0 0 0 0 0 0 0 0 0 0 127 0"/>
<feOffset dy="0.1425"/>
<feGaussianBlur stdDeviation="0.1425"/>
<feColorMatrix type="matrix" values="0 0 0 0 0 0 0 0 0 0 0 0 0 0 0 0 0 0 0.24 0"/>
<feBlend mode="normal" in2="BackgroundImageFix" result="effect1_dropShadow"/>
<feColorMatrix in="SourceAlpha" type="matrix" values="0 0 0 0 0 0 0 0 0 0 0 0 0 0 0 0 0 0 127 0"/>
<feOffset dy="0.75"/>
<feGaussianBlur stdDeviation="1.5"/>
<feColorMatrix type="matrix" values="0 0 0 0 0 0 0 0 0 0 0 0 0 0 0 0 0 0 0.32 0"/>
<feBlend mode="normal" in2="effect1_dropShadow" result="effect2_dropShadow"/>
<feBlend mode="normal" in="SourceGraphic" in2="effect2_dropShadow" result="shape"/>
</filter>
<radialGradient id="paint0_radial" cx="0" cy="0" r="1" gradientUnits="userSpaceOnUse" gradientTransform="translate(158.631 162.278) scale(22.7751 22.741)">
<stop stop-color="#28C2D1"/>
<stop offset="0.0873522" stop-color="#35C6D6"/>
<stop offset="0.3291" stop-color="#53D0E1"/>
<stop offset="0.5658" stop-color="#69D7E9"/>
<stop offset="0.793" stop-color="#77DCED"/>
<stop offset="1" stop-color="#7BDDEF"/>
</radialGradient>
<radialGradient id="paint1_radial" cx="0" cy="0" r="1" gradientUnits="userSpaceOnUse" gradientTransform="translate(85.7324 171.18) scale(31.6144 31.567)">
<stop stop-color="#28C2D1"/>
<stop offset="0.0873522" stop-color="#35C6D6"/>
<stop offset="0.3291" stop-color="#53D0E1"/>
<stop offset="0.5658" stop-color="#69D7E9"/>
<stop offset="0.793" stop-color="#77DCED"/>
<stop offset="1" stop-color="#7BDDEF"/>
</radialGradient>
<radialGradient id="paint2_radial" cx="0" cy="0" r="1" gradientUnits="userSpaceOnUse" gradientTransform="translate(129.415 88.0179) rotate(180) scale(19.3789 19.3499)">
<stop stop-color="#9B643D"/>
<stop offset="0.8819" stop-color="#BA8A63"/>
<stop offset="0.9997" stop-color="#BF8F68"/>
</radialGradient>
<radialGradient id="paint3_radial" cx="0" cy="0" r="1" gradientUnits="userSpaceOnUse" gradientTransform="translate(131.407 72.1602) rotate(11.5313) scale(14.4383 15.1997)">
<stop offset="0.000320513" stop-color="#9B643D"/>
<stop offset="0.8822" stop-color="#BA8A63" stop-opacity="0.1178"/>
<stop offset="1" stop-color="#BF8F68" stop-opacity="0"/>
</radialGradient>
<linearGradient id="paint4_linear" x1="170.604" y1="139.467" x2="170.604" y2="130.676" gradientUnits="userSpaceOnUse">
<stop stop-color="#FAF9F8"/>
<stop offset="1" stop-color="white"/>
</linearGradient>
<linearGradient id="paint5_linear" x1="254.725" y1="110.922" x2="226.725" y2="42.422" gradientUnits="userSpaceOnUse">
<stop stop-color="#742774"/>
<stop offset="1" stop-color="#BB35A4"/>
</linearGradient>
<linearGradient id="paint6_linear" x1="235.225" y1="62.922" x2="258.225" y2="110.922" gradientUnits="userSpaceOnUse">
<stop stop-color="#E48CC7"/>
<stop offset="1" stop-color="#D467B9"/>
</linearGradient>
<linearGradient id="paint7_linear" x1="250.225" y1="77.422" x2="257.225" y2="98.9219" gradientUnits="userSpaceOnUse">
<stop stop-color="#E9A1CB"/>
<stop offset="1" stop-color="#E48CC7"/>
</linearGradient>
<linearGradient id="paint8_linear" x1="328.304" y1="52.2077" x2="322.471" y2="33.4577" gradientUnits="userSpaceOnUse">
<stop stop-color="#0D36A5"/>
<stop offset="1" stop-color="#1152D4"/>
</linearGradient>
<linearGradient id="paint9_linear" x1="329.555" y1="33.457" x2="329.555" y2="65.1237" gradientUnits="userSpaceOnUse">
<stop stop-color="#84CAFF"/>
<stop offset="1" stop-color="#61B1FB"/>
</linearGradient>
<linearGradient id="paint10_linear" x1="326.013" y1="33.457" x2="326.013" y2="65.1237" gradientUnits="userSpaceOnUse">
<stop stop-color="#3B90F5"/>
<stop offset="1" stop-color="#2A78EE"/>
</linearGradient>
<linearGradient id="paint11_linear" x1="355.752" y1="123.908" x2="372.627" y2="156.533" gradientUnits="userSpaceOnUse">
<stop stop-color="#117B97"/>
<stop offset="1" stop-color="#0A4A5C"/>
</linearGradient>
<linearGradient id="paint12_linear" x1="374.127" y1="122.408" x2="385.377" y2="149.033" gradientUnits="userSpaceOnUse">
<stop stop-color="#1392B4"/>
<stop offset="1" stop-color="#117B97"/>
</linearGradient>
<clipPath id="clip0">
<rect width="420" height="179" fill="white"/>
</clipPath>
<clipPath id="clip1">
<rect width="52.093" height="52.0727" fill="white" transform="translate(219.225 62.9219)"/>
</clipPath>
<clipPath id="clip2">
<rect width="48" height="48" fill="white" transform="translate(219.225 62.9219)"/>
</clipPath>
<clipPath id="clip3">
<rect width="43.4108" height="43.3939" fill="white" transform="translate(310.388 29.291)"/>
</clipPath>
<clipPath id="clip4">
<rect width="40" height="40" fill="white" transform="translate(310.388 29.291)"/>
</clipPath>
<clipPath id="clip5">
<rect width="36" height="36" fill="white" transform="translate(351.628 113.908)"/>
</clipPath>
</defs>
</svg>
