<svg width="52" height="52" viewBox="0 0 52 52" fill="none" xmlns="http://www.w3.org/2000/svg">
<rect x="0.5" y="0.5" width="51" height="51" rx="2.5" fill="#FDF6D7" stroke="#FAF9F8"/>
<path d="M29.0625 10.7H22.9375C22.2126 10.7 21.625 11.3044 21.625 12.05C21.625 12.7956 22.2126 13.4 22.9375 13.4H29.0625C29.7874 13.4 30.375 12.7956 30.375 12.05C30.375 11.3044 29.7874 10.7 29.0625 10.7ZM22.9375 8H29.0625C31.2371 8 33 9.81325 33 12.05C33 11.8976 32.9918 11.7471 32.9759 11.599L36.0625 11.6C38.2371 11.6 40 13.4132 40 15.65V39.95C40 42.1868 38.2371 44 36.0625 44H15.9375C13.7629 44 12 42.1868 12 39.95V15.65C12 13.4132 13.7629 11.6 15.9375 11.6L19.0241 11.599C19.0082 11.7471 19 11.8976 19 12.05C19 9.81325 20.7629 8 22.9375 8Z" fill="#5C5300"/>
<path d="M23.0523 23.3786C22.7062 21.6229 24.1222 20 26 20C27.8778 20 29.2938 21.6229 28.9477 23.3786L27.7119 29.6486C27.5574 30.4322 26.8381 31 26 31C25.1619 31 24.4426 30.4322 24.2881 29.6486L23.0523 23.3786Z" fill="#FDF6D7"/>
<path d="M28 35C28 36.1046 27.1046 37 26 37C24.8954 37 24 36.1046 24 35C24 33.8954 24.8954 33 26 33C27.1046 33 28 33.8954 28 35Z" fill="#FDF6D7"/>
</svg>
