<svg width="12" height="12" viewBox="0 0 12 12" fill="none" xmlns="http://www.w3.org/2000/svg">
<path d="M10.5859 0.90625C10.7214 0.90625 10.8385 0.955729 10.9375 1.05469C11.0365 1.15365 11.0859 1.27083 11.0859 1.40625C11.0859 1.46875 11.0729 1.53125 11.0469 1.59375C11.026 1.65625 10.9922 1.71094 10.9453 1.75781L6.70312 6L10.9453 10.2422C11.0391 10.3359 11.0859 10.4531 11.0859 10.5938C11.0859 10.7292 11.0365 10.8464 10.9375 10.9453C10.8385 11.0443 10.7214 11.0938 10.5859 11.0938C10.5234 11.0938 10.4609 11.0833 10.3984 11.0625C10.3359 11.0365 10.2812 11 10.2344 10.9531L5.99219 6.71094L1.75 10.9531C1.65625 11.0469 1.53906 11.0938 1.39844 11.0938C1.26302 11.0938 1.14583 11.0443 1.04688 10.9453C0.947917 10.8464 0.898438 10.7292 0.898438 10.5938C0.898438 10.4531 0.945312 10.3359 1.03906 10.2422L5.28125 6L1.03906 1.75781C0.992188 1.71094 0.955729 1.65625 0.929688 1.59375C0.908854 1.53125 0.898438 1.46875 0.898438 1.40625C0.898438 1.27083 0.947917 1.15365 1.04688 1.05469C1.14583 0.955729 1.26302 0.90625 1.39844 0.90625C1.53906 0.90625 1.65625 0.953125 1.75 1.04688L5.99219 5.28906L10.2344 1.04688C10.2812 1 10.3359 0.966146 10.3984 0.945312C10.4609 0.919271 10.5234 0.90625 10.5859 0.90625Z" fill="#252423"/>
</svg>
