<svg width="60" height="60" viewBox="0 0 60 60" fill="none" xmlns="http://www.w3.org/2000/svg">
<rect width="60" height="60" rx="8" fill="#464775"/>
<path d="M24.25 21C22.4551 21 21 22.4551 21 24.25V32.75C21 34.5449 22.4551 36 24.25 36H32.75C34.5449 36 36 34.5449 36 32.75V24.25C36 22.4551 34.5449 21 32.75 21H24.25ZM30.75 25.5C30.75 26.7426 29.7426 27.75 28.5 27.75C27.2574 27.75 26.25 26.7426 26.25 25.5C26.25 24.2574 27.2574 23.25 28.5 23.25C29.7426 23.25 30.75 24.2574 30.75 25.5ZM31.5 28.75C32.3284 28.75 33 29.4216 33 30.25V30.75C33 31.2457 32.9136 31.61 32.7461 31.9106C32.5779 32.2127 32.3158 32.4724 31.9277 32.7393C31.1952 33.2429 30.0702 33.5 28.5 33.5C27.1797 33.5 26.0547 33.2429 25.2598 32.7393C24.8415 32.4743 24.5304 32.2158 24.3219 31.9097C24.1172 31.6092 24 31.2459 24 30.75V30.25C24 29.4216 24.6716 28.75 25.5 28.75H31.5ZM24.0109 37C24.5884 37.902 25.5994 38.5 26.75 38.5H33.25C36.1495 38.5 38.5 36.1494 38.5 33.25V26.75C38.5 25.5994 37.9021 24.5884 37 24.0109V33.25C37 35.321 35.3211 37 33.25 37H24.0109Z" fill="#C7C9FF"/>
</svg>
