<svg width="60" height="60" viewBox="0 0 60 60" fill="none" xmlns="http://www.w3.org/2000/svg">
<rect width="60" height="60" rx="8" fill="#FCF2FA"/>
<path d="M29.4048 27.4648L20.6981 36.1785C19.8121 37.0652 19.8126 38.5022 20.6992 39.3883C21.5858 40.2743 23.0228 40.2738 23.9089 39.3871L32.6148 30.6748L29.4048 27.4648ZM34.8518 33.0068L34.75 33C34.3703 33 34.0565 33.2822 34.0068 33.6482L34 33.75V34.5H33.25C32.8703 34.5 32.5565 34.7822 32.5068 35.1482L32.5 35.25C32.5 35.6297 32.7822 35.9435 33.1482 35.9932L33.25 36H34V36.75C34 37.1297 34.2822 37.4435 34.6482 37.4932L34.75 37.5C35.1297 37.5 35.4435 37.2178 35.4932 36.8518L35.5 36.75V36H36.25C36.6297 36 36.9435 35.7178 36.9932 35.3518L37 35.25C37 34.8703 36.7178 34.5565 36.3518 34.5068L36.25 34.5H35.5V33.75C35.5 33.3703 35.2178 33.0565 34.8518 33.0068L34.75 33L34.8518 33.0068ZM31.3136 25.5654L31.1775 25.6909L30.4658 26.4038L33.6758 29.6138L34.3879 28.9003C35.2654 28.0213 35.2651 26.5974 34.3868 25.7185L34.2304 25.5715C33.3931 24.8539 32.1533 24.8519 31.3136 25.5654ZM24.8518 23.0068L24.75 23C24.3703 23 24.0565 23.2822 24.0068 23.6482L24 23.75V24.5H23.25C22.8703 24.5 22.5565 24.7822 22.5068 25.1482L22.5 25.25C22.5 25.6297 22.7822 25.9435 23.1482 25.9932L23.25 26H24V26.75C24 27.1297 24.2822 27.4435 24.6482 27.4932L24.75 27.5C25.1297 27.5 25.4435 27.2178 25.4932 26.8518L25.5 26.75V26H26.25C26.6297 26 26.9435 25.7178 26.9932 25.3518L27 25.25C27 24.8703 26.7178 24.5565 26.3518 24.5068L26.25 24.5H25.5V23.75C25.5 23.3703 25.2178 23.0565 24.8518 23.0068L24.75 23L24.8518 23.0068ZM36.8518 21.0068L36.75 21C36.3703 21 36.0565 21.2822 36.0068 21.6482L36 21.75V22.5H35.25C34.8703 22.5 34.5565 22.7822 34.5068 23.1482L34.5 23.25C34.5 23.6297 34.7822 23.9435 35.1482 23.9932L35.25 24H36V24.75C36 25.1297 36.2822 25.4435 36.6482 25.4932L36.75 25.5C37.1297 25.5 37.4435 25.2178 37.4932 24.8518L37.5 24.75V24H38.25C38.6297 24 38.9435 23.7178 38.9932 23.3518L39 23.25C39 22.8703 38.7178 22.5565 38.3518 22.5068L38.25 22.5H37.5V21.75C37.5 21.3703 37.2178 21.0565 36.8518 21.0068L36.75 21L36.8518 21.0068Z" fill="#494B83"/>
</svg>
