<svg width="60" height="60" viewBox="0 0 60 60" fill="none" xmlns="http://www.w3.org/2000/svg">
<rect width="60" height="60" rx="8" fill="#464775"/>
<path d="M38.2444 30.9966C38.9532 30.9966 39.2665 31.889 38.7132 32.3321L33.9953 36.1098V37.7541C33.9953 38.9968 32.988 40.0041 31.7453 40.0041H28.2499C27.0073 40.0041 25.9999 38.9968 25.9999 37.7541V36.1099L21.2804 32.3322C20.727 31.8892 21.0402 30.9966 21.749 30.9966H38.2444ZM26.7499 26.9995H33.2447C34.1628 26.9995 34.9158 27.7066 34.9889 28.606L34.9947 28.7495V29.9995H24.9999V28.7495C24.9999 27.8314 25.7071 27.0783 26.6064 27.0053L26.7499 26.9995H33.2447H26.7499ZM29.9999 20C31.6568 20 32.9999 21.3431 32.9999 23C32.9999 24.6569 31.6568 26 29.9999 26C28.3431 26 26.9999 24.6569 26.9999 23C26.9999 21.3431 28.3431 20 29.9999 20Z" fill="#C7C9FF"/>
</svg>
