<svg width="5" height="8" viewBox="0 0 5 8" fill="none" xmlns="http://www.w3.org/2000/svg">
<path d="M0.515625 0.5C0.651042 0.5 0.768229 0.549479 0.867188 0.648438L3.86719 3.64844C3.96615 3.7474 4.01562 3.86458 4.01562 4C4.01562 4.13542 3.96615 4.2526 3.86719 4.35156L0.867188 7.35156C0.768229 7.45052 0.651042 7.5 0.515625 7.5C0.380208 7.5 0.263021 7.45052 0.164062 7.35156C0.0651042 7.2526 0.015625 7.13542 0.015625 7C0.015625 6.86458 0.0651042 6.7474 0.164062 6.64844L2.8125 4L0.164062 1.35156C0.0651042 1.2526 0.015625 1.13542 0.015625 1C0.015625 0.864583 0.0651042 0.747396 0.164062 0.648438C0.263021 0.549479 0.380208 0.5 0.515625 0.5Z" fill="#242424"/>
</svg>
