<svg width="24" height="24" viewBox="0 0 24 24" fill="none" xmlns="http://www.w3.org/2000/svg">
<rect x="2.5" y="2.5" width="19" height="19" rx="2" fill="#0077B5"/>
<path fill-rule="evenodd" clip-rule="evenodd" d="M8.37505 6.68805C8.37505 5.75325 7.61323 4.99463 6.67681 4.99463C5.73624 4.99463 4.97754 5.75325 4.97754 6.68805C4.97754 7.62388 5.73624 8.3825 6.67681 8.3825C7.61323 8.3825 8.37505 7.62388 8.37505 6.68805ZM15.5981 9.43296C18.5643 9.43296 19.112 11.3782 19.112 13.909V19.0629H16.1832L16.1823 14.2468C16.1723 13.2034 16.0532 12.0021 14.6616 12.0021C13.137 12.0021 12.9042 13.1898 12.9042 14.4158V19.0629H9.97954V9.66614H12.7867V10.9502H12.8273C13.217 10.2113 14.1732 9.43296 15.5981 9.43296ZM8.14266 9.66625V19.063H5.21076V9.66625H8.14266Z" fill="white"/>
</svg>
