<svg width="490" height="490" viewBox="0 0 490 490" fill="none" xmlns="http://www.w3.org/2000/svg">
<rect x="0.5" y="0.5" width="489" height="489" rx="2.5" fill="#FFE4EC" stroke="#FAF9F8"/>
<path d="M233.514 210.613L233.53 386.337L153.313 386.347C126.833 386.347 105.193 365.625 103.732 339.513L103.654 336.696V210.613H233.514ZM256.434 302.279H386.325L386.337 336.696C386.334 364.116 364.102 386.347 336.677 386.347L256.449 386.337L256.434 302.279ZM336.687 103.654C363.167 103.654 384.807 124.376 386.268 150.488L386.346 153.305L386.325 279.362H256.434L256.449 103.654H336.687ZM233.53 103.654L233.514 187.697H103.654L103.663 153.306C103.666 125.885 125.898 103.654 153.322 103.654H233.53Z" fill="#8B2A4A"/>
</svg>
