<svg width="490" height="490" viewBox="0 0 490 490" fill="none" xmlns="http://www.w3.org/2000/svg">
<rect x="0.5" y="0.5" width="489" height="489" rx="2.5" fill="#EEDBEB" stroke="#FAF9F8"/>
<path d="M218.892 103.654C155.62 103.654 104.328 154.712 104.328 217.696C104.328 237.89 109.609 256.88 118.874 273.347L104.849 309.879C99.6794 323.344 112.122 336.924 126.066 333.037L169.906 320.814C184.768 327.821 201.382 331.737 218.892 331.737C282.164 331.737 333.455 280.679 333.455 217.696C333.455 154.712 282.164 103.654 218.892 103.654ZM218.762 172.099C212.452 173.327 205.562 177.402 200.113 186.942C197.708 191.154 192.328 192.627 188.097 190.232C183.866 187.837 182.386 182.482 184.791 178.27C192.561 164.666 203.613 157.17 215.381 154.88C226.889 152.641 238.328 155.529 246.968 161.223C255.493 166.842 262.386 176.013 262.606 187.025C262.835 198.502 255.805 208.866 242.88 216.474C234.092 221.647 230.674 225.155 229.221 227.485C227.998 229.446 227.703 231.235 227.703 235.241C227.703 240.085 223.757 244.013 218.89 244.013C214.023 244.013 210.078 240.085 210.078 235.241C210.078 230.473 210.323 224.526 214.246 218.233C217.94 212.309 224.274 207.044 233.909 201.372C243.338 195.822 245.047 190.531 244.984 187.374C244.912 183.751 242.483 179.309 237.238 175.852C232.108 172.471 225.332 170.821 218.762 172.099ZM223.295 287.875C215.994 287.875 210.076 281.984 210.076 274.716C210.076 267.449 215.994 261.558 223.295 261.558C230.595 261.558 236.514 267.449 236.514 274.716C236.514 281.984 230.595 287.875 223.295 287.875ZM184.275 344.724C205.284 369.001 236.393 384.371 271.108 384.371C288.618 384.371 305.232 380.455 320.094 373.448L363.934 385.671C377.878 389.559 390.321 375.978 385.151 362.513L371.126 325.981C380.391 309.514 385.671 290.524 385.671 270.33C385.671 236.286 370.686 205.726 346.923 184.831C349.481 194.736 350.91 205.092 351.065 215.756C361.777 231.278 368.046 250.075 368.046 270.33C368.046 288.766 362.861 305.97 353.868 320.605L351.607 324.285L368.688 368.777L318.28 354.723L315.21 356.287C301.99 363.023 287.008 366.827 271.108 366.827C250.326 366.827 231.072 360.317 215.29 349.234C204.586 348.949 194.199 347.397 184.275 344.724Z" fill="#542A4E"/>
</svg>
