<svg width="20" height="20" viewBox="0 0 20 20" fill="none" xmlns="http://www.w3.org/2000/svg">
<path d="M16 6.99964C16.3956 6.99964 16.7822 6.88234 17.1111 6.66258C17.44 6.44282 17.6964 6.13046 17.8478 5.76501C17.9991 5.39955 18.0387 4.99742 17.9616 4.60946C17.8844 4.2215 17.6939 3.86513 17.4142 3.58543C17.1345 3.30572 16.7781 3.11524 16.3902 3.03807C16.0022 2.9609 15.6001 3.0005 15.2346 3.15188C14.8692 3.30326 14.5568 3.5596 14.3371 3.8885C14.1173 4.2174 14 4.60408 14 4.99964C14 5.53007 14.2107 6.03878 14.5858 6.41385C14.9609 6.78893 15.4696 6.99964 16 6.99964ZM16 3.99964C16.1978 3.99964 16.3911 4.05829 16.5556 4.16817C16.72 4.27805 16.8482 4.43423 16.9239 4.61696C16.9996 4.79968 17.0194 5.00075 16.9808 5.19473C16.9422 5.38871 16.847 5.56689 16.7071 5.70675C16.5673 5.8466 16.3891 5.94184 16.1951 5.98042C16.0011 6.01901 15.8 5.99921 15.6173 5.92352C15.4346 5.84783 15.2784 5.71966 15.1685 5.55521C15.0586 5.39076 15 5.19742 15 4.99964C15 4.73442 15.1054 4.48007 15.2929 4.29253C15.4804 4.105 15.7348 3.99964 16 3.99964ZM17.18 7.99964H12V7.81964C12.5185 7.63633 12.9766 7.31403 13.3243 6.88797C13.672 6.4619 13.8959 5.94846 13.9715 5.40376C14.0471 4.85905 13.9716 4.30404 13.7531 3.79937C13.5346 3.2947 13.1816 2.8598 12.7327 2.54218C12.2838 2.22456 11.7562 2.03645 11.2075 1.9984C10.6589 1.96035 10.1104 2.07384 9.62194 2.32645C9.13347 2.57906 8.72382 2.96108 8.43778 3.43076C8.15173 3.90044 8.00029 4.43971 8 4.98964H3C2.73478 4.98964 2.48043 5.095 2.29289 5.28253C2.10536 5.47007 2 5.72442 2 5.98964V13.9896C2 14.2549 2.10536 14.5092 2.29289 14.6967C2.48043 14.8843 2.73478 14.9896 3 14.9896H6.25C6.54314 15.8233 7.07527 16.5522 7.77999 17.0855C8.48471 17.6187 9.33084 17.9326 10.2128 17.988C11.0948 18.0435 11.9736 17.838 12.7395 17.3973C13.5055 16.9566 14.1247 16.3 14.52 15.5096C14.7617 15.573 15.0102 15.6065 15.26 15.6096C15.985 15.6096 16.6804 15.3223 17.1939 14.8107C17.7075 14.299 17.9974 13.6046 18 12.8796V8.81964C18 8.60216 17.9136 8.39359 17.7598 8.23981C17.606 8.08603 17.3975 7.99964 17.18 7.99964ZM11 2.99964C11.4396 3.00042 11.8667 3.14602 12.2153 3.41392C12.5638 3.68183 12.8144 4.05711 12.9282 4.48173C13.0421 4.90635 13.0128 5.35665 12.8451 5.76299C12.6773 6.16932 12.3803 6.50905 12 6.72964V5.99964C12 5.73442 11.8946 5.48007 11.7071 5.29253C11.5196 5.105 11.2652 4.99964 11 4.99964H9C9 4.46921 9.21071 3.9605 9.58579 3.58543C9.96086 3.21035 10.4696 2.99964 11 2.99964ZM14 13.4996C14.0038 14.2973 13.7349 15.0723 13.2381 15.6963C12.7413 16.3203 12.0462 16.7558 11.268 16.9308C10.4898 17.1058 9.67512 17.0098 8.95897 16.6586C8.24281 16.3074 7.66809 15.7221 7.33 14.9996H11C11.2652 14.9996 11.5196 14.8943 11.7071 14.7067C11.8946 14.5192 12 14.2649 12 13.9996V8.99964H14V13.4996ZM17 12.8896C16.9974 13.3494 16.8129 13.7894 16.4868 14.1135C16.1608 14.4377 15.7197 14.6196 15.26 14.6196C15.1285 14.6184 14.9976 14.6016 14.87 14.5696C14.9544 14.2192 14.998 13.8601 15 13.4996V8.99964H17V12.8896ZM6.75 13.2496V8.24964H4.75V6.74964H10.25V8.24964H8.25V13.2496H6.75Z" fill="white"/>
</svg>
