<svg width="16" height="16" viewBox="0 0 16 16" fill="none" xmlns="http://www.w3.org/2000/svg">
<path d="M15.3516 14.6484L10.6406 9.9375C11.0625 9.43229 11.3932 8.86719 11.6328 8.24219C11.8776 7.61198 12 6.94792 12 6.25C12 5.72396 11.9297 5.21875 11.7891 4.73438C11.6536 4.24479 11.4609 3.78646 11.2109 3.35938C10.9609 2.93229 10.6589 2.54427 10.3047 2.19531C9.95573 1.84115 9.56771 1.53906 9.14062 1.28906C8.71354 1.03906 8.25521 0.846354 7.76562 0.710938C7.28125 0.570312 6.77604 0.5 6.25 0.5C5.46354 0.5 4.72135 0.653646 4.02344 0.960938C3.33073 1.26302 2.72135 1.67708 2.19531 2.20312C1.67448 2.72396 1.26042 3.33333 0.953125 4.03125C0.651042 4.72396 0.5 5.46354 0.5 6.25C0.5 6.77083 0.567708 7.27604 0.703125 7.76562C0.84375 8.25 1.03906 8.70573 1.28906 9.13281C1.54427 9.55469 1.84896 9.94271 2.20312 10.2969C2.55729 10.651 2.94531 10.9557 3.36719 11.2109C3.79427 11.4609 4.25 11.6562 4.73438 11.7969C5.22396 11.9323 5.72917 12 6.25 12C6.94792 12 7.60938 11.8802 8.23438 11.6406C8.86458 11.3958 9.43229 11.0625 9.9375 10.6406L14.6484 15.3516C14.7474 15.4505 14.8646 15.5 15 15.5C15.1354 15.5 15.2526 15.4505 15.3516 15.3516C15.4505 15.2526 15.5 15.1354 15.5 15C15.5 14.8646 15.4505 14.7474 15.3516 14.6484ZM1.5 6.25C1.5 5.60417 1.625 4.99479 1.875 4.42188C2.13021 3.84375 2.47396 3.33854 2.90625 2.90625C3.33854 2.47396 3.84115 2.13281 4.41406 1.88281C4.99219 1.6276 5.60417 1.5 6.25 1.5C6.89583 1.5 7.50521 1.6276 8.07812 1.88281C8.65625 2.13281 9.16146 2.47396 9.59375 2.90625C10.026 3.33854 10.3672 3.84375 10.6172 4.42188C10.8724 4.99479 11 5.60417 11 6.25C11 6.89583 10.8724 7.50781 10.6172 8.08594C10.3672 8.65885 10.026 9.16146 9.59375 9.59375C9.16146 10.026 8.65625 10.3698 8.07812 10.625C7.50521 10.875 6.89583 11 6.25 11C5.60417 11 4.99219 10.875 4.41406 10.625C3.84115 10.3698 3.33854 10.026 2.90625 9.59375C2.47396 9.16146 2.13021 8.65885 1.875 8.08594C1.625 7.50781 1.5 6.89583 1.5 6.25Z" fill="white"/>
</svg>
