<svg width="48" height="48" viewBox="0 0 48 48" fill="none" xmlns="http://www.w3.org/2000/svg">
<rect width="48" height="48" rx="8" fill="#FCF2FA"/>
<path d="M32.2445 24.9971C32.9533 24.9971 33.2665 25.8895 32.7132 26.3325L27.9954 30.1103V31.7546C27.9954 32.9972 26.988 34.0046 25.7454 34.0046H22.25C21.0074 34.0046 20 32.9972 20 31.7546V30.1103L15.2804 26.3326C14.727 25.8896 15.0402 24.9971 15.7491 24.9971H32.2445ZM30.1079 26.4971H17.8863L21.2187 29.1645C21.3965 29.3068 21.5 29.5222 21.5 29.75V31.7546C21.5 32.1688 21.8358 32.5046 22.25 32.5046H25.7454C26.1596 32.5046 26.4954 32.1688 26.4954 31.7546V29.75C26.4954 29.5223 26.5988 29.3069 26.7766 29.1646L30.1079 26.4971ZM20.75 21H27.2447C28.1629 21 28.9159 21.7071 28.9889 22.6065L28.9947 22.75V24H27.4947V22.75C27.4947 22.6316 27.4125 22.5325 27.302 22.5066L27.2447 22.5H20.75C20.6317 22.5 20.5325 22.5822 20.5066 22.6927L20.5 22.75V24H19V22.75C19 21.8318 19.7071 21.0788 20.6065 21.0058L20.75 21H27.2447H20.75ZM24 14.0005C25.6569 14.0005 27 15.3436 27 17.0005C27 18.6573 25.6569 20.0005 24 20.0005C22.3432 20.0005 21 18.6573 21 17.0005C21 15.3436 22.3432 14.0005 24 14.0005ZM24 15.5005C23.1716 15.5005 22.5 16.172 22.5 17.0005C22.5 17.8289 23.1716 18.5005 24 18.5005C24.8284 18.5005 25.5 17.8289 25.5 17.0005C25.5 16.172 24.8284 15.5005 24 15.5005Z" fill="#212121"/>
</svg>
