<svg width="20" height="20" viewBox="0 0 20 20" fill="none" xmlns="http://www.w3.org/2000/svg">
<path d="M17.9622 5.30866C18.0396 5.49549 17.9969 5.71055 17.8539 5.85355L15.8539 7.85355C15.7601 7.94731 15.6329 7.99999 15.5003 7.99999H12.7071L11.3538 9.35327C11.4475 9.54908 11.5 9.76838 11.5 9.99994C11.5 10.8284 10.8284 11.4999 10 11.4999C9.17157 11.4999 8.5 10.8284 8.5 9.99994C8.5 9.17151 9.17157 8.49994 10 8.49994C10.2316 8.49994 10.4509 8.55242 10.6467 8.64614L12.0003 7.2926L12 4.49998C12 4.36735 12.0527 4.24015 12.1465 4.14637L14.1466 2.14636C14.2896 2.00337 14.5046 1.96059 14.6915 2.03799C14.8783 2.11538 15.0001 2.29769 15.0001 2.49992V4.99994L17.5003 4.99999C17.7025 5 17.8849 5.12182 17.9622 5.30866ZM16.2932 5.99997L14.5001 5.99993C14.224 5.99993 14.0001 5.77607 14.0001 5.49993V3.70698L13 4.70703L13.0003 6.99999H15.2932L16.2932 5.99997ZM17.6066 7.5151C17.8619 8.2973 18 9.13253 18 10C18 14.4183 14.4183 18 10 18C5.58172 18 2 14.4183 2 10C2 5.58172 5.58172 2 10 2C10.8676 2 11.7029 2.1381 12.4852 2.39353L11.6766 3.20207C11.1394 3.07003 10.5779 3 10 3C6.13401 3 3 6.13401 3 10C3 13.866 6.13401 17 10 17C13.866 17 17 13.866 17 10C17 9.4222 16.93 8.86075 16.798 8.32367L17.6066 7.5151ZM14.9 9.0002C14.9656 9.32322 15 9.65754 15 9.99991C15 12.7613 12.7614 14.9999 10 14.9999C7.23858 14.9999 5 12.7613 5 9.99991C5 7.23848 7.23858 4.99991 10 4.99991C10.3424 4.99991 10.6768 5.03433 10.9999 5.09991L11 6.12593C10.6804 6.04366 10.3453 5.99991 10 5.99991C7.79086 5.99991 6 7.79077 6 9.99991C6 12.209 7.79086 13.9999 10 13.9999C12.2091 13.9999 14 12.209 14 9.99991C14 9.65471 13.9563 9.31973 13.8741 9.0002H14.9Z" fill="#616161"/>
</svg>
