<svg width="13" height="16" viewBox="0 0 13 16" fill="none" xmlns="http://www.w3.org/2000/svg">
<path d="M1.22074 8.39686L6.87759 2.74001C8.04917 1.56844 9.94866 1.56844 11.1202 2.74001C12.2918 3.91158 12.2918 5.81108 11.1202 6.98265L4.40272 13.7002C3.81694 14.2859 2.86719 14.2859 2.2814 13.7002C1.69561 13.1144 1.69561 12.1646 2.2814 11.5788L8.29181 5.56843C8.48707 5.37317 8.48707 5.05659 8.29181 4.86133C8.09655 4.66607 7.77996 4.66607 7.5847 4.86133L1.57429 10.8717C0.597984 11.848 0.597984 13.431 1.57429 14.4073C2.55061 15.3836 4.13352 15.3836 5.10983 14.4073L11.8273 7.68975C13.3894 6.12766 13.3894 3.595 11.8273 2.0329C10.2652 0.470804 7.73259 0.470804 6.17049 2.0329L0.513634 7.68975C0.318372 7.88502 0.318372 8.2016 0.513634 8.39686C0.708896 8.59212 1.02548 8.59212 1.22074 8.39686Z" fill="#464775"/>
</svg>
