<svg width="40" height="40" viewBox="0 0 40 40" fill="none" xmlns="http://www.w3.org/2000/svg">
<path d="M0 4C0 1.79086 1.79086 0 4 0H36C38.2091 0 40 1.79086 40 4V36C40 38.2091 38.2091 40 36 40H4C1.79086 40 0 38.2091 0 36V4Z" fill="#F4F4FC"/>
<path d="M16 12.5H17V18.7382C17 19.1132 16.9063 19.4822 16.7274 19.8117L13.1427 26.415C12.5097 27.5811 13.3539 28.9999 14.6807 28.9999H25.3193C26.6461 28.9999 27.4903 27.5811 26.8573 26.415L23.2726 19.8117C23.0937 19.4822 23 19.1132 23 18.7382V12.5H24C24.4142 12.5 24.75 12.1642 24.75 11.75C24.75 11.3358 24.4142 11 24 11H16C15.5858 11 15.25 11.3358 15.25 11.75C15.25 12.1642 15.5858 12.5 16 12.5ZM18.5 18.7382V12.5H21.5V18.7382C21.5 19.3631 21.6561 19.9781 21.9543 20.5273L22.7537 22H17.2462L18.0457 20.5273C18.3438 19.9781 18.5 19.3631 18.5 18.7382ZM16.4319 23.5H23.568L25.539 27.1307C25.6294 27.2973 25.5088 27.4999 25.3193 27.4999H14.6807C14.4911 27.4999 14.3705 27.2973 14.461 27.1307L16.4319 23.5Z" fill="#464775"/>
</svg>
