<svg width="40" height="40" viewBox="0 0 40 40" fill="none" xmlns="http://www.w3.org/2000/svg">
<rect width="40" height="40" rx="4" fill="#F4F4FC"/>
<path d="M12.5 21.5C12.7109 21.5 12.9062 21.5391 13.0859 21.6172C13.2656 21.6953 13.4219 21.8047 13.5547 21.9453C13.6953 22.0781 13.8047 22.2344 13.8828 22.4141C13.9609 22.5938 14 22.7891 14 23C14 23.2109 13.9609 23.4062 13.8828 23.5859C13.8047 23.7656 13.6953 23.9258 13.5547 24.0664C13.4219 24.1992 13.2656 24.3047 13.0859 24.3828C12.9062 24.4609 12.7109 24.5 12.5 24.5C12.2891 24.5 12.0938 24.4609 11.9141 24.3828C11.7344 24.3047 11.5742 24.1992 11.4336 24.0664C11.3008 23.9258 11.1953 23.7656 11.1172 23.5859C11.0391 23.4062 11 23.2109 11 23C11 22.7891 11.0391 22.5938 11.1172 22.4141C11.1953 22.2344 11.3008 22.0781 11.4336 21.9453C11.5742 21.8047 11.7344 21.6953 11.9141 21.6172C12.0938 21.5391 12.2891 21.5 12.5 21.5ZM27.5 21.5C27.7109 21.5 27.9062 21.5391 28.0859 21.6172C28.2656 21.6953 28.4219 21.8047 28.5547 21.9453C28.6953 22.0781 28.8047 22.2344 28.8828 22.4141C28.9609 22.5938 29 22.7891 29 23C29 23.2109 28.9609 23.4062 28.8828 23.5859C28.8047 23.7656 28.6953 23.9258 28.5547 24.0664C28.4219 24.1992 28.2656 24.3047 28.0859 24.3828C27.9062 24.4609 27.7109 24.5 27.5 24.5C27.2891 24.5 27.0938 24.4609 26.9141 24.3828C26.7344 24.3047 26.5742 24.1992 26.4336 24.0664C26.3008 23.9258 26.1953 23.7656 26.1172 23.5859C26.0391 23.4062 26 23.2109 26 23C26 22.7891 26.0391 22.5938 26.1172 22.4141C26.1953 22.2344 26.3008 22.0781 26.4336 21.9453C26.5742 21.8047 26.7344 21.6953 26.9141 21.6172C27.0938 21.5391 27.2891 21.5 27.5 21.5ZM32 18.5H31.5664L30.793 19.2617C30.8086 19.3008 30.8477 19.418 30.9102 19.6133C30.9727 19.8086 31.0469 20.0391 31.1328 20.3047C31.2266 20.5703 31.3242 20.8555 31.4258 21.1602C31.5273 21.4648 31.6211 21.7461 31.707 22.0039C31.793 22.2539 31.8633 22.4648 31.918 22.6367C31.9727 22.8008 32 22.8828 32 22.8828V30.5C32 30.7109 31.9609 30.9062 31.8828 31.0859C31.8047 31.2656 31.6953 31.4258 31.5547 31.5664C31.4219 31.6992 31.2656 31.8047 31.0859 31.8828C30.9062 31.9609 30.7109 32 30.5 32H29C28.7891 32 28.5938 31.9609 28.4141 31.8828C28.2344 31.8047 28.0742 31.6992 27.9336 31.5664C27.8008 31.4258 27.6953 31.2656 27.6172 31.0859C27.5391 30.9062 27.5 30.7109 27.5 30.5H12.5C12.5 30.7109 12.4609 30.9062 12.3828 31.0859C12.3047 31.2656 12.1953 31.4258 12.0547 31.5664C11.9219 31.6992 11.7656 31.8047 11.5859 31.8828C11.4062 31.9609 11.2109 32 11 32H9.5C9.28906 32 9.09375 31.9609 8.91406 31.8828C8.73438 31.8047 8.57422 31.6992 8.43359 31.5664C8.30078 31.4258 8.19531 31.2656 8.11719 31.0859C8.03906 30.9062 8 30.7109 8 30.5V22.8828C8 22.8828 8.02734 22.8008 8.08203 22.6367C8.13672 22.4648 8.20703 22.2539 8.29297 22.0039C8.37891 21.7461 8.47266 21.4648 8.57422 21.1602C8.67578 20.8555 8.76953 20.5703 8.85547 20.3047C8.94922 20.0391 9.02734 19.8086 9.08984 19.6133C9.15234 19.418 9.19141 19.3008 9.20703 19.2617L8.43359 18.5H8V17H9.06641L9.73438 17.6797L10.6016 15.0664C10.7344 14.6602 10.9219 14.3008 11.1641 13.9883C11.4062 13.668 11.6875 13.3984 12.0078 13.1797C12.3359 12.9609 12.6914 12.793 13.0742 12.6758C13.457 12.5586 13.8594 12.5 14.2812 12.5L15.582 9.91016C15.6445 9.78516 15.7383 9.6875 15.8633 9.61719C15.9883 9.53906 16.1172 9.5 16.25 9.5H23.75C23.8828 9.5 24.0117 9.53906 24.1367 9.61719C24.2617 9.6875 24.3555 9.78516 24.418 9.91016L25.7188 12.5C26.1406 12.5 26.543 12.5586 26.9258 12.6758C27.3086 12.793 27.6602 12.9609 27.9805 13.1797C28.3086 13.3984 28.5938 13.668 28.8359 13.9883C29.0781 14.3008 29.2656 14.6602 29.3984 15.0664L30.2656 17.6797L30.9336 17H32V18.5ZM16.7188 11L15.9688 12.5H24.0312L23.2812 11H16.7188ZM11.0352 18.5H28.9648L27.9688 15.5352C27.8125 15.0742 27.5391 14.7031 27.1484 14.4219C26.7656 14.1406 26.3281 14 25.8359 14H14.1641C13.6719 14 13.2305 14.1406 12.8398 14.4219C12.457 14.7031 12.1875 15.0742 12.0312 15.5352L11.0352 18.5ZM24.5 29V28.4258L23.2812 26H16.7188L15.5 28.4258V29H24.5ZM26 29H30.5V23.1172C30.5 23.1172 30.4766 23.0469 30.4297 22.9062C30.3828 22.7578 30.3203 22.5742 30.2422 22.3555C30.1719 22.1367 30.0938 21.8984 30.0078 21.6406C29.9219 21.375 29.8398 21.1289 29.7617 20.9023C29.6836 20.668 29.6172 20.4688 29.5625 20.3047C29.5078 20.1406 29.4727 20.0391 29.457 20H10.543C10.5273 20.0391 10.4922 20.1406 10.4375 20.3047C10.3828 20.4688 10.3164 20.668 10.2383 20.9023C10.1602 21.1289 10.0781 21.375 9.99219 21.6406C9.90625 21.8984 9.82422 22.1367 9.74609 22.3555C9.67578 22.5742 9.61719 22.7578 9.57031 22.9062C9.52344 23.0469 9.5 23.1172 9.5 23.1172V29H14V28.0742L15.7812 24.5H24.2188L26 28.0742V29Z" fill="#464775"/>
</svg>
