<svg width="40" height="40" viewBox="0 0 40 40" fill="none" xmlns="http://www.w3.org/2000/svg">
<rect width="40" height="40" rx="4" fill="#F4F4FC"/>
<path d="M16.784 24.2201C17.05 24.4866 17.0739 24.9033 16.8557 25.1967L16.783 25.2808L13.2799 28.7777C13.0423 29.0149 12.6803 29.0625 12.3928 28.9064L12.2999 28.8468L10.2999 27.3463C9.96862 27.0977 9.90154 26.6276 10.1501 26.2963C10.3761 25.9951 10.7852 25.9123 11.1066 26.0865L11.2001 26.1465L12.68 27.2569L15.7233 24.2192C16.0165 23.9266 16.4914 23.927 16.784 24.2201ZM29.2376 25.9964C29.6518 25.9964 29.9876 26.3322 29.9876 26.7464C29.9876 27.1261 29.7055 27.4399 29.3394 27.4895L29.2376 27.4964H18.7376C18.3234 27.4964 17.9876 27.1606 17.9876 26.7464C17.9876 26.3667 18.2698 26.0529 18.6359 26.0032L18.7376 25.9964H29.2376ZM29.25 19.9969C29.6643 19.9969 30 20.3327 30 20.7469C30 21.1266 29.7179 21.4404 29.3518 21.4901L29.25 21.4969H18.75C18.3358 21.4969 18 21.1611 18 20.7469C18 20.3672 18.2822 20.0534 18.6483 20.0038L18.75 19.9969H29.25ZM16.7847 12.2209C17.0504 12.4878 17.0736 12.9045 16.8551 13.1976L16.7823 13.2816L13.2691 16.7785C13.0311 17.0154 12.6688 17.0624 12.3814 16.9057L12.2887 16.8459L10.2987 15.3464C9.96789 15.0971 9.90178 14.6269 10.1511 14.2961C10.3777 13.9953 10.7869 13.9134 11.108 14.0882L11.2014 14.1484L12.671 15.2559L15.7241 12.2184C16.0177 11.9262 16.4925 11.9273 16.7847 12.2209ZM29.2376 13.9974C29.6518 13.9974 29.9876 14.3332 29.9876 14.7474C29.9876 15.1271 29.7055 15.4409 29.3394 15.4906L29.2376 15.4974H18.7658C18.3516 15.4974 18.0158 15.1616 18.0158 14.7474C18.0158 14.3677 18.298 14.0539 18.664 14.0043L18.7658 13.9974H29.2376Z" fill="#464775"/>
</svg>
